<?xml version="1.0" encoding="utf-8"?>
<!-- Generator: Adobe Illustrator 16.0.0, SVG Export Plug-In . SVG Version: 6.00 Build 0)  -->
<!DOCTYPE svg PUBLIC "-//W3C//DTD SVG 1.1//EN" "http://www.w3.org/Graphics/SVG/1.1/DTD/svg11.dtd">
<svg version="1.1" id="Layer_1" xmlns="http://www.w3.org/2000/svg" xmlns:xlink="http://www.w3.org/1999/xlink" x="0px" y="0px"
	 width="500px" height="550px" viewBox="0 0 500 550" enable-background="new 0 0 500 550" xml:space="preserve">
<g>
	<g>
		<g>
			<path fill="#070707" d="M360.305,113.887c-10.763-19.702-29.392-33.021-50.191-40.604c-10.606-3.867-21.831-5.972-33.079-6.697
				c-14.172-0.913-28.515,1.286-42.574,2.793c-14.834,1.591-30.088,1.981-44.514,6.041c-12.396,3.489-23.712,9.875-33.575,18.083
				c-16.338,13.599-26.864,32.502-32.684,52.725c-12.215,42.445-5.156,87.864-2.711,131.121c1.856,32.836-2.283,65.214-3.365,97.953
				c-0.882,26.689,5.127,52.262,20.549,74.326c3.417,4.888,7.3,9.437,11.376,13.781c1.105,1.178,2.869-0.594,1.768-1.768
				c-19.455-20.739-30.246-46.596-31.233-75.022c-0.557-16.02,1.356-32.067,2.49-48.022c1.167-16.415,1.67-32.91,1.357-49.365
				c-0.872-45.777-9.992-92.002,0.858-137.316c4.806-20.068,14.33-38.664,29.305-53.02c9.482-9.091,20.857-15.802,33.261-20.047
				c14.432-4.94,30.101-5.145,45.142-6.758c13.397-1.437,26.942-3.395,40.441-3.172c11.038,0.182,22,2.165,32.527,5.428
				c21.752,6.743,41.644,20.574,52.693,40.802C358.919,116.563,361.078,115.302,360.305,113.887L360.305,113.887z"/>
		</g>
	</g>
	<g>
		<g>
			<path fill="#070707" d="M175.312,479.848c22.065,13.646,50.209,13.553,75.203,11.493c12.914-1.064,25.746-3.026,38.513-5.206
				c13.575-2.318,28.794-3.414,40.67-10.93c1.358-0.859,0.104-3.023-1.262-2.158c-11.646,7.369-26.752,8.384-40.072,10.677
				c-12.552,2.161-25.156,4.008-37.849,5.117c-24.504,2.143-52.321,2.22-73.941-11.151
				C175.198,476.839,173.943,479.002,175.312,479.848L175.312,479.848z"/>
		</g>
	</g>
	<g>
		<g>
			<path fill="#070707" d="M205.332,74.781c1.612,0,1.612-2.5,0-2.5S203.72,74.781,205.332,74.781L205.332,74.781z"/>
		</g>
	</g>
	<g>
		<g>
			<path fill="#070707" d="M123.415,147.165c-20.134-1.615-31.479-22.257-20.133-39.484c4.887-7.42,13.32-12.098,21.871-13.778
				c8.01-1.575,19.258-0.932,24.762,5.716c1.029,1.243,2.788-0.536,1.768-1.768c-5.916-7.144-17.229-7.89-25.83-6.569
				c-10.033,1.541-18.788,6.917-24.729,15.137c-5.84,8.08-6.469,18.49-2.555,27.483c4.204,9.657,14.828,14.959,24.847,15.763
				C125.023,149.794,125.011,147.293,123.415,147.165L123.415,147.165z"/>
		</g>
	</g>
	<g>
		<g>
			<path fill="#070707" d="M342.193,93.171c14.277-7.365,36.373-10.787,46.555,4.611c10.14,15.336,3.84,40.068-15.811,43.373
				c-1.588,0.267-0.912,2.676,0.664,2.411c21.391-3.598,27.123-28.992,17.967-45.938c-9.831-18.195-35.185-14.586-50.637-6.614
				C339.498,91.752,340.764,93.909,342.193,93.171L342.193,93.171z"/>
		</g>
	</g>
	<g>
		<g>
			<path fill="#070707" d="M231.017,170.028c0.396-0.063,0.792-0.127,1.188-0.19c-0.147-0.355-0.294-0.711-0.442-1.067
				c-0.814,0.866-3.275,0.726-4.43,1.419c-2.666,1.601-5.117,3.562-7.401,5.662c-3.604,3.314-7.05,7.861-6.283,13.004
				c0.741,4.969,7.748,8.282,12.113,8.711c9.05,0.889,17.201-4.03,26.134-4.367c10.026-0.378,26.09,10.972,29.675-4.993
				c2.616-11.651-13.554-18.604-21.942-21.703c-0.758-0.28-1.082,0.928-0.332,1.205c8.759,3.236,23.439,9.612,20.818,21.285
				c-1.783,7.941-9.59,7.232-15.599,5.516c-4.733-1.353-9.042-2.695-14.019-2.507c-5.497,0.208-10.882,2.502-16.191,3.744
				c-6.626,1.549-19.391,0.287-19.58-8.832c-0.118-5.68,6.416-10.799,10.49-13.81c1.386-1.024,2.826-2.131,4.529-2.49
				c0.809-0.17,2.294-0.316,2.901-0.961c0.342-0.364,0.132-1.121-0.442-1.067c-0.538,0.05-0.96,0.133-1.521,0.235
				C229.892,168.967,230.229,170.172,231.017,170.028L231.017,170.028z"/>
		</g>
	</g>
	<g>
		<g>
			<path fill="#070707" d="M263.503,195.887c2.219,5.769,2.873,11.902,1.599,17.972c-1.055,5.025-5.96,7.623-10.807,6.59
				c-2.818-0.601-3.961-4.728-5.049-6.918c-0.358-0.722-1.437-0.088-1.079,0.631c1.302,2.622,2.167,5.346,4.683,7.03
				c2.764,1.849,6.825,0.534,9.39-0.918c7.634-4.32,4.939-18.295,2.469-24.718C264.422,194.811,263.213,195.133,263.503,195.887
				L263.503,195.887z"/>
		</g>
	</g>
	<g>
		<g>
			<path fill="#070707" d="M150.736,463.84c11.92-6.092,18.204,9.077,26.438,14.691c0.05-0.381,0.1-0.762,0.149-1.143
				c-6.532,0.972-11.892,5.352-17.002,9.222c-5.959,4.514-13.733,11.221-21.62,7.521c-10.037-4.707-7.17-14.34-0.908-20.539
				c4.775-4.728,10.85-8.283,16.813-11.301c0.719-0.364,0.086-1.442-0.631-1.08c-9.485,4.801-31.002,17.164-20.682,30.132
				c13.091,16.449,31.1-10.776,44.362-12.75c0.586-0.087,0.542-0.874,0.149-1.143c-8.845-6.03-14.909-21.228-27.699-14.691
				C149.388,463.127,150.02,464.205,150.736,463.84L150.736,463.84z"/>
		</g>
	</g>
	<g>
		<g>
			<path fill="#070707" d="M137.105,492.398c-1.998-7.015,3.197-12.487,8.991-15.534c0.714-0.376,0.082-1.454-0.631-1.08
				c-6.318,3.323-11.713,9.407-9.565,16.946C136.121,493.505,137.327,493.175,137.105,492.398L137.105,492.398z"/>
		</g>
	</g>
	<g>
		<g>
			<path fill="#070707" d="M351.644,492.119c-6.829-4.021-11.005-10.803-16.666-16.146c-0.576-0.543-1.361-1.069-2.005-1.526
				c-5.443-3.86,2.138-8.857,4.241-10.468c4.925-3.771,10.466-5.589,16.596-3.858c8.332,2.353,13.728,11.381,15.73,19.236
				c1.147,4.502,0.485,9.234-2.781,12.678C362.981,496.018,355.822,494.205,351.644,492.119c-0.719-0.358-1.353,0.72-0.631,1.08
				c7.599,3.792,19.16,3.121,20.146-7.452c0.986-10.592-5.983-21.764-15.459-26.237c-4.897-2.312-10.075-1.497-14.825,0.66
				c-3.502,1.591-11.111,6.38-11.276,10.873c-0.147,4.021,5.165,6.337,7.59,8.932c4.43,4.74,8.141,9.876,13.825,13.225
				C351.709,493.608,352.338,492.528,351.644,492.119z"/>
		</g>
	</g>
	<g>
		<g>
			<path fill="#070707" d="M355.692,476.115c4.522,4.692,8.1,10.689,8.326,17.346c0.027,0.804,1.277,0.807,1.25,0
				c-0.238-6.992-3.933-13.291-8.691-18.23C356.017,474.649,355.134,475.534,355.692,476.115L355.692,476.115z"/>
		</g>
	</g>
	<g>
		<g>
			<path fill="#070707" d="M379.739,275.941c2.446,1.145,5.737,0.314,8.345,0.306c7.218-0.021,14.919,5.102,18.545,11.072
				c1.907,3.139,2.309,7.06,1.612,10.604c-0.994,5.056-5.948,5.813-10.245,5.191c-6.811-0.985-12.062-6.135-16.771-10.707
				c-0.579-0.561-1.464,0.322-0.885,0.885c5.247,5.091,11.311,10.819,19.059,11.277c5.115,0.303,9.715-1.995,10.284-7.572
				c0.667-6.525-2.203-12.775-7.57-16.605c-3.531-2.52-7.298-4.033-11.52-5.018c-3.175-0.74-7.332,0.841-10.223-0.512
				C379.645,274.522,379.01,275.6,379.739,275.941L379.739,275.941z"/>
		</g>
	</g>
	<g>
		<g>
			<path fill="#070707" d="M396.182,292.988c4.558,1.41,10.123,5.297,7.36,10.685c-0.366,0.716,0.712,1.349,1.08,0.631
				c3.158-6.16-2.674-10.84-8.108-12.521C395.741,291.544,395.414,292.751,396.182,292.988L396.182,292.988z"/>
		</g>
	</g>
	<circle fill="none" stroke="#070707" stroke-width="1.5" stroke-miterlimit="10" cx="297.688" cy="128.358" r="40.217"/>
	<path fill="none" stroke="#070707" stroke-width="1.5" stroke-miterlimit="10" d="M236.616,132.624
		c0-22.207-18.001-40.209-40.213-40.209c-22.209,0-40.216,18.003-40.216,40.209c0,22.213,18.006,40.216,40.216,40.216
		C218.615,172.84,236.616,154.837,236.616,132.624z"/>
	<path fill="#070707" d="M374.695,112.438c0-4.695-3.81-8.505-8.506-8.505c-4.702,0-8.507,3.81-8.507,8.505
		c0,4.703,3.805,8.508,8.507,8.508C370.886,120.946,374.695,117.14,374.695,112.438z"/>
	<circle fill="#070707" cx="127.247" cy="120.042" r="8.508"/>
	<path fill="#070707" d="M265.296,165.473c0-5.507-8.061-9.965-17.993-9.965c-9.943,0-18.001,4.458-18.001,9.965
		c0,5.5,8.058,9.962,18.001,9.962C257.235,175.435,265.296,170.973,265.296,165.473z"/>
	<path fill="#070707" d="M276.598,117.612c-7.261,0-13.145,5.883-13.145,13.148c0,7.258,5.884,13.147,13.145,13.147
		c7.262,0,13.148-5.889,13.148-13.147C289.746,123.496,283.859,117.612,276.598,117.612z M281.893,139.121
		c-2.056,0-3.722-1.666-3.722-3.721c0-2.054,1.666-3.722,3.722-3.722c2.055,0,3.721,1.667,3.721,3.722
		C285.613,137.455,283.947,139.121,281.893,139.121z"/>
	<path fill="#070707" d="M174.569,120.745c-7.261,0-13.145,5.883-13.145,13.145s5.884,13.151,13.145,13.151
		c7.262,0,13.147-5.89,13.147-13.151S181.831,120.745,174.569,120.745z M179.86,142.253c-2.051,0-3.718-1.666-3.718-3.721
		s1.667-3.722,3.718-3.722c2.059,0,3.725,1.667,3.725,3.722S181.919,142.253,179.86,142.253z"/>
	<g>
		<g>
			<path fill="#070707" d="M248.345,193.172c1.036,5.273,0.537,11.706,0.13,17.023c-0.518,6.76-6.146,15.186-13.431,9.076
				c-5.642-4.732-3.853-16.522-2.044-22.611c0.23-0.774-0.976-1.103-1.205-0.332c-2.283,7.688-3.879,22.526,5.857,25.776
				c14.404,4.809,13.324-22.009,11.898-29.265C249.395,192.049,248.19,192.385,248.345,193.172L248.345,193.172z"/>
		</g>
	</g>
	<g>
		<g>
			<path fill="#070707" d="M122.159,279.223c-9.188-1.615-18.629,2.74-25.338,8.86c-4.738,4.322-7.181,10.841-0.608,14.491
				c0.705,0.392,1.335-0.688,0.631-1.08c-8.291-4.604,0.098-12.332,4.796-15.624c5.794-4.06,13.091-6.69,20.187-5.442
				C122.615,280.566,122.952,279.361,122.159,279.223L122.159,279.223z"/>
		</g>
	</g>
	<g>
		<g>
			<path fill="#070707" d="M103.176,295.959c-2.501,1.183-6.318,3.713-6.207,6.955c0.103,2.989,2.893,4.863,5.708,5.228
				c7.805,1.011,16.108-7.057,20.308-12.795c0.477-0.651-0.608-1.274-1.079-0.631c-3.302,4.511-7.876,8.358-12.838,10.898
				c-3.274,1.677-7.92,2.271-10.464-1.1c-2.302-3.051,3.181-6.521,5.203-7.476C104.536,296.694,103.901,295.617,103.176,295.959
				L103.176,295.959z"/>
		</g>
	</g>
	<g>
		<g>
			<path fill="#070707" d="M356.064,110.588c15.212,22.182,19.441,49.185,20.702,75.516c1.311,27.371-0.197,54.803,0.875,82.195
				c1.266,32.36,4.016,64.659,3.905,97.064c-0.054,15.965-0.856,31.82-4.378,47.439c-1.646,7.304-3.83,14.418-7.309,21.067
				c-3.166,6.053-7.295,11.574-10.982,17.309c-1.453,2.259-2.79,4.583-4.061,6.948c-0.764,1.42,1.396,2.683,2.158,1.262
				c6.159-11.459,14.738-21.337,19.21-33.697c4.918-13.593,6.746-28.564,7.46-42.924c1.604-32.282-0.993-64.684-2.683-96.907
				c-1.498-28.559-1.018-56.989-1.309-85.557c-0.253-24.783-1.969-50.812-11.986-73.825c-2.621-6.02-5.73-11.735-9.445-17.151
				C357.317,108.006,355.149,109.254,356.064,110.588L356.064,110.588z"/>
		</g>
	</g>
	<g>
		<g>
			<path fill="#070707" d="M329.406,474.019c0.207,0,0.413,0,0.62,0c0.806,0,0.806-1.25,0-1.25c-0.045,0-0.091,0-0.136,0
				c-0.212,0-0.439,0.117-0.54,0.31c-0.051,0.099-0.19,0.215-0.11,0.198c0.256,0.256,0.513,0.513,0.769,0.769
				c0.081-0.242,0.161-0.485,0.242-0.728c-0.348,0.092-0.696,0.184-1.045,0.276c0.243,0.242,0.485,0.484,0.727,0.728
				c0.57,0.57,1.454-0.313,0.885-0.885c-0.242-0.242-0.484-0.484-0.727-0.728c-0.347-0.346-0.898-0.163-1.045,0.276
				c-0.081,0.242-0.161,0.485-0.242,0.728c-0.16,0.481,0.331,0.859,0.769,0.769c0.395-0.082,0.68-0.43,0.858-0.772
				c-0.181,0.104-0.36,0.206-0.54,0.31c0.045,0,0.091,0,0.136,0c0.806,0,0.806-1.25,0-1.25c-0.207,0-0.413,0-0.62,0
				C328.601,472.769,328.601,474.019,329.406,474.019L329.406,474.019z"/>
		</g>
	</g>
</g>
</svg>
