<?xml version="1.0" encoding="utf-8"?>
<!-- Generator: Adobe Illustrator 16.0.0, SVG Export Plug-In . SVG Version: 6.00 Build 0)  -->
<!DOCTYPE svg PUBLIC "-//W3C//DTD SVG 1.1//EN" "http://www.w3.org/Graphics/SVG/1.1/DTD/svg11.dtd">
<svg version="1.1" id="Layer_1" xmlns="http://www.w3.org/2000/svg" xmlns:xlink="http://www.w3.org/1999/xlink" x="0px" y="0px"
	 width="500px" height="550px" viewBox="0 0 500 550" enable-background="new 0 0 500 550" xml:space="preserve">
<g>
	<g>
		<path fill="#070707" d="M449.753,186.162c0.799-23.718-12.97-45.755-31.513-59.695c-11.462-8.617-24.955-13.968-37.897-19.936
			c-13.143-6.061-25.239-12.042-39.958-12.896c-45.493-2.64-73.47,39.293-92,74.653c-5.449,10.398-10.52,20.989-15.963,31.39
			c-8.084,15.446-17.766,30.061-27.826,44.275c-9.505,13.43-18.986,26.789-23.888,42.675c-4.357,14.123-4.269,29.199-1.118,43.544
			c0.346,1.574,2.756,0.907,2.411-0.664c-3.227-14.688-2.819-29.456,1.62-43.844c4.623-14.981,14.177-27.818,23.133-40.449
			c9.006-12.703,17.554-25.741,25.153-39.339c5.389-9.645,10.122-19.657,15.123-29.505c19.458-38.317,47.348-84.19,96.882-79.984
			c13.958,1.185,26.167,8.162,38.643,13.902c11.361,5.228,23.059,10.058,33.23,17.438c18.451,13.389,32.252,35.14,31.468,58.434
			C447.198,187.775,449.699,187.77,449.753,186.162L449.753,186.162z"/>
	</g>
	<g>
		<path fill="#070707" d="M189.897,350.7c8.83,16.884,26.324,27.499,42.84,35.733c8.576,4.275,17.46,7.924,26.384,11.401
			c10.187,3.97,20.953,9.407,32.084,9.222c1.61-0.027,1.613-2.527,0-2.5c-10.84,0.181-21.477-5.28-31.42-9.132
			c-8.737-3.385-17.372-7.023-25.787-11.149c-16.164-7.927-33.341-18.389-41.944-34.837
			C191.309,348.01,189.151,349.273,189.897,350.7L189.897,350.7z"/>
	</g>
	<g>
		<path fill="#070707" d="M283.846,116.78c-9.47-9.179-10.643-22.845,0.961-30.833c5.038-3.467,11.402-4.206,17.29-3.085
			c6.472,1.231,15.601,6.09,17.375,12.857c0.408,1.558,2.819,0.896,2.41-0.665c-1.914-7.304-9.908-11.586-16.546-13.91
			c-6.885-2.41-14.542-1.424-20.844,2.059c-5.679,3.139-9.637,8.907-10.697,15.256c-1.299,7.771,2.909,14.879,8.283,20.089
			C283.235,119.67,285.005,117.904,283.846,116.78L283.846,116.78z"/>
	</g>
	<g>
		<path fill="#070707" d="M445.747,166.216c10.359,0.678,24.107,5.456,27.304,16.468c4.306,14.836-11.008,31.002-25.861,25.56
			c-1.517-0.556-2.165,1.861-0.664,2.411c15.986,5.858,29.753-9.065,29.549-24.368c-0.199-14.883-17.818-21.753-30.327-22.571
			C444.137,163.611,444.146,166.112,445.747,166.216L445.747,166.216z"/>
	</g>
	<g>
		<path fill="#070707" d="M344.741,172.836c0.267,0.114,0.533,0.229,0.8,0.342c0.16-0.38,0.321-0.761,0.481-1.142
			c-6.194-0.981-16.212-1.178-19.602,5.599c-1.513,3.024,0.681,7.217,2.741,9.355c3.911,4.059,9.378,5.064,14.607,6.541
			c6.356,1.796,9.63,5.868,14.118,10.28c2.933,2.882,6.225,3.852,10.003,2.094c10.516-4.894,1.181-19.102-3.252-24.63
			c-0.505-0.629-1.384,0.262-0.885,0.884c2.812,3.506,5.279,7.207,6.82,11.454c2.197,6.052-2.21,14.937-9.473,11.134
			c-3.094-1.619-5.325-5.11-7.771-7.515c-1.947-1.914-4.376-3.178-6.897-4.155c-3.48-1.349-7.214-1.961-10.726-3.239
			c-4.378-1.593-10.459-7.069-7.854-12.279c2.85-5.696,12.849-5.108,17.837-4.318c0.698,0.11,1.085-0.725,0.481-1.143
			c-0.332-0.23-0.717-0.324-1.099-0.468C344.318,171.345,343.995,172.554,344.741,172.836L344.741,172.836z"/>
	</g>
	<g>
		<path fill="#070707" d="M355.522,201.563c-0.695,4.289-2.831,8.592-5.649,11.875c-1.929,2.246-4.46,3.158-7.279,1.907
			c-2.63-1.167-4.433-5.007-2.297-7.374c0.538-0.597-0.343-1.483-0.885-0.884c-4.116,4.562,1.61,10.319,6.522,10.084
			c6.066-0.291,9.997-10.367,10.793-15.276C356.855,201.107,355.651,200.769,355.522,201.563L355.522,201.563z"/>
	</g>
	<g>
		<path fill="#070707" d="M180.496,330.963c9.844,0.742,8.161,12.779,11.231,19.519c0.235-0.306,0.47-0.612,0.706-0.918
			c-9.392-3.761-27.756,5.946-32.232-6.403c-4.483-12.368,16.24-12.202,23.375-11.712c0.805,0.056,0.8-1.195,0-1.25
			c-7.697-0.529-25.113-1.038-25.155,10.262c-0.062,17.131,24.734,6.727,33.68,10.309c0.569,0.229,0.903-0.484,0.706-0.918
			c-3.394-7.45-1.491-19.322-12.31-20.138C179.691,329.652,179.697,330.902,180.496,330.963L180.496,330.963z"/>
	</g>
	<g>
		<path fill="#070707" d="M160.928,343.983c1.355-5.202,6.79-6.697,11.594-6.424c0.806,0.046,0.801-1.204,0-1.25
			c-5.38-0.306-11.306,1.605-12.799,7.342C159.519,344.432,160.725,344.763,160.928,343.983L160.928,343.983z"/>
	</g>
	<g>
		<path fill="#070707" d="M289.934,406.748c6.847-5.1,18.108-6.715,23.539,1.122c3.539,5.108,3.291,12.562,0.961,18.079
			c-3.187,7.55-10.543,6.712-15.044,0.693c-4.355-5.824-3.382-14.541-6.354-21.056c-0.335-0.732-1.412-0.097-1.08,0.631
			c4.005,8.778,2.038,20.039,11.399,25.633c5.514,3.295,10.394-1.092,12.49-6.058c2.5-5.921,2.194-14.277-1.921-19.443
			c-6.019-7.557-17.552-5.946-24.622-0.682C288.664,406.144,289.286,407.229,289.934,406.748L289.934,406.748z"/>
	</g>
	<g>
		<path fill="#070707" d="M307.414,417.35c1.095,4.717,1.091,9.878-1.291,14.215c-0.388,0.707,0.691,1.338,1.08,0.631
			c2.546-4.637,2.589-10.125,1.416-15.178C308.438,416.232,307.231,416.565,307.414,417.35L307.414,417.35z"/>
	</g>
	<g>
		<path fill="#070707" d="M422.888,259.711c5.155-3.591,11.248-5.77,17.365-3.123c4.251,1.84,6.866,6.173,3.456,10.585
			c-1.733,2.243-4.737,3.199-7.388,3.769c-4.404,0.948-9.045-0.904-13.485-1.052c-3.188-0.106-6.87,1.736-9.39,3.525
			c-0.651,0.462-0.028,1.547,0.631,1.079c4.018-2.853,8.829-3.64,13.626-2.854c2.537,0.416,5.135,1.029,7.723,0.675
			c4.975-0.681,9.443-2.951,11.136-7.913c1.493-4.377-3.64-8.013-6.902-9.424c-5.837-2.526-12.593,0.302-17.402,3.652
			C421.601,259.089,422.225,260.173,422.888,259.711L422.888,259.711z"/>
	</g>
	<g>
		<path fill="#070707" d="M435.396,264.149c3.084-1.592,7.999-2.451,9.302,1.775c0.236,0.768,1.443,0.44,1.205-0.332
			c-1.561-5.062-7.272-4.518-11.138-2.522C434.048,263.44,434.681,264.519,435.396,264.149L435.396,264.149z"/>
	</g>
	<path fill="none" stroke="#070707" stroke-width="1.5" stroke-miterlimit="10" d="M429.485,186.882
		c8.516-14.279,3.845-32.759-10.436-41.279c-14.275-8.515-32.759-3.844-41.277,10.438c-8.515,14.277-3.843,32.761,10.435,41.274
		C402.484,205.831,420.968,201.164,429.485,186.882z"/>
	<path fill="none" stroke="#070707" stroke-width="1.5" stroke-miterlimit="10" d="M362.729,150.788
		c8.518-14.28,3.845-32.764-10.437-41.277c-14.279-8.52-32.759-3.845-41.273,10.434c-8.521,14.28-3.847,32.759,10.433,41.277
		C335.731,169.739,354.211,165.065,362.729,150.788z"/>
	<path fill="#070707" d="M459.162,190.26c1.803-3.021,0.814-6.93-2.207-8.731c-3.021-1.801-6.928-0.816-8.731,2.205
		c-1.801,3.021-0.813,6.933,2.21,8.734C453.451,194.268,457.361,193.281,459.162,190.26z"/>
	<path fill="#070707" d="M303.601,104.238c1.799-3.021,0.812-6.933-2.209-8.729c-3.018-1.803-6.933-0.818-8.736,2.202
		c-1.796,3.023-0.809,6.932,2.21,8.733C297.885,108.246,301.798,107.261,303.601,104.238z"/>
	<path fill="#070707" d="M368.57,182.902c2.109-3.541-1.359-9.498-7.748-13.311c-6.391-3.809-13.278-4.032-15.391-0.49
		c-2.114,3.537,1.357,9.495,7.75,13.306C359.57,186.219,366.458,186.439,368.57,182.902z"/>
	<path fill="#070707" d="M394.191,156.466c-4.667-2.787-10.708-1.26-13.494,3.41c-2.784,4.669-1.259,10.713,3.409,13.494
		c4.673,2.789,10.713,1.259,13.497-3.41C400.39,165.292,398.862,159.251,394.191,156.466z M389.344,172.323
		c-1.32-0.79-1.749-2.498-0.961-3.82c0.787-1.32,2.495-1.754,3.817-0.963c1.32,0.788,1.756,2.497,0.969,3.82
		C392.379,172.68,390.666,173.111,389.344,172.323z"/>
	<path fill="#070707" d="M327.393,119.354c-4.67-2.784-10.711-1.257-13.495,3.409c-2.783,4.67-1.257,10.711,3.41,13.494
		c4.667,2.787,10.707,1.259,13.496-3.41C333.585,128.18,332.059,122.134,327.393,119.354z M322.547,135.211
		c-1.322-0.788-1.754-2.5-0.969-3.82c0.788-1.321,2.503-1.754,3.822-0.964c1.322,0.786,1.752,2.496,0.964,3.818
		C325.579,135.565,323.867,136.001,322.547,135.211z"/>
	<g>
		<path fill="#070707" d="M346.821,194.107c-1.818,3.839-3.828,7.784-6.254,11.279c-1.94,2.794-4.614,5.007-8.236,4.332
			c-1.891-0.353-3.255-1.522-3.787-3.353c-1.442-4.964,3.696-11.995,6.966-15.268c0.569-0.571-0.314-1.455-0.885-0.884
			c-3.957,3.962-9.926,12.551-6.51,18.285c1.891,3.174,6.58,3.059,9.41,1.601c5.091-2.624,8.102-10.56,10.376-15.361
			C348.244,194.014,347.167,193.379,346.821,194.107L346.821,194.107z"/>
	</g>
	<g>
		<path fill="#070707" d="M233.024,201.027c-5.325-4.493-12.583-5.257-19.273-4.169c-5.083,0.827-9.476,4.238-6.598,9.443
			c0.39,0.706,1.469,0.075,1.079-0.631c-3.647-6.599,5.726-7.757,9.477-7.986c5.114-0.312,10.467,0.881,14.432,4.226
			C232.752,202.427,233.641,201.547,233.024,201.027L233.024,201.027z"/>
	</g>
	<g>
		<path fill="#070707" d="M214.287,204.467c-2.574-0.231-5.55,0.158-6.999,2.551c-1.153,1.905,0.73,4.473,2.204,5.541
			c2.035,1.475,5.454,1.334,7.808,1.302c2.548-0.035,5.385-0.25,7.797-1.14c0.75-0.276,0.426-1.484-0.332-1.205
			c-3.001,1.106-6.497,1.179-9.657,1.075c-1.694-0.056-3.483-0.278-4.985-1.111c-2.522-1.4-2.133-4.482,0.381-5.464
			c1.195-0.467,2.532-0.411,3.782-0.298C215.09,205.789,215.083,204.539,214.287,204.467L214.287,204.467z"/>
	</g>
	<g>
		<path fill="#070707" d="M447.662,182.431c1.296,21.703-7.565,41.885-17.871,60.466c-10.682,19.259-22.684,37.692-33.045,57.151
			c-10.83,20.339-21.127,40.969-33.286,60.565c-6.083,9.804-12.837,18.99-21.109,27.068c-8.354,8.157-18.804,11.625-28.634,17.455
			c-1.385,0.821-0.128,2.982,1.262,2.158c8.913-5.286,18.769-8.524,26.625-15.503c8.219-7.301,15.038-16.02,21.019-25.202
			c13.597-20.876,24.621-43.304,36.282-65.28c10.599-19.974,22.912-38.881,33.869-58.636c10.219-18.423,18.67-38.784,17.389-60.243
			C450.066,180.83,447.566,180.82,447.662,182.431L447.662,182.431z"/>
	</g>
	<g>
		<path fill="#070707" d="M336.808,427.423l-7.104-15.604l-13.764,4.723c0.021,0.153,0.077,0.28,0.077,0.446v2.142l12.366-4.243
			l6.722,14.773l35.088,5.496l-35.035,5.852l-6.486,14.763l-31.768-10.452l-0.225-0.075l-41.55,2.533l19.28-12.174l-19.451-11.967
			l41.739,2.124l1.832-0.632c-0.204-0.364-0.352-0.787-0.383-1.294c-0.007-0.115-0.042-0.227-0.057-0.339
			c-0.091-0.244-0.119-0.512-0.176-0.768l-1.568,0.537l-50.925-2.592l24.313,14.957l-24.081,15.2l50.702-3.087l33.679,11.078
			l6.852-15.595l48.793-8.146L336.808,427.423z"/>
	</g>
	<polygon fill="none" stroke="#070707" stroke-miterlimit="10" points="166.322,426.703 181.256,437.837 214.808,439.608 
		190.554,448.254 196.194,460.529 166.322,454.755 136.426,460.529 142.066,448.254 117.812,439.608 151.362,437.837 	"/>
	<polygon fill="none" stroke="#070707" stroke-miterlimit="10" points="62.265,461.555 71.251,468.254 91.443,469.318 
		76.849,474.522 80.24,481.912 62.265,478.437 44.275,481.912 47.669,474.522 33.072,469.318 53.264,468.254 	"/>
</g>
</svg>
