<?xml version="1.0" encoding="utf-8"?>
<!-- Generator: Adobe Illustrator 16.0.0, SVG Export Plug-In . SVG Version: 6.00 Build 0)  -->
<!DOCTYPE svg PUBLIC "-//W3C//DTD SVG 1.1//EN" "http://www.w3.org/Graphics/SVG/1.1/DTD/svg11.dtd">
<svg version="1.1" id="Layer_1" xmlns="http://www.w3.org/2000/svg" xmlns:xlink="http://www.w3.org/1999/xlink" x="0px" y="0px"
	 width="500px" height="550px" viewBox="0 0 500 550" enable-background="new 0 0 500 550" xml:space="preserve">
<g>
	<g>
		<path fill="#070707" d="M346.083,281.149c-0.99,7.584-0.567,15.841-5.177,22.354c-0.934,1.319,1.235,2.566,2.158,1.262
			c4.868-6.877,4.474-15.609,5.519-23.615C348.791,279.555,346.289,279.574,346.083,281.149L346.083,281.149z"/>
	</g>
	<g>
		<path fill="#070707" d="M77.657,337.845c-5.977,9.176-14.321,17.065-15.987,28.353c-1.563,10.59,5.125,21.438,11.276,29.442
			c6.838,8.896,15.592,16.444,25.076,22.396c5.96,3.74,12.326,6.849,18.495,10.225c3.151,1.725,6.239,3.552,9.28,5.464
			c2.9,1.824,6.771,3.765,9.163,6.226c1.125,1.158,2.891-0.611,1.768-1.768c-2.944-3.029-7.572-5.298-11.151-7.549
			c-5.596-3.521-11.502-6.534-17.318-9.667c-10.494-5.653-19.926-12.238-28.202-20.875c-7.952-8.299-16.398-20.044-16.061-32.079
			c0.317-11.32,10.039-20.029,15.82-28.906C80.698,337.751,78.533,336.5,77.657,337.845L77.657,337.845z"/>
	</g>
	<g>
		<path fill="#070707" d="M158.765,440.084c12.292,2.004,24.434,2.404,36.854,1.628c13.195-0.825,26.529-1.38,39.638-3.164
			c11.167-1.52,22.03-4.158,32.102-9.325c8.914-4.574,18.906-11.909,23.567-20.986c0.735-1.432-1.422-2.696-2.158-1.262
			c-4.793,9.332-15.03,16.169-24.15,20.849c-10.171,5.218-21.77,7.362-33.019,8.673c-23.668,2.757-48.541,5.028-72.167,1.178
			C157.853,437.417,157.177,439.825,158.765,440.084L158.765,440.084z"/>
	</g>
	<g>
		<path fill="#070707" d="M106.757,235.036C88.545,221.125,68.664,246.927,61,261.166c-6.004,11.154-8.197,23.74-5.848,36.194
			c2.351,12.464,9.88,23.562,18.106,32.914c18.304,20.806,43.264,37.385,67.86,49.73c27.212,13.658,56.995,20.146,86.781,25.391
			c32.472,5.718,64.878,6.814,95.428-7.303c13.23-6.114,25.061-14.994,34.99-25.621c10.396-11.124,17.308-24.238,23.6-37.967
			c0.667-1.454-1.487-2.726-2.158-1.262c-6.011,13.114-12.517,25.365-22.117,36.258c-9.493,10.771-21.223,19.312-34.039,25.695
			c-29.944,14.914-62.969,13.319-95.039,7.789c-30.859-5.321-61.305-12.4-89.35-26.744c-25.124-12.85-50.599-30.516-68.357-52.699
			c-6.66-8.319-11.629-18.018-13.611-28.523c-2.221-11.777,1.155-23.752,6.718-34.087c6.934-12.881,25.326-36.114,41.531-23.735
			C106.777,238.174,108.02,236.001,106.757,235.036L106.757,235.036z"/>
	</g>
	<g>
		<path fill="#070707" d="M379.582,336.417c18.01,5.371,37.324,8.987,56.086,5.942c15.62-2.535,35.201-14.21,35.114-32.149
			c-0.076-15.792-19.662-24.902-32.095-29.381c-10.422-3.754-21.151-5.14-32.206-4.186c-6.958,0.601-13.8,2.26-20.471,4.265
			c-5.695,1.711-11.773,3.311-16.862,6.469c-1.366,0.848-0.112,3.011,1.262,2.158c4.438-2.754,9.555-4.026,14.474-5.651
			c6.423-2.121,13.034-3.655,19.739-4.537c10.294-1.354,20.488-0.192,30.354,2.873c12.706,3.946,32.35,12.456,33.305,27.99
			c0.546,8.871-6.819,17.135-13.491,21.998c-7.064,5.149-15.853,7.438-24.421,8.365c-16.803,1.817-34.087-1.784-50.124-6.566
			C378.697,333.545,378.041,335.958,379.582,336.417L379.582,336.417z"/>
	</g>
	<g>
		<path fill="#070707" d="M354.888,294.149c-25.22,14.686-41.481,42.406-69.764,52.133c-19.151,6.587-39.526,1.143-58.097-4.707
			c-19.807-6.239-40.055-9.933-58.326-20.217c-1.407-0.792-2.667,1.368-1.262,2.158c8.166,4.597,16.573,8.426,25.582,11.049
			c10.507,3.061,21.146,5.515,31.575,8.858c18.496,5.928,37.858,11.136,57.24,6.429c30.819-7.485,48.054-38.252,74.314-53.545
			C357.542,295.497,356.283,293.336,354.888,294.149L354.888,294.149z"/>
	</g>
	<g>
		<path fill="#070707" d="M94.756,264.835c1.835,10.819,8.053,19.46,15.809,26.941c4.013,3.87,8.44,7.316,12.851,10.714
			c5.283,4.069,10.329,8.598,15.994,12.117c1.374,0.854,2.627-1.31,1.262-2.158c-9.165-5.694-18.022-13.263-26.126-20.406
			c-8.485-7.479-15.448-16.494-17.377-27.873C96.897,262.583,94.489,263.259,94.756,264.835L94.756,264.835z"/>
	</g>
	<g>
		<path fill="#070707" d="M62.076,372.964c-7.14-2.009-16.968-0.321-18.175,8.198c-1.789,12.628,19.371,9.204,25.825,10.106
			c0.788,0.11,1.127-1.094,0.332-1.205c-7.305-1.021-14.499,1.078-21.528-2.473c-7.809-3.945-1.817-11.987,3.617-13.592
			c3.069-0.906,6.555-0.686,9.597,0.17C62.521,374.388,62.851,373.182,62.076,372.964L62.076,372.964z"/>
	</g>
	<g>
		<path fill="#070707" d="M137.324,439.164c3.836-5.997,11.767-10.615,17.816-4.592c5.941,5.916,0.002,15.398-3.698,20.776
			c-4.538,6.595-11.336,13.713-19.959,11.074c-11.03-3.376,2.441-14.733,7.99-15.549c0.795-0.117,0.456-1.321-0.332-1.205
			c-5.932,0.872-16.574,8.602-11.756,15.497c2.192,3.138,7.33,3.711,10.738,3.003c5.277-1.095,9.641-6.082,12.814-10.057
			c5.159-6.459,11.463-16.783,5.086-24.424c-6.077-7.281-15.875-1.259-19.779,4.845
			C135.809,439.215,136.891,439.841,137.324,439.164L137.324,439.164z"/>
	</g>
	<g>
		<path fill="#070707" d="M129.379,465.99c-3.929-1.221-7.606-2.942-8.074-7.745c-0.378-3.876,3.715-8.039,6.177-10.519
			c3.178-3.201,7.561-4.833,9.962-8.781c0.42-0.69-0.661-1.318-1.079-0.631c-2.261,3.717-6.581,5.665-9.767,8.528
			c-2.89,2.597-5.185,5.962-6.329,9.666c-1.798,5.823,4.242,9.278,8.777,10.687C129.819,467.436,130.147,466.229,129.379,465.99
			L129.379,465.99z"/>
	</g>
	<g>
		<path fill="#070707" d="M242.605,436.808c-1.488,12.255,5.039,30.354,20.497,24.712c12.661-4.622,5.608-24.121,0.977-32.033
			c-0.407-0.695-1.488-0.066-1.08,0.631c4.527,7.732,10.665,23.918,0.536,29.833c-6.495,3.792-13.458,0.114-16.822-5.723
			c-2.949-5.117-3.556-11.661-2.857-17.42C243.952,436.009,242.701,436.018,242.605,436.808L242.605,436.808z"/>
	</g>
	<g>
		<path fill="#070707" d="M257.269,448.116c0.103,4.981,2.205,9.516,6.068,12.685c0.618,0.506,1.508-0.373,0.885-0.885
			c-3.619-2.967-5.607-7.13-5.703-11.8C258.502,447.312,257.252,447.31,257.269,448.116L257.269,448.116z"/>
	</g>
	<g>
		<path fill="#070707" d="M157.525,330.272c4.809-5.52,17.057-9.876,12.339-19.069c-4.677-9.115-18.289-3.413-24.846-0.317
			c-6.771,3.197-20.25,8.647-16.139,18.396c4.027,9.546,18.953-4.045,22.521-6.586c0.65-0.464,0.027-1.549-0.631-1.08
			c-3.795,2.703-20.207,17.174-21.479,4.226c-0.712-7.249,12.105-11.867,17.344-14.341c6.852-3.234,19.447-7.757,22.972,2.222
			c2.346,6.639-9.462,11.646-12.966,15.666C156.115,329.993,156.995,330.881,157.525,330.272L157.525,330.272z"/>
	</g>
	<g>
		<path fill="#070707" d="M132.979,333.208c7.663,9.296,17.625,3.719,24.832-3.157c0.584-0.558-0.301-1.44-0.884-0.885
			c-6.625,6.322-15.8,11.97-23.064,3.157C133.349,331.701,132.47,332.591,132.979,333.208L132.979,333.208z"/>
	</g>
	<g>
		<path fill="#070707" d="M97.609,264.551c18.393-45.63,31.286-97.05,76.442-124.069c44.732-26.764,104.503-25.347,147.337,4.484
			c10.683,7.44,19.756,16.885,25.943,28.387c3.148,5.852,5.107,12.205,6.312,18.715c1.4,7.566,2.27,17.196,0.185,24.691
			c-0.434,1.556,1.979,2.216,2.41,0.665c1.638-5.884,1.108-12.19,0.753-18.22c-0.402-6.828-1.887-13.537-4.261-19.94
			c-4.125-11.121-11.55-20.74-20.236-28.682c-17.948-16.41-41.867-26.173-65.658-29.969c-47.908-7.644-98.923,10.021-128.544,49.002
			c-21.086,27.75-30.252,62.414-43.093,94.271C94.595,265.382,97.015,266.026,97.609,264.551L97.609,264.551z"/>
	</g>
	<g>
		<path fill="#070707" d="M144.01,162.77c-6.944-3.726-13.247-8.937-15.146-16.909c-1.509-6.331,1.479-12.623,5.918-16.988
			c5.312-5.224,13.003-7.228,20.25-7.305c4.704-0.05,9.26,1.105,13.726,2.461c3.589,1.089,12.581,4.268,12.794,9.31
			c0.068,1.606,2.568,1.613,2.5,0c-0.394-9.269-17.037-13.055-23.842-13.89c-9.199-1.128-18.306,0.633-25.719,6.369
			c-5.922,4.582-9.242,12.029-8.251,19.466c1.216,9.125,8.878,15.55,16.509,19.644C144.169,165.69,145.431,163.532,144.01,162.77
			L144.01,162.77z"/>
	</g>
	<path fill="#070707" d="M164.868,145.363c1.146-3.701-1.394-7.718-5.682-8.967c-4.288-1.25-8.694,0.732-9.845,4.442
		c-1.147,3.702,1.397,7.718,5.685,8.968C159.313,151.059,163.718,149.07,164.868,145.363z"/>
	<g>
		<path fill="#070707" d="M206.131,125.289c1.274-9.159,5.292-20.005,13.421-25.179c4.926-3.135,11.423-2.272,16.156,0.663
			c6.195,3.842,6.557,12.234,4.133,18.336c-0.596,1.5,1.823,2.145,2.411,0.665c4.778-12.032-3.42-26.089-17.351-23.98
			c-13.146,1.989-19.544,17.064-21.182,28.831C203.5,126.2,205.909,126.879,206.131,125.289L206.131,125.289z"/>
	</g>
	
		<ellipse fill="none" stroke="#070707" stroke-width="1.5" stroke-miterlimit="10" cx="260.89" cy="214.258" rx="47.976" ry="46.535"/>
	<path fill="#070707" d="M292.048,205.407c-8.663,0-15.684,6.81-15.684,15.214c0,8.403,7.021,15.214,15.684,15.214
		c8.661,0,15.685-6.811,15.685-15.214C307.732,212.217,300.709,205.407,292.048,205.407z M298.36,230.297
		c-2.45,0-4.437-1.93-4.437-4.305c0-2.381,1.986-4.309,4.437-4.309c2.457,0,4.443,1.928,4.443,4.309
		C302.804,228.367,300.817,230.297,298.36,230.297z"/>
	<g>
		<path fill="#070707" d="M324.973,228.844c0.508-0.069,1.015-0.138,1.522-0.208c-0.11-0.402-0.222-0.803-0.332-1.205
			c-8.499,2.571-20.229,9.487-20.485,19.528c-0.28,10.962,13.67,12.431,21.404,11.564c5.64-0.632,11.151-2.184,16.667-3.46
			c4.612-1.067,10.649-0.426,14.893-2.622c11.407-5.904-2.29-18.853-7.857-23.035c-0.646-0.485-1.267,0.602-0.631,1.079
			c3.787,2.844,7.301,6.023,9.883,10.03c2.128,3.301,2.285,7.931-1.16,10.398c-1.859,1.331-4.795,1.392-6.946,1.595
			c-7.256,0.685-14.201,2.887-21.346,4.225c-8.485,1.588-22.567,1.889-23.656-9.773c-0.853-9.126,12.385-16.149,19.567-18.323
			c0.795-0.24,0.443-1.311-0.332-1.205c-0.508,0.069-1.015,0.138-1.522,0.208C323.845,227.747,324.185,228.951,324.973,228.844
			L324.973,228.844z"/>
	</g>
	<path fill="#070707" d="M362.166,223.851c0-5.906-8.915-10.688-19.902-10.688c-10.993,0-19.903,4.782-19.903,10.688
		c0,5.906,8.91,10.691,19.903,10.691C353.251,234.542,362.166,229.757,362.166,223.851z"/>
	<g>
		<path fill="#070707" d="M344.234,254.693c0.113,7.947,3.721,25.704-5.982,29.581c-7.593,3.033-11.799-5.159-12.519-11.163
			c-0.592-4.933,0.083-10.199,1.536-14.928c0.237-0.772-0.969-1.1-1.205-0.332c-2.928,9.526-3.801,28.746,10.679,28.007
			c12.683-0.647,8.849-23.589,8.741-31.165C345.473,253.888,344.223,253.887,344.234,254.693L344.234,254.693z"/>
	</g>
	<g>
		<path fill="#070707" d="M344.417,280.324c13.839,2.987,8.439-19.306,8.439-26.516c0-0.806-1.25-0.806-1.25,0
			c0,6.424,5.138,27.899-6.857,25.311C343.963,278.949,343.629,280.154,344.417,280.324L344.417,280.324z"/>
	</g>
	<g>
		<path fill="#070707" d="M64.674,256.708c-6.049,20.836,5.211,45.87,17.87,62.128c15.347,19.71,39.18,32.206,61.17,42.958
			c40.229,19.671,86.006,34.847,131.147,35.081c21.083,0.109,46.146-3.722,60.722-20.442c7.362-8.445,13.075-18.211,20.069-26.952
			c6.383-7.977,14.865-16.524,25.947-15.275c0.801,0.09,0.792-1.161,0-1.25c-17.037-1.92-28.4,17.269-36.772,29.13
			c-5.292,7.497-10.632,15.863-18.354,21.103c-8.813,5.979-19.714,9.024-30.093,10.805c-24.202,4.151-49.568,0.432-73.239-5.055
			c-22.372-5.186-44.256-12.75-65.306-21.9c-23.104-10.043-46.824-22.16-65.42-39.393c-9.143-8.472-15.832-18.779-20.926-30.094
			c-5.561-12.351-9.492-27.136-5.61-40.511C66.105,256.264,64.898,255.936,64.674,256.708L64.674,256.708z"/>
	</g>
	
		<ellipse fill="none" stroke="#070707" stroke-width="1.5" stroke-miterlimit="10" cx="402.647" cy="311.1" rx="13.905" ry="13.485"/>
	<path fill="#070707" d="M403.325,306.83c-2.512,0-4.544,1.976-4.544,4.409c0,2.435,2.032,4.409,4.544,4.409
		c2.513,0,4.547-1.975,4.547-4.409C407.872,308.806,405.838,306.83,403.325,306.83z M405.154,314.045
		c-0.71,0-1.287-0.559-1.287-1.25c0-0.689,0.577-1.245,1.287-1.245c0.709,0,1.287,0.556,1.287,1.245
		C406.441,313.486,405.863,314.045,405.154,314.045z"/>
	<path fill="#070707" d="M377.039,199.816c-8.66,0-15.682,6.808-15.682,15.211s7.021,15.214,15.682,15.214
		s15.687-6.811,15.687-15.214S385.699,199.816,377.039,199.816z M383.354,224.704c-2.451,0-4.439-1.928-4.439-4.304
		c0-2.38,1.988-4.311,4.439-4.311c2.453,0,4.442,1.931,4.442,4.311C387.796,222.776,385.807,224.704,383.354,224.704z"/>
	<g>
		<path fill="#070707" d="M348.231,171.688c11.598,2.12,21.603,4.896,30.409,13.163c7.744,7.271,12.126,17.385,12.878,27.891
			c0.775,10.844-3.057,21.582-9.28,30.325c-3.42,4.805-7.922,8.761-12.838,11.965c-3.692,2.407-11.185,7.009-15.823,5.988
			c-0.785-0.173-1.119,1.032-0.332,1.205c3.774,0.831,7.786-1.655,11.163-3.103c5.703-2.445,10.714-6.311,15.011-10.735
			c8.093-8.331,12.648-19.667,13.367-31.167c0.692-11.082-3.418-21.814-10.438-30.256c-8.793-10.574-20.776-14.104-33.784-16.481
			C347.775,170.339,347.439,171.544,348.231,171.688L348.231,171.688z"/>
	</g>
	<g>
		<path fill="#070707" d="M388.327,280.922c-4.3-3.348-3.438-8.984,1-11.789c6.673-4.22,9.938,4.729,10.551,9.783
			c0.096,0.791,1.347,0.799,1.25,0c-0.479-3.955-1.44-8.375-4.814-10.895c-2.179-1.627-5.067-1.34-7.347-0.125
			c-5.427,2.892-6.431,10.089-1.524,13.911C388.07,282.295,388.962,281.418,388.327,280.922L388.327,280.922z"/>
	</g>
	<g>
		<path fill="#070707" d="M394.235,267.357c-5.303,1.597-7.722,8.998-3.814,13.136c0.555,0.587,1.438-0.299,0.885-0.885
			c-3.259-3.45-1.126-9.725,3.262-11.046C395.337,268.33,395.009,267.124,394.235,267.357L394.235,267.357z"/>
	</g>
	<g>
		<path fill="#070707" d="M369.495,288.769c1.783-6.147-1.366-14.293-8.977-12.355c-3.259,0.829-5.364,4.209-6.438,7.132
			c-1.505,4.097,0.233,8.127,1.886,11.861c0.326,0.735,1.403,0.1,1.08-0.631c-2.465-5.567-3.484-10.983,1.27-15.653
			c2.76-2.711,7.019-2.168,9.207,0.879c1.695,2.361,1.533,5.796,0.768,8.436C368.064,289.212,369.271,289.541,369.495,288.769
			L369.495,288.769z"/>
	</g>
	<g>
		<path fill="#070707" d="M356.231,296.368c1.017-0.577,2.009-1.108,3.095-1.56c0.303-0.125,0.552-0.415,0.437-0.769
			c-1.417-4.342-2.64-9.208,0.615-13.088c2.792-3.329,7.989-1.578,8.196,2.732c0.071,1.491-1.197,6.945,2.108,5.311
			c0.723-0.357,0.089-1.436-0.631-1.08c-0.671,0.332-0.304-3.247-0.277-3.5c0.114-1.117-0.12-2.122-0.539-3.165
			c-0.883-2.202-3.087-3.333-5.357-3.329c-2.82,0.004-4.835,2.345-5.985,4.642c-1.846,3.688-0.525,8.162,0.665,11.81
			c0.146-0.256,0.291-0.513,0.437-0.769c-1.177,0.489-2.284,1.056-3.394,1.685C354.899,295.686,355.529,296.766,356.231,296.368
			L356.231,296.368z"/>
	</g>
	<g>
		<path fill="#070707" d="M376.855,334.351c2.694,0.328,0.94,3.494,0.05,4.811c-0.453,0.67,0.631,1.294,1.08,0.631
			c1.563-2.312,2.763-6.218-1.13-6.691C376.057,333.003,376.065,334.255,376.855,334.351L376.855,334.351z"/>
	</g>
	<g>
		<path fill="#070707" d="M379.952,333.873c-0.108-0.136-0.185-0.302-0.295-0.442c-0.33-0.416-1.121-0.079-1.067,0.442
			c0.042,0.407,0.188,0.697,0.38,1.053c0.384,0.709,1.463,0.078,1.08-0.631c-0.065-0.12-0.195-0.281-0.21-0.422
			c-0.355,0.147-0.711,0.295-1.067,0.442c0.108,0.136,0.185,0.302,0.295,0.442C379.568,335.39,380.446,334.498,379.952,333.873
			L379.952,333.873z"/>
	</g>
	<g>
		<path fill="#070707" d="M373.041,334.918c1.816-0.577,3.667-1.164,5.563-1.405c0.596-0.076,1.671-0.256,2.162,0.206
			c0.552,0.519-1.149,2.491-1.404,2.809c-0.498,0.623,0.38,1.514,0.885,0.885c1.123-1.403,3.253-4.684,0.105-5.159
			c-2.495-0.378-5.303,0.716-7.644,1.46C371.943,333.956,372.271,335.163,373.041,334.918L373.041,334.918z"/>
	</g>
	<g>
		<path fill="#070707" d="M380.964,334.118c1.824,1.381,3.89,2.455,5.898,3.539c0.709,0.383,1.341-0.696,0.631-1.08
			c-2.009-1.084-4.074-2.157-5.898-3.539C380.951,332.552,380.33,333.638,380.964,334.118L380.964,334.118z"/>
	</g>
</g>
</svg>
