<?xml version="1.0" encoding="utf-8"?>
<!-- Generator: Adobe Illustrator 16.0.0, SVG Export Plug-In . SVG Version: 6.00 Build 0)  -->
<!DOCTYPE svg PUBLIC "-//W3C//DTD SVG 1.1//EN" "http://www.w3.org/Graphics/SVG/1.1/DTD/svg11.dtd">
<svg version="1.1" id="Layer_1" xmlns="http://www.w3.org/2000/svg" xmlns:xlink="http://www.w3.org/1999/xlink" x="0px" y="0px"
	 width="500px" height="550px" viewBox="0 0 500 550" enable-background="new 0 0 500 550" xml:space="preserve">
<g>
	<g>
		<path fill="#070707" d="M291.004,180.365c6.577-7.039,17.771-13.094,26.175-5.594c7.908,7.058,7.007,20.06-2.572,25.02
			c-1.432,0.742-0.168,2.899,1.262,2.159c10.161-5.262,12.014-18.497,4.77-27.079c-9.144-10.831-23.024-5.239-31.401,3.726
			C288.137,179.774,289.901,181.545,291.004,180.365L291.004,180.365z"/>
	</g>
	<g>
		<path fill="#070707" d="M228.863,247.141c0.292-0.175-1.305-0.378-1.881-0.044c-0.267,0.154-0.709,0.853-0.761,0.92
			c-1.397,1.812-2.508,3.83-3.444,5.91c-1.266,2.812-1.963,6.089-0.408,8.903c1.576,2.852,6.651,3.395,9.406,2.694
			c5.548-1.41,9.425-5.772,14.305-8.494c6.236-3.479,19.44,0.533,18.631-10.473c-0.614-8.378-12.945-8.955-19.019-8.872
			c-0.805,0.011-0.807,1.261,0,1.25c6.381-0.087,17.237,0.359,17.85,8.72c0.59,8.034-12.218,5.561-16.998,7.786
			c-6.37,2.965-15.25,13.827-22.712,7.232c-4.686-4.14,2.748-13.378,5.92-16.026c0.296-0.247,0.218-0.816-0.126-0.981
			c-0.556-0.267-0.887,0.092-1.394,0.396C227.541,246.475,228.169,247.556,228.863,247.141L228.863,247.141z"/>
	</g>
	<g>
		<path fill="#070707" d="M254.977,255.336c2.562,2.775,4.317,6.536,5.114,10.199c0.62,2.851-0.386,5.383-3.262,6.434
			c-2.234,0.816-5.188-0.228-5.634-2.716c-0.141-0.793-1.345-0.456-1.205,0.332c0.977,5.473,8.245,4.35,10.754,0.825
			c3.128-4.394-1.929-12.755-4.884-15.958C255.312,253.859,254.432,254.745,254.977,255.336L254.977,255.336z"/>
	</g>
	<path fill="none" stroke="#070707" stroke-width="1.5" stroke-miterlimit="10" d="M224.865,233.85
		c0-14.841-12.033-26.876-26.878-26.876c-14.846,0-26.88,12.035-26.88,26.876c0,14.849,12.035,26.882,26.88,26.882
		C212.832,260.731,224.865,248.699,224.865,233.85z"/>
	<circle fill="#070707" cx="306.147" cy="187.297" r="4.8"/>
	<path fill="#070707" d="M248.907,235.901c-1.318-3.408-7.374-4.231-13.518-1.852c-6.151,2.383-10.066,7.071-8.747,10.477
		c1.318,3.402,7.373,4.233,13.521,1.848C246.308,243.995,250.226,239.306,248.907,235.901z"/>
	<path fill="#070707" d="M202.912,229.991c0,4.925,3.984,8.912,8.909,8.912c4.924,0,8.917-3.987,8.917-8.912
		s-3.993-8.916-8.917-8.916C206.896,221.076,202.912,225.066,202.912,229.991z M217.491,226.401c0,1.392-1.129,2.521-2.521,2.521
		s-2.523-1.129-2.523-2.521s1.131-2.525,2.523-2.525S217.491,225.009,217.491,226.401z"/>
	<g>
		<path fill="#070707" d="M245.445,258.92c1.938,4.066,6.495,11.856,3.138,16.141c-3.088,3.945-7.703-0.053-9.363-2.999
			c-1.521-2.698-2.347-6.016-2.604-9.087c-0.066-0.797-1.317-0.804-1.25,0c0.456,5.46,4.443,18.448,12.485,14.14
			c6.729-3.605,0.939-14.073-1.327-18.826C246.177,257.562,245.1,258.197,245.445,258.92L245.445,258.92z"/>
	</g>
	<g>
		<path fill="#070707" d="M307.544,457.149c5.322-0.291,9.962-2.974,14.357-5.787c5.35-3.426,10.713-7.196,15.683-11.147
			c10.525-8.368,17.221-20.155,21.441-32.726c4.828-14.383,6.68-29.688,7.706-44.76c1.052-15.455,1.806-31.692-2.901-46.655
			c-0.481-1.532-2.896-0.878-2.41,0.664c4.148,13.189,3.769,27.187,3.108,40.836c-0.694,14.363-2.315,28.7-5.951,42.636
			c-3.477,13.328-9.349,25.526-19.308,35.202c-4.483,4.355-9.899,7.665-14.968,11.284c-4.897,3.498-10.549,7.614-16.758,7.953
			C305.94,454.737,305.933,457.237,307.544,457.149L307.544,457.149z"/>
	</g>
	<g>
		<path fill="#070707" d="M259.053,470.217c-2.707-0.001-5.379-0.05-8.047-0.553c-1.576-0.297-2.249,2.112-0.666,2.41
			c2.892,0.545,5.777,0.642,8.712,0.643C260.665,472.718,260.665,470.218,259.053,470.217L259.053,470.217z"/>
	</g>
	<g>
		<path fill="#070707" d="M230.938,465.781c-27.125-6.344-29.558-40.897-29.237-63.23c0.106-7.425,0.479-14.846,0.665-22.27
			c0.18-7.208-0.876-13.896-2.5-20.932c-1.36-5.892-5.254-10.782-8.43-15.8c-3.996-6.314-7.91-12.679-11.652-19.147
			c-14.354-24.807-26.682-53.561-19.271-82.611c7.052-27.646,31.226-48.255,55.882-60.325c7.548-3.695,15.585-5.588,23.569-8.069
			c9.625-2.991,18.331-4.201,28.163-1.022c16.465,5.325,30.075,13.596,41.86,26.374c25.068,27.183,36.894,65.308,48.257,99.672
			c0.503,1.523,2.918,0.871,2.41-0.664c-15.597-47.172-34.8-109-87.383-126.345c-5.892-1.943-11.526-3.511-17.768-3.637
			c-6.753-0.137-12.815,2.208-19.166,4.116c-5.688,1.709-11.468,3.061-16.924,5.438c-6.253,2.725-12.256,5.995-18.029,9.62
			c-21.698,13.622-40.042,34.881-44.683,60.616c-3.602,19.967,2.364,40.162,10.553,58.222c4.755,10.487,10.575,20.478,16.575,30.292
			c2.966,4.852,6.022,9.649,9.074,14.447c3.253,5.112,4.765,9.87,5.787,15.803c3.828,22.215-2.396,45.15,2.783,67.398
			c3.51,15.073,12.789,30.721,28.799,34.465C231.841,468.559,232.507,466.148,230.938,465.781L230.938,465.781z"/>
	</g>
	<g>
		<path fill="#070707" d="M197.506,360.744c14.642,22.191,25.07,46.924,37.23,70.494c6.37,12.348,12.866,24.634,20.086,36.511
			c5.482,9.02,12.822,16.808,18.121,25.903c0.811,1.392,2.972,0.134,2.158-1.262c-5.294-9.09-12.588-16.925-18.121-25.903
			c-7.288-11.827-13.711-24.176-20.086-36.511c-12.178-23.564-22.586-48.3-37.23-70.494
			C198.781,358.144,196.615,359.395,197.506,360.744L197.506,360.744z"/>
	</g>
	<g>
		<path fill="#070707" d="M190.522,342.841c11.828-3.138,23.87-5.19,35.958-7.026c5.65-0.858,11.308-1.671,16.958-2.535
			c6.579-1.008,13.132-2.669,19.823-2.396c1.612,0.066,1.606-2.435,0-2.5c-5.687-0.232-11.152,0.952-16.73,1.895
			c-6.25,1.056-12.539,1.904-18.809,2.839c-12.727,1.897-25.417,4.011-37.866,7.313
			C188.301,340.844,188.962,343.255,190.522,342.841L190.522,342.841z"/>
	</g>
	<g>
		<path fill="#070707" d="M285.77,329.225c11.075,1.556,34.313-3.577,35.701,12.755c0.681,8.024-1.677,16.917-3.078,24.771
			c-1.524,8.538-3.517,16.989-5.765,25.363c-9.064,33.772-23.687,65.796-39.806,96.72c-0.744,1.428,1.413,2.691,2.158,1.262
			c17.382-33.345,32.764-67.879,41.911-104.463c2.263-9.048,4.037-18.211,5.43-27.431c1.05-6.955,3.114-15.136,0.38-21.899
			c-5.133-12.698-26.042-8.053-36.268-9.488C284.857,326.593,284.179,329.002,285.77,329.225L285.77,329.225z"/>
	</g>
	<g>
		<path fill="#070707" d="M273.172,488.575c-0.538,2.974-1.019,8.146,2.892,9.213c4.029,1.1,7.835-1.398,10.774-3.908
			c5.725-4.888,9.323-12.162,12.463-18.84c3.592-7.642,6.51-15.55,8.944-23.63c5.142-17.066,7.977-34.949,9.688-52.663
			c0.967-10.005,1.702-19.994,3.279-29.931c1.353-8.516,3.347-17.093,3.542-25.74c0.036-1.613-2.464-1.609-2.5,0
			c-0.32,14.181-4.296,28.314-5.635,42.454c-1.457,15.386-3.009,30.622-6.021,45.801c-2.796,14.096-6.876,27.91-12.8,41.017
			c-2.823,6.247-5.979,12.34-10.506,17.538c-3.748,4.307-13.599,9.792-11.711-0.646C275.867,487.664,273.458,486.99,273.172,488.575
			L273.172,488.575z"/>
	</g>
	<g>
		<path fill="#070707" d="M222.526,398.16c2.584,6.887,6.035,13.383,9.107,20.055c0.674,1.463,2.828,0.192,2.159-1.262
			c-2.981-6.475-6.348-12.774-8.855-19.457C224.376,396.001,221.958,396.648,222.526,398.16L222.526,398.16z"/>
	</g>
	<g>
		<path fill="#070707" d="M317.758,330.66c17.97-10.111,33.949-23.268,49.502-36.705c7.904-6.83,15.698-13.787,23.629-20.587
			c9.008-7.724,17.391-15.915,27.446-22.335c-0.57-0.15-1.14-0.299-1.71-0.449c1.516,2.879,2.564,5.897,3.6,8.97
			c1.466,4.351,0.354,5.266-2.752,8.473c-5.228,5.398-11.185,10.083-17.174,14.596c-9.367,7.057-20.182,12.437-28.292,21.044
			c-1.104,1.172,0.66,2.943,1.768,1.768c7.186-7.626,16.558-12.484,24.971-18.564c9.105-6.581,17.894-13.716,25.231-22.263
			c0.271-0.314,0.492-0.793,0.321-1.216c-1.888-4.688-3.151-9.58-5.515-14.069c-0.308-0.586-1.154-0.803-1.71-0.449
			c-8.74,5.582-16.487,12.349-24.1,19.356c-7.624,7.017-15.658,13.647-23.464,20.465c-16.647,14.542-33.68,28.928-53.014,39.808
			C315.092,329.292,316.352,331.452,317.758,330.66L317.758,330.66z"/>
	</g>
	<g>
		<path fill="#070707" d="M328.051,341.417c-1.561,1.351-2.957,2.82-4.887,3.637c0.57,0.57,1.14,1.14,1.71,1.71
			c1.539-2.558,4.684-3.41,6.878-5.262c3.423-2.888,6.835-5.789,10.23-8.709c6.564-5.644,13.064-11.411,20.014-16.584
			c1.277-0.95,0.033-3.122-1.262-2.158c-6.688,4.977-12.971,10.478-19.285,15.912c-3.946,3.396-7.826,7.103-12.028,10.173
			c-2.386,1.742-5.124,2.737-6.705,5.366c-0.711,1.182,0.642,2.162,1.71,1.71c2.145-0.907,3.652-2.521,5.393-4.027
			C331.039,342.128,329.264,340.367,328.051,341.417L328.051,341.417z"/>
	</g>
	<g>
		<path fill="#070707" d="M418.783,248.725c-5.643-7.338,11.188-17.536,15.792-20.442c7.978-5.037,19.292-11.88,29.133-11.425
			c5.753,0.266,11.4,9.879,13.861,14.131c4.427,7.65,3.475,14.099-4.57,18.482c-5.722,3.117-12.576,4.188-18.905,5.368
			c-9.89,1.843-19.776,4.974-29.805,5.84c-1.594,0.138-1.607,2.639,0,2.5c10.901-0.942,21.658-4.272,32.408-6.292
			c7.167-1.347,15.639-2.865,21.387-7.729c5.216-4.414,6.034-10.118,3.246-16.221c-2.969-6.497-8.382-15.106-15.299-18.021
			c-4.136-1.743-9.622,0.392-13.55,1.774c-7.038,2.477-13.748,6.012-20.044,9.987c-5.76,3.636-22.566,14.526-15.812,23.309
			C417.593,251.246,419.767,250.003,418.783,248.725L418.783,248.725z"/>
	</g>
	<g>
		<path fill="#070707" d="M418.298,226.937c0.494,1.407,1.203,2.738,1.921,4.041c0.581,1.053,1.175,2.201,1.99,3.097
			c1.087,1.195,2.851-0.579,1.768-1.768c-0.589-0.647-1.13-1.753-1.599-2.591c-0.619-1.106-1.248-2.245-1.67-3.444
			C420.177,224.762,417.761,225.412,418.298,226.937L418.298,226.937z"/>
	</g>
	<g>
		<path fill="#070707" d="M428.796,222.101c1.234,1.237,2.655,2.559,3.268,4.239c0.547,1.502,2.964,0.854,2.41-0.665
			c-0.773-2.125-2.34-3.768-3.91-5.341C429.424,219.191,427.656,220.959,428.796,222.101L428.796,222.101z"/>
	</g>
	<g>
		<path fill="#070707" d="M438.652,216.16c0.639,1.917,1.302,3.846,2.716,5.342c1.109,1.174,2.874-0.597,1.768-1.768
			c-1.103-1.167-1.576-2.75-2.073-4.239C440.556,213.974,438.141,214.626,438.652,216.16L438.652,216.16z"/>
	</g>
	<g>
		<path fill="#070707" d="M439.857,243.422c0.435-0.008,0.859-0.085,1.284-0.175c-0.231,0.049-0.494,0.021-0.761-0.217
			c0.185,0.165-0.165-0.253,0.008,0.023c0.068,0.111,0.127,0.23,0.187,0.346c0.359-0.627,0.72-1.254,1.079-1.881
			c-0.563,0.031-1.061,0.248-1.56,0.501c-0.394,0.2-0.914,0.471-1.122,0.877c-0.273,0.533-0.191,1.067,0.195,1.515
			c0.543,0.628,1.318,0.329,1.919,0.035c0.611-0.3,0.773-1.155,0.448-1.71c-0.362-0.62-1.098-0.749-1.71-0.449
			c-0.062,0.031-0.124,0.061-0.187,0.09c0.237-0.111,0.063-0.08,0.418-0.094c0.295,0.122,0.59,0.244,0.884,0.366
			c-0.001-0.002-0.003-0.004-0.005-0.006c0.065,0.505,0.131,1.01,0.195,1.515c-0.067,0.133-0.567,0.497-0.216,0.271
			c0.116-0.075,0.237-0.142,0.359-0.208c0.069-0.038,0.527-0.249,0.208-0.115c0.153-0.064,0.612-0.113,0.172-0.088
			c0.972-0.054,1.523-1.014,1.079-1.881c-0.288-0.562-0.695-1.196-1.371-1.319c-0.343-0.062-0.607-0.041-0.95,0.031
			c-0.105,0.022-0.211,0.047-0.316,0.067c0.331-0.063-0.168,0.003-0.238,0.005C438.247,240.953,438.244,243.453,439.857,243.422
			L439.857,243.422z"/>
	</g>
	<g>
		<path fill="#070707" d="M431.788,252.062c-0.327,0.362-0.549,0.758-0.649,1.238c-0.021,0.096-0.174,0.498-0.033,0.214
			c0.103-0.111,0.102-0.11-0.005,0.003c0.115-0.122-0.267,0.152-0.256,0.146c0.505,0.655,1.01,1.309,1.515,1.963
			c-0.367,0.234-0.739,0.11-1.118-0.371c-0.042-0.321-0.084-0.642-0.126-0.963c-0.003,0.015-0.006,0.029-0.01,0.044
			c0.107-0.184,0.215-0.368,0.322-0.552c-0.015,0.013-0.028,0.025-0.043,0.038c0.184-0.107,0.368-0.214,0.552-0.321
			c0.046-0.003,0.091-0.006,0.137-0.009c-0.679,0.057-1.25,0.526-1.25,1.25c0,0.639,0.57,1.307,1.25,1.25
			c0.53-0.044,1.031-0.205,1.317-0.692c0.289-0.494,0.224-1.208-0.206-1.605c-0.806-0.744-1.832-0.488-2.593,0.164
			c-0.422,0.361-0.463,1.058-0.195,1.515c0.354,0.603,1.109,0.771,1.71,0.449c0.614-0.331,1.07-0.777,1.325-1.431
			c0.055-0.14,0.088-0.28,0.117-0.427c0.018-0.087,0.039-0.172,0.064-0.257c-0.092,0.311,0.101-0.053-0.058,0.122
			c0.456-0.505,0.5-1.268,0-1.768C433.093,251.599,432.245,251.556,431.788,252.062L431.788,252.062z"/>
	</g>
	<g>
		<path fill="#070707" d="M291.267,358.882c-2.577-3.665-9.385-6.722-12.228-1.591c-1.443,2.605-0.444,6.24,0.57,8.809
			c0.863,2.185,2.356,4.059,4.644,4.803c3.865,1.258,7.967-2.02,9.575-5.29c2.248-4.567-0.581-8.437-5.109-9.698
			c-1.556-0.434-2.215,1.979-0.664,2.41c2.95,0.822,4.847,2.724,3.7,5.834c-0.856,2.326-3.404,4.454-5.927,4.476
			c-3.845,0.033-5.125-6.133-4.939-8.957c0.125-1.905,1.702-2.669,3.405-2.57c1.93,0.111,3.746,1.519,4.814,3.037
			C290.027,361.451,292.196,360.204,291.267,358.882L291.267,358.882z"/>
	</g>
	<g>
		<path fill="#070707" d="M236.895,374.812c4.031,13.094,13.548,23.348,19.283,35.622c0.272,0.582,1.188,0.814,1.711,0.448
			c3.595-2.519,6.73-5.481,9.832-8.579c0.453-0.452,0.519-1.325,0-1.768c-10.355-8.822-18.135-19.791-24.949-31.476
			c-0.396-0.679-1.41-0.845-1.963-0.253c-1.462,1.563-3.138,3.31-3.914,5.341c-0.576,1.509,1.842,2.155,2.411,0.664
			c0.615-1.611,2.106-2.992,3.27-4.237c-0.654-0.084-1.309-0.169-1.963-0.253c6.918,11.862,14.827,23.024,25.341,31.981
			c0-0.589,0-1.179,0-1.768c-2.947,2.943-5.904,5.79-9.326,8.188c0.569,0.149,1.14,0.299,1.71,0.448
			c-5.64-12.067-15.071-22.159-19.031-35.024C238.833,372.611,236.419,373.267,236.895,374.812L236.895,374.812z"/>
	</g>
	<g>
		<path fill="#070707" d="M363.909,316.498c-0.746-2.115-1.717-4.131-2.224-6.326c-0.331-1.431,0.298-5.954,2.623-5.438
			c2.523,0.561,4.67,4.529,5.579,6.711c0.305,0.733,1.515,0.412,1.205-0.332c-1.137-2.729-3.863-7.696-7.32-7.685
			c-2.02,0.007-2.828,2.55-3.225,4.096c-0.825,3.218,1.115,6.355,2.156,9.307C362.971,317.585,364.178,317.26,363.909,316.498
			L363.909,316.498z"/>
	</g>
	<g>
		<path fill="#070707" d="M368.28,305.313c4.721-4.699,6.562,6.677,6.666,9.369c0.251,6.456-2.671,13.137-10.102,12.311
			c-0.801-0.089-0.792,1.162,0,1.25c8.853,0.984,11.779-7.503,11.279-14.921c-0.263-3.892-3.292-14.303-8.729-8.894
			C366.824,304.998,367.708,305.882,368.28,305.313L368.28,305.313z"/>
	</g>
	<g>
		<path fill="#070707" d="M277.143,339.726c6.078-0.438,8.634-8.072,8.435-13.276c-0.244-6.37-7.51-10.407-13.138-10.884
			c-5.631-0.476-13.362,2.063-11.813,9.289c0.808,3.764,3.599,6.146,6.217,8.789C269.682,336.51,272.993,339.319,277.143,339.726
			c0.802,0.078,0.795-1.172,0-1.25c-5.562-0.545-9.685-5.966-13.282-9.752c-2.652-2.789-2.783-7.046-0.219-9.887
			c1.806-2,5.343-2.17,7.794-2.106c5.224,0.136,10.815,3.122,12.599,8.207c1.599,4.56-1.56,13.153-6.892,13.538
			C276.344,338.533,276.338,339.783,277.143,339.726z"/>
	</g>
	<g>
		<path fill="#070707" d="M282.181,336.833c2.522-5.688-2.043-11.467-7.557-12.891c-0.781-0.202-1.112,1.004-0.332,1.205
			c4.633,1.196,9.007,6.099,6.809,11.055C280.777,336.932,281.854,337.568,282.181,336.833L282.181,336.833z"/>
	</g>
	<g>
		<path fill="#070707" d="M231.955,466.522c6.699-6.03,20.504-5.538,17.284,6.088c-1.296,4.68-4.01,9.346-6.339,13.567
			c-0.964,1.746-2.364,4.9-4.369,5.644c-3.795,1.406-5.333-1.907-5.142-4.986c0.256-4.143,2.34-9.438,5.153-12.53
			c0.541-0.596-0.34-1.481-0.884-0.885c-3.574,3.931-6.368,11.237-5.346,16.528c0.437,2.259,2.389,3.181,4.47,3.319
			c3.162,0.211,4.635-2.285,6.137-4.655c2.428-3.83,4.315-8.047,6.143-12.187c1.184-2.68,2.513-5.764,2.035-8.76
			c-1.541-9.653-14.956-6.593-20.026-2.028C230.471,466.179,231.358,467.06,231.955,466.522L231.955,466.522z"/>
	</g>
	<g>
		<path fill="#070707" d="M235.263,492.579c-2.044,2.308-7.111-3.393-7.999-4.663c-2.053-2.938-1.473-6.908-0.574-10.103
			c1.585-5.636,5.816-10.84,10.527-14.189c0.651-0.463,0.028-1.548-0.631-1.08c-6.644,4.726-12.261,12.831-11.915,21.258
			c0.147,3.6,7.442,14.213,11.475,9.662C236.68,492.862,235.799,491.975,235.263,492.579L235.263,492.579z"/>
	</g>
	<g>
		<path fill="#070707" d="M348.844,427.221c3.823-0.354,7.136,1.212,9.892,3.789c1.58,1.478,2.902,2.873,4.944,3.68
			c2.682,1.059,5.65-0.335,7.128-2.594c2.999-4.586-0.517-10.713-5.952-9.725c-0.792,0.144-0.456,1.349,0.332,1.205
			c6.375-1.159,7.152,8.563,1.521,10.048c-3.833,1.011-6.021-2.979-8.647-4.855c-2.769-1.977-5.785-3.115-9.217-2.798
			C348.048,426.044,348.041,427.295,348.844,427.221L348.844,427.221z"/>
	</g>
	<g>
		<path fill="#070707" d="M371.608,428.389c6.711,0.885,5.514-9.23,1.792-12.059c-4.771-3.627-11.916-3.51-17.526-2.339
			c-0.789,0.164-0.454,1.369,0.332,1.205c3.738-0.779,7.673-0.836,11.418-0.088c2.052,0.409,3.974,1.263,5.533,2.665
			c2.248,2.023,3.667,10.053-1.549,9.365C370.811,427.033,370.821,428.285,371.608,428.389L371.608,428.389z"/>
	</g>
	<g>
		<path fill="#070707" d="M227.167,401.861c34.162-26.695,68.324-53.391,102.486-80.085c38.482-30.071,76.965-60.142,115.447-90.212
			c0.351-0.273,0.7-0.547,1.05-0.82c0.402-0.314-0.406,0.305-0.284,0.449c0.905,1.079,1.784-0.506,0.132,1.556
			c0.349,0.203,0.697,0.405,1.045,0.608c0.351-0.994,1.219-1.405,1.735-2.246c0.422-0.689-0.659-1.316-1.08-0.631
			c-0.677,1.104-1.432,1.328-1.86,2.545c-0.202,0.572,0.653,1.096,1.045,0.608c0.82-1.024,0.923-1.423,1.361-2.671
			c0.161-0.458-0.334-0.891-0.769-0.769c-0.397-0.146-0.794-0.292-1.19-0.438c-0.238-0.283-0.635-0.195-0.885,0
			c-34.162,26.695-68.324,53.39-102.486,80.085c-38.482,30.07-76.965,60.142-115.447,90.212c-0.395,0.309-0.79,0.617-1.184,0.925
			C225.648,401.473,226.54,402.351,227.167,401.861L227.167,401.861z"/>
	</g>
	<g>
		<path fill="#070707" d="M228.043,407.26c35.026-27.37,70.052-54.739,105.079-82.109c24.006-18.758,48.012-37.517,72.019-56.275
			c7.858-6.141,15.717-12.281,23.575-18.422c2.172-1.697,4.344-3.394,6.516-5.091c0.541-0.423,1.083-0.846,1.624-1.27
			c1.002-0.783-0.051,0.01,0.245,0.192c1.037,0.642,1.229-0.188,0,1.346c0.349,0.203,0.697,0.405,1.045,0.608
			c0.332-0.941,1.16-1.336,1.65-2.135c0.422-0.689-0.659-1.317-1.08-0.631c-0.645,1.053-1.365,1.271-1.775,2.434
			c-0.202,0.572,0.653,1.097,1.045,0.608c0.783-0.979,0.886-1.368,1.304-2.56c0.16-0.458-0.333-0.891-0.769-0.769
			c-0.369-0.138-0.738-0.275-1.107-0.412c-0.238-0.283-0.635-0.195-0.885,0c-35.025,27.37-70.052,54.739-105.078,82.108
			c-34.764,27.165-69.527,54.329-104.291,81.493C226.525,406.871,227.417,407.749,228.043,407.26L228.043,407.26z"/>
	</g>
	<g>
		<path fill="#070707" d="M367.104,305.104c12.69-10.461,25.886-20.274,38.938-30.272c5.573-4.268,11.101-8.596,16.556-13.015
			c0.85-0.688,8.415-6.139,8.085-6.951c0.611,1.502,2.195-0.646,0.369,1.931c0.36,0.21,0.72,0.42,1.08,0.631
			c0.519-0.694,1.037-1.387,1.557-2.081c0.552-0.586-0.33-1.471-0.885-0.884c-1.163,1.234-0.9,0.877-1.752,2.334
			c-0.413,0.708,0.621,1.277,1.08,0.631c0.901-1.272,0.687-0.868,1.165-2.357c0.122-0.378-0.207-0.807-0.603-0.791
			c-0.364-0.148-0.728-0.297-1.092-0.446c-0.183-0.449-0.661-0.603-1.045-0.276c-20.781,17.725-43.268,33.294-64.339,50.661
			C365.597,304.732,366.486,305.611,367.104,305.104L367.104,305.104z"/>
	</g>
	<g>
		<path fill="#070707" d="M231.734,410.888c43.126-33.583,85.918-67.595,129.207-100.97c0.629-0.485,0.008-1.572-0.631-1.08
			c-43.372,33.441-86.249,67.518-129.459,101.165C230.215,410.498,231.106,411.376,231.734,410.888L231.734,410.888z"/>
	</g>
	<path fill="none" stroke="#070707" stroke-width="1.5" stroke-miterlimit="10" d="M286.665,202.746
		c0-14.843-12.029-26.875-26.874-26.875c-14.847,0-26.882,12.033-26.882,26.875c0,14.845,12.035,26.876,26.882,26.876
		C274.636,229.623,286.665,217.591,286.665,202.746z"/>
	<path fill="#070707" d="M265.813,198.929c0,4.925,3.985,8.911,8.909,8.911c4.925,0,8.918-3.986,8.918-8.911
		c0-4.927-3.993-8.915-8.918-8.915C269.799,190.014,265.813,194.002,265.813,198.929z M280.394,195.34
		c0,1.392-1.13,2.519-2.523,2.519c-1.39,0-2.521-1.127-2.521-2.519c0-1.395,1.132-2.526,2.521-2.526
		C279.264,192.814,280.394,193.945,280.394,195.34z"/>
	<g>
		<path fill="#070707" d="M157.077,279.131c-11.385,3.005-22.458-1.622-24.673-13.907c-0.958-5.314,0.715-10.788,3.579-15.231
			c4.045-6.275,14.082-12.907,21.632-10.77c1.555,0.44,2.213-1.973,0.665-2.411c-8.011-2.268-17.097,3.466-22.361,9.208
			c-4.393,4.791-6.517,11.316-6.176,17.752c0.784,14.827,14.909,21.224,28,17.769C159.299,281.13,158.638,278.719,157.077,279.131
			L157.077,279.131z"/>
	</g>
	<path fill="#070707" d="M158.266,256.695c-1.625-2.983-5.361-4.083-8.347-2.46c-2.983,1.623-4.087,5.357-2.464,8.344
		c1.625,2.984,5.361,4.09,8.345,2.467C158.787,263.419,159.889,259.682,158.266,256.695z"/>
	<g>
		<path fill="#070707" d="M204.398,441.248c-3.315,0.94-10.178,4.768-7.69,9.21c2.606,4.652,9.083,1.591,12.371-0.6
			c0.667-0.445,0.042-1.528-0.631-1.08c-2.453,1.635-7.115,4.274-9.895,2.095c-4.246-3.327,3.627-7.696,6.177-8.42
			C205.505,442.233,205.175,441.027,204.398,441.248L204.398,441.248z"/>
	</g>
	<g>
		<path fill="#070707" d="M174.195,209.997c-3.641,3.336-12.112-10.808-13.78-13.375c-6.377-9.809-7.205-19.305,0.487-28.619
			c7.3-8.84,17.128-16.01,26.694-22.168c10.31-6.638,22.939-13.459,35.588-12.72c17.251,1.008,20.871,23.657,20.276,37.212
			c-0.035,0.806,1.215,0.803,1.25,0c0.63-14.366-3.195-36.031-20.49-38.357c-14.764-1.986-30.631,8.096-42.147,16.049
			c-6.104,4.215-11.913,8.913-17.271,14.043c-4.885,4.679-10.507,10.647-10.975,17.746c-0.603,9.145,4.846,16.663,9.915,23.758
			c1.944,2.722,7.231,11.076,11.337,7.314C175.675,210.335,174.788,209.454,174.195,209.997L174.195,209.997z"/>
	</g>
	<g>
		<path fill="#070707" d="M132.73,255.368c0.806,0,0.806-1.25,0-1.25S131.924,255.368,132.73,255.368L132.73,255.368z"/>
	</g>
	<g>
		<path fill="#070707" d="M132.896,254.14c-17.184-3.062-34.089-8.997-49.062-18.016c-7.979-4.806-15.325-10.835-20.922-18.32
			c-5.731-7.662-10.383-19.034-6.277-28.372c4.852-11.033,19.319-9.284,28.259-5.465c10.25,4.379,17.945,13.379,25.518,21.22
			c7.391,7.653,15.193,13.441,25.534,16.434c5.792,1.676,11.878,1.926,17.859,2.152c4.29,0.162,8.542,0.648,12.556-1.161
			c0.734-0.331,0.098-1.408-0.631-1.079c-5.378,2.424-13.114,1.06-18.846,0.656c-8.054-0.567-15.662-2.86-22.655-6.877
			c-10.796-6.202-18.18-17.431-27.648-25.356c-11.282-9.444-36.621-17.9-42.23,2.204c-2.181,7.815,1.524,16.802,5.528,23.389
			c4.681,7.701,11.7,13.795,19.032,18.882c15.724,10.908,34.917,17.576,53.654,20.915
			C133.353,255.486,133.689,254.281,132.896,254.14L132.896,254.14z"/>
	</g>
	<g>
		<path fill="#070707" d="M133.932,218.653c-4.19-10.116-10.73-19.558-11.124-30.818c-0.405-11.606,5.926-22.312,13.092-30.923
			c5.809-6.98,12.869-12.766,19.846-18.521c7.403-6.108,15.027-11.947,23.1-17.147c14.684-9.459,33.111-17.743,50.576-11.273
			c21.013,7.784,33.423,36.216,29.029,57.198c-0.165,0.786,1.04,1.121,1.205,0.332c4.389-20.953-6.751-45.564-25.17-56.483
			c-16.51-9.787-36.306-2.506-51.487,6.226c-8.884,5.11-17.098,11.351-25.07,17.764c-8.491,6.831-16.904,13.803-23.898,22.207
			c-6.592,7.921-11.397,17.241-12.379,27.588c-1.185,12.483,6.52,23.183,11.076,34.183
			C133.03,219.719,134.24,219.398,133.932,218.653L133.932,218.653z"/>
	</g>
	<g>
		<path fill="#070707" d="M247.881,122.855c-0.156-6.934,0.197-19.125,7.936-22.27c8.715-3.542,19.437,12.251,22.864,18.31
			c4.685,8.28,6.025,17.959,6.317,27.319c0.28,8.98,0.831,21.39-4.431,29.001c-0.459,0.665,0.625,1.289,1.08,0.631
			c3.025-4.377,3.708-9.266,4.037-14.468c0.384-6.077,0.728-12.08,0.447-18.173c-0.517-11.234-3.583-21.962-10.354-31.038
			c-3.781-5.069-13.503-16.707-21.249-12.396c-7.526,4.188-8.066,15.556-7.897,23.084
			C246.649,123.66,247.899,123.662,247.881,122.855L247.881,122.855z"/>
	</g>
	<g>
		<path fill="#070707" d="M269.235,131.581c0.897-6.119,3.729-11.454,5.256-17.367c1.41-5.461,2.307-11.041,2.971-16.636
			c1.46-12.292,0.905-24.773-1.043-36.974c-0.127-0.794-1.331-0.456-1.205,0.332c1.843,11.543,2.236,23.15,1.191,34.792
			c-0.551,6.126-1.675,12.182-3.119,18.155c-1.436,5.934-4.357,11.242-5.256,17.367
			C267.914,132.037,269.119,132.376,269.235,131.581L269.235,131.581z"/>
	</g>
	<g>
		<path fill="#070707" d="M281.199,126.458c-3.151,9.093-7.809,17.514-11.909,26.192c-0.342,0.725,0.735,1.359,1.08,0.631
			c4.146-8.777,8.847-17.295,12.034-26.491C282.669,126.026,281.461,125.701,281.199,126.458L281.199,126.458z"/>
	</g>
	<g>
		<path fill="#070707" d="M283.595,137.235c-2.342,6.432-4.702,12.854-7.717,19.008c-0.353,0.721,0.726,1.355,1.08,0.631
			c3.062-6.251,5.463-12.772,7.842-19.307C285.076,136.808,283.868,136.484,283.595,137.235L283.595,137.235z"/>
	</g>
	<g>
		<path fill="#070707" d="M71.665,204.425c-18.997,1.449-39.892-13.57-47.954-30.221c-0.351-0.726-1.429-0.091-1.079,0.631
			c8.244,17.026,29.609,32.321,49.033,30.84C72.463,205.614,72.469,204.364,71.665,204.425L71.665,204.425z"/>
	</g>
	<g>
		<path fill="#070707" d="M64.314,219.422c9.694,3.671,19.246,7.696,29.336,10.181c0.783,0.193,1.115-1.013,0.332-1.205
			c-10.09-2.485-19.642-6.51-29.336-10.181C63.892,217.931,63.568,219.14,64.314,219.422L64.314,219.422z"/>
	</g>
	<g>
		<path fill="#070707" d="M73.295,228.406c9.094,1.438,17.19,5.818,25.742,8.978c0.758,0.28,1.082-0.928,0.332-1.205
			c-8.553-3.161-16.645-7.54-25.742-8.978C72.839,227.076,72.5,228.281,73.295,228.406L73.295,228.406z"/>
	</g>
	<g>
		<path fill="#070707" d="M333.604,322.081c2.289,2.927,3.995,6.287,6.585,8.979c1.119,1.164,2.885-0.606,1.768-1.768
			c-2.577-2.679-4.302-6.061-6.585-8.979C334.379,319.045,332.622,320.827,333.604,322.081L333.604,322.081z"/>
	</g>
	<g>
		<path fill="#070707" d="M355.206,305.581c1.312,2.621,2.588,5.324,4.189,7.783c0.876,1.346,3.041,0.094,2.158-1.262
			c-1.601-2.459-2.878-5.162-4.189-7.783C356.643,302.877,354.486,304.144,355.206,305.581L355.206,305.581z"/>
	</g>
	<g>
		<path fill="#070707" d="M379.979,281.418c1.305,4.313,3.49,8.269,5.516,12.271c0.728,1.438,2.885,0.173,2.158-1.262
			c-1.929-3.812-4.021-7.564-5.264-11.673C381.924,279.215,379.511,279.871,379.979,281.418L379.979,281.418z"/>
	</g>
	<g>
		<path fill="#070707" d="M397.466,266.15c2.257,4.684,3.496,9.791,5.986,14.368c0.771,1.416,2.929,0.154,2.158-1.262
			c-2.486-4.569-3.73-9.686-5.986-14.368C398.925,263.437,396.77,264.705,397.466,266.15L397.466,266.15z"/>
	</g>
	<g>
		<path fill="#070707" d="M284.205,362.771c-0.411-1.826,0.481-2.663,1.984-1.29c0.954,0.871,1.474,2.293,1.811,3.506
			c0.411,1.477-0.184,2.433-1.698,2.413c-4.037-0.051-5.359-4.93-3.891-7.962c1.917-3.956,7.714,4.485,5.692,5.906
			c-1.645,1.156-3.858-2.232-3.556-3.548c0.376-1.637,1.664-1.19,2.339-0.216c0.997,1.437,0.405,3.083-0.927,4.038
			c0.505,0.064,1.01,0.13,1.515,0.195c-1.95-2.173-1.474-4.172,0.6-6.017c-0.589,0-1.179,0-1.768,0
			c0.437,0.422,2.354,2.103,1.684,2.886c-0.606,0.708-2.037,0.587-2.837,0.436c-4.263-0.807-1.405-4.53,0.528-6.315
			c-0.405,0.107-0.811,0.215-1.216,0.321c2.216,0.925,4.846,2.451,4.99,5.134c0.086,1.591-1.089,3.071-2.596,3.45
			c-3.708,0.935-4.997-9.667,0.605-9.74c2.719-0.036,3.803,3.09,3.886,5.287c0.093,2.442-1.876,3.993-4.05,4.49
			c-5.064,1.158-8.364-5.656-4.186-8.803c4.464-3.361,10.061,2.029,7.576,6.78c-2.812,5.38-11.232,3.703-11.164-2.549
			c0.028-2.656,2.568-4.519,5.008-4.708c3.087-0.241,5.206,2.647,5.801,5.359c0.965,4.408-5.224,6.55-7.961,3.666
			c-3.481-3.667,1.56-11.979,6.315-9.616c2.375,1.18,2.811,5.297,1.651,7.403c-0.909,1.652-2.979,2.157-4.717,2.074
			c-1.533-0.072-3.01-0.928-3.386-2.465c-0.414-1.694,1.289-5.142,3.172-5.227c1.798-0.08,3.115,2.288,3.548,3.713
			c0.762,2.511-1.031,3.776-3.298,4.118c-1.59,0.239-0.912,2.648,0.664,2.41c3.652-0.55,5.78-3.126,5.135-6.815
			c-0.507-2.901-3.041-5.724-6.049-5.926c-3.473-0.233-5.614,4.494-5.7,7.345c-0.091,3.047,2.801,5.037,5.55,5.311
			c3.095,0.309,6.27-1.065,7.596-3.987c1.555-3.426,0.157-8.592-3.296-10.308c-3.498-1.738-7.341,1.017-9.328,3.743
			c-2.343,3.215-1.988,7.943,1.009,10.608c2.509,2.231,6.585,1.906,9.091-0.142c3.239-2.649,3.006-6.731,0.934-10.046
			c-2.354-3.765-7.026-4.7-10.766-2.459c-3.932,2.356-4.368,7.698-1.888,11.244c5.335,7.629,18.588-0.223,14.41-8.717
			c-1.736-3.53-5.541-5.045-9.273-3.902c-3.93,1.202-5.482,5.139-4.784,8.922c1.244,6.738,10.762,7.144,14.012,1.896
			c3.732-6.027-3.498-14.457-9.572-9.713c-4.473,3.493-1.984,15.323,4.733,12.979c2.37-0.827,3.75-3.268,3.817-5.678
			c0.108-3.879-3.724-6.25-6.826-7.544c-0.408-0.171-0.917,0.045-1.216,0.321c-1.971,1.82-4.137,4.263-3.483,7.156
			c0.462,2.045,2.727,3.157,4.612,3.43c1.729,0.25,3.978,0.003,5.043-1.578c1.451-2.154-0.497-4.549-2.012-6.014
			c-0.511-0.494-1.253-0.458-1.768,0c-3.165,2.815-3.436,6.392-0.6,9.552c0.348,0.388,1.081,0.507,1.515,0.195
			c3.22-2.308,3.752-7.408-0.243-9.365c-3.874-1.896-5.742,3.657-4.304,6.406c1.252,2.392,7.082,5.138,8.115,1.015
			c0.866-3.456-1.916-7.381-4.637-9.218c-3.868-2.613-6.611,1.756-6.939,5.184c-0.342,3.558,2.163,6.647,5.376,7.796
			c2.562,0.915,5.841-0.239,6.01-3.271c0.19-3.435-2.826-9.23-6.967-7.975c-2.173,0.66-2.243,3.292-1.838,5.087
			C282.149,365.008,284.56,364.342,284.205,362.771L284.205,362.771z"/>
	</g>
	<g>
		<path fill="#070707" d="M239.416,374.512c1.135,1.646,2.456,3.146,3.59,4.791c0.909,1.317,2.917,0.179,2.159-1.262
			c-0.877-1.667-1.95-3.225-2.993-4.791c-0.765-1.148-2.695-0.449-2.285,0.963c1.074,3.697,2.582,9.321,6.86,10.453
			c0.111-0.818,0.222-1.637,0.333-2.455c-0.731-0.131-0.714,0.086,0.053,0.65c-0.035-1.609-2.535-1.613-2.5,0
			c0.034,1.543,1.093,1.842,2.447,1.85c1.413,0.008,1.702-2.093,0.333-2.455c-3.2-0.848-4.326-5.995-5.114-8.707
			c-0.762,0.32-1.523,0.642-2.285,0.963c1.043,1.566,2.116,3.124,2.993,4.791c0.72-0.421,1.439-0.841,2.159-1.262
			c-1.135-1.645-2.456-3.146-3.59-4.791C240.667,371.933,238.499,373.181,239.416,374.512L239.416,374.512z"/>
	</g>
	<g>
		<path fill="#070707" d="M252.586,395.466c-0.261-0.397-0.003-0.509-0.204,0.011c-0.072,0.188-0.113,0.368-0.112,0.574
			c0.004,0.735,0.569,1.179,1.25,1.25c1.199,0.126,2.764-2.118,3.424-2.777c-0.59-0.589-1.179-1.179-1.768-1.768
			c-0.882,0.975-1.608,2.083-2.741,2.795c-1.194,0.75-0.429,2.654,0.964,2.284c1.193-0.316,2.094-1.27,2.946-2.116
			c-0.696-0.405-1.393-0.811-2.089-1.216c-0.189,1.277-1.006,2.309-1.197,3.594c-0.159,1.082,0.787,1.942,1.837,1.411
			c1.42-0.719,2.671-1.51,3.845-2.589c-0.696-0.405-1.393-0.811-2.09-1.216c-0.504,1.774-0.692,3.608-1.197,5.384
			c-0.389,1.372,1.572,2.187,2.285,0.963c0.737-1.265,1.771-2.307,2.798-3.338c-0.696-0.405-1.393-0.811-2.089-1.216
			c-0.611,2.152-0.715,4.405-1.199,6.588c-0.346,1.566,2.008,2.231,2.411,0.664c0.521-2.023,1.149-3.911,2.27-5.688
			c-0.762-0.321-1.522-0.642-2.284-0.963c-0.421,1.788-0.181,3.604-0.6,5.387c-0.372,1.581,1.884,2.178,2.41,0.664
			c0.596-1.712,1.145-3.302,1.245-5.122c-0.833,0-1.667,0-2.5,0c0.116,1.017,0.482,1.983,0.598,2.994
			c0.141,1.231,1.592,1.711,2.329,0.631c0.249-0.364,0.623-1.075,1.049-1.222c-0.527-0.401-1.055-0.804-1.582-1.205
			c0.177,1.539,0.823,2.401,2.445,2.445c1.613,0.044,1.609-2.456,0-2.5c0.019,0.019,0.036,0.036,0.055,0.055
			c-0.086-0.751-0.741-1.495-1.582-1.205c-1.149,0.396-1.878,1.396-2.543,2.37c0.776,0.21,1.553,0.421,2.329,0.631
			c-0.116-1.017-0.482-1.983-0.598-2.994c-0.18-1.576-2.409-1.641-2.5,0c-0.088,1.591-0.638,2.972-1.155,4.458
			c0.804,0.222,1.606,0.442,2.41,0.664c0.42-1.788,0.181-3.604,0.6-5.387c0.327-1.389-1.521-2.173-2.284-0.963
			c-1.234,1.957-1.946,4.056-2.522,6.286c0.805,0.222,1.607,0.442,2.411,0.664c0.483-2.182,0.588-4.436,1.198-6.588
			c0.344-1.208-1.209-2.101-2.089-1.216c-1.175,1.181-2.345,2.397-3.188,3.844c0.762,0.321,1.523,0.642,2.285,0.963
			c0.504-1.775,0.691-3.608,1.196-5.384c0.354-1.244-1.19-2.042-2.089-1.216c-1.014,0.932-2.119,1.581-3.339,2.198
			c0.612,0.471,1.224,0.94,1.837,1.411c0.188-1.276,1.006-2.309,1.195-3.594c0.173-1.166-1.123-2.175-2.089-1.216
			c-0.526,0.522-1.103,1.276-1.845,1.474c0.322,0.762,0.643,1.522,0.964,2.284c1.333-0.837,2.206-2.035,3.247-3.186
			c1.075-1.189-0.621-2.914-1.768-1.768c-0.51,0.509-1.02,1.018-1.53,1.524c-0.192,0.191-0.388,0.381-0.585,0.567
			c-0.371,0.294-0.219,0.278,0.459-0.047c0.417,0.417,0.834,0.834,1.25,1.25c0.003,0.475,0.17-0.338,0.199-0.499
			c0.086-0.473,0.045-0.938-0.224-1.348C253.863,392.863,251.698,394.114,252.586,395.466L252.586,395.466z"/>
	</g>
	<g>
		<path fill="#070707" d="M446.922,232.622c0.229-0.505,0.372-0.986,0.469-1.529c0.086-0.488,0.098-0.707,0.583-0.887
			c-0.527-0.402-1.055-0.804-1.582-1.206c0,1.197,0,2.395,0,3.592c0.711-0.294,1.423-0.589,2.134-0.884
			c-0.546-0.429-1.097-0.87-1.735-1.153c-0.206-0.091-0.412-0.182-0.63-0.237c-0.518-0.132,0.354,0.127,0.528,0.503
			c0.057,0.21,0.114,0.42,0.171,0.631c0.003,0.021-0.082,0.429-0.015,0.159c0.038-0.151,0.067-0.304,0.093-0.458
			c0.117-0.713,0.15-1.431,0.155-2.152c-0.627,0.36-1.254,0.72-1.881,1.079c0.537,0.394,1.093,0.844,1.493,1.382
			c0.053,0.071,0.274,0.431,0.254,0.383c0.03,0.077,0.055,0.155,0.073,0.235c-0.062-0.229-0.081,0.117-0.003-0.187
			c0.07-0.277,0.312-0.527,0.603-0.545c-0.14-0.006-0.146-0.005-0.019,0.003c-0.034-0.006-0.248-0.067-0.271-0.077
			c-0.698-0.309-1.272-0.837-1.812-1.363c-0.184,0.696-0.367,1.393-0.552,2.089c0.79-0.17,1.515-0.447,2.205-0.863
			c0.119-0.064,0.073-0.048-0.136,0.048c-0.15,0.037-0.301,0.036-0.45-0.003c-0.335-0.069-0.056-0.011,0.085,0.085
			c0.435,0.297,0.852,0.675,1.27,1.01c-0.065-0.505-0.131-1.01-0.195-1.515c-0.096,0.164-0.118,0.131,0.025,0.15
			c-0.166-0.022-0.479-0.175-0.112,0c-1.448-0.687-2.718,1.468-1.262,2.158c1.329,0.631,2.755,0.247,3.507-1.046
			c0.26-0.445,0.237-1.168-0.195-1.515c-0.832-0.667-1.764-1.734-2.901-1.798c-0.403-0.022-0.772,0.191-1.103,0.393
			c-0.435,0.266-0.87,0.371-1.401,0.485c-0.928,0.199-1.198,1.458-0.552,2.089c1.085,1.061,3.798,3.337,5.283,1.571
			c1.639-1.948-1.177-4.308-2.573-5.329c-0.793-0.58-1.876,0.208-1.881,1.079c-0.004,0.651-0.037,1.372-0.116,1.762
			c-0.099,0.49-0.169,0.841,0.06,1.333c0.187,0.404,0.62,0.546,1.012,0.647c0.067,0.017,0.133,0.041,0.198,0.065
			c-0.323-0.118,0.021,0.021,0.073,0.047c0.331,0.171,0.646,0.391,0.938,0.621c0.814,0.64,2.134,0.305,2.134-0.884
			c0-1.197,0-2.395,0-3.592c0-0.758-0.809-1.494-1.582-1.206c-0.833,0.311-1.558,0.73-1.985,1.542
			c-0.338,0.641-0.27,1.38-0.561,2.024c-0.281,0.621-0.185,1.339,0.448,1.71C445.753,233.388,446.642,233.243,446.922,232.622
			L446.922,232.622z"/>
	</g>
	<g>
		<path fill="#070707" d="M438.99,243.975c0.271-0.09,0.545-0.173,0.819-0.254c0.264-0.078,0.528-0.148,0.796-0.214
			c0.1-0.024,0.201-0.047,0.302-0.067c0.424-0.089-0.179-0.003,0.146-0.018c-0.401-0.527-0.804-1.055-1.205-1.583
			c-0.139,0.449-0.284,0.893-0.485,1.317c-0.08,0.169-0.172,0.332-0.269,0.493c-0.042,0.068-0.085,0.134-0.131,0.199
			c0.088-0.108,0.09-0.111,0.005-0.009c-0.064,0.076-0.358,0.303-0.043,0.074c-0.253,0.184,0.188-0.046,0.039-0.009
			c0.351-0.087,0.638,0.013,0.906,0.24c0.144,0.206,0.184,0.256,0.12,0.152c0.087,0.231,0.112,0.287,0.076,0.166
			c0.103,0.363,0.018,0.214,0.025,0.052c-0.02,0.403-0.012,0.12,0.026-0.003c0.057-0.181-0.129,0.236,0.046-0.073
			c0.164-0.291-0.055,0.033,0.087-0.133c0.396-0.465,0.985-0.73,1.734-0.927c-0.471-0.612-0.94-1.225-1.411-1.836
			c-0.453,0.611-0.817,1.263-1.237,1.893c0.212-0.317,0.075-0.098-0.011-0.019c0.284-0.262,0.019-0.024-0.074,0.032
			c-0.392,0.238-0.815,0.431-1.226,0.636c0.321-0.042,0.643-0.084,0.963-0.126c0.19,0.073,0.346,0.187,0.465,0.343
			c0.142,0.237-0.006-0.069-0.022-0.132c-0.062-0.243-0.063-0.346-0.077-0.477c-0.03-0.306-0.044-0.615-0.045-0.922
			c-0.417,0.417-0.833,0.833-1.25,1.25c1.073,0,1.997-0.042,2.963,0.428c0-0.72,0-1.439,0-2.159
			c-1.198,0.598-2.396,1.197-3.594,1.795c0.505,0.065,1.01,0.13,1.515,0.195c-0.256-0.276,0.073,0.005-0.006,0.515
			c-0.246,0.349-0.293,0.445-0.142,0.288c-0.138,0.103-0.147,0.116-0.031,0.039c0.17-0.106,0.354-0.186,0.514-0.309
			c0.809-0.618,0.937-1.54,0.263-2.327c-1.05-1.227-2.81,0.55-1.768,1.768c-0.092-0.22-0.183-0.439-0.274-0.659
			c0.058-0.21,0.114-0.42,0.171-0.631c-0.111,0.262,0.512-0.411,0.225-0.223c-0.1,0.065-0.208,0.118-0.311,0.175
			c-0.244,0.135-0.492,0.304-0.669,0.521c-0.704,0.867-0.454,1.84,0.261,2.61c0.398,0.43,1.022,0.441,1.515,0.195
			c1.198-0.598,2.396-1.196,3.594-1.794c0.81-0.404,0.822-1.759,0-2.159c-1.383-0.673-2.706-0.769-4.225-0.769
			c-0.68,0-1.252,0.569-1.25,1.25c0.006,1.747,0.459,4.484,2.846,3.289c0.688-0.344,1.345-0.673,1.804-1.311
			c0.452-0.628,0.81-1.318,1.273-1.944c0.688-0.927-0.439-2.092-1.411-1.836c-1.824,0.481-4.593,2.281-3.51,4.551
			c0.436,0.913,1.659,1.074,2.432,0.514c1.121-0.813,1.623-2.257,2.015-3.527c0.233-0.756-0.405-1.618-1.205-1.583
			c-0.927,0.041-1.853,0.353-2.728,0.641C436.803,242.066,437.455,244.481,438.99,243.975L438.99,243.975z"/>
	</g>
	<g>
		<path fill="#070707" d="M432.081,255.674c0.201-0.622,0.348-1.259,0.572-1.873c0.157-0.431,0.404-0.356,0.885-0.25
			c-0.291-0.291-0.582-0.582-0.873-0.873c0.144,0.569,0.361,1.253,0.344,1.652c0.01-0.215-0.103,0.184-0.135,0.25
			c-0.219,0.447-0.46,0.884-0.685,1.329c0.654-0.084,1.309-0.168,1.963-0.253c-0.797-0.799-1.594-1.598-2.393-2.395
			c-0.184,0.696-0.367,1.393-0.552,2.089c0.69-0.282,1.609-0.625,2.227-0.687c0.122-0.012,0.244-0.012,0.367-0.01
			c0.244,0.003-0.181-0.062,0.152,0.031c-0.099-0.027-0.155-0.073-0.199-0.15c-0.159-0.279-0.072-0.183-0.046-0.055
			c-0.074-0.357-0.027-0.179-0.033-0.061c0.023-0.501-0.195,0.414-0.018,0.028c-0.051,0.109-0.383,0.578-0.171,0.313
			c-0.076,0.095-0.52,0.478-0.239,0.269c-0.1,0.074-0.551,0.264-0.194,0.133c-0.084,0.031-0.345,0.072,0.042,0.021
			c-0.123,0.017-0.402-0.055-0.029,0.021c-0.254-0.052,0.257,0.141,0.021,0.012c-0.149-0.082,0.157,0.169-0.069-0.083
			c-0.285-0.316-0.585-0.729-0.75-1.125c0.012,0.029-0.129-0.47-0.102-0.258c-0.043-0.336-0.075,0.158,0.002-0.115
			c-0.081,0.285-0.208,0.35-0.436,0.441c0.089-0.036,0.026,0.01-0.051-0.006c0.108,0.021,0.327,0.144,0.51,0.317
			c0.281,0.268,0.448,0.633,0.6,0.986c0.269,0.627,1.178,0.76,1.71,0.449c0.642-0.376,0.717-1.084,0.448-1.71
			c-0.484-1.131-1.394-2.113-2.603-2.452c-1.123-0.315-2.438,0.297-2.635,1.517c-0.228,1.409,0.691,2.902,1.662,3.855
			c0.628,0.616,1.593,0.818,2.417,0.515c1.512-0.555,2.55-2.13,2.329-3.732c-0.117-0.849-0.98-1.475-1.774-1.599
			c-1.306-0.205-2.606,0.236-3.802,0.724c-0.84,0.343-1.278,1.365-0.552,2.089c0.799,0.797,1.596,1.596,2.393,2.395
			c0.543,0.545,1.596,0.473,1.963-0.253c0.384-0.758,0.927-1.552,1.103-2.395c0.192-0.925-0.15-1.875-0.375-2.763
			c-0.102-0.403-0.461-0.782-0.873-0.873c-1.17-0.258-2.402-0.22-3.253,0.735c-0.764,0.858-0.938,2.077-1.278,3.134
			C429.174,256.547,431.588,257.201,432.081,255.674L432.081,255.674z"/>
	</g>
	<g>
		<path fill="#070707" d="M414.691,230.267c2.305-1.73,4.613-3.47,7.185-4.79c1.435-0.737,0.17-2.894-1.262-2.159
			c-2.571,1.321-4.88,3.061-7.185,4.791C412.157,229.064,413.4,231.236,414.691,230.267L414.691,230.267z"/>
	</g>
	<g>
		<path fill="#070707" d="M427.915,222.296c1.261-0.645,2.256-1.6,3.247-2.593c1.14-1.142-0.628-2.91-1.768-1.768
			c-0.862,0.864-1.654,1.646-2.741,2.202C425.218,220.872,426.482,223.029,427.915,222.296L427.915,222.296z"/>
	</g>
	<g>
		<path fill="#070707" d="M437.795,215.834c1.796-0.597,3.592-1.195,5.387-1.792c1.521-0.507,0.87-2.922-0.664-2.411
			c-1.796,0.598-3.591,1.196-5.387,1.792C435.608,213.93,436.261,216.344,437.795,215.834L437.795,215.834z"/>
	</g>
	<g>
		<path fill="#070707" d="M21.374,172.669c-0.359-0.009,0.056,0.029,0.143,0.085c0.149,0.149,0.299,0.299,0.448,0.448
			c-0.007-0.011-0.014-0.022-0.021-0.033c0.057,0.21,0.114,0.42,0.171,0.631c0-0.012,0-0.024,0-0.037
			c-0.057,0.21-0.114,0.421-0.17,0.631c-0.073,0.114-0.167,0.208-0.279,0.283c0.054-0.035,0.314-0.13,0.051-0.032
			c0.067-0.023,0.135-0.044,0.204-0.062c0.324-0.091-0.244,0.001,0.055-0.012c0.681-0.03,1.25-0.546,1.25-1.25
			c0-0.659-0.569-1.28-1.25-1.25c-0.667,0.029-1.517,0.243-1.975,0.769c-0.391,0.448-0.534,1.095-0.192,1.623
			c0.362,0.561,0.944,0.689,1.568,0.705C22.987,175.21,22.983,172.71,21.374,172.669L21.374,172.669z"/>
	</g>
	<g>
		<path fill="#070707" d="M273.424,60.822c0.852-0.038,1.671-0.395,2.424-0.77c-0.421-0.719-0.841-1.439-1.262-2.158
			c-0.683,0.352-1.557,0.845-1.958,1.53c-0.533,0.912,0.174,1.798,1.1,1.91c0.518,0.062,1.121-0.418,1.521-0.683
			c0.567-0.374,0.807-1.098,0.448-1.71c-0.33-0.563-1.141-0.824-1.71-0.448c-0.174,0.114-0.349,0.227-0.526,0.335
			c-0.057,0.034-0.115,0.067-0.174,0.098c-0.177,0.097,0.367-0.101,0.423-0.094c0.36,0.207,0.72,0.413,1.079,0.619
			c-0.002-0.003-0.004-0.007-0.006-0.01c0.042,0.321,0.084,0.642,0.126,0.963c-0.114,0.498-0.428,0.61-0.158,0.359
			c0.039-0.035,0.079-0.07,0.119-0.103c0.237-0.2-0.224,0.163,0.061-0.045c0.289-0.212,0.598-0.398,0.917-0.563
			c0.604-0.312,0.779-1.146,0.448-1.71c-0.361-0.617-1.1-0.752-1.71-0.448c-0.039,0.019-0.078,0.038-0.117,0.057
			c-0.06,0.028-0.459,0.202-0.203,0.095c-0.183,0.076-0.369,0.142-0.557,0.202c-0.074,0.023-0.148,0.043-0.223,0.062
			c-0.339,0.088,0.238-0.001-0.062,0.012c-0.681,0.03-1.25,0.546-1.25,1.25C272.174,60.231,272.742,60.853,273.424,60.822
			L273.424,60.822z"/>
	</g>
	<g>
		<path fill="#070707" d="M266.782,153.565c0.018,0.708,0.176,1.361,0.649,1.904c0.173,0.198,0.385,0.346,0.593,0.504
			c0.078,0.06,0.159,0.117,0.239,0.176c-0.231-0.171,0.062,0.07,0.086,0.093c1.168,1.11,2.938-0.655,1.768-1.768
			c-0.161-0.153-0.332-0.285-0.509-0.42c-0.06-0.045-0.477-0.372-0.216-0.16c-0.047-0.039-0.091-0.081-0.133-0.125
			c0.096,0.137,0.105,0.146,0.029,0.028c0.054,0.146,0.057,0.146,0.01,0c-0.084-0.281-0.008,0.131-0.017-0.234
			C269.242,151.956,266.742,151.952,266.782,153.565L266.782,153.565z"/>
	</g>
	<g>
		<path fill="#070707" d="M275.534,158.039c0.198,0.2,0.396,0.4,0.595,0.601c1.136,1.147,2.902-0.622,1.768-1.768
			c-0.198-0.2-0.396-0.4-0.595-0.601C276.166,155.125,274.399,156.893,275.534,158.039L275.534,158.039z"/>
	</g>
	<g>
		<path fill="#070707" d="M94.101,229.884c0.886-0.93,0.965-2.055,0.965-3.279c0-1.612-2.5-1.612-2.5,0c0,0.208,0,0.416-0.004,0.624
			c-0.002,0.09-0.005,0.181-0.01,0.271c-0.001,0.03-0.052,0.434-0.006,0.142c-0.01,0.064-0.148,0.479-0.028,0.201
			c-0.029,0.062-0.062,0.123-0.099,0.181c-0.167,0.282,0.16-0.165-0.086,0.093C91.222,229.282,92.987,231.053,94.101,229.884
			L94.101,229.884z"/>
	</g>
	<g>
		<path fill="#070707" d="M97.409,238.632c0.38-0.03,0.724-0.096,1.049-0.306c0.139-0.09,0.277-0.209,0.399-0.326
			c0.27-0.256-0.02,0.013-0.25,0.031c0.679-0.054,1.25-0.528,1.25-1.25c0-0.641-0.57-1.304-1.25-1.25
			c-0.38,0.03-0.724,0.096-1.049,0.306c-0.139,0.09-0.277,0.209-0.399,0.326c-0.27,0.256,0.02-0.013,0.25-0.031
			c-0.679,0.054-1.25,0.528-1.25,1.25C96.159,238.023,96.729,238.686,97.409,238.632L97.409,238.632z"/>
	</g>
	<g>
		<path fill="#070707" d="M285.845,362.397c-0.07,0.175-0.108,0.33-0.135,0.517c0.004-0.027-0.123,0.557-0.062,0.483
			c0.696,0.405,1.393,0.811,2.089,1.216c0.221-1.142,0.355-2.269,0.776-3.361c0.511-1.322-1.673-2.231-2.284-0.963
			c-0.489,1.016-0.813,2.074-1.16,3.143c-0.446,1.37,1.579,2.169,2.284,0.963c0.305-0.521,0.924-0.884,1.355-1.299
			c-0.654-0.505-1.309-1.01-1.963-1.515c-0.297,0.389-0.327,0.86-0.517,1.293c-0.273,0.624-0.19,1.336,0.448,1.71
			c0.536,0.314,1.437,0.177,1.71-0.448c0.175-0.399,0.255-0.95,0.517-1.293c0.888-1.162-0.977-2.464-1.963-1.515
			c-0.607,0.584-1.312,1.063-1.746,1.805c0.762,0.321,1.522,0.643,2.284,0.963c0.279-0.858,0.515-1.729,0.908-2.545
			c-0.762-0.321-1.522-0.643-2.284-0.963c-0.422,1.092-0.557,2.22-0.776,3.361c-0.216,1.115,1.211,2.256,2.089,1.216
			c0.288-0.342,0.476-0.648,0.628-1.069c0.122-0.336,0.076-0.697,0.211-1.034c0.254-0.634-0.271-1.372-0.873-1.537
			C286.67,361.328,286.098,361.765,285.845,362.397L285.845,362.397z"/>
	</g>
	<g>
		<path fill="#070707" d="M240.337,371.188c-0.452,1.277-0.763,2.552-1.034,3.879c0.819,0.11,1.637,0.222,2.456,0.332
			c-0.028-0.93,0.043-1.854,0.214-2.771c-0.804-0.222-1.607-0.442-2.411-0.664c-0.356,2.35-0.666,4.545,0,6.87
			c0.387,1.352,2.467,1.094,2.456-0.332c-0.013-1.722-0.208-3.202-0.946-4.768c-0.615-1.305-2.66-0.373-2.285,0.963
			c0.842,2.999,1.837,5.914,3.488,8.572c0.751,1.211,2.627,0.423,2.285-0.963c-0.604-2.44-1.515-4.785-2.069-7.239
			c-0.804,0.222-1.607,0.442-2.411,0.664c0.741,2.79,0.814,5.729,2.195,8.314c0.586,1.099,2.359,0.597,2.329-0.631
			c-0.085-3.466-0.768-6.802-1.596-10.158c-0.389-1.576-2.727-0.901-2.411,0.664c0.623,3.088,1.341,6.516,3.942,8.567
			c0.702,0.554,1.835,0.444,2.089-0.552c1.005-3.941-0.805-8.065-2.97-11.306c-0.656-0.98-2.375-0.682-2.33,0.631
			c0.126,3.674,1.416,7.951,4.245,10.451c0.796,0.703,2.134,0.257,2.134-0.884c0-0.518,0-1.034,0-1.552
			c-0.776,0.21-1.553,0.421-2.329,0.631c0.935,1.791,0.184,2.789-1.362,3.72c-1.386,0.834-0.163,2.905,1.262,2.158
			c1.127-0.591,2.234-1.218,3.361-1.81c1.436-0.754,0.174-2.863-1.262-2.158c-1.347,0.661-2.443,1.601-3.614,2.522
			c-1.061,0.835,0.111,2.332,1.216,2.089c1.165-0.256,2.125-0.534,3.143-1.16c1.37-0.843,0.117-3.004-1.262-2.158
			c-0.857,0.525-1.729,1.024-2.585,1.551c0.505,0.654,1.01,1.309,1.515,1.963c0.887-1.099,1.849-2.102,2.844-3.103
			c1.138-1.144-0.629-2.912-1.768-1.768c-0.995,1-1.958,2.004-2.844,3.103c-0.843,1.044,0.221,2.756,1.515,1.963
			c0.857-0.525,1.729-1.024,2.585-1.551c-0.42-0.72-0.841-1.438-1.262-2.158c-0.886,0.545-1.571,0.693-2.546,0.908
			c0.406,0.696,0.811,1.393,1.216,2.089c1.011-0.795,1.951-1.563,3.108-2.132c-0.42-0.72-0.841-1.438-1.262-2.158
			c-1.127,0.592-2.234,1.219-3.361,1.81c0.42,0.72,0.841,1.438,1.262,2.158c2.909-1.751,3.878-4.036,2.258-7.14
			c-0.587-1.125-2.329-0.576-2.329,0.631c0,0.518,0,1.034,0,1.552c0.711-0.295,1.422-0.589,2.134-0.884
			c-2.344-2.071-3.407-5.634-3.512-8.684c-0.776,0.21-1.553,0.421-2.33,0.631c1.77,2.647,3.551,6.117,2.718,9.38
			c0.697-0.185,1.393-0.368,2.089-0.552c-2.262-1.785-2.759-4.789-3.298-7.464c-0.804,0.222-1.607,0.442-2.411,0.664
			c0.775,3.14,1.427,6.248,1.507,9.494c0.776-0.21,1.553-0.421,2.329-0.631c-1.258-2.355-1.267-5.173-1.942-7.717
			c-0.416-1.563-2.765-0.902-2.411,0.664c0.554,2.455,1.465,4.8,2.069,7.239c0.762-0.32,1.523-0.642,2.285-0.963
			c-1.538-2.479-2.451-5.181-3.235-7.975c-0.762,0.32-1.523,0.642-2.285,0.963c0.55,1.166,0.595,2.25,0.604,3.506
			c0.818-0.11,1.637-0.222,2.456-0.332c-0.541-1.889-0.29-3.634,0-5.542c0.237-1.565-2.13-2.263-2.411-0.664
			c-0.204,1.162-0.292,2.251-0.303,3.436c-0.013,1.388,2.169,1.735,2.456,0.332c0.271-1.326,0.582-2.602,1.034-3.879
			C243.288,370.329,240.872,369.68,240.337,371.188L240.337,371.188z"/>
	</g>
	<g>
		<path fill="#070707" d="M251.26,394.425c-0.259,0.259-0.517,0.517-0.775,0.775c-1.017,1.017,0.278,2.652,1.515,1.963
			c0.607-0.338,1.202-0.695,1.81-1.034c1.226-0.684,0.396-2.738-0.963-2.284c-0.259,0.086-0.518,0.172-0.775,0.259
			c0.405,0.696,0.811,1.393,1.216,2.089c1.131-1,2.326-1.795,3.844-2.006c-0.471-0.612-0.94-1.224-1.411-1.836
			c-0.259,0.517-0.518,1.034-0.775,1.552c0.776,0.21,1.553,0.421,2.329,0.631c0-0.259,0-0.518,0-0.776
			c0-1.268-1.681-1.675-2.329-0.631c-1.074,1.728-1.816,3.468-2.195,5.471c-0.253,1.335,1.564,2.27,2.284,0.963
			c0.972-1.762,0.911-3.376-0.453-4.876c-0.594-0.652-1.935-0.373-2.089,0.552c-0.624,3.73,0.779,7.033,2.97,10.013
			c0.94,1.28,2.913,0.197,2.158-1.262c-1.312-2.537-2.824-4.962-4.137-7.499c-0.671-1.297-2.608-0.378-2.284,0.963
			c0.736,3.05,2.524,5.498,4.263,8.056c0.786,1.157,2.638,0.454,2.284-0.963c-0.685-2.746-1.786-5.363-3.229-7.797
			c-0.587-0.991-2.487-0.663-2.329,0.631c0.413,3.382,1.463,7.66,4.756,9.354c0.666,0.343,1.678,0.087,1.836-0.747
			c0.645-3.393-1.27-6.262-2.068-9.455c-0.347-1.386-2.448-1.068-2.455,0.332c-0.016,3.242-0.335,7.388,2.435,9.675
			c0.695,0.574,1.837,0.429,2.089-0.552c0.768-2.98,0.775-5.913,0.259-8.938c-0.219-1.286-2.078-1.1-2.41,0
			c-0.77,2.544-1.388,6.198-0.436,8.761c1.254,3.373,4.029-0.404,4.788-1.851c-0.72-0.421-1.438-0.841-2.158-1.262
			c-0.447,1.027-0.847,2.076-1.293,3.103c-0.579,1.329,0.824,2.413,1.963,1.515c1.568-1.236,2.55-2.93,3.879-4.396
			c-0.654-0.505-1.309-1.01-1.963-1.515c-0.906,1.982-2.366,3.332-4.206,4.465c-1.186,0.729-0.423,2.711,0.963,2.284
			c0.337-0.117,0.682-0.203,1.034-0.259c-0.471-0.611-0.94-1.224-1.411-1.836c-0.345,0.517-0.689,1.034-1.034,1.552
			c-0.673,1.009,0.693,2.456,1.71,1.71c2.761-2.023,5.929-4.721,5.463-8.503c-0.37-3.011-2.639-6.629-5.463-7.877
			c-0.91-0.402-1.78,0.079-1.881,1.079c-0.299,2.963,1.924,4.965,4.538,5.859c0.941,0.322,1.745-0.665,1.537-1.537
			c-0.646-2.71-2.793-4.927-5.229-6.177c-0.893-0.459-2.24,0.305-1.836,1.411c0.997,2.735,2.803,4.623,4.976,6.499
			c0.859,0.742,2.562,0.057,2.089-1.216c-0.528-1.424-1.232-2.395-2.39-3.396c-0.699-0.605-1.821-0.402-2.089,0.552
			c-0.54,1.92-0.143,3.31,1.097,4.836c1.017,1.252,2.774-0.528,1.768-1.768c-0.151-0.802-0.303-1.603-0.454-2.404
			c-0.696,0.185-1.393,0.368-2.089,0.552c0.809,0.572,1.391,1.337,1.747,2.293c0.696-0.405,1.393-0.811,2.089-1.216
			c-1.798-1.553-3.497-3.104-4.333-5.396c-0.612,0.471-1.224,0.94-1.836,1.411c1.889,0.97,3.573,2.561,4.08,4.683
			c0.513-0.513,1.024-1.024,1.537-1.537c-1.614-0.553-2.893-1.563-2.702-3.449c-0.627,0.359-1.254,0.72-1.881,1.079
			c2.129,0.941,3.416,3.259,4.112,5.38c0.942,2.87-2.089,5.2-4.112,6.684c0.57,0.57,1.14,1.14,1.71,1.71
			c0.345-0.518,0.689-1.034,1.034-1.552c0.652-0.978-0.414-2.047-1.411-1.836c-0.354,0.055-0.698,0.141-1.034,0.259
			c0.32,0.762,0.642,1.522,0.963,2.284c2.175-1.338,4.027-3.009,5.103-5.361c0.554-1.212-0.942-2.64-1.963-1.515
			c-1.32,1.457-2.321,3.167-3.879,4.396c0.654,0.505,1.309,1.01,1.963,1.515c0.448-1.027,0.847-2.075,1.293-3.103
			c0.627-1.44-1.394-2.719-2.158-1.262c-0.225,0.456-0.471,0.9-0.738,1.333c-0.671,0.543-0.533,0.82,0.414,0.831
			c-0.271-0.726-0.181-1.638-0.168-2.395c0.028-1.597,0.245-3.224,0.708-4.754c-0.804,0-1.606,0-2.41,0
			c0.441,2.587,0.396,5.061-0.259,7.61c0.696-0.185,1.393-0.368,2.089-0.552c-2.185-1.804-1.715-5.36-1.702-7.907
			c-0.818,0.11-1.637,0.222-2.455,0.332c0.646,2.582,2.586,5.4,2.068,8.127c0.612-0.249,1.224-0.498,1.836-0.747
			c-2.429-1.25-3.211-4.684-3.518-7.195c-0.776,0.21-1.553,0.421-2.329,0.631c1.338,2.259,2.341,4.652,2.977,7.199
			c0.762-0.32,1.522-0.642,2.284-0.963c-1.612-2.372-3.325-4.621-4.011-7.458c-0.762,0.321-1.522,0.642-2.284,0.963
			c1.312,2.537,2.824,4.962,4.137,7.499c0.72-0.421,1.438-0.841,2.158-1.262c-1.731-2.355-3.224-5.059-2.718-8.087
			c-0.696,0.185-1.393,0.368-2.089,0.552c0.021,0.615,0.041,1.231,0.062,1.847c0.762,0.321,1.522,0.642,2.284,0.963
			c0.338-1.784,0.986-3.333,1.943-4.873c-0.776-0.21-1.553-0.421-2.329-0.631c0,0.259,0,0.518,0,0.776
			c0,1.193,1.759,1.773,2.329,0.631c0.258-0.518,0.517-1.035,0.775-1.552c0.529-1.058-0.327-1.986-1.411-1.836
			c-1.918,0.266-3.526,1.393-4.947,2.648c-0.932,0.823,0.044,2.48,1.216,2.089c0.259-0.086,0.518-0.172,0.775-0.259
			c-0.32-0.762-0.642-1.522-0.963-2.284c-0.607,0.339-1.202,0.695-1.81,1.034c0.505,0.654,1.01,1.309,1.515,1.963
			c0.259-0.259,0.517-0.517,0.775-0.775C254.168,395.052,252.4,393.284,251.26,394.425L251.26,394.425z"/>
	</g>
	<g>
		<path fill="#070707" d="M317.407,329.265c-0.116-0.082-0.216-0.18-0.3-0.293c-0.084,0.655-0.168,1.31-0.253,1.964
			c-0.931-0.015-1.11,0.094-0.539,0.324c0.409,0.226,0.808,0.474,1.208,0.716c0.779,0.472,1.549,0.96,2.314,1.454
			c3.229,2.083,3.177,7.903,3.192,11.198c0.008,1.611,2.508,1.612,2.5,0c-0.023-4.837-0.59-9.35-3.986-13.036
			c-0.989-1.074-4.453-3.484-5.951-2.815c-0.799,0.357-0.711,1.404-0.253,1.964c0.084,0.112,0.184,0.21,0.3,0.292
			C316.843,332.096,318.617,330.335,317.407,329.265L317.407,329.265z"/>
	</g>
	<g>
		<path fill="#070707" d="M332.509,320.695c2.226,3.77,4.848,8.195,8.464,10.791c1.312,0.942,2.559-1.228,1.262-2.158
			c-3.236-2.323-5.577-6.524-7.567-9.895C333.849,318.047,331.687,319.304,332.509,320.695L332.509,320.695z"/>
	</g>
	<g>
		<path fill="#070707" d="M334.319,319.661c1.962,3.793,4.713,7.533,7.693,10.596c1.126,1.157,2.893-0.612,1.768-1.768
			c-2.844-2.922-5.429-6.468-7.303-10.09C335.736,316.967,333.579,318.231,334.319,319.661L334.319,319.661z"/>
	</g>
	<g>
		<path fill="#070707" d="M353.97,303.889c2.426,3.291,4.717,6.946,6.08,10.819c0.531,1.511,2.947,0.86,2.41-0.664
			c-1.439-4.092-3.768-7.938-6.332-11.417C355.183,301.344,353.012,302.589,353.97,303.889L353.97,303.889z"/>
	</g>
	<g>
		<path fill="#070707" d="M353.131,305.692c2.957,2.828,4.658,6.563,7.045,9.831c0.94,1.288,3.111,0.042,2.158-1.262
			c-2.514-3.441-4.319-7.357-7.436-10.337C353.734,302.812,351.964,304.576,353.131,305.692L353.131,305.692z"/>
	</g>
	<g>
		<path fill="#070707" d="M379.022,284.812c1.744,0.598,2.91,2.753,3.867,4.194c0.97,1.46,1.871,2.995,3.079,4.275
			c0.309,0.327,0.79,0.428,1.216,0.321c0.358-0.089,0.665-0.201,1.034-0.258c0.654-0.099,1.065-0.945,0.873-1.537
			c-1.281-3.956-4.546-6.546-6.849-9.866c-0.911-1.315-3.079-0.067-2.158,1.262c2.138,3.083,5.413,5.615,6.597,9.269
			c0.291-0.513,0.582-1.024,0.873-1.537c-0.37,0.056-0.677,0.168-1.034,0.258c0.405,0.106,0.811,0.214,1.216,0.321
			c-2.688-2.85-4.041-7.739-8.05-9.112C378.157,281.877,377.506,284.293,379.022,284.812L379.022,284.812z"/>
	</g>
	<g>
		<path fill="#070707" d="M397.024,267.649c0.921,4.788,5.349,8.451,8.142,12.192c0.952,1.275,3.124,0.031,2.158-1.262
			c-2.643-3.541-7.023-7.091-7.89-11.596C399.131,265.402,396.722,266.074,397.024,267.649L397.024,267.649z"/>
	</g>
</g>
</svg>
