<?xml version="1.0" encoding="utf-8"?>
<!-- Generator: Adobe Illustrator 16.0.0, SVG Export Plug-In . SVG Version: 6.00 Build 0)  -->
<!DOCTYPE svg PUBLIC "-//W3C//DTD SVG 1.1//EN" "http://www.w3.org/Graphics/SVG/1.1/DTD/svg11.dtd">
<svg version="1.1" id="Layer_1" xmlns="http://www.w3.org/2000/svg" xmlns:xlink="http://www.w3.org/1999/xlink" x="0px" y="0px"
	 width="500px" height="550px" viewBox="0 0 500 550" enable-background="new 0 0 500 550" xml:space="preserve">
<g>
	<g>
		<path fill="#070707" d="M325.363,197.135c-20.452-37.229-70.094-35.32-106.209-28.746c-11.701,2.13-22.756,6.272-32.081,13.771
			c-8.696,6.994-15.17,16.937-19.41,27.163c-10.696,25.799-9.245,53.866-7.277,81.135c0.115,1.599,2.616,1.609,2.5,0
			c-1.803-24.992-3.233-50.461,4.919-74.575c3.637-10.758,9.478-20.739,17.514-28.787c8.936-8.949,20.712-13.427,32.866-15.978
			c35.037-7.354,85.152-8.888,105.021,27.278C323.981,199.81,326.141,198.549,325.363,197.135L325.363,197.135z"/>
	</g>
	<g>
		<path fill="#070707" d="M163.862,220.278c-6.062-1.916-11.383-3.822-14.847-9.526c-3.308-5.45-1.802-12.344,1.259-17.46
			c5.812-9.713,22.659-13.259,31.014-5.43c1.175,1.101,2.946-0.664,1.768-1.768c-10.083-9.447-27.524-4.623-34.94,5.936
			c-3.578,5.094-4.698,12.9-1.934,18.593c3.507,7.224,9.75,9.77,17.015,12.066C164.739,223.176,165.394,220.763,163.862,220.278
			L163.862,220.278z"/>
	</g>
	<g>
		<path fill="#070707" d="M312.886,183.569c9.544-4.849,24.065-7.263,31.046,2.819c7.151,10.329,2.597,26.683-10.415,29.131
			c-1.583,0.298-0.911,2.708,0.664,2.411c14.774-2.78,18.758-19.741,12.561-31.719c-6.653-12.858-24.402-10.245-35.117-4.801
			C310.187,182.142,311.452,184.298,312.886,183.569L312.886,183.569z"/>
	</g>
	<g>
		<path fill="#070707" d="M237.023,235.762c0.021-0.38,0.041-0.76,0.061-1.14c-0.493,0.146-0.99,0.275-1.492,0.385
			c-0.866,0.207-0.483,0.048-1.51,0.673c-1.67,1.016-3.188,2.265-4.643,3.563c-2.165,1.932-5.083,5.304-4.588,8.49
			c0.629,4.053,4.65,5.966,8.307,6.759c5.771,1.252,11.901-2.467,17.588-2.934c7.175-0.589,19.038,7.854,20.931-4.234
			c1.21-7.729-9.567-12.264-15.167-14.35c-0.757-0.282-1.08,0.926-0.332,1.205c5.407,2.015,12.457,5.007,14.167,11.082
			c0.836,2.97-1.189,6.397-3.971,7.474c-1.896,0.734-4.291-0.072-6.152-0.575c-2.705-0.73-5.272-1.67-8.093-1.827
			c-8.552-0.476-16.744,6.671-24.591,0.14c-6.4-5.327,6.333-13.45,10.361-14.811c0.45-0.152,0.608-0.689,0.276-1.044
			c-0.388-0.415-1.018-0.144-1.484-0.063C235.898,234.694,236.235,235.898,237.023,235.762L237.023,235.762z"/>
	</g>
	<g>
		<path fill="#070707" d="M258.903,253.234c1.589,4.136,2.109,8.736,0.834,13.025c-1.342,4.51-7.62,4.781-9.58,0.762
			c-0.353-0.725-1.431-0.09-1.079,0.631c1.98,4.061,6.689,4.406,10.02,1.735c4.365-3.498,2.693-12.104,1.01-16.484
			C259.822,252.157,258.613,252.48,258.903,253.234L258.903,253.234z"/>
	</g>
	<path fill="none" stroke="#070707" stroke-width="1.5" stroke-miterlimit="10" d="M309.762,207.189
		c0-15.128-12.262-27.386-27.387-27.386c-15.123,0-27.39,12.258-27.39,27.386s12.267,27.387,27.39,27.387
		C297.5,234.576,309.762,222.317,309.762,207.189z"/>
	<path fill="none" stroke="#070707" stroke-width="1.5" stroke-miterlimit="10" d="M240.785,210.1
		c0-15.126-12.261-27.389-27.386-27.389c-15.129,0-27.39,12.263-27.39,27.389c0,15.121,12.261,27.383,27.39,27.383
		C228.524,237.483,240.785,225.22,240.785,210.1z"/>
	<circle fill="#070707" cx="329.028" cy="196.348" r="5.792"/>
	<path fill="#070707" d="M173.413,201.857c0-3.201-2.594-5.795-5.795-5.795c-3.196,0-5.792,2.594-5.792,5.795
		c0,3.199,2.596,5.789,5.792,5.789C170.819,207.646,173.413,205.056,173.413,201.857z"/>
	<path fill="#070707" d="M260.314,232.465c0-3.75-5.489-6.788-12.255-6.788c-6.769,0-12.259,3.038-12.259,6.788
		c0,3.748,5.49,6.786,12.259,6.786C254.825,239.25,260.314,236.212,260.314,232.465z"/>
	<path fill="#070707" d="M268.011,199.872c-4.943,0-8.948,4.009-8.948,8.952c0,4.943,4.005,8.957,8.948,8.957
		c4.949,0,8.958-4.014,8.958-8.957C276.969,203.88,272.96,199.872,268.011,199.872z M271.616,214.519
		c-1.399,0-2.532-1.135-2.532-2.534c0-1.398,1.133-2.531,2.532-2.531c1.401,0,2.536,1.133,2.536,2.531
		C274.152,213.383,273.018,214.519,271.616,214.519z"/>
	<path fill="#070707" d="M198.531,202.005c-4.947,0-8.955,4.006-8.955,8.955c0,4.946,4.007,8.954,8.955,8.954
		c4.943,0,8.952-4.008,8.952-8.954C207.482,206.011,203.474,202.005,198.531,202.005z M202.132,216.655
		c-1.401,0-2.533-1.138-2.533-2.534c0-1.401,1.132-2.54,2.533-2.54c1.402,0,2.535,1.139,2.535,2.54
		C204.667,215.517,203.534,216.655,202.132,216.655z"/>
	<g>
		<path fill="#070707" d="M248.519,251.822c0.093,4.71,2.223,16.303-3.96,18.329c-4.717,1.546-6.679-3.91-7.019-7.398
			c-0.291-2.988,0.128-6.124,0.973-8.992c0.229-0.775-0.978-1.104-1.205-0.332c-1.538,5.217-2.725,17.233,5.173,18.009
			c9.621,0.944,7.397-14.058,7.288-19.615C249.753,251.017,248.503,251.016,248.519,251.822L248.519,251.822z"/>
	</g>
	<g>
		<path fill="#070707" d="M321.787,195.289c9.373,13.806,13.295,29.722,14.631,46.178c0.646,7.958,0.614,15.968,0.484,23.945
			c-0.112,6.951,0.402,14.443-0.369,21.322c-0.18,1.601,2.322,1.584,2.5,0c0.838-7.473,0.276-15.598,0.399-23.156
			c0.14-8.608-0.036-17.214-0.835-25.79c-1.45-15.558-5.821-30.753-14.652-43.761C323.046,192.702,320.879,193.951,321.787,195.289
			L321.787,195.289z"/>
	</g>
	<path fill="none" stroke="#070707" stroke-width="1.5" stroke-miterlimit="10" d="M366.352,211.769
		c0-64.694-53.47-117.146-119.423-117.146c-65.96,0-119.424,52.452-119.424,117.146c0,64.697,53.464,117.149,119.424,117.149
		C312.882,328.918,366.352,276.466,366.352,211.769z"/>
	<path fill="none" stroke="#070707" stroke-width="1.5" stroke-miterlimit="10" d="M368.786,225.155
		c0-64.689-53.473-117.139-119.427-117.139c-65.96,0-119.424,52.45-119.424,117.139c0,64.706,53.464,117.155,119.424,117.155
		C315.313,342.31,368.786,289.86,368.786,225.155z"/>
	<g>
		<path fill="#070707" d="M175.684,451.719c0.55-1.055,1.519-1.6,2.532-1.608c0.307-0.176,0.603-0.37,0.922-0.52
			c-0.11-0.166-0.181-0.346-0.328-0.506c-36.344-40.419-18.443-96.157-21.012-144.943c-0.008-0.202-0.051-0.374-0.083-0.555
			c-0.803-0.865-1.573-1.801-2.337-2.737c-2.211-0.805-5.108,0.283-4.953,3.292c2.708,51.408-15.05,107.645,23.172,150.152
			c0.048,0.049,0.095,0.08,0.141,0.127c0.336-0.218,0.672-0.438,1.013-0.654c-0.061-0.772,0.17-1.534,0.879-2.013
			C175.649,451.742,175.666,451.732,175.684,451.719z"/>
	</g>
	<g>
		<path fill="#070707" d="M317.075,460.372c-0.813-1.152-1.743-2.209-2.55-3.361c-0.555,0.014-1.136,0.152-1.729,0.486
			c-15.979,8.967-39.928,9.997-57.86,11.767c-19.177,1.896-39.99,1.726-57.091-8.166c-4.122-2.393-7.832,3.978-3.721,6.359
			c18.455,10.683,40.117,10.849,60.812,9.177c19.492-1.569,44.39-3.123,61.582-12.774c0.914-0.513,1.427-1.226,1.655-1.995
			C317.799,461.381,317.437,460.885,317.075,460.372z"/>
	</g>
	<g>
		<path fill="#070707" d="M177.133,453.88c8.2-3.928,13.404,7.337,19.122,11.386c0.146-1.12,0.29-2.245,0.436-3.367
			c-9.676,1.657-17.292,15.132-27.232,13.695c-9.14-1.313-6.082-10.431-1.8-14.632c3.535-3.473,8.082-6.047,12.473-8.284
			c2.122-1.079,0.25-4.258-1.86-3.182c-7.294,3.725-26.085,15.093-16.449,25.312c12.454,13.214,23.593-7.258,35.849-9.356
			c1.733-0.298,1.598-2.549,0.442-3.372c-7.573-5.358-11.943-16.595-22.84-11.385C173.133,451.725,175.003,454.897,177.133,453.88
			L177.133,453.88z"/>
	</g>
	<g>
		<path fill="#070707" d="M167.194,474.478c-1.375-4.823,2.418-8.439,6.35-10.509c2.1-1.103,0.241-4.281-1.861-3.18
			c-5.444,2.859-9.875,8.234-8.042,14.667C164.294,477.742,167.848,476.764,167.194,474.478L167.194,474.478z"/>
	</g>
	<g>
		<path fill="#070707" d="M315.233,462.363c3.645-8.654,13.491-15.078,22.019-9.226c4.493,3.086,7.291,9.037,7.637,14.354
			c0.446,6.808-4.999,8.274-10.635,6.617c-7.146-2.106-11.488-11.463-17.47-15.625c-1.954-1.358-3.794,1.838-1.858,3.184
			c8.54,5.929,13.077,17.761,25.149,16.855c6.773-0.509,9.254-7.302,8.277-13.211c-1.194-7.239-5.711-14.157-12.524-17.2
			c-10.076-4.509-20.409,4.401-24.146,13.275C310.757,463.574,314.326,464.522,315.233,462.363L315.233,462.363z"/>
	</g>
	<g>
		<path fill="#070707" d="M334.329,463.18c3.247,3.375,5.89,7.694,6.053,12.481c0.08,2.368,3.765,2.377,3.685,0
			c-0.196-5.786-3.188-11-7.13-15.087C335.285,458.857,332.681,461.468,334.329,463.18L334.329,463.18z"/>
	</g>
	<g>
		<path fill="#070707" d="M355.408,308.49c5.073-0.283,9.953,0.88,14.21,3.689c3.849,2.539,7.116,8.776,4.675,13.254
			c-1.575,2.875-6.508,1.341-8.789,0.531c-3.389-1.196-6.538-3.449-8.794-6.237c-1.494-1.845-4.084,0.779-2.604,2.607
			c4.475,5.527,18.692,13.523,23.648,4.439c2.733-5.014-0.112-11.774-3.601-15.56c-4.568-4.943-12.259-6.768-18.745-6.412
			C353.048,304.933,353.036,308.62,355.408,308.49L355.408,308.49z"/>
	</g>
	<g>
		<path fill="#070707" d="M366.309,321.608c2.6,0.802,6.559,3.038,4.89,6.284c-1.085,2.11,2.097,3.979,3.185,1.862
			c2.888-5.627-1.98-10.117-7.093-11.701C365.013,317.349,364.048,320.91,366.309,321.608L366.309,321.608z"/>
	</g>
	<g>
		<path fill="#070707" d="M154.665,308.317c-7.636-1.336-15.364,2.12-20.959,7.217c-4.322,3.94-6.085,10.095-0.195,13.36
			c2.081,1.153,3.936-2.027,1.86-3.18c-5.108-2.833,0.89-7.779,3.715-9.759c4.161-2.919,9.476-4.981,14.599-4.087
			C156.006,312.272,157.001,308.723,154.665,308.317L154.665,308.317z"/>
	</g>
	<g>
		<path fill="#070707" d="M138.903,321.425c-2.424,1.136-5.47,3.497-5.476,6.491c-0.007,3.024,2.721,5.115,5.588,5.434
			c2.955,0.318,5.986-1.439,8.418-2.9c2.436-1.464,5.094-3.291,6.889-5.527c1.473-1.832-1.116-4.46-2.605-2.607
			c-2.291,2.85-5.826,4.991-9.082,6.543c-1.754,0.845-3.549,1.283-5.197-0.067c-1.697-1.389,2.44-3.768,3.324-4.18
			C142.914,323.599,141.042,320.42,138.903,321.425L138.903,321.425z"/>
	</g>
	<g>
		<path fill="#070707" d="M336.543,452.08c0.775-0.209,1.512-0.661,2.088-1.454c34.463-47.38,18.754-105.052,18.001-159.066
			c-0.032-2.028-1.39-3.184-2.93-3.479c-0.283,0.354-0.514,0.717-0.818,1.078c-0.881,1.03-2.25,1.356-3.394,1.048
			c-0.145,0.401-0.235,0.839-0.228,1.354c0.732,52.576,16.592,109.17-16.995,155.347c-0.818,1.126-0.837,2.229-0.404,3.143
			C333.458,450.659,335.059,451.267,336.543,452.08z"/>
	</g>
	<path fill="none" stroke="#070707" stroke-width="1.5" stroke-miterlimit="10" d="M270.242,382.324
		c0-8.116-7.393-14.702-16.51-14.702c-9.114,0-16.505,6.586-16.505,14.702c0,8.117,7.391,14.699,16.505,14.699
		C262.85,397.023,270.242,390.441,270.242,382.324z"/>
	<path fill="none" stroke="#070707" stroke-width="1.5" stroke-miterlimit="10" d="M267.677,428.416
		c0-8.114-7.387-14.697-16.506-14.697c-9.114,0-16.505,6.583-16.505,14.697c0,8.13,7.391,14.705,16.505,14.705
		C260.29,443.121,267.677,436.546,267.677,428.416z"/>
	
		<ellipse fill="none" stroke="#070707" stroke-width="1.5" stroke-miterlimit="10" cx="253.392" cy="382.052" rx="8.699" ry="7.306"/>
	
		<ellipse fill="none" stroke="#070707" stroke-width="1.5" stroke-miterlimit="10" cx="250.995" cy="428.719" rx="8.698" ry="7.303"/>
	<g>
		<path fill="#070707" d="M155.698,303.328c1.612,0,1.612-2.5,0-2.5S154.085,303.328,155.698,303.328L155.698,303.328z"/>
	</g>
	<g>
		<path fill="#070707" d="M167.937,444.089c-23.646,3.741-36.844,33.729-15.285,49.234c16.732,12.033,52.093,0.696,50.805-22.572
			c-0.089-1.603-2.589-1.611-2.5,0c1.138,20.575-29.298,30.304-44.786,21.829c-9.813-5.37-14.266-15.901-11.198-26.588
			c3.062-10.666,13.021-17.814,23.628-19.493C170.19,446.248,169.513,443.839,167.937,444.089L167.937,444.089z"/>
	</g>
	<g>
		<path fill="#070707" d="M305.325,467.356c2.008,23.976,30.159,30.782,49.63,23.779c9.608-3.456,17.476-10.919,19.355-21.193
			c3.078-16.829-10.704-31.729-25.969-36.576c-1.541-0.489-2.195,1.925-0.664,2.41c15.03,4.772,27.824,19.605,23.706,35.874
			c-2.343,9.253-10.75,15.13-19.406,17.854c-17.427,5.485-42.384-1.03-44.152-22.147
			C307.691,465.762,305.19,465.749,305.325,467.356L305.325,467.356z"/>
	</g>
	<g>
		<path fill="#070707" d="M153.558,299.008c-1.623-8.271-12.547-3.65-17.229-1.354c-8.531,4.184-17.905,10.769-20.877,20.169
			c-3.13,9.897-0.463,20.367,9.317,24.999c9.5,4.5,21.323,1.896,29.911-3.372c1.371-0.841,0.116-3.004-1.262-2.158
			c-7.482,4.59-16.509,6.606-25.088,4.209c-9.448-2.64-12.856-11.408-11.122-20.454c1.625-8.476,8.025-13.585,14.925-18.103
			c3.193-2.09,17.524-10.867,19.014-3.272C151.457,301.253,153.866,300.582,153.558,299.008L153.558,299.008z"/>
	</g>
	<g>
		<path fill="#070707" d="M354.938,294.667c10.548,0.052,20.208,1.67,28.299,8.974c5.132,4.633,8.436,11.339,10.034,17.976
			c1.62,6.728,0.711,14.455-5.307,18.682c-9.389,6.593-18.943-1.22-28.782-0.618c-1.602,0.098-1.611,2.599,0,2.5
			c6.517-0.398,12.34,3.148,18.797,3.49c4.109,0.217,8.673-1.406,11.993-3.738c5.718-4.015,7.18-11.602,6.22-18.126
			c-1.173-7.97-4.921-15.524-10.533-21.301c-8.211-8.452-19.472-10.283-30.721-10.338
			C353.325,292.159,353.326,294.659,354.938,294.667L354.938,294.667z"/>
	</g>
	<g>
		<path fill="#070707" d="M210.449,337.105c0.042,26.232-2.728,53.251,0.892,79.314c2.788,20.078,9.239,46.692,29.267,56.257
			c1.447,0.691,2.716-1.464,1.262-2.158c-9.561-4.566-14.598-12.181-18.945-21.522c-5.366-11.532-8.18-24.196-9.587-36.78
			c-2.77-24.77-0.349-50.233-0.388-75.11C212.947,335.493,210.447,335.493,210.449,337.105L210.449,337.105z"/>
	</g>
	<g>
		<path fill="#070707" d="M274.662,470.261c6.745-1.65,9.995-10.008,12.328-15.724c3.813-9.34,6.585-19.509,8.514-29.394
			c2.933-15.025,2.964-30.475,2.54-45.716c-0.205-7.409-0.713-14.76-1.264-22.148c-0.563-7.551-1.532-15.667-0.671-23.202
			c0.183-1.601-2.319-1.583-2.5,0c-1.483,12.98,1.268,26.671,1.747,39.678c0.511,13.884,0.683,27.773-0.87,41.602
			c-1.176,10.462-3.932,20.607-7.1,30.618c-2.08,6.573-5.514,19.948-13.389,21.876C272.433,468.233,273.097,470.645,274.662,470.261
			L274.662,470.261z"/>
	</g>
	<g>
		<path fill="#070707" d="M154.062,344.554c17.611,11.703,35.812,21.641,56.3,27.279c1.557,0.429,2.217-1.983,0.665-2.41
			c-20.29-5.584-38.273-15.445-55.703-27.027C153.977,341.5,152.726,343.666,154.062,344.554L154.062,344.554z"/>
	</g>
	<g>
		<path fill="#070707" d="M353.732,340.598c-2.501,10.243-16.312,16.459-24.868,20.818c-10.312,5.252-21.511,8.457-31.856,13.447
			c-1.452,0.7-0.184,2.855,1.262,2.158c5.438-2.622,11.477-4.304,17.053-6.674c6.085-2.586,12.094-5.329,17.95-8.399
			c8.366-4.385,20.425-10.67,22.87-20.687C356.525,339.696,354.114,339.031,353.732,340.598L353.732,340.598z"/>
	</g>
	<g>
		<path fill="#070707" d="M351.51,322.228c-7.73,8.544-17.125,15.097-26.948,21.01c-5.115,3.079-10.415,5.837-15.817,8.374
			c-3,1.409-6.067,2.67-9.156,3.869c-1.256,0.488-2.491,0.365-3.643,1.067c-1.374,0.837-0.119,3,1.262,2.158
			c1.543-0.94,4.235-1.276,5.938-1.957c2.315-0.925,4.592-1.945,6.86-2.979c5.432-2.477,10.678-5.346,15.817-8.375
			c10.024-5.905,19.619-12.741,27.454-21.4C354.356,322.803,352.594,321.029,351.51,322.228L351.51,322.228z"/>
	</g>
	<g>
		<path fill="#070707" d="M154.656,323.995c8.229,8.728,18.951,15.521,29.202,21.608c7.034,4.177,18.594,12.049,27.274,8.815
			c1.497-0.558,0.849-2.975-0.665-2.41c-4.978,1.854-10.586-0.89-14.997-3.029c-4.603-2.232-9.062-4.728-13.431-7.387
			c-9.025-5.496-18.341-11.648-25.616-19.365C155.316,321.053,153.551,322.823,154.656,323.995L154.656,323.995z"/>
	</g>
	<path fill="none" stroke="#070707" stroke-width="1.5" stroke-miterlimit="10" d="M128.339,431.98
		c-4.327-3.907-11.965-2.496-17.059,3.149c-5.098,5.64-5.724,13.383-1.398,17.286c4.327,3.908,11.965,2.499,17.062-3.148
		C132.04,443.627,132.663,435.886,128.339,431.98z"/>
	<path fill="none" stroke="#070707" stroke-width="1.5" stroke-miterlimit="10" d="M398.259,442.486
		c3.865-4.452,2.215-12.213-3.684-17.331c-5.894-5.12-13.81-5.655-17.675-1.204c-3.867,4.452-2.217,12.213,3.677,17.333
		C386.476,446.4,394.389,446.94,398.259,442.486z"/>
	<path fill="none" stroke="#070707" stroke-width="1.5" stroke-miterlimit="10" d="M133.556,394.239
		c0-7.714-9.31-13.965-20.792-13.965c-11.48,0-20.789,6.251-20.789,13.965c0,7.716,9.308,13.968,20.789,13.968
		C124.246,408.207,133.556,401.955,133.556,394.239z"/>
	<path fill="none" stroke="#070707" stroke-width="1.5" stroke-miterlimit="10" d="M243.735,500.425
		c0-7.475-8.171-13.539-18.244-13.539c-10.075,0-18.242,6.064-18.242,13.539c0,7.482,8.167,13.544,18.242,13.544
		C235.564,513.969,243.735,507.907,243.735,500.425z"/>
	<g>
		<path fill="#070707" d="M172.953,444.89c15.495-16.202,47.054,6.151,27.964,22.875c-0.607,0.532,0.28,1.413,0.884,0.885
			c20.278-17.766-13.109-42.024-29.732-24.645C171.512,444.588,172.395,445.473,172.953,444.89L172.953,444.89z"/>
	</g>
	<g>
		<path fill="#070707" d="M307.115,462.797c-10.725-23.472,19.48-37.674,38.175-27.991c0.715,0.37,1.347-0.709,0.631-1.08
			c-19.938-10.326-51.113,5.127-39.886,29.702C306.37,464.16,307.447,463.524,307.115,462.797L307.115,462.797z"/>
	</g>
	<g>
		<path fill="#070707" d="M179.718,451.669c3.518-4.636,9.416-6.49,14.779-3.95c6.137,2.905,5.325,9.627,1.961,14.352
			c-0.469,0.658,0.616,1.281,1.079,0.631c3.798-5.334,4.178-11.996-1.86-15.763c-5.848-3.648-13.156-1.016-17.038,4.1
			C178.151,451.681,179.237,452.302,179.718,451.669L179.718,451.669z"/>
	</g>
	<g>
		<path fill="#070707" d="M316.448,460.256c-4.291-5.635-3.744-12.163,2.466-16.014c5.928-3.675,13.274-1.663,17.764,3.192
			c0.549,0.593,1.431-0.294,0.885-0.885c-5.285-5.715-13.285-7.104-19.986-2.948c-6.494,4.026-6.484,11.669-2.208,17.285
			C315.85,461.519,316.937,460.897,316.448,460.256L316.448,460.256z"/>
	</g>
	<g>
		<path fill="#070707" d="M304.068,355.994c1.071,5.108,1.822,10.255,1.882,15.481c0.009,0.806,1.259,0.807,1.25,0
			c-0.061-5.338-0.833-10.597-1.927-15.813C305.108,354.873,303.903,355.208,304.068,355.994L304.068,355.994z"/>
	</g>
	<g>
		<path fill="#070707" d="M168.608,445.556c-3.174,0.297-6.339,2.768-9.002,4.318c-3.911,2.277-7.167,4.716-9.854,8.385
			c-5.45,7.438-1.96,15.938,4.331,21.363c7.388,6.37,18.103,8.242,27.455,6.45c9.418-1.805,16.061-9.187,19.575-17.699
			c0.308-0.745-0.902-1.066-1.205-0.332c-6.986,16.923-25.502,21.662-41.169,13.261c-7.817-4.192-13.021-12.521-8.708-21.115
			c1.865-3.716,5.363-6.284,8.8-8.407c2.668-1.647,6.541-4.671,9.776-4.974C169.404,446.731,169.411,445.48,168.608,445.556
			L168.608,445.556z"/>
	</g>
	<g>
		<path fill="#070707" d="M308.221,466.776c1.651,3.607,5.946,6.413,9.035,8.754c4.804,3.642,10.316,6.198,16.152,7.639
			c8.706,2.149,20.162-0.144,25.653-7.828c9.524-13.327-0.607-32.595-13.141-39.919c-0.697-0.407-1.326,0.674-0.631,1.08
			c11.526,6.735,20.802,23.561,13.862,36.456c-4.724,8.779-16.56,10.748-25.412,9.005c-4.743-0.933-9.146-3.165-13.217-5.695
			c-3.62-2.252-9.35-6.03-11.223-10.122C308.965,465.413,307.888,466.049,308.221,466.776L308.221,466.776z"/>
	</g>
	<g>
		<path fill="#070707" d="M129.645,304.002c-6.171,7.248-8.565,18.943-4.354,27.794c2.042,4.293,4.934,7.166,9.353,8.925
			c5.687,2.264,11.197-0.588,16.795-0.864c0.802-0.04,0.806-1.29,0-1.25c-2.717,0.134-5.551,1.179-8.289,1.5
			c-6.318,0.74-11.854-1.145-15.499-6.487c-5.724-8.389-3.351-21.418,2.877-28.732C131.048,304.276,130.168,303.388,129.645,304.002
			L129.645,304.002z"/>
	</g>
	<g>
		<path fill="#070707" d="M361.726,340.706c12.356,0.13,23.24-7.89,24.854-20.556c1.641-12.874-6.225-23.583-18.748-26.491
			c-0.784-0.183-1.117,1.022-0.332,1.205c11.705,2.719,19.05,12.369,17.94,24.42c-1.139,12.374-11.769,20.297-23.715,20.172
			C360.919,339.447,360.92,340.697,361.726,340.706L361.726,340.706z"/>
	</g>
	<path fill="none" stroke="#070707" stroke-width="1.5" stroke-miterlimit="10" d="M420.166,393.243
		c0-7.713-9.31-13.962-20.79-13.962c-11.481,0-20.789,6.249-20.789,13.962c0,7.717,9.308,13.968,20.789,13.968
		C410.856,407.211,420.166,400.96,420.166,393.243z"/>
	<path fill="none" stroke="#070707" stroke-width="1.5" stroke-miterlimit="10" d="M306.766,500.488
		c0-7.478-8.167-13.539-18.244-13.539c-10.071,0-18.239,6.062-18.239,13.539c0,7.479,8.168,13.544,18.239,13.544
		C298.599,514.032,306.766,507.968,306.766,500.488z"/>
	<path fill="none" stroke="#070707" stroke-width="1.5" stroke-miterlimit="10" d="M322.047,220.721
		c0-53.462-42.87-96.794-95.743-96.794c-52.881,0-95.742,43.332-95.742,96.794s42.861,96.796,95.742,96.796
		C279.177,317.517,322.047,274.183,322.047,220.721z"/>
	<path fill="none" stroke="#070707" stroke-width="1.5" stroke-miterlimit="10" d="M216.656,258.029
		c0-8.044-7.957-14.562-17.769-14.562c-9.817,0-17.771,6.517-17.771,14.562s7.954,14.569,17.771,14.569
		C208.699,272.598,216.656,266.073,216.656,258.029z"/>
	<g>
		<path fill="#070707" d="M183.436,111.72c-9.714-7.586,4.361-15.941,10.495-18.874c8.216-3.928,17.363-6.185,26.192-8.238
			c16.111-3.747,32.454-5.204,48.973-4.216c15.594,0.933,30.961,4.758,44.758,12.163c6.851,3.676,13.514,8.36,18.68,14.199
			c6.336,7.161,5.997,15.528,0.639,23.122c-0.466,0.66,0.619,1.284,1.08,0.631c3.943-5.588,6.156-12.386,2.921-18.901
			c-3.635-7.319-10.386-12.325-17.039-16.749c-15.556-10.342-34.244-14.709-52.674-15.812c-20.634-1.234-41.103,1.954-60.85,7.833
			c-8.291,2.468-17.09,5.567-23.689,11.357c-4.385,3.848-5.22,10.581-0.369,14.369C183.179,113.093,184.07,112.215,183.436,111.72
			L183.436,111.72z"/>
	</g>
	<g>
		<path fill="#070707" d="M270.979,67.709c7.736-1.286,17.528-0.542,25.048,1.439c6.248,1.646,17.489,10.94,9.857,17.573
			c-0.609,0.53,0.279,1.41,0.885,0.884c5.811-5.051,1.388-12.812-3.845-16.527c-3.961-2.812-8.626-3.824-13.376-4.41
			c-5.948-0.733-12.968-1.15-18.901-0.164C269.853,66.636,270.19,67.841,270.979,67.709L270.979,67.709z"/>
	</g>
	<g>
		<path fill="#070707" d="M203.894,87.561c-7.932-11.785,28.924-16.417,35.441-17.807c0.788-0.168,0.454-1.373-0.332-1.205
			c-7.079,1.51-45.624,5.624-36.188,19.643C203.262,88.856,204.345,88.231,203.894,87.561L203.894,87.561z"/>
	</g>
	<polygon fill="none" stroke="#070707" stroke-miterlimit="10" points="252.214,23.97 261.503,40.238 280.189,41.77 267.616,55.683 
		271.892,73.917 254.801,66.227 238.783,75.944 240.797,57.327 226.617,45.049 244.979,41.249 	"/>
	<polygon fill="none" stroke="#070707" stroke-miterlimit="10" points="250.79,37.842 255.798,46.793 265.845,47.651 
		259.094,55.294 261.408,65.329 252.214,61.084 243.605,66.417 244.679,56.179 237.046,49.415 246.914,47.34 	"/>
	<g>
		<path fill="#070707" d="M191.544,92.912c-2.524,2.294-4.035,5.667-3.687,9.104c0.293,2.892,2.907,4.301,5.435,4.942
			c0.782,0.198,1.113-1.007,0.332-1.205c-2.395-0.607-4.311-1.708-4.583-4.388c-0.286-2.818,1.383-5.748,3.386-7.569
			C193.026,93.252,192.139,92.371,191.544,92.912L191.544,92.912z"/>
	</g>
	<g>
		<path fill="#070707" d="M203.526,88.024c-4.266,3.837-4.576,11.036,0.779,14.019c0.705,0.393,1.335-0.687,0.631-1.079
			c-4.686-2.61-4.184-8.765-0.526-12.056C205.01,88.368,204.123,87.487,203.526,88.024L203.526,88.024z"/>
	</g>
	<g>
		<path fill="#070707" d="M227.775,82.058c-3.335,1.455-5.628,4.806-5.149,8.506c0.411,3.176,3.747,4.69,6.481,5.355
			c0.783,0.19,1.115-1.015,0.332-1.205c-2.604-0.633-5.264-1.838-5.648-4.81c-0.388-3,2.088-5.664,4.616-6.767
			C229.144,82.815,228.506,81.739,227.775,82.058L227.775,82.058z"/>
	</g>
	<g>
		<path fill="#070707" d="M268.346,80.591c6.3,2.139,11.77,11.917,3.259,15.094c-0.748,0.279-0.425,1.488,0.332,1.205
			c9.668-3.608,4.371-14.914-3.259-17.504C267.912,79.126,267.587,80.334,268.346,80.591L268.346,80.591z"/>
	</g>
	<g>
		<path fill="#070707" d="M304.469,88.4c2.582,2.778,4.396,5.132,4.889,9.028c0.513,4.043-1.576,9.084-5.839,10.125
			c-0.783,0.191-0.451,1.396,0.332,1.205c4.069-0.993,6.138-4.904,6.72-8.752c0.771-5.098-1.954-8.978-5.217-12.489
			C304.804,86.924,303.921,87.811,304.469,88.4L304.469,88.4z"/>
	</g>
	<g>
		<path fill="#070707" d="M320.783,97.094c3.423,5.501,4.199,17.566-4.677,17.968c-0.803,0.037-0.807,1.287,0,1.25
			c9.878-0.448,9.736-13.451,5.757-19.849C321.438,95.78,320.356,96.407,320.783,97.094L320.783,97.094z"/>
	</g>
	<g>
		<path fill="#070707" d="M334.235,108.975c1.142,5.308-2.611,12.377-7.862,14.092c-0.763,0.249-0.437,1.456,0.332,1.205
			c5.94-1.939,10.03-9.61,8.735-15.629C335.271,107.854,334.066,108.189,334.235,108.975L334.235,108.975z"/>
	</g>
	<g>
		<path fill="#070707" d="M251.562,345.315c0.806,0,0.806-1.25,0-1.25C250.755,344.065,250.755,345.315,251.562,345.315
			L251.562,345.315z"/>
	</g>
	<g>
		<path fill="#070707" d="M250.978,342.908c-0.194,3.446,0.61,6.918,0.772,10.368c0.222,4.745,0.153,9.491,0.49,14.233
			c0.057,0.799,1.308,0.805,1.25,0c-0.3-4.223-0.337-8.449-0.438-12.68c-0.094-3.924-1.043-8.039-0.824-11.922
			C252.272,342.103,251.022,342.106,250.978,342.908L250.978,342.908z"/>
	</g>
	<g>
		<path fill="#070707" d="M253.566,397.666c1.183,5.325,0.672,10.73,0.629,16.133c-0.007,0.807,1.243,0.806,1.25,0
			c0.044-5.519,0.533-11.029-0.674-16.465C254.597,396.547,253.392,396.881,253.566,397.666L253.566,397.666z"/>
	</g>
	<g>
		<path fill="#070707" d="M254.87,443.957c1.843,8.595-0.711,17.623,1.958,26.078c0.241,0.766,1.448,0.438,1.205-0.332
			c-2.662-8.433-0.116-17.488-1.958-26.078C255.906,442.837,254.701,443.171,254.87,443.957L254.87,443.957z"/>
	</g>
	<g>
		<path fill="#070707" d="M248.46,265.807c0.257,0.773,0.523,1.542,0.88,2.275c0.352,0.725,1.43,0.091,1.079-0.631
			c-0.309-0.636-0.531-1.307-0.754-1.977C249.412,264.714,248.204,265.041,248.46,265.807L248.46,265.807z"/>
	</g>
	<g>
		<path fill="#070707" d="M351.7,291.337c-0.132-0.264-0.163-1.184-0.201-1.418c-0.804,0.222-1.606,0.442-2.41,0.664
			c0.054,0.191,0.108,0.382,0.163,0.572c0.362,1.273,1.98,1.104,2.41,0c0.557-1.43,0.882-2.646,1.755-3.953
			c0.917-1.372,1.538-3.146,2.007-4.715c-0.762,0.1-1.522,0.199-2.284,0.299c1.5,3.134,1.142,6.956,0.974,10.326
			c0.818-0.11,1.637-0.222,2.455-0.332c-0.812-2.387,0.2-5.08-1.711-7.093c-0.541-0.57-1.589-0.449-1.963,0.253
			c-0.902,1.692-0.601,3.614-1.391,5.314c0.776,0.21,1.553,0.421,2.329,0.631c0.047-1.588,0.7-3.071,0.818-4.66
			c0.081-1.083-1.425-1.663-2.134-0.884c-0.997,1.096-1.568,2.403-1.957,3.822c-0.312,1.138,1.264,2.221,2.089,1.216
			c0.222-0.27,0.423-0.526,0.604-0.825c0.841-1.381-1.321-2.637-2.158-1.262c-0.071,0.106-0.143,0.213-0.214,0.319
			c0.696,0.405,1.393,0.811,2.089,1.216c0.273-0.995,0.608-1.942,1.314-2.719c-0.711-0.295-1.423-0.589-2.134-0.884
			c-0.118,1.591-0.771,3.053-0.818,4.66c-0.035,1.191,1.796,1.778,2.329,0.631c0.789-1.698,0.522-3.685,1.391-5.314
			c-0.654,0.084-1.309,0.169-1.963,0.253c1.298,1.367,0.477,4.25,1.068,5.989c0.457,1.343,2.384,1.099,2.455-0.332
			c0.193-3.884,0.406-7.991-1.315-11.588c-0.489-1.022-1.996-0.666-2.284,0.299c-0.492,1.646-1.177,3.251-2.133,4.683
			c-0.886,1.325-1.072,2.555-1.629,3.985c0.804,0,1.606,0,2.41,0c-0.054-0.191-0.108-0.382-0.163-0.572
			c-0.451-1.583-2.662-0.894-2.41,0.664c0.134,0.832,0.095,1.301,0.453,2.016C350.265,294.04,352.421,292.773,351.7,291.337
			L351.7,291.337z"/>
	</g>
	<g>
		<path fill="#070707" d="M314.29,351.088c0.907,2.209,0.813,4.554,1.226,6.868c0.546,3.07,0.689,6.221,1.041,9.319
			c0.09,0.791,1.341,0.8,1.25,0c-0.317-2.804-0.383-5.699-0.876-8.474c-0.476-2.67-0.393-5.508-1.436-8.046
			C315.193,350.021,313.983,350.342,314.29,351.088L314.29,351.088z"/>
	</g>
	<g>
		<path fill="#070707" d="M327.127,343.892c2.156,5.613,1.729,11.707,3.107,17.499c0.187,0.784,1.392,0.451,1.205-0.332
			c-1.379-5.799-0.947-11.875-3.107-17.499C328.046,342.815,326.837,343.138,327.127,343.892L327.127,343.892z"/>
	</g>
	<g>
		<path fill="#070707" d="M340.047,334.652c2.303,6.15,1.741,13.202,2.616,19.624c0.108,0.796,1.312,0.456,1.205-0.332
			c-0.874-6.418-0.312-13.47-2.616-19.624C340.973,333.572,339.764,333.896,340.047,334.652L340.047,334.652z"/>
	</g>
	<g>
		<path fill="#070707" d="M202.296,354.165c0.806,0,0.806-1.25,0-1.25S201.49,354.165,202.296,354.165L202.296,354.165z"/>
	</g>
	<g>
		<path fill="#070707" d="M201.285,353.706c0.327,2.079-0.061,4.038-0.323,6.1c-0.292,2.294-0.256,4.631-0.74,6.897
			c-0.168,0.786,1.037,1.12,1.205,0.332c0.45-2.105,0.459-4.245,0.677-6.381c0.251-2.473,0.778-4.789,0.386-7.28
			C202.365,352.579,201.161,352.918,201.285,353.706L201.285,353.706z"/>
	</g>
	<g>
		<path fill="#070707" d="M191.45,349.207c0.082,2.298-0.569,4.968-0.903,7.258c-0.285,1.952-0.27,4.142-0.956,5.986
			c-0.282,0.757,0.927,1.081,1.205,0.332c0.697-1.873,0.633-4.031,0.956-5.986c0.406-2.457,1.036-5.099,0.947-7.59
			C192.672,348.403,191.421,348.4,191.45,349.207L191.45,349.207z"/>
	</g>
	<g>
		<path fill="#070707" d="M180.761,343.322c0.408,2.237-0.342,4.494-0.839,6.659c-0.526,2.296-0.58,4.681-1.042,6.991
			c-0.157,0.787,1.047,1.122,1.205,0.332c0.513-2.565,0.628-5.188,1.213-7.739c0.501-2.184,1.076-4.332,0.667-6.575
			C181.821,342.198,180.617,342.534,180.761,343.322L180.761,343.322z"/>
	</g>
	<g>
		<path fill="#070707" d="M170.681,336.941c-0.033,2.799-0.736,5.497-1.122,8.256c-0.292,2.083-0.004,4.161-0.572,6.215
			c-0.215,0.778,0.991,1.108,1.205,0.332c0.657-2.373,0.379-4.837,0.719-7.261c0.356-2.542,0.99-4.959,1.021-7.542
			C171.94,336.135,170.69,336.136,170.681,336.941L170.681,336.941z"/>
	</g>
	<g>
		<path fill="#070707" d="M160.214,328.929c0.198,2.612-0.503,5.437-0.775,8.046c-0.298,2.85-0.517,5.692-0.696,8.553
			c-0.05,0.806,1.2,0.801,1.25,0c0.179-2.86,0.419-5.701,0.696-8.553c0.259-2.665,0.979-5.364,0.775-8.046
			C161.404,328.13,160.153,328.124,160.214,328.929L160.214,328.929z"/>
	</g>
	<g>
		<path fill="#070707" d="M154.139,303.247c0.313-1.135,0.552-2.226,0.464-3.408c-0.059-0.796-1.238-0.814-1.25,0
			c-0.02,1.377-0.129,2.75-0.147,4.127c0.417,0,0.833,0,1.25,0c-0.225-1.679,0.07-3.369-0.317-5.03
			c-0.171-0.734-1.161-0.494-1.228,0.166c-0.14,1.377-0.29,2.752-0.442,4.127c0.417,0,0.833,0,1.25,0
			c0.03-1.847,0.207-3.647-0.17-5.472c-0.125-0.604-1.074-0.594-1.205,0c-0.411,1.856-0.462,3.724-0.464,5.619
			c0.409-0.056,0.818-0.11,1.228-0.166c-0.347-1.334-0.136-2.617,0.147-3.942c0.168-0.783-0.991-1.114-1.205-0.332
			c-0.398,1.455-0.607,2.941-0.885,4.422c0.409,0.056,0.818,0.11,1.228,0.166c0.067-1.599,0.528-3.136,0.737-4.717
			c0.082-0.616-0.906-0.854-1.165-0.315c-0.747,1.558-0.819,3.181-0.823,4.885c-0.001,0.807,1.239,0.806,1.25,0
			c0.02-1.48,0.148-2.949,0.295-4.422c0.074-0.744-1.004-0.787-1.228-0.166c-0.626,1.74-0.719,3.524-0.442,5.344
			c0.402-0.11,0.803-0.222,1.205-0.332c-0.325-1.262-0.125-2.399,0.147-3.647c-0.409-0.056-0.818-0.11-1.228-0.166
			c-0.042,1.436-0.282,2.849-0.442,4.274c0.417,0,0.833,0,1.25,0c0.012-1.623,0.129-3.242,0.147-4.864
			c0.009-0.808-1.227-0.804-1.25,0c-0.042,1.436-0.282,2.85-0.442,4.274c0.417,0,0.833,0,1.25,0
			c0.142-2.058,0.133-4.438,1.156-6.286c0.932-1.684,2.662,1.164,2.986,1.964c0.727,1.794,0.566,3.899,0.651,5.796
			c0.036,0.804,1.227,0.808,1.25,0c0.044-1.535,0.402-3.08-0.022-4.588c-0.191-0.681-1.227-0.543-1.228,0.166
			c-0.001,1.185-0.023,2.359-0.147,3.538c-0.084,0.802,1.167,0.793,1.25,0c0.124-1.179,0.146-2.354,0.147-3.538
			c-0.409,0.056-0.818,0.11-1.228,0.166c0.387,1.374,0.018,2.854-0.022,4.256c0.417,0,0.833,0,1.25,0
			c-0.109-2.433-0.026-4.871-1.131-7.107c-0.604-1.225-2.231-2.929-3.76-2.294c-2.435,1.014-2.255,5.792-2.402,7.928
			c-0.056,0.815,1.162,0.783,1.25,0c0.16-1.426,0.401-2.838,0.442-4.274c-0.417,0-0.833,0-1.25,0
			c-0.018,1.622-0.135,3.241-0.147,4.864c-0.006,0.824,1.162,0.781,1.25,0c0.16-1.426,0.4-2.839,0.442-4.274
			c0.021-0.7-1.076-0.859-1.228-0.166c-0.322,1.473-0.529,2.831-0.147,4.312c0.206,0.799,1.323,0.443,1.205-0.332
			c-0.243-1.596-0.104-3.161,0.442-4.68c-0.409-0.056-0.818-0.11-1.228-0.166c-0.146,1.473-0.275,2.941-0.295,4.422
			c0.417,0,0.833,0,1.25,0c0.003-1.457,0.008-2.911,0.652-4.254c-0.388-0.105-0.776-0.21-1.165-0.315
			c-0.21,1.588-0.669,3.109-0.737,4.717c-0.029,0.698,1.097,0.863,1.228,0.166c0.278-1.48,0.487-2.967,0.885-4.422
			c-0.402-0.11-0.803-0.222-1.205-0.332c-0.332,1.549-0.552,3.052-0.147,4.606c0.179,0.688,1.227,0.538,1.228-0.166
			c0.002-1.783,0.032-3.537,0.419-5.287c-0.402,0-0.803,0-1.205,0c0.352,1.709,0.153,3.412,0.125,5.14
			c-0.013,0.823,1.163,0.781,1.25,0c0.153-1.375,0.303-2.75,0.442-4.127c-0.409,0.056-0.818,0.11-1.228,0.166
			c0.359,1.544,0.062,3.135,0.272,4.698c0.104,0.772,1.239,0.832,1.25,0c0.018-1.377,0.128-2.75,0.147-4.127
			c-0.417,0-0.833,0-1.25,0c0.079,1.067-0.137,2.052-0.419,3.076C152.719,303.693,153.925,304.023,154.139,303.247L154.139,303.247z
			"/>
	</g>
	<g>
		<path fill="#070707" d="M157.074,305.439c1.205-1.503,0.282-5.198-0.64-6.653c-0.328-0.517-1.165-0.322-1.165,0.315
			c0,1.032,0,2.063,0,3.096c0,0.808,1.227,0.804,1.25,0c0.053-1.797-0.428-3.46-0.907-5.178c-0.195-0.699-1.19-0.526-1.228,0.166
			c-0.087,1.592,0.121,3.139,0.295,4.717c0.087,0.788,1.324,0.808,1.25,0c-0.181-1.96-0.475-3.867-1.412-5.622
			c-0.311-0.582-1.127-0.271-1.165,0.315c-0.1,1.558,0.167,3.064,0.465,4.588c0.146,0.749,1.153,0.479,1.228-0.166
			c0.213-1.858-0.329-3.515-1.117-5.179c-0.232-0.49-1.027-0.355-1.142,0.149c-0.335,1.472-0.301,2.984,0,4.459
			c0.144,0.703,1.23,0.526,1.228-0.166c-0.004-1.209-0.05-2.376-0.317-3.557c-0.113-0.499-0.917-0.646-1.142-0.149
			c-0.45,0.993-0.517,1.881-0.38,2.969c0.067,0.536,0.875,0.953,1.165,0.315c0.583-1.284,0.886-2.454,0.147-3.727
			c-0.241-0.414-0.834-0.395-1.079,0c-0.461,0.742-0.62,1.353-0.527,2.232c0.062,0.586,0.828,0.895,1.165,0.315
			c0.599-1.029,0.637-1.841,0.357-2.987c-0.149-0.613-1.04-0.582-1.205,0c-0.098,0.344-0.196,0.688-0.294,1.031
			c0.402,0.11,0.803,0.222,1.205,0.332c0.114-0.606,0.164-1.167,0.17-1.787c0.008-0.812-1.198-0.797-1.25,0
			c-0.039,0.592-0.109,1.177-0.147,1.769c0.417,0,0.833,0,1.25,0c0.038-0.738,0.109-1.473,0.147-2.211
			c0.036-0.697-1.105-0.863-1.228-0.166c-0.3,1.714-0.186,3.447-0.17,5.178c0.007,0.806,1.257,0.807,1.25,0
			c-0.015-1.609-0.154-3.251,0.125-4.846c-0.409-0.056-0.818-0.11-1.228-0.166c-0.038,0.738-0.109,1.473-0.147,2.211
			c-0.042,0.808,1.198,0.799,1.25,0c0.039-0.592,0.109-1.177,0.147-1.769c-0.417,0-0.833,0-1.25,0
			c0.018,0.489-0.024,0.975-0.125,1.455c-0.147,0.782,0.981,1.116,1.205,0.332c0.099-0.344,0.197-0.688,0.294-1.031
			c-0.402,0-0.803,0-1.205,0c-0.077,0.675-0.154,1.35-0.231,2.024c0.388,0.105,0.776,0.21,1.165,0.315
			c-0.14-0.568-0.021-1.102,0.356-1.602c-0.36,0-0.719,0-1.079,0c0.36,0.875,0.311,1.696-0.147,2.465
			c0.388,0.105,0.776,0.21,1.165,0.315c-0.104-0.833-0.165-1.51,0.209-2.338c-0.381-0.05-0.761-0.1-1.142-0.149
			c0.245,1.083,0.269,2.123,0.272,3.225c0.409-0.056,0.818-0.11,1.228-0.166c-0.255-1.249-0.284-2.549,0-3.795
			c-0.381,0.05-0.761,0.1-1.142,0.149c0.697,1.472,1.135,2.907,0.946,4.548c0.409-0.056,0.818-0.11,1.228-0.166
			c-0.277-1.417-0.512-2.81-0.42-4.256c-0.388,0.105-0.776,0.21-1.165,0.315c0.833,1.56,1.081,3.251,1.241,4.991
			c0.417,0,0.833,0,1.25,0c-0.174-1.578-0.382-3.125-0.295-4.717c-0.409,0.056-0.818,0.11-1.228,0.166
			c0.448,1.607,0.912,3.157,0.862,4.846c0.417,0,0.833,0,1.25,0c0-1.032,0-2.063,0-3.096c-0.388,0.105-0.776,0.21-1.165,0.315
			c0.566,0.895,1.598,4.187,0.835,5.138C155.691,305.178,156.569,306.067,157.074,305.439L157.074,305.439z"/>
	</g>
	<g>
		<path fill="#070707" d="M162.562,291.732c0-0.54,0-1.081,0-1.621c-0.417,0-0.833,0-1.25,0c0.001,0.956,0.037,1.897,0.317,2.818
			c0.204,0.67,1.228,0.551,1.228-0.166c0-0.848-0.021-1.688-0.17-2.524c-0.125-0.707-1.234-0.524-1.228,0.166
			c0.011,1.099,0.134,2.21,0.465,3.262c0.206,0.657,1.252,0.56,1.228-0.166c-0.039-1.158-0.45-2.268-0.612-3.409
			c-0.402,0.11-0.803,0.222-1.205,0.332c0.154,0.991,0.435,1.957,0.59,2.948c0.402-0.11,0.803-0.222,1.205-0.332
			c-0.138-0.69-0.276-1.38-0.442-2.063c-0.165-0.678-1.276-0.544-1.228,0.166c0.027,0.396,0.128,0.781,0.147,1.179
			c0.04,0.802,1.29,0.806,1.25,0c-0.02-0.398-0.12-0.783-0.147-1.179c-0.409,0.056-0.818,0.11-1.228,0.166
			c0.167,0.684,0.304,1.374,0.442,2.063c0.16,0.801,1.327,0.447,1.205-0.332c-0.154-0.991-0.435-1.957-0.59-2.948
			c-0.125-0.799-1.316-0.452-1.205,0.332c0.146,1.028,0.533,2.037,0.567,3.077c0.409-0.056,0.818-0.11,1.228-0.166
			c-0.299-0.952-0.41-1.935-0.42-2.93c-0.409,0.056-0.818,0.11-1.228,0.166c0.128,0.724,0.125,1.46,0.125,2.192
			c0.409-0.056,0.818-0.11,1.228-0.166c-0.249-0.818-0.271-1.638-0.272-2.486c-0.001-0.806-1.25-0.806-1.25,0
			c0,0.54,0,1.081,0,1.621C161.312,292.538,162.562,292.538,162.562,291.732L162.562,291.732z"/>
	</g>
	<g>
		<path fill="#070707" d="M337.467,285.229c-0.151,0.834-0.398,1.619-0.822,2.356c0.381,0.16,0.762,0.321,1.143,0.481
			c0.161-0.409,0.428-0.767,0.59-1.18c-0.401-0.11-0.804-0.222-1.205-0.332c-0.161,0.425-0.425,0.802-0.675,1.178
			c-0.39,0.587,0.528,1.306,0.982,0.758c0.157-0.19,0.285-0.401,0.442-0.59c-0.328-0.253-0.655-0.506-0.982-0.758
			c-0.234,0.444-0.465,0.842-0.527,1.347c-0.095,0.759,0.988,0.76,1.228,0.166c0.313-0.776,0.666-1.549,0.885-2.358
			c0.211-0.779-0.995-1.109-1.205-0.332c-0.219,0.81-0.572,1.582-0.885,2.358c0.409,0.056,0.818,0.11,1.228,0.166
			c0.03-0.24,0.246-0.505,0.357-0.716c0.316-0.602-0.511-1.327-0.982-0.758c-0.156,0.19-0.285,0.401-0.442,0.59
			c0.327,0.253,0.655,0.506,0.982,0.758c0.314-0.474,0.598-0.942,0.8-1.477c0.287-0.758-0.915-1.07-1.205-0.332
			c-0.161,0.409-0.428,0.767-0.59,1.18c-0.265,0.672,0.798,1.081,1.143,0.481c0.475-0.826,0.778-1.719,0.947-2.655
			C338.814,284.772,337.61,284.436,337.467,285.229L337.467,285.229z"/>
	</g>
</g>
</svg>
