<?xml version="1.0" encoding="utf-8"?>
<!-- Generator: Adobe Illustrator 16.0.0, SVG Export Plug-In . SVG Version: 6.00 Build 0)  -->
<!DOCTYPE svg PUBLIC "-//W3C//DTD SVG 1.1//EN" "http://www.w3.org/Graphics/SVG/1.1/DTD/svg11.dtd">
<svg version="1.1" id="Layer_1" xmlns="http://www.w3.org/2000/svg" xmlns:xlink="http://www.w3.org/1999/xlink" x="0px" y="0px"
	 width="500px" height="550px" viewBox="0 0 500 550" enable-background="new 0 0 500 550" xml:space="preserve">
<g>
	<g>
		<path fill="#070707" d="M309.303,130.794c-10.826-19.746-30.619-32.072-51.958-37.796c-26.374-7.075-54.323-0.916-80.932,1.606
			c-24.281,2.301-45.782,16.067-59.363,36.059c-11.867,17.468-16.309,38.87-17.866,59.602c-2.905,38.667,4.302,77.305,3.026,116.02
			c-0.807,24.495-5.456,49.459-1.899,73.888c2.929,20.115,12.655,38.335,26.473,53.062c1.105,1.178,2.87-0.594,1.768-1.768
			c-9.589-10.221-17.024-21.908-21.701-35.144c-4.878-13.807-5.677-28.306-5.099-42.813c0.654-16.426,2.482-32.772,3.024-49.213
			c0.48-14.574,0.04-29.091-0.985-43.629c-3.011-42.692-9.349-92.284,16.14-129.804c9.956-14.656,24.839-25.439,41.684-30.747
			c9.705-3.058,19.919-3.424,29.968-4.462c10.891-1.125,21.766-2.387,32.683-3.246c31.534-2.483,67.131,10.922,82.88,39.647
			C307.919,133.47,310.078,132.208,309.303,130.794L309.303,130.794z"/>
	</g>
	<g>
		<path fill="#070707" d="M149.102,447.473c4.989,3.072,10.339,5.325,15.955,6.972c1.551,0.455,2.208-1.958,0.665-2.41
			c-5.416-1.588-10.548-3.758-15.358-6.72C148.986,444.467,147.732,446.63,149.102,447.473L149.102,447.473z"/>
	</g>
	<g>
		<path fill="#070707" d="M175.149,97.232c1.612,0,1.612-2.5,0-2.5S173.537,97.232,175.149,97.232L175.149,97.232z"/>
	</g>
	<g>
		<path fill="#070707" d="M104.159,159.79c-5.37,1.833-13.342-4.855-16.617-8.515c-5.823-6.508-5.662-16.198-1.815-23.546
			c3.414-6.521,10.006-10.992,16.857-13.197c3.761-1.209,7.641-1.184,11.54-1.1c5.826,0.126,8.938,2.405,13.47,5.377
			c1.353,0.887,2.604-1.278,1.262-2.158c-3.589-2.354-6.471-4.887-10.903-5.39c-5.414-0.615-10.763-0.574-16.033,0.861
			c-8.529,2.323-15.857,8.725-19.508,16.706c-3.71,8.111-1.971,17.33,3.363,24.215c3.554,4.587,12.948,11.241,19.05,9.159
			C106.34,161.683,105.689,159.268,104.159,159.79L104.159,159.79z"/>
	</g>
	<g>
		<path fill="#070707" d="M293.579,113.111c12.223-6.273,31.05-9.294,39.908,3.744c8.951,13.173,3.423,34.542-13.453,37.438
			c-1.587,0.272-0.912,2.682,0.664,2.411c18.143-3.114,23.267-24.07,16.233-38.859c-8.053-16.931-30.747-14.01-44.614-6.892
			C290.883,111.689,292.147,113.846,293.579,113.111L293.579,113.111z"/>
	</g>
	<g>
		<path fill="#070707" d="M197.38,179.504c0.341-0.051,0.683-0.103,1.024-0.154c-0.105-0.388-0.21-0.776-0.315-1.165
			c-1.314,0.696-2.783,0.598-4.071,1.375c-2.314,1.395-4.43,3.111-6.411,4.94c-2.726,2.518-6.508,7.035-5.372,11.118
			c1.325,4.76,6.469,7.067,10.994,7.751c7.393,1.117,14.681-3.432,21.993-3.82c8.817-0.468,23.072,9.656,25.975-4.655
			c2.026-9.996-11.867-15.927-19.077-18.599c-0.757-0.281-1.081,0.928-0.332,1.205c7.139,2.646,18.036,7.212,18.275,16.158
			c0.368,13.782-17.765,4.855-24.841,4.641c-4.454-0.135-9.001,1.718-13.231,2.849c-5.879,1.572-17.624,1.797-18.634-6.569
			c-0.514-4.257,4.024-8.288,6.876-10.751c2.778-2.4,5.461-2.959,8.485-4.562c0.542-0.288,0.303-1.194-0.315-1.165
			c-0.481,0.023-0.849,0.107-1.356,0.199C196.256,178.442,196.593,179.647,197.38,179.504L197.38,179.504z"/>
	</g>
	<g>
		<path fill="#070707" d="M225.365,201.807c1.521,3.842,1.917,8.094,1.78,12.194c-0.087,2.617-0.617,5.485-2.422,7.484
			c-3.316,3.672-11.833,1.338-10.857-4.299c0.137-0.788-1.068-1.125-1.205-0.332c-1.253,7.239,8.3,9.396,12.946,5.515
			c5.018-4.192,3.001-15.75,0.963-20.894C226.277,200.734,225.068,201.057,225.365,201.807L225.365,201.807z"/>
	</g>
	<g>
		<path fill="#070707" d="M127.982,433.561c10.262-5.168,15.689,7.829,22.773,12.704c0.05-0.381,0.1-0.762,0.149-1.143
			c-5.432,0.841-9.878,4.325-14.152,7.552c-5.2,3.925-11.945,10.016-18.907,7.069c-9.124-3.86-6.282-12.644-0.823-17.974
			c4.08-3.983,9.242-6.986,14.302-9.55c0.719-0.365,0.086-1.443-0.631-1.08c-7.284,3.691-27.471,15.279-18.193,25.834
			c12.65,14.393,25.989-8.672,38.737-10.646c0.586-0.091,0.542-0.872,0.149-1.143c-7.707-5.304-12.897-18.312-24.035-12.704
			C126.631,432.844,127.265,433.922,127.982,433.561L127.982,433.561z"/>
	</g>
	<g>
		<path fill="#070707" d="M116.232,458.159c-1.717-6.028,2.762-10.722,7.738-13.339c0.714-0.376,0.082-1.454-0.631-1.08
			c-5.498,2.892-10.18,8.193-8.312,14.751C115.247,459.266,116.453,458.936,116.232,458.159L116.232,458.159z"/>
	</g>
	<g>
		<path fill="#070707" d="M325.858,271.676c4.735-0.305,8.769-0.412,13.348,1.168c6.072,2.095,10.866,7.142,11.569,13.62
			c0.983,9.077-7.941,8.917-14.035,6.274c-4.299-1.865-6.859-5.791-10.776-8.155c-0.692-0.417-1.319,0.664-0.631,1.08
			c5.999,3.621,9.603,9.58,17.336,10.15c4.977,0.367,8.425-1.725,9.288-6.792c0.876-5.146-1.996-10.702-6.022-13.772
			c-6.213-4.736-12.561-5.307-20.076-4.824C325.059,270.477,325.053,271.728,325.858,271.676L325.858,271.676z"/>
	</g>
	<g>
		<path fill="#070707" d="M340.155,285.832c3.885,1.201,8.673,4.513,6.314,9.115c-0.366,0.716,0.712,1.349,1.08,0.631
			c2.756-5.381-2.306-9.48-7.062-10.951C339.715,284.388,339.388,285.595,340.155,285.832L340.155,285.832z"/>
	</g>
	<circle fill="none" stroke="#070707" stroke-width="1.5" stroke-miterlimit="10" cx="255.01" cy="143.392" r="34.774"/>
	<path fill="none" stroke="#070707" stroke-width="1.5" stroke-miterlimit="10" d="M202.201,147.081
		c0-19.203-15.566-34.772-34.774-34.772c-19.206,0-34.773,15.57-34.773,34.772c0,19.207,15.567,34.776,34.773,34.776
		C186.634,181.857,202.201,166.288,202.201,147.081z"/>
	<path fill="#070707" d="M321.599,129.625c0-4.061-3.297-7.355-7.354-7.355c-4.066,0-7.359,3.295-7.359,7.355
		c0,4.064,3.293,7.357,7.359,7.357C318.302,136.983,321.599,133.69,321.599,129.625z"/>
	<path fill="#070707" d="M115.398,136.621c0-4.065-3.294-7.357-7.357-7.357c-4.06,0-7.357,3.292-7.357,7.357
		c0,4.062,3.297,7.355,7.357,7.355C112.104,143.977,115.398,140.684,115.398,136.621z"/>
	<path fill="#070707" d="M226.998,175.484c0-4.76-6.971-8.617-15.56-8.617c-8.592,0-15.565,3.857-15.565,8.617
		c0,4.759,6.973,8.616,15.565,8.616C220.027,184.1,226.998,180.243,226.998,175.484z"/>
	<path fill="#070707" d="M259.63,148.387c-6.278,0-11.368,5.089-11.368,11.367c0,6.279,5.09,11.369,11.368,11.369
		c6.282,0,11.371-5.09,11.371-11.369C271.001,153.476,265.912,148.387,259.63,148.387z M264.207,166.985
		c-1.776,0-3.218-1.439-3.218-3.218s1.441-3.219,3.218-3.219c1.777,0,3.218,1.441,3.218,3.219S265.984,166.985,264.207,166.985z"/>
	<path fill="#070707" d="M171.405,151.096c-6.276,0-11.369,5.087-11.369,11.367c0,6.278,5.092,11.368,11.369,11.368
		c6.279,0,11.371-5.09,11.371-11.368C182.776,156.184,177.684,151.096,171.405,151.096z M175.983,169.695
		c-1.779,0-3.218-1.442-3.218-3.219s1.438-3.22,3.218-3.22c1.777,0,3.218,1.443,3.218,3.22S177.761,169.695,175.983,169.695z"/>
	<g>
		<path fill="#070707" d="M212.03,199.851c0.551,6.694,2.278,16.297-2.194,21.994c-4.12,5.249-10.327-0.476-11.492-4.944
			c-1.19-4.568-0.506-9.96,0.808-14.424c0.229-0.775-0.978-1.104-1.205-0.332c-2.243,7.619-2.859,25.001,9.639,22.551
			c8.896-1.744,6.183-18.899,5.694-24.844C213.215,199.053,211.964,199.047,212.03,199.851L212.03,199.851z"/>
	</g>
	<g>
		<path fill="#070707" d="M103.248,273.762c-7.98-1.4-16.163,2.377-21.992,7.688c-4.138,3.771-6.236,9.477-0.506,12.659
			c0.705,0.392,1.335-0.688,0.631-1.08c-7.09-3.938,0.134-10.548,4.145-13.359c4.988-3.498,11.279-5.775,17.391-4.703
			C103.704,275.105,104.041,273.9,103.248,273.762L103.248,273.762z"/>
	</g>
	<g>
		<path fill="#070707" d="M86.769,288.246c-4.253,2.018-8.071,7.248-2.361,10.075c7.138,3.534,14.774-6.548,19.559-10.139
			c0.636-0.478,0.015-1.564-0.631-1.08c-3.691,2.771-6.651,6.177-10.63,8.609c-2.745,1.679-8.296,3.705-10.022-0.605
			c-1.022-2.552,2.977-4.955,4.717-5.78C88.127,288.98,87.493,287.903,86.769,288.246L86.769,288.246z"/>
	</g>
	<g>
		<path fill="#070707" d="M305.34,128.112c33.621,56.973,11.309,125.186,21.254,187.026c0.255,1.589,2.664,0.912,2.41-0.664
			c-10.001-62.192,12.341-130.27-21.506-187.624C306.68,125.463,304.519,126.721,305.34,128.112L305.34,128.112z"/>
	</g>
	<path fill="none" stroke="#070707" stroke-width="2" stroke-miterlimit="10" d="M358.045,329.821
		c0-7.891-6.393-14.286-14.286-14.286H198.285c-7.894,0-14.287,6.396-14.287,14.286v145.478c0,7.891,6.393,14.286,14.287,14.286
		h145.474c7.894,0,14.286-6.396,14.286-14.286V329.821z"/>
	
		<line fill="none" stroke="#070707" stroke-width="2" stroke-miterlimit="10" x1="259.701" y1="316.419" x2="259.701" y2="488.848"/>
	
		<line fill="none" stroke="#070707" stroke-width="2" stroke-miterlimit="10" x1="276.576" y1="316.209" x2="276.576" y2="489.392"/>
	<path fill="none" stroke="#070707" stroke-width="2" stroke-miterlimit="10" d="M276.406,439.158c27.195,0,54.394,0,81.587,0"/>
	<path fill="none" stroke="#070707" stroke-width="2" stroke-miterlimit="10" d="M185.304,439.158c24.717,0,49.432,0,74.147,0"/>
	<path fill="none" stroke="#070707" stroke-width="2" stroke-miterlimit="10" d="M276.315,423.757c27.372,0,54.742,0,82.114,0"/>
	<path fill="none" stroke="#070707" stroke-width="2" stroke-miterlimit="10" d="M184.931,424.463c25.239,0,50.48,0,75.72,0"/>
	<g>
		<path fill="#070707" d="M363,426.532c2.696,0.201,5.886-1.271,8.534-1.761c4.53-0.838,8.901-2.304,13.38-3.358
			c12.655-2.981,19.852,7.123,24.916,17.072c7.652,15.034,12.29,45.739-11.955,47.002c-9.273,0.482-17.494-5.056-20.106-13.967
			c-1.764-6.017-1.473-12.675-1.739-18.881c-0.456-10.61-2.007-22.309-12.714-27.272c-0.727-0.336-1.361,0.741-0.631,1.08
			c15.671,7.265,11.035,28.499,13.228,42.41c2.366,15.009,19.607,22.795,32.694,14.89c15.452-9.333,7.768-35.156,1.518-47.436
			c-3.359-6.599-9.225-15.757-17.401-16.599c-5.112-0.526-9.817,0.876-14.703,2.236c-2.85,0.794-5.718,1.413-8.626,1.951
			c-2.034,0.376-4.312,1.537-6.394,1.382C362.195,425.223,362.201,426.473,363,426.532z"/>
	</g>
	<g>
		<path fill="#070707" d="M359.379,417.418c1.767-17.07,5.508-36.97,15.182-51.502c4.658-6.998,12.691-11.601,20.894-7.609
			c9.277,4.516,7.644,17.873,5.906,26.033c-2.104,9.88-7.175,16.39-16.582,20.206c-6.659,2.702-13.546,4.204-19.667,8.13
			c-2.502,1.604-6.049,5.087-3.53,8.208c2.946,3.653,8.381,3.833,12.674,3.149c0.795-0.126,0.456-1.331-0.332-1.205
			c-3.239,0.516-14.381,0.351-11.389-6.083c1.707-3.669,8.712-6.086,12.045-7.348c7.435-2.815,15.397-4.408,21.22-10.216
			c4.934-4.92,6.579-12.628,7.653-19.223c1.109-6.812,0.731-14.176-3.679-19.768c-2.89-3.662-8.343-5.282-12.833-4.495
			c-6.584,1.154-10.727,5.484-14.314,10.874c-4.337,6.516-6.692,14.325-8.814,21.776c-2.711,9.521-4.663,19.224-5.683,29.071
			C358.046,418.22,359.297,418.212,359.379,417.418L359.379,417.418z"/>
	</g>
	<g>
		<path fill="#070707" d="M360.771,414.753c3.162-12.689,9.221-25.031,16.396-35.946c2.591-3.94,14.774-19.65,18.041-9.49
			c3.383,10.521-11.955,14.662-18.487,19.032c-8.815,5.896-10.893,18.276-14.324,27.485c-0.282,0.757,0.927,1.08,1.205,0.332
			c2.73-7.325,4.502-15.019,8.864-21.615c3.636-5.498,9.65-7.804,15.177-10.88c5.979-3.328,14.011-11.644,6.675-18.323
			c-5.074-4.621-13.978,7.16-16.329,10.196c-8.546,11.035-15.062,25.386-18.423,38.877
			C359.371,415.203,360.577,415.535,360.771,414.753L360.771,414.753z"/>
	</g>
	<g>
		<path fill="#070707" d="M397.08,397.718c3.812-4.203,6.427-9.349,11.564-12.156c5.686-3.106,12.528-0.384,17.538,2.673
			c8.819,5.381,15.403,14.635,17.474,24.722c2.365,11.524-3.811,21.039-14.636,24.891c-8.825,3.14-14.891-0.936-19.976-7.697
			c-2.79-3.708-5.597-5.08-9.361-7.58c-0.674-0.447-1.299,0.636-0.631,1.08c3.464,2.301,6.291,3.683,8.912,7.131
			c1.695,2.23,3.362,4.732,5.65,6.404c5.796,4.234,12.598,3.298,18.887,0.645c9.522-4.018,14.202-14.057,12.553-24.038
			c-1.915-11.585-9.498-21.302-19.403-27.345c-4.562-2.784-9.857-4.108-15.115-2.923c-6.767,1.526-10.096,8.63-14.341,13.31
			C395.655,397.429,396.537,398.315,397.08,397.718L397.08,397.718z"/>
	</g>
	<g>
		<path fill="#070707" d="M394.979,400.028c5.298-4.884,11.27-6.971,17.88-3.18c4.928,2.825,8.271,8.044,8.499,13.67
			c0.235,5.777-3.341,12.189-8.854,14.162c-4.132,1.479-9.255-0.69-13.18-1.964c-0.769-0.25-1.096,0.958-0.332,1.205
			c5.947,1.93,12.031,3.959,17.566,0.018c4.878-3.474,6.551-10.649,5.806-16.229c-0.798-5.975-6.354-10.938-11.534-13.311
			c-6.095-2.791-12.271,0.629-16.735,4.743C393.501,399.691,394.388,400.573,394.979,400.028L394.979,400.028z"/>
	</g>
	<g>
		<path fill="#070707" d="M365.996,420.142c12.548-3.642,25.346-6.438,37.5-11.319c0.738-0.297,0.416-1.506-0.332-1.205
			c-12.154,4.882-24.952,7.678-37.5,11.319C364.892,419.16,365.221,420.367,365.996,420.142L365.996,420.142z"/>
	</g>
	<g>
		<path fill="#070707" d="M358.653,421.825c5.626-16.46-11.09-40.564-29.064-39.342c-7.229,0.491-13.368,6.159-16.7,12.217
			c-2.394,4.354-3.717,11.511,1.02,14.898c4.161,2.976,10.776,3.499,13.861-1.168c2.916-4.41,0.59-10.678-2.484-14.27
			c-9.529-11.135-33.406,0.9-21.893,14.145c3.386,3.895,7.138-0.309,6.445-4.293c-0.632-3.63-6.685-2.833-9.069-2.436
			c-8.444,1.404-21.272,9.824-8.835,16.378c0.628,0.331,1.254-0.459,0.758-0.982c-3.335-3.512-4.735,1.695-5.292,4.521
			c-0.155,0.787,1.05,1.123,1.205,0.332c0.083-0.423,0.999-6.289,3.202-3.968c0.253-0.328,0.506-0.655,0.758-0.982
			c-2.269-1.195-5.419-3.008-4.847-6.039c0.447-2.368,3.183-4.036,5.078-5.126c3.761-2.163,10.489-4.648,14.753-2.637
			c1.093,0.516,1.245,1.571,1.024,2.645c-0.766,3.733-3.724,2.594-5.392,0.344c-4.061-5.477-0.366-10.996,4.965-13.698
			c8.115-4.114,17.729,0.559,19.462,9.319c1.752,8.857-9.357,12.065-14.361,5.433c-5.019-6.652,3.167-16.686,8.327-20.329
			c18.699-13.203,41.854,17.206,35.874,34.707C357.187,422.258,358.395,422.584,358.653,421.825L358.653,421.825z"/>
	</g>
	<g>
		<path fill="#070707" d="M356.738,432.438c5.238,18.336-4.035,43.331-25.97,43.627c-6.39,0.087-9.99-5.005-9.461-10.984
			c0.206-2.327,1.237-4.896,3.188-6.28c0.882-0.627,1.916-0.674,2.928-0.429c4.662,1.128,4.104,6.647,2.583,9.947
			c-1.559,3.38-4.759,7.189-8.487,8.127c-0.95,0.238-11.333,0.479-10.263-0.835c6.051-7.429,9.437,6.315,9.573,9.844
			c0.229,5.943-3.62,12.214-7.215,16.658c-6.285,7.771-17.345,6.766-26.271,5.768c-9.253-1.034-18.342-3.461-27.643-4.063
			c0,0.417,0,0.833,0,1.25c2.711,0.114,5.612,0.44,7.296,2.88c2.307,3.342-3.452,5.835-5.34,6.508
			c-3.305,1.178-7.075,0.882-10.5,0.554c-7.584-0.728-15.323-3.083-22.274-6.155c-0.105,0.389-0.21,0.776-0.315,1.165
			c2.684,1.926,3.038,3.729,1.061,5.408c-0.807,0.831-1.736,1.472-2.79,1.922c-0.717,0.369-0.084,1.448,0.631,1.08
			c4.037-2.078,8.169-9.006,1.098-9.66c-0.604-0.056-0.878,0.916-0.315,1.165c9.721,4.296,23.091,8.809,33.737,5.727
			c2.709-0.784,7.269-3.227,6.587-6.771c-0.788-4.103-5.335-4.922-8.875-5.071c-0.81-0.034-0.798,1.198,0,1.25
			c10.659,0.69,21.072,3.563,31.724,4.466c9.217,0.78,17.814-0.033,23.905-7.564c5.105-6.312,9.119-16.299,5.308-24.229
			c-1.305-2.715-3.067-5.047-6.271-5.118c-1.533-0.034-4.847,1.764-4.596,3.638c0.485,3.633,11.587,1.812,13.64,0.926
			c5.729-2.477,11.355-11.396,7.93-17.334c-2.003-3.473-6.726-3.755-9.066-0.653c-2.484,3.293-3.068,8.326-1.366,12.102
			c4.521,10.033,19.028,5.685,25.668,0.544c11.903-9.216,15.384-25.681,11.367-39.737
			C357.723,431.333,356.517,431.662,356.738,432.438L356.738,432.438z"/>
	</g>
	<g>
		<path fill="#070707" d="M189.212,317.921c-9.729,8.594-20.173,16.603-21.978,30.263c-0.998,7.557-0.759,15.171-0.691,22.772
			c0.077,8.588-0.682,17.168-1.227,25.733c-1.168,18.369-2.171,36.993,0.51,55.284c0.948,6.469,2.247,12.635,6.431,17.857
			c4.135,5.159,9.43,9.209,14.126,13.828c0.575,0.565,1.459-0.318,0.884-0.885c-4.119-4.051-8.653-7.675-12.559-11.94
			c-5.893-6.435-7.127-14.474-8.139-22.833c-2.061-17.017-1.072-34.264-0.003-51.312c0.477-7.604,1.152-15.224,1.231-22.845
			c0.074-7.094-0.261-14.171,0.21-21.258c0.499-7.496,2.454-13.901,7.258-19.735c4.324-5.249,9.753-9.562,14.829-14.046
			C190.701,318.271,189.813,317.39,189.212,317.921L189.212,317.921z"/>
	</g>
	<g>
		<path fill="#070707" d="M185.854,438.908c-3.358-3.006-6.639-6.094-9.916-9.188c-3.44-3.249-7.41-6.049-10.001-10.076
			c-0.435-0.676-1.517-0.049-1.079,0.631c2.166,3.366,5.195,5.828,8.175,8.448c4.073,3.58,7.895,7.451,11.937,11.07
			C185.569,440.328,186.457,439.447,185.854,438.908L185.854,438.908z"/>
	</g>
	<g>
		<path fill="#070707" d="M186.283,423.887c-7.093-1.669-15.833-4.77-20.142-11.032c-0.454-0.659-1.538-0.035-1.079,0.631
			c4.517,6.563,13.432,9.853,20.889,11.606C186.734,425.276,187.067,424.071,186.283,423.887L186.283,423.887z"/>
	</g>
	<g>
		<path fill="#070707" d="M359.854,426.78c-0.336,0.228-1.02,0.603-0.972,1.104c0.049,0.512,0.454,0.734,0.932,0.677
			c1.072-0.129,2.101-0.596,3.187-0.616c0.805-0.015,0.807-1.265,0-1.25c-0.791,0.015-1.577,0.234-2.342,0.42
			c-0.271,0.065-0.746,0.185-0.907,0.203c-0.035,0.004-0.071,0.007-0.106,0.007c0.342-0.011,0.622,0.623,0.392,0.871
			c0.126-0.136,0.297-0.233,0.448-0.336C361.148,427.411,360.523,426.328,359.854,426.78L359.854,426.78z"/>
	</g>
	<g>
		<path fill="#070707" d="M176.815,94.243c2.871-9.132-2.209-23.921-13.248-24.678c-6.56-0.45-20.16,3.404-18.249,12.355
			c1.437,6.733,11.426,8.298,9.69-0.326c-0.896-4.453-5.302-7.055-9.398-7.909c-7.005-1.461-12.279,6.042-19.319,2.164
			c-0.707-0.389-1.337,0.69-0.631,1.079c5.931,3.268,10.63-0.553,16.502-1.926c4.946-1.156,10.215,2.221,11.64,6.925
			c0.694,2.292-0.187,5.721-3.325,4.251c-2.192-1.027-3.988-3.541-4.142-5.923c-0.473-7.362,12.879-10.027,17.979-9.339
			c9.76,1.318,13.836,14.907,11.294,22.995C175.368,94.682,176.575,95.009,176.815,94.243L176.815,94.243z"/>
	</g>
	<g>
		<path fill="#070707" d="M188.683,92.928c-5.584-4.68-3.688-20.474,3.99-22.83c2.885-0.885,3.428,2.727,3.426,4.601
			c-0.004,3.355-0.806,2.987-2.734,1.28c-2.329-2.062-2.415-5.227-1.772-8.031c2.286-9.974,12.4-18.545,19.729-25.079
			c0.603-0.538-0.284-1.418-0.884-0.884c-7.475,6.663-31.49,28.326-14.731,37.065c0.351,0.183,0.813,0.033,0.918-0.374
			c0.769-2.975,1.429-6.465-0.817-8.955c-1.474-1.634-4.274-0.914-5.743,0.273c-6.082,4.916-8.734,18.398-2.267,23.817
			C188.412,94.326,189.301,93.447,188.683,92.928L188.683,92.928z"/>
	</g>
	<g>
		<path fill="#070707" d="M211.505,92.66c-0.456-6.166,3.54-10.347,7.602-14.414c0.57-0.571-0.313-1.455-0.884-0.884
			c-4.303,4.309-8.449,8.8-7.968,15.297C210.314,93.458,211.565,93.464,211.505,92.66L211.505,92.66z"/>
	</g>
	<g>
		<path fill="#070707" d="M359.793,415.863c0.717-1.003,3.215-1.337,2.255,0.394c-0.353,0.635-0.771,1.212-1.083,1.872
			c-0.294,0.621-0.336,1.361-0.006,1.979c0.561,1.048,1.472,1.762,2.16,2.716c1.57,2.18-2.948,3.92-4.286,4.071
			c-0.792,0.09-0.8,1.341,0,1.25c1.569-0.178,4.683-1.229,5.371-2.83c1.086-2.528-0.546-3.496-1.937-5.41
			c-1.324-1.823,2.853-3.912,0.994-5.771c-1.427-1.427-3.582-0.252-4.549,1.099C358.243,415.89,359.328,416.513,359.793,415.863
			L359.793,415.863z"/>
	</g>
	<g>
		<path fill="#070707" d="M363.349,416.088c1.995,0.891,0.522,4.705-0.225,6.075c-0.386,0.708,0.694,1.339,1.08,0.631
			c1.07-1.965,2.58-6.533-0.225-7.786C363.25,414.683,362.613,415.76,363.349,416.088L363.349,416.088z"/>
	</g>
	<g>
		<path fill="#070707" d="M362.779,427.912c7.176-2.438,16.646-2.675,24.02-0.883c7.592,1.845,12.801,7.717,16.241,14.407
			c4.104,7.98,8.013,21.105,3.834,29.6c-3.111,6.324-11.201,4.102-15.198,0.198c-4.331-4.229-6.569-10.645-8.395-16.257
			c-3.636-11.181-4.605-22.979-15.312-29.889c-0.68-0.438-1.306,0.645-0.631,1.08c13.755,8.878,12.316,28.413,20.126,41.576
			c4.562,7.69,16.804,13.232,21.213,2.289c3.816-9.473-1.195-23.33-5.883-31.697c-7.855-14.021-26.098-16.474-40.348-11.63
			C361.688,426.965,362.014,428.173,362.779,427.912L362.779,427.912z"/>
	</g>
</g>
</svg>
