<?xml version="1.0" encoding="utf-8"?>
<!-- Generator: Adobe Illustrator 16.0.0, SVG Export Plug-In . SVG Version: 6.00 Build 0)  -->
<!DOCTYPE svg PUBLIC "-//W3C//DTD SVG 1.1//EN" "http://www.w3.org/Graphics/SVG/1.1/DTD/svg11.dtd">
<svg version="1.1" id="Layer_1" xmlns="http://www.w3.org/2000/svg" xmlns:xlink="http://www.w3.org/1999/xlink" x="0px" y="0px"
	 width="500px" height="550px" viewBox="0 0 500 550" enable-background="new 0 0 500 550" xml:space="preserve">
<g>
	<g>
		<path fill="#070707" d="M406.778,142.177c-10.798-19.699-30.545-31.995-51.832-37.705c-26.313-7.058-54.188-0.909-80.736,1.604
			c-24.3,2.299-45.802,16.112-59.343,36.152c-11.889,17.595-16.26,39.149-17.755,59.998c-1.257,17.525-0.281,35.152,0.931,52.65
			c1.489,21.495,2.858,42.781,2.066,64.354c-0.874,23.791-5.279,47.993-1.823,71.728c2.923,20.079,12.631,38.229,26.409,52.938
			c1.104,1.179,2.868-0.593,1.768-1.768c-9.561-10.207-16.981-21.85-21.648-35.06c-4.865-13.772-5.663-28.235-5.085-42.706
			c0.655-16.387,2.477-32.695,3.018-49.097c0.481-14.564,0.035-29.07-0.99-43.599c-3.025-42.871-9.406-92.876,16.729-130.303
			c10.251-14.68,25.478-25.266,42.604-30.262c9.768-2.849,20.104-3.116,30.167-4.172c10.661-1.119,21.315-2.393,32.012-3.131
			c31.033-2.141,65.907,11.47,81.351,39.642C405.395,144.853,407.554,143.591,406.778,142.177L406.778,142.177z"/>
	</g>
	<g>
		<path fill="#070707" d="M246.967,458.098c19.251,11.863,43.718,11.725,65.498,9.891c10.991-0.926,21.914-2.606,32.782-4.464
			c11.724-2.003,24.796-2.963,35.066-9.431c1.36-0.856,0.106-3.021-1.262-2.158c-9.717,6.118-22.1,7.028-33.193,8.958
			c-11.075,1.927-22.194,3.587-33.394,4.595c-21.289,1.915-45.434,2.037-64.236-9.549
			C246.852,455.091,245.597,457.254,246.967,458.098L246.967,458.098z"/>
	</g>
	<g>
		<path fill="#070707" d="M272.944,108.704c1.612,0,1.612-2.5,0-2.5S271.332,108.704,272.944,108.704L272.944,108.704z"/>
	</g>
	<g>
		<path fill="#070707" d="M202.272,171.447c-7.525-2.258-14.336-4.639-18.671-11.674c-4.789-7.771-2.51-17.956,2.838-24.73
			c4.101-5.195,10.323-8.259,16.662-9.668c4.121-0.916,8.688-0.742,12.836-0.169c4.08,0.562,6.432,3.079,9.61,5.197
			c1.346,0.897,2.596-1.269,1.262-2.158c-1.884-1.256-3.149-2.869-5.161-3.953c-2.006-1.081-4.42-1.41-6.641-1.717
			c-4.156-0.573-8.453-0.34-12.571,0.39c-7.92,1.403-14.957,6.207-19.56,12.701c-4.698,6.626-5.926,16.601-2.177,23.92
			c4.385,8.562,12.155,11.646,20.907,14.273C203.155,174.322,203.812,171.909,202.272,171.447L202.272,171.447z"/>
	</g>
	<g>
		<path fill="#070707" d="M391.09,124.541c12.195-6.251,30.977-9.274,39.812,3.738c8.929,13.148,3.413,34.45-13.424,37.342
			c-1.587,0.273-0.912,2.682,0.664,2.411c18.104-3.111,23.219-24.006,16.2-38.769c-8.034-16.899-30.675-13.976-44.515-6.881
			C388.393,123.118,389.658,125.274,391.09,124.541L391.09,124.541z"/>
	</g>
	<g>
		<path fill="#070707" d="M295.125,190.776c0.341-0.052,0.683-0.104,1.023-0.156c-0.105-0.388-0.211-0.776-0.315-1.165
			c-1.313,0.691-2.776,0.593-4.062,1.369c-2.31,1.392-4.421,3.104-6.396,4.929c-2.72,2.512-6.494,7.021-5.359,11.095
			c1.323,4.749,6.455,7.051,10.972,7.733c7.374,1.114,14.645-3.422,21.938-3.812c8.795-0.469,23.021,9.638,25.916-4.643
			c2.021-9.971-11.836-15.893-19.031-18.555c-0.758-0.28-1.081,0.928-0.332,1.205c7.123,2.635,17.989,7.195,18.229,16.117
			c0.369,13.749-17.726,4.837-24.782,4.626c-4.443-0.133-8.979,1.715-13.198,2.843c-5.864,1.568-17.581,1.793-18.589-6.552
			c-0.514-4.247,4.014-8.269,6.859-10.727c2.773-2.396,5.442-2.956,8.467-4.549c0.543-0.286,0.303-1.197-0.315-1.165
			c-0.48,0.025-0.85,0.109-1.355,0.201C294.001,189.715,294.337,190.919,295.125,190.776L295.125,190.776z"/>
	</g>
	<g>
		<path fill="#070707" d="M323.044,213.022c1.518,3.832,1.911,8.074,1.774,12.163c-0.088,2.609-0.615,5.47-2.417,7.462
			c-3.307,3.658-11.804,1.346-10.828-4.282c0.137-0.788-1.067-1.125-1.205-0.332c-1.253,7.229,8.283,9.366,12.917,5.498
			c5.008-4.179,2.996-15.71,0.964-20.841C323.956,211.95,322.747,212.272,323.044,213.022L323.044,213.022z"/>
	</g>
	<g>
		<path fill="#070707" d="M225.895,444.216c10.236-5.155,15.655,7.812,22.719,12.679c0.05-0.381,0.1-0.762,0.149-1.143
			c-5.42,0.839-9.856,4.313-14.121,7.532c-5.187,3.914-11.915,9.989-18.858,7.052c-9.101-3.85-6.269-12.612-0.822-17.928
			c4.07-3.973,9.219-6.966,14.267-9.521c0.719-0.364,0.086-1.443-0.631-1.08c-7.27,3.682-27.406,15.236-18.148,25.769
			c12.618,14.356,25.929-8.648,38.646-10.618c0.586-0.091,0.542-0.872,0.149-1.143c-7.688-5.295-12.869-18.274-23.981-12.679
			C224.544,443.499,225.177,444.577,225.895,444.216L225.895,444.216z"/>
	</g>
	<g>
		<path fill="#070707" d="M214.176,468.76c-1.714-6.015,2.752-10.697,7.717-13.309c0.713-0.376,0.082-1.455-0.631-1.08
			c-5.486,2.887-10.156,8.178-8.291,14.721C213.191,469.866,214.397,469.536,214.176,468.76L214.176,468.76z"/>
	</g>
	<g>
		<path fill="#070707" d="M378.951,454.515c4.076-9.978,15.632-17.97,25.815-11.661c5.708,3.535,9.337,10.576,9.957,17.127
			c0.747,7.896-4.947,11.359-12.192,9.78c-9.127-1.99-13.88-12.944-21.198-17.951c-0.667-0.456-1.292,0.628-0.631,1.08
			c9.184,6.282,14.256,19.496,27.136,18.58c6.917-0.491,8.718-7.399,7.937-13.193c-1.024-7.601-6.316-15.044-13.387-18.07
			c-10.209-4.371-20.971,4.991-24.642,13.977C377.441,454.929,378.65,455.251,378.951,454.515L378.951,454.515z"/>
	</g>
	<g>
		<path fill="#070707" d="M402.587,454.791c3.886,4.03,6.963,9.184,7.157,14.902c0.027,0.804,1.277,0.807,1.25,0
			c-0.206-6.055-3.4-11.51-7.522-15.787C402.911,453.325,402.028,454.21,402.587,454.791L402.587,454.791z"/>
	</g>
	<g>
		<path fill="#070707" d="M423.903,282.018c7.388,0.57,14.133,1.113,19.873,6.336c3.747,3.408,7.214,12.548,2.073,16.32
			c-5.969,4.382-16.708-3.034-20.362-7.534c-0.509-0.626-1.388,0.265-0.885,0.885c4.339,5.341,17.396,13.513,23.418,6.302
			c3.347-4.008,1.003-10.969-1.475-14.673c-5.02-7.508-14.512-8.259-22.643-8.886C423.099,280.705,423.105,281.956,423.903,282.018
			L423.903,282.018z"/>
	</g>
	<g>
		<path fill="#070707" d="M437.556,296.85c3.875,1.196,8.648,4.496,6.295,9.086c-0.366,0.716,0.712,1.349,1.08,0.631
			c2.752-5.368-2.297-9.456-7.043-10.922C437.115,295.406,436.788,296.612,437.556,296.85L437.556,296.85z"/>
	</g>
	<path fill="none" stroke="#070707" stroke-width="1.5" stroke-miterlimit="10" d="M387.306,154.747
		c0-19.157-15.534-34.69-34.689-34.69c-19.161,0-34.693,15.533-34.693,34.69c0,19.159,15.532,34.691,34.693,34.691
		C371.771,189.438,387.306,173.906,387.306,154.747z"/>
	<path fill="none" stroke="#070707" stroke-width="1.5" stroke-miterlimit="10" d="M299.935,158.427
		c0-19.159-15.533-34.687-34.691-34.687c-19.154,0-34.686,15.528-34.686,34.687c0,19.159,15.532,34.692,34.686,34.692
		C284.401,193.119,299.935,177.586,299.935,158.427z"/>
	<path fill="#070707" d="M419.044,141.015c0-4.053-3.286-7.335-7.34-7.335c-4.053,0-7.339,3.283-7.339,7.335
		c0,4.059,3.286,7.339,7.339,7.339C415.758,148.354,419.044,145.073,419.044,141.015z"/>
	<path fill="#070707" d="M213.604,147.161c0-4.053-3.289-7.339-7.339-7.339c-4.056,0-7.341,3.286-7.341,7.339
		c0,4.054,3.285,7.34,7.341,7.34C210.315,154.501,213.604,151.215,213.604,147.161z"/>
	<path fill="#070707" d="M324.67,186.763c0-4.75-6.949-8.598-15.521-8.598c-8.574,0-15.523,3.848-15.523,8.598
		c0,4.746,6.949,8.594,15.523,8.594C317.721,195.356,324.67,191.508,324.67,186.763z"/>
	<path fill="#070707" d="M334.426,145.478c-6.267,0-11.344,5.075-11.344,11.339c0,6.263,5.077,11.344,11.344,11.344
		c6.263,0,11.338-5.081,11.338-11.344C345.764,150.553,340.688,145.478,334.426,145.478z M338.989,164.032
		c-1.77,0-3.213-1.438-3.213-3.21c0-1.773,1.443-3.21,3.213-3.21c1.771,0,3.208,1.438,3.208,3.21
		C342.197,162.594,340.76,164.032,338.989,164.032z"/>
	<path fill="#070707" d="M246.408,148.181c-6.264,0-11.338,5.075-11.338,11.338c0,6.264,5.074,11.344,11.338,11.344
		c6.267,0,11.344-5.08,11.344-11.344C257.752,153.255,252.675,148.181,246.408,148.181z M250.975,166.734
		c-1.77,0-3.21-1.438-3.21-3.211c0-1.772,1.44-3.21,3.21-3.21c1.773,0,3.211,1.438,3.211,3.21
		C254.186,165.296,252.748,166.734,250.975,166.734z"/>
	<g>
		<path fill="#070707" d="M309.89,211.002c0.665,6.695,2.101,16.306-2.387,21.97c-4.131,5.214-10.241-0.4-11.412-4.894
			c-1.188-4.558-0.506-9.938,0.809-14.392c0.229-0.775-0.978-1.104-1.205-0.332c-2.216,7.509-2.872,25.004,9.561,22.48
			c8.842-1.795,6.48-18.834,5.885-24.833C311.061,210.208,309.81,210.2,309.89,211.002L309.89,211.002z"/>
	</g>
	<g>
		<path fill="#070707" d="M201.225,284.803c-6.463-1.164-12.493,1.119-17.906,4.543c-0.679,0.43-0.053,1.512,0.631,1.08
			c5.104-3.229,10.818-5.521,16.943-4.418C201.681,286.149,202.018,284.945,201.225,284.803L201.225,284.803z"/>
	</g>
	<g>
		<path fill="#070707" d="M196.305,304.456c1.896-1.44,3.381-3.335,5.286-4.76c0.637-0.478,0.015-1.563-0.631-1.08
			c-1.908,1.428-3.392,3.321-5.286,4.76C195.041,303.857,195.663,304.943,196.305,304.456L196.305,304.456z"/>
	</g>
	<g>
		<path fill="#070707" d="M402.824,139.505c13.399,19.594,16.908,43.42,17.903,66.644c1.039,24.267-0.202,48.564,0.833,72.848
			c1.216,28.508,3.592,56.972,3.16,85.528c-0.218,14.411-1.573,28.572-5.523,42.477c-3.437,12.097-11.591,21.264-17.449,32.13
			c-0.766,1.419,1.394,2.681,2.158,1.262c5.642-10.464,13.52-19.427,17.16-30.921c4.214-13.31,5.659-27.181,6.068-41.073
			c0.879-29.825-1.749-59.63-3.074-89.402c-1.127-25.33,0.243-50.684-0.977-75.997c-1.088-22.571-5.119-45.774-18.102-64.757
			C404.079,136.921,401.911,138.17,402.824,139.505L402.824,139.505z"/>
	</g>
	<path fill="none" stroke="#070707" stroke-width="1.5" stroke-miterlimit="10" d="M171.254,300.608
		c-41.666-53.612-83.386-106.841-126.352-160.724c11.701,12.657,5.423,6.901,0,0c14.192,13.597,25.704,27.984,40.09,42.371
		c38.842,43.16,77.684,82.002,114.24,125.492"/>
	<g>
		<path fill="#070707" d="M164.503,291.667c5.618,0.15,10.346-4.496,11.568-9.766c0.182-0.784-1.023-1.117-1.205-0.332
			c-1.1,4.742-5.279,8.983-10.363,8.848C163.697,290.396,163.699,291.646,164.503,291.667L164.503,291.667z"/>
	</g>
	<g>
		<path fill="#070707" d="M185.512,319.978c2.968,3.812,8.056-0.913,10.323-3.184c1.607-1.609,7.604-7.776,3.578-9.586
			c-0.729-0.327-1.365,0.75-0.631,1.08c2.485,1.116-3.044,6.806-3.831,7.622c-1.738,1.802-6.191,6.22-8.556,3.183
			C185.901,318.458,185.023,319.35,185.512,319.978L185.512,319.978z"/>
	</g>
	<g>
		<path fill="#070707" d="M186.364,319.754c2.849,0.022,5.3-2.4,7.136-4.308c2.077-2.156,4.145-4.804,5.117-7.668
			c0.26-0.766-0.948-1.091-1.205-0.332c-0.851,2.507-2.671,4.745-4.403,6.692c-1.604,1.803-4.029,4.386-6.644,4.365
			C185.558,318.498,185.559,319.748,186.364,319.754L186.364,319.754z"/>
	</g>
	<g>
		<path fill="#070707" d="M186.125,307.71c-0.87-0.763-1.765-1.227-2.849-1.622c-2.366-0.862-3.11-2.091-4.603-3.911
			c-1.792-2.186-3.825-3.337-6.682-2.875c-2.196,0.354-3.016,2.615-2.997,4.545c0.03,3.107,2.49,5.102,4.526,7.063
			c2.228,2.147,2.457,5.631,5.303,7.143c1.615,0.858,3.549,0.329,5.054-0.471C187.557,315.627,188.854,310.92,186.125,307.71
			c-0.523-0.614-1.403,0.274-0.884,0.885c2.701,3.177,0.186,7.319-3.305,8.471c-2.108,0.696-3.729-0.681-4.656-2.45
			c-0.916-1.75-1.531-3.112-2.876-4.589c-1.82-1.997-3.796-3.237-4.16-6.18c-0.583-4.705,4.972-3.575,7.045-1.396
			c1.037,1.09,1.571,2.911,2.915,3.698c1.638,0.959,3.578,1.165,5.038,2.446C185.845,309.123,186.732,308.243,186.125,307.71z"/>
	</g>
	<g>
		<path fill="#070707" d="M183.655,317.818c0.494,0.939,1.252,1.664,2.122,2.257c0.668,0.455,1.293-0.629,0.631-1.08
			c-0.697-0.475-1.278-1.058-1.673-1.808C184.358,316.474,183.279,317.105,183.655,317.818L183.655,317.818z"/>
	</g>
	<g>
		<path fill="#070707" d="M177.601,307.606c0.928-0.663,1.846-1.297,3.039-1.018c0.784,0.184,1.117-1.021,0.332-1.205
			c-1.547-0.362-2.771,0.263-4.002,1.143C176.32,306.991,176.943,308.076,177.601,307.606L177.601,307.606z"/>
	</g>
</g>
</svg>
