<?xml version="1.0" encoding="utf-8"?>
<!-- Generator: Adobe Illustrator 16.0.0, SVG Export Plug-In . SVG Version: 6.00 Build 0)  -->
<!DOCTYPE svg PUBLIC "-//W3C//DTD SVG 1.1//EN" "http://www.w3.org/Graphics/SVG/1.1/DTD/svg11.dtd">
<svg version="1.1" id="Layer_1" xmlns="http://www.w3.org/2000/svg" xmlns:xlink="http://www.w3.org/1999/xlink" x="0px" y="0px"
	 width="500px" height="550px" viewBox="0 0 500 550" enable-background="new 0 0 500 550" xml:space="preserve">
<g>
	<g>
		<path fill="#070707" d="M345.471,187.007c-10.861-19.797-30.942-31.936-52.417-37.272c-11.289-2.805-22.783-3.203-34.326-2.241
			c-15.411,1.284-31.016,2.621-46.334,4.721c-23.854,3.269-44.439,18.24-56.688,38.655c-10.946,18.245-14.376,40.048-15.279,60.982
			c-0.716,16.598,0.38,33.229,1.574,49.778c1.495,20.734,2.432,41.271,1.524,62.07c-0.987,22.594-5.025,45.514-1.307,68.034
			c3.115,18.862,12.456,35.969,25.479,49.802c1.107,1.176,2.872-0.595,1.768-1.768c-9.549-10.144-16.877-21.826-21.402-35.023
			c-4.74-13.824-5.278-28.308-4.594-42.771c0.757-16.002,2.442-31.921,2.91-47.945c0.411-14.072-0.125-28.08-1.128-42.113
			c-3.062-42.839-9.319-94.236,19.821-130.104c10.576-13.018,25.185-21.938,41.416-25.933c9.345-2.3,19.256-2.499,28.802-3.515
			c9.987-1.064,19.989-2.312,30.021-2.852c29.895-1.609,63.14,11.667,78.002,38.755
			C344.088,189.682,346.247,188.421,345.471,187.007L345.471,187.007z"/>
	</g>
	<g>
		<path fill="#070707" d="M189.436,495.404c18.482,11.381,41.87,11.423,62.809,9.76c11.048-0.878,22.026-2.559,32.945-4.42
			c12.283-2.095,24.836-3.798,35.839-10.014c1.403-0.793,0.144-2.952-1.262-2.158c-10.447,5.901-22.31,7.516-33.96,9.54
			c-10.636,1.848-21.312,3.44-32.065,4.423c-20.885,1.909-44.588,2.076-63.044-9.289
			C189.32,492.398,188.066,494.562,189.436,495.404L189.436,495.404z"/>
	</g>
	<g>
		<path fill="#070707" d="M214.813,154.375c1.612,0,1.612-2.5,0-2.5S213.201,154.375,214.813,154.375L214.813,154.375z"/>
	</g>
	<g>
		<path fill="#070707" d="M145.592,215.558c-6.318,0.418-14.094-5.665-17.399-10.457c-4.679-6.785-3.646-15.709,0.389-22.444
			c7.457-12.442,28.637-17.679,39.718-7.313c1.176,1.1,2.947-0.664,1.768-1.768c-13.088-12.244-35.822-5.233-44.33,8.964
			c-4.399,7.342-3.984,16.588,0.297,23.823c3.371,5.696,12.633,12.154,19.558,11.695
			C147.192,217.952,147.202,215.451,145.592,215.558L145.592,215.558z"/>
	</g>
	<g>
		<path fill="#070707" d="M330.144,169.835c11.888-6.097,30.205-9.054,38.819,3.631c8.724,12.847,3.334,33.518-13.079,36.404
			c-1.586,0.279-0.912,2.688,0.664,2.411c17.691-3.111,22.701-23.418,15.824-37.884c-7.849-16.509-29.972-13.654-43.49-6.722
			C327.447,168.412,328.712,170.569,330.144,169.835L330.144,169.835z"/>
	</g>
	<g>
		<path fill="#070707" d="M236.467,234.467c0.331-0.05,0.662-0.1,0.992-0.149c-0.105-0.389-0.21-0.777-0.315-1.165
			c-1.292,0.686-2.728,0.592-3.998,1.358c-2.339,1.411-4.471,3.158-6.455,5.027c-2.538,2.39-5.926,6.542-5.036,10.358
			c1.12,4.801,6.28,7.132,10.761,7.809c7.202,1.087,14.297-3.342,21.42-3.721c8.619-0.459,22.554,9.429,25.317-4.621
			c1.909-9.705-11.601-15.459-18.598-18.052c-0.758-0.281-1.081,0.928-0.332,1.205c7.319,2.713,19.415,7.919,17.506,17.624
			c-2.154,10.951-17.021,2.8-23.894,2.593c-4.339-0.131-8.767,1.673-12.887,2.775c-5.876,1.571-15.073,1.793-17.885-5.074
			c-1.773-4.33,3.435-9.125,6.257-11.601c2.763-2.424,5.432-2.999,8.454-4.603c0.543-0.288,0.303-1.194-0.315-1.165
			c-0.469,0.022-0.832,0.105-1.324,0.194C235.342,233.405,235.679,234.609,236.467,234.467L236.467,234.467z"/>
	</g>
	<g>
		<path fill="#070707" d="M263.113,256.366c1.483,3.738,1.867,7.877,1.733,11.868c-0.085,2.542-0.599,5.333-2.353,7.275
			c-3.216,3.563-11.49,1.307-10.546-4.167c0.136-0.788-1.068-1.125-1.205-0.332c-1.219,7.066,8.1,9.174,12.636,5.383
			c4.888-4.086,2.929-15.346,0.939-20.359C264.024,255.294,262.815,255.616,263.113,256.366L263.113,256.366z"/>
	</g>
	<g>
		<path fill="#070707" d="M168.896,481.847c9.981-5.003,15.269,7.614,22.158,12.371c0.05-0.381,0.1-0.762,0.149-1.143
			c-5.291,0.818-9.622,4.211-13.785,7.353c-5.056,3.816-11.622,9.749-18.393,6.886c-8.62-3.646-6.309-11.934-1.155-17.136
			c4.018-4.055,9.22-7.073,14.28-9.64c0.719-0.365,0.086-1.443-0.631-1.08c-8.274,4.197-26.615,14.929-17.025,25.979
			c11.233,12.942,25.909-9.435,37.041-11.156c0.587-0.091,0.542-0.871,0.149-1.143c-7.518-5.19-12.553-17.817-23.42-12.371
			C167.544,481.128,168.178,482.206,168.896,481.847L168.896,481.847z"/>
	</g>
	<g>
		<path fill="#070707" d="M157.462,505.779c-1.669-5.862,2.686-10.424,7.525-12.968c0.714-0.376,0.082-1.454-0.631-1.08
			c-5.361,2.818-9.919,7.988-8.1,14.38C156.477,506.886,157.683,506.556,157.462,505.779L157.462,505.779z"/>
	</g>
	<g>
		<path fill="#070707" d="M343.072,507.099c-7.188-1.399-11.46-6.985-16.075-12.146c-1.887-2.11-7.046-5.148-5.504-8.715
			c1.996-4.619,9.466-7.565,14.008-8.013c15.875-1.563,25.782,30.74,7.405,28.852c-0.802-0.082-0.794,1.168,0,1.25
			c19.605,2.016,10.339-29.212-4.243-31.124c-5.739-0.752-10.415,1.396-14.938,4.78c-1.835,1.373-5.411,4.941-3.703,7.621
			c2.428,3.805,6.778,7.034,9.824,10.443c3.581,4.006,7.524,7.212,12.894,8.257C343.527,508.457,343.863,507.252,343.072,507.099z"
			/>
	</g>
	<g>
		<path fill="#070707" d="M341.341,492.165c3.792,3.931,6.794,8.955,6.983,14.534c0.027,0.804,1.277,0.807,1.25,0
			c-0.201-5.915-3.32-11.242-7.349-15.419C341.665,490.699,340.781,491.585,341.341,492.165L341.341,492.165z"/>
	</g>
	<g>
		<path fill="#070707" d="M362.36,323.785c3.363,0.367,6.521-0.006,9.874,0.817c3.535,0.869,6.684,2.704,9.348,5.143
			c3.654,3.345,6.612,11.371,2.504,15.48c-5.354,5.355-16.97-2.768-20.372-6.965c-0.509-0.626-1.387,0.265-0.885,0.885
			c4.221,5.204,17.229,13.336,22.97,6.028c3.013-3.834,1.099-10.923-1.604-14.313c-2.321-2.913-5.309-5.229-8.834-6.525
			c-4.517-1.659-8.349-1.291-13.001-1.8C361.56,322.447,361.568,323.698,362.36,323.785L362.36,323.785z"/>
	</g>
	<g>
		<path fill="#070707" d="M375.479,338.003c3.771,1.164,8.431,4.378,6.139,8.849c-0.366,0.716,0.712,1.349,1.08,0.631
			c2.69-5.249-2.244-9.251-6.887-10.685C375.038,336.56,374.711,337.766,375.479,338.003L375.479,338.003z"/>
	</g>
	<path fill="none" stroke="#070707" stroke-width="1.5" stroke-miterlimit="10" d="M326.433,199.288
		c0-18.698-15.158-33.858-33.859-33.858c-18.7,0-33.861,15.161-33.861,33.858c0,18.704,15.161,33.861,33.861,33.861
		C311.274,233.149,326.433,217.992,326.433,199.288z"/>
	<path fill="none" stroke="#070707" stroke-width="1.5" stroke-miterlimit="10" d="M241.151,202.88
		c0-18.701-15.156-33.858-33.856-33.858c-18.701,0-33.861,15.158-33.861,33.858c0,18.703,15.161,33.861,33.861,33.861
		C225.996,236.742,241.151,221.583,241.151,202.88z"/>
	<path fill="#070707" d="M357.413,185.886c0-3.956-3.209-7.164-7.16-7.164c-3.963,0-7.164,3.208-7.164,7.164
		c0,3.957,3.201,7.164,7.164,7.164C354.204,193.05,357.413,189.843,357.413,185.886z"/>
	<path fill="#070707" d="M156.895,192.31c0-3.959-3.207-7.164-7.164-7.164s-7.164,3.204-7.164,7.164
		c0,3.957,3.207,7.164,7.164,7.164S156.895,196.266,156.895,192.31z"/>
	<ellipse fill="#070707" cx="250.149" cy="230.538" rx="15.152" ry="8.39"/>
	<path fill="#070707" d="M277.6,195.804c-6.113,0-11.067,4.956-11.067,11.069c0,6.114,4.954,11.07,11.067,11.07
		c6.111,0,11.068-4.956,11.068-11.07C288.668,200.76,283.711,195.804,277.6,195.804z M282.056,213.916
		c-1.729,0-3.134-1.403-3.134-3.133s1.405-3.139,3.134-3.139c1.735,0,3.136,1.408,3.136,3.139S283.791,213.916,282.056,213.916z"/>
	<path fill="#070707" d="M219.515,178.968c-6.114,0-11.067,4.954-11.067,11.067c0,6.114,4.953,11.07,11.067,11.07
		s11.07-4.956,11.07-11.07C230.585,183.922,225.629,178.968,219.515,178.968z M223.97,197.075c-1.727,0-3.13-1.4-3.13-3.133
		c0-1.728,1.403-3.134,3.13-3.134c1.735,0,3.137,1.406,3.137,3.134C227.106,195.675,225.705,197.075,223.97,197.075z"/>
	<g>
		<path fill="#070707" d="M250.957,253.769c-1.155,5.588,3.371,29.6-10.116,22.715c-5.94-3.033-4.113-14.652-2.64-19.662
			c0.228-0.775-0.978-1.104-1.205-0.332c-1.675,5.692-3.45,18.933,4.143,21.534c4.386,1.502,7.833-0.161,9.833-4.23
			c3.116-6.343-0.139-13.253,1.191-19.692C252.325,253.314,251.12,252.979,250.957,253.769L250.957,253.769z"/>
	</g>
	<g>
		<path fill="#070707" d="M145.581,326.605c-7.775-1.367-15.75,2.309-21.43,7.486c-4.037,3.681-6.084,9.251-0.492,12.356
			c0.705,0.392,1.335-0.688,0.631-1.08c-6.888-3.825,0.143-10.255,4.039-12.985c4.854-3.401,10.973-5.617,16.92-4.572
			C146.037,327.949,146.374,326.745,145.581,326.605L145.581,326.605z"/>
	</g>
	<g>
		<path fill="#070707" d="M128.749,340.32c-5.036,2.379-7.657,7.965-1.153,10.258c6.459,2.277,13.542-6.086,17.665-9.766
			c0.603-0.538-0.285-1.419-0.884-0.885c-3.433,3.064-6.662,6.36-10.767,8.542c-2.648,1.407-6.522,1.809-8.573-0.909
			c-1.893-2.509,2.693-5.381,4.343-6.16C130.108,341.056,129.473,339.979,128.749,340.32L128.749,340.32z"/>
	</g>
	<g>
		<path fill="#070707" d="M341.556,184.429c13.132,19.213,16.53,42.573,17.483,65.34c0.992,23.72-0.202,47.464,0.819,71.201
			c1.189,27.638,3.477,55.233,3.07,82.918c-0.198,13.496-1.387,26.779-4.891,39.851c-3.373,12.586-11.467,21.883-17.529,33.107
			c-0.767,1.418,1.392,2.681,2.158,1.262c5.514-10.207,13.202-18.962,16.752-30.179c4.123-13.027,5.528-26.601,5.926-40.197
			c0.846-28.944-1.689-57.869-2.986-86.762c-1.112-24.784,0.212-49.588-0.96-74.356c-1.047-22.112-4.971-44.846-17.685-63.447
			C342.811,181.845,340.643,183.094,341.556,184.429L341.556,184.429z"/>
	</g>
	<polygon fill="none" stroke="#070707" stroke-width="2" stroke-miterlimit="10" points="241.449,66.188 266.473,53.031 
		261.692,80.895 281.938,100.629 253.962,104.694 241.449,130.046 228.936,104.694 200.96,100.629 221.206,80.895 216.426,53.031 	
		"/>
	<polygon fill="none" stroke="#070707" stroke-width="2" stroke-miterlimit="10" points="348.567,87.935 364.994,79.299 
		361.855,97.591 375.146,110.541 356.78,113.213 348.567,129.854 340.354,113.213 321.987,110.541 335.276,97.591 332.138,79.299 	
		"/>
	<polygon fill="none" stroke="#070707" stroke-width="2" stroke-miterlimit="10" points="136.758,89.53 153.188,80.895 
		150.049,99.184 163.337,112.137 144.972,114.809 136.758,131.449 128.544,114.809 110.179,112.137 123.467,99.184 120.329,80.895 	
		"/>
	<polygon fill="none" stroke="#070707" stroke-width="2" stroke-miterlimit="10" points="80.2,150.397 90.688,144.888 
		88.683,156.559 97.166,164.828 85.444,166.532 80.2,177.154 74.959,166.532 63.235,164.828 71.718,156.559 69.716,144.888 	"/>
	<polygon fill="none" stroke="#070707" stroke-width="2" stroke-miterlimit="10" points="417.822,156.575 428.309,151.065 
		426.305,162.739 434.787,171.005 423.065,172.709 417.822,183.331 412.583,172.709 400.862,171.005 409.343,162.739 
		407.338,151.065 	"/>
</g>
</svg>
