<?xml version="1.0" encoding="utf-8"?>
<!-- Generator: Adobe Illustrator 16.0.0, SVG Export Plug-In . SVG Version: 6.00 Build 0)  -->
<!DOCTYPE svg PUBLIC "-//W3C//DTD SVG 1.1//EN" "http://www.w3.org/Graphics/SVG/1.1/DTD/svg11.dtd">
<svg version="1.1" id="Layer_1" xmlns="http://www.w3.org/2000/svg" xmlns:xlink="http://www.w3.org/1999/xlink" x="0px" y="0px"
	 width="500px" height="550px" viewBox="0 0 500 550" enable-background="new 0 0 500 550" xml:space="preserve">
<g>
	<g>
		<path fill="#070707" d="M355.778,168.251c-10.838-19.802-30.348-32.47-51.615-38.774c-26.208-7.769-53.188-2.299-79.767,0.253
			c-13.483,1.295-25.993,3.618-38.184,9.824c-10.324,5.255-19.363,13.131-26.668,22.061c-13.083,15.994-19.56,36.385-22.216,56.616
			c-5.464,41.615,2.828,83.334,2.15,125.025c-0.232,14.275-1.231,28.504-2.345,42.732c-1.049,13.4-1.906,26.889-0.271,40.275
			c2.706,22.145,12.925,42.109,28.072,58.305c1.104,1.18,2.867-0.592,1.768-1.768c-19.581-20.938-28.571-46.691-28.245-75.18
			c0.187-16.346,2.234-32.643,3.013-48.967c0.742-15.562,0.813-31.143-0.154-46.697c-2.689-43.212-10.078-90.923,9.285-131.52
			c7.605-15.946,20.02-29.276,35.409-37.94c9.962-5.608,21.26-8.682,32.593-9.748c12.236-1.151,24.449-2.508,36.68-3.722
			c19.409-1.925,37.754-1.339,56.234,5.533c17.498,6.507,33.07,18.446,42.104,34.951
			C354.394,170.928,356.553,169.666,355.778,168.251L355.778,168.251z"/>
	</g>
	<g>
		<path fill="#070707" d="M188.276,499.453c19.964,12.322,45.34,12.275,67.951,10.428c11.463-0.938,22.855-2.666,34.188-4.59
			c12.553-2.131,26.641-3.117,37.634-10.033c1.36-0.855,0.107-3.02-1.262-2.158c-10.436,6.564-23.836,7.5-35.755,9.561
			c-11.542,1.996-23.133,3.701-34.806,4.721c-22.122,1.93-47.169,1.961-66.689-10.086
			C188.162,496.445,186.907,498.609,188.276,499.453L188.276,499.453z"/>
	</g>
	<g>
		<path fill="#070707" d="M215.49,133.054c1.612,0,1.612-2.5,0-2.5S213.878,133.054,215.49,133.054L215.49,133.054z"/>
	</g>
	<g>
		<path fill="#070707" d="M141.793,198.96c-8.416-3.014-15.92-4.901-20.71-13.21c-3.956-6.863-2.317-15.028,1.571-21.461
			c3.938-6.517,10.716-11.158,17.905-13.337c4.03-1.221,8.273-1.072,12.428-0.887c5.658,0.252,8.457,3.304,12.926,5.979
			c1.387,0.83,2.643-1.332,1.262-2.159c-4.491-2.688-6.84-5.67-12.407-6.162c-5.026-0.444-9.972-0.443-14.873,0.819
			c-8.004,2.061-14.902,7.69-19.399,14.486c-4.121,6.226-5.628,14.697-2.634,21.693c4.5,10.515,13.352,13.099,23.267,16.65
			C142.65,201.917,143.299,199.5,141.793,198.96L141.793,198.96z"/>
	</g>
	<g>
		<path fill="#070707" d="M339.354,149.672c12.638-6.501,32.261-9.731,41.604,3.594c9.665,13.783,3.997,36.525-13.885,39.594
			c-1.587,0.272-0.912,2.682,0.664,2.411c19.156-3.287,24.455-25.636,16.683-41.081c-8.646-17.18-32.045-14.024-46.328-6.677
			C336.658,148.251,337.923,150.409,339.354,149.672L339.354,149.672z"/>
	</g>
	<g>
		<path fill="#070707" d="M238.74,219.151c0.36-0.054,0.72-0.109,1.08-0.164c-0.105-0.388-0.211-0.776-0.316-1.165
			c-1.733,0.918-3.408,0.895-5.129,1.995c-2.325,1.485-4.453,3.274-6.428,5.192c-3.042,2.954-5.687,6.873-4.959,11.266
			c0.755,4.565,7.357,7.56,11.37,7.839c8.009,0.557,15.222-3.619,23.128-3.996c9.178-0.437,23.969,10.028,27.062-4.771
			c2.188-10.476-12.373-16.706-19.922-19.502c-0.758-0.281-1.081,0.928-0.332,1.205c7.492,2.775,19.013,7.615,19.132,17.048
			c0.183,14.347-18.532,5.008-25.939,4.77c-4.918-0.158-9.915,1.95-14.599,3.155c-6.183,1.59-16.289,1.392-18.694-6.081
			c-1.525-4.738,4.129-9.767,7.254-12.427c1.26-1.072,3.852-3.484,5.63-3.724c0.992-0.134,2.166-0.417,3.059-0.89
			c0.542-0.288,0.303-1.195-0.315-1.165c-0.503,0.025-0.879,0.112-1.412,0.208C237.615,218.09,237.952,219.294,238.74,219.151
			L238.74,219.151z"/>
	</g>
	<g>
		<path fill="#070707" d="M268.054,241.979c1.591,4.021,2.005,8.472,1.861,12.763c-0.091,2.745-0.647,5.751-2.542,7.847
			c-3.488,3.857-12.432,1.412-11.403-4.518c0.137-0.788-1.067-1.125-1.205-0.332c-1.31,7.547,8.658,9.767,13.492,5.733
			c5.243-4.375,3.127-16.455,1.002-21.826C268.966,240.906,267.757,241.229,268.054,241.979L268.054,241.979z"/>
	</g>
	<g>
		<path fill="#070707" d="M166.134,484.926c10.755-5.439,16.432,8.195,23.854,13.285c0.05-0.381,0.1-0.762,0.149-1.143
			c-5.766,0.883-10.489,4.645-15.016,8.068c-5.42,4.1-12.46,10.361-19.693,7.18c-9.393-4.133-6.547-13.125-0.849-18.719
			c4.286-4.205,9.722-7.375,15.051-10.072c0.72-0.365,0.086-1.443-0.631-1.08c-7.657,3.877-28.842,16.076-18.915,27.115
			c13.278,14.766,27.068-9.248,40.384-11.287c0.586-0.09,0.543-0.871,0.149-1.143c-8.047-5.518-13.493-19.162-25.115-13.285
			C164.783,484.211,165.416,485.289,166.134,484.926L166.134,484.926z"/>
	</g>
	<g>
		<path fill="#070707" d="M153.832,510.691c-1.803-6.318,2.892-11.244,8.108-13.984c0.714-0.375,0.082-1.455-0.631-1.08
			c-5.739,3.016-10.636,8.551-8.683,15.396C152.847,511.797,154.053,511.467,153.832,510.691L153.832,510.691z"/>
	</g>
	<g>
		<path fill="#070707" d="M359.508,511.599c-9.179,3.325-15.863-3.977-21.498-10.179c-2.322-2.555-4.427-4.984-7.345-6.838
			c-5.182-3.291,2.182-8.162,4.978-10.139c9.68-6.846,20.204-2.249,25.541,7.421c3.302,5.983,5.726,16.052-1.825,19.797
			c-0.723,0.358-0.089,1.437,0.631,1.08c8.038-3.987,5.816-13.941,2.736-20.595c-4.584-9.898-14.938-15.243-25.091-10.396
			c-3.687,1.76-7.832,4.996-9.889,8.545c-2.109,3.639,2.636,5.351,4.78,7.075c8.314,6.682,14.487,20.08,27.313,15.433
			C360.592,512.531,360.268,511.323,359.508,511.599z"/>
	</g>
	<g>
		<path fill="#070707" d="M351.463,496.02c4.083,4.232,7.307,9.643,7.511,15.648c0.027,0.803,1.277,0.807,1.25,0
			c-0.215-6.342-3.558-12.055-7.876-16.533C351.787,494.555,350.903,495.439,351.463,496.02L351.463,496.02z"/>
	</g>
	<g>
		<path fill="#070707" d="M373.478,314.707c6.102,0.072,12.104,1.03,17.523,3.956c5.912,3.192,10.521,11.301,7.607,17.946
			c-3.961,9.034-19.684-1.557-23.178-5.872c-0.508-0.626-1.387,0.264-0.885,0.885c4.552,5.618,19.76,14.954,25.142,5.618
			c3.04-5.272-0.375-12.814-4.096-16.698c-5.471-5.711-14.621-6.996-22.114-7.085C372.671,313.447,372.672,314.697,373.478,314.707
			L373.478,314.707z"/>
	</g>
	<g>
		<path fill="#070707" d="M388.118,330.383c4.082,1.262,9.099,4.744,6.62,9.574c-0.367,0.717,0.712,1.35,1.08,0.631
			c2.876-5.607-2.413-9.881-7.368-11.41C387.678,328.939,387.351,330.146,388.118,330.383L388.118,330.383z"/>
	</g>
	<path fill="none" stroke="#070707" stroke-width="1.5" stroke-miterlimit="10" d="M335.413,181.396
		c0-20.088-16.288-36.376-36.379-36.376c-20.092,0-36.379,16.288-36.379,36.376c0,20.096,16.287,36.379,36.379,36.379
		C319.125,217.775,335.413,201.493,335.413,181.396z"/>
	<circle fill="none" stroke="#070707" stroke-width="1.5" stroke-miterlimit="10" cx="207.416" cy="185.262" r="36.378"/>
	<circle fill="#070707" cx="361" cy="167.001" r="7.695"/>
	<path fill="#070707" d="M152.999,174.057c0-4.25-3.445-7.697-7.696-7.697c-4.248,0-7.694,3.446-7.694,7.697
		c0,4.248,3.446,7.693,7.694,7.693C149.554,181.75,152.999,178.305,152.999,174.057z"/>
	<ellipse fill="#070707" cx="253.455" cy="214.973" rx="16.278" ry="9.014"/>
	<path fill="#070707" d="M279.958,171.677c-6.569,0-11.891,5.325-11.891,11.893s5.321,11.893,11.891,11.893
		c6.571,0,11.896-5.325,11.896-11.893S286.529,171.677,279.958,171.677z M284.746,191.136c-1.858,0-3.366-1.507-3.366-3.369
		c0-1.856,1.508-3.367,3.366-3.367c1.859,0,3.367,1.511,3.367,3.367C288.113,189.628,286.605,191.136,284.746,191.136z"/>
	<path fill="#070707" d="M187.667,174.513c-6.571,0-11.896,5.325-11.896,11.893s5.324,11.893,11.896,11.893
		c6.564,0,11.89-5.325,11.89-11.893S194.231,174.513,187.667,174.513z M192.45,193.972c-1.859,0-3.364-1.513-3.364-3.372
		s1.505-3.363,3.364-3.363c1.861,0,3.369,1.504,3.369,3.363S194.312,193.972,192.45,193.972z"/>
	<g>
		<path fill="#070707" d="M254.231,240.402c0.389,7.07,2.269,17.063-2.425,23.08c-4.313,5.528-10.851-0.485-12.074-5.177
			c-1.247-4.784-0.532-10.429,0.844-15.104c0.228-0.775-0.978-1.104-1.205-0.332c-2.338,7.945-2.995,26.123,10.056,23.554
			c9.28-1.827,6.396-19.799,6.054-26.021C255.438,239.601,254.188,239.597,254.231,240.402L254.231,240.402z"/>
	</g>
	<g>
		<path fill="#070707" d="M140.533,318.595c-8.338-1.465-16.89,2.483-22.98,8.034c-4.314,3.932-6.518,9.877-0.54,13.198
			c0.705,0.392,1.335-0.688,0.631-1.08c-7.441-4.134,0.128-11.074,4.339-14.026c5.226-3.665,11.815-6.045,18.218-4.921
			C140.989,319.938,141.326,318.733,140.533,318.595L140.533,318.595z"/>
	</g>
	<g>
		<path fill="#070707" d="M123.049,332.958c-5.765,2.725-8.169,9.415-0.367,11.127c3.421,0.751,7.312-2.296,9.963-3.97
			c2.889-1.824,6.875-3.869,8.31-7.167c0.318-0.731-0.758-1.368-1.079-0.631c-1.693,3.893-7.239,6.401-10.743,8.521
			c-3.06,1.85-7.5,3.371-10.135-0.119c-2.056-2.723,2.886-5.832,4.682-6.681C124.408,333.693,123.773,332.616,123.049,332.958
			L123.049,332.958z"/>
	</g>
	<g>
		<path fill="#070707" d="M351.738,165.382c13.943,20.371,17.679,45.151,18.758,69.309c1.128,25.237-0.2,50.516,0.848,75.77
			c1.238,29.818,3.748,59.584,3.391,89.451c-0.18,15.037-1.411,29.848-5.355,44.408c-3.635,13.418-12.308,23.342-18.769,35.324
			c-0.766,1.42,1.394,2.682,2.158,1.262c5.896-10.934,14.15-20.303,17.961-32.314c4.406-13.889,5.948-28.365,6.384-42.867
			c0.936-31.127-1.784-62.234-3.185-93.307c-1.191-26.432,0.178-52.878-1.002-79.296c-1.073-24.017-5.198-48.793-19.03-69.001
			C352.992,162.799,350.824,164.048,351.738,165.382L351.738,165.382z"/>
	</g>
	<g>
		<path fill="#070707" d="M136.181,235.161c-14.883,7.688-31.198,3.735-46.031-1.958c-13.099-5.027-26.115-12.435-36.18-22.299
			c-5.918-5.8-10.335-13.262-10.245-21.732c0.081-7.583,4.279-14.519,8.993-20.159c11.266-13.483,27.744-22.641,43.232-30.388
			c15.717-7.862,32.092-14.112,48.877-19.262c56.148-17.227,115.673-25.566,174.376-21.767c27.146,1.757,55.179,5.944,80.861,15.212
			c18.783,6.778,40.12,17.4,51.316,34.66c10.661,16.435,0.518,32.848-13.466,43.181c-9.183,6.786-19.354,12.194-29.758,16.84
			c-5.686,2.539-11.463,4.772-17.552,6.121c-6.999,1.55-12.982,0.306-19.574-2.028c-0.762-0.27-1.087,0.938-0.332,1.205
			c5.668,2.007,10.771,3.441,16.865,2.577c6.909-0.98,13.344-3.398,19.725-6.139c12.93-5.555,25.93-12.442,36.54-21.789
			c6.735-5.934,12.268-13.604,13.386-22.684c0.959-7.797-2.591-15.303-7.174-21.356c-11.366-15.017-30.303-24.358-47.457-30.976
			c-24.145-9.313-50.775-13.309-76.436-15.546c-57.63-5.024-116.331,2.713-171.834,18.392
			c-17.597,4.971-34.716,10.972-51.332,18.608c-15.787,7.255-31.49,15.809-44.501,27.454c-13.425,12.016-22.12,29.586-9.643,45.623
			c9.344,12.009,23.962,20.428,37.794,26.162c15.957,6.616,33.945,11.513,50.179,3.128
			C137.528,235.87,136.896,234.791,136.181,235.161L136.181,235.161z"/>
	</g>
	<g>
		<path fill="#070707" d="M43.486,187.885c0.297-6.974,4.16-12.832,8.173-18.285c4.214-5.726,8.705-11.314,13.708-16.363
			c9.725-9.814,21.015-17.938,32.952-24.837c25.355-14.655,54.215-24.731,82.413-32.274c30.044-8.037,60.547-11.492,91.504-13.424
			c29.461-1.838,59.276-1.801,88.402,3.488c15.076,2.738,30.761,6.898,44.386,14.052c12.501,6.563,20.834,17.957,28.128,29.669
			c0.426,0.683,1.507,0.056,1.08-0.631c-5.658-9.085-11.858-18.239-20.463-24.813c-10.011-7.648-22.305-11.729-34.284-15.183
			c-27.473-7.921-56.566-9.388-84.999-8.792c-29.245,0.614-58.621,2.865-87.379,8.33c-29.238,5.557-57.333,14.835-84.701,26.418
			c-17.845,7.552-34.778,16.943-49.632,29.468c-7.685,6.48-14.012,13.786-20.196,21.654c-4.949,6.295-9.988,13.243-10.341,21.522
			C42.202,188.691,43.452,188.688,43.486,187.885L43.486,187.885z"/>
	</g>
	<g>
		<path fill="#070707" d="M170.48,98.059c1.333-2.969,0.277-5.549-1.081-8.349c-2.845-5.865-6.411-11.046-4.642-17.89
			c2.272-8.79,11.08-10.417,18.9-10.53c6.851-0.099,13.697,0.849,20.533,0.038c9.183-1.09,18.151-5.794,26.5-9.508
			c18.669-8.306,39.285-12.146,59.586-14.177c9.275-0.928,22.474-1.934,28.703,6.494c3.174,4.294,3.365,10.273,3.396,15.378
			c0.043,7.13-0.54,14.279-1.496,21.34c-0.106,0.788,1.098,1.128,1.205,0.332c1.46-10.782,3.427-23.518-0.192-34.062
			c-2.908-8.475-11.413-10.587-19.425-11.106c-10.164-0.658-20.547,1.268-30.509,3.061c-11.133,2.004-22.171,3.66-32.773,7.776
			c-11.109,4.314-21.634,10.32-33.35,12.94c-8.162,1.826-16.943-0.073-25.224,0.338c-6.094,0.302-11.985,2.1-15.411,7.454
			c-2.083,3.256-2.657,7.301-2.078,11.041c0.888,5.736,8.822,13.125,6.276,18.797C169.074,98.157,170.15,98.793,170.48,98.059
			L170.48,98.059z"/>
	</g>
	<g>
		<path fill="#070707" d="M200.703,71.909c1.889-0.41,4.366,0.696,6.185,1.158c1.854,0.471,3.806,0.578,5.702,0.792
			c3.471,0.391,6.876-0.288,10.059-1.642c7.573-3.222,13.075-11.172,19.434-16.161c0.634-0.497-0.258-1.375-0.885-0.884
			c-6.209,4.873-11.287,11.516-18.168,15.459c-4.378,2.509-8.757,1.93-13.522,1.547c-2.981-0.24-6.147-2.124-9.136-1.475
			C199.583,70.875,199.917,72.08,200.703,71.909L200.703,71.909z"/>
	</g>
	<g>
		<path fill="#070707" d="M145.363,450.523c0.456,0.844,2.186,1.242,2.975,1.581c2.701,1.161,5.445,2.226,8.184,3.292
			c7.384,2.873,15.002,4.711,22.777,6.234c23.877,4.679,48.735,7.371,73.018,8.597c24.593,1.241,49.275-0.027,73.652-3.435
			c8.936-1.249,17.832-2.739,26.49-5.316c4.933-1.468,12.849-3.591,15.265-8.741c0.34-0.726-0.737-1.36-1.08-0.631
			c-2.725,5.811-12.722,7.73-18.281,9.236c-9.244,2.505-18.842,3.772-28.318,5c-22.439,2.907-45.133,3.665-67.728,2.637
			c-23.024-1.049-46.347-3.962-69.052-7.883c-7.776-1.343-15.75-2.888-23.159-5.66c-2.657-0.993-5.296-2.034-7.929-3.09
			c-1.199-0.479-5.173-1.413-5.735-2.452C146.059,449.184,144.979,449.814,145.363,450.523L145.363,450.523z"/>
	</g>
	<g>
		<path fill="#070707" d="M232.665,467.66c-4.438-6.337-3.266-15.508-2.889-22.875c0.259-5.047,1.466-8.092,6.412-9.79
			c4.539-1.559,9.369-2.231,14.111-2.796c6.199-0.738,12.417-1.11,18.557-2.284c5.983-1.144,11.926-2.469,17.938-3.457
			c5.609-0.922,11.744-1.824,17.374-0.576c5.369,1.189,7.884,7.654,9.055,12.336c2.173,8.688,1.629,22.273-5.52,28.707
			c-0.6,0.541,0.287,1.422,0.885,0.885c7.659-6.895,7.841-20.672,5.84-29.925c-1.027-4.749-3.328-9.372-7.437-12.13
			c-4.709-3.161-12.494-1.614-17.65-0.931c-7,0.928-13.896,2.524-20.817,3.886c-9.652,1.898-19.556,1.851-29.161,4.076
			c-6.372,1.477-10.049,3.38-10.678,10.26c-0.728,7.962-1.943,18.33,2.9,25.245C232.044,468.946,233.129,468.322,232.665,467.66
			L232.665,467.66z"/>
	</g>
	<g>
		<path fill="#070707" d="M276.013,436.85c-9.405,0.864-18.739,3.172-27.942,5.229c-1.681,0.376-1.946,1.976-2.147,3.446
			c-0.416,3.043-0.208,7.324,0.793,10.295c1.496,4.438,7.843,4.821,11.643,5.033c7.113,0.396,14.239-0.675,21.331-1.04
			c9.06-0.465,22.809-1.373,22.962-13.375c0.198-15.438-17.415-11.214-26.806-9.565c-0.793,0.139-0.456,1.344,0.332,1.205
			c9.703-1.703,25.406-5.858,25.21,9.472c-0.137,10.635-15.264,10.684-22.588,11.06c-8.699,0.447-19.656,3.142-27.963-0.382
			c-3.973-1.686-3.43-5.714-3.559-9.063c-0.189-4.913,0.327-5.741,4.805-6.602c7.995-1.537,15.794-3.715,23.93-4.462
			C276.809,438.026,276.815,436.775,276.013,436.85z"/>
	</g>
	<g>
		<path fill="#070707" d="M246.871,452.299c7.806,0.678,15.814-2.617,23.13-4.883c7.159-2.217,18.195-6.73,25.128-1.926
			c0.664,0.461,1.288-0.623,0.631-1.08c-6.058-4.197-14.805-1.451-21.223,0.346c-8.784,2.459-18.359,7.102-27.666,6.293
			C246.067,450.98,246.074,452.23,246.871,452.299L246.871,452.299z"/>
	</g>
	<g>
		<path fill="#070707" d="M249.857,456.785c5.74-0.553,49.841-2.211,46.189-12c-0.279-0.748-1.487-0.426-1.205,0.332
			c2.741,7.35-39.585,9.898-44.984,10.418C249.062,455.611,249.055,456.863,249.857,456.785L249.857,456.785z"/>
	</g>
	<g>
		<path fill="#070707" d="M346.585,459.461c-0.117-12.88,4.938-29.342-4.362-40.298c-5.673-6.684-10.271,8.996-10.764,12.169
			c-0.123,0.788,1.082,1.127,1.205,0.332c0.461-2.962,1.382-5.828,2.647-8.542c0.677-1.451,1.585-2.837,2.896-3.785
			c3.453-2.495,6.497,6.779,6.974,8.242c3.293,10.112,0.059,21.52,0.153,31.882C345.342,460.267,346.593,460.268,346.585,459.461
			L346.585,459.461z"/>
	</g>
	<g>
		<path fill="#070707" d="M308.729,427.616c8.302,1.702,19.987-2.341,24.145,7.595c2.057,4.917,0.614,10.92-0.352,15.89
			c-0.337,1.729-0.7,3.465-0.928,5.214c-0.374,2.871,0.488,5.122,0.76,8.003c0.075,0.795,1.325,0.803,1.25,0
			c-0.313-3.328-1.062-6.108-0.51-9.523c0.452-2.795,1.078-5.561,1.538-8.356c0.697-4.238,0.9-9.335-1.258-13.241
			c-4.896-8.864-16.203-5.122-24.313-6.785C308.275,426.25,307.94,427.454,308.729,427.616L308.729,427.616z"/>
	</g>
	<g>
		<path fill="#070707" d="M202.658,463.631c0.943-8.047,0.802-16.455-0.256-24.475c-0.609-4.621-2.1-14.047-8.589-13.514
			c-6.101,0.502-5.547,12.793-5.457,16.613c0.15,6.418,0.475,16.711,5.015,21.816c0.537,0.604,1.418-0.283,0.885-0.885
			c-3.904-4.389-4.175-13.377-4.551-18.832c-0.24-3.48-0.855-20.537,6.49-17.08c5.366,2.523,5.337,14.189,5.602,18.963
			c0.318,5.754,0.283,11.66-0.389,17.393C201.314,464.43,202.565,464.422,202.658,463.631L202.658,463.631z"/>
	</g>
	<g>
		<path fill="#070707" d="M200.717,432.72c5.194,2.748,10.633,3.862,16.471,4.106c3.083,0.129,6.166-0.177,9.248-0.097
			c2.136,0.057,4.057,0.413,6.117-0.289c0.759-0.259,0.433-1.466-0.332-1.205c-3.78,1.288-9.421,0.33-13.401,0.361
			c-6.147,0.05-12.017-1.07-17.471-3.957C200.636,431.264,200.004,432.342,200.717,432.72L200.717,432.72z"/>
	</g>
	<g>
		<path fill="#070707" d="M346.662,429.647c9.839,3.179,20.865,0.259,27.52-7.737c0.511-0.615-0.368-1.505-0.885-0.885
			c-6.39,7.68-16.848,10.472-26.303,7.417C346.225,428.193,345.898,429.4,346.662,429.647L346.662,429.647z"/>
	</g>
	<g>
		<path fill="#070707" d="M189.703,430.271c-1.543-0.48-2.797-0.58-4.438-0.29c-3.308,0.585-6.149,0.516-9.462,0.146
			c-5.724-0.641-11.418-1.43-17.125-2.203c-2.85-0.387-19.198-1.686-19.198-5.616c0-0.806-1.25-0.806-1.25,0
			c0,4.746,12.391,5.633,15.417,6.13c4.054,0.666,8.143,1.206,12.211,1.769c3.905,0.54,7.826,0.934,11.744,1.372
			c3.766,0.421,8.255-1.195,11.77-0.102C190.142,431.717,190.47,430.51,189.703,430.271L189.703,430.271z"/>
	</g>
	<g>
		<path fill="#070707" d="M139.876,312.046c4.486,8.089,11.692,13.442,19.661,17.831c10.127,5.577,21.055,9.943,31.879,13.952
			c21.958,8.132,44.82,13.917,68.266,14.995c20.791,0.956,41.915-1.822,61.397-9.27c9.698-3.706,18.801-8.837,27.056-15.12
			c9.197-7.001,16.187-16.427,23.956-24.874c0.544-0.593-0.338-1.479-0.885-0.885c-7.378,8.024-14.072,16.667-22.466,23.693
			c-8.237,6.896-18.055,12.034-27.993,15.98c-18.81,7.468-39.398,9.865-59.514,9.282c-22.062-0.639-43.475-6.026-64.268-13.149
			c-11.216-3.842-22.191-8.426-32.836-13.641c-9.241-4.526-18.064-10.215-23.174-19.427
			C140.564,310.71,139.484,311.341,139.876,312.046L139.876,312.046z"/>
	</g>
	<g>
		<path fill="#070707" d="M141.182,331.643c2.364,3.67,5.872,6.09,9.239,8.767c4.602,3.658,9.246,7.223,14.041,10.628
			c10.333,7.34,21.206,13.9,32.237,20.128c11.046,6.236,22.334,12.037,33.626,17.811c11.575,5.917,22.998,12.451,34.879,17.725
			c6.9,3.063,14.839,4.981,21.995,1.547c5.116-2.455,9.145-6.243,13.32-10.012c5.126-4.627,10.11-9.41,15.064-14.22
			c19.32-18.756,38.172-38.001,57.553-56.688c0.581-0.561-0.305-1.443-0.885-0.885c-17.569,16.942-34.769,34.305-52.17,51.424
			c-8.481,8.344-17.052,16.597-26.01,24.432c-9.812,8.581-20.086,7.133-31.118,2.015c-10.299-4.777-20.269-10.43-30.383-15.592
			c-10.762-5.492-21.499-11.033-32.079-16.87c-10.568-5.831-20.917-12.053-30.927-18.8c-5.328-3.591-10.511-7.395-15.565-11.361
			c-4.093-3.213-8.881-6.243-11.738-10.678C141.827,330.337,140.744,330.963,141.182,331.643L141.182,331.643z"/>
	</g>
	<g>
		<path fill="#070707" d="M140.921,320.668c3.506,5.88,8.609,10.169,13.97,14.313c6.353,4.91,12.877,9.531,19.647,13.849
			c14.502,9.249,29.919,17.007,45.49,24.272c0.726,0.338,1.361-0.739,0.631-1.08c-14.448-6.741-28.655-13.965-42.275-22.269
			c-7.009-4.272-13.784-8.916-20.311-13.895c-6.045-4.61-12.116-9.189-16.072-15.822
			C141.588,319.346,140.507,319.974,140.921,320.668L140.921,320.668z"/>
	</g>
	<g>
		<path fill="#070707" d="M372.677,316.38c-1.737,3.472-5.109,7.059-7.686,9.896c-3.064,3.377-6.52,6.394-9.76,9.597
			c-0.573,0.567,0.311,1.451,0.885,0.885c3.245-3.21,6.625-6.277,9.76-9.597c2.798-2.965,6.057-6.507,7.881-10.149
			C374.116,316.292,373.038,315.659,372.677,316.38L372.677,316.38z"/>
	</g>
	<g>
		<path fill="#070707" d="M345.419,459.614c-0.013,0.709-0.228,1.388-0.262,2.091c-0.039,0.806,1.211,0.803,1.25,0
			c0.031-0.64,0.249-1.395,0.262-2.091C346.684,458.808,345.434,458.81,345.419,459.614L345.419,459.614z"/>
	</g>
	<g>
		<path fill="#070707" d="M250.154,455.593c-0.436,0-0.871,0-1.307,0c-0.806,0-0.806,1.25,0,1.25c0.436,0,0.871,0,1.307,0
			C250.96,456.843,250.96,455.593,250.154,455.593L250.154,455.593z"/>
	</g>
	<g>
		<path fill="#070707" d="M152.489,441.83c-0.118-0.068,0.098,0.101-0.011-0.013c0.093,0.097-0.04-0.073-0.058-0.107
			c-0.005-0.011-0.083-0.287-0.087-0.354c-0.02-0.268,0.041-0.517,0.349-0.632c0.371-0.14,0.923-0.109,1.246,0.045
			c0.291,0.139,0.357,0.267,0.422,0.565c0.079,0.358-0.192,1.033-0.468,1.238c-0.045,0.034-0.095,0.062-0.144,0.09
			c-0.082,0.045,0.046-0.006-0.107,0.035c-0.091,0.024,0.062,0.007-0.105,0.003c0.134,0.003-0.077-0.022-0.116-0.035
			c0.091,0.03-0.111-0.071-0.137-0.088c-0.003-0.002-0.123-0.118-0.16-0.157c-0.171-0.179-0.289-0.409-0.401-0.627
			c-0.369-0.717-1.448-0.084-1.079,0.631c0.544,1.056,1.696,2.036,2.879,1.228c0.877-0.599,1.336-1.876,0.975-2.887
			c-0.492-1.378-2.358-1.711-3.546-1.066c-1.086,0.59-1.189,2.573-0.084,3.212C152.557,443.313,153.186,442.233,152.489,441.83
			L152.489,441.83z"/>
	</g>
	<g>
		<path fill="#070707" d="M359.188,443.771c-0.096-0.395-0.172-0.718-0.149-1.118c-0.001,0.021,0.062-0.144,0.019-0.069
			c-0.051,0.087-0.152,0.14-0.242,0.144c-0.174,0.006,0.143,0.059,0-0.005c0.1,0.045,0.192,0.105,0.282,0.167
			c0.082,0.058-0.08-0.068,0.055,0.044c0.051,0.041,0.098,0.085,0.146,0.129c0.112,0.104,0.216,0.216,0.315,0.331
			c0.018,0.02,0.156,0.192,0.063,0.073c0.042,0.053,0.081,0.108,0.119,0.163c0.073,0.105,0.14,0.215,0.201,0.328
			c0.028,0.052,0.054,0.105,0.079,0.159c-0.076-0.165-0.003,0.002,0.01,0.04c0.074,0.226,0.038-0.046,0.025,0.164
			c0.007-0.121,0.012-0.181,0.156-0.275c-0.073,0.048,0.162-0.046,0.005-0.011c0.197-0.045-0.009-0.008-0.076-0.013
			c-0.084-0.005,0.073,0.018-0.1-0.02c-0.086-0.019-0.171-0.045-0.256-0.071c-0.233-0.071-0.457-0.169-0.678-0.272
			c-0.726-0.339-1.36,0.738-0.631,1.08c0.697,0.325,2.196,1.031,2.71,0.028c0.386-0.753-0.221-1.613-0.679-2.18
			c-0.459-0.566-1.182-1.224-1.969-1.084c-1.142,0.202-0.791,1.864-0.611,2.6C358.174,444.887,359.379,444.555,359.188,443.771
			L359.188,443.771z"/>
	</g>
	<g>
		<path fill="#070707" d="M216.006,451.42c0.179-0.502,0.527-0.953,0.993-1.217c0.493-0.279,0.606,0.398,0.653,0.789
			c0.046,0.384-0.079,0.603-0.485,0.616c-0.586,0.019-0.825-0.559-0.9-1.044c-0.122-0.795-1.327-0.456-1.205,0.332
			c0.168,1.091,0.979,1.926,2.105,1.962c1.022,0.032,1.866-0.848,1.735-1.866c-0.136-1.061-0.646-2.343-1.962-2.08
			c-1.05,0.21-1.8,1.225-2.14,2.176C214.529,451.849,215.737,452.174,216.006,451.42L216.006,451.42z"/>
	</g>
	<g>
		<path fill="#070707" d="M180.813,431.048c-3.731,1.854-6.949,3.222-9.058,6.967c-1.848,3.281-1.232,7.235,0.158,10.509
			c3.283,7.732,13.069,12.228,20.331,15.09c0.75,0.296,1.073-0.913,0.332-1.205c-6.101-2.404-11.9-5.473-16.533-10.195
			c-3.307-3.371-4.85-7.685-3.688-12.351c1.108-4.451,5.503-5.953,9.088-7.734C182.166,431.769,181.533,430.69,180.813,431.048
			L180.813,431.048z"/>
	</g>
</g>
</svg>
