<?xml version="1.0" encoding="utf-8"?>
<!-- Generator: Adobe Illustrator 16.0.0, SVG Export Plug-In . SVG Version: 6.00 Build 0)  -->
<!DOCTYPE svg PUBLIC "-//W3C//DTD SVG 1.1//EN" "http://www.w3.org/Graphics/SVG/1.1/DTD/svg11.dtd">
<svg version="1.1" id="Layer_1" xmlns="http://www.w3.org/2000/svg" xmlns:xlink="http://www.w3.org/1999/xlink" x="0px" y="0px"
	 width="500px" height="550px" viewBox="0 0 500 550" enable-background="new 0 0 500 550" xml:space="preserve">
<g>
	<g>
		<path fill="#070707" d="M361.502,114.109c-10.799-19.716-30.338-32.23-51.56-38.324c-26.628-7.646-54.237-1.591-81.188,0.833
			c-24.997,2.249-46.822,13.579-62.07,33.665c-12.801,16.862-18.229,38.027-20.426,58.75c-4.301,40.572,3.763,81.318,2.681,121.956
			c-0.677,25.438-5.913,51.73-2.37,77.086c3.014,21.569,12.619,40.83,27.494,56.672c1.105,1.178,2.87-0.594,1.768-1.768
			c-19.797-21.084-28.292-47.082-27.689-75.733c0.34-16.157,2.305-32.26,3.017-48.405c0.678-15.383,0.593-30.75-0.414-46.114
			c-2.829-43.154-10.011-91.815,11.806-131.473c8.354-15.186,21.478-27.435,37.109-34.859c10.498-4.986,21.604-6.568,33.045-7.637
			c11.858-1.107,23.681-2.555,35.542-3.633c34.504-3.138,73.416,7.972,91.096,40.249
			C360.118,116.785,362.277,115.523,361.502,114.109L361.502,114.109z"/>
	</g>
	<g>
		<path fill="#070707" d="M196.99,439.37c19.71,12.153,44.76,12.06,67.073,10.21c11.504-0.954,22.934-2.715,34.306-4.661
			c12.013-2.056,25.373-3.05,35.897-9.673c1.36-0.855,0.107-3.02-1.262-2.158c-10.293,6.477-23.544,7.39-35.3,9.42
			c-11.157,1.928-22.36,3.573-33.642,4.572c-21.82,1.933-46.547,2.01-65.811-9.868C196.875,436.363,195.621,438.526,196.99,439.37
			L196.99,439.37z"/>
	</g>
	<g>
		<path fill="#070707" d="M151.094,144.225c-4.007-1.355-7.905-2.014-11.642-4.145c-4.248-2.422-7.323-6.341-9.142-10.819
			c-3.222-7.932-0.447-16.808,4.836-23.065c4.769-5.648,11.969-9.014,19.216-9.886c3.964-0.477,8.292-0.188,12.189,0.57
			c3.871,0.752,5.314,3.822,8.547,5.067c1.507,0.58,2.153-1.838,0.665-2.411c-1.437-0.553-1.992-2.268-3.312-2.983
			c-2.209-1.197-4.366-1.915-6.845-2.397c-4.063-0.79-8.845-0.823-12.931-0.138c-8.55,1.433-15.897,5.87-21.165,12.742
			c-5.372,7.01-6.317,16.502-3.038,24.576c1.429,3.519,4.082,6.851,7.125,9.104c4.671,3.457,9.449,4.375,14.832,6.196
			C151.96,147.153,152.612,144.738,151.094,144.225L151.094,144.225z"/>
	</g>
	<g>
		<path fill="#070707" d="M345.362,95.899c12.483-6.413,31.79-9.554,40.931,3.684c9.352,13.543,3.727,35.68-13.729,38.682
			c-1.587,0.273-0.912,2.682,0.664,2.411c18.724-3.22,23.958-24.945,16.522-40.128c-8.384-17.12-31.521-14.067-45.65-6.809
			C342.666,94.478,343.931,96.634,345.362,95.899L345.362,95.899z"/>
	</g>
	<g>
		<path fill="#070707" d="M246.557,164.115c0.353-0.053,0.705-0.105,1.057-0.159c-0.104-0.388-0.21-0.776-0.314-1.165
			c-1.727,0.918-3.384,0.901-5.102,2.001c-2.364,1.515-4.52,3.347-6.508,5.321c-3.015,2.994-5.637,7.084-4.422,11.447
			c1.338,4.802,8.102,6.866,12.381,7.163c7.74,0.537,14.887-4.229,22.662-3.979c7.671,0.246,23.859,9.328,25.257-4.899
			c1.031-10.506-11.487-15.993-19.595-18.995c-0.758-0.281-1.082,0.928-0.332,1.205c7.351,2.722,18.664,7.47,18.781,16.727
			c0.178,14.077-18.193,4.902-25.461,4.669c-10.202-0.328-24.515,10.288-32.16-1.508c-3.086-4.76,3.26-10.667,6.409-13.385
			c1.266-1.093,3.911-3.567,5.714-3.812c0.975-0.132,2.129-0.411,3.006-0.876c0.542-0.289,0.303-1.194-0.316-1.165
			c-0.494,0.023-0.866,0.109-1.389,0.204C245.432,163.053,245.769,164.257,246.557,164.115L246.557,164.115z"/>
	</g>
	<g>
		<path fill="#070707" d="M275.327,187.036c1.562,3.948,1.969,8.317,1.828,12.53c-0.091,2.693-0.636,5.643-2.495,7.699
			c-3.418,3.783-12.184,1.379-11.178-4.43c0.137-0.788-1.068-1.125-1.205-0.332c-1.285,7.421,8.51,9.619,13.268,5.646
			c5.151-4.301,3.077-16.166,0.987-21.445C276.239,185.963,275.03,186.286,275.327,187.036L275.327,187.036z"/>
	</g>
	<g>
		<path fill="#070707" d="M175.264,425.091c10.552-5.336,16.131,8.051,23.41,13.051c0.05-0.381,0.1-0.762,0.149-1.143
			c-5.824,0.896-10.574,4.758-15.14,8.216c-5.218,3.952-11.94,9.774-18.883,6.777c-8.963-3.868-6.66-12.549-1.239-18.039
			c4.253-4.309,9.769-7.517,15.136-10.236c0.719-0.365,0.086-1.443-0.631-1.08c-7.493,3.798-28.268,15.741-18.629,26.578
			c13.015,14.634,26.637-9,39.718-11.011c0.586-0.09,0.542-0.872,0.149-1.143c-7.902-5.429-13.252-18.824-24.671-13.051
			C173.913,424.375,174.546,425.453,175.264,425.091L175.264,425.091z"/>
	</g>
	<g>
		<path fill="#070707" d="M163.188,450.38c-1.768-6.2,2.84-11.028,7.958-13.719c0.714-0.376,0.082-1.454-0.631-1.08
			c-5.64,2.966-10.45,8.402-8.532,15.131C162.203,451.486,163.409,451.156,163.188,450.38L163.188,450.38z"/>
	</g>
	<g>
		<path fill="#070707" d="M364.13,451.608c-9.394,2.18-15.622-5.41-21.251-11.674c-1.769-1.967-4.038-3.486-5.909-5.362
			c-4.579-4.592,3.112-8.947,6.518-11.093C361.62,412.053,379.533,446.238,364.13,451.608c-0.756,0.264-0.431,1.472,0.332,1.205
			c7.927-2.763,7.272-11.399,4.946-18.047c-3.422-9.781-12.834-17.187-23.339-13.877c-4.197,1.322-8.814,4.775-11.304,8.394
			c-2.393,3.477,1.768,6.723,4.076,8.727c7.669,6.658,13.894,17.525,25.62,14.804C365.247,452.632,364.914,451.426,364.13,451.608z"
			/>
	</g>
	<g>
		<path fill="#070707" d="M357.234,435.984c4.002,4.154,7.175,9.464,7.375,15.356c0.027,0.804,1.277,0.807,1.25,0
			c-0.212-6.229-3.502-11.841-7.74-16.241C357.559,434.519,356.676,435.403,357.234,435.984L357.234,435.984z"/>
	</g>
	<g>
		<path fill="#070707" d="M380.343,258.25c6.052-0.334,11.954,1.078,17.032,4.43c5.108,3.371,9.102,11.343,5.893,17.224
			c-4.389,8.04-19.052-1.994-22.482-6.236c-0.508-0.627-1.387,0.264-0.885,0.885c4.452,5.504,19.634,14.799,24.769,5.392
			c2.799-5.128-0.362-12.199-3.896-16.026c-4.982-5.397-13.366-7.307-20.43-6.917C379.541,257.044,379.537,258.294,380.343,258.25
			L380.343,258.25z"/>
	</g>
	<g>
		<path fill="#070707" d="M393.229,273.336c4.003,1.237,8.928,4.649,6.496,9.39c-0.367,0.716,0.712,1.349,1.08,0.631
			c2.829-5.517-2.368-9.72-7.244-11.226C392.789,271.893,392.462,273.099,393.229,273.336L393.229,273.336z"/>
	</g>
	<circle fill="none" stroke="#070707" stroke-width="1.5" stroke-miterlimit="10" cx="305.759" cy="127.033" r="35.723"/>
	<path fill="none" stroke="#070707" stroke-width="1.5" stroke-miterlimit="10" d="M251.516,130.823
		c0-19.723-15.994-35.717-35.723-35.717c-19.728,0-35.72,15.995-35.72,35.717c0,19.729,15.992,35.722,35.72,35.722
		C235.521,166.545,251.516,150.552,251.516,130.823z"/>
	<path fill="#070707" d="M374.163,112.892c0-4.168-3.383-7.552-7.555-7.552c-4.177,0-7.557,3.383-7.557,7.552
		c0,4.174,3.38,7.558,7.557,7.558C370.78,120.45,374.163,117.066,374.163,112.892z"/>
	<circle fill="#070707" cx="154.871" cy="120.279" r="7.555"/>
	<path fill="#070707" d="M276.984,160.001c0-4.892-7.156-8.854-15.982-8.854s-15.986,3.962-15.986,8.854
		c0,4.886,7.16,8.852,15.986,8.852S276.984,164.887,276.984,160.001z"/>
	<path fill="#070707" d="M304.638,133.778c-6.447,0-11.678,5.226-11.678,11.676s5.23,11.681,11.678,11.681
		c6.453,0,11.679-5.231,11.679-11.681S311.091,133.778,304.638,133.778z M309.337,152.883c-1.822,0-3.306-1.48-3.306-3.306
		c0-1.825,1.483-3.305,3.306-3.305c1.829,0,3.312,1.48,3.312,3.305C312.649,151.403,311.166,152.883,309.337,152.883z"/>
	<path fill="#070707" d="M214.009,136.561c-6.45,0-11.678,5.226-11.678,11.676c0,6.449,5.229,11.678,11.678,11.678
		c6.45,0,11.678-5.229,11.678-11.678C225.688,141.787,220.459,136.561,214.009,136.561z M218.71,155.666
		c-1.823,0-3.306-1.48-3.306-3.308c0-1.823,1.483-3.303,3.306-3.303c1.828,0,3.308,1.48,3.308,3.303
		C222.018,154.186,220.538,155.666,218.71,155.666z"/>
	<g>
		<path fill="#070707" d="M261.553,184.659c0.212,7.069,2.06,15.534-1.45,22.067c-1.299,2.418-3.818,3.018-6.37,2.665
			c-3.673-0.508-5.347-3.585-6.195-6.841c-1.223-4.695-0.521-10.238,0.831-14.827c0.229-0.775-0.978-1.104-1.205-0.332
			c-2.34,7.935-2.94,25.501,9.898,23.184c9.334-1.685,5.925-19.822,5.741-25.916C262.778,183.854,261.528,183.852,261.553,184.659
			L261.553,184.659z"/>
	</g>
	<g>
		<path fill="#070707" d="M149.865,260.973c-8.188-1.438-16.6,2.434-22.579,7.891c-4.24,3.869-6.404,9.716-0.525,12.98
			c0.705,0.392,1.335-0.688,0.631-1.08c-7.297-4.051,0.127-10.863,4.258-13.757c5.131-3.595,11.598-5.933,17.882-4.829
			C150.321,262.316,150.658,261.111,149.865,260.973L149.865,260.973z"/>
	</g>
	<g>
		<path fill="#070707" d="M132.944,275.845c-2.26,1.059-5.534,3.28-5.54,6.155c-0.004,2.604,2.428,4.462,4.915,4.735
			c3.137,0.345,6.324-1.562,8.899-3.111c2.694-1.62,5.612-3.633,7.598-6.106c0.5-0.622-0.379-1.513-0.884-0.885
			c-2.697,3.359-6.875,5.903-10.713,7.736c-2.67,1.275-5.274,1.717-7.756-0.312c-3.122-2.554,2.164-6.221,4.111-7.132
			C134.304,276.583,133.669,275.506,132.944,275.845L132.944,275.845z"/>
	</g>
	<g>
		<path fill="#070707" d="M357.493,111.319c13.565,19.822,17.287,43.896,18.388,67.409c1.176,25.12-0.178,50.29,0.876,75.429
			c1.22,29.089,3.652,58.129,3.316,87.265c-0.171,14.825-1.374,29.427-5.26,43.781c-3.565,13.169-12.085,22.922-18.428,34.682
			c-0.766,1.419,1.393,2.681,2.158,1.262c5.791-10.735,13.901-19.943,17.64-31.736c4.334-13.671,5.845-27.918,6.271-42.19
			c0.927-31.048-1.842-62.069-3.198-93.062c-1.123-25.661,0.252-51.343-0.948-76.989c-1.095-23.376-5.2-47.448-18.657-67.111
			C358.747,108.736,356.58,109.985,357.493,111.319L357.493,111.319z"/>
	</g>
	<g>
		<path fill="#070707" d="M75.323,243.724c15.583,9.231,30.016,20.716,47.437,26.391c0.769,0.251,1.095-0.957,0.332-1.205
			c-17.313-5.64-31.652-17.091-47.138-26.266C75.258,242.232,74.63,243.312,75.323,243.724L75.323,243.724z"/>
	</g>
	<g>
		<path fill="#070707" d="M144.102,284.561c26.909,17.23,56.72,29.232,86.125,41.438c0.744,0.31,1.065-0.9,0.332-1.205
			c-29.304-12.164-59.009-24.142-85.826-41.313C144.052,283.045,143.426,284.127,144.102,284.561L144.102,284.561z"/>
	</g>
	<g>
		<path fill="#070707" d="M391.625,281.519c-13.361,4.571-25.807,11.208-38.207,17.887c-13.606,7.327-26.92,15.149-40.049,23.298
			c-0.684,0.425-0.056,1.506,0.631,1.08c12.614-7.83,25.393-15.382,38.455-22.44c12.82-6.928,25.674-13.889,39.502-18.619
			C392.715,282.465,392.39,281.257,391.625,281.519L391.625,281.519z"/>
	</g>
	<g>
		<path fill="#070707" d="M406.273,266.893c4.66-0.66,8.735-5.075,12.522-7.596c6.504-4.33,13.036-8.613,19.683-12.721
			c5.17-3.195,10.378-6.638,15.878-9.236c2.634-1.245,7.206-2.785,8.001-6.008c0.193-0.783-1.012-1.114-1.205-0.332
			c-0.81,3.282-6.921,4.9-9.588,6.329c-5.247,2.81-10.317,6.067-15.379,9.195c-5.537,3.422-10.97,7.014-16.393,10.611
			c-4.006,2.657-8.983,7.863-13.852,8.553C405.146,265.8,405.485,267.004,406.273,266.893L406.273,266.893z"/>
	</g>
	<g>
		<path fill="#070707" d="M231.155,328.085c13.338,9.026,29.633,7.29,44.85,6.063c12.271-0.988,27.282-0.287,36.508-9.923
			c0.557-0.582-0.326-1.468-0.885-0.885c-9.217,9.629-24.61,8.671-36.863,9.658c-14.616,1.177-30.178,2.669-42.979-5.994
			C231.116,326.552,230.491,327.636,231.155,328.085L231.155,328.085z"/>
	</g>
	<g>
		<path fill="#070707" d="M258.271,336.843c2.111,11.974,6.146,27.831-4.008,37.391c-5.433,5.114-13.757,7.552-20.016,11.546
			c-4.197,2.678-10.283,7.352-9.051,13.138c1.585,7.449,9.002,11.197,16.084,10.263c9.541-1.26,17.523-8.058,26.214-11.639
			c7.38-3.04,16.076-3.033,23.853-4.45c6.907-1.259,14.917-3.192,19.343-9.118c4.991-6.681,0.316-16.816-2.786-23.238
			c-4.4-9.11-9.28-17.711-7.05-28.187c0.168-0.786-1.037-1.12-1.205-0.332c-2.191,10.291,2.1,19.003,6.603,27.989
			c4.798,9.575,9.154,21.675-2.456,27.827c-7.938,4.207-17.844,4.659-26.567,5.951c-8.507,1.261-15.112,4.76-22.646,8.765
			c-4.839,2.571-9.946,5.004-15.486,5.405c-5.802,0.421-12.076-4.18-12.753-10.121c-0.896-7.864,11.761-13.24,17.252-16.116
			c7.029-3.683,13.275-6.54,16.572-14.251c4.119-9.636,1.043-21.328-0.69-31.154C259.336,335.718,258.131,336.055,258.271,336.843
			L258.271,336.843z"/>
	</g>
	<g>
		<path fill="#070707" d="M306.53,361.869c-12.353,1.669-22.087,18.841-15.418,29.935c0.415,0.689,1.496,0.062,1.08-0.631
			c-6.291-10.465,3.144-26.541,14.67-28.099C307.658,362.967,307.318,361.763,306.53,361.869L306.53,361.869z"/>
	</g>
	<g>
		<path fill="#070707" d="M226.792,395.171c9.099,0.042,17.992,1.238,21.843,10.662c0.3,0.736,1.51,0.414,1.205-0.332
			c-4.08-9.983-13.236-11.535-23.048-11.58C225.985,393.917,225.986,395.167,226.792,395.171L226.792,395.171z"/>
	</g>
	<g>
		<path fill="#070707" d="M233.523,327.638c-3.149-2.621-7.151-3.304-9.72,0.592c-3.71,5.627-2.505,11.272-0.313,17.248
			c1.937,5.279,3.134,9.833-0.886,14.573c-3.042,3.587-8.411,4.938-12.891,5.25c-2.248,0.157-4.374-0.299-6.345-1.362
			c-3.919-2.113-2.637-7.159,1.806-5.258c3.962,1.694,4.652,7.754,3.8,11.374c-2.713,11.524-21.897,14.439-31.501,15.848
			c-15.572,2.283-32.881,1.833-45.156,13.246c-0.591,0.551,0.294,1.433,0.884,0.885c14.695-13.664,36.936-10.437,55.17-15.003
			c10.918-2.733,27.978-10.588,20.375-24.625c-1.361-2.512-7.691-5.791-9.177-1.532c-2.333,6.684,8.745,7.938,12.669,7.424
			c6.885-0.902,13.938-5.301,14.491-12.752c0.304-4.092-2.105-8.346-3.322-12.121c-1.759-5.456,0.713-19.994,9.234-12.901
			C233.254,329.034,234.144,328.154,233.523,327.638L233.523,327.638z"/>
	</g>
	<g>
		<path fill="#070707" d="M75.743,242.875c-0.048-0.974,0.194-1.85,0.729-2.627c0.959-1.83,2.676-2.658,5.152-2.484
			c2.764-0.115,5.756,1.597,8.103,2.802c4.97,2.551,9.531,5.849,13.911,9.292c8.028,6.312,15.301,13.529,23.227,19.968
			c0.62,0.503,1.51-0.375,0.884-0.884c-12.693-10.313-23.961-22.562-38.672-30.113c-3.776-1.938-9.932-4.093-13.156-0.019
			c-0.973,1.23-3.176,5.285-0.177,5.316C76.55,244.133,76.549,242.883,75.743,242.875L75.743,242.875z"/>
	</g>
	<g>
		<path fill="#070707" d="M146.126,281.24c10.436,9.059,23.794,13.444,36.464,18.382c16.646,6.488,31.806,16.443,46.95,25.775
			c0.688,0.424,1.315-0.658,0.631-1.08c-14.018-8.638-27.968-17.356-42.988-24.181c-13.683-6.216-28.558-9.697-40.174-19.781
			C146.405,279.83,145.517,280.711,146.126,281.24L146.126,281.24z"/>
	</g>
	<g>
		<path fill="#070707" d="M308.089,326.472c12.088-7.953,23.674-16.652,36.075-24.125c13.538-8.157,27.957-15.053,41.837-22.623
			c0.708-0.387,0.077-1.466-0.631-1.08c-13.369,7.293-27.077,14.091-40.266,21.697c-13.063,7.533-25.063,16.771-37.646,25.051
			C306.788,325.833,307.413,326.916,308.089,326.472L308.089,326.472z"/>
	</g>
	<g>
		<path fill="#070707" d="M402.124,266.83c12.026-9.183,22.515-20.044,34.849-28.864c4.332-3.098,22.583-17.691,24.414-6.44
			c0.129,0.794,1.334,0.456,1.205-0.332c-1.818-11.177-16.174-1.254-20.938,1.954c-14.424,9.714-26.395,22.093-40.161,32.603
			C400.861,266.232,401.483,267.319,402.124,266.83L402.124,266.83z"/>
	</g>
	<g>
		<path fill="#070707" d="M300.692,332.824c5.195-4.977,10.865,4.12,8.689,8.913c0.381,0.16,0.762,0.321,1.143,0.481
			c0.862-4.38,5.901-1.71,8.017,0.047c3.261,2.707,4.118,6.835,1.148,10.092c-0.541,0.595,0.34,1.481,0.885,0.885
			c8.369-9.183-9.648-19.523-11.255-11.355c-0.129,0.653,0.832,1.164,1.143,0.481c2.794-6.154-4.438-16.382-10.654-10.429
			C299.225,332.498,300.11,333.381,300.692,332.824L300.692,332.824z"/>
	</g>
	<g>
		<path fill="#070707" d="M259.852,336.046c4.027-3.904,5.546-0.395,8.186,1.472c0.998,0.705,2.873,0.464,3.711-0.374
			c0.414-0.413,0.679-1.005,0.893-1.536c1.104-2.75,4.439-5.858,5.893-1.084c0.355,1.169,1.08,2.485,2.437,2.653
			c2.039,0.253,3.17-0.36,4.452-1.943c1.354-1.671,3.321-3.782,5.384-1.742c0.442,0.438,1.219,1.129,1.92,1.129
			c3.766,0,5.537-5.899,9.23-1.257c0.502,0.63,1.381-0.261,0.885-0.885c-1.124-1.412-2.024-2.627-3.874-2.694
			c-1.301-0.048-2.054,1.683-3.182,1.995c-0.294,0.081-0.423,0.321-0.459,0.603c0.038-0.301-2.701,1.054-2.303,0.892
			c-0.845,0.344-2.42-1.861-3.043-2.226c-1.21-0.709-2.575-0.006-3.485,0.929c-0.547,0.561-1.009,1.062-1.471,1.696
			c-1.802,2.476-4.786,1.797-5.762-0.918c-0.332-0.922-1.169-1.821-2.184-1.947c-1.688-0.209-2.704,0.028-3.955,1.137
			c-1.792,1.588-2.546,8.103-6.296,2.329c-2.282-3.513-5.518-1.383-7.86,0.888C258.389,335.724,259.273,336.606,259.852,336.046
			L259.852,336.046z"/>
	</g>
	<g>
		<path fill="#070707" d="M130.932,399.239c-10.296-2.329-18.861-4.32-27.92,2.427c-7.084,5.277-12.507,13.537-14.599,22.091
			c-3.509,14.351,9.493,25.231,22.18,27.918c12.341,2.614,26.845-1.175,34.437-11.68c11.226-15.534-0.97-34.928-16.111-41.779
			c-0.729-0.329-1.364,0.748-0.631,1.08c15.05,6.81,25.875,24.73,15.663,40.067c-6.427,9.652-19.551,12.713-30.42,11.526
			c-12.015-1.311-24.71-10.119-24.398-23.315c0.2-8.492,5.966-16.725,11.77-22.45c3.365-3.32,7.271-5.644,11.834-6.864
			c5.815-1.555,12.222,0.908,17.863,2.185C131.385,400.622,131.718,399.417,130.932,399.239L130.932,399.239z"/>
	</g>
	<g>
		<path fill="#070707" d="M132.22,399.239c-10.982,1.648-22.923-0.356-27.773,12.219c-3.132,8.119-6.192,20.88-0.196,28.404
			c5.609,7.039,15.87,11.251,24.839,9.626c4.946-0.896,8.741-3.152,11.485-7.421c3.856-5.999,2.793-13.77,6.942-19.756
			c0.46-0.664-0.624-1.288-1.079-0.631c-5.959,8.598-2.955,21.669-14.651,25.885c-8.566,3.087-19.202-0.785-25.327-7.012
			c-6.937-7.052-4.103-19.251-1.261-27.59c2.055-6.028,6.391-9.884,12.602-11.312c4.811-1.105,9.883-0.477,14.751-1.208
			C133.347,400.325,133.008,399.121,132.22,399.239L132.22,399.239z"/>
	</g>
	<g>
		<path fill="#070707" d="M116.878,415.475c-4.995,4.775-10.072,12.467-4.542,18.923c3.025,3.531,6.32,5.787,11.091,5.285
			c3.502-0.368,7.743-3.429,9.549-6.353c2.004-3.246,1.61-6.306,1.81-9.979c0.164-3.02,1.807-5.315,3.423-7.703
			c0.548-0.81,1.137-2.068,0.911-3.08c-1.624-7.254-10.604-6.623-15.755-3.855c-6.936,3.727-8.642,23.468,2.29,18.342
			c3.084-1.447,6.585-10.459,3.31-13.03c-4.782-3.754-9.758,3.436-10.624,7.671c-0.161,0.787,1.044,1.122,1.205,0.332
			c0.433-2.115,1.404-3.766,2.754-5.43c2.696-3.324,7.345-2.188,6.39,2.396c-0.746,3.58-3.451,9.376-8.053,6.966
			c-3.018-1.581-1.846-7.09-1.146-9.531c1.225-4.271,3.95-6.874,8.169-8.062c2.98-0.839,6.217-0.515,8.677,1.511
			c3.476,2.862-0.508,6.824-1.746,9.218c-1.695,3.275-0.775,7.074-1.317,10.56c-0.496,3.187-3.541,5.534-5.994,7.204
			c-4.607,3.138-9.243,1.466-12.984-2.091c-6.388-6.072-1.536-13.624,3.469-18.407C118.345,415.801,117.46,414.918,116.878,415.475
			L116.878,415.475z"/>
	</g>
	<g>
		<path fill="#070707" d="M118.397,396.431c-1.676-6.025-4.883-11.426-11.397-12.758c-6.642-1.358-13.811,2.136-19.472,5.188
			c-7.49,4.038-14.308,9.294-20.974,14.546c-6.273,4.943-12.762,9.694-18.54,15.22c-6.101,5.834-12.658,13.774-11.759,22.761
			c0.882,8.812,9.679,15.489,17.589,17.576c4.133,1.091,8.69,1.077,12.895,0.504c3.21-0.438,6.333-1.318,9.543-1.736
			c4.028-0.524,8.244,0.089,12.259,0.453c7.407,0.672,19.658,1.872,23.733-6.104c0.366-0.716-0.712-1.349-1.079-0.631
			c-4.272,8.361-18.623,5.837-26.167,5.17c-10.075-0.892-19.604,3.118-29.645,1.399c-9.549-1.635-19.244-10.623-17.802-20.93
			c1.244-8.897,9.608-16.336,16.044-21.856c9.655-8.28,20.033-16.443,30.834-23.143c5.588-3.466,11.816-6.712,18.457-7.352
			c7.911-0.761,12.33,5.037,14.274,12.023C117.408,397.538,118.614,397.209,118.397,396.431L118.397,396.431z"/>
	</g>
	<g>
		<path fill="#070707" d="M97.259,384.085c-8.166-0.521-15.842,4.085-21.683,9.393c-2.897,2.633-5.217,5.855-6.687,9.477
			c-1.845,4.546-0.558,9.706-0.282,14.401c0.594,10.107-11.123,15.743-8.446,26.078c2.453,9.469,12.596,10.231,20.027,13.695
			c0.726,0.338,1.361-0.739,0.631-1.08c-7.673-3.576-15.985-3.941-19.452-12.947c-3.292-8.551,7.774-14.771,8.384-22.885
			c0.288-3.835-0.456-7.587-0.559-11.413c-0.132-4.905,2.27-8.926,5.361-12.497c5.384-6.218,14.275-11.51,22.706-10.972
			C98.064,385.387,98.059,384.136,97.259,384.085L97.259,384.085z"/>
	</g>
	<g>
		<path fill="#070707" d="M400.297,441.537c6.658-0.729,14.425,0.063,18.439,6.118c5.314,8.015-6.787,15.289-12.855,16.787
			c-7.343,1.813-17.241-1.514-20.155-8.92c-3.139-7.977,9.094-13.007,14.737-14.008c0.793-0.141,0.456-1.345-0.332-1.205
			c-6.15,1.091-17.738,6.1-15.87,14.393c1.899,8.435,12.704,12.581,20.533,11.197c7.78-1.376,17.196-7.15,15.98-16.249
			c-1.187-8.87-13.717-10.104-20.478-9.363C399.505,440.374,399.496,441.625,400.297,441.537z"/>
	</g>
	<g>
		<path fill="#070707" d="M404.366,441.656c5.282,2.179,9.556,4.716,7.906,11.349c-1.108,4.455-6.321,7.526-10.196,9.052
			c-6.921,2.724-11.786-0.161-18.008-2.686c-4.087-1.658-7.846-1.854-11.87,0.059c-3.213,1.527-5.854,2.686-9.517,2.498
			c-3.56-0.183-6.713-1.29-10.331-1.1c-0.802,0.042-0.806,1.293,0,1.25c3.974-0.21,7.723,0.966,11.658,1.168
			c3.31,0.169,6.004-1.224,8.82-2.736c5.503-2.957,10.549-0.075,15.563,2.304c3.155,1.497,6.115,1.877,9.568,1.514
			c6.54-0.687,12.986-4.856,15.517-10.99c2.904-7.04-3.457-10.69-8.779-12.886C403.953,440.144,403.632,441.354,404.366,441.656
			L404.366,441.656z"/>
	</g>
	<g>
		<path fill="#070707" d="M80.595,457.732c5.252,1.798,9.999,2.718,14.593,6.085c2.422,1.774,4.573,3.517,7.551,4.195
			c3.981,0.907,8.539-0.221,12.437-0.974c7.055-1.363,14.018-3.449,21.258-3.523c4.716-0.048,8.936,2.722,13.559,3.248
			c6.082,0.693,12.223,0.882,18.338,1.024c13.144,0.305,26.292-0.114,39.436,0.233c0.807,0.021,0.805-1.229,0-1.25
			c-12.515-0.331-25.035-0.027-37.552-0.199c-6.228-0.086-12.449-0.364-18.656-0.88c-4.732-0.394-8.952-2.955-13.654-3.314
			c-11.769-0.898-23.154,6.056-34.834,4.429c-3.571-0.497-6.562-3.616-9.386-5.597c-3.809-2.672-8.445-3.206-12.758-4.683
			C80.163,456.266,79.837,457.473,80.595,457.732L80.595,457.732z"/>
	</g>
	<g>
		<path fill="#070707" d="M202.812,467.999c1.175-0.376,7.374-1.798,6.153,0.303c-0.834,1.437-2.287,2.621-3.518,3.72
			c-1.669,1.489-3.187,2.916-4.42,4.788c-0.241,0.365,0.019,0.781,0.374,0.918c12.529,4.837,21.473-5.991,32.757-9.188
			c15.729-4.456,31.792,4.223,47.56-1.079c0.76-0.255,0.435-1.463-0.332-1.205c-16.501,5.548-33.563-3.831-50.028,1.854
			c-6.359,2.195-11.631,6.705-18.014,8.907c-2.335,0.805-13.329,2.064-8.925-2.402c2.285-2.317,4.672-4.041,6.334-6.902
			c0.218-0.375-0.001-0.776-0.374-0.918c-2.819-1.076-5.046-0.914-7.9,0C201.715,467.038,202.042,468.245,202.812,467.999
			L202.812,467.999z"/>
	</g>
	<g>
		<path fill="#070707" d="M405.759,269.492c0.986-1.012,1.718-2.229,2.699-3.244c0.56-0.58-0.323-1.465-0.885-0.885
			c-0.98,1.016-1.713,2.234-2.699,3.244C404.312,269.185,405.194,270.069,405.759,269.492L405.759,269.492z"/>
	</g>
	<g>
		<path fill="#070707" d="M377.379,288.028c3.548-0.634,6.957-1.673,9.877-3.847c0.552-0.411,0.245-1.316-0.481-1.143
			c-5.128,1.224-9.938,3.336-14.741,5.466c0.21,0.36,0.421,0.72,0.631,1.08c3.687-1.639,7.126-3.762,10.811-5.403
			c-0.21-0.36-0.421-0.72-0.631-1.08c-1.082,0.541-2.163,1.084-3.244,1.626c-0.63,0.316-0.186,1.386,0.481,1.143
			c1.961-0.713,3.793-1.647,5.553-2.769c0.481-0.307,0.343-1.234-0.315-1.165c-0.987,0.104-1.895,0.397-2.868,0.562
			c-0.696,0.117-0.532,1.272,0.166,1.228c0.809-0.053,1.756-0.322,2.536-0.022c-0.05-0.381-0.1-0.762-0.149-1.143
			c-2.727,2.053-5.827,3.19-9.038,4.262c0.16,0.381,0.321,0.762,0.481,1.143c1.081-0.54,2.163-1.079,3.244-1.619
			c0.634-0.317,0.188-1.367-0.481-1.143c-1.903,0.637-3.746,1.351-5.554,2.222c-0.726,0.351-0.092,1.428,0.631,1.08
			c1.713-0.826,3.455-1.495,5.255-2.097c-0.16-0.381-0.321-0.762-0.481-1.143c-1.081,0.54-2.163,1.08-3.244,1.619
			c-0.634,0.316-0.188,1.366,0.481,1.143c3.314-1.105,6.52-2.266,9.337-4.387c0.446-0.336,0.383-0.938-0.149-1.143
			c-1.047-0.402-1.741-0.096-2.868-0.022c0.056,0.409,0.11,0.818,0.166,1.228c0.861-0.146,1.653-0.425,2.536-0.518
			c-0.105-0.389-0.21-0.776-0.315-1.165c-1.667,1.063-3.392,1.966-5.254,2.644c0.16,0.381,0.321,0.762,0.481,1.143
			c1.081-0.542,2.162-1.085,3.244-1.626c0.73-0.365,0.091-1.401-0.631-1.08c-3.685,1.643-7.124,3.766-10.811,5.403
			c-0.735,0.327-0.099,1.403,0.631,1.08c4.709-2.089,9.417-4.142,14.442-5.341c-0.16-0.381-0.321-0.762-0.481-1.143
			c-2.836,2.112-6.137,3.106-9.578,3.722C376.254,286.965,376.591,288.169,377.379,288.028L377.379,288.028z"/>
	</g>
	<g>
		<path fill="#070707" d="M149.78,281.925c5.304,5.477,13.167,7.647,17.738,13.925c0.235-0.306,0.47-0.612,0.706-0.918
			c-7.284-2.623-11.4-9.973-18.227-13.449c-0.616-0.313-1.286,0.47-0.757,0.982c6.628,6.419,14.764,11.374,22.827,15.77
			c0.708,0.386,1.328-0.673,0.631-1.08c-7.003-4.082-14.004-8.155-20.541-12.967c-0.21,0.36-0.42,0.72-0.631,1.08
			c5.868,3.121,11.983,5.663,17.296,9.727c0.161-0.381,0.321-0.762,0.481-1.143c-7.129-2.398-12.889-7.031-18.64-11.732
			c-0.619-0.506-1.422,0.271-0.884,0.885c5.688,6.489,14.101,9.558,21.205,14.15c0.681,0.439,1.298-0.638,0.631-1.08
			c-6.678-4.425-13.5-8.604-20.539-12.433c-0.21,0.36-0.42,0.72-0.631,1.08c6.309,3.177,12.363,6.587,17.71,11.255
			c0.252-0.328,0.505-0.655,0.757-0.982c-5.755-3.622-11.685-6.959-17.296-10.807c-0.21,0.36-0.42,0.72-0.631,1.08
			c4.9,3.14,10.235,5.504,15.134,8.647c0.681,0.437,1.307-0.646,0.631-1.08c-4.899-3.144-10.233-5.507-15.134-8.647
			c-0.685-0.438-1.288,0.629-0.631,1.08c5.611,3.847,11.542,7.185,17.296,10.807c0.596,0.375,1.296-0.512,0.757-0.982
			c-5.421-4.732-11.558-8.225-17.963-11.45c-0.715-0.359-1.343,0.692-0.631,1.08c7.038,3.828,13.861,8.007,20.539,12.433
			c0.21-0.36,0.42-0.72,0.631-1.08c-7.009-4.53-15.341-7.554-20.952-13.955c-0.294,0.295-0.589,0.59-0.884,0.885
			c5.911,4.831,11.865,9.588,19.192,12.053c0.73,0.246,1-0.746,0.481-1.143c-5.313-4.062-11.428-6.604-17.296-9.727
			c-0.727-0.386-1.269,0.61-0.631,1.08c6.536,4.811,13.538,8.885,20.541,12.967c0.21-0.36,0.42-0.72,0.631-1.08
			c-7.967-4.343-16.027-9.234-22.574-15.574c-0.252,0.328-0.505,0.655-0.757,0.982c6.942,3.535,11.079,10.894,18.525,13.574
			c0.497,0.179,1.024-0.48,0.706-0.918c-4.665-6.407-12.536-8.604-17.934-14.179C150.103,280.461,149.22,281.346,149.78,281.925
			L149.78,281.925z"/>
	</g>
	<g>
		<path fill="#070707" d="M151.526,284.722c7.822,3.843,15.962,7.033,23.24,11.893c0.161-0.381,0.321-0.762,0.481-1.143
			c-8.993-2.107-16.479-8.101-24.171-12.91c-0.21,0.36-0.42,0.72-0.631,1.08c7.084,3.353,13.783,7.396,20.539,11.353
			c0.21-0.36,0.42-0.72,0.631-1.08c-7.571-3.452-15.353-6.525-21.492-12.334c-0.252,0.328-0.505,0.655-0.757,0.982
			c5.858,3.268,11.437,7.001,17.296,10.268c0.705,0.393,1.335-0.688,0.631-1.08c-5.859-3.267-11.438-6.999-17.296-10.268
			c-0.611-0.341-1.284,0.484-0.757,0.982c6.215,5.88,14.069,9.029,21.745,12.529c0.72,0.328,1.339-0.665,0.631-1.08
			c-6.756-3.956-13.454-7.999-20.539-11.353c-0.721-0.341-1.323,0.647-0.631,1.08c7.791,4.87,15.358,10.9,24.47,13.035
			c0.704,0.165,1.07-0.749,0.481-1.143c-7.278-4.859-15.418-8.05-23.24-11.893C151.437,283.288,150.803,284.366,151.526,284.722
			L151.526,284.722z"/>
	</g>
	<g>
		<path fill="#070707" d="M378.835,282.246c-1.943,3.424-5.128,5.543-8.814,6.742c0.202,0.348,0.405,0.696,0.608,1.045
			c3.027-3.282,7.323-4.857,10.808-7.568c0.505-0.394-0.042-1.224-0.608-1.045c-5.4,1.701-10.471,4.124-14.868,7.729
			c-0.557,0.457,0.162,1.346,0.758,0.982c4.622-2.818,9.508-5.157,14.052-8.108c-0.252-0.327-0.505-0.655-0.758-0.982
			c-3.656,2.884-7.933,4.835-11.763,7.465c0.21,0.36,0.421,0.72,0.631,1.08c3.618-2.57,7.202-5.104,10.397-8.199
			c0.5-0.485-0.171-1.402-0.758-0.982c-4.106,2.94-8.168,5.938-12.433,8.647c-0.678,0.431-0.072,1.482,0.631,1.08
			c3.793-2.173,7.526-4.381,10.938-7.127c0.57-0.46-0.158-1.312-0.758-0.982c-5.093,2.796-10.459,5.252-14.722,9.286
			c-0.508,0.481,0.171,1.396,0.758,0.982c4.021-2.838,8.165-5.311,12.823-6.96c0.755-0.267,0.43-1.475-0.332-1.205
			c-4.753,1.683-9.014,4.187-13.122,7.085c0.252,0.327,0.505,0.655,0.758,0.982c4.18-3.957,9.476-6.351,14.468-9.091
			c-0.253-0.327-0.505-0.654-0.758-0.982c-3.327,2.68-6.986,4.814-10.684,6.932c0.21,0.36,0.421,0.72,0.631,1.08
			c4.265-2.711,8.326-5.707,12.433-8.647c-0.252-0.327-0.505-0.655-0.758-0.982c-3.114,3.019-6.617,5.499-10.144,8.004
			c-0.649,0.461-0.038,1.539,0.631,1.08c3.922-2.693,8.271-4.708,12.017-7.66c0.561-0.442-0.169-1.364-0.758-0.982
			c-4.544,2.952-9.43,5.291-14.052,8.108c0.253,0.327,0.505,0.654,0.758,0.982c4.225-3.464,9.126-5.772,14.315-7.408
			c-0.202-0.348-0.405-0.696-0.608-1.045c-3.499,2.724-7.76,4.266-10.808,7.568c-0.403,0.438-0.015,1.248,0.608,1.045
			c3.989-1.297,7.463-3.619,9.562-7.316C380.313,282.175,379.233,281.545,378.835,282.246L378.835,282.246z"/>
	</g>
	<g>
		<path fill="#070707" d="M406.715,267.431c1.834-1.181,3.918-1.816,5.53-3.343c0.509-0.483-0.165-1.386-0.758-0.982
			c-1.907,1.302-3.566,2.93-5.403,4.324c0.252,0.327,0.505,0.654,0.758,0.982c0.797-0.799,1.566-1.536,2.571-2.066
			c-0.253-0.327-0.505-0.654-0.758-0.982c-0.334,0.351-0.787,1.067-1.06,1.297c0.327,0.042,0.654,0.084,0.981,0.126
			c0.055,0.267,0.075,0.302,0.063,0.104c-0.006-0.806-1.256-0.807-1.25,0c0.001,0.178-0.003,0.377,0.107,0.526
			c0.252,0.342,0.65,0.405,0.981,0.127c0.405-0.341,0.689-0.908,1.061-1.296c0.498-0.522-0.131-1.313-0.758-0.982
			c-1.098,0.58-1.953,1.39-2.825,2.262c-0.487,0.489,0.18,1.421,0.758,0.982c1.836-1.394,3.499-3.025,5.403-4.324
			c-0.253-0.327-0.505-0.654-0.758-0.982c-1.524,1.444-3.539,2.03-5.276,3.147C405.408,266.785,406.035,267.868,406.715,267.431
			L406.715,267.431z"/>
	</g>
	<g>
		<path fill="#070707" d="M120.056,269.492c1.283,1.346,2.386,2.785,3.909,3.882c0.514,0.37,1.184-0.348,0.855-0.855
			c-1.79-2.765-4.657-4.275-7.25-6.168c-0.583-0.425-1.256,0.497-0.757,0.982c1.878,1.826,3.979,3.392,6.072,4.961
			c0.21-0.36,0.42-0.72,0.631-1.08c-2.085-1.561-4.169-3.119-6.486-4.324c-0.607-0.315-1.309,0.49-0.757,0.982
			c1.169,1.041,2.62,1.662,3.784,2.706c0.597,0.534,1.465-0.317,0.884-0.885c-1.646-1.604-3.484-2.838-5.53-3.882
			c-0.715-0.364-1.323,0.658-0.631,1.08c2.562,1.558,5.002,3.304,7.564,4.863c0.161-0.381,0.321-0.762,0.481-1.143
			c-2.545-0.931-4.659-2.789-7.112-3.894c-0.332-0.149-0.845-0.061-0.918,0.374c0,0.001-0.001,0.003-0.001,0.005
			c-0.035,0.205-0.021,0.466,0.161,0.608c0.118,0.093,0.238,0.18,0.363,0.264c0.671,0.451,1.295-0.632,0.631-1.08
			c-0.271-0.22-0.253-0.042,0.052,0.535c-0.306,0.124-0.612,0.249-0.918,0.373c2.555,1.151,4.757,3.05,7.411,4.02
			c0.685,0.251,1.068-0.785,0.481-1.143c-2.562-1.559-5.002-3.305-7.564-4.863c-0.21,0.36-0.42,0.72-0.631,1.08
			c1.951,0.995,3.704,2.152,5.277,3.687c0.294-0.295,0.589-0.59,0.884-0.885c-1.167-1.045-2.616-1.665-3.784-2.706
			c-0.252,0.327-0.505,0.655-0.757,0.982c2.317,1.204,4.401,2.764,6.486,4.324c0.646,0.483,1.268-0.603,0.631-1.08
			c-2.009-1.505-4.017-3.013-5.819-4.766c-0.252,0.327-0.505,0.655-0.757,0.982c2.405,1.754,5.14,3.153,6.802,5.719
			c0.285-0.285,0.57-0.57,0.855-0.855c-1.43-1.029-2.452-2.424-3.656-3.687C120.382,268.023,119.5,268.908,120.056,269.492
			L120.056,269.492z"/>
	</g>
	<g>
		<path fill="#070707" d="M409.161,263.272c-0.045,0.331-0.587,0.28-0.203,0.278c0.087,0,0.171-0.002,0.257-0.009
			c0.275-0.021,0.554-0.104,0.761-0.294c0.54-0.499,0.407-1.286,0.265-1.927c-0.155-0.697-1.233-0.531-1.228,0.166
			c0.005,0.688,0.246,1.041,0.723,1.521c0.386,0.387,1.067,0.102,1.067-0.442c0-0.722,0-1.443,0-2.165
			c-0.389,0.105-0.776,0.21-1.165,0.315c0.434,0.612,0.908,1.127,1.525,1.557c0.398,0.278,0.913,0.41,1.276,0.735
			c0.6,0.535,1.486-0.346,0.885-0.885c-0.311-0.277-0.662-0.453-1.03-0.64c-0.657-0.334-1.151-0.798-1.576-1.398
			c-0.345-0.486-1.165-0.345-1.165,0.315c0,0.722,0,1.443,0,2.165c0.355-0.147,0.711-0.295,1.067-0.442
			c-0.242-0.243-0.354-0.302-0.357-0.637c-0.409,0.056-0.818,0.11-1.228,0.166c0.057,0.254-0.023,0.71,0.182,0.626
			c-0.122,0.051-0.283,0.021-0.414,0.024c-0.379,0.013-0.79,0.224-0.847,0.637C407.848,263.729,409.052,264.068,409.161,263.272
			L409.161,263.272z"/>
	</g>
	<g>
		<path fill="#070707" d="M114.05,266.889c1.148,0.61,2.863,2.31,4.157,2.31c0.71,0,0.845-1.035,0.166-1.228
			c-1.794-0.51-3.207-1.432-4.375-2.872c-0.042,0.327-0.084,0.654-0.126,0.981c1.999-1.213,3.49-2.737,4.129-5.024
			c-0.306,0.125-0.612,0.249-0.918,0.374c2.995,1.946,5.09,4.927,8.088,6.875c0.21-0.36,0.42-0.719,0.631-1.079
			c-2.387-1.445-4.609-3.139-7.077-4.449c-0.536-0.284-1.196,0.3-0.855,0.855c0.714,1.164,1.467,2.301,2.224,3.438
			c0.373,0.56,1.401,0.216,1.142-0.481c-0.627-1.691-1.221-3.331-2.287-4.8c-0.404-0.558-1.321-0.24-1.142,0.481
			c0.296,1.194,0.779,2.29,1.213,3.438c0.281,0.745,1.485,0.428,1.205-0.332c-0.48-1.305-1.064-2.458-1.98-3.511
			c-0.352-0.405-1.099-0.089-1.067,0.442c0.084,1.39,0.407,2.682,0.831,4.008c0.244,0.764,1.438,0.443,1.205-0.332
			c-0.41-1.37-0.653-2.746-1.778-3.713c-0.406-0.35-1.057-0.13-1.067,0.442c-0.024,1.326,0.371,2.36,0.832,3.604
			c0.276,0.745,1.408,0.461,1.205-0.332c-1.101-4.314-4.852,0.331-0.971,0.971c0.497,0.082,1.034-0.412,0.706-0.918
			c-0.85-1.311-1.782-1.875-3.334-1.5c-0.415,0.1-0.546,0.569-0.374,0.918c0.681,1.379,1.656,1.826,3.168,1.725
			c0.571-0.038,0.916-0.871,0.315-1.165c-0.719-0.352-1.4-0.642-2.171-0.872c-0.671-0.2-1.124,0.826-0.481,1.142
			c1.574,0.774,3.144,1.526,4.651,2.426c0.161-0.381,0.321-0.761,0.481-1.142c-0.845-0.15-1.629-0.28-2.426-0.606
			c-0.572-0.234-1.083,0.661-0.608,1.044c1.563,1.264,2.885,2.78,4.448,4.044c0.618,0.5,1.436-0.276,0.884-0.884
			c-1.108-1.219-2.351-2.097-3.766-2.929c-0.625-0.368-1.237,0.468-0.757,0.981c1.548,1.656,3.301,2.841,5.384,3.738
			c0.722,0.311,1.366-0.718,0.631-1.079c-1.09-0.537-1.939-1.159-2.907-1.925c-0.62-0.491-1.439,0.274-0.884,0.884
			c0.984,1.081,2.073,1.834,3.362,2.524c0.647,0.347,1.211-0.447,0.757-0.981c-0.529-0.624-1.077-1.055-1.744-1.513
			c-0.604-0.415-1.232,0.483-0.757,0.981c0.619,0.649,1.174,1.046,1.947,1.513c0.506,0.306,1.243-0.336,0.855-0.855
			c-1.48-1.98-2.758-4.062-4.546-5.788c-0.493-0.477-1.417,0.171-0.981,0.757c1.292,1.737,2.521,3.434,4.47,4.47
			c0.442,0.235,1.125-0.158,0.918-0.706c-0.942-2.486-2.862-4.396-4.811-6.14c-0.432-0.386-1.269-0.021-1.044,0.608
			c0.901,2.531,2.817,5.275,5.492,6.098c0.461,0.142,0.89-0.32,0.769-0.769c-0.675-2.499-2.358-4.653-4.534-6.035
			c-0.491-0.312-1.026,0.198-0.918,0.706c0.362,1.703,3.287,8.236,5.892,6.798c3.226-1.781-2.239-6.161-3.963-6.897
			c-0.492-0.21-1.056,0.127-0.918,0.706c0.414,1.733,2.356,6.17,4.76,4.822c2.726-1.529-1.716-4.901-3.033-5.528
			c-0.435-0.207-0.915,0.042-0.94,0.54c-0.123,2.393,1.827,3.974,4.062,4.265c0.434,0.057,0.67-0.438,0.603-0.791
			c-0.291-1.52-1.256-2.372-2.511-3.205c-0.474-0.314-1.048,0.2-0.918,0.706c0.496,1.926,1.816,3.234,3.838,3.29
			c0.322,0.009,0.649-0.292,0.625-0.625c-0.09-1.241-0.402-1.791-1.523-2.359c-0.527-0.268-0.994,0.166-0.918,0.706
			c0.206,1.464,1.005,2.1,2.422,2.279c0.557,0.07,0.806-0.721,0.442-1.067c-0.397-0.378-0.694-0.537-1.25-0.587
			c-0.803-0.073-0.796,1.178,0,1.25c0.122,0.074,0.245,0.147,0.367,0.221c0.147-0.355,0.294-0.711,0.442-1.067
			c-0.406-0.454-0.812-0.907-1.217-1.361c-0.306,0.235-0.612,0.47-0.918,0.706c0.301,0.427,0.603,0.854,0.904,1.28
			c0.208-0.208,0.417-0.417,0.625-0.625c-1.532-0.245-2.41-1.036-2.633-2.372c-0.306,0.235-0.612,0.47-0.918,0.706
			c1.017,0.505,1.663,1.324,1.937,2.458c0.201-0.264,0.402-0.527,0.603-0.791c-1.757-0.247-2.694-1.252-2.812-3.015
			c-0.313,0.18-0.627,0.36-0.94,0.54c1.166,0.555,2.233,1.435,2.979,2.49c-0.645,0.767-1.134,0.697-1.467-0.21
			c-0.219-0.323-0.42-0.657-0.604-1.001c-0.353-0.622-0.632-1.289-0.798-1.983c-0.306,0.235-0.612,0.47-0.918,0.706
			c0.88,0.376,1.621,1.02,2.333,1.645c0.282,0.248,2.841,3.231,1.495,3.035c-1.801-0.263-3.594-4.452-3.921-5.992
			c-0.306,0.235-0.612,0.47-0.918,0.706c1.906,1.211,3.369,3.101,3.959,5.288c0.256-0.256,0.512-0.512,0.769-0.769
			c-2.227-0.685-3.871-3.127-4.619-5.225c-0.348,0.203-0.696,0.405-1.044,0.608c1.768,1.581,3.632,3.324,4.49,5.588
			c0.306-0.235,0.612-0.47,0.918-0.706c-1.772-0.942-2.849-2.444-4.022-4.022c-0.327,0.252-0.654,0.505-0.981,0.757
			c1.708,1.649,2.938,3.646,4.351,5.535c0.285-0.285,0.57-0.57,0.855-0.855c-0.639-0.338-1.203-0.777-1.694-1.318
			c-0.252,0.327-0.505,0.654-0.757,0.981c0.599,0.332,1.096,0.771,1.491,1.318c0.252-0.327,0.505-0.654,0.757-0.981
			c-1.177-0.631-2.201-1.333-3.109-2.329c-0.294,0.294-0.589,0.589-0.884,0.884c1.01,0.8,1.997,1.548,3.16,2.12
			c0.21-0.36,0.42-0.719,0.631-1.079c-1.977-0.852-3.653-1.962-5.131-3.542c-0.252,0.327-0.505,0.654-0.757,0.981
			c1.311,0.771,2.487,1.604,3.513,2.733c0.294-0.294,0.589-0.589,0.884-0.884c-1.563-1.264-2.885-2.78-4.448-4.044
			c-0.203,0.348-0.405,0.696-0.608,1.044c0.797,0.327,1.581,0.456,2.426,0.606c0.676,0.121,1.12-0.761,0.481-1.142
			c-1.506-0.901-3.077-1.653-4.651-2.426c-0.161,0.381-0.321,0.761-0.481,1.142c0.657,0.16,1.282,0.409,1.873,0.746
			c0.105-0.388,0.21-0.776,0.315-1.165c-0.696-0.369-1.393-0.737-2.089-1.106c-0.125,0.306-0.249,0.612-0.374,0.918
			c0.641,0.309,1.282,0.618,1.923,0.926c0.235-0.306,0.47-0.612,0.706-0.918c-0.188,0.189-0.377,0.377-0.566,0.566
			c0.402-0.111,0.803-0.221,1.205-0.332c-0.418-1.129-0.809-2.014-0.787-3.271c-0.355,0.147-0.711,0.294-1.067,0.442
			c0.955,0.821,1.115,2.021,1.457,3.162c0.402-0.111,0.803-0.221,1.205-0.332c-0.391-1.223-0.708-2.383-0.786-3.676
			c-0.355,0.147-0.711,0.294-1.067,0.442c0.81,0.932,1.234,1.806,1.659,2.959c0.402-0.111,0.803-0.221,1.205-0.332
			c-0.434-1.148-0.917-2.245-1.213-3.438c-0.381,0.16-0.761,0.321-1.142,0.481c0.997,1.375,1.574,2.919,2.161,4.501
			c0.381-0.161,0.761-0.321,1.142-0.481c-0.757-1.136-1.509-2.274-2.224-3.438c-0.285,0.285-0.57,0.57-0.855,0.855
			c2.468,1.31,4.69,3.004,7.077,4.449c0.694,0.42,1.302-0.643,0.631-1.079c-2.995-1.946-5.09-4.927-8.088-6.875
			c-0.342-0.223-0.813-0.001-0.918,0.374c-0.56,2.003-1.822,3.226-3.555,4.277c-0.371,0.225-0.38,0.669-0.126,0.981
			c1.314,1.621,2.929,2.625,4.927,3.193c0.055-0.409,0.111-0.818,0.166-1.228c-0.818,0-2.734-1.718-3.526-2.139
			C113.969,265.432,113.338,266.511,114.05,266.889L114.05,266.889z"/>
	</g>
	<g>
		<path fill="#070707" d="M116.147,264.567c1.421,1.38,3.139,2.373,4.651,3.64c0.613,0.514,1.502-0.366,0.884-0.884
			c-1.511-1.267-3.232-2.261-4.651-3.64C116.453,263.122,115.568,264.004,116.147,264.567L116.147,264.567z"/>
	</g>
	<g>
		<path fill="#070707" d="M139.91,284.459c2.602,3.415,8.879,4.13,12.708,5.342c0.111-0.401,0.221-0.804,0.332-1.205
			c-4.279-1.251-7.917-3.812-12.335-4.65c-0.677-0.129-1.118,0.766-0.481,1.143c4.03,2.385,8.411,3.995,12.783,5.632
			c6.157,2.304,12.011,5.121,17.953,7.916c0.725,0.341,1.36-0.737,0.631-1.08c-5.04-2.37-10.003-4.877-15.19-6.914
			c-5.259-2.065-10.654-3.738-15.545-6.634c-0.161,0.381-0.321,0.762-0.481,1.143c4.394,0.833,8.077,3.406,12.335,4.65
			c0.777,0.228,1.097-0.963,0.332-1.205c-3.426-1.085-9.691-1.788-11.961-4.768C140.508,283.196,139.421,283.817,139.91,284.459
			L139.91,284.459z"/>
	</g>
	<g>
		<path fill="#070707" d="M138.921,285.088c15.199,8.87,32.206,14.215,47.923,22.041c0.719,0.357,1.353-0.721,0.631-1.08
			c-15.721-7.827-32.73-13.174-47.923-22.041C138.854,283.601,138.226,284.682,138.921,285.088L138.921,285.088z"/>
	</g>
	<g>
		<path fill="#070707" d="M149.078,277.18c0.4-0.777,0.909-1.474,1.52-2.098c0.564-0.576-0.319-1.46-0.884-0.884
			c-0.681,0.695-1.27,1.485-1.715,2.351C147.63,277.264,148.708,277.896,149.078,277.18L149.078,277.18z"/>
	</g>
	<g>
		<path fill="#070707" d="M141.701,284.586c0.409-0.404,0.81-0.791,1.289-1.115c0.561-0.381,0.226-1.374-0.481-1.143
			c-0.47,0.154-0.945,0.25-1.416,0.404c0.16,0.381,0.321,0.762,0.481,1.143c0.783-0.514,1.575-0.756,2.479-0.949
			c-0.161-0.381-0.321-0.762-0.481-1.143c-0.606,0.405-1.213,0.81-1.82,1.214c-0.665,0.443-0.071,1.491,0.631,1.08
			c1.429-0.838,2.664-1.72,3.662-3.056c0.432-0.577-0.499-1.258-0.981-0.758c-0.998,1.035-1.838,2.096-2.524,3.362
			c-0.233,0.43,0.163,1.146,0.706,0.918c1.719-0.719,2.63-2.173,3.268-3.874c0.231-0.617-0.622-1.01-1.044-0.608
			c-1.055,1.003-1.481,2.236-1.396,3.678c0.038,0.638,0.809,0.831,1.165,0.315c0.652-0.943,0.997-1.788,0.894-2.944
			c-0.417,0-0.833,0-1.25,0c0.048,0.501,0.138,0.912,0.202,1.415c0.09,0.71,0.957,0.84,1.228,0.166
			c0.364-0.904,0.368-1.245-0.063-2.099c-0.231-0.459-0.824-0.348-1.079,0c-0.959,1.306-1.475,2.822-2.224,4.246
			c0.381,0.16,0.761,0.321,1.142,0.481c0.473-1.136,0.94-2.234,1.213-3.438c0.121-0.532-0.426-0.982-0.918-0.706
			c-1.356,0.763-2.152,1.598-2.332,3.169c-0.048,0.419,0.433,0.691,0.791,0.603c1.199-0.298,1.603-0.794,1.672-2.018
			c0.028-0.506-0.543-0.735-0.94-0.54c-1.16,0.571-3.023,3.372-0.88,3.962c2.257,0.62,3.623-2.915,3.214-4.6
			c-0.116-0.478-0.71-0.581-1.044-0.276c-1.144,1.042-2.377,3.411-0.338,4.303c2.228,0.975,2.568-2.315,2.417-3.658
			c-0.068-0.605-0.805-0.868-1.165-0.315c-0.818,1.256-0.865,2.467-0.67,3.919c0.049,0.363,0.47,0.484,0.769,0.437
			c1.988-0.32,2.391-2.514,2.054-4.206c-0.096-0.482-0.724-0.575-1.044-0.276c-1.412,1.316-2.61,4.409-0.15,5.216
			c2.064,0.677,2.544-2.936,1.738-4.077c-0.236-0.334-0.669-0.418-0.981-0.127c-1.332,1.243-2.026,4.112,0.393,4.562
			c1.989,0.369,2.097-2.888,1.6-4.031c-0.158-0.363-0.733-0.402-0.981-0.127c-0.954,1.062-1.901,2.877-0.328,3.863
			c1.743,1.094,2.551-1.703,2.608-2.814c0.03-0.578-0.686-0.782-1.067-0.442c-1.063,0.949-1.967,2.553-0.509,3.595
			c1.416,1.012,2.26-1.182,2.385-2.142c0.075-0.577-0.713-0.776-1.067-0.442c-0.934,0.885-1.364,1.986-0.97,3.237
			c0.15,0.477,0.681,0.576,1.044,0.276c3.099-2.559-1.7-4.561-3.235-6.143c-0.252,0.327-0.505,0.655-0.757,0.982
			c1.115,0.85,2.146,1.385,3.551,1.501c0.311,0.025,0.664-0.305,0.625-0.625c-0.249-2.063-1.799-3.311-3.216-4.688
			c-0.508-0.493-1.345,0.139-0.981,0.758c0.784,1.336,1.773,2.14,3.205,2.713c0.562,0.226,0.913-0.483,0.706-0.918
			c-0.662-1.385-1.932-1.994-3.257-2.65c-0.608-0.301-1.31,0.48-0.757,0.982c1.076,0.977,2.269,1.669,3.564,2.321
			c0.717,0.361,1.319-0.651,0.631-1.08c-0.953-0.592-1.877-1.227-2.831-1.819c-0.634-0.394-1.202,0.466-0.757,0.982
			c1.434,1.668,3.768,2.574,4.49,4.778c0.25,0.763,1.457,0.437,1.205-0.332c-0.823-2.513-3.184-3.438-4.811-5.331
			c-0.252,0.327-0.505,0.655-0.757,0.982c0.953,0.592,1.877,1.227,2.831,1.819c0.21-0.36,0.42-0.72,0.631-1.08
			c-1.203-0.605-2.305-1.212-3.311-2.126c-0.252,0.327-0.505,0.655-0.757,0.982c1.112,0.55,2.241,1.015,2.809,2.201
			c0.235-0.306,0.47-0.612,0.706-0.918c-1.143-0.458-1.835-1.079-2.458-2.139c-0.327,0.253-0.654,0.505-0.981,0.758
			c1.089,1.059,2.655,2.181,2.85,3.804c0.208-0.208,0.417-0.417,0.625-0.625c-1.173-0.097-2.016-0.643-2.92-1.331
			c-0.581-0.442-1.235,0.489-0.757,0.982c0.934,0.962,5.074,2.855,3.235,4.373c0.348,0.093,0.696,0.185,1.044,0.276
			c-0.226-0.855-0.01-1.529,0.648-2.021c-0.355-0.147-0.711-0.295-1.067-0.442c-0.32-0.201-0.233-0.392,0.258-0.568
			c-0.355-0.147-0.711-0.295-1.067-0.442c0.028,0.515-0.076,0.996-0.312,1.446c-0.211-0.116-0.423-0.232-0.634-0.349
			c0.146-0.492,0.413-0.913,0.8-1.262c-0.327-0.043-0.654-0.085-0.981-0.127c0.274,0.63,0.147,1.363-0.137,1.958
			c-0.239-0.323-0.479-0.646-0.718-0.97c0.144-0.51,0.418-0.932,0.825-1.266c-0.327-0.043-0.654-0.085-0.981-0.127
			c0.235,0.294,0.324,0.631,0.267,1.01c0.029,0.879-0.317,0.907-1.038,0.085c0.139-0.723,0.615-1.485,1.146-1.979
			c-0.348-0.093-0.696-0.185-1.044-0.276c0.188,0.942,0.189,2.447-1.181,2.669c0.256,0.146,0.512,0.291,0.769,0.437
			c-0.153-1.143-0.097-1.972,0.544-2.956c-0.388-0.105-0.776-0.21-1.165-0.315c0.045,0.398,0.286,2.938-0.715,2.501
			c-1.031-0.452,0.422-1.943,0.771-2.261c-0.348-0.093-0.696-0.185-1.044-0.276c0.168,0.692-0.083,1.341-0.375,1.961
			c-0.205,0.766-0.563,0.859-1.076,0.28c0.218-0.398,0.536-0.684,0.953-0.855c-0.313-0.181-0.627-0.36-0.94-0.54
			c-0.251,0.271-0.503,0.542-0.754,0.812c0.264,0.201,0.527,0.401,0.791,0.603c0.268-1.019,0.839-1.715,1.712-2.089
			c-0.306-0.235-0.612-0.471-0.918-0.706c-0.273,1.203-0.741,2.302-1.213,3.438c-0.274,0.659,0.817,1.1,1.142,0.481
			c0.75-1.424,1.265-2.94,2.224-4.246c-0.36,0-0.719,0-1.079,0c0.24,0.392,0.219,0.771-0.063,1.136
			c0.409,0.056,0.818,0.11,1.228,0.166c-0.059-0.462-0.159-0.96-0.202-1.415c-0.076-0.794-1.321-0.805-1.25,0
			c0.086,0.975-0.188,1.538-0.723,2.313c0.388,0.105,0.776,0.21,1.165,0.315c-0.065-1.101,0.221-2.024,1.03-2.793
			c-0.348-0.203-0.696-0.406-1.044-0.608c-0.457,1.217-1.115,2.466-2.395,3.001c0.235,0.306,0.47,0.612,0.706,0.918
			c0.63-1.164,1.411-2.158,2.329-3.108c-0.327-0.253-0.654-0.506-0.981-0.758c-0.861,1.152-1.99,1.89-3.213,2.606
			c0.21,0.36,0.42,0.72,0.631,1.08c0.607-0.405,1.213-0.81,1.82-1.214c0.595-0.397,0.22-1.292-0.481-1.143
			c-1.028,0.219-1.896,0.497-2.778,1.074c-0.571,0.375-0.22,1.373,0.481,1.143c0.47-0.154,0.945-0.25,1.416-0.404
			c-0.161-0.381-0.321-0.762-0.481-1.143c-0.565,0.384-1.056,0.831-1.542,1.311C140.243,284.269,141.127,285.152,141.701,284.586
			L141.701,284.586z"/>
	</g>
	<g>
		<path fill="#070707" d="M118.274,262.418c0.678,1.171,2.699,2.12,3.763,2.87c1.77,1.249,3.586,2.708,5.561,3.623
			c0.727,0.336,1.362-0.741,0.631-1.079c-1.63-0.755-3.124-1.93-4.594-2.947c-0.917-0.634-1.827-1.281-2.729-1.936
			c-0.39-0.283-1.423-0.938-1.552-1.161C118.95,261.09,117.869,261.719,118.274,262.418L118.274,262.418z"/>
	</g>
	<g>
		<path fill="#070707" d="M149.234,286.099c4.736,2.551,9.814,4.368,14.356,7.28c0.21-0.36,0.42-0.72,0.631-1.08
			c-5.434-2.482-10.924-4.826-16.176-7.685c-0.711-0.387-1.308,0.646-0.631,1.08c5.557,3.569,11.325,6.697,17.539,8.96
			c0.697,0.254,1.046-0.771,0.481-1.143c-5.157-3.39-10.688-6.127-15.974-9.302c-0.21,0.36-0.42,0.72-0.631,1.08
			c5.144,2.731,10.109,5.777,15.368,8.291c0.597,0.285,1.347-0.511,0.757-0.982c-4.989-3.989-10.537-6.901-16.303-9.602
			c-0.739-0.346-1.273,0.601-0.631,1.08c5.552,4.143,11.815,7.121,17.592,10.919c0.161-0.381,0.321-0.762,0.481-1.143
			c-5.729-1.84-10.789-5.205-16.581-6.875c-0.588-0.17-1.076,0.617-0.608,1.045c5.406,4.928,12.846,6.814,19.688,8.855
			c0.671,0.2,1.125-0.826,0.481-1.143c-6.038-2.963-12.532-4.794-18.603-7.685c-0.72-0.343-1.327,0.653-0.631,1.08
			c5.979,3.665,12.516,5.992,19.157,8.151c0.705,0.229,1.047-0.764,0.481-1.143c-6.095-4.074-13.46-5.153-19.816-8.695
			c-0.713-0.397-1.286,0.626-0.631,1.08c5.909,4.092,13.134,8.447,20.536,8.578c0.633,0.012,0.837-0.849,0.315-1.165
			c-5.911-3.581-12.721-5.006-19.157-7.343c-0.674-0.245-1.092,0.805-0.481,1.143c6.436,3.559,13.179,6.347,20.371,7.949
			c0.799,0.179,1.074-0.919,0.332-1.205c-5.857-2.257-12.041-3.503-17.645-6.408c-0.21,0.36-0.42,0.72-0.631,1.08
			c5.334,2.635,11.005,4.357,16.528,6.533c0.111-0.401,0.221-0.804,0.332-1.205c-6.931-2.295-13.588-5.098-19.869-8.835
			c-0.695-0.413-1.319,0.663-0.631,1.08c9.853,5.971,20.407,10.565,31.694,13.004c0.111-0.401,0.221-0.804,0.332-1.205
			c-7.67-1.61-17.098-3.62-22.072-10.228c-0.235,0.306-0.47,0.612-0.706,0.918c10.709,3.634,20.024,10.317,30.736,13.952
			c0.673,0.229,1.106-0.815,0.481-1.143c-8.209-4.29-17.716-5.866-24.745-12.237c-0.203,0.349-0.405,0.697-0.608,1.045
			c8.099,2.554,14.792,8.003,22.647,11.122c0.692,0.275,1.037-0.771,0.481-1.143c-5.739-3.841-12.204-6.317-18.199-9.706
			c-0.21,0.36-0.42,0.72-0.631,1.08c5.699,2.857,11.009,6.438,17.135,8.353c0.708,0.222,1.044-0.76,0.481-1.143
			c-5.166-3.507-11.322-4.937-16.783-7.886c-0.161,0.381-0.321,0.762-0.481,1.143c6.478,1.688,11.802,5.978,18.199,7.886
			c0.676,0.202,1.112-0.81,0.481-1.143c-5.545-2.919-11.631-4.64-16.784-8.29c-0.21,0.36-0.42,0.72-0.631,1.08
			c6.214,3.25,11.966,7.926,19.121,8.779c0.69,0.082,0.749-0.844,0.315-1.165c-2.184-1.617-4.661-2.261-7.259-2.959
			c-3.479-0.937-6.555-2.891-10.078-3.776c-0.565-0.143-1.118,0.627-0.608,1.045c4.937,4.041,10.865,7.81,17.262,8.855
			c0.653,0.107,1.157-0.792,0.481-1.143c-6.108-3.169-12.912-4.677-18.806-8.291c-0.69-0.423-1.308,0.649-0.631,1.08
			c5.99,3.809,12.139,7.28,18.955,9.364c0.789,0.241,1.059-0.912,0.332-1.205c-5.961-2.402-12.054-4.396-17.645-7.621
			c-0.21,0.36-0.42,0.72-0.631,1.08c5.599,2.852,10.813,7.313,17.301,7.769c0.539,0.038,0.836-0.713,0.442-1.067
			c-2.187-1.966-5.033-2.827-7.757-3.8c-0.688-0.246-1.065,0.781-0.481,1.143c1.19,0.734,2.392,1.391,3.64,2.022
			c0.717,0.362,1.35-0.716,0.631-1.08c-1.248-0.631-2.449-1.287-3.64-2.022c-0.161,0.381-0.321,0.762-0.481,1.143
			c2.515,0.897,5.177,1.655,7.206,3.479c0.147-0.356,0.294-0.712,0.442-1.067c-6.198-0.436-11.318-4.872-16.67-7.599
			c-0.714-0.363-1.333,0.675-0.631,1.08c5.689,3.282,11.876,5.301,17.944,7.746c0.111-0.401,0.221-0.804,0.332-1.205
			c-6.72-2.055-12.758-5.488-18.656-9.239c-0.21,0.36-0.42,0.72-0.631,1.08c5.903,3.619,12.69,5.117,18.806,8.291
			c0.161-0.381,0.321-0.762,0.481-1.143c-6.161-1.008-11.941-4.631-16.71-8.535c-0.203,0.349-0.405,0.697-0.608,1.045
			c3.123,0.786,5.851,2.563,8.897,3.438c2.84,0.814,5.717,1.377,8.141,3.173c0.105-0.389,0.21-0.776,0.315-1.165
			c-6.875-0.82-12.523-5.487-18.49-8.609c-0.724-0.378-1.282,0.618-0.631,1.08c5.16,3.654,11.231,5.366,16.784,8.29
			c0.161-0.381,0.321-0.762,0.481-1.143c-6.399-1.909-11.712-6.196-18.199-7.886c-0.676-0.177-1.116,0.8-0.481,1.143
			c5.457,2.946,11.625,4.384,16.783,7.886c0.161-0.381,0.321-0.762,0.481-1.143c-6.024-1.883-11.235-5.419-16.836-8.228
			c-0.715-0.358-1.338,0.681-0.631,1.08c5.995,3.388,12.46,5.864,18.199,9.706c0.161-0.381,0.321-0.762,0.481-1.143
			c-7.859-3.121-14.54-8.565-22.647-11.122c-0.589-0.186-1.071,0.625-0.608,1.045c7.14,6.47,16.664,8.076,24.998,12.433
			c0.161-0.381,0.321-0.762,0.481-1.143c-10.709-3.634-20.024-10.317-30.736-13.952c-0.49-0.166-1.038,0.478-0.706,0.918
			c5.211,6.923,14.78,9.115,22.819,10.802c0.786,0.165,1.121-1.035,0.332-1.205c-11.18-2.416-21.634-6.963-31.395-12.879
			c-0.21,0.36-0.42,0.72-0.631,1.08c6.38,3.796,13.131,6.63,20.168,8.96c0.778,0.258,1.065-0.917,0.332-1.205
			c-5.423-2.137-10.99-3.819-16.229-6.408c-0.718-0.354-1.35,0.707-0.631,1.08c5.699,2.954,11.986,4.237,17.944,6.533
			c0.111-0.401,0.221-0.804,0.332-1.205c-7.081-1.578-13.732-4.318-20.072-7.824c-0.161,0.381-0.321,0.762-0.481,1.143
			c6.333,2.3,13.041,3.692,18.858,7.218c0.105-0.389,0.21-0.776,0.315-1.165c-7.172-0.127-14.164-4.432-19.905-8.408
			c-0.21,0.36-0.42,0.72-0.631,1.08c6.351,3.537,13.733,4.629,19.816,8.695c0.161-0.381,0.321-0.762,0.481-1.143
			c-6.533-2.124-12.976-4.42-18.858-8.026c-0.21,0.36-0.42,0.72-0.631,1.08c6.071,2.89,12.566,4.721,18.603,7.685
			c0.161-0.381,0.321-0.762,0.481-1.143c-6.635-1.979-13.893-3.756-19.136-8.535c-0.203,0.349-0.405,0.697-0.608,1.045
			c5.785,1.669,10.855,5.037,16.581,6.875c0.702,0.226,1.053-0.767,0.481-1.143c-5.777-3.797-12.04-6.775-17.592-10.919
			c-0.21,0.36-0.42,0.72-0.631,1.08c5.665,2.652,11.144,5.482,16.05,9.406c0.252-0.327,0.505-0.655,0.757-0.982
			c-5.259-2.513-10.224-5.56-15.368-8.291c-0.711-0.377-1.324,0.664-0.631,1.08c5.286,3.174,10.817,5.911,15.974,9.302
			c0.161-0.381,0.321-0.762,0.481-1.143c-6.119-2.229-11.773-5.323-17.24-8.835c-0.21,0.36-0.42,0.72-0.631,1.08
			c5.252,2.857,10.743,5.201,16.176,7.685c0.724,0.33,1.32-0.638,0.631-1.08c-4.542-2.911-9.621-4.729-14.356-7.28
			C149.155,284.637,148.524,285.716,149.234,286.099L149.234,286.099z"/>
	</g>
	<g>
		<path fill="#070707" d="M189.384,308.427c3.057,0.097,4.358-4.775,1.933-6.423c-0.355-0.24-0.793,0.018-0.918,0.374
			c-0.33,0.938-0.356,1.971-0.746,2.884c0.381,0.05,0.761,0.1,1.142,0.149c-0.419-1.13-0.6-2.365-1.276-3.385
			c-0.308-0.465-0.96-0.37-1.142,0.149c-0.408,1.166-0.426,2.38-0.427,3.604c-0.001,0.711,1.035,0.845,1.228,0.166
			c0.367-1.287,0.287-2.584-0.467-3.717c-0.233-0.351-0.874-0.46-1.079,0c-0.719,1.606-0.719,3.474,0,5.08
			c0.172,0.385,0.712,0.375,0.981,0.127c1.332-1.229,1.385-3.509,0.502-5.004c-0.217-0.367-0.885-0.446-1.079,0
			c-0.639,1.471-1.001,4.243,0.828,5.112c2.095,0.995,2.28-2.772,2.054-3.892c-0.356-1.762-2.088-1.255-2.896-0.193
			c-1.093,1.438-0.646,3.361,0.845,4.276c0.227,0.139,0.577,0.108,0.757-0.098c1.436-1.636,0.951-4.473-1.274-5.011
			c-2.468-0.596-1.373,3.342-0.419,4.202c0.274,0.246,0.608,0.222,0.884,0c1.668-1.346,1.424-3.884-0.329-5.027
			c-0.297-0.193-0.675-0.049-0.855,0.225c-0.993,1.505-1.011,5.314,1.202,5.76c2.921,0.589,1.936-3.979,1.292-5.354
			c-0.177-0.379-0.709-0.381-0.981-0.127c-1.506,1.41-1.428,4.069,0.329,5.229c0.306,0.201,0.663,0.038,0.855-0.225
			c0.88-1.202,1.116-2.602,0.104-3.791c-0.333-0.39-0.894-0.124-1.044,0.276c-0.422,1.121-0.584,2.21-0.427,3.401
			c0.064,0.484,0.477,0.759,0.94,0.54c1.383-0.656,2.055-2.082,1.927-3.573c-0.043-0.509-0.666-0.872-1.067-0.442
			c-0.923,0.989-1.355,2.128-1.396,3.476c-0.014,0.449,0.551,0.812,0.94,0.54c1.302-0.911,1.755-2.452,1.033-3.889
			c-0.193-0.385-0.694-0.371-0.981-0.127c-0.955,0.813-0.783,1.634-0.098,2.577c0.469,0.646,1.554,0.022,1.079-0.631
			c-0.309-0.426-0.567-0.662-0.098-1.062c-0.327-0.043-0.654-0.085-0.981-0.127c0.399,0.795,0.135,1.675-0.585,2.178
			c0.313,0.181,0.627,0.36,0.94,0.54c0.031-1.015,0.333-1.844,1.03-2.591c-0.355-0.147-0.711-0.295-1.067-0.442
			c0.094,1.092-0.29,2.011-1.308,2.493c0.313,0.181,0.627,0.36,0.94,0.54c-0.144-1.088-0.003-2.047,0.382-3.069
			c-0.348,0.092-0.696,0.184-1.044,0.276c0.641,0.752,0.198,1.595-0.3,2.275c0.285-0.075,0.57-0.149,0.855-0.225
			c-1.103-0.728-0.964-2.433-0.076-3.264c-0.327-0.043-0.654-0.085-0.981-0.127c0.244,0.521,1.135,4.118-0.198,3.418
			c-0.965-0.507-0.621-3.091-0.138-3.823c-0.285,0.075-0.57,0.149-0.855,0.225c1.137,0.741,1.085,2.249,0.076,3.062
			c0.294,0,0.589,0,0.884,0c-0.322-0.289-1.146-2.196-0.613-2.067c1.186,0.286,1.244,2.073,0.538,2.876
			c0.252-0.032,0.505-0.064,0.757-0.098c-0.781-0.479-0.98-1.176-0.697-2.023c0.108-0.325,0.333-0.606,0.583-0.834
			c0.196-0.179,0.205-0.176,0.283,0.024c0.171,0.441-0.019,2.822-0.369,2.527c-0.879-0.741-0.565-2.403-0.182-3.287
			c-0.36,0-0.719,0-1.079,0c0.606,1.027,0.618,2.636-0.307,3.488c0.327,0.043,0.654,0.085,0.981,0.127
			c-0.517-1.155-0.517-2.663,0-3.818c-0.36,0-0.719,0-1.079,0c0.579,0.868,0.623,1.765,0.341,2.754
			c0.409,0.056,0.818,0.11,1.228,0.166c0.001-1.117,0.009-2.205,0.382-3.271c-0.381,0.05-0.761,0.1-1.142,0.149
			c0.613,0.925,0.769,2.06,1.15,3.086c0.164,0.44,0.907,0.701,1.142,0.149c0.437-1.024,0.504-2.136,0.872-3.183
			c-0.306,0.125-0.612,0.249-0.918,0.374c1.436,0.976,0.438,4.147-1.302,4.093C188.578,307.151,188.58,308.401,189.384,308.427
			L189.384,308.427z"/>
	</g>
	<g>
		<path fill="#070707" d="M302.326,330.383c4.146-2.907,8.282-5.893,12.994-7.824c0.735-0.301,0.414-1.511-0.332-1.205
			c-4.823,1.977-9.048,4.973-13.293,7.949C301.041,329.762,301.664,330.847,302.326,330.383L302.326,330.383z"/>
	</g>
	<g>
		<path fill="#070707" d="M308.797,326.945c2.279-1.258,4.478-2.648,6.673-4.045c0.678-0.432,0.052-1.514-0.631-1.08
			c-2.195,1.397-4.394,2.788-6.673,4.045C307.46,326.255,308.091,327.335,308.797,326.945L308.797,326.945z"/>
	</g>
	<g>
		<path fill="#070707" d="M354.383,296.698c0.466,0.466,0.931,0.932,1.396,1.397c0.029,0.458,0.513,0.798,0.94,0.54
			c2.821-1.703,5.701-3.304,8.493-5.055c0.693-0.436,0.091-1.413-0.631-1.08c-2.108,0.975-4.191,1.995-6.269,3.032
			c0.313,0.181,0.627,0.36,0.94,0.54c0-0.067,0-0.135,0-0.202c0-0.47-0.532-0.785-0.94-0.54c-0.254,0.008-0.509,0.015-0.763,0.022
			c-0.278-0.493-0.978-0.348-1.143,0.149c-0.067,0.202-0.135,0.404-0.202,0.606c-0.219,0.656,0.601,0.958,1.045,0.608
			c0.012-0.011,0.024-0.021,0.037-0.03c0.167-0.131,0.218-0.414,0.16-0.607c-0.181-0.611,3.3-1.729,4.17-2.14
			c2.837-1.336,5.527-2.941,8.043-4.809c0.633-0.471,0.093-1.476-0.631-1.08c-3.333,1.825-6.777,3.433-10.11,5.258
			c-0.61,0.334-0.183,1.415,0.481,1.143c4.28-1.752,8.188-4.271,12.537-5.864c-0.16-0.381-0.321-0.762-0.481-1.143
			c-3.884,2.392-7.968,4.42-11.931,6.673c-0.717,0.408-0.089,1.397,0.631,1.08c3.782-1.672,7.34-3.788,11.122-5.46
			c-0.21-0.36-0.421-0.72-0.631-1.08c-3.626,1.646-7.161,3.47-10.718,5.258c0.21,0.36,0.421,0.72,0.631,1.08
			c4.615-2.347,9.428-4.229,14.208-6.206c0.723-0.299,0.447-1.472-0.332-1.205c-4.503,1.537-8.655,3.783-12.889,5.927
			c-0.625,0.317-0.175,1.417,0.481,1.143c4.005-1.671,7.952-3.47,11.877-5.32c0.737-0.349,0.094-1.391-0.631-1.08
			c-3.218,1.383-6.397,2.786-9.023,5.153c-0.536,0.484,0.153,1.334,0.758,0.982c2.455-1.431,4.918-2.815,7.481-4.044
			c0.641-0.308,0.187-1.364-0.481-1.143c-3.538,1.172-6.82,2.981-10.515,3.64c0.202,0.348,0.405,0.696,0.608,1.045
			c2.163-2.099,4.828-3.373,7.354-4.958c0.69-0.434,0.09-1.426-0.631-1.08c-3.396,1.633-6.714,3.423-10.11,5.056
			c0.21,0.36,0.421,0.72,0.631,1.08c2.944-1.871,5.927-3.601,9.1-5.056c-0.21-0.36-0.421-0.72-0.631-1.08
			c-2.938,1.895-6.293,2.949-9.1,5.056c-0.629,0.473-0.091,1.483,0.631,1.08c3.016-1.686,6.094-3.226,8.897-5.258
			c0.641-0.465,0.086-1.483-0.631-1.08c-3.006,1.694-5.815,3.698-8.897,5.258c0.21,0.36,0.421,0.72,0.631,1.08
			c1.751-1.024,3.437-2.135,5.258-3.033c-0.253-0.327-0.505-0.655-0.758-0.982c-1.462,1.183-2.928,2.295-4.247,3.64
			c-0.564,0.576,0.319,1.461,0.885,0.885c1.318-1.346,2.784-2.458,4.247-3.64c0.583-0.472-0.159-1.277-0.758-0.982
			c-1.821,0.899-3.507,2.01-5.258,3.033c-0.7,0.41-0.084,1.441,0.631,1.08c3.082-1.56,5.892-3.563,8.897-5.258
			c-0.21-0.36-0.421-0.72-0.631-1.08c-2.804,2.033-5.882,3.573-8.897,5.258c0.21,0.36,0.421,0.72,0.631,1.08
			c2.807-2.107,6.162-3.162,9.1-5.056c0.688-0.443,0.093-1.412-0.631-1.08c-3.173,1.456-6.155,3.186-9.1,5.056
			c-0.687,0.437-0.091,1.427,0.631,1.08c3.396-1.633,6.714-3.423,10.11-5.056c-0.21-0.36-0.421-0.72-0.631-1.08
			c-2.631,1.65-5.361,2.975-7.608,5.153c-0.481,0.468,0.026,1.148,0.608,1.045c3.694-0.657,6.978-2.468,10.515-3.64
			c-0.16-0.381-0.321-0.762-0.481-1.143c-2.563,1.229-5.026,2.614-7.481,4.044c0.253,0.327,0.505,0.655,0.758,0.982
			c2.543-2.294,5.659-3.622,8.77-4.958c-0.21-0.36-0.421-0.72-0.631-1.08c-3.826,1.805-7.673,3.566-11.578,5.195
			c0.16,0.381,0.321,0.762,0.481,1.143c4.134-2.094,8.19-4.3,12.59-5.802c-0.11-0.401-0.222-0.804-0.332-1.205
			c-4.882,2.018-9.794,3.936-14.507,6.331c-0.72,0.366-0.087,1.44,0.631,1.08c3.557-1.789,7.093-3.611,10.718-5.258
			c0.735-0.334,0.097-1.401-0.631-1.08c-3.782,1.673-7.34,3.789-11.122,5.46c0.21,0.36,0.421,0.72,0.631,1.08
			c3.963-2.254,8.047-4.282,11.931-6.673c0.584-0.359,0.205-1.395-0.481-1.143c-4.352,1.593-8.256,4.111-12.537,5.864
			c0.16,0.381,0.321,0.762,0.481,1.143c3.333-1.825,6.777-3.433,10.11-5.258c-0.21-0.36-0.421-0.72-0.631-1.08
			c-3.864,2.869-8.146,4.994-12.59,6.812c-0.304,0.124-0.551,0.416-0.437,0.769c-0.005,0.326,0.116,0.394,0.362,0.2
			c0.349,0.203,0.697,0.406,1.045,0.608c0.067-0.202,0.135-0.404,0.202-0.606c-0.381,0.05-0.762,0.1-1.143,0.149
			c0.251,0.444,0.345,0.551,0.705,0.937c0.189,0.202,0.523,0.238,0.758,0.098c0.337-0.203,0.674-0.405,1.011-0.607
			c-0.313-0.181-0.627-0.36-0.94-0.54c0,0.067,0,0.135,0,0.202c0,0.497,0.524,0.747,0.94,0.54c2.078-1.037,4.161-2.059,6.269-3.032
			c-0.21-0.36-0.421-0.72-0.631-1.08c-2.792,1.752-5.672,3.353-8.493,5.055c0.313,0.181,0.627,0.36,0.94,0.54
			c-0.113-1.784-0.837-2.58-2.646-2.647C353.576,295.418,353.579,296.668,354.383,296.698L354.383,296.698z"/>
	</g>
	<g>
		<path fill="#070707" d="M359.551,295.603c0.495-0.251,0.929-0.534,1.34-0.906c-0.295-0.295-0.59-0.59-0.885-0.885
			c-0.719,0.702-1.496,1.321-2.299,1.924c0.252,0.327,0.505,0.655,0.758,0.982c0.337-0.337,0.674-0.674,1.011-1.011
			c0.43-0.431-0.001-1.241-0.608-1.045c-0.427,0.138-0.935,0.225-1.301,0.499c-0.435,0.327-0.586,0.858-0.753,1.354
			c0.348-0.092,0.696-0.184,1.045-0.276c-0.272-0.274-0.515-0.551-0.712-0.885c-0.414-0.699-1.438-0.085-1.08,0.631
			c0.203,0.404,0.405,0.81,0.607,1.214c0.327-0.253,0.654-0.505,0.982-0.758c-0.391-0.355-0.824-0.655-1.214-1.012
			c-0.253,0.327-0.505,0.655-0.758,0.982c0.427,0.233,0.824,0.519,1.214,0.81c0.647,0.482,1.27-0.604,0.631-1.08
			c-0.39-0.29-0.787-0.576-1.214-0.81c-0.608-0.332-1.296,0.489-0.758,0.982c0.391,0.355,0.824,0.655,1.214,1.012
			c0.535,0.487,1.301-0.122,0.982-0.758c-0.203-0.404-0.405-0.81-0.607-1.214c-0.36,0.21-0.72,0.421-1.08,0.631
			c0.252,0.426,0.561,0.788,0.907,1.139c0.347,0.35,0.897,0.16,1.045-0.276c0.261-0.769,0.419-0.732,1.181-0.979
			c-0.202-0.348-0.405-0.696-0.608-1.045c-0.337,0.337-0.674,0.674-1.011,1.011c-0.488,0.489,0.178,1.418,0.758,0.982
			c0.888-0.667,1.757-1.344,2.553-2.119c0.58-0.566-0.29-1.423-0.885-0.885c-0.337,0.306-0.685,0.508-1.086,0.711
			C358.201,294.888,358.834,295.966,359.551,295.603L359.551,295.603z"/>
	</g>
	<g>
		<path fill="#070707" d="M377.27,284.788c1.951-2.353,4.709-3.616,7.153-5.362c0.646-0.463,0.039-1.54-0.631-1.08
			c-2.227,1.529-4.707,2.63-6.875,4.247c-0.63,0.47-0.06,1.527,0.631,1.08c2.28-1.479,4.432-3.065,6.395-4.951
			c0.512-0.493-0.151-1.354-0.758-0.982c-2.029,1.246-3.973,2.597-5.863,4.044c-0.619,0.475-0.077,1.513,0.631,1.08
			c2.158-1.322,4.205-2.779,6.193-4.344c-0.295-0.295-0.59-0.59-0.885-0.885c-2.425,1.97-5.019,3.699-7.28,5.864
			c-0.538,0.516,0.144,1.279,0.758,0.982c3.146-1.525,6.096-3.439,9.557-4.185c-0.235-0.306-0.471-0.612-0.706-0.918
			c-1.937,2.933-5.858,3.896-8.928,5.173c0.16,0.381,0.321,0.762,0.481,1.143c2.882-1.428,5.756-2.674,8.95-3.173
			c-0.16-0.381-0.321-0.762-0.481-1.143c-3.424,1.454-6.67,3.235-9.908,5.056c-0.723,0.407-0.088,1.384,0.631,1.08
			c3.891-1.648,7.741-3.381,11.526-5.258c0.639-0.317,0.189-1.353-0.481-1.143c-1.504,0.47-2.949,1.063-4.396,1.681
			c0.252,0.327,0.505,0.654,0.758,0.982c1.518-1.896,3.262-4.003,5.182-1.618c0.253-0.327,0.506-0.655,0.758-0.982
			c-1.668-0.772-3.11-1.139-4.675,0c-0.39,0.284-0.439,1.034,0.149,1.143c1.476,0.272,2.923,0.12,4.412,0.225
			c-0.105-0.389-0.21-0.776-0.315-1.165c-2.235,1.451-4.727,2.281-7.332,2.769c0.16,0.381,0.321,0.762,0.481,1.143
			c2.235-1.331,4.625-2.123,7.13-2.769c-0.11-0.401-0.222-0.804-0.332-1.205c-2.376,0.844-4.646,1.943-7.077,2.629
			c-0.774,0.218-0.445,1.424,0.332,1.205c2.432-0.685,4.701-1.784,7.077-2.629c0.751-0.267,0.457-1.409-0.332-1.205
			c-2.612,0.673-5.104,1.51-7.429,2.894c-0.636,0.379-0.195,1.27,0.481,1.143c2.709-0.507,5.311-1.388,7.631-2.894
			c0.537-0.349,0.306-1.121-0.315-1.165c-1.368-0.097-2.719,0.071-4.08-0.18c0.05,0.381,0.1,0.762,0.149,1.143
			c1.199-0.693,2.337-0.693,3.413,0c0.661,0.306,1.207-0.423,0.758-0.982c-0.639-0.792-1.28-1.398-2.148-1.917
			c-0.189-0.112-0.441-0.114-0.631,0c-1.61,0.977-2.99,2.061-4.172,3.535c-0.457,0.571,0.097,1.265,0.758,0.982
			c1.354-0.578,2.694-1.117,4.098-1.556c-0.16-0.381-0.321-0.762-0.481-1.143c-3.785,1.878-7.636,3.61-11.526,5.258
			c0.21,0.36,0.421,0.72,0.631,1.08c3.238-1.821,6.484-3.603,9.908-5.056c0.705-0.3,0.155-1.242-0.481-1.143
			c-3.306,0.516-6.273,1.824-9.249,3.298c-0.629,0.312-0.174,1.415,0.481,1.143c3.416-1.421,7.524-2.49,9.676-5.747
			c0.322-0.488-0.205-1.026-0.706-0.918c-3.569,0.769-6.608,2.736-9.855,4.31c0.252,0.327,0.505,0.655,0.758,0.982
			c2.258-2.163,4.857-3.898,7.28-5.864c0.629-0.512-0.262-1.375-0.885-0.885c-1.904,1.5-3.872,2.883-5.939,4.148
			c0.21,0.36,0.421,0.72,0.631,1.08c1.891-1.447,3.834-2.798,5.863-4.044c-0.253-0.327-0.505-0.655-0.758-0.982
			c-1.882,1.81-3.953,3.338-6.141,4.756c0.21,0.36,0.421,0.72,0.631,1.08c2.168-1.618,4.648-2.719,6.875-4.247
			c-0.21-0.36-0.421-0.72-0.631-1.08c-2.533,1.811-5.387,3.122-7.407,5.558C375.875,284.52,376.754,285.408,377.27,284.788
			L377.27,284.788z"/>
	</g>
	<g>
		<path fill="#070707" d="M379.928,282.841c0.927,1.469,2.836-0.439,3.978-0.499c0.802-0.042,0.806-1.292,0-1.25
			c-0.577,0.03-1.095,0.263-1.614,0.497c-0.281,0.126-0.558,0.263-0.843,0.378c-0.125,0.051-0.253,0.092-0.382,0.129
			c-0.238,0.07-0.154-0.037-0.059,0.114C380.578,281.53,379.496,282.157,379.928,282.841L379.928,282.841z"/>
	</g>
	<g>
		<path fill="#070707" d="M402.17,266.462c0.596,1.301,1.3,2.534,1.758,3.895c0.11,0.33,0.424,0.521,0.769,0.437
			c1.749-0.428,3.248-1.722,4.618-2.828c1.63-1.316,3.236-2.776,4.556-4.41c0.244-0.303,0.254-0.77-0.127-0.981
			c-1.462-0.814-2.92-1.522-4.624-1.225c-1.69,0.295-3.016,2.139-4.021,3.345c-0.517,0.621,0.265,1.404,0.885,0.884
			c1.284-1.078,2.53-2.175,3.64-3.438c0.535-0.61-0.271-1.403-0.885-0.884c-1.429,1.208-2.888,2.356-4.044,3.842
			c-0.396,0.509,0.127,1.43,0.758,0.981c1.583-1.125,3.187-2.217,4.269-3.864c0.37-0.564-0.332-1.108-0.855-0.855
			c-2.079,1.006-3.84,2.453-4.735,4.62c-0.21,0.508,0.49,0.996,0.918,0.706c1.426-0.966,2.688-1.963,3.32-3.609
			c0.136-0.354-0.219-0.837-0.603-0.791c-2.017,0.24-3.583,1.722-4.04,3.694c-0.105,0.455,0.295,0.904,0.769,0.769
			c1.22-0.348,1.907-1.037,2.256-2.256c0.104-0.362-0.194-0.831-0.603-0.791c-1.614,0.158-2.488,1.033-2.646,2.647
			c-0.049,0.503,0.559,0.737,0.94,0.54c0.949-0.49,1.408-0.958,1.702-1.991c0.144-0.504-0.319-0.832-0.769-0.769
			c-1.596,0.224-2.528,1.452-2.48,3.029c0.01,0.31,0.278,0.666,0.625,0.625c1.606-0.189,2.611-1.114,3.028-2.683
			c0.145-0.544-0.438-0.962-0.918-0.706c-1.273,0.68-1.812,1.727-1.725,3.168c0.022,0.368,0.39,0.761,0.791,0.603
			c1.653-0.65,2.709-1.939,3.916-3.194c0.501-0.521-0.132-1.309-0.758-0.981c-1.616,0.845-2.688,2.237-3.46,3.864
			c-0.263,0.556,0.277,1.169,0.855,0.855c2.264-1.231,4.077-3.051,5.789-4.951c0.378-0.42,0.017-1.299-0.608-1.044
			c-2.576,1.047-4.929,2.94-6.036,5.544c-0.225,0.53,0.267,1.217,0.855,0.855c2.366-1.456,5.071-3.3,6.291-5.886
			c0.212-0.451-0.14-1.116-0.706-0.918c-2.301,0.803-4.148,2.256-5.43,4.331c-0.308,0.499,0.195,1.019,0.706,0.918
			c2.258-0.444,4.713-2.19,5.632-4.331c0.197-0.462-0.126-1.102-0.706-0.918c-2.165,0.685-4.46,2.445-5.43,4.533
			c-0.201,0.434,0.14,1.146,0.706,0.918c1.252-0.502,4.19-2.039,4.337-3.59c0.021-0.226-0.138-0.421-0.309-0.54
			c-0.179-0.124-0.343-0.138-0.555-0.131c-0.804,0.026-0.807,1.276,0,1.25c-0.182-0.654-0.398-0.783-0.65-0.388
			c-0.324,0.332-0.714,0.623-1.079,0.903c-0.633,0.484-1.332,0.991-2.076,1.29c0.235,0.306,0.471,0.612,0.706,0.918
			c0.837-1.804,2.795-3.362,4.682-3.959c-0.235-0.306-0.471-0.612-0.706-0.918c-0.804,1.875-2.901,3.367-4.884,3.757
			c0.235,0.306,0.471,0.612,0.706,0.918c1.106-1.793,2.696-3.063,4.682-3.757c-0.235-0.306-0.471-0.612-0.706-0.918
			c-1.129,2.395-3.654,4.091-5.842,5.438c0.285,0.285,0.57,0.57,0.855,0.855c0.976-2.296,2.997-4.039,5.288-4.97
			c-0.202-0.348-0.405-0.696-0.608-1.044c-1.642,1.822-3.36,3.572-5.535,4.755c0.285,0.285,0.57,0.57,0.855,0.855
			c0.685-1.444,1.568-2.661,3.011-3.416c-0.253-0.327-0.505-0.654-0.758-0.981c-1.018,1.059-1.955,2.318-3.363,2.873
			c0.264,0.201,0.527,0.402,0.791,0.603c-0.187-0.929,0.183-1.625,1.105-2.089c-0.306-0.235-0.612-0.47-0.918-0.706
			c-0.15,0.959-0.758,1.547-1.823,1.765c0.208,0.208,0.417,0.417,0.625,0.625c0.039-1.189,0.56-1.796,1.562-1.824
			c-0.256-0.256-0.513-0.512-0.769-0.769c-0.188,0.626-0.563,1.041-1.128,1.244c0.313,0.18,0.627,0.36,0.94,0.54
			c0.466-0.466,0.931-0.931,1.396-1.397c-0.201-0.264-0.401-0.527-0.603-0.791c-0.134,0.789-0.595,1.25-1.383,1.383
			c0.256,0.256,0.513,0.512,0.769,0.769c0.319-1.375,1.353-2.6,2.835-2.776c-0.201-0.264-0.401-0.527-0.603-0.791
			c-0.514,1.338-1.613,2.093-2.746,2.862c0.306,0.235,0.612,0.47,0.918,0.706c0.766-1.852,2.417-3.028,4.161-3.873
			c-0.285-0.285-0.57-0.57-0.855-0.855c-0.959,1.459-2.419,2.42-3.819,3.416c0.253,0.327,0.505,0.654,0.758,0.981
			c1.155-1.485,2.614-2.633,4.044-3.842c-0.295-0.294-0.59-0.589-0.885-0.884c-1.108,1.262-2.354,2.359-3.64,3.438
			c0.295,0.294,0.59,0.589,0.885,0.884c0.865-1.038,1.725-2.124,2.905-2.816c1.352-0.792,3.056,0.241,4.224,0.892
			c-0.042-0.327-0.084-0.654-0.127-0.981c-1.104,1.368-2.42,2.566-3.739,3.723c-1.375,1.205-3.052,2.746-4.882,3.194
			c0.256,0.146,0.513,0.291,0.769,0.437c-0.492-1.462-1.242-2.794-1.883-4.193C402.914,265.1,401.837,265.735,402.17,266.462
			L402.17,266.462z"/>
	</g>
	<g>
		<path fill="#070707" d="M407.023,267.854c-0.332,0.764-0.973,1.385-1.513,2.003c-0.37,0.423-1.054,1.042-0.712,1.661
			c0.391,0.705,1.471,0.075,1.08-0.631c0.087,0.158-0.007,0.523,0.079,0.386c0.057-0.09,0.128-0.169,0.195-0.251
			c0.228-0.274,0.468-0.54,0.702-0.809c0.457-0.526,0.966-1.083,1.248-1.729C408.422,267.753,407.345,267.116,407.023,267.854
			L407.023,267.854z"/>
	</g>
	<g>
		<path fill="#070707" d="M259.543,336.552c-0.113-0.396-0.029-0.857,0.319-1.114c0.641-0.474,0.019-1.559-0.631-1.08
			c-0.802,0.592-1.173,1.552-0.894,2.526C258.559,337.657,259.766,337.328,259.543,336.552L259.543,336.552z"/>
	</g>
</g>
</svg>
