<?xml version="1.0" encoding="utf-8"?>
<!-- Generator: Adobe Illustrator 16.0.0, SVG Export Plug-In . SVG Version: 6.00 Build 0)  -->
<!DOCTYPE svg PUBLIC "-//W3C//DTD SVG 1.1//EN" "http://www.w3.org/Graphics/SVG/1.1/DTD/svg11.dtd">
<svg version="1.1" id="Layer_1" xmlns="http://www.w3.org/2000/svg" xmlns:xlink="http://www.w3.org/1999/xlink" x="0px" y="0px"
	 width="500px" height="550px" viewBox="0 0 500 550" enable-background="new 0 0 500 550" xml:space="preserve">
<g>
	<path fill="#070707" d="M193.086,177.37c-5.544,0-10.037,4.492-10.037,10.041c0,5.541,4.493,10.038,10.037,10.038
		c5.544,0,10.04-4.497,10.04-10.038C203.126,181.862,198.631,177.37,193.086,177.37z M197.129,193.794
		c-1.568,0-2.844-1.272-2.844-2.839c0-1.57,1.275-2.843,2.844-2.843c1.57,0,2.842,1.273,2.842,2.843
		C199.971,192.522,198.699,193.794,197.129,193.794z"/>
	<circle fill="none" stroke="#070707" stroke-width="1.5" stroke-miterlimit="10" cx="188.481" cy="187.933" r="32.13"/>
	<path fill="#070707" d="M282.806,181.032c-5.543,0-10.035,4.494-10.035,10.041c0,5.542,4.492,10.038,10.035,10.038
		c5.545,0,10.042-4.495,10.042-10.038C292.848,185.526,288.351,181.032,282.806,181.032z M286.85,197.456
		c-1.568,0-2.843-1.269-2.843-2.839c0-1.567,1.274-2.843,2.843-2.843c1.571,0,2.842,1.276,2.842,2.843
		C289.691,196.187,288.421,197.456,286.85,197.456z"/>
	<path fill="none" stroke="#070707" stroke-width="1.5" stroke-miterlimit="10" d="M314.679,194.083
		c0-17.742-14.386-32.13-32.13-32.13c-17.742,0-32.131,14.388-32.131,32.13c0,17.744,14.389,32.13,32.131,32.13
		C300.293,226.214,314.679,211.827,314.679,194.083z"/>
	<g>
		<path fill="#070707" d="M224.135,207.875c0.226-0.037,0.451-0.073,0.676-0.11c-0.161-0.381-0.321-0.761-0.482-1.142
			c-0.814,0.521-1.855,0.499-2.727,1.036c-1.314,0.809-2.494,1.825-3.627,2.865c-1.565,1.438-3.846,4.258-3.155,6.606
			c2.506,8.523,13.835,3.285,19.343,2.657c5.72-0.652,13.674,5.852,16.091-2.735c1.726-6.131-7.185-9.971-11.448-11.569
			c-0.756-0.284-1.08,0.925-0.332,1.205c4.176,1.566,10.153,4.031,10.648,9.152c0.771,7.963-11.23,2.715-14.959,2.697
			c-1.877-0.009-3.827,0.682-5.603,1.18c-3.237,0.907-13.685,2.792-12.413-4.32c0.788-4.404,5.76-5.74,8.813-7.694
			c0.625-0.4,0.202-1.254-0.482-1.142c-0.225,0.037-0.451,0.073-0.676,0.11C223.009,206.799,223.347,208.004,224.135,207.875
			L224.135,207.875z"/>
	</g>
	<g>
		<path fill="#070707" d="M240.415,220.919c0.896,2.258,1.128,4.751,1.047,7.162c-0.05,1.478-0.34,3.125-1.362,4.256
			c-1.779,1.968-6.548,0.798-6.011-2.298c0.137-0.788-1.067-1.125-1.205-0.332c-0.791,4.557,5.146,5.979,8.1,3.514
			c3.05-2.545,1.881-9.499,0.637-12.633C241.326,219.847,240.117,220.169,240.415,220.919L240.415,220.919z"/>
	</g>
	<ellipse fill="#070707" cx="232.403" cy="205.246" rx="9.226" ry="5.109"/>
	<g>
		<path fill="#070707" d="M232.558,220.792c0.272,3.604,1.158,8.999-1.464,11.94c-2.451,2.749-5.641-0.706-6.232-3.109
			c-0.65-2.641-0.259-5.733,0.505-8.307c0.23-0.774-0.977-1.103-1.205-0.332c-1.27,4.276-1.795,14.974,5.486,13.778
			c5.67-0.931,4.462-9.975,4.16-13.97C233.748,219.994,232.498,219.988,232.558,220.792L232.558,220.792z"/>
	</g>
	<g>
		<path fill="#070707" stroke="#070707" stroke-width="0.05" stroke-miterlimit="10" d="M166.475,212.766
			c1.279,16.271,5.285,32.137,7.306,48.308c2,16,0.518,32.087,0.158,48.131c-0.328,14.554,0.894,29.28,7.522,42.474
			c5.923,11.791,17.295,19.46,26.743,28.172c1.183,1.091,2.955-0.673,1.768-1.768c-9.447-8.712-20.068-16.145-26.352-27.666
			c-7.356-13.488-7.515-29.802-7.092-44.744c0.422-14.914,1.449-29.718-0.247-44.599c-1.846-16.198-6.026-32.03-7.306-48.308
			C168.849,211.17,166.348,211.158,166.475,212.766L166.475,212.766z"/>
	</g>
	<g>
		<path fill="#070707" d="M223.499,387.57c21.133,10.528,49.055,6.143,70.903,0.126c1.553-0.427,0.893-2.839-0.664-2.41
			c-21.116,5.814-48.52,10.317-68.978,0.126C223.323,384.695,222.056,386.852,223.499,387.57L223.499,387.57z"/>
	</g>
	<g>
		<path fill="#070707" d="M315.26,378.348c17.963-16.779,27.594-38.547,26.769-63.216c-0.94-28.126-17.138-52.689-20.234-80.396
			c-2.801-25.054,11.396-51.889-6.755-73.878c-14.361-17.397-37.938-25.414-59.665-27.836c-14.042-1.566-28.474-0.233-42.192,3.015
			c-12.281,2.908-26.357,8.194-33,19.696c-0.808,1.398,1.353,2.657,2.158,1.262c5.502-9.527,16.431-14.145,26.495-17.201
			c9.765-2.965,19.979-4.309,30.146-4.807c24.002-1.177,50.287,5.586,68.543,21.718c11.33,10.011,15.267,22.935,14.647,37.729
			c-0.563,13.479-4.117,26.751-2.878,40.303c2.545,27.832,18.817,52.264,20.234,80.396c1.204,23.9-8.744,45.295-26.036,61.448
			C312.312,377.683,314.083,379.446,315.26,378.348L315.26,378.348z"/>
	</g>
	<g>
		<path fill="#070707" d="M189.385,311.452c0.879-3.592,1.565-7.35,1.379-11.06c-0.121-2.407-1.79-5.625-4.608-5.658
			c-5.672-0.066-5.155,10.326-3.993,13.709c0.26,0.758,1.468,0.433,1.205-0.332c-0.794-2.313-1.679-12.874,2.996-12.086
			c5.607,0.945,2.646,11.7,1.816,15.095C187.988,311.903,189.194,312.235,189.385,311.452L189.385,311.452z"/>
	</g>
	<g>
		<path fill="#070707" d="M185.189,294.891c-12.019-3.611-11.499,26.253,3.909,16.936c0.688-0.417,0.061-1.498-0.631-1.08
			c-13.476,8.15-13.228-17.54-3.61-14.65C185.631,296.328,185.959,295.122,185.189,294.891L185.189,294.891z"/>
	</g>
	<g>
		<path fill="#070707" d="M279.704,299.084c-2.193-2.338-3.352-5.712-3.569-8.875c-0.117-1.709,0.235-5.592,2.277-6.273
			c1.446-0.483,2.907,1.369,3.568,2.372c1.051,1.596,1.604,3.643,1.188,5.53c-0.174,0.785,1.031,1.119,1.205,0.332
			c0.521-2.361-0.174-4.764-1.483-6.75c-0.934-1.419-2.723-3.152-4.604-2.735c-2.512,0.557-3.043,3.759-3.311,5.875
			c-0.498,3.927,1.158,8.544,3.845,11.409C279.372,300.558,280.255,299.672,279.704,299.084L279.704,299.084z"/>
	</g>
	<g>
		<path fill="#070707" d="M282.586,285.027c4.981-2.677,7.168,2.975,7.147,7.057c-0.03,6.07-4.486,9.324-10.156,6.902
			c-0.732-0.312-1.37,0.764-0.631,1.08c6.483,2.769,11.568-0.641,12.023-7.575c0.344-5.252-3.062-11.742-9.015-8.544
			C281.245,284.329,281.876,285.408,282.586,285.027L282.586,285.027z"/>
	</g>
	<g>
		<path fill="#070707" d="M210.757,380.326c11.438-4.732,13.713,13.869,7.614,19.957c-3.501,3.495-10.423,4.765-14.449,1.568
			c-6.244-4.956,4.741-8.369,8.174-8.719c0.794-0.081,0.802-1.332,0-1.25c-4.279,0.436-12.556,2.22-10.798,8.345
			c1.563,5.444,9.638,5.324,13.676,3.534c6.839-3.033,9.339-9.599,7.794-16.747c-1.273-5.893-6.301-10.394-12.344-7.894
			C209.691,379.425,210.013,380.635,210.757,380.326L210.757,380.326z"/>
	</g>
	<g>
		<path fill="#070707" d="M209.104,379.215c-0.537,3.698-0.679,7.918-4.128,10.174c-1.442,0.943-2.927,0.481-3.934,1.874
			c-0.935,1.294-0.365,3.528,0.002,4.877c0.211,0.777,1.417,0.447,1.205-0.332c-0.352-1.293-1.229-3.993,0.87-4.381
			c0.575-0.106,1.267-0.337,1.79-0.604c1.172-0.597,2.276-1.347,3.009-2.475c1.72-2.648,1.949-5.753,2.392-8.802
			C210.424,378.759,209.22,378.42,209.104,379.215L209.104,379.215z"/>
	</g>
	<g>
		<path fill="#070707" d="M296.476,385.905c0.843,4.349,0.761,10.655,5.778,12.44c3.483,1.239,10.22,2.51,12.981-0.913
			c1.793-2.223,0.562-5.378-1.165-7.213c-2.146-2.283-5.301-2.386-7.658-0.412c-0.618,0.519,0.271,1.398,0.885,0.885
			c4.286-3.59,10.503,3.819,6.1,6.729c-1.351,0.893-3.188,0.868-4.734,0.798c-2.375-0.108-5.161-0.432-7.226-1.677
			c-3.238-1.954-3.128-7.729-3.756-10.97C297.527,384.782,296.323,385.118,296.476,385.905L296.476,385.905z"/>
	</g>
	<g>
		<path fill="#070707" d="M316.322,394.453c2.318-2.581,1.419-5.631-0.029-8.428c-0.866-1.674-1.965-3.223-2.931-4.84
			c-1.409-2.36-1.353-3.77,1.765-3.848c0.805-0.021,0.807-1.271,0-1.25c-3.11,0.078-4.902,1.346-3.517,4.476
			c1.602,3.616,7.396,9.032,3.827,13.005C314.901,394.167,315.782,395.054,316.322,394.453L316.322,394.453z"/>
	</g>
	<g>
		<path fill="#070707" d="M453.384,299.677c-4.604-2.726-9.236-5.411-14.377-2.537c-4.81,2.689-8.036,8.819-9.951,13.726
			c-1.944,4.979-2.983,11.356,0.059,16.092c3.658,5.695,10.235,4.482,16.119,4.379c1.61-0.028,1.613-2.528,0-2.5
			c-5.512,0.098-11.042,1.402-14.517-4.006c-2.389-3.719-0.555-9.538,0.749-13.3c1.454-4.195,3.992-7.626,7.034-10.794
			c4.338-4.517,9.229-1.501,13.622,1.099C453.513,302.658,454.77,300.497,453.384,299.677L453.384,299.677z"/>
	</g>
	<g>
		<path fill="#070707" d="M446.409,327.953c-5.712,8.138-7.039,18.126-16.451,23.321c-10.764,5.942-19.982-5.607-22.627-14.753
			c-3.033-10.49,0.569-24.022,3.489-34.11c3.205-11.073,8.594-25.095,19.462-30.763c5.68-2.962,12.883-1.179,17.252,3.245
			c6.021,6.094,5.287,17.287,4.721,25.114c-0.116,1.609,2.385,1.599,2.5,0c0.624-8.628,0.757-18.436-4.532-25.768
			c-3.812-5.285-11.275-7.431-17.469-6.126c-13.648,2.875-20.451,21.063-24.042,32.625c-4.142,13.334-7.802,30.357-1.023,43.385
			c4.229,8.124,13.062,13.175,22.01,9.99c11.112-3.955,12.874-16.355,18.869-24.897
			C449.496,327.892,447.327,326.645,446.409,327.953L446.409,327.953z"/>
	</g>
	<g>
		<path fill="#070707" d="M448.567,270.043c-3.054-6.919-8.012-12.526-16.034-12.524c-7.373,0.002-14.271,5.049-19.59,9.63
			c-11.964,10.306-18.309,24.181-21.907,39.289c-3.347,14.051-4.999,32.645,4.521,44.805c12.136,15.502,33.968,11.635,43.234-4.729
			c0.796-1.404-1.364-2.664-2.158-1.262c-5.037,8.895-14.243,14.969-24.719,13.355c-7.088-1.092-13.038-6.08-16.495-12.145
			c-6.76-11.86-4.723-27.816-1.714-40.451c2.963-12.435,8.011-23.729,16.829-33.087c4.878-5.176,10.78-9.918,17.62-12.14
			c8.808-2.862,14.879,2.875,18.254,10.521C447.059,272.777,449.212,271.503,448.567,270.043L448.567,270.043z"/>
	</g>
	<g>
		<path fill="#070707" d="M446.604,270.807c0.724,0.766,1.111,1.832,1.142,2.876c0.047,1.608,2.547,1.613,2.5,0
			c-0.05-1.712-0.691-3.392-1.874-4.644C447.263,267.865,445.498,269.636,446.604,270.807L446.604,270.807z"/>
	</g>
	<g>
		<path fill="#070707" d="M117.664,306.893c-7.332-14.432-26-20.583-40.815-14.316c-7.581,3.206-12.999,9.071-15.615,16.872
			c-1.968,5.866-1.42,13.083-0.953,19.122c1.669,21.608,16.131,70.062,46.169,48.336c13.487-9.755,22.815-29.927,18.109-46.4
			c-0.442-1.548-2.854-0.889-2.411,0.664c3.445,12.058-1.461,25.053-8.418,34.908c-5.046,7.148-13.654,14.262-22.897,13.844
			c-14.948-0.675-21.924-21.778-24.996-33.436c-3.567-13.536-7.266-33.42,2.684-45.11c12.628-14.838,38.598-9.728,46.985,6.778
			C116.236,309.592,118.393,308.326,117.664,306.893L117.664,306.893z"/>
	</g>
	<g>
		<path fill="#070707" d="M66.819,299.123c-13.707,15.695-15.826,35.294-10.108,54.858c3.17,10.846,10.366,29.475,24.86,25.444
			c1.551-0.431,0.891-2.843-0.665-2.41c-13.852,3.852-20.006-17.017-22.679-26.874c-4.76-17.559-1.727-35.411,10.359-49.251
			C69.642,299.683,67.881,297.906,66.819,299.123L66.819,299.123z"/>
	</g>
	<g>
		<path fill="#070707" d="M52.995,334.146c-8.978-2.058-9.755,14.161-9.292,19.442c0.98,11.177,8.661,18.419,19.819,13.8
			c1.467-0.607,0.825-3.027-0.665-2.41c-9.708,4.018-15.575-1.798-16.654-11.39c-0.371-3.297-0.151-18.471,6.126-17.032
			C53.899,336.916,54.565,334.506,52.995,334.146L52.995,334.146z"/>
	</g>
	<g>
		<path fill="#070707" d="M187.682,147.354c-5.594-7.118-4.847-15.994,3.558-20.318c7.331-3.771,20.417,0.979,21.875,9.597
			c0.269,1.587,2.677,0.912,2.411-0.665c-1.826-10.799-16.703-14.875-25.547-11.091c-10.427,4.461-10.182,16.459-4.063,24.244
			C186.91,150.389,188.667,148.606,187.682,147.354L187.682,147.354z"/>
	</g>
	<path fill="#070707" d="M201.754,140.561c1.242-2.065,0.573-4.746-1.492-5.985c-2.062-1.241-4.743-0.574-5.984,1.49
		c-1.243,2.065-0.571,4.746,1.492,5.985C197.832,143.293,200.514,142.625,201.754,140.561z"/>
	<g>
		<path fill="#070707" d="M285.811,141.202c4.97-6.341,13.682-12.702,21.77-8.203c7.976,4.437,10.136,16.825,2.466,22.53
			c-1.278,0.95-0.033,3.122,1.262,2.158c8.733-6.495,7.15-18.28-0.19-25.163c-8.771-8.223-20.978-0.869-27.074,6.91
			C283.061,140.688,284.816,142.47,285.811,141.202L285.811,141.202z"/>
	</g>
	<path fill="#070707" d="M304.221,142.631c-1.206-2.081-3.874-2.793-5.957-1.587c-2.089,1.207-2.8,3.875-1.595,5.957
		c1.205,2.087,3.876,2.799,5.962,1.592C304.714,147.386,305.428,144.72,304.221,142.631z"/>
	<g>
		<path fill="#070707" d="M351.098,149.595c0.137-1.638,0.485-3.656,2.006-4.596c1.21-0.747,2.591,0.119,3.42,1.007
			c3.27,3.503,1.357,9.459-0.575,13.049c-0.382,0.709,0.697,1.341,1.08,0.631c2.346-4.358,4.274-11.624-0.403-15.283
			c-1.219-0.954-2.762-1.197-4.152-0.483c-1.973,1.013-2.461,3.707-2.625,5.675C349.78,150.398,351.031,150.392,351.098,149.595
			L351.098,149.595z"/>
	</g>
	<g>
		<path fill="#070707" d="M347.031,184.729c3.485-2.378,6.201-0.846,7.195,3.026c0.901,3.513-0.021,7.771-2.689,10.281
			c-0.588,0.553,0.298,1.436,0.885,0.884c3.306-3.109,4.04-8.239,2.74-12.453c-1.33-4.312-5.204-5.244-8.762-2.817
			C345.739,184.101,346.363,185.185,347.031,184.729L347.031,184.729z"/>
	</g>
	<g>
		<path fill="#070707" d="M155.843,361.087c2.247,6.556,5.242,12.762,8.334,18.952c0.36,0.722,1.438,0.088,1.079-0.631
			c-3.043-6.093-5.996-12.2-8.208-18.653C156.788,359.997,155.581,360.322,155.843,361.087L155.843,361.087z"/>
	</g>
	<g>
		<path fill="#070707" d="M164.868,363.343c1.654,4.007,3.854,7.722,6.079,11.431c0.414,0.69,1.495,0.062,1.079-0.631
			c-2.166-3.611-4.341-7.23-5.953-11.132C165.77,362.276,164.56,362.598,164.868,363.343L164.868,363.343z"/>
	</g>
	<g>
		<path fill="#070707" d="M348.346,324.82c0.569,7.021-1.396,13.719-4.427,19.99c-0.349,0.723,0.729,1.356,1.08,0.631
			c3.124-6.465,5.184-13.385,4.597-20.621C349.531,324.022,348.28,324.017,348.346,324.82L348.346,324.82z"/>
	</g>
	<g>
		<path fill="#070707" d="M360.4,328.75c1.362,3.972-0.036,7.97-1.507,11.7c-0.296,0.751,0.913,1.073,1.205,0.332
			c1.556-3.946,2.943-8.179,1.507-12.364C361.346,327.66,360.138,327.985,360.4,328.75L360.4,328.75z"/>
	</g>
	<g>
		<path fill="#070707" d="M297.681,387.076c-1.126-8.087,9.378-10.622,14.878-6.812c0.664,0.46,1.289-0.624,0.631-1.08
			c-6.569-4.549-17.977-0.836-16.714,8.225C296.586,388.204,297.791,387.864,297.681,387.076L297.681,387.076z"/>
	</g>
	<g>
		<path fill="#070707" d="M451.869,302.394c3.694,4.225,1.678,12.485,0.157,17.176c-1.345,4.148-7.536,13.033-11.541,6.12
			c-4.259-7.351,1.394-26.787,11.936-24.478c1.571,0.345,2.239-2.065,0.664-2.41c-13.055-2.861-21.341,20.561-13.931,29.398
			c4.908,5.854,11.514,0.123,14.02-4.86c3.013-5.995,5.402-17.064,0.463-22.714C452.573,299.41,450.812,301.186,451.869,302.394
			L451.869,302.394z"/>
	</g>
	<g>
		<path fill="#070707" d="M424.057,267.24c0.698-0.483,1.433-0.727,1.822-1.505c0.327-0.654,0.134-1.294-0.448-1.71
			c-2.584-1.849-7.499,2.131-9.619,3.521c-4.575,2.999-8.398,7.06-11.516,11.521c-0.741,1.061,0.68,2.316,1.71,1.71
			c7.07-4.158,12.576-10.217,18.304-15.986c0.972-0.979-0.358-2.843-1.515-1.963c-9.28,7.064-17.452,15.235-24.516,24.516
			c-0.865,1.136,1.022,2.558,1.963,1.515c6.205-6.879,13.097-12.998,20.305-18.802c1.103-0.887-0.374-2.803-1.515-1.963
			c-9.057,6.665-19.102,14.696-23.139,25.565c-0.486,1.309,1.224,1.901,2.089,1.216c6.969-5.521,13.273-11.772,19.555-18.049
			c0.979-0.979-0.336-2.81-1.515-1.963c-8.53,6.13-17.141,14.441-20.129,24.814c-0.287,0.995,0.915,2.06,1.836,1.411
			c6.742-4.742,11.481-11.315,16.8-17.495c1.063-1.235-0.526-2.782-1.768-1.768c-7.955,6.501-16.22,14.953-18.371,25.368
			c-0.194,0.94,0.882,2.146,1.836,1.411c5.904-4.552,9.752-10.977,13.986-16.993c0.893-1.268-0.942-2.306-1.963-1.515
			c-6.896,5.346-14.872,13.465-15.406,22.692c-0.055,0.948,1.103,1.557,1.881,1.079c6.476-3.971,11.953-10.271,14.862-17.29
			c0.409-0.986-0.991-2.042-1.836-1.411c-6.042,4.509-11.908,10.663-14.111,18.043c-0.332,1.111,0.897,1.883,1.836,1.411
			c5.796-2.912,9.045-8.753,12.482-13.981c0.812-1.235-0.949-2.433-1.963-1.515c-6.54,5.918-12.798,14.137-11.649,23.443
			c0.104,0.841,1.016,1.687,1.881,1.079c7.084-4.971,9.217-13.873,11.341-21.784c1.424-5.305,3.28-10.088,6.12-14.819
			c2.987-4.976,6.212-9.684,7.933-15.282c0.354-1.152-1.271-2.19-2.089-1.216c-9.624,11.463-20.165,25.305-21.423,40.742
			c-0.095,1.162,1.392,1.553,2.134,0.884c12.51-11.28,18.641-29.082,22.881-44.921c0.337-1.256-1.175-2.03-2.089-1.216
			c-6.359,5.656-10.105,14-13.257,21.728c-3.579,8.776-6.511,18.489-6.663,28.038c-0.02,1.235,1.727,1.719,2.329,0.631
			c6.62-11.938,10.515-26.076,10.7-39.738c0.018-1.266-1.694-1.677-2.329-0.631c-8.29,13.651-13.844,32.382-10.655,48.342
			c0.263,1.314,2.024,1.064,2.41,0c3.205-8.826,2.304-18.799,0-27.735c-0.251-0.975-1.396-1.133-2.089-0.552
			c-5.776,4.851-6.519,13.29-6.504,20.33c0.018,8.205,1.543,16.909,4.68,24.504c0.485,1.177,2.643,1.194,2.455-0.332
			c-1.426-11.611-0.77-23.42-3.051-34.93c-0.259-1.309-2.032-1.072-2.41,0c-4.756,13.457-4.023,29.431,0.751,42.782
			c0.443,1.241,2.627,1.152,2.455-0.332c-1.437-12.379-0.776-25.018-3.807-37.183c-0.244-0.983-1.829-1.308-2.284-0.299
			c-5.04,11.17-1.299,26.077,3.762,36.608c0.581,1.209,2.251,0.505,2.329-0.631c0.735-10.743,0.448-22.385-3.056-32.671
			c-0.352-1.033-1.683-1.236-2.284-0.299c-5.635,8.772-5.242,24.082,2.455,31.595c0.562,0.55,1.571,0.464,1.963-0.253
			c4.389-8.04,1.688-19.246-1.383-27.282c-0.327-0.858-1.371-1.261-2.089-0.552c-7.097,7.008-5.603,26.899,3.265,32.045
			c0.561,0.326,1.403,0.162,1.71-0.448c4.059-8.07,4.184-22.432-1.503-29.843c-0.563-0.735-1.618-0.866-2.158,0
			c-5.69,9.124-1.041,22.44,6.208,29.339c0.664,0.633,1.854,0.384,2.089-0.552c2.343-9.313-1.597-19.729-4.51-28.488
			c-0.331-0.996-1.727-1.282-2.284-0.299c-5.996,10.562,0.819,28.013,8.467,36.113c0.832,0.882,2.002,0.11,2.134-0.884
			c1.396-10.501-2.726-21.291-6.939-30.716c-0.307-0.686-1.495-0.854-1.963-0.253c-6.888,8.838,0.676,23.81,6.769,31.1
			c0.766,0.917,2.054,0.09,2.134-0.884c0.62-7.534-2.622-17.134-8.638-21.942c-0.612-0.489-1.532-0.507-1.963,0.253
			c-4.679,8.25,1.823,18.906,9.472,22.769c0.855,0.432,1.846-0.098,1.881-1.079c0.137-3.824-2.078-7.003-5.221-9.013
			c-1.931-1.236-5.256-1.163-5.957,1.498c-2.458,9.332,9.633,13.473,16.574,10.098c0.87-0.423,0.755-1.705,0-2.158
			c-3.759-2.257-7.518-4.514-11.277-6.769c-1.192-0.715-2.642,1.062-1.515,1.963c4.326,3.461,8.618,6.739,14.417,6.384
			c1.004-0.062,1.765-1.365,0.884-2.134c-3.099-2.704-6.567-3.901-10.658-4.13c-1.023-0.058-1.747,1.455-0.884,2.134
			c4.868,3.828,10.007,6.184,16.255,4.836c1.224-0.264,1.168-2.112,0-2.41c-2.855-0.729-5.666-0.786-8.604-0.796
			c-1.376-0.005-1.75,2.211-0.332,2.455c4.108,0.708,8.205,0.791,12.367,0.796c0-0.833,0-1.667,0-2.5
			c-2.272,0.157-4.495,0.593-6.77,0.751c-0.933,0.064-1.574,1.016-1.079,1.881c0.437,0.765,0.645,1.113,1.499,1.326
			c0-0.804,0-1.606,0-2.41c-17.153,6.24-19.004-24.402-19.506-34.688c-0.396-8.134,0.071-15.463,2.933-23.216
			c4.893-13.259,15.056-25.324,27.311-32.314c1.301-0.742,0.374-2.521-0.963-2.285c-5.153,0.91-9.179,3.111-12.581,7.09
			c-0.879,1.028,0.253,2.772,1.515,1.963c4.639-2.976,9.648-5.299,14.289-8.272c-0.505-0.654-1.01-1.309-1.515-1.963
			c-4.029,3.237-8.006,6.54-12.034,9.778c0.589,0.589,1.179,1.178,1.768,1.768c3.006-3.649,6.239-6.934,10.727-8.703
			c-0.405-0.697-0.811-1.393-1.216-2.089c-1.754,1.754-3.508,3.509-5.261,5.264c-0.987,0.988,0.308,2.758,1.515,1.963
			c3.117-2.054,6.196-2.729,9.895-2.839c-0.11-0.818-0.222-1.637-0.332-2.456c-2.648,0.563-5.244,0.698-7.939,0.708
			c0.11,0.818,0.222,1.637,0.332,2.456c3.18-1.063,10.869-4.485,11.999,0.632c0.696-0.406,1.393-0.811,2.089-1.216
			c-2.1-1.907-4.309-3.277-5.821-5.764c-0.654,0.505-1.309,1.01-1.963,1.515c1.898,1.655,4.117,2.858,6.017,4.512
			c0.405-0.696,0.811-1.393,1.216-2.089c-2.017-0.723-3.999-1.533-6.017-2.255c-0.222,0.804-0.442,1.607-0.664,2.411
			c2.272,0.767,4.409,1.636,6.471,2.884c0.321-0.761,0.642-1.523,0.963-2.285c-1.323-0.341-2.437-1.166-3.76-1.507
			c-1.4-0.361-2.146,1.521-0.963,2.285c1.635,1.054,2.954,2.588,4.516,3.762c1.29,0.97,2.533-1.203,1.262-2.159
			c-1.588-1.194-2.849-2.687-4.516-3.762c-0.321,0.762-0.642,1.523-0.963,2.285c1.323,0.341,2.437,1.166,3.76,1.507
			c1.38,0.356,2.181-1.547,0.963-2.285c-2.26-1.369-4.567-2.292-7.068-3.137c-1.538-0.519-2.166,1.874-0.664,2.411
			c2.018,0.722,3.999,1.532,6.017,2.255c1.167,0.418,2.146-1.281,1.216-2.089c-1.899-1.654-4.118-2.857-6.017-4.512
			c-1.035-0.902-2.733,0.248-1.963,1.515c1.615,2.655,3.943,4.21,6.212,6.27c0.94,0.854,2.362,0.02,2.089-1.216
			c-1.58-7.161-10.342-3.96-15.073-2.378c-1.312,0.439-1.123,2.46,0.332,2.456c2.952-0.01,5.715-0.182,8.604-0.796
			c1.389-0.295,1.067-2.498-0.332-2.456c-4.089,0.123-7.708,0.909-11.156,3.181c0.505,0.654,1.01,1.309,1.515,1.963
			c1.754-1.755,3.507-3.51,5.261-5.264c0.829-0.83-0.004-2.567-1.216-2.089c-4.926,1.942-8.496,5.299-11.83,9.346
			c-1.033,1.254,0.512,2.777,1.768,1.768c4.028-3.238,8.005-6.541,12.034-9.778c1.115-0.896-0.333-2.72-1.515-1.963
			c-4.641,2.973-9.65,5.296-14.289,8.272c0.505,0.654,1.01,1.309,1.515,1.963c3.136-3.667,6.755-5.612,11.478-6.446
			c-0.32-0.762-0.642-1.523-0.963-2.285c-12.44,7.097-22.598,19.111-27.898,32.402c-3.726,9.341-4.043,18.124-3.434,27.983
			c0.729,11.784,3.963,41.153,22.521,34.401c1.1-0.399,1.28-2.09,0-2.41c-0.001-0.06-0.003-0.118-0.005-0.178
			c-0.359,0.627-0.72,1.254-1.079,1.881c2.272-0.157,4.495-0.593,6.77-0.751c1.592-0.11,1.628-2.498,0-2.5
			c-3.936-0.005-7.812-0.036-11.703-0.706c-0.11,0.818-0.222,1.637-0.332,2.455c2.689,0.009,5.316,0.037,7.94,0.706
			c0-0.804,0-1.606,0-2.41c-5.333,1.149-9.704-0.954-13.823-4.193c-0.295,0.711-0.589,1.423-0.884,2.134
			c3.42,0.191,6.269,1.109,8.891,3.397c0.295-0.711,0.589-1.423,0.884-2.134c-5.131,0.314-8.853-2.614-12.649-5.651
			c-0.505,0.654-1.01,1.309-1.515,1.963c3.76,2.255,7.519,4.513,11.277,6.769c0-0.72,0-1.438,0-2.158
			c-4.254,2.067-10.017,0.848-12.58-3.26c-0.936-1.627-0.783-3.128,0.457-4.504c1.046,0.17,1.952,0.618,2.721,1.344
			c1.83,1.462,2.851,3.687,2.768,5.995c0.627-0.359,1.254-0.72,1.881-1.079c-6.37-3.217-12.581-12.283-8.575-19.349
			c-0.654,0.084-1.309,0.169-1.963,0.253c5.543,4.431,8.478,13.225,7.905,20.175c0.711-0.295,1.423-0.589,2.134-0.884
			c-5.078-6.076-12.589-20.096-6.769-27.564c-0.654-0.084-1.309-0.169-1.963-0.253c4.038,9.032,7.933,19.407,6.598,29.454
			c0.711-0.295,1.423-0.589,2.134-0.884c-6.823-7.229-13.453-23.611-8.076-33.084c-0.762-0.1-1.522-0.199-2.284-0.299
			c2.76,8.303,6.724,18.354,4.51,27.16c0.696-0.185,1.393-0.368,2.089-0.552c-6.449-6.138-10.916-18.135-5.817-26.31
			c-0.72,0-1.438,0-2.158,0c5.112,6.663,5.18,20.007,1.503,27.319c0.57-0.149,1.14-0.299,1.71-0.448
			c-7.411-4.302-8.667-22.285-2.759-28.119c-0.696-0.184-1.393-0.367-2.089-0.552c2.82,7.385,5.676,17.952,1.635,25.356
			c0.654-0.084,1.309-0.169,1.963-0.253c-6.905-6.74-7.091-20.739-2.064-28.565c-0.762-0.1-1.522-0.199-2.284-0.299
			c3.438,10.097,3.688,21.452,2.966,32.007c0.776-0.21,1.553-0.421,2.329-0.631c-4.633-9.641-8.381-23.846-3.762-34.085
			c-0.762-0.1-1.522-0.199-2.284-0.299c2.975,11.942,2.307,24.365,3.717,36.519c0.818-0.11,1.637-0.222,2.455-0.332
			c-4.636-12.966-5.369-28.383-0.751-41.454c-0.804,0-1.606,0-2.41,0c2.236,11.284,1.562,22.881,2.961,34.266
			c0.818-0.11,1.637-0.222,2.455-0.332c-2.786-6.746-4.068-14.115-4.51-21.369c-0.426-6.995-0.114-16.157,5.691-21.033
			c-0.696-0.184-1.393-0.367-2.089-0.552c2.197,8.524,3.058,17.986,0,26.407c0.804,0,1.606,0,2.41,0
			c-3.046-15.251,2.498-33.396,10.403-46.416c-0.776-0.21-1.553-0.421-2.329-0.631c-0.18,13.192-3.966,26.948-10.358,38.477
			c0.776,0.21,1.553,0.421,2.329,0.631c0.135-8.475,2.688-16.885,5.574-24.784c2.979-8.155,6.994-17.326,13.613-23.214
			c-0.696-0.405-1.393-0.811-2.089-1.216c-4.138,15.456-10.031,32.812-22.238,43.819c0.711,0.295,1.423,0.589,2.134,0.884
			c1.193-14.647,11.569-28.11,20.69-38.975c-0.696-0.405-1.393-0.811-2.089-1.216c-2.816,9.165-9.803,16.251-12.73,25.408
			c-2.703,8.453-3.661,19.473-11.515,24.984c0.627,0.359,1.254,0.72,1.881,1.079c-1.073-8.695,4.83-16.167,10.917-21.676
			c-0.654-0.505-1.309-1.01-1.963-1.515c-3.211,4.883-6.17,10.363-11.586,13.085c0.612,0.471,1.224,0.94,1.836,1.411
			c2.006-6.716,7.45-12.435,12.963-16.549c-0.612-0.471-1.224-0.94-1.836-1.411c-2.645,6.377-7.848,12.198-13.714,15.796
			c0.627,0.359,1.254,0.72,1.881,1.079c0.491-8.49,8.348-16.02,14.674-20.925c-0.654-0.505-1.309-1.01-1.963-1.515
			c-3.963,5.629-7.561,11.834-13.09,16.097c0.612,0.471,1.225,0.94,1.836,1.411c2.07-10.017,10.074-18.009,17.729-24.265
			c-0.589-0.589-1.179-1.179-1.768-1.768c-5.16,5.994-9.75,12.501-16.294,17.104c0.612,0.471,1.224,0.94,1.836,1.411
			c2.798-9.711,10.988-17.577,18.98-23.32c-0.505-0.654-1.01-1.309-1.515-1.963c-6.281,6.275-12.586,12.528-19.555,18.049
			c0.696,0.405,1.393,0.811,2.089,1.216c3.768-10.142,13.548-17.857,21.99-24.07c-0.505-0.655-1.01-1.309-1.515-1.963
			c-7.208,5.805-14.1,11.922-20.305,18.802c0.654,0.505,1.309,1.01,1.963,1.515c6.786-8.914,14.705-16.833,23.619-23.618
			c-0.505-0.655-1.01-1.309-1.515-1.963c-5.574,5.614-10.914,11.546-17.798,15.595c0.57,0.57,1.14,1.14,1.71,1.71
			c2.075-2.969,4.445-5.539,7.139-7.944c1.06-0.946,8.876-7.416,10.576-6.2c-0.149-0.57-0.3-1.14-0.449-1.71
			c-0.324,0.178-0.632,0.38-0.925,0.608C421.479,265.991,422.727,268.16,424.057,267.24L424.057,267.24z"/>
	</g>
	<g>
		<path fill="#070707" d="M442.979,300.26c-5.988-0.481-12.429,8.801-14.621,13.403c-0.612,1.285,0.871,2.476,1.963,1.515
			c3.866-3.401,6.185-7.734,8.471-12.286c0.721-1.434-1.416-2.697-2.158-1.262c-2.374,4.587-5.147,8.949-7.52,13.537
			c-0.662,1.28,0.895,2.464,1.963,1.515c4.357-3.871,6.911-8.556,8.592-14.089c0.378-1.241-1.204-2.04-2.089-1.216
			c-5.917,5.508-9.229,14.253-7.844,22.273c0.195,1.131,1.759,1.138,2.284,0.299c3.397-5.419,5.241-11.54,5.436-17.931
			c0.039-1.275-1.7-1.663-2.329-0.631c-3.114,5.108-4.76,11.796-2.38,17.511c0.279,0.671,1.113,1.273,1.836,0.747
			c4.278-3.113,5.05-7.563,2.702-12.238c-0.293-0.583-1.169-0.81-1.71-0.448c-5.673,3.786-7.685,11.914-2.507,17.004
			c0.454,0.447,1.325,0.524,1.768,0c3.449-4.09,3.132-8.625-0.752-12.298c-0.554-0.524-1.591-0.489-1.963,0.253
			c-2.349,4.69-1.367,8.547,2.449,12.045c0.616,0.564,1.946,0.442,2.089-0.552c0.61-4.236-0.216-5.7-3.579-8.179
			c-0.643-0.474-1.668,0.016-1.836,0.747c-0.792,3.433-0.938,4.61,0.877,7.73c0.741,1.274,2.555,0.391,2.284-0.963
			c-0.25-1.254-0.5-2.508-0.751-3.761c-0.273-1.371-2.639-1.068-2.455,0.332c0.236,1.8,1.221,3.11,1.548,4.844
			c0.298,1.583,2.707,0.911,2.41-0.664c-0.276-1.471-1.261-2.677-1.458-4.18c-0.818,0.11-1.637,0.222-2.455,0.332
			c0.25,1.254,0.5,2.508,0.751,3.761c0.762-0.321,1.522-0.642,2.284-0.963c-1.261-2.168-1.156-3.501-0.625-5.805
			c-0.611,0.249-1.224,0.498-1.836,0.747c2.177,1.604,2.843,2.493,2.431,5.356c0.696-0.185,1.393-0.368,2.089-0.552
			c-2.893-2.651-3.879-5.381-2.059-9.016c-0.654,0.084-1.309,0.169-1.963,0.253c2.746,2.597,3.313,5.725,0.752,8.763
			c0.589,0,1.179,0,1.768,0c-3.998-3.931-2.35-10.174,2.001-13.078c-0.57-0.149-1.14-0.299-1.71-0.448
			c1.652,3.291,1.502,6.411-1.806,8.818c0.612,0.249,1.224,0.498,1.836,0.747c-2.143-5.146-0.676-10.985,2.128-15.585
			c-0.776-0.21-1.553-0.421-2.329-0.631c-0.182,5.97-1.922,11.61-5.094,16.669c0.762,0.1,1.522,0.199,2.284,0.299
			c-1.233-7.139,1.98-14.982,7.201-19.842c-0.696-0.405-1.393-0.811-2.089-1.216c-1.571,5.171-3.878,9.368-7.949,12.985
			c0.654,0.505,1.309,1.01,1.963,1.515c2.373-4.588,5.146-8.95,7.52-13.537c-0.72-0.421-1.438-0.841-2.158-1.262
			c-2.184,4.347-4.373,8.519-8.08,11.78c0.654,0.505,1.309,1.01,1.963,1.515c1.748-3.668,7.602-12.556,12.463-12.165
			C444.588,302.889,444.575,300.388,442.979,300.26L442.979,300.26z"/>
	</g>
	<g>
		<path fill="#070707" d="M443.107,300.891c0.767-0.724,1.832-1.111,2.877-1.142c-0.11-0.818-0.222-1.637-0.332-2.455
			c-1.28,0.527-3.886,1.636-2.881,3.493c0.779,1.442,2.851,0.679,2.96-0.78c0.121-1.609-2.38-1.598-2.5,0
			c0.122-1.63,2.358-0.915,1.716,0.438c0.107-0.226-0.197,0.202,0.034-0.026c0.214-0.211-0.128,0.073,0.192-0.138
			c0.355-0.232,0.752-0.415,1.143-0.576c0.524-0.216,0.918-0.597,0.918-1.205c0-0.667-0.568-1.27-1.25-1.25
			c-1.714,0.05-3.392,0.691-4.645,1.874C440.165,300.231,441.937,301.996,443.107,300.891L443.107,300.891z"/>
	</g>
	<g>
		<path fill="#070707" d="M57.473,320.73c-3.926,13.521-1.728,29.134,4.638,41.572c0.639,1.248,2.806,0.362,2.285-0.963
			c-3.697-9.39-4.54-19.432-6.016-29.329c-0.804,0.222-1.607,0.442-2.411,0.664c2.227,11.711,2.043,24.774,9.149,34.894
			c0.676,0.963,2.357,0.696,2.329-0.631c-0.24-11.537-4.382-22.464-7.563-33.422c-0.45-1.549-2.796-0.901-2.411,0.664
			c3.143,12.777,5.494,25.73,10.656,37.903c0.5,1.181,2.356,0.537,2.329-0.631c-0.242-10.489-4.113-21.296-9.948-29.965
			c-0.631-0.938-2.456-0.705-2.329,0.631c0.927,9.791,3.549,20.205,10.895,27.206c1,0.953,2.773-0.298,1.963-1.515
			c-0.501-0.753-1.003-1.505-1.504-2.258c-0.762-1.145-2.705-0.449-2.285,0.963c1.025,3.442,2.794,5.821,5.587,8.076
			c1.23,0.993,2.903-0.575,1.768-1.768c-0.494-0.489-0.888-1.057-1.182-1.703c-0.612,0.471-1.225,0.94-1.836,1.411
			c1.824,0.995,3.472,2.158,5.012,3.562c0.701,0.639,1.807,0.373,2.089-0.552c0.037-0.12,0.073-0.241,0.11-0.361
			c0.246-0.804-0.416-1.552-1.205-1.582c-0.428-0.115-0.856-0.23-1.285-0.345c-0.881-0.357-1.819,0.696-1.538,1.537
			c0.252,0.752,0.503,1.504,0.754,2.255c0.217,0.649,0.853,1.057,1.538,0.873c0.278-0.074,0.557-0.148,0.835-0.223
			c0.647-0.173,1.067-0.889,0.873-1.537c-0.264-0.881-0.501-1.123-1.157-1.833c-1.095-1.188-2.859,0.585-1.768,1.768
			c0.171,0.243,0.342,0.486,0.513,0.729c0.291-0.513,0.582-1.025,0.873-1.537c-0.278,0.074-0.557,0.148-0.835,0.223
			c0.513,0.291,1.025,0.582,1.538,0.873c-0.251-0.752-0.503-1.504-0.754-2.255c-0.513,0.513-1.025,1.024-1.538,1.537
			c0.885,0.358,1.046,0.399,1.95,0.435c-0.402-0.527-0.804-1.055-1.206-1.583c-0.037,0.121-0.073,0.241-0.11,0.362
			c0.697-0.185,1.393-0.368,2.089-0.552c-1.701-1.552-3.494-2.848-5.518-3.952c-0.901-0.492-2.218,0.324-1.836,1.411
			c0.392,1.117,1.011,1.951,1.826,2.807c0.589-0.589,1.178-1.179,1.768-1.768c-2.401-1.939-4.047-3.962-4.943-6.973
			c-0.762,0.321-1.523,0.642-2.285,0.963c0.501,0.753,1.003,1.505,1.504,2.258c0.654-0.505,1.309-1.01,1.963-1.515
			c-6.846-6.524-9.298-16.312-10.162-25.438c-0.776,0.21-1.553,0.421-2.329,0.631c5.585,8.3,9.374,18.645,9.606,28.703
			c0.776-0.21,1.553-0.421,2.329-0.631c-5.069-11.956-7.317-24.76-10.403-37.306c-0.804,0.222-1.607,0.442-2.411,0.664
			c3.116,10.73,7.24,21.46,7.475,32.758c0.776-0.21,1.553-0.421,2.329-0.631c-6.955-9.903-6.716-22.829-8.896-34.296
			c-0.305-1.604-2.644-0.895-2.411,0.664c1.476,9.898,2.319,19.939,6.016,29.329c0.762-0.32,1.523-0.642,2.285-0.963
			c-6.063-11.849-8.122-26.777-4.385-39.646C60.334,319.843,57.921,319.186,57.473,320.73L57.473,320.73z"/>
	</g>
	<g>
		<path fill="#070707" d="M46.944,337.273c-1.466,10.837-1.125,21.088,5.391,30.295c0.719-0.421,1.439-0.841,2.158-1.262
			c-5.169-7.008-9.74-18.774-6.017-27.313c0.644-1.476-1.201-2.577-2.158-1.262c-5.662,7.777-3.96,15.657,0,23.82
			c0.704,1.45,2.859,0.182,2.158-1.262c-3.559-7.336-5.148-14.225,0-21.297c-0.719-0.421-1.439-0.841-2.158-1.262
			c-4.119,9.444,0.224,21.984,6.017,29.837c0.94,1.275,3.098,0.065,2.158-1.262c-6.116-8.643-6.514-18.198-5.138-28.369
			C49.568,336.362,47.16,335.682,46.944,337.273L46.944,337.273z"/>
	</g>
	<g>
		<path fill="#070707" d="M70.579,373.087c4.964,5.703,12.023,9.865,19.686,10.142c0-0.833,0-1.667,0-2.5
			c-4.164-0.045-14.877-0.532-15.294-6.271c-0.116-1.598-2.617-1.609-2.5,0c0.562,7.73,11.912,8.707,17.794,8.771
			c1.617,0.018,1.605-2.442,0-2.5c-7.02-0.254-13.392-4.21-17.918-9.409C71.286,370.102,69.525,371.877,70.579,373.087
			L70.579,373.087z"/>
	</g>
	<g>
		<path fill="#070707" d="M63.672,345.724c-1.841-8.908-5.321-18.855-2.056-27.801c1.108-3.036-3.725-4.333-4.821-1.33
			c-3.582,9.813,0.038,20.697,2.056,30.461C59.503,350.21,64.323,348.871,63.672,345.724L63.672,345.724z"/>
	</g>
	<g>
		<path fill="#070707" d="M60.754,316.904c0.332-0.996,0.696-2.014,0.729-3.074c0.021-0.682-0.585-1.25-1.25-1.25
			c-0.723,0-1.195,0.571-1.25,1.25c0.025-0.306-0.06,0.135-0.08,0.181c-0.131,0.307-0.286,0.604-0.435,0.902
			c-0.515,1.03,0.317,2.026,1.412,1.836c1.001-0.174,1.529-1.329,1.603-2.233c0.1-1.231-1.786-1.721-2.329-0.631
			c-0.374,0.748-0.788,1.498-0.856,2.345c-0.055,0.68,0.61,1.25,1.25,1.25c0.723,0,1.195-0.571,1.25-1.25
			c-0.025,0.306,0.06-0.135,0.08-0.181c0.131-0.307,0.286-0.604,0.435-0.902c-0.776-0.21-1.553-0.421-2.329-0.631
			c0.027-0.337-0.089,0.113-0.009-0.048c-0.129,0.262,0-0.087,0.242-0.129c0.471,0.612,0.941,1.224,1.412,1.836
			c0.374-0.748,0.788-1.498,0.856-2.345c-0.833,0-1.667,0-2.5,0c-0.025,0.79-0.385,1.643-0.641,2.41
			c-0.215,0.646,0.243,1.364,0.873,1.537C59.899,317.966,60.539,317.551,60.754,316.904L60.754,316.904z"/>
	</g>
	<g>
		<path fill="#070707" d="M64.295,361.757c1.519,3.402,3.112,6.759,5.679,9.507c1.012,1.084,2.577-0.291,1.963-1.515
			c-1.691-3.373-3.522-6.419-6.617-8.674c-0.803-0.585-1.86,0.212-1.881,1.079c-0.109,4.647,3.827,9.071,6.878,12.194
			c0.951,0.974,2.27-0.06,2.089-1.216c-0.602-3.847-2.981-8.013-6.401-10.001c-0.835-0.485-1.857,0.138-1.881,1.079
			c-0.116,4.662,3.925,8.859,7.474,11.36c1.003,0.708,1.986-0.454,1.836-1.411c-0.697-4.457-4.569-9.462-8.756-11.154
			c-0.698-0.282-1.684,0.445-1.583,1.205c0.699,5.226,4.867,10.393,9.53,12.731c0.896,0.45,2.236-0.298,1.836-1.411
			c-0.835-2.327-1.897-4.359-3.749-6.035c-1.192-1.079-2.965,0.684-1.768,1.768c1.542,1.396,2.408,2.99,3.105,4.932
			c0.612-0.471,1.225-0.94,1.836-1.411c-3.779-1.896-7.714-6.252-8.292-10.573c-0.527,0.401-1.055,0.804-1.583,1.205
			c3.381,1.367,6.46,5.888,7.01,9.408c0.612-0.471,1.225-0.94,1.836-1.411c-2.832-1.996-6.328-5.489-6.235-9.202
			c-0.627,0.359-1.254,0.72-1.881,1.079c2.882,1.676,4.749,5.295,5.251,8.507c0.697-0.405,1.393-0.811,2.089-1.216
			c-2.55-2.61-6.237-6.523-6.146-10.427c-0.627,0.359-1.254,0.72-1.881,1.079c2.71,1.975,4.25,4.847,5.721,7.777
			c0.654-0.505,1.309-1.01,1.963-1.515c-2.41-2.582-3.864-5.811-5.288-9.001C65.798,359.025,63.644,360.298,64.295,361.757
			L64.295,361.757z"/>
	</g>
	<g>
		<path fill="#070707" d="M68.967,365.571c0.785,2.29,1.739,4.529,3.211,6.468c0.827,1.09,2.633,0.498,2.285-0.963
			c-0.761-3.189-2.184-6.088-3.896-8.867c-0.714-1.159-2.846-0.387-2.285,0.963c1.409,3.387,3.47,6.373,5.267,9.553
			c0.719-0.421,1.439-0.841,2.158-1.262c-1.903-2.866-3.715-5.773-5.141-8.911c-0.666-1.466-2.82-0.194-2.158,1.262
			c1.425,3.138,3.237,6.045,5.141,8.911c0.885,1.333,2.958,0.153,2.158-1.262c-1.683-2.979-3.695-5.783-5.014-8.955
			c-0.762,0.32-1.523,0.642-2.285,0.963c1.605,2.605,2.93,5.279,3.644,8.27c0.762-0.32,1.523-0.642,2.285-0.963
			c-1.346-1.773-2.239-3.772-2.958-5.87C70.858,363.392,68.443,364.042,68.967,365.571L68.967,365.571z"/>
	</g>
	<g>
		<path fill="#070707" d="M67.209,361.126c0.469,4.229,3.013,8.106,5.493,11.439c2.265,3.044,5.3,6.589,9.133,7.588
			c1.562,0.407,2.224-2.004,0.665-2.41c-3.453-0.9-6.143-4.428-8.17-7.152c-1.987-2.671-4.245-6.076-4.621-9.465
			C69.533,359.542,67.031,359.524,67.209,361.126L67.209,361.126z"/>
	</g>
	<g>
		<path fill="#070707" d="M71.598,377.971c6.242,4.261,13.831,4.907,21.194,4.626c-0.111-0.818-0.222-1.637-0.333-2.455
			c-1.107,0.404-2.253,0.504-3.438,0.298c0,0.833,0,1.667,0,2.5c3.795,0.215,7.219-0.403,10.57-2.227
			c1.417-0.771,0.155-2.929-1.262-2.158c-2.97,1.615-5.964,2.073-9.308,1.885c-1.628-0.092-1.577,2.347,0,2.5
			c1.54,0.15,2.59,0.011,4.103-0.388c1.354-0.355,1.091-2.51-0.333-2.455c-6.951,0.266-14.03-0.256-19.933-4.284
			C71.524,374.9,70.275,377.068,71.598,377.971L71.598,377.971z"/>
	</g>
	<g>
		<path fill="#070707" d="M423.531,262.587c-0.468,0.073-0.925,0.188-1.37,0.343c0.321,0.762,0.642,1.523,0.963,2.285
			c2.731-1.52,5.654-2.357,8.611-3.301c1.577-0.503,0.894-2.632-0.664-2.411c-3.118,0.443-6.036,1.129-8.866,2.526
			c-1.364,0.673-0.337,2.503,0.963,2.285c2.965-0.499,5.747-1.373,8.567-2.399c1.237-0.45,1.159-2.611-0.332-2.456
			c-2.945,0.307-5.324,1.359-7.828,2.913c-1.051,0.652-0.631,2.318,0.631,2.329c3.236,0.029,5.957-1.276,8.856-2.57
			c1.471-0.656,0.197-2.807-1.262-2.158c-0.721,0.273-1.405,0.616-2.056,1.028c-1.127,0.645-0.57,2.261,0.631,2.329
			c2.295,0.13,4.578-0.076,6.864,0.298c0-0.804,0-1.607,0-2.411c-0.852-0.235-1.702-0.471-2.554-0.707
			c-0.184,0.696-0.367,1.393-0.552,2.089c1.243,0.494,2.486,0.988,3.729,1.482c0.359-0.627,0.72-1.254,1.079-1.881
			c-2.368,0.226-4.244-0.566-5.628-2.376c-0.184,0.696-0.367,1.393-0.552,2.089c3.628-1.457,5.993,1.846,7.157,4.566
			c0.654-0.505,1.309-1.01,1.963-1.515c-1.41-1.173-2.597-2.36-3.77-3.77c-0.405,0.696-0.811,1.393-1.216,2.089
			c2.801,1.045,4.646,3.436,6.645,5.504c1.141,1.182,2.77-0.546,1.768-1.768c-0.894-1.077-1.628-2.249-2.203-3.517
			c-0.654,0.505-1.309,1.01-1.963,1.515c1.301,1.531,2.231,3.171,3.231,4.888c0.821,1.411,2.846,0.174,2.158-1.262
			c-0.187-0.472-0.373-0.943-0.56-1.416c-0.762,0.321-1.522,0.643-2.284,0.963c0.457,0.686,0.914,1.371,1.371,2.057
			c0.654-0.505,1.309-1.01,1.963-1.515c-4.507-4.343-13.1-6.397-18.65-2.938c-0.829,0.517-0.84,2.11,0.299,2.285
			c3.328,0.509,6.304,0.023,9.574-0.685c-0.222-0.804-0.442-1.607-0.664-2.411c-3.602,1.261-7.176,2.255-10.978,2.697
			c0.11,0.818,0.222,1.637,0.332,2.456c4.812-1.062,9.452-2.097,14.405-1.669c-0.11-0.818-0.222-1.637-0.332-2.456
			c-0.686,0.229-1.371,0.457-2.057,0.686c0.405,0.697,0.811,1.393,1.216,2.089c0.159-0.121,0.318-0.243,0.477-0.364
			c1.336-0.445,1.105-2.411-0.332-2.456c-3.796-0.117-8.347-1.223-11.94,0.514c-4.477,2.163-7.827,5.923-11.995,8.568
			c0.421,0.719,0.841,1.438,1.262,2.158c4.685-3.117,10.055-5.455,13.129-10.387c0.604-0.97-0.383-2.078-1.411-1.836
			c-7.245,1.703-12.42,8.248-16.17,14.283c-0.634,1.02,0.671,2.459,1.71,1.71c4.576-3.298,8.04-7.633,11.415-12.101
			c0.916-1.212-0.953-2.353-1.963-1.515c-6.815,5.657-15.232,13.569-17.457,22.486c-0.303,1.211,1.184,2.103,2.089,1.216
			c5.373-5.258,9.207-11.771,14.052-17.479c1.04-1.226-0.549-2.841-1.768-1.768c-6.757,5.95-11.084,14.182-14.933,22.187
			c0.762,0.321,1.522,0.642,2.284,0.963c2.729-9.991,12.577-15.14,17.695-23.692c0.626-1.046-0.645-2.411-1.71-1.71
			c-7.817,5.146-14.676,14.926-17.71,23.71c-0.496,1.436,1.508,2.032,2.284,0.963c4.55-6.268,9.204-12.438,13.023-19.192
			c0.686-1.212-0.989-2.592-1.963-1.515c-5.932,6.562-10.826,14.796-12.659,23.515c-0.291,1.384,1.509,2.185,2.284,0.963
			c4.096-6.456,6.442-13.808,10.624-20.221c0.782-1.199-0.989-2.533-1.963-1.515c-10.313,10.781-13.653,26.088-18.828,39.622
			c0.804,0.222,1.606,0.442,2.41,0.664c0.575-4.173,2.176-8.118,1.028-12.316c-0.271-0.99-1.794-1.297-2.284-0.299
			c-3.256,6.629-2.069,13.788-2.66,20.899c-0.493,5.947-2.244,12.568,0.946,18.062c0.558,0.961,1.968,0.719,2.284-0.299
			c2.761-8.873,1.487-18.271,1.759-27.407c0.041-1.386-2.23-1.74-2.455-0.332c-1.486,9.282-1.627,19.336,1.028,28.425
			c0.422,1.444,2.294,1.007,2.455-0.332c1.065-8.842,0.445-18.023-1.416-26.722c-0.276-1.293-2.033-1.09-2.41,0
			c-3.1,8.957-2.834,22.521,2.182,30.779c0.523,0.862,2.075,0.812,2.284-0.299c1.904-10.107,0.17-20.306,0.73-30.491
			c0.083-1.506-1.982-1.566-2.455-0.332c-3.701,9.653-2.979,21.979,1.84,31.122c0.645,1.224,2.183,0.482,2.329-0.631
			c1.286-9.777-2.188-19.582-3.814-29.12c-0.245-1.438-2.418-1.025-2.455,0.332c-0.286,10.425,0.258,21.044,4.157,30.834
			c0.587,1.476,2.752,0.942,2.41-0.664c-1.068-5.028-0.409-11.23-4.091-15.289c-0.604-0.666-1.915-0.362-2.089,0.552
			c-1.436,7.516,4.542,13.904,9.231,19.038c0.713,0.781,2.207,0.198,2.134-0.884c-0.267-3.961-1.896-7.304-5.417-9.305
			c-0.956-0.544-2.12,0.345-1.836,1.411c1.043,3.923,3.056,7.17,6.147,9.806c0.993,0.848,2.291,0.027,2.089-1.216
			c-0.667-4.122-5.728-12.867-11.154-9.851c-6.208,3.449-1.523,10.78,3.149,13.317c0.863,0.469,2.285-0.325,1.836-1.411
			c-1.88-4.55-4.535-10.25-10.116-10.514c-0.859-0.041-1.358,0.824-1.205,1.582c0.978,4.825,5.186,8.17,9.143,10.686
			c0.882,0.562,2.224-0.373,1.836-1.411c-1.214-3.258-4.765-15.117-10.105-13.211c-5.492,1.96,1.771,9.104,3.562,11.343
			c0.835,1.044,2.349-0.101,2.089-1.216c-0.892-3.837-1.954-8.015-5.372-10.344c-0.706-0.481-1.59,0.032-1.836,0.747
			c-1.327,3.847,0.167,7.188,2.72,10.127c0.7,0.807,2.207,0.181,2.134-0.884c-0.243-3.549-1.483-6.493-4.389-8.619
			c-0.628-0.46-1.691,0.002-1.836,0.747c-0.633,3.245,1,9.973,5.237,9.973c5.8,0,1.599-7.339-0.407-9.153
			c-0.66-0.598-1.873-0.413-2.089,0.552c-1.413,6.32,9.534,13.258,11.664,5.462c0.426-1.558-1.986-2.218-2.41-0.664
			c-1.178,4.308-7.52-1.111-6.844-4.134c-0.696,0.185-1.393,0.368-2.089,0.552c0.607,0.5,1.126,1.085,1.557,1.753
			c0.974,0.897,0.706,1.575-0.805,2.033c-1.06-1.404-1.744-3.965-1.404-5.709c-0.611,0.249-1.224,0.498-1.836,0.747
			c2.204,1.613,2.973,3.877,3.15,6.461c0.711-0.295,1.423-0.589,2.134-0.884c-1.964-2.261-3.101-4.727-2.077-7.695
			c-0.611,0.249-1.224,0.498-1.836,0.747c2.782,1.896,3.513,5.793,4.224,8.85c0.696-0.405,1.393-0.811,2.089-1.216
			c-0.771-0.965-1.584-1.896-2.361-2.856c-0.561-0.7-1.082-1.429-1.564-2.185c-0.896-1.345,0.384-1.792,1.302-0.825
			c2.509,2.642,3.745,6.828,4.99,10.166c0.612-0.471,1.224-0.94,1.836-1.411c-3.4-2.162-7.15-5.026-7.994-9.191
			c-0.401,0.527-0.804,1.055-1.205,1.582c4.252,0.201,6.341,5.377,7.706,8.678c0.611-0.471,1.224-0.94,1.836-1.411
			c-1.104-0.6-1.981-1.371-2.849-2.271c-0.392-0.529-0.784-1.059-1.176-1.588c-1.767-2.317-0.643-3.899,3.372-4.747
			c2.726,1.267,4.533,5.173,4.985,7.961c0.696-0.405,1.393-0.811,2.089-1.216c-2.803-2.39-4.557-5.14-5.505-8.702
			c-0.612,0.471-1.224,0.94-1.836,1.411c2.746,1.561,3.971,4.056,4.179,7.146c0.711-0.295,1.423-0.589,2.134-0.884
			c-3.933-4.306-9.81-10.212-8.589-16.606c-0.696,0.185-1.393,0.368-2.089,0.552c3.24,3.572,2.494,9.7,3.448,14.186
			c0.804-0.222,1.606-0.442,2.41-0.664c-3.823-9.601-4.348-19.947-4.067-30.17c-0.818,0.11-1.637,0.222-2.455,0.332
			c1.592,9.343,4.983,18.889,3.725,28.456c0.776-0.21,1.553-0.421,2.329-0.631c-4.522-8.581-5.05-20.166-1.588-29.196
			c-0.818-0.11-1.637-0.222-2.455-0.332c-0.547,9.947,1.219,19.959-0.641,29.827c0.762-0.1,1.522-0.199,2.284-0.299
			c-4.661-7.676-4.811-20.526-1.93-28.854c-0.804,0-1.606,0-2.41,0c1.812,8.476,2.364,17.44,1.326,26.058
			c0.818-0.11,1.637-0.222,2.455-0.332c-2.518-8.618-2.439-18.28-1.028-27.097c-0.818-0.11-1.637-0.222-2.455-0.332
			c-0.265,8.903,1.021,18.099-1.669,26.743c0.762-0.1,1.522-0.199,2.284-0.299c-2.845-4.9-1.166-11.484-0.604-16.8
			c0.701-6.621-0.735-13.419,2.318-19.638c-0.762-0.1-1.522-0.199-2.284-0.299c1.007,3.687-0.525,7.34-1.028,10.988
			c-0.219,1.583,1.825,2.195,2.41,0.664c5.016-13.115,8.195-28.075,18.186-38.519c-0.654-0.505-1.309-1.01-1.963-1.515
			c-4.182,6.413-6.528,13.765-10.624,20.221c0.762,0.321,1.522,0.642,2.284,0.963c1.742-8.279,6.378-16.172,12.017-22.411
			c-0.654-0.505-1.309-1.01-1.963-1.515c-3.819,6.754-8.474,12.925-13.023,19.192c0.762,0.321,1.522,0.643,2.284,0.963
			c2.827-8.183,9.291-17.429,16.562-22.215c-0.57-0.57-1.14-1.141-1.71-1.71c-5.275,8.814-15.118,13.929-17.947,24.29
			c-0.365,1.337,1.658,2.267,2.284,0.963c3.76-7.818,7.943-15.87,14.542-21.681c-0.589-0.589-1.179-1.178-1.768-1.768
			c-4.843,5.706-8.685,12.226-14.052,17.479c0.696,0.405,1.393,0.811,2.089,1.216c2.113-8.469,10.31-15.983,16.814-21.383
			c-0.654-0.505-1.309-1.01-1.963-1.515c-3.106,4.112-6.305,8.167-10.519,11.204c0.57,0.57,1.14,1.14,1.71,1.71
			c3.395-5.463,8.097-11.588,14.676-13.134c-0.471-0.612-0.94-1.225-1.411-1.836c-2.807,4.502-7.963,6.648-12.232,9.491
			c-1.331,0.886-0.108,3.028,1.262,2.158c3.393-2.152,6.273-4.954,9.562-7.249c3.957-2.761,8.638-1.629,13.111-1.491
			c-0.11-0.818-0.222-1.637-0.332-2.456c-0.784,0.262-1.058,0.369-1.58,1.007c-0.725,0.885-0.081,2.521,1.216,2.089
			c0.686-0.229,1.371-0.457,2.057-0.686c1.379-0.46,1.066-2.335-0.332-2.456c-5.202-0.449-10.021,0.645-15.069,1.758
			c-1.36,0.3-1.077,2.62,0.332,2.456c4.02-0.467,7.824-1.45,11.642-2.786c1.518-0.531,0.92-2.754-0.664-2.411
			c-2.786,0.604-5.377,1.125-8.246,0.685c0.1,0.762,0.199,1.523,0.299,2.285c4.571-2.849,11.9-1.038,15.621,2.547
			c0.997,0.961,2.771-0.301,1.963-1.515c-0.457-0.686-0.914-1.371-1.371-2.057c-0.764-1.146-2.7-0.449-2.284,0.963
			c0.23,0.785,0.446,1.249,0.812,2.012c0.72-0.42,1.438-0.841,2.158-1.262c-1.109-1.906-2.194-3.714-3.622-5.394
			c-0.962-1.132-2.583,0.309-1.963,1.515c0.768,1.494,1.537,2.734,2.594,4.023c0.589-0.589,1.179-1.178,1.768-1.768
			c-2.374-2.458-4.488-4.931-7.748-6.148c-1.288-0.48-1.933,1.228-1.216,2.089c1.173,1.411,2.359,2.597,3.77,3.77
			c1.134,0.943,2.521-0.209,1.963-1.515c-1.683-3.934-5.537-7.499-9.979-5.716c-0.857,0.344-1.259,1.357-0.552,2.089
			c2.105,2.183,4.335,3.406,7.396,3.108c0.947-0.092,1.551-0.989,1.079-1.881c-1.435-2.713-3.654-3.805-6.552-2.631
			c-0.825,0.334-1.298,1.38-0.552,2.089c1.688,1.606,2.706,1.93,4.985,1.35c1.136-0.289,1.255-2.206,0-2.411
			c-2.528-0.414-4.976-0.243-7.528-0.387c0.21,0.776,0.421,1.553,0.631,2.329c0.65-0.412,1.335-0.754,2.056-1.028
			c-0.421-0.719-0.841-1.439-1.262-2.158c-2.528,1.128-4.764,2.254-7.595,2.229c0.21,0.776,0.421,1.553,0.631,2.329
			c2.095-1.3,4.064-2.311,6.566-2.571c-0.11-0.818-0.222-1.637-0.332-2.456c-2.821,1.026-5.604,1.901-8.567,2.399
			c0.32,0.762,0.642,1.523,0.963,2.285c2.646-1.306,5.375-1.862,8.269-2.273c-0.222-0.804-0.442-1.607-0.664-2.411
			c-3.181,1.016-6.281,1.925-9.209,3.553c-1.235,0.688-0.398,2.704,0.963,2.285c0.446-0.156,0.903-0.27,1.37-0.343
			C425.772,264.666,425.104,262.256,423.531,262.587L423.531,262.587z"/>
	</g>
	<g>
		<path fill="#070707" d="M412.896,351.993c-2.451-0.299-4.97,0.446-7.143,1.542c-1.078,0.543-0.601,1.912,0.299,2.284
			c3.044,1.26,6.09,0.469,9.243,0.045c1.545-0.208,1.664-2.482,0-2.5c-3.29-0.035-6.28-0.141-9.199,1.542
			c-1.002,0.577-0.675,1.923,0.299,2.284c3.386,1.259,7.19,1.681,10.56,0.217c1.074-0.467,0.615-1.98-0.299-2.284
			c-2.718-0.904-5.379-0.773-8.215-0.73c-1.276,0.02-1.662,1.659-0.631,2.329c3.945,2.565,8.638,2.212,12.958,0.812
			c1.091-0.354,1.293-2.168,0-2.41c-3.645-0.684-8.008-0.978-11.245,1.154c-0.917,0.604-0.754,1.941,0.299,2.284
			c2.823,0.92,5.617,0.774,8.558,0.73c1.376-0.021,1.748-2.161,0.332-2.455c-2.524-0.524-4.959-0.441-7.529-0.388
			c-1.361,0.028-1.766,2.211-0.332,2.455c6.051,1.03,12.162,0.382,17.757-2.183c1.121-0.514,0.58-2.426-0.631-2.329
			c-2.433,0.195-4.553,0.94-6.844,1.759c0.222,0.804,0.442,1.606,0.664,2.41c2.274-0.941,4.58-1.8,6.854-2.742
			c1.444-0.598,0.9-2.934-0.664-2.41c-0.748,0.25-2.648,1.393-3.438,1.326c-1.607-0.136-1.595,2.366,0,2.5
			c1.35,0.113,2.876-1.006,4.103-1.416c-0.222-0.804-0.442-1.606-0.664-2.41c-2.274,0.941-4.581,1.8-6.854,2.742
			c-1.448,0.6-0.882,2.963,0.664,2.41c2.066-0.737,3.956-1.49,6.18-1.669c-0.21-0.776-0.421-1.553-0.631-2.329
			c-4.934,2.261-10.499,2.838-15.831,1.931c-0.11,0.818-0.222,1.637-0.332,2.455c2.341-0.049,4.543-0.184,6.865,0.298
			c0.11-0.818,0.222-1.637,0.332-2.455c-2.689,0.04-5.295,0.205-7.894-0.641c0.1,0.762,0.199,1.522,0.299,2.284
			c2.643-1.739,6.334-1.462,9.319-0.902c0-0.804,0-1.606,0-2.41c-3.695,1.197-7.62,1.658-11.032-0.56
			c-0.21,0.776-0.421,1.553-0.631,2.329c2.585-0.039,5.056-0.188,7.551,0.641c-0.1-0.762-0.199-1.522-0.299-2.284
			c-2.728,1.185-5.967,0.521-8.634-0.469c0.1,0.762,0.199,1.522,0.299,2.284c2.508-1.445,5.163-1.229,7.938-1.2
			c0-0.833,0-1.667,0-2.5c-2.872,0.386-5.799,1.194-8.579,0.045c0.1,0.762,0.199,1.522,0.299,2.284
			c1.811-0.913,3.853-1.447,5.881-1.2C414.494,354.688,414.476,352.186,412.896,351.993L412.896,351.993z"/>
	</g>
	<g>
		<path fill="#070707" d="M441.541,301.348c0.457-0.571,0.914-1.142,1.371-1.713c0.911-1.138-0.192-2.535-1.515-1.963
			c-2.448,1.059-4.094,2.479-5.246,4.903c-0.452,0.949,0.283,2.155,1.411,1.836c2.735-0.773,4.528-2.275,6.378-4.435
			c0.943-1.101-0.219-2.574-1.515-1.963c-3.481,1.641-6.95,4.917-7.131,8.962c-0.045,1.015,1.078,1.467,1.881,1.079
			c2.905-1.402,4.638-3.551,6.274-6.274c0.722-1.2-1.016-2.599-1.963-1.515c-2.516,2.879-4.975,5.729-6.707,9.164
			c-0.528,1.047,0.594,2.445,1.71,1.71c3.665-2.413,5.98-5.901,7.429-10.001c0.456-1.29-1.216-1.94-2.089-1.216
			c-4.711,3.911-7.86,9.905-8.592,15.964c-0.166,1.376,1.689,1.504,2.329,0.631c2.379-3.245,2.869-7.12,3.896-10.923
			c0.432-1.599-1.819-2.115-2.41-0.664c-1.901,4.665-3.585,9.451-1.713,14.373c0.486,1.28,2.43,1.147,2.455-0.332
			c0.055-3.253,0.388-6.404,0.982-9.607c-0.818-0.11-1.637-0.222-2.455-0.332c0.202,4.039-0.283,7.983-0.685,11.995
			c0.818-0.11,1.637-0.222,2.455-0.332c-1.051-3.109-0.869-6.381-1.371-9.596c-0.16-1.03-1.868-1.261-2.284-0.299
			c-2.154,4.978-2.235,10.285,0.686,14.971c0.602,0.966,2.486,0.681,2.329-0.631c-0.231-1.922-0.627-3.38-1.542-5.087
			c-0.5-0.934-2.051-0.751-2.284,0.299c-0.735,3.303-0.476,6.018,2.035,8.413c0.804,0.768,2.094,0.208,2.134-0.884
			c0.097-2.621-0.705-4.686-2.766-6.367c-0.878-0.717-2.02-0.242-2.134,0.884c-0.272,2.684,1.529,7.219,4.562,7.657
			c2.879,0.417,3.426-4.301,2.395-6.113c-1.162-2.044-4.421-0.616-5.269,0.965c-1.761,3.283,1.609,4.78,4.371,5.208
			c0.882,0.137,1.849-0.54,1.537-1.537c-0.648-2.082-1.632-2.781-3.614-3.615c-0.983-0.414-2.045,0.995-1.411,1.836
			c0.862,1.145,1.702,1.985,2.847,2.848c0.984,0.742,2.447-0.726,1.71-1.71c-2.241-2.995-5.345-4.945-8.078-7.45
			c-0.91-0.834-2.419-0.026-2.089,1.216c0.428,1.611,0.942,3.187,1.371,4.798c0.762-0.32,1.522-0.642,2.284-0.963
			c-0.962-1.225-1.605-2.61-1.93-4.156c-0.438-1.549-2.845-0.892-2.41,0.664c0.38,1.359,0.811,2.505,1.496,3.727
			c0.654-0.505,1.309-1.01,1.963-1.515c-0.457-0.457-0.913-0.914-1.37-1.371c-1.141-1.142-2.908,0.626-1.768,1.768
			c0.456,0.457,0.913,0.914,1.37,1.371c1.016,1.016,2.656-0.278,1.963-1.515c-0.598-0.975-1.012-2.018-1.244-3.129
			c-0.804,0.222-1.606,0.442-2.41,0.664c0.511,1.807,1.132,3.166,2.182,4.754c0.77,1.165,2.659,0.446,2.284-0.963
			c-0.428-1.611-0.942-3.187-1.371-4.798c-0.696,0.405-1.393,0.811-2.089,1.216c2.546,2.334,5.594,4.147,7.688,6.944
			c0.57-0.57,1.14-1.14,1.71-1.71c-0.65-0.65-1.3-1.301-1.95-1.951c-0.471,0.612-0.94,1.225-1.411,1.836
			c0.622,0.623,1.245,1.246,1.868,1.869c0.513-0.513,1.024-1.024,1.537-1.537c-0.921-0.07-1.805-0.294-2.651-0.671
			c-0.927-0.42,1.296-3.174,0.771-0.17c-0.143,0.815-2.47-3.21-2.343-4.466c-0.711,0.295-1.423,0.589-2.134,0.884
			c1.593,1.064,2.271,2.598,2.033,4.6c0.711-0.295,1.423-0.589,2.134-0.884c-1.69-1.822-2.154-3.816-1.393-5.981
			c-0.762,0.1-1.522,0.199-2.284,0.299c0.4,1.275,0.8,2.55,1.2,3.825c0.776-0.21,1.553-0.421,2.329-0.631
			c-2.426-3.893-2.489-8.28-0.686-12.447c-0.762-0.1-1.522-0.199-2.284-0.299c0.513,3.289,0.297,6.419,1.371,9.596
			c0.469,1.387,2.315,1.059,2.455-0.332c0.401-4.012,0.887-7.956,0.685-11.995c-0.067-1.345-2.187-1.78-2.455-0.332
			c-0.636,3.417-1.014,6.792-1.072,10.271c0.818-0.11,1.637-0.222,2.455-0.332c-1.708-4.491,0.002-8.844,1.713-13.045
			c-0.804-0.222-1.606-0.442-2.41-0.664c-0.967,3.581-1.395,7.256-3.644,10.325c0.776,0.21,1.553,0.421,2.329,0.631
			c0.652-5.403,3.695-10.738,7.859-14.196c-0.696-0.405-1.393-0.811-2.089-1.216c-1.224,3.464-3.176,6.463-6.28,8.507
			c0.57,0.57,1.14,1.14,1.71,1.71c1.636-3.242,3.938-5.936,6.316-8.658c-0.654-0.505-1.309-1.01-1.963-1.515
			c-1.412,2.349-2.872,4.168-5.378,5.378c0.627,0.359,1.254,0.72,1.881,1.079c0.14-3.136,3.33-5.596,5.893-6.804
			c-0.505-0.654-1.01-1.309-1.515-1.963c-1.546,1.804-2.734,3.072-5.274,3.792c0.471,0.612,0.94,1.224,1.411,1.836
			c0.919-1.934,2.399-3.163,4.35-4.007c-0.505-0.654-1.01-1.309-1.515-1.963c-0.457,0.57-0.914,1.142-1.371,1.713
			C438.776,300.825,440.534,302.606,441.541,301.348L441.541,301.348z"/>
	</g>
	<g>
		<path fill="#070707" d="M428.098,323.77c0.039,0.924,0.41,1.61,1.052,2.255c1.139,1.144,2.906-0.624,1.768-1.768
			c-0.031-0.031-0.333-0.367-0.208-0.2c-0.049-0.068-0.091-0.14-0.128-0.215c0.043,0.079,0.029,0.218,0.017-0.072
			c-0.028-0.681-0.547-1.25-1.25-1.25C428.688,322.52,428.069,323.088,428.098,323.77L428.098,323.77z"/>
	</g>
	<g>
		<path fill="#070707" d="M436.257,261.787c7.61,3.372,11.784,9.802,14.505,17.417c0.538,1.507,2.954,0.857,2.41-0.664
			c-2.926-8.192-7.458-15.28-15.653-18.911C436.059,258.982,434.785,261.135,436.257,261.787L436.257,261.787z"/>
	</g>
	<g>
		<path fill="#070707" d="M53.671,336.396c0.275,0.578,0.441,1.138,0.881,1.624c0.589-0.589,1.178-1.179,1.768-1.768
			c-0.229-0.229-0.457-0.457-0.686-0.686c-0.771-0.771-2.134-0.206-2.134,0.884c0,0.114,0,0.229,0,0.343c0,1.612,2.5,1.612,2.5,0
			c0-0.114,0-0.229,0-0.343c0-0.682-0.568-1.25-1.25-1.25c-0.049,0-0.099,0-0.148,0c-1.612,0-1.612,2.5,0,2.5
			c0.049,0,0.099,0,0.148,0c-0.294-0.122-0.589-0.244-0.884-0.366c0.114,0.114,0.229,0.229,0.343,0.343
			c0.405-0.696,0.811-1.393,1.216-2.089c-0.363-0.054-0.662-0.289-1.028-0.343c-0.111,0.818-0.222,1.637-0.333,2.455
			c-0.066-0.005-0.132-0.01-0.198-0.015c-0.184-0.107-0.368-0.214-0.552-0.321c-0.095-0.165-0.189-0.331-0.285-0.496
			c0.083,0.541,0.699,0.918,1.206,0.918c0.742,0,1.17-0.573,1.25-1.25c-0.048,0.406-0.061,0.331,0,0.202c-0.719,0-1.439,0-2.158,0
			c0.815,1.169,1.93,2.006,2.937,2.995c1.15,1.131,2.919-0.636,1.768-1.768c-0.834-0.82-1.872-1.522-2.546-2.489
			c-0.487-0.699-1.723-0.918-2.158,0c-0.176,0.37-0.295,0.657-0.342,1.06c0.818-0.111,1.637-0.222,2.456-0.333
			c-0.102-0.661-0.806-0.942-1.377-1.003c-1.397-0.148-1.722,2.249-0.333,2.455c0.363,0.054,0.662,0.289,1.028,0.343
			c0.565,0.084,1.103-0.047,1.412-0.574c0.284-0.484,0.202-1.118-0.195-1.515c-0.407-0.407-0.749-0.709-1.375-0.709
			c-1.612,0-1.612,2.5,0,2.5c0.049,0,0.099,0,0.148,0c-0.417-0.417-0.833-0.833-1.25-1.25c0,0.114,0,0.229,0,0.343
			c0,1.612,2.5,1.612,2.5,0c0-0.114,0-0.229,0-0.343c-0.711,0.295-1.422,0.589-2.134,0.884c0.229,0.229,0.457,0.457,0.686,0.686
			c1.147,1.147,2.843-0.578,1.768-1.768c0.047,0.081,0.034,0.06-0.039-0.064c0.033,0.104,0.021,0.079-0.034-0.075
			c-0.129-0.331-0.264-0.658-0.417-0.979c-0.293-0.615-1.16-0.771-1.71-0.448C53.495,335.051,53.377,335.78,53.671,336.396
			L53.671,336.396z"/>
	</g>
	<g>
		<path fill="#070707" d="M222.342,387.053c-0.223-0.01-0.612-0.083-0.752-0.39c-0.057-0.21-0.114-0.421-0.17-0.631
			c0.005,0.038,0.01,0.075,0.015,0.113c0.088,0.676,0.502,1.25,1.25,1.25c0.615,0,1.338-0.572,1.25-1.25
			c-0.117-0.901-0.642-1.55-1.592-1.593c-0.681-0.031-1.25,0.592-1.25,1.25C221.092,386.508,221.662,387.021,222.342,387.053
			L222.342,387.053z"/>
	</g>
	<g>
		<path fill="#070707" d="M295,387.738c1.136-0.001,2.159-0.289,2.277-1.593c0.062-0.68-0.615-1.25-1.25-1.25
			c-0.728,0-1.188,0.571-1.25,1.25c0.221-0.302,0.44-0.604,0.661-0.905c0.173-0.017,0.177-0.02,0.011-0.008
			c-0.149,0.01-0.3,0.006-0.449,0.006C293.388,385.24,293.388,387.74,295,387.738L295,387.738z"/>
	</g>
	<g>
		<path fill="#070707" d="M312.533,377.526c-0.12,0.071-0.241,0.143-0.363,0.212c-0.238,0.134-0.137,0.016,0.064-0.018
			c0.222,0,0.443,0,0.665,0c-0.003-0.001-0.005-0.002-0.008-0.003c0.306,0.401,0.612,0.804,0.918,1.205c0-0.003,0-0.006,0-0.008
			c-0.057,0.21-0.113,0.42-0.17,0.631c-0.257,0.43-0.074,0.123,0.104-0.025c0.183-0.152,0.37-0.301,0.556-0.45
			c0.381-0.307,0.77-0.609,1.119-0.952c1.153-1.13-0.615-2.896-1.768-1.768c-0.396,0.388-0.841,0.728-1.272,1.075
			c-0.517,0.415-1.025,0.762-1.069,1.497c-0.036,0.6,0.419,1.001,0.918,1.206c0.536,0.22,1.127-0.182,1.567-0.444
			C315.178,378.86,313.921,376.698,312.533,377.526L312.533,377.526z"/>
	</g>
	<path fill="#070707" d="M189.652,302.706c0.198,1.18,0.238,2.378,0.151,3.613c31.495-6.847,61.254-9.929,87.815-10.784
		c-3.004-2.041-2.135-5.956-0.833-9.1c-34.303,1.243-63.771,5.177-88.392,10.168C189.515,298.121,189.882,300.413,189.652,302.706z"
		/>
	<path fill="#070707" d="M178.395,308.481c-0.31-0.914-0.482-1.783-0.538-2.623c-0.818-2.367-0.69-4.888,0.44-7.084
		c-55.301,12.504-83.154,29.7-83.154,29.7c-3.472,4.899,2.768,8.31,2.768,8.31c27.349-12.499,54.435-21.485,80.48-27.836
		C178.393,308.793,178.394,308.637,178.395,308.481z"/>
	<path fill="#070707" d="M289.481,286.107c1.357,2.217,0.825,5.015-0.082,7.645c-0.007,0.513-0.016,1.027-0.025,1.543
		c62.931-0.558,105.209,10.852,105.209,10.852l1.752-13.464C356.854,287.395,321.243,285.6,289.481,286.107z"/>
	<g>
		<path fill="#070707" d="M407.712,279.202c-2.405,3.051-3.819,5.955-4.106,9.864c-0.132,1.795,2.263,3.25,3.762,2.158
			c2.052-1.493,3.555-3.161,4.945-5.282c1.27-1.935-0.807-4.135-2.823-3.673c-6.334,1.453-8.803,8.23-10.182,13.893
			c1.638,0.222,3.274,0.443,4.911,0.665c-0.056-3.033-1.389-9.577,2.214-11.085c-0.812-1.394-1.622-2.786-2.433-4.179
			c-1.795,2.062-3.403,4.151-4.75,6.535c-0.571,1.013-0.994,2.161-1.441,3.23c-0.585,1.398-0.556,3.903-1.568,5.08
			c0.811-0.215,1.621-0.429,2.433-0.644c0.03-0.01,0.061-0.021,0.091-0.031c-1.017-0.933-2.523-0.978-3.535,0
			c-5.13,4.958-0.619,11.574-3.006,17.297c1.607,0,3.215,0,4.822,0c-0.388-1.355-0.388-2.712,0-4.068
			c-1.638-0.222-3.274-0.443-4.911-0.665c-0.444,5.424-1.552,10.743-1.687,16.195c-0.08,3.227,4.92,3.219,5,0
			c0.135-5.446,1.242-10.775,1.687-16.195c0.233-2.849-4.232-3.356-4.911-0.665c-0.585,2.323-0.42,4.389,0,6.729
			c0.492,2.735,3.988,1.998,4.822,0c1.819-4.365-1.716-11.771,1.719-15.092c-1.179,0-2.356,0-3.535,0
			c0.682,0.625,1.267,0.964,2.114,1.318c0.751,0.312,1.916-0.043,2.433-0.644c1.649-1.915,1.787-3.376,2.331-5.826
			c0.75-3.384,3.22-6.481,5.429-9.02c1.458-1.675,0.092-5.235-2.433-4.179c-6.742,2.823-5.997,9.697-5.884,15.907
			c0.051,2.779,4.229,3.461,4.911,0.665c0.934-3.837,2.271-9.388,6.689-10.4c-0.941-1.225-1.883-2.449-2.823-3.673
			c-0.778,1.409-1.829,2.572-3.152,3.489c1.254,0.719,2.508,1.438,3.762,2.158c0.185-2.512,1.097-4.368,2.642-6.329
			C413.22,280.235,409.707,276.671,407.712,279.202L407.712,279.202z"/>
	</g>
	<g>
		<path fill="#070707" d="M124.62,330.903c-0.846-8.244-2.282-17.199-6.918-24.248c-0.881-1.341-3.047-0.09-2.158,1.262
			c4.373,6.648,5.778,15.206,6.577,22.986C122.283,332.49,124.784,332.507,124.62,330.903L124.62,330.903z"/>
	</g>
</g>
</svg>
