<?xml version="1.0" encoding="utf-8"?>
<!-- Generator: Adobe Illustrator 16.0.0, SVG Export Plug-In . SVG Version: 6.00 Build 0)  -->
<!DOCTYPE svg PUBLIC "-//W3C//DTD SVG 1.1//EN" "http://www.w3.org/Graphics/SVG/1.1/DTD/svg11.dtd">
<svg version="1.1" id="Layer_1" xmlns="http://www.w3.org/2000/svg" xmlns:xlink="http://www.w3.org/1999/xlink" x="0px" y="0px"
	 width="500px" height="550px" viewBox="0 0 500 550" enable-background="new 0 0 500 550" xml:space="preserve">
<g>
	<g>
		<path fill="#070707" d="M349.711,273.066c-10.745-19.41-32.792-29.056-54.23-30.118c-6.65-0.329-13.342,0.56-19.943,1.237
			c-8.337,0.855-16.726,1.529-25.039,2.575c-12.027,1.513-23.026,6.988-31.992,15.034c-34.77,31.202-20.52,86.101-20.211,126.659
			c0.157,20.696-3.939,41.618-2.144,62.249c1.431,16.433,8.793,31.308,19.948,43.289c1.101,1.183,2.865-0.59,1.768-1.768
			c-9.788-10.514-16.186-22.931-18.646-37.107c-2.708-15.608,0.288-31.935,1.093-47.597c1.305-25.384-2.082-50.364-2.372-75.692
			c-0.26-22.691,2.883-46.903,18.55-64.474c9.604-10.769,23.013-17.063,37.282-18.46c14.626-1.432,29.715-4.291,44.435-3.285
			c19.583,1.337,39.618,11.152,49.343,28.718C348.333,275.739,350.492,274.478,349.711,273.066L349.711,273.066z"/>
	</g>
	<g>
		<path fill="#070707" d="M232.444,504.43c13.934,8.496,31.342,8.583,47.107,7.354c8.129-0.634,16.21-1.867,24.245-3.225
			c8.87-1.499,18.645-2.255,26.449-7.057c1.37-0.843,0.115-3.006-1.262-2.158c-7.247,4.458-16.341,5.156-24.577,6.585
			c-7.754,1.346-15.537,2.493-23.375,3.228c-15.706,1.472-33.421,1.593-47.326-6.886C232.326,501.43,231.07,503.592,232.444,504.43
			L232.444,504.43z"/>
	</g>
	<g>
		<path fill="#070707" d="M251.604,249.105c1.611,0,1.611-2.5,0-2.5C249.991,246.605,249.991,249.105,251.604,249.105
			L251.604,249.105z"/>
	</g>
	<g>
		<path fill="#070707" d="M198.79,294.021c-10.316-2.551-17.053-11.436-12.55-21.924c1.789-4.166,5.261-7.25,9.247-9.244
			c5.532-2.767,15.475-3.465,20.126,1.078c1.153,1.127,2.922-0.64,1.768-1.768c-5.003-4.887-13.677-4.478-19.985-2.704
			c-5.851,1.646-10.685,5.964-13.314,11.375c-5.719,11.771,2.458,22.731,14.043,25.596
			C199.69,296.819,200.354,294.408,198.79,294.021L198.79,294.021z"/>
	</g>
	<g>
		<path fill="#070707" d="M338.125,260.637c8.979-4.541,22.45-6.707,28.831,2.922c6.325,9.544,1.994,24.255-9.803,26.487
			c-1.583,0.299-0.911,2.709,0.664,2.41c13.558-2.565,17.289-17.897,11.926-29.05c-5.967-12.408-22.758-10.046-32.88-4.927
			C335.424,259.206,336.69,261.363,338.125,260.637L338.125,260.637z"/>
	</g>
	<g>
		<path fill="#070707" d="M267.857,308.918c0.012-0.381,0.023-0.763,0.035-1.144c-0.456,0.136-0.917,0.254-1.382,0.355
			c-0.838,0.199-0.474,0.058-1.494,0.681c-1.702,1.04-3.241,2.344-4.692,3.703c-1.878,1.76-4.452,4.962-3.759,7.781
			c2.626,10.672,17.427,3.847,23.894,3.253c6.784-0.623,16.396,7.062,19.379-3.049c2.23-7.557-8.652-12.276-13.938-14.247
			c-0.757-0.282-1.08,0.926-0.332,1.205c5.244,1.956,13.019,5.217,13.19,11.771c0.252,9.602-12.224,3.364-16.928,3.089
			c-7.43-0.436-13.693,4.979-21.07,1.351c-8.997-4.425,3.561-13.367,7.911-14.84c0.444-0.15,0.614-0.692,0.275-1.045
			c-0.383-0.397-0.956-0.15-1.422-0.07C266.732,307.849,267.069,309.054,267.857,308.918L267.857,308.918z"/>
	</g>
	<g>
		<path fill="#070707" d="M288.056,325.061c1.096,2.916,1.536,5.89,1.37,9.001c-0.124,2.315-0.919,4.351-2.889,5.695
			c-2.944,2.011-5.682-0.177-6.764-2.891c-0.295-0.739-1.504-0.417-1.205,0.332c1.658,4.16,5.394,5.827,9.313,3.151
			c4.555-3.109,2.966-11.399,1.379-15.621C288.98,323.981,287.771,324.305,288.056,325.061L288.056,325.061z"/>
	</g>
	<g>
		<path fill="#070707" d="M217.299,494.138c7.405-3.576,11.348,5.674,16.434,9.264c0.05-0.381,0.1-0.762,0.149-1.143
			c-8.165,1.38-14.18,12.521-22.728,11.119c-3.078-0.505-5.651-3.769-5.711-6.768c-0.055-2.733,2.517-5.199,4.327-6.905
			c2.875-2.709,6.464-4.759,9.966-6.543c0.718-0.366,0.086-1.444-0.631-1.08c-5.314,2.708-20.524,11.561-13.151,19.282
			c9.592,10.046,18.753-6.294,28.26-7.9c0.587-0.099,0.541-0.865,0.149-1.143c-5.738-4.05-9.425-13.257-17.696-9.264
			C215.942,493.408,216.577,494.486,217.299,494.138L217.299,494.138z"/>
	</g>
	<g>
		<path fill="#070707" d="M208.81,511.884c-1.23-4.319,2.006-7.662,5.565-9.534c0.713-0.376,0.082-1.455-0.631-1.08
			c-4.076,2.145-7.522,6.091-6.139,10.946C207.825,512.99,209.031,512.66,208.81,511.884L208.81,511.884z"/>
	</g>
	<g>
		<path fill="#070707" d="M329.245,501.565c3.164-7.513,11.748-13.14,19.193-8.029c3.925,2.693,6.342,7.776,6.646,12.432
			c0.399,6.118-4.653,7.728-9.757,6.225c-5.995-1.767-9.435-9.331-14.419-12.799c-0.663-0.461-1.287,0.623-0.631,1.08
			c6.751,4.696,10.501,14.305,20.018,13.593c4.895-0.365,6.586-5.427,5.891-9.643c-0.938-5.695-4.426-11.074-9.788-13.47
			c-7.624-3.405-15.558,3.628-18.358,10.279C327.728,501.976,328.938,502.297,329.245,501.565L329.245,501.565z"/>
	</g>
	<g>
		<path fill="#070707" d="M346.239,501.842c2.81,2.912,5.041,6.638,5.182,10.771c0.027,0.804,1.277,0.807,1.25,0
			c-0.152-4.471-2.502-8.499-5.547-11.656C346.563,500.376,345.681,501.262,346.239,501.842L346.239,501.842z"/>
	</g>
	<g>
		<path fill="#070707" d="M362.771,375.74c4.267-0.236,8.419,0.756,11.998,3.118c3.542,2.338,6.345,7.895,4.117,11.978
			c-1.517,2.78-5.837,1.653-8.135,0.84c-2.896-1.024-5.61-2.918-7.538-5.301c-0.508-0.627-1.387,0.264-0.885,0.885
			c3.243,4.008,14.154,10.591,17.865,3.788c2.026-3.716-0.227-8.817-2.793-11.596c-3.567-3.863-9.572-5.242-14.63-4.962
			C361.969,374.535,361.965,375.785,362.771,375.74L362.771,375.74z"/>
	</g>
	<g>
		<path fill="#070707" d="M371.87,386.441c2.718,0.842,6.164,3.156,4.502,6.399c-0.366,0.716,0.712,1.349,1.08,0.631
			c2.065-4.031-1.668-7.127-5.25-8.235C371.43,384.997,371.103,386.204,371.87,386.441L371.87,386.441z"/>
	</g>
	<circle fill="none" stroke="#070707" stroke-width="1.5" stroke-miterlimit="10" cx="309.833" cy="282.424" r="25.355"/>
	<circle fill="none" stroke="#070707" stroke-width="1.5" stroke-miterlimit="10" cx="245.974" cy="285.113" r="25.355"/>
	<path fill="#070707" d="M358.385,272.386c0-2.962-2.403-5.363-5.362-5.363c-2.965,0-5.364,2.401-5.364,5.363
		c0,2.964,2.399,5.364,5.364,5.364C355.981,277.75,358.385,275.35,358.385,272.386z"/>
	<path fill="#070707" d="M208.314,277.098c0-2.962-2.403-5.362-5.364-5.362c-2.962,0-5.364,2.4-5.364,5.362
		c0,2.965,2.402,5.365,5.364,5.365C205.911,282.463,208.314,280.062,208.314,277.098z"/>
	<ellipse fill="#070707" cx="278.064" cy="305.823" rx="11.344" ry="6.283"/>
	<path fill="#070707" d="M300.578,267.558c-4.575,0-8.286,3.71-8.286,8.29c0,4.576,3.711,8.289,8.286,8.289
		c4.58,0,8.291-3.713,8.291-8.289C308.869,271.268,305.158,267.558,300.578,267.558z M303.917,281.119
		c-1.296,0-2.348-1.051-2.348-2.348c0-1.294,1.052-2.345,2.348-2.345c1.297,0,2.348,1.051,2.348,2.345
		C306.265,280.068,305.214,281.119,303.917,281.119z"/>
	<path fill="#070707" d="M236.252,269.534c-4.577,0-8.288,3.708-8.288,8.286c0,4.578,3.711,8.293,8.288,8.293
		c4.578,0,8.291-3.715,8.291-8.293C244.543,273.243,240.831,269.534,236.252,269.534z M239.59,283.094
		c-1.295,0-2.346-1.051-2.346-2.346c0-1.296,1.051-2.347,2.346-2.347c1.297,0,2.346,1.051,2.346,2.347
		C241.936,282.043,240.887,283.094,239.59,283.094z"/>
	<g>
		<path fill="#070707" d="M278.417,323.502c-0.009,4.999,1.419,11.235-1.376,15.729c-1.057,1.698-3.062,1.703-4.79,1.315
			c-2.156-0.484-3.073-2.664-3.569-4.571c-0.86-3.302-0.362-7.201,0.589-10.428c0.229-0.775-0.978-1.104-1.205-0.332
			c-1.7,5.766-2.022,18.462,7.294,16.665c6.636-1.28,4.3-13.955,4.308-18.378C279.668,322.695,278.418,322.696,278.417,323.502
			L278.417,323.502z"/>
	</g>
	<g>
		<path fill="#070707" d="M199.227,377.317c-5.881-1.033-11.904,1.727-16.201,5.646c-3.097,2.825-4.616,7.121-0.336,9.499
			c0.705,0.392,1.335-0.688,0.631-1.08c-5.008-2.781,0.199-7.473,3.023-9.452c3.597-2.521,8.14-4.183,12.551-3.408
			C199.683,378.661,200.02,377.456,199.227,377.317L199.227,377.317z"/>
	</g>
	<g>
		<path fill="#070707" d="M187.079,387.894c-1.668,0.781-4.019,2.414-4.023,4.524c-0.004,1.952,1.808,3.338,3.67,3.543
			c2.257,0.248,4.555-1.119,6.408-2.234c1.924-1.158,4.01-2.598,5.428-4.364c0.5-0.623-0.379-1.513-0.884-0.885
			c-1.905,2.374-4.855,4.169-7.566,5.465c-1.815,0.868-3.595,1.189-5.285-0.193c-2.084-1.705,1.614-4.182,2.883-4.775
			C188.439,388.632,187.805,387.555,187.079,387.894L187.079,387.894z"/>
	</g>
	<g>
		<path fill="#070707" d="M346.239,271.452c9.715,14.314,12.288,31.523,13.035,48.461c0.771,17.475-0.143,34.978,0.577,52.464
			c0.858,20.884,2.609,41.726,2.358,62.644c-0.125,10.443-1.049,20.695-3.785,30.804c-2.488,9.196-8.503,16.083-12.972,24.278
			c-0.772,1.416,1.387,2.678,2.158,1.262c4.257-7.806,10.012-14.511,12.711-23.115c2.979-9.496,3.989-19.425,4.304-29.327
			c0.703-22.196-1.305-44.388-2.274-66.545c-0.812-18.521,0.229-37.064-0.726-55.571c-0.84-16.296-3.92-32.9-13.229-46.615
			C347.498,268.865,345.331,270.114,346.239,271.452L346.239,271.452z"/>
	</g>
	<path fill="none" stroke="#070707" stroke-width="3" stroke-miterlimit="10" d="M255.615,133.354
		c0-51.985-35.065-94.126-78.325-94.126c-43.258,0-78.329,42.141-78.329,94.126c0,51.995,35.071,94.139,78.329,94.139
		C220.55,227.493,255.615,185.35,255.615,133.354z"/>
	<path fill="none" stroke="#070707" stroke-width="1.5" stroke-miterlimit="10" d="M205.542,147.618
		c0-23.459-20.701-42.476-46.238-42.476c-25.539,0-46.244,19.017-46.244,42.476c0,23.464,20.705,42.479,46.244,42.479
		C184.841,190.098,205.542,171.082,205.542,147.618z"/>
	<g>
		<path fill="#070707" d="M162.938,227.178c-0.765,1.803-1.06,3.729-1.621,5.601c-0.083,0.277,0.055,0.555,0.287,0.706
			c4.128,2.67,10.187,2.185,14.712,0.94c2.806-0.772,6.107-3.042,3.183-5.816c-0.584-0.554-1.47,0.328-0.884,0.884
			c3.475,3.297-6.21,4.463-7.892,4.564c-2.026,0.122-4.069-0.056-6.037-0.55c-0.993-0.25-2.172-0.37-1.833-1.502
			c0.422-1.411,0.581-2.824,1.163-4.195C164.329,227.076,163.252,226.438,162.938,227.178L162.938,227.178z"/>
	</g>
	<g>
		<path fill="#070707" d="M163.817,234.013c-2.602,3.689-5.794,6.648-9.349,9.395c-0.516,0.398,0.046,1.204,0.608,1.044
			c8.413-2.382,6.312,6.421,12.343,6.967c1.885,0.171,4.163-0.254,5.168-2.089c0.53-0.968,0.863-1.95,1.16-3.014
			c0.908-3.255,3.753-2.646,5.995-0.897c2.209,1.723,9.582,0.322,10.418-2.719c1.156-4.204-8.322-8.725-10.787-10.294
			c-0.682-0.435-1.309,0.647-0.631,1.079c2.689,1.713,5.392,3.408,7.865,5.429c4.787,3.913-0.86,5.381-4.599,5.894
			c-2.302,0.315-5.996-4.924-8.373-1.438c-0.839,1.23-1.088,2.69-1.534,4.092c-1.889,5.946-6.614,1.476-8.365-1.28
			c-2.195-3.456-5.186-4.01-8.993-2.932c0.203,0.348,0.405,0.696,0.608,1.044c3.638-2.811,6.889-5.883,9.544-9.648
			C165.362,233.983,164.277,233.36,163.817,234.013L163.817,234.013z"/>
	</g>
	<g>
		<path fill="#070707" d="M173.783,244.795c5.349,24.484,0.083,49.077-1.004,73.695c-0.507,11.473,0.307,22.917,3.092,34.074
			c1.251,5.014,3.218,9.836,4.549,14.843c1.277,4.803,2.304,9.668,3.49,14.493c0.192,0.782,1.397,0.45,1.205-0.332
			c-2.283-9.291-4.847-18.361-7.546-27.524c-3.727-12.653-4.057-26.002-3.369-39.079c1.242-23.609,5.921-47.014,0.789-70.502
			C174.816,243.675,173.611,244.009,173.783,244.795L173.783,244.795z"/>
	</g>
	<g>
		<path fill="#070707" d="M188.363,395.835c1.644,7.97-0.416,17.436-1.853,25.275c-1.604,8.754-4.059,17.343-6.497,25.893
			c-0.222,0.776,0.984,1.106,1.205,0.332c2.617-9.178,5.119-18.373,6.84-27.768c1.388-7.573,3.082-16.442,1.509-24.064
			C189.406,394.714,188.201,395.049,188.363,395.835L188.363,395.835z"/>
	</g>
</g>
</svg>
