<?xml version="1.0" encoding="utf-8"?>
<!-- Generator: Adobe Illustrator 16.0.0, SVG Export Plug-In . SVG Version: 6.00 Build 0)  -->
<!DOCTYPE svg PUBLIC "-//W3C//DTD SVG 1.1//EN" "http://www.w3.org/Graphics/SVG/1.1/DTD/svg11.dtd">
<svg version="1.1" id="Layer_1" xmlns="http://www.w3.org/2000/svg" xmlns:xlink="http://www.w3.org/1999/xlink" x="0px" y="0px"
	 width="500px" height="550px" viewBox="0 0 500 550" enable-background="new 0 0 500 550" xml:space="preserve">
<g>
	<g>
		<path fill="#070707" d="M125.054,354.265c-2.235,35.793,5.26,72.157,30.341,99.036c1.102,1.181,2.866-0.591,1.768-1.768
			c-24.64-26.406-31.802-62.146-29.608-97.269C127.654,352.654,125.154,352.664,125.054,354.265L125.054,354.265z"/>
	</g>
	<g>
		<path fill="#070707" d="M360.262,113.616c-10.263-17.507-25.574-30.362-44.343-37.956c-19.328-7.82-40.826-9.398-61.458-8.478
			c-21.463,0.957-42.76,5.022-63.506,10.446c-12.441,3.253-21.947,10.635-31.645,18.789c-4.885,4.106-9.036,8.134-12.9,13.236
			c-4.191,5.535-7.692,11.563-10.716,17.803c-14.439,29.79-13.455,64.558-11.897,96.8c1.826,37.795,6.349,75.529,2.533,113.359
			c-0.162,1.604,2.34,1.588,2.5,0c3.231-32.039,0.584-64.116-1.522-96.133c-2.003-30.441-4.352-62.462,3.193-92.341
			c7.049-27.913,25.006-51.905,50.638-65.416c9.73-5.129,22.326-6.761,33.031-8.904c11.132-2.229,22.384-3.836,33.701-4.73
			c42.003-3.316,87.392,5.823,110.233,44.786C358.918,116.267,361.079,115.01,360.262,113.616L360.262,113.616z"/>
	</g>
	<g>
		<path fill="#070707" d="M180.452,469.276c21.548,13.321,49.034,13.185,73.431,11.146c12.37-1.033,24.662-2.913,36.892-4.999
			c13.251-2.26,28.139-3.315,39.731-10.653c1.358-0.859,0.104-3.023-1.262-2.158c-11.041,6.988-25.237,7.993-37.859,10.182
			c-12.438,2.156-24.925,4.014-37.502,5.129c-23.907,2.12-51.067,2.24-72.169-10.805
			C180.338,466.268,179.083,468.431,180.452,469.276L180.452,469.276z"/>
	</g>
	<g>
		<path fill="#070707" d="M209.635,75.665c1.612,0,1.612-2.5,0-2.5S208.022,75.665,209.635,75.665L209.635,75.665z"/>
	</g>
	<g>
		<path fill="#070707" d="M128.473,146.848c-8.116-1.941-15.456-5.952-19.577-13.453c-3.575-6.505-3.108-14.546-0.231-21.191
			c2.946-6.806,8.654-11.916,15.306-14.97c8.59-3.945,24.077-5.157,31.093,2.107c1.122,1.162,2.888-0.608,1.768-1.768
			c-7.367-7.627-21.586-6.702-30.938-3.738c-8.528,2.703-15.602,9.045-19.387,17.107c-3.202,6.82-3.674,15.229-0.516,22.154
			c4.079,8.946,12.534,13.941,21.818,16.163C129.375,149.634,130.041,147.224,128.473,146.848L128.473,146.848z"/>
	</g>
	<g>
		<path fill="#070707" d="M342.646,93.531c13.957-7.19,35.459-10.474,45.305,4.652c9.695,14.895,3.523,38.729-15.457,41.911
			c-1.588,0.266-0.912,2.675,0.664,2.411c20.72-3.474,26.317-27.983,17.604-44.472c-9.471-17.923-34.264-14.447-49.378-6.66
			C339.951,92.111,341.216,94.268,342.646,93.531L342.646,93.531z"/>
	</g>
	<g>
		<path fill="#070707" d="M234.602,168.203c0.385-0.062,0.769-0.124,1.153-0.186c-0.147-0.355-0.295-0.711-0.442-1.067
			c-0.784,0.837-3.213,0.724-4.334,1.397c-2.677,1.607-5.131,3.587-7.407,5.715c-2.994,2.8-7.04,7.679-5.918,12.178
			c1.257,5.042,7.113,8.338,12.035,8.752c8.706,0.733,16.539-3.908,25.134-4.269c9.775-0.411,25.511,10.676,28.932-4.934
			c2.478-11.302-13.216-18.037-21.349-21.047c-0.758-0.281-1.081,0.928-0.332,1.205c8.505,3.148,22.71,9.313,20.229,20.632
			c-1.8,8.212-9.927,6.918-15.869,5.167c-4.396-1.295-8.415-2.407-13.035-2.213c-5.601,0.235-11.057,2.641-16.494,3.812
			c-6.46,1.391-19.264-0.725-17.998-9.798c0.714-5.114,6.092-9.402,9.946-12.271c1.375-1.024,2.818-2.143,4.515-2.5
			c0.789-0.167,2.238-0.311,2.829-0.941c0.342-0.365,0.134-1.122-0.441-1.067c-0.524,0.05-0.94,0.131-1.485,0.231
			C233.478,167.143,233.813,168.348,234.602,168.203L234.602,168.203z"/>
	</g>
	<g>
		<path fill="#070707" d="M266.151,193.321c2.246,5.767,3.818,14.571,0.335,20.173c-3.402,5.472-12.006,5.196-13.974-1.169
			c-0.237-0.768-1.444-0.44-1.205,0.332c1.893,6.125,8.196,7.387,13.375,4.267c7.483-4.509,5.257-17.302,2.674-23.935
			C267.067,192.246,265.858,192.569,266.151,193.321L266.151,193.321z"/>
	</g>
	<g>
		<path fill="#070707" d="M156.594,453.708c11.584-5.896,17.677,8.814,25.67,14.28c0.05-0.381,0.1-0.762,0.149-1.143
			c-6.51,0.973-11.832,5.405-16.92,9.26c-5.687,4.31-13.05,10.497-20.552,7.034c-4.179-1.93-7.359-6.431-6.639-11.074
			c0.549-3.54,3.353-6.551,5.79-8.954c4.624-4.558,10.5-7.99,16.261-10.907c0.719-0.364,0.086-1.443-0.631-1.08
			c-9.526,4.824-30.968,17.453-19.403,30.065c13.143,14.332,29.5-11.207,42.426-13.139c0.586-0.088,0.542-0.874,0.149-1.143
			c-8.604-5.883-14.49-20.613-26.932-14.28C155.244,452.994,155.877,454.072,156.594,453.708L156.594,453.708z"/>
	</g>
	<g>
		<path fill="#070707" d="M143.353,481.442c-1.938-6.809,3.112-12.117,8.733-15.076c0.713-0.376,0.082-1.455-0.631-1.08
			c-6.144,3.235-11.395,9.153-9.307,16.488C142.368,482.549,143.574,482.219,143.353,481.442L143.353,481.442z"/>
	</g>
	<g>
		<path fill="#070707" d="M328.978,465.362c4.516-11.184,17.55-20.276,29.004-13.315c6.463,3.927,10.62,11.777,11.418,19.149
			c0.91,8.408-4.624,13.095-12.779,11.656c-10.993-1.938-16.281-14.589-24.926-20.452c-0.669-0.453-1.294,0.63-0.631,1.08
			c10.284,6.975,15.707,21.386,29.924,20.967c7.592-0.224,10.509-7.558,9.557-14.185c-1.256-8.741-6.703-17.255-14.939-20.861
			c-11.48-5.027-23.721,5.445-27.832,15.629C327.471,465.778,328.68,466.1,328.978,465.362L328.978,465.362z"/>
	</g>
	<g>
		<path fill="#070707" d="M355.735,465.639c4.394,4.555,7.867,10.377,8.087,16.841c0.027,0.804,1.277,0.807,1.25,0
			c-0.231-6.8-3.822-12.925-8.452-17.726C356.06,464.173,355.177,465.059,355.735,465.639L355.735,465.639z"/>
	</g>
	<g>
		<path fill="#070707" d="M380.976,271.18c6.375-0.357,12.591,1.073,18.041,4.435c5.906,3.644,10.572,12.287,7.244,19.076
			c-2.274,4.642-9.058,3.104-12.831,1.806c-4.606-1.583-8.955-4.56-12.012-8.347c-0.507-0.627-1.386,0.264-0.885,0.885
			c4.857,6.015,20.803,15.857,26.808,6.287c3.395-5.41-0.103-13.438-3.83-17.607c-5.418-6.062-14.73-8.222-22.535-7.784
			C380.174,269.975,380.17,271.225,380.976,271.18L380.976,271.18z"/>
	</g>
	<g>
		<path fill="#070707" d="M395.09,287.69c4.419,1.365,9.819,5.134,7.138,10.356c-0.367,0.716,0.711,1.349,1.08,0.631
			c3.078-5.996-2.592-10.558-7.886-12.192C394.649,286.247,394.322,287.453,395.09,287.69L395.09,287.69z"/>
	</g>
	<path fill="none" stroke="#070707" stroke-width="1.5" stroke-miterlimit="10" d="M338.46,127.692
		c0-21.582-17.491-39.077-39.078-39.077c-21.582,0-39.079,17.495-39.079,39.077c0,21.586,17.497,39.08,39.079,39.08
		C320.969,166.771,338.46,149.278,338.46,127.692z"/>
	<circle fill="none" stroke="#070707" stroke-width="1.5" stroke-miterlimit="10" cx="200.962" cy="131.841" r="39.076"/>
	<circle fill="#070707" cx="365.949" cy="112.225" r="8.266"/>
	<circle fill="#070707" cx="133.554" cy="118.414" r="8.268"/>
	<ellipse fill="#070707" cx="250.417" cy="163.758" rx="17.487" ry="9.683"/>
	<path fill="#070707" d="M299.319,133.594c-7.057,0-12.776,5.717-12.776,12.773s5.72,12.779,12.776,12.779
		c7.056,0,12.775-5.723,12.775-12.779S306.375,133.594,299.319,133.594z M304.461,154.495c-1.995,0-3.614-1.62-3.614-3.617
		c0-1.996,1.619-3.619,3.614-3.619c1.997,0,3.621,1.623,3.621,3.619C308.082,152.875,306.458,154.495,304.461,154.495z"/>
	<path fill="#070707" d="M200.172,136.639c-7.053,0-12.777,5.717-12.777,12.773s5.724,12.779,12.777,12.779
		c7.058,0,12.774-5.723,12.774-12.779S207.229,136.639,200.172,136.639z M205.315,157.539c-1.994,0-3.613-1.619-3.613-3.616
		s1.619-3.62,3.613-3.62c2,0,3.619,1.623,3.619,3.62S207.315,157.539,205.315,157.539z"/>
	<g>
		<path fill="#070707" d="M251.788,190.24c-1.307,2.943-0.349,6.209-0.1,9.294c0.493,6.1,0.384,17.663-7.834,18.401
			c-11.267,1.012-9.194-17.516-7.313-23.866c0.229-0.775-0.977-1.103-1.205-0.332c-1.937,6.54-3.977,21.814,4.785,24.759
			c4.807,1.615,8.676-0.058,10.995-4.488c1.386-2.649,1.613-5.869,1.829-8.784c0.306-4.142-1.787-10.503-0.076-14.354
			C253.191,190.141,252.115,189.504,251.788,190.24L251.788,190.24z"/>
	</g>
	<g>
		<path fill="#070707" d="M128.823,274.275c-8.939-1.57-18.113,2.666-24.641,8.618c-4.613,4.207-6.987,10.555-0.588,14.107
			c0.706,0.392,1.335-0.688,0.631-1.08c-8.041-4.463,0.107-11.957,4.66-15.149c5.626-3.945,12.713-6.501,19.606-5.291
			C129.279,275.619,129.616,274.414,128.823,274.275L128.823,274.275z"/>
	</g>
	<g>
		<path fill="#070707" d="M110.357,290.542c-4.214,1.993-8.872,7.237-3.51,10.772c7.52,4.958,16.578-6.063,21.703-9.94
			c0.634-0.48,0.013-1.566-0.631-1.08c-4.151,3.141-7.621,6.825-12.229,9.369c-2.724,1.504-10.883,2.806-10.043-2.828
			c0.372-2.492,3.32-4.257,5.342-5.213C111.717,291.277,111.082,290.2,110.357,290.542L110.357,290.542z"/>
	</g>
	<g>
		<path fill="#070707" d="M380.654,340.901c0.537,37.163-2.362,76.637-25.787,107.225c-0.98,1.28,1.192,2.523,2.158,1.262
			c23.668-30.904,26.672-70.935,26.129-108.486C383.131,339.291,380.631,339.288,380.654,340.901L380.654,340.901z"/>
	</g>
	<g>
		<path fill="#070707" d="M356.083,110.445c19.689,28.746,20.407,64.184,20.523,97.775c0.136,39.085,1.94,78.108,3.548,117.153
			c0.066,1.606,2.566,1.612,2.5,0c-1.652-40.131-3.393-80.222-3.56-120.393c-0.138-32.972-1.58-67.66-20.854-95.797
			C357.337,107.863,355.169,109.111,356.083,110.445L356.083,110.445z"/>
	</g>
	<g>
		<path fill="#070707" d="M129.286,354.446c42.27,15.904,87.925,18.264,132.586,15.055c21.331-1.532,43.344-3.61,64.288-8.068
			c19.57-4.166,38.934-8.145,54.354-21.8c0.604-0.536-0.283-1.417-0.885-0.885c-15.661,13.871-35.597,17.604-55.418,21.823
			c-21.445,4.564-44.036,6.435-65.88,7.929c-43.348,2.964-87.746,0.155-128.713-15.259
			C128.862,352.957,128.539,354.165,129.286,354.446L129.286,354.446z"/>
	</g>
	<g>
		<path fill="#070707" d="M148.671,443.851c2.718-0.376,5.134-2.571,7.293-4.095c4.042-2.85,8.316-6.258,13.417-6.571
			c7.084-0.436,14.318,2.773,20.229,6.354c5.823,3.528,11.152,8.488,14.141,14.675c3.822,7.911-0.39,14.921-7.195,19.27
			c-0.677,0.433-0.051,1.516,0.631,1.08c5.502-3.517,10.313-8.957,9.166-15.961c-1.152-7.034-6.258-12.903-11.763-17.11
			c-6.329-4.837-13.7-8.42-21.658-9.423c-3.632-0.458-6.653,0.037-9.895,1.66c-4.633,2.319-9.493,8.195-14.698,8.916
			C147.543,442.756,147.883,443.96,148.671,443.851L148.671,443.851z"/>
	</g>
	<g>
		<path fill="#070707" d="M317.588,467.846c-8.749-13.009-5.41-28.318,6.921-37.614c12.594-9.496,29.548-7.944,40.463,3.197
			c0.565,0.576,1.448-0.309,0.885-0.885c-11.539-11.776-28.617-12.839-41.979-3.393c-13.149,9.296-16.316,26.022-7.37,39.325
			C316.955,469.142,318.039,468.517,317.588,467.846L317.588,467.846z"/>
	</g>
	<g>
		<path fill="#070707" d="M228.672,371.875c14.069,11.009,18.007,29.989,20.409,46.75c1.543,10.769,2.318,21.611,2.48,32.485
			c0.084,5.611-0.06,11.223-0.354,16.825c-0.137,2.595-1.845,8.421-0.671,10.817c0.354,0.724,1.432,0.09,1.08-0.631
			c-0.425-0.865,0.345-3.568,0.437-4.511c0.306-3.126,0.447-6.271,0.586-9.408c0.275-6.236,0.232-12.486,0.05-18.725
			c-0.292-10.002-1.314-19.969-2.793-29.861c-2.408-16.108-6.89-34.104-20.338-44.627
			C228.929,370.5,228.038,371.378,228.672,371.875L228.672,371.875z"/>
	</g>
	<g>
		<path fill="#070707" d="M262.881,478.351c16.193-11.019,27.357-27.287,34.749-45.229c8.545-20.741,14.54-43.843,9.762-66.25
			c-0.168-0.788-1.373-0.454-1.205,0.332c4.507,21.135-0.82,42.847-8.539,62.576c-7.337,18.755-18.545,36.025-35.397,47.491
			C261.588,477.722,262.213,478.805,262.881,478.351L262.881,478.351z"/>
	</g>
	<g>
		<path fill="#070707" d="M125.222,351.777c-3.043-0.965-4.563-1.484-6.78-4.22c-2.874-3.546-1.075-7.379,3.016-8.856
			c2.327-0.84,4.462,0.263,6.555,0.998c5.929,2.084,11.606,6.548,17.896,7.163c7.295,0.714,14.187-8.096,20.811-2.451
			c1.95,1.661,3.204,5.483,4.705,7.633c1.242,1.778,2.767,3.274,4.479,4.591c3.263,2.508,7.268,2.225,10.861,0.725
			c3.805-1.589,5.8-3.234,10.1-2.31c3.286,0.706,6.38,2.376,9.526,3.52c4.916,1.787,9.225,1.147,13.958-0.738
			c6.684-2.662,15.205-0.621,22.291-0.508c6.458,0.104,12.895-0.344,19.251-1.493c7.062-1.276,14.576-6.613,21.661-4.531
			c4.04,1.188,9.197,4.602,13.615,3.304c4.832-1.419,6.97-5.971,10.314-9.353c6.681-6.754,12.713,0.921,19.182,3.118
			c5.305,1.803,9.658-2.815,13.499-5.745c6.735-5.138,13.229-3.588,20.993-3.867c4.517-0.163,7.818-2.405,10.843-5.499
			c2.832-2.896,5.501-6.396,9.82-6.868c6.6-0.722,4.762,7.513,1.976,9.664c-1.47,1.135-3.076,1.982-4.471,3.224
			c-0.603,0.538,0.284,1.419,0.885,0.885c2.931-2.611,7.065-3.833,7.564-8.17c0.371-3.235-1.588-6.233-4.723-6.793
			c-3.069-0.549-5.85,1.343-8.045,3.221c-5.25,4.49-7.704,8.865-15.466,9.145c-5.795,0.209-10.714-1.004-16.194,1.512
			c-7.308,3.355-10.94,11.374-19.903,6.51c-4.121-2.236-7.049-5.17-11.981-4.312c-4.741,0.824-7.718,6.774-10.716,9.915
			c-5.221,5.469-13.575-0.466-19.375-1.739c-5.501-1.209-11.276,3.058-16.423,4.426c-7.241,1.926-14.853,2.235-22.307,2.199
			c-6.381-0.03-13.664-1.769-19.896-0.398c-3.268,0.718-5.957,2.556-9.379,2.833c-3.155,0.256-6.437-1.019-9.31-2.158
			c-3.22-1.278-10.88-5.178-14.37-2.593c-7.196,5.33-12.974,3.678-17.92-3.404c-2.822-4.039-3.678-8.035-8.959-9.236
			c-2.117-0.481-3.919,0.244-5.756,1.158c-5.601,2.784-11.239,4.802-17.097,1.392c-2.738-1.594-5.657-2.851-8.588-4.039
			c-2.619-1.061-6.069-2.95-9.001-2.374c-2.924,0.575-7.687,3.105-6.964,6.913c0.966,5.097,5.051,7.409,9.492,8.816
			C125.66,353.227,125.987,352.02,125.222,351.777L125.222,351.777z"/>
	</g>
	<g>
		<path fill="#070707" d="M124.521,352.077c2.107,1.032,4.297,1.877,6.35,3.022c0.705,0.393,1.335-0.687,0.631-1.08
			c-2.052-1.145-4.243-1.989-6.35-3.022C124.432,350.645,123.798,351.722,124.521,352.077L124.521,352.077z"/>
	</g>
	<g>
		<path fill="#070707" d="M126.49,352.001c-2.285-2.22-5.125-3.769-6.858-6.527c-0.427-0.681-1.509-0.054-1.079,0.631
			c1.798,2.864,4.682,4.477,7.053,6.781C126.185,353.447,127.069,352.563,126.49,352.001L126.49,352.001z"/>
	</g>
	<g>
		<path fill="#070707" d="M378.81,340.057c0.93-1.638,1.269-3.454,1.575-5.291c0.132-0.788-1.073-1.126-1.205-0.332
			c-0.288,1.724-0.576,3.453-1.45,4.992C377.331,340.128,378.411,340.757,378.81,340.057L378.81,340.057z"/>
	</g>
	<g>
		<path fill="#070707" d="M350.165,354.56c-0.021-1.661-0.282-3.336-0.992-4.849c-0.343-0.729-1.42-0.094-1.08,0.631
			c0.613,1.306,0.805,2.789,0.822,4.218C348.925,355.365,350.175,355.366,350.165,354.56L350.165,354.56z"/>
	</g>
	<g>
		<path fill="#070707" d="M354.399,353.046c0.021-0.886,0.304-1.721,0.58-2.555c0.255-0.768-0.952-1.094-1.205-0.332
			c-0.313,0.942-0.602,1.886-0.625,2.887C353.131,353.853,354.381,353.851,354.399,353.046L354.399,353.046z"/>
	</g>
	<g>
		<path fill="#070707" d="M306.833,366.04c-1.392-2.688-3.286-5.086-5.239-7.385c-0.523-0.614-1.403,0.274-0.885,0.885
			c1.888,2.221,3.7,4.534,5.044,7.131C306.124,367.387,307.202,366.755,306.833,366.04L306.833,366.04z"/>
	</g>
	<g>
		<path fill="#070707" d="M309.94,362.727c0.021-1.606,0.312-3.173,0.889-4.674c0.289-0.754-0.92-1.077-1.205-0.332
			c-0.613,1.599-0.911,3.296-0.934,5.006C308.68,363.533,309.93,363.532,309.94,362.727L309.94,362.727z"/>
	</g>
	<g>
		<path fill="#070707" d="M228.409,368.937c-1.173-1.204-1.954-2.6-2.261-4.26c-0.146-0.792-1.351-0.456-1.205,0.332
			c0.344,1.86,1.271,3.465,2.581,4.812C228.088,370.399,228.971,369.515,228.409,368.937L228.409,368.937z"/>
	</g>
	<g>
		<path fill="#070707" d="M232.22,368.471c0.018-0.794,0.329-1.511,0.583-2.252c0.262-0.765-0.946-1.09-1.205-0.332
			c-0.293,0.856-0.607,1.666-0.628,2.584C230.952,369.277,232.202,369.275,232.22,368.471L232.22,368.471z"/>
	</g>
	<g>
		<path fill="#070707" d="M156.911,360.678c-1.911-1.472-1.608-5.167-0.927-7.161c0.261-0.765-0.946-1.091-1.205-0.332
			c-0.9,2.637-0.916,6.711,1.501,8.573C156.918,362.249,157.54,361.163,156.911,360.678L156.911,360.678z"/>
	</g>
	<g>
		<path fill="#070707" d="M160.547,361.218c0.015-0.662,0.225-1.222,0.521-1.805c0.364-0.717-0.714-1.35-1.079-0.631
			c-0.398,0.783-0.672,1.548-0.692,2.436C159.279,362.024,160.529,362.022,160.547,361.218L160.547,361.218z"/>
	</g>
	<g>
		<path fill="#070707" d="M381.02,339.301c0,0.627,0,1.254,0,1.881c0,0.806,1.25,0.806,1.25,0c0-0.487,0-0.976,0-1.463
			c0-0.806-1.25-0.806-1.25,0c0,0.487,0,0.976,0,1.463c0.389-0.105,0.776-0.21,1.165-0.315c-0.15-0.351-0.188-0.731-0.418-1.045
			c-0.286-0.388-1.032-0.44-1.143,0.149c-0.081,0.433-0.165,0.703,0.062,1.108c0.308,0.546,1.165,0.3,1.165-0.315
			c0-0.487,0-0.976,0-1.463c0-0.806-1.25-0.806-1.25,0c0,0.627,0,1.254,0,1.881c0,0.806,1.25,0.806,1.25,0c0-0.487,0-0.976,0-1.463
			c-0.061,0.147-0.122,0.295-0.183,0.442c0.49-0.494,0.808-1.069,0.996-1.738c-0.409-0.056-0.818-0.11-1.228-0.166
			c0,0.905,0,1.811,0,2.716c0,0.718,1.022,0.836,1.228,0.166c0.225-0.733,0.231-1.494,0.231-2.255c-0.417,0-0.833,0-1.25,0
			c0,0.761,0.007,1.521,0.231,2.255c0.207,0.678,1.209,0.545,1.228-0.166c0.02-0.771,0.193-1.526,0.209-2.298
			c0.014-0.702-1.065-0.856-1.228-0.166c-0.179,0.759-0.239,1.538-0.418,2.298c-0.185,0.784,1.021,1.117,1.205,0.332
			c0.179-0.76,0.239-1.538,0.418-2.298c-0.409-0.056-0.818-0.11-1.228-0.166c-0.016,0.771-0.189,1.527-0.209,2.298
			c0.409-0.056,0.818-0.11,1.228-0.166c-0.192-0.63-0.187-1.27-0.187-1.923c0-0.806-1.25-0.806-1.25,0
			c0,0.653,0.006,1.293-0.187,1.923c0.409,0.056,0.818,0.11,1.228,0.166c0-0.905,0-1.811,0-2.716c0-0.71-1.036-0.846-1.228-0.166
			c-0.084,0.297-0.19,0.556-0.355,0.816c-0.115,0.184-0.309,0.31-0.418,0.496c-0.252,0.432-0.085,1.291-0.085,1.778
			c0,0.806,1.25,0.806,1.25,0c0-0.627,0-1.254,0-1.881c0-0.806-1.25-0.806-1.25,0c0,0.487,0,0.976,0,1.463
			c0.389-0.105,0.776-0.21,1.165-0.315c0.07,0.036,0.091-0.013,0.062-0.146c-0.381,0.05-0.762,0.1-1.143,0.149
			c0.212,0.288,0.276,0.713,0.418,1.045c0.256,0.597,1.165,0.263,1.165-0.315c0-0.487,0-0.976,0-1.463c0-0.806-1.25-0.806-1.25,0
			c0,0.487,0,0.976,0,1.463c0,0.806,1.25,0.806,1.25,0c0-0.627,0-1.254,0-1.881C382.27,338.495,381.02,338.495,381.02,339.301
			L381.02,339.301z"/>
	</g>
	<g>
		<path fill="#070707" d="M228.328,370.681c0.029-0.042,0.058-0.084,0.087-0.125c0.147-0.062,0.295-0.122,0.442-0.184
			c-0.021,0-0.041,0-0.062,0c0.147,0.062,0.294,0.122,0.442,0.184c0.029,0.041,0.058,0.083,0.087,0.125
			c-0.17-0.788-1.375-0.454-1.205,0.332c0.171,0.79,1.243,0.79,1.414,0C229.703,370.227,228.498,369.893,228.328,370.681
			L228.328,370.681z"/>
	</g>
	<g>
		<path fill="#070707" d="M160.528,361.966c-0.08-0.173-0.08-0.24,0-0.413c0.338-0.726-0.74-1.361-1.079-0.631
			c-0.283,0.607-0.282,1.067,0,1.675C159.788,363.327,160.865,362.692,160.528,361.966L160.528,361.966z"/>
	</g>
	<g>
		<path fill="#070707" d="M126.311,352.904c0.177,0.042,0.053,0.08,0.042-0.023c-0.084-0.783-1.25-0.823-1.25,0
			c0,0.418,0,0.835,0,1.253c0,0.806,1.25,0.806,1.25,0c0-0.209,0-0.418,0-0.627c-0.417,0-0.833,0-1.25,0
			c0.001,0.62,0.046,1.204,0.294,1.778c0.318,0.738,1.395,0.102,1.079-0.631c-0.15-0.349-0.123-0.776-0.123-1.147
			c-0.001-0.806-1.25-0.806-1.25,0c0,0.209,0,0.418,0,0.627c0,0.806,1.25,0.806,1.25,0c0-0.418,0-0.835,0-1.253
			c-0.417,0-0.833,0-1.25,0c0.056,0.519,0.32,1.098,0.876,1.229C126.763,354.294,127.096,353.089,126.311,352.904L126.311,352.904z"
			/>
	</g>
	<g>
		<path fill="#070707" d="M330.878,463.813c0.005-0.044,0.096-0.21,0.12-0.276c0.066-0.177,0.077-0.374,0.089-0.56
			c0.043-0.698-1.107-0.862-1.228-0.166c-0.038,0.22-0.171,0.404-0.209,0.627c0.409,0.056,0.818,0.11,1.228,0.166
			c0.032-0.312,0.336-0.563,0.395-0.879c-0.409-0.056-0.818-0.11-1.228-0.166c0.047,0.793,0.495,1.003,1.019,1.487
			c0.591,0.546,1.478-0.336,0.885-0.885c-0.181-0.166-0.641-0.379-0.653-0.603c-0.039-0.669-1.093-0.894-1.228-0.166
			c-0.031,0.17-0.167,0.331-0.246,0.485c-0.12,0.234-0.167,0.467-0.193,0.726c-0.072,0.7,1.107,0.857,1.228,0.166
			c0.038-0.22,0.171-0.404,0.209-0.627c-0.409-0.056-0.818-0.11-1.228-0.166c-0.018,0.287-0.176,0.545-0.209,0.836
			C329.537,464.613,330.788,464.604,330.878,463.813L330.878,463.813z"/>
	</g>
	<g>
		<path fill="#070707" d="M329.835,464.856c0.713-0.002,1.371-0.126,1.986-0.503c0.702-0.431,0.091-1.4-0.631-1.08
			c-0.412,0.184-0.807,0.228-1.171,0.516c0.295,0.295,0.59,0.59,0.885,0.885c0.082-0.066,0.27-0.094,0.369-0.134
			c0.181-0.072,0.313-0.164,0.466-0.284c0.631-0.502-0.26-1.38-0.885-0.885c-0.082,0.066-0.27,0.093-0.37,0.134
			c-0.18,0.072-0.313,0.164-0.465,0.284c-0.63,0.503,0.261,1.379,0.885,0.885c0.056-0.045,0.24-0.069,0.309-0.089
			c0.211-0.06,0.408-0.144,0.608-0.231c-0.21-0.36-0.421-0.72-0.631-1.08c-0.435,0.267-0.855,0.332-1.355,0.333
			C329.029,463.608,329.028,464.858,329.835,464.856L329.835,464.856z"/>
	</g>
</g>
</svg>
