<?xml version="1.0" encoding="utf-8"?>
<!-- Generator: Adobe Illustrator 16.0.0, SVG Export Plug-In . SVG Version: 6.00 Build 0)  -->
<!DOCTYPE svg PUBLIC "-//W3C//DTD SVG 1.1//EN" "http://www.w3.org/Graphics/SVG/1.1/DTD/svg11.dtd">
<svg version="1.1" id="Layer_1" xmlns="http://www.w3.org/2000/svg" xmlns:xlink="http://www.w3.org/1999/xlink" x="0px" y="0px"
	 width="500px" height="550px" viewBox="0 0 500 550" enable-background="new 0 0 500 550" xml:space="preserve">
<g>
	<g>
		<path fill="#070707" d="M185.555,155.075c-40.896,18.742-50.07,67.029-49.521,107.709c0.438,32.526,4.81,64.847,2.676,97.407
			c-1.853,28.272-5.539,57.149,7.204,83.593c4.195,8.706,10.022,16.58,16.598,23.624c1.102,1.181,2.866-0.591,1.768-1.768
			c-10.475-11.222-18.228-24.375-22.122-39.271c-3.827-14.638-3.396-30.106-2.478-45.076c0.949-15.458,2.359-30.787,2.192-46.296
			c-0.178-16.443-1.481-32.856-2.417-49.267c-2.51-44.01-1.662-101.639,42.436-126.068c1.603-0.888,3.263-1.667,4.928-2.43
			C188.281,156.562,187.01,154.408,185.555,155.075L185.555,155.075z"/>
	</g>
	<g>
		<path fill="#070707" d="M226.635,146.813c-5.535,0.707-11.067,1.445-16.608,2.106c-1.58,0.188-1.599,2.691,0,2.5
			c5.541-0.662,11.073-1.4,16.608-2.106C228.211,149.112,228.23,146.61,226.635,146.813L226.635,146.813z"/>
	</g>
	<g>
		<path fill="#070707" d="M271.317,144.706c-3.401-0.354-6.81-0.556-10.228-0.637c-1.613-0.038-1.609,2.462,0,2.5
			c3.418,0.081,6.826,0.283,10.228,0.637C272.92,147.373,272.904,144.872,271.317,144.706L271.317,144.706z"/>
	</g>
	<g>
		<path fill="#070707" d="M334.324,182.811c-7.313-13.243-18.951-23.015-32.443-29.591c-1.443-0.704-2.711,1.452-1.262,2.158
			c13.133,6.401,24.423,15.794,31.547,28.694C332.945,185.483,335.104,184.223,334.324,182.811L334.324,182.811z"/>
	</g>
	<g>
		<path fill="#070707" d="M183.524,480.813c17.96,11.049,40.684,11.046,61.019,9.404c10.499-0.847,20.933-2.442,31.311-4.208
			c11.192-1.904,23.677-2.818,33.487-8.973c1.362-0.854,0.108-3.018-1.262-2.158c-9.255,5.806-21.055,6.669-31.615,8.501
			c-10.096,1.752-20.229,3.261-30.435,4.209c-20.277,1.884-43.313,2.096-61.243-8.934
			C183.409,477.808,182.154,479.971,183.524,480.813L183.524,480.813z"/>
	</g>
	<g>
		<path fill="#070707" d="M142.042,210.521c-7.694-0.082-15.319-5.736-18.811-12.339c-4.014-7.591-1.244-16.635,4.035-22.721
			c4.594-5.297,11.506-8.319,18.399-8.877c5.279-0.427,14.088-0.578,16.885,4.784c0.746,1.43,2.904,0.166,2.159-1.262
			c-3.233-6.198-11.617-6.059-17.672-6.059c-9.109,0-17.699,4.621-23.249,11.723c-11.436,14.635-0.394,37.054,18.254,37.251
			C143.654,213.038,143.653,210.538,142.042,210.521L142.042,210.521z"/>
	</g>
	<g>
		<path fill="#070707" d="M319.504,166.278c11.556-5.913,29.271-8.734,37.552,3.668c8.28,12.401,3.018,32.17-12.719,34.936
			c-1.586,0.279-0.912,2.688,0.664,2.411c17.015-2.991,21.888-22.417,15.441-36.406c-7.476-16.222-29.019-13.513-42.2-6.767
			C316.807,164.854,318.072,167.011,319.504,166.278L319.504,166.278z"/>
	</g>
	<g>
		<path fill="#070707" d="M228.985,228.708c0.315-0.042,0.63-0.085,0.945-0.128c-0.056-0.409-0.111-0.818-0.167-1.228
			c-3.751,1.496-6.505,2.844-9.641,5.644c-2.617,2.336-6.228,6.455-5.506,10.337c0.908,4.891,6.194,7.23,10.668,7.843
			c6.864,0.94,13.615-3.208,20.4-3.609c8.371-0.495,21.967,9.148,24.566-4.565c1.771-9.347-11.245-14.882-17.992-17.386
			c-0.757-0.281-1.081,0.927-0.332,1.205c6.679,2.479,16.691,6.659,17.168,14.937c0.419,7.273-6.641,8.283-11.9,6.916
			c-3.389-0.881-6.604-2.155-10.136-2.318c-10.14-0.468-20.888,8.296-29.806-0.234c-4.071-3.894,0.91-9.505,3.753-12.241
			c2.844-2.737,5.588-3.926,9.09-5.322c0.649-0.259,0.565-1.179-0.166-1.228c-0.438-0.029-0.834,0.094-1.277,0.173
			C227.86,227.644,228.197,228.849,228.985,228.708L228.985,228.708z"/>
	</g>
	<g>
		<path fill="#070707" d="M255.268,249.659c1.428,3.613,1.799,7.609,1.67,11.463c-0.082,2.451-0.576,5.142-2.269,7.014
			c-3.093,3.421-11.062,1.264-10.149-4.006c0.137-0.788-1.067-1.125-1.205-0.332c-1.187,6.851,7.84,8.893,12.238,5.222
			c4.733-3.95,2.838-14.84,0.92-19.693C256.18,248.586,254.971,248.908,255.268,249.659L255.268,249.659z"/>
	</g>
	<g>
		<path fill="#070707" d="M163.71,467.692c9.649-4.812,14.729,7.346,21.386,11.955c0.05-0.381,0.1-0.762,0.149-1.143
			c-10.546,1.657-19.06,17.177-30.164,14.13c-3.668-1.007-6.75-4.963-6.76-8.693c-0.01-3.393,2.922-6.428,5.171-8.61
			c3.818-3.706,8.641-6.502,13.363-8.896c0.719-0.365,0.086-1.443-0.631-1.08c-6.807,3.451-25.749,14.279-17.23,24.224
			c11.84,13.822,24.584-7.983,36.583-9.869c0.587-0.092,0.542-0.87,0.149-1.143c-7.272-5.035-12.136-17.195-22.647-11.955
			C162.358,466.973,162.991,468.051,163.71,467.692L163.71,467.692z"/>
	</g>
	<g>
		<path fill="#070707" d="M152.674,490.796c-1.609-5.653,2.593-10.053,7.261-12.504c0.714-0.375,0.082-1.454-0.631-1.08
			c-5.188,2.725-9.596,7.733-7.835,13.916C151.689,491.902,152.895,491.572,152.674,490.796L152.674,490.796z"/>
	</g>
	<g>
		<path fill="#070707" d="M308.053,477.386c3.803-9.244,14.459-16.813,24.031-11.147c5.575,3.301,9.101,10.149,9.644,16.459
			c0.636,7.372-4.754,10.47-11.461,9.018c-8.584-1.859-13.11-12.206-19.982-16.925c-0.666-0.457-1.291,0.627-0.631,1.08
			c8.687,5.964,13.623,18.68,25.902,17.492c6.185-0.599,8.143-7.063,7.233-12.376c-1.19-6.952-5.657-14.414-12.496-17.077
			c-9.878-3.847-19.793,4.264-23.445,13.145C306.541,477.799,307.751,478.121,308.053,477.386L308.053,477.386z"/>
	</g>
	<g>
		<path fill="#070707" d="M330.286,477.662c3.656,3.794,6.553,8.644,6.735,14.025c0.027,0.804,1.277,0.807,1.25,0
			c-0.194-5.718-3.209-10.87-7.101-14.91C330.61,476.196,329.728,477.081,330.286,477.662L330.286,477.662z"/>
	</g>
	<g>
		<path fill="#070707" d="M350.881,314.862c5.216-1.303,11.844,1.278,16.151,4.104c4.578,3.003,9.33,11.922,4.545,16.708
			c-5.161,5.164-16.37-2.686-19.646-6.729c-0.508-0.626-1.387,0.264-0.885,0.885c4.136,5.102,17.63,13.373,22.644,5.158
			c2.966-4.858-0.433-11.792-3.842-15.315c-4.299-4.442-13.225-7.533-19.299-6.016C349.767,313.853,350.099,315.058,350.881,314.862
			L350.881,314.862z"/>
	</g>
	<g>
		<path fill="#070707" d="M363.272,328.731c3.63,1.121,8.123,4.213,5.918,8.518c-0.366,0.716,0.712,1.349,1.08,0.631
			c2.604-5.085-2.166-8.964-6.666-10.354C362.832,327.288,362.505,328.494,363.272,328.731L363.272,328.731z"/>
	</g>
	<path fill="none" stroke="#070707" stroke-width="1.5" stroke-miterlimit="10" d="M315.895,194.697
		c0-18.066-14.642-32.708-32.71-32.708c-18.066,0-32.71,14.642-32.71,32.708c0,18.069,14.644,32.713,32.71,32.713
		C301.253,227.411,315.895,212.766,315.895,194.697z"/>
	<circle fill="none" stroke="#070707" stroke-width="1.5" stroke-miterlimit="10" cx="200.796" cy="198.173" r="32.712"/>
	<circle fill="#070707" cx="338.904" cy="181.752" r="6.921"/>
	<path fill="#070707" d="M152.261,188.526c0-3.825-3.098-6.92-6.92-6.92s-6.921,3.096-6.921,6.92c0,3.817,3.099,6.918,6.921,6.918
		S152.261,192.343,152.261,188.526z"/>
	<path fill="#070707" d="M256.834,224.887c0-4.477-6.554-8.103-14.638-8.103s-14.636,3.626-14.636,8.103
		c0,4.48,6.552,8.106,14.636,8.106S256.834,229.367,256.834,224.887z"/>
	<path fill="#070707" d="M285.021,186.996c5.912,0,10.697-4.785,10.697-10.692c0-5.906-4.785-10.694-10.697-10.694
		c-5.907,0-10.695,4.788-10.695,10.694C274.326,182.211,279.114,186.996,285.021,186.996z M280.718,169.501
		c1.674,0,3.026,1.355,3.026,3.03c0,1.671-1.353,3.027-3.026,3.027c-1.67,0-3.03-1.355-3.03-3.027
		C277.688,170.856,279.048,169.501,280.718,169.501z"/>
	<path fill="#070707" d="M202.03,189.547c5.904,0,10.692-4.788,10.692-10.694s-4.788-10.697-10.692-10.697
		c-5.906,0-10.697,4.791-10.697,10.697S196.124,189.547,202.03,189.547z M197.727,172.049c1.668,0,3.024,1.355,3.024,3.027
		c0,1.671-1.356,3.03-3.024,3.03c-1.675,0-3.03-1.359-3.03-3.03C194.697,173.404,196.052,172.049,197.727,172.049z"/>
	<g>
		<path fill="#070707" d="M242.934,247.36c0.8,6.429,1.681,14.681-1.879,20.433c-1.437,2.32-3.975,2.605-6.404,2.071
			c-2.846-0.626-4.078-3.511-4.732-6.024c-1.119-4.291-0.475-9.356,0.76-13.549c0.229-0.775-0.978-1.104-1.205-0.332
			c-1.816,6.167-2.878,23.941,8.442,21.347c8.961-2.054,7.083-17.401,6.269-23.945C244.085,246.571,242.834,246.561,242.934,247.36
			L242.934,247.36z"/>
	</g>
	<g>
		<path fill="#070707" d="M140.434,317.306c-7.518-1.318-15.232,2.23-20.724,7.237c-3.915,3.57-5.874,8.971-0.469,11.969
			c0.706,0.391,1.336-0.688,0.631-1.08c-6.719-3.727,0.219-9.927,3.898-12.504c4.685-3.282,10.592-5.424,16.332-4.417
			C140.89,318.649,141.227,317.444,140.434,317.306L140.434,317.306z"/>
	</g>
	<g>
		<path fill="#070707" d="M124.903,330.933c-2.088,0.978-5.095,3.028-5.1,5.682c-0.005,2.415,2.247,4.135,4.553,4.388
			c2.881,0.317,5.81-1.434,8.175-2.857c2.469-1.486,5.145-3.332,6.966-5.601c0.5-0.622-0.379-1.513-0.884-0.885
			c-2.466,3.073-6.287,5.4-9.797,7.078c-2.421,1.157-4.787,1.564-7.039-0.277c-2.821-2.307,2.007-5.629,3.756-6.447
			C126.263,331.671,125.628,330.594,124.903,330.933L124.903,330.933z"/>
	</g>
	<g>
		<path fill="#070707" d="M330.469,180.362c12.438,18.209,15.831,40.266,16.833,61.854c1.071,23.089-0.163,46.223,0.814,69.331
			c1.132,26.778,3.364,53.512,3.005,80.335c-0.185,13.735-1.425,27.232-5.165,40.492c-3.237,11.478-10.939,20.159-16.499,30.457
			c-0.766,1.419,1.393,2.681,2.158,1.262c5.039-9.334,11.976-17.405,15.648-27.47c4.49-12.3,5.778-25.896,6.22-38.883
			c0.979-28.752-1.597-57.492-2.867-86.193c-1.047-23.631,0.209-47.279-0.887-70.896c-0.996-21.448-4.775-43.502-17.103-61.55
			C331.724,177.778,329.557,179.027,330.469,180.362L330.469,180.362z"/>
	</g>
	<path fill="#070707" d="M241.678,40.722c30.002,0,54.418,23.803,54.418,53.058c0,13.997-5.599,26.737-14.713,36.229
		c1.758-0.135,3.423,0.028,5.076,0.467c8.544-9.936,13.704-22.735,13.704-36.696c0-31.5-26.236-57.13-58.485-57.13
		c-32.25,0-58.488,25.629-58.488,57.13c0,14.646,5.688,28.006,14.999,38.131c1.233-0.721,2.533-1.303,3.863-1.835
		c-9.158-9.5-14.792-22.261-14.792-36.296C187.259,64.524,211.67,40.722,241.678,40.722z"/>
	<path fill="#070707" d="M268.038,141.12c-0.255-0.174-0.388-0.393-0.477-0.622c-0.01-0.01-0.025-0.023-0.041-0.03
		c-7.692,4.062-16.496,6.375-25.843,6.375c-7.304,0-14.266-1.417-20.636-3.975c-1.029,0.367-2.054,0.736-3.058,1.137
		c-0.604,0.454-1.254,0.825-1.937,1.106c7.741,3.71,16.436,5.802,25.63,5.802c10.625,0,20.589-2.795,29.186-7.657
		C269.939,142.523,269.009,141.797,268.038,141.12z"/>
	<g>
		<path fill="#070707" d="M265.825,143.752c3.797-9.247,14.458-16.811,24.027-11.146c5.575,3.301,9.101,10.149,9.645,16.459
			c0.635,7.373-4.757,10.468-11.464,9.016c-8.583-1.859-13.111-12.205-19.982-16.923c-0.666-0.458-1.291,0.626-0.631,1.079
			c8.687,5.965,13.625,18.678,25.903,17.491c6.185-0.598,8.145-7.062,7.234-12.375c-1.19-6.952-5.657-14.413-12.496-17.077
			c-9.874-3.846-19.795,4.261-23.441,13.144C264.313,144.166,265.523,144.487,265.825,143.752L265.825,143.752z"/>
	</g>
	<g>
		<path fill="#070707" d="M288.055,144.028c3.66,3.793,6.554,8.643,6.736,14.027c0.027,0.804,1.277,0.807,1.25,0
			c-0.194-5.72-3.206-10.872-7.102-14.911C288.379,142.563,287.495,143.448,288.055,144.028L288.055,144.028z"/>
	</g>
	<g>
		<path fill="#070707" d="M198.671,132.157c9.647-4.813,14.727,7.343,21.383,11.951c0.05-0.381,0.1-0.761,0.149-1.142
			c-10.543,1.662-19.057,17.18-30.161,14.131c-3.667-1.007-6.75-4.961-6.761-8.692c-0.01-3.392,2.922-6.426,5.17-8.608
			c3.818-3.706,8.642-6.503,13.364-8.895c0.719-0.364,0.086-1.442-0.631-1.079c-6.806,3.448-25.75,14.277-17.23,24.219
			c11.844,13.822,24.582-7.979,36.581-9.871c0.587-0.092,0.542-0.871,0.149-1.142c-7.271-5.034-12.136-17.194-22.645-11.951
			C197.319,131.438,197.953,132.516,198.671,132.157L198.671,132.157z"/>
	</g>
	<g>
		<path fill="#070707" d="M187.634,155.259c-1.609-5.653,2.594-10.053,7.261-12.504c0.714-0.375,0.082-1.454-0.631-1.079
			c-5.188,2.725-9.595,7.733-7.835,13.916C186.649,156.365,187.855,156.036,187.634,155.259L187.634,155.259z"/>
	</g>
	<circle fill="none" stroke="#070707" stroke-width="1.5" stroke-miterlimit="10" cx="224.974" cy="99.299" r="13.909"/>
	<path fill="none" stroke="#070707" stroke-width="1.5" stroke-miterlimit="10" d="M246.096,97.824c0,7.68,6.223,13.91,13.907,13.91
		c7.682,0,13.908-6.23,13.908-13.91c0-7.683-6.227-13.908-13.908-13.908C252.318,83.916,246.096,90.141,246.096,97.824z"/>
	<path fill="#070707" d="M224.191,102.576c-2.51,0-4.545,2.033-4.545,4.545c0,2.51,2.035,4.546,4.545,4.546
		c2.513,0,4.546-2.036,4.546-4.546C228.737,104.609,226.704,102.576,224.191,102.576z M226.021,110.012
		c-0.707,0-1.284-0.576-1.284-1.284c0-0.714,0.577-1.29,1.284-1.29c0.715,0,1.291,0.576,1.291,1.29
		C227.312,109.436,226.735,110.012,226.021,110.012z"/>
	<path fill="#070707" d="M259.476,101.49c-2.509,0-4.543,2.033-4.543,4.546c0,2.512,2.034,4.545,4.543,4.545
		c2.516,0,4.549-2.033,4.549-4.545C264.024,103.523,261.991,101.49,259.476,101.49z M261.308,108.928
		c-0.708,0-1.286-0.576-1.286-1.287s0.578-1.287,1.286-1.287c0.714,0,1.291,0.576,1.291,1.287S262.021,108.928,261.308,108.928z"/>
	<g>
		<path fill="#070707" d="M230.321,112.715c2.668,8.43,7.235,15.864,13.059,22.48c0.292,0.331,0.757,0.174,0.982-0.126
			c5.224-6.955,9.143-14.693,12.907-22.505c0.348-0.723-0.729-1.357-1.08-0.631c-3.275,6.798-6.683,13.512-10.912,19.775
			c-2.706,4.006-6.601-4.482-8.152-6.951c-2.422-3.85-4.229-8.048-5.599-12.375C231.284,111.618,230.077,111.945,230.321,112.715
			L230.321,112.715z"/>
	</g>
	<g>
		<path fill="#070707" d="M236.642,108.89c3.902-2.747,7.6-4.74,12.114-1.949c0.688,0.425,1.315-0.656,0.631-1.079
			c-4.907-3.034-9.034-1.106-13.376,1.949C235.357,108.271,235.98,109.355,236.642,108.89L236.642,108.89z"/>
	</g>
	<g>
		<path fill="#070707" d="M236.3,107.749c0.131,8.938,1.916,18.599,6.387,26.419c0.4,0.7,1.48,0.07,1.08-0.631
			c-4.352-7.61-6.089-17.1-6.217-25.788C237.538,106.943,236.288,106.942,236.3,107.749L236.3,107.749z"/>
	</g>
	<g>
		<path fill="#070707" d="M240.204,116.451c0.031,0.39,0.152,0.875,0.518,1.089c0.604,0.354,1.003-0.266,1.03-0.791
			c0.041-0.806-1.209-0.802-1.25,0c0.043-0.062,0.086-0.125,0.129-0.188c0.147-0.061,0.294-0.122,0.441-0.183
			c-0.012-0.001-0.023-0.002-0.035-0.003c0.147,0.061,0.295,0.122,0.442,0.183c0.053,0.047-0.02-0.036-0.025-0.107
			C241.391,115.653,240.141,115.646,240.204,116.451L240.204,116.451z"/>
	</g>
	<g>
		<path fill="#070707" d="M245.025,116.775c0.806,0,0.806-1.25,0-1.25S244.22,116.775,245.025,116.775L245.025,116.775z"/>
	</g>
	<g>
		<path fill="#070707" d="M195.087,122.453c4.571-1.769,4.924-10.733,5.334-14.667c1.027-9.841-1.69-19.841-3.999-29.305
			c-0.191-0.783-1.396-0.451-1.205,0.332c1.746,7.157,3.46,14.285,4.018,21.652c0.324,4.272-0.062,8.539-0.866,12.736
			c-0.435,2.27-1.187,7.107-3.614,8.047C194.012,121.535,194.334,122.744,195.087,122.453L195.087,122.453z"/>
	</g>
	<g>
		<path fill="#070707" d="M291.376,118.108c-10.459-9.257-9.453-24.996-8.22-37.661c0.078-0.802-1.173-0.795-1.25,0
			c-1.265,12.984-2.129,29.062,8.585,38.545C291.093,119.524,291.98,118.644,291.376,118.108L291.376,118.108z"/>
	</g>
	<path fill="none" stroke="#070707" stroke-miterlimit="10" d="M241.928,52.637c-4.479,0-8.108,6.554-8.108,14.637
		c0,8.085,3.63,14.636,8.108,14.636c4.474,0,8.107-6.551,8.107-14.636C250.035,59.191,246.401,52.637,241.928,52.637z"/>
	<g>
		<path fill="#070707" d="M290.341,500.581c-3.252-0.276-12.286-5.746-14.918-1.532c-2.344,3.754-7.31,3.656-10.632,6.388
			c-0.401,0.331-0.113,0.892,0.276,1.045c3.846,1.517,7.687,1.837,11.772,2.101c5.15,0.333,9.07,1.897,13.621,4.063
			c5.271,2.509,9.695,0.827,12.917-4.002C309.493,499.479,295.59,501.035,290.341,500.581c-0.804-0.069-0.797,1.181,0,1.25
			c2.791,0.241,14.477-1.174,13.317,3.73c-0.592,2.505-3.364,5.078-5.395,6.42c-2.615,1.729-5.876,0.202-8.291-0.947
			c-3.267-1.555-5.997-2.819-9.627-3.378c-4.475-0.688-8.929-0.471-13.329-1.742c-1.075,0.231-1.118,0.13-0.128-0.304
			c0.57-0.312,1.146-0.617,1.724-0.914c1.366-0.713,2.681-0.623,4.094-0.946c2.646-0.606,3.688-4.677,6.196-4.854
			c3.814-0.271,7.593,2.608,11.438,2.936C291.145,501.899,291.138,500.648,290.341,500.581z"/>
	</g>
	<g>
		<path fill="#070707" d="M325.218,501.188c-2.168,0.791-4.083,1.835-5.535,3.662c-0.241,0.305-0.256,0.77,0.127,0.982
			c4.267,2.367,16.504,5.553,18.334-1.565C339.328,499.66,327.306,500.809,325.218,501.188c-0.792,0.144-0.456,1.349,0.332,1.205
			c2.231-0.405,10.276-1.411,11.36,1.283c0.537,1.334-2.214,2.917-3.065,3.206c-1.465,0.496-3.167,0.365-4.683,0.253
			c-2.905-0.213-6.159-0.96-8.722-2.383c0.042,0.327,0.084,0.655,0.127,0.982c1.335-1.682,2.997-2.617,4.982-3.342
			C326.301,502.12,325.977,500.911,325.218,501.188L325.218,501.188z"/>
	</g>
	<g>
		<path fill="#070707" d="M210.137,149.713c-0.644,0.208-1.301,0.375-1.945,0.583c0.111,0.402,0.221,0.803,0.332,1.205
			c0.524-0.181,1.032-0.402,1.556-0.583c-0.111-0.402-0.221-0.803-0.332-1.205c-0.66,0.231-1.285,0.547-1.945,0.778
			c-0.762,0.267-0.459,1.362,0.332,1.205c1.044-0.207,2.096-0.384,3.066-0.841c0.729-0.343,0.094-1.42-0.631-1.079
			c-0.858,0.404-1.845,0.532-2.768,0.715c0.111,0.402,0.221,0.803,0.332,1.205c0.66-0.231,1.285-0.547,1.945-0.778
			c0.755-0.264,0.432-1.47-0.332-1.205c-0.524,0.181-1.032,0.402-1.556,0.583c-0.755,0.261-0.44,1.455,0.332,1.205
			c0.644-0.208,1.301-0.375,1.945-0.583C211.232,150.671,210.906,149.464,210.137,149.713L210.137,149.713z"/>
	</g>
	<g>
		<path fill="#070707" d="M309.831,475.6c0.021-0.043,0.197-0.334,0.097-0.238c-0.146,0.062-0.294,0.122-0.441,0.184
			c0.01,0,0.02,0,0.029,0c-0.147-0.061-0.295-0.121-0.441-0.183c-0.074-0.111-0.072-0.081,0.004,0.088
			c0.109,0.314,0.427,0.542,0.769,0.437c0.546-0.167,0.65-0.676,0.653-1.186c-0.355,0.147-0.711,0.295-1.067,0.442
			c0.255,0.31,0.304,0.826,0.583,1.167c0-0.295,0-0.59,0-0.885c-0.24,0.212-0.561,0.344-0.845,0.485
			c-0.721,0.362-0.088,1.44,0.631,1.08c0.391-0.196,0.769-0.391,1.099-0.681c0.273-0.241,0.204-0.635,0-0.885
			c-0.255-0.31-0.305-0.826-0.583-1.167c-0.361-0.439-1.064-0.062-1.067,0.442c0.001,0.066-0.001,0.134-0.005,0.2
			c-0.042,0.17,0.047,0.097,0.27-0.22c0.256,0.146,0.513,0.291,0.769,0.437c-0.131-0.378-0.291-0.813-0.768-0.823
			c-0.438-0.008-0.603,0.339-0.765,0.674C308.403,475.691,309.48,476.325,309.831,475.6L309.831,475.6z"/>
	</g>
	<g>
		<path fill="#070707" d="M310.696,470.885c-0.915,1.646-1.375,3.314-0.584,5.104c0.326,0.736,1.402,0.1,1.08-0.631
			c-0.594-1.343-0.084-2.641,0.584-3.843C312.168,470.811,311.088,470.18,310.696,470.885L310.696,470.885z"/>
	</g>
</g>
</svg>
