<?xml version="1.0" encoding="utf-8"?>
<!-- Generator: Adobe Illustrator 16.0.0, SVG Export Plug-In . SVG Version: 6.00 Build 0)  -->
<!DOCTYPE svg PUBLIC "-//W3C//DTD SVG 1.1//EN" "http://www.w3.org/Graphics/SVG/1.1/DTD/svg11.dtd">
<svg version="1.1" id="Layer_1" xmlns="http://www.w3.org/2000/svg" xmlns:xlink="http://www.w3.org/1999/xlink" x="0px" y="0px"
	 width="500px" height="550px" viewBox="0 0 500 550" enable-background="new 0 0 500 550" xml:space="preserve">
<g>
	<g>
		<path fill="#070707" d="M208.449,352.658c0.577,9.944,2.855,19.448,6.735,28.621c3.402,8.045,8.684,18.231,16.076,23.328
			c1.331,0.918,2.58-1.25,1.262-2.158c-6.602-4.553-11.07-13.72-14.438-20.784c-4.315-9.05-6.556-19.036-7.134-29.007
			C210.856,351.056,208.356,351.047,208.449,352.658L208.449,352.658z"/>
	</g>
	<g>
		<path fill="#070707" d="M377.495,162.179c-20.793-37.933-69.961-35.622-106.742-29.275c-10.489,1.81-20.262,4.67-29.202,10.611
			c-8.078,5.367-14.479,12.888-19.419,21.163c-11.031,18.481-13.888,40.821-13.787,61.964c0.092,19.135,2.703,38.151,2.921,57.276
			c0.223,19.439-1.702,38.838-2.446,58.25c-0.062,1.611,2.438,1.605,2.5,0c0.62-16.188,1.961-32.338,2.368-48.533
			c0.413-16.441-1.181-32.746-2.18-49.137c-1.51-24.764-1.02-50.242,9.854-73.071c4.695-9.859,11.582-18.598,20.426-25.04
			c9.166-6.677,19.798-9.376,30.782-11.271c20.854-3.599,42.838-5.421,63.619-0.449c16.656,3.985,30.844,13.625,39.148,28.774
			C376.111,164.855,378.271,163.593,377.495,162.179L377.495,162.179z"/>
	</g>
	<g>
		<path fill="#070707" d="M248.913,416.033c15.239,9.324,34.354,9.408,51.606,8.062c9.127-0.711,18.197-2.104,27.218-3.639
			c9.542-1.623,20.046-2.443,28.434-7.635c1.368-0.846,0.113-3.01-1.262-2.158c-7.832,4.846-17.65,5.613-26.56,7.162
			c-8.736,1.52-17.505,2.826-26.337,3.643c-17.196,1.592-36.626,1.713-51.838-7.594
			C248.796,413.031,247.541,415.193,248.913,416.033L248.913,416.033z"/>
	</g>
	<g>
		<path fill="#070707" d="M269.885,135.686c1.612,0,1.612-2.5,0-2.5S268.272,135.686,269.885,135.686L269.885,135.686z"/>
	</g>
	<g>
		<path fill="#070707" d="M212.937,185.542c-6.049-0.237-12.021-4.835-14.901-9.913c-3.089-5.445-1.85-11.846,1.283-16.887
			c2.982-4.799,8.235-7.941,13.539-9.468c5.289-1.522,13.538-1.306,17.6,2.725c1.145,1.136,2.913-0.631,1.768-1.768
			c-4.312-4.28-11.577-4.821-17.334-3.89c-7.308,1.183-13.454,5.12-17.731,11.138c-8.714,12.263,1.042,29.983,15.776,30.562
			C214.55,188.105,214.543,185.605,212.937,185.542L212.937,185.542z"/>
	</g>
	<g>
		<path fill="#070707" d="M364.818,148.365c9.711-4.934,24.487-7.389,31.588,2.871c7.245,10.468,2.653,27.231-10.602,29.64
			c-1.585,0.288-0.911,2.697,0.664,2.411c14.531-2.641,18.699-18.989,13.351-31.063c-6.267-14.146-24.924-11.78-36.263-6.017
			C362.119,146.938,363.385,149.094,364.818,148.365L364.818,148.365z"/>
	</g>
	<g>
		<path fill="#070707" d="M287.715,201.42c0.023-0.379,0.048-0.758,0.071-1.137c-0.5,0.149-1.006,0.28-1.516,0.392
			c-0.884,0.211-0.481,0.044-1.533,0.683c-2.033,1.236-3.868,2.79-5.565,4.447c-2.372,2.315-4.202,5.292-3.676,8.678
			c0.524,3.373,5.514,5.747,8.466,5.997c6.623,0.562,12.537-3.099,19.113-2.977c7.086,0.131,18.04,7.318,19.859-4.322
			c1.228-7.85-9.721-12.454-15.408-14.572c-0.757-0.282-1.08,0.926-0.332,1.205c5.941,2.213,15.588,6.299,14.362,14.143
			c-1.435,9.177-13.15,2.578-18.481,2.296c-8.69-0.459-17.031,6.768-25.002,0.138c-6.521-5.423,6.441-13.679,10.535-15.07
			c0.447-0.152,0.612-0.69,0.276-1.044c-0.396-0.418-1.023-0.145-1.502-0.063C286.59,200.351,286.927,201.555,287.715,201.42
			L287.715,201.42z"/>
	</g>
	<g>
		<path fill="#070707" d="M309.97,219.186c1.611,4.174,3.111,11.362-0.245,15.082c-2.632,2.917-8.718,2.362-8.824-2.188
			c-0.019-0.805-1.269-0.807-1.25,0c0.117,4.979,5.254,6.128,9.171,4.354c6.043-2.737,4.187-12.832,2.354-17.58
			C310.888,218.109,309.679,218.433,309.97,219.186L309.97,219.186z"/>
	</g>
	<g>
		<path fill="#070707" d="M232.191,404.787c8.136-3.988,12.496,6.246,18.106,10.172c0.05-0.381,0.1-0.762,0.149-1.143
			c-8.974,1.479-15.778,14.039-25.199,12.154c-3.742-0.748-6.621-4.941-5.917-8.59c0.49-2.545,2.677-4.668,4.461-6.363
			c3.187-3.029,7.178-5.318,11.075-7.303c0.719-0.365,0.086-1.443-0.631-1.08c-6.851,3.488-21.479,11.949-14.319,21.201
			c8.868,11.463,21.918-7.34,30.862-8.814c0.587-0.096,0.542-0.867,0.149-1.143c-6.263-4.383-10.332-14.602-19.368-10.172
			C230.837,404.062,231.471,405.139,232.191,404.787L232.191,404.787z"/>
	</g>
	<g>
		<path fill="#070707" d="M222.844,424.338c-1.361-4.768,2.205-8.467,6.136-10.535c0.714-0.375,0.082-1.455-0.631-1.08
			c-4.449,2.342-8.224,6.646-6.71,11.947C221.859,425.443,223.065,425.115,222.844,424.338L222.844,424.338z"/>
	</g>
	<g>
		<path fill="#070707" d="M355.071,412.979c3.49-8.279,12.958-14.482,21.167-8.85c4.329,2.969,6.993,8.566,7.328,13.699
			c0.44,6.76-5.152,8.557-10.793,6.895c-6.596-1.941-10.362-10.246-15.847-14.055c-0.664-0.461-1.288,0.623-0.631,1.08
			c7.404,5.141,11.519,15.693,21.95,14.912c5.33-0.398,7.166-5.922,6.41-10.51c-1.028-6.24-4.845-12.127-10.72-14.75
			c-8.33-3.719-17.01,3.984-20.07,11.246C353.553,413.389,354.764,413.709,355.071,412.979L355.071,412.979z"/>
	</g>
	<g>
		<path fill="#070707" d="M373.833,413.254c3.095,3.211,5.552,7.318,5.707,11.873c0.027,0.805,1.277,0.807,1.25,0
			c-0.166-4.893-2.742-9.301-6.072-12.758C374.157,411.789,373.274,412.674,373.833,413.254L373.833,413.254z"/>
	</g>
	<g>
		<path fill="#070707" d="M391.942,274.785c4.693-0.26,9.264,0.834,13.202,3.434c3.916,2.586,7.004,8.721,4.542,13.234
			c-1.681,3.082-6.446,1.852-9,0.949c-3.188-1.127-6.18-3.211-8.302-5.834c-0.508-0.627-1.387,0.262-0.885,0.883
			c3.532,4.367,15.467,11.6,19.517,4.172c2.212-4.053-0.26-9.627-3.058-12.656c-3.905-4.23-10.479-5.738-16.017-5.432
			C391.141,273.578,391.137,274.828,391.942,274.785L391.942,274.785z"/>
	</g>
	<g>
		<path fill="#070707" d="M401.948,286.539c3.026,0.936,6.827,3.512,4.979,7.113c-0.367,0.717,0.712,1.35,1.08,0.631
			c2.25-4.387-1.835-7.746-5.727-8.949C401.508,285.096,401.181,286.301,401.948,286.539L401.948,286.539z"/>
	</g>
	<path fill="none" stroke="#070707" stroke-width="1.5" stroke-miterlimit="10" d="M361.657,172.388
		c0-15.375-12.467-27.836-27.839-27.836c-15.373,0-27.837,12.462-27.837,27.836c0,15.377,12.464,27.839,27.837,27.839
		C349.19,200.228,361.657,187.765,361.657,172.388z"/>
	<path fill="none" stroke="#070707" stroke-width="1.5" stroke-miterlimit="10" d="M291.546,175.342
		c0-15.37-12.465-27.834-27.837-27.834c-15.377,0-27.839,12.464-27.839,27.834c0,15.377,12.462,27.841,27.839,27.841
		C279.081,203.183,291.546,190.719,291.546,175.342z"/>
	<path fill="#070707" d="M387.124,161.368c0-3.25-2.633-5.887-5.888-5.887c-3.251,0-5.888,2.637-5.888,5.887
		c0,3.255,2.637,5.89,5.888,5.89C384.491,167.258,387.124,164.623,387.124,161.368z"/>
	<path fill="#070707" d="M222.708,166.969c0-3.255-2.64-5.89-5.893-5.89c-3.248,0-5.887,2.635-5.887,5.89
		c0,3.25,2.639,5.888,5.887,5.888C220.068,172.857,222.708,170.22,222.708,166.969z"/>
	<ellipse fill="#070707" cx="298.937" cy="198.081" rx="12.457" ry="6.898"/>
	<path fill="#070707" d="M319.22,164.951c-5.024,0-9.101,4.077-9.101,9.101c0,5.026,4.076,9.101,9.101,9.101
		c5.029,0,9.102-4.075,9.102-9.101C328.321,169.027,324.249,164.951,319.22,164.951z M322.885,179.839
		c-1.425,0-2.578-1.154-2.578-2.576c0-1.423,1.153-2.576,2.578-2.576c1.423,0,2.576,1.153,2.576,2.576
		C325.461,178.686,324.308,179.839,322.885,179.839z"/>
	<path fill="#070707" d="M248.593,167.119c-5.027,0-9.1,4.072-9.1,9.101c0,5.026,4.072,9.101,9.1,9.101
		c5.026,0,9.101-4.075,9.101-9.101C257.693,171.191,253.619,167.119,248.593,167.119z M252.255,182.01
		c-1.423,0-2.576-1.156-2.576-2.578s1.153-2.576,2.576-2.576c1.425,0,2.578,1.154,2.578,2.576S253.68,182.01,252.255,182.01z"/>
	<g>
		<path fill="#070707" d="M299.402,217.551c0.06,5.473,1.533,12.347-1.555,17.249c-1.179,1.872-3.389,1.896-5.308,1.464
			c-2.389-0.537-3.411-2.947-3.962-5.061c-0.947-3.635-0.4-7.928,0.649-11.48c0.229-0.775-0.978-1.104-1.205-0.332
			c-1.851,6.258-2.246,20.174,7.909,18.217c7.222-1.392,4.773-15.236,4.721-20.057C300.644,216.745,299.394,216.744,299.402,217.551
			L299.402,217.551z"/>
	</g>
	<g>
		<path fill="#070707" d="M212.365,276.637c-6.438-1.131-13.023,1.898-17.728,6.186c-3.374,3.072-5.046,7.742-0.382,10.33
			c0.705,0.393,1.336-0.688,0.631-1.078c-5.561-3.088,0.184-8.283,3.32-10.482c3.964-2.779,8.967-4.604,13.826-3.75
			C212.821,277.98,213.158,276.775,212.365,276.637L212.365,276.637z"/>
	</g>
	<g>
		<path fill="#070707" d="M199.072,288.244c-1.81,0.848-4.381,2.621-4.385,4.914c-0.003,2.109,1.957,3.607,3.97,3.828
			c2.468,0.271,4.978-1.227,7.004-2.445c2.107-1.27,4.392-2.846,5.948-4.781c0.499-0.623-0.379-1.514-0.885-0.885
			c-2.096,2.609-5.338,4.584-8.318,6.01c-2.021,0.965-3.998,1.316-5.878-0.221c-2.333-1.908,1.743-4.67,3.175-5.342
			C200.433,288.98,199.798,287.904,199.072,288.244L199.072,288.244z"/>
	</g>
	<g>
		<path fill="#070707" d="M391.243,345.543c0.861,20.144-9.091,37.904-18.109,55.21c-0.744,1.428,1.413,2.691,2.158,1.262
			c9.216-17.685,19.331-35.892,18.451-56.472C393.675,343.938,391.174,343.931,391.243,345.543L391.243,345.543z"/>
	</g>
	<g>
		<path fill="#070707" d="M373.896,160.282c16.372,24.112,14.468,54.16,14.739,81.972c0.161,16.492,0.889,32.979,1.532,49.457
			c0.315,8.08-1.056,15.9-1.771,23.918c-0.634,7.115,2.775,13.211,3.405,20.154c0.145,1.592,2.646,1.605,2.5,0
			c-0.629-6.938-3.875-13.064-3.405-20.154c0.533-8.045,2.085-15.812,1.771-23.918c-0.683-17.531-1.435-35.066-1.559-52.61
			c-0.193-27.285,0.963-56.49-15.055-80.081C375.155,157.695,372.988,158.944,373.896,160.282L373.896,160.282z"/>
	</g>
	<path fill="#070707" d="M391.177,294.141c0.065,0.168,0.141,0.326,0.165,0.537c0.121,1.018,0.18,2.021,0.256,3.027
		c42.262,5.102,67.205,12.15,67.205,18.791c0,12.357-86.19,26.123-209.87,26.123c-123.682,0-209.872-13.766-209.872-26.123
		c0-10.373,60.803-21.74,153.524-25.117c-0.074-0.105-0.171-0.195-0.219-0.318c-0.247-0.664-0.67-1.219-0.861-1.904
		c-0.106-0.377-0.106-0.764-0.054-1.148c-82.917,3.09-155.821,12.855-155.821,28.488c0,19.195,109.899,29.555,213.302,29.555
		c103.404,0,213.301-10.359,213.301-29.555C462.233,306.65,433.309,299.129,391.177,294.141z"/>
	<path fill="#070707" d="M391.812,301.641c0.03,0.93,0.073,1.854,0.08,2.797c0.002,0.285-0.08,0.5-0.152,0.723
		c39.382,5.043,62.489,11.809,62.489,18.199c0,12.354-86.192,26.123-209.87,26.123c-123.682,0-209.874-13.77-209.874-26.123
		c0-11.268,71.705-23.703,178.139-25.807c0.004-1.141-0.011-2.281-0.018-3.422c-2.78,0.056-5.555,0.121-8.325,0.191
		c-1.553,1.191-3.616,2.259-5.309,1.773c-0.214,0.029-0.439,0.078-0.645,0.093c-1.001,0.073-2.369,0.042-2.876-1.026
		c-0.091-0.193-0.14-0.388-0.171-0.583c-86.333,2.726-164.227,12.619-164.227,28.78c0,19.195,109.9,29.553,213.305,29.553
		c103.4,0,213.301-10.357,213.301-29.553C457.66,313.926,431.094,306.625,391.812,301.641z"/>
	<g>
		<path fill="#070707" d="M133.584,313.521c9.385-1.422,18.828-2.016,28.298-2.518c0.802-0.041,0.806-1.291,0-1.25
			c-9.582,0.508-19.137,1.123-28.63,2.562C132.457,312.436,132.796,313.641,133.584,313.521L133.584,313.521z"/>
	</g>
	<g>
		<path fill="#070707" d="M152.223,319.646c3.141-0.039,6.227-0.525,9.317-1.043c0.794-0.131,0.456-1.336-0.332-1.205
			c-2.981,0.498-5.957,0.959-8.985,0.998C151.417,318.406,151.416,319.656,152.223,319.646L152.223,319.646z"/>
	</g>
	<g>
		<path fill="#070707" d="M453.344,337.797c-12.318,8.162-27.663,8.49-41.875,10.082c-0.792,0.088-0.801,1.34,0,1.25
			c14.42-1.615,30.009-1.973,42.506-10.254C454.644,338.432,454.018,337.35,453.344,337.797L453.344,337.797z"/>
	</g>
	<g>
		<path fill="#070707" d="M452.2,347.553c-3.908,3.613-9.435,4.432-14.466,5.43c-0.79,0.156-0.455,1.361,0.332,1.205
			c5.279-1.047,10.926-1.967,15.019-5.752C453.678,347.887,452.791,347.006,452.2,347.553L452.2,347.553z"/>
	</g>
</g>
</svg>
