<?xml version="1.0" encoding="utf-8"?>
<!-- Generator: Adobe Illustrator 16.0.0, SVG Export Plug-In . SVG Version: 6.00 Build 0)  -->
<!DOCTYPE svg PUBLIC "-//W3C//DTD SVG 1.1//EN" "http://www.w3.org/Graphics/SVG/1.1/DTD/svg11.dtd">
<svg version="1.1" id="Layer_1" xmlns="http://www.w3.org/2000/svg" xmlns:xlink="http://www.w3.org/1999/xlink" x="0px" y="0px"
	 width="500px" height="550px" viewBox="0 0 500 550" enable-background="new 0 0 500 550" xml:space="preserve">
<g>
	<g>
		<path fill="#070707" d="M328.38,218.798c-11.549-20.917-34.354-32.121-57.479-34.467c-15.427-1.565-31.462,0.913-46.815,2.438
			c-12.977,1.289-25.586,3.989-36.926,10.656c-39.281,23.093-38.657,76.456-36.642,116.058c0.76,14.931,1.602,29.855,1.71,44.809
			c0.109,14.987-1.363,29.841-2.032,44.793c-1.153,25.769,2.76,53.343,22.814,71.567c1.19,1.081,2.963-0.682,1.768-1.768
			c-23.666-21.508-23.34-54.459-21.23-83.888c2.26-31.52-0.494-62.653-1.342-94.151c-0.588-21.819,1.175-44.566,10.074-64.756
			c4.334-9.836,10.734-18.589,18.986-25.484c11.14-9.309,25.159-13.188,39.307-14.947c20.293-2.523,42.269-5.579,62.389-0.788
			c17.822,4.244,34.302,14.967,43.26,31.191C327.001,221.472,329.16,220.21,328.38,218.798L328.38,218.798z"/>
	</g>
	<g>
		<path fill="#070707" d="M192.239,487.659c36.895,16.104,82.228,10.529,118.539-4.771c1.462-0.616,0.82-3.036-0.664-2.41
			c-35.632,15.013-80.357,20.846-116.613,5.022C192.038,484.862,190.764,487.016,192.239,487.659L192.239,487.659z"/>
	</g>
	<g>
		<path fill="#070707" d="M214.426,190.618c1.612,0,1.612-2.5,0-2.5S212.813,190.618,214.426,190.618L214.426,190.618z"/>
	</g>
	<g>
		<path fill="#070707" d="M155.155,243.655c-6.842-1.753-12.55-3.688-16.438-10.018c-3.581-5.828-2.439-13.055,0.845-18.67
			c3.116-5.329,8.852-8.602,14.668-10.076c5.609-1.423,14.203-1.262,18.471,3.032c1.138,1.145,2.905-0.624,1.768-1.768
			c-4.52-4.547-12.119-4.985-18.171-4.135c-7.374,1.036-13.606,4.633-18.128,10.545c-4.15,5.425-5.482,13.553-2.77,19.882
			c3.65,8.518,10.638,11.454,19.091,13.62C156.053,246.467,156.716,244.055,155.155,243.655L155.155,243.655z"/>
	</g>
	<g>
		<path fill="#070707" d="M314.973,204.058c10.134-5.166,25.757-7.841,33.349,2.735c7.969,11.101,3.227,29.254-11.056,31.849
			c-1.585,0.288-0.911,2.697,0.664,2.411c15.566-2.829,19.93-20.579,13.83-33.348c-6.884-14.41-26.267-11.812-38.049-5.806
			C312.274,202.631,313.54,204.789,314.973,204.058L314.973,204.058z"/>
	</g>
	<g>
		<path fill="#070707" d="M233.308,260.301c0.279-0.038,0.559-0.075,0.838-0.113c-0.056-0.409-0.111-0.818-0.167-1.228
			c-5.036,2.018-15.191,7.478-13.693,14.556c0.823,3.886,5.057,6.554,8.865,6.949c7.083,0.735,13.411-3.279,20.44-3.124
			c7.432,0.164,18.881,7.699,20.986-4.357c1.465-8.389-10.22-13.335-16.282-15.591c-0.757-0.282-1.081,0.927-0.332,1.205
			c5.966,2.22,14.75,5.877,15.43,13.173c0.635,6.817-6.064,7.623-10.851,6.355c-2.992-0.792-5.831-1.879-8.951-2.036
			c-9.186-0.463-17.918,7.079-26.401,0.244c-4.384-3.533,0.386-8.938,3.125-11.542c2.539-2.414,4.91-3.391,7.997-4.627
			c0.649-0.26,0.566-1.178-0.166-1.228c-0.398-0.027-0.774,0.087-1.17,0.158C232.183,259.237,232.52,260.441,233.308,260.301
			L233.308,260.301z"/>
	</g>
	<g>
		<path fill="#070707" d="M256.931,279.15c1.459,3.841,1.991,7.867,1.417,11.946c-0.434,3.089-2.271,4.928-5.176,5.783
			c-3.762,1.109-5.005-2.986-5.97-5.699c-0.268-0.754-1.476-0.43-1.205,0.332c0.996,2.801,0.01,4.896,3.134,6.386
			c2.295,1.095,5.215,0.133,7.245-1.044c5.569-3.229,3.569-13.277,1.761-18.036C257.853,278.072,256.644,278.396,256.931,279.15
			L256.931,279.15z"/>
	</g>
	<circle fill="none" stroke="#070707" stroke-width="1.5" stroke-miterlimit="10" cx="282.165" cy="229.578" r="29.493"/>
	<circle fill="none" stroke="#070707" stroke-width="1.5" stroke-miterlimit="10" cx="207.878" cy="232.709" r="29.496"/>
	<path fill="#070707" d="M338.641,217.901c0-3.444-2.789-6.236-6.236-6.236c-3.445,0-6.24,2.792-6.24,6.236
		c0,3.447,2.795,6.241,6.24,6.241C335.852,224.142,338.641,221.348,338.641,217.901z"/>
	<circle fill="#070707" cx="157.853" cy="223.596" r="6.239"/>
	<path fill="#070707" d="M258.406,256.797c0-4.034-5.91-7.307-13.203-7.307c-7.287,0-13.196,3.272-13.196,7.307
		c0,4.04,5.909,7.311,13.196,7.311C252.496,264.107,258.406,260.836,258.406,256.797z"/>
	<path fill="#070707" d="M282.811,218.421c-5.326,0-9.645,4.317-9.645,9.643c0,5.323,4.318,9.641,9.645,9.641
		s9.641-4.318,9.641-9.641C292.451,222.738,288.137,218.421,282.811,218.421z M286.693,234.194c-1.508,0-2.729-1.22-2.729-2.728
		c0-1.507,1.221-2.729,2.729-2.729c1.502,0,2.729,1.223,2.729,2.729C289.422,232.974,288.195,234.194,286.693,234.194z"/>
	<path fill="#070707" d="M207.978,220.718c-5.325,0-9.644,4.315-9.644,9.641s4.319,9.643,9.644,9.643
		c5.326,0,9.641-4.317,9.641-9.643S213.304,220.718,207.978,220.718z M211.857,236.494c-1.502,0-2.724-1.223-2.724-2.729
		c0-1.507,1.222-2.729,2.724-2.729c1.507,0,2.733,1.222,2.733,2.729C214.59,235.271,213.364,236.494,211.857,236.494z"/>
	<g>
		<path fill="#070707" d="M245.997,276.732c-0.987,6.058,1.292,12.822-1.548,18.553c-1.019,2.055-3.08,2.497-5.18,2.201
			c-3.015-0.424-4.377-2.901-5.076-5.583c-1.006-3.858-0.425-8.414,0.687-12.185c0.229-0.775-0.978-1.104-1.205-0.332
			c-1.99,6.746-2.361,21.231,8.421,19.296c7.838-1.406,4.279-16.532,5.107-21.618C247.33,276.276,246.126,275.938,245.997,276.732
			L245.997,276.732z"/>
	</g>
	<g>
		<path fill="#070707" d="M153.47,340.065c-6.802-1.19-13.782,2.01-18.75,6.546c-3.556,3.246-5.32,8.164-0.411,10.888
			c0.706,0.391,1.336-0.688,0.631-1.08c-5.994-3.324,0.233-8.87,3.515-11.17c4.211-2.95,9.522-4.881,14.683-3.979
			C153.926,341.408,154.263,340.204,153.47,340.065L153.47,340.065z"/>
	</g>
	<g>
		<path fill="#070707" d="M139.414,352.36c-1.904,0.892-4.623,2.76-4.628,5.176c-0.004,2.213,2.056,3.786,4.168,4.018
			c2.608,0.287,5.261-1.296,7.403-2.585c2.23-1.343,4.648-3.011,6.293-5.06c0.5-0.623-0.379-1.513-0.884-0.885
			c-2.221,2.768-5.661,4.862-8.821,6.372c-2.157,1.031-4.266,1.4-6.273-0.24c-2.5-2.044,1.833-4.995,3.373-5.716
			C140.774,353.099,140.139,352.021,139.414,352.36L139.414,352.36z"/>
	</g>
	<g>
		<path fill="#070707" d="M341.293,350.289c0.13,20.475,3.126,40.824,2.606,61.315c-0.269,10.588-1.832,21.06-4.956,31.183
			c-2.929,9.489-9.524,17.951-14.157,26.646c-0.758,1.422,1.4,2.685,2.158,1.262c4.517-8.477,9.901-16.451,13.649-25.326
			c3.922-9.284,5.034-20.056,5.646-30.032c1.332-21.7-2.309-43.36-2.446-65.048C343.783,348.678,341.283,348.677,341.293,350.289
			L341.293,350.289z"/>
	</g>
	<g>
		<path fill="#070707" d="M324.69,216.713c23.944,35.501,12.04,80.223,16.147,120.104c0.163,1.587,2.665,1.604,2.5,0
			c-4.157-40.365,7.756-85.42-16.489-121.365C325.953,214.123,323.786,215.372,324.69,216.713L324.69,216.713z"/>
	</g>
	<g>
		<path fill="#070707" d="M340.763,349.841c-2.496,4.993-7.251,7.839-12.41,9.533c-2.543,0.835-5.248,0.955-7.9,0.919
			c-2.116-0.029-11.309-2.881-6.786-6.168c3.446-2.506,9.957-1.238,12.348-4.752c3.841-5.645,5.405-12.882,4.449-19.593
			c-1.192-8.379-8.084-12.578-15.584-14.729c-7.75-2.224-17.438-1.551-24.675,2.045c-6.757,3.358-9.567,11.273-10.055,18.297
			c-0.363,5.231,0.188,11.674,4.773,14.981c3.017,2.176,8.424,1.142,11.835,1.396c6.291,0.469,12.479,1.319,18.803,0.958
			c0.801-0.046,0.806-1.296,0-1.25c-5.043,0.288-10.014-0.129-15.031-0.613c-4.778-0.462-12.664,0.808-16.304-2.686
			c-5.84-5.606-2.708-19.021,0.881-24.729c5.76-9.163,20.128-9.398,29.44-7.194c11.795,2.792,16.758,12.087,14.236,23.51
			c-0.468,2.115-2.169,8.979-4.521,9.798c-2.107,0.733-4.407,1.023-6.562,1.604c-1.872,0.505-7.719,2.192-6.454,5.35
			c2.036,5.084,8.999,5.49,13.61,4.847c6.826-0.951,13.809-4.535,16.987-10.893C342.202,349.753,341.124,349.12,340.763,349.841
			L340.763,349.841z"/>
	</g>
	<g>
		<path fill="#070707" d="M281.878,333.409c1.624-2.04,5.993-3.083,6.815,0.021c0.236,0.892,0.377,1.812,0.604,2.707
			c0.441,1.735,1.083,3.108,2.209,4.476c1.89,2.293,5.378,1.052,7.252-0.44c1.579-1.257,6.663-12.923,8.284-6.95
			c0.56,2.065,0.463,5.117,2.093,6.74c1.301,1.296,3.933,1.665,5.301,0.175c1.039-1.132,1.604-2.364,2.141-3.794
			c0.496-1.324,0.939-2.731,1.544-4.003c1.078-2.271,2.662,3.141,2.752,3.492c0.258,1.002,1.023,4.835,2.944,4.259
			c4.156-1.246,2.089-6.482,5.182-7.951c0.728-0.346,0.093-1.424-0.631-1.08c-0.739,0.352-1.376,0.604-1.665,1.472
			c-0.601,1.8-2.704,9.448-4.389,3.872c-0.637-2.108-0.999-5.651-3.667-6.007c-2.122-0.282-3.498,6.264-4.014,7.408
			c-2.801,6.206-5.06,0.687-5.495-0.737c-0.211-0.689-0.33-1.415-0.469-2.122c-0.218-1.106-0.352-2.322-0.838-3.354
			c-2.603-5.521-7.706,4.271-8.69,6.037c-2.015,3.615-7.566,1.892-8.639-1.823c-0.256-0.888-0.414-1.804-0.604-2.707
			c-0.28-1.331-0.76-2.349-1.731-3.277c-2.458-2.35-5.778,0.953-7.174,2.704C280.497,333.148,281.375,334.039,281.878,333.409
			L281.878,333.409z"/>
	</g>
	<g>
		<path fill="#070707" d="M302.976,313.903c-7.217-4.746-2.606-13.849,5.271-13.479c3.185,0.148,5.15,2.953,5.387,5.893
			c0.269,3.337-1.892,6.144-4.735,7.587c-0.719,0.365-0.086,1.443,0.631,1.08c3.521-1.788,5.634-5.196,5.313-9.178
			c-0.261-3.241-2.729-6.151-6.017-6.561c-3.961-0.492-8.707,1.416-10.218,5.361c-1.557,4.067,0.216,8.061,3.737,10.377
			C303.021,315.428,303.646,314.345,302.976,313.903L302.976,313.903z"/>
	</g>
	<g>
		<path fill="#070707" d="M307.105,299.693c-0.103-4.958,0.718-9.731,3.213-14.069c0.854-1.485,3.666-5.651,5.472-3.784
			c0.242,0.259,0.484,0.518,0.727,0.776c0.974,0.747,1.399,1.703,1.278,2.869c-0.633-0.347-1.23-0.529-1.908-0.751
			c-6.297-2.061-8.994,10.871-8.938,14.684c0.012,0.806,1.262,0.807,1.25,0c-0.056-3.721,1.256-6.961,2.867-10.254
			c1.643-3.356,3.885-3.81,7.118-2.042c0.343,0.187,0.823,0.03,0.918-0.374c0.73-3.116-1.795-5.042-3.711-7.161
			c-0.179-0.196-0.535-0.247-0.758-0.098c-6.74,4.55-8.939,12.41-8.778,20.204C305.872,300.498,307.122,300.5,307.105,299.693
			L307.105,299.693z"/>
	</g>
	<g>
		<path fill="#070707" d="M341.458,351.353c3.326-3.553,8.149-8.715,2.89-13.046c-3.571-2.94-10.511-3.041-14.151-0.237
			c-0.629,0.484-0.008,1.571,0.631,1.08c2.972-2.289,7.329-2.109,10.718-0.963c2.83,0.958,4.459,3.476,3.654,6.464
			c-0.622,2.31-3.051,4.136-4.626,5.817C340.023,351.056,340.905,351.941,341.458,351.353L341.458,351.353z"/>
	</g>
	<g>
		<path fill="#070707" d="M342.928,350.398c0.001-0.123-0.014-0.228,0.071-0.329c0.418-0.504,0.018-1.139-0.608-1.045
			c-0.274,0.041-0.496,0.217-0.768,0.258c-0.594,0.089-0.533,0.869-0.149,1.143c0.262,0.187,0.602,0.168,0.867-0.002
			c0.123-0.078,0.215-0.181,0.305-0.293c0.038-0.05,0.077-0.1,0.118-0.148c0.09-0.088,0.076-0.09-0.041-0.006
			c-0.256-0.256-0.513-0.513-0.769-0.769c-0.018,0.082-0.474,0.371-0.607,0.493c-0.563,0.518,0.152,1.249,0.758,0.982
			c-0.195-0.118-0.239-0.12-0.13-0.008c0.043,0.059,0.09,0.113,0.14,0.166c0.211,0.233,0.678,0.255,0.885,0
			c0.159-0.198,0.257-0.387,0.339-0.629c0.06-0.174,0.061-0.514,0.175-0.654c-0.356-0.147-0.712-0.295-1.067-0.442
			c0,0.208,0.068,0.665-0.075,0.841c-0.497,0.613,0.333,1.49,0.885,0.885c0.461-0.507,0.59-1.064,0.867-1.666
			c-0.389-0.105-0.776-0.21-1.165-0.315c-0.027,0.521-0.23,1.014-0.258,1.539c0.417,0,0.833,0,1.25,0c0-0.428,0-0.855,0-1.283
			c0-0.718-1.022-0.836-1.228-0.166c-0.188,0.611-0.187,1.318-0.449,1.901c-0.327,0.729,0.749,1.365,1.08,0.631
			c0.315-0.701,0.351-1.47,0.574-2.2c-0.409-0.056-0.818-0.11-1.228-0.166c0,0.428,0,0.855,0,1.283c0,0.811,1.209,0.8,1.25,0
			c0.027-0.521,0.23-1.014,0.258-1.539c0.031-0.601-0.903-0.884-1.165-0.315c-0.219,0.476-0.312,1.017-0.672,1.412
			c0.295,0.295,0.59,0.59,0.885,0.885c0.413-0.509,0.439-1.092,0.44-1.726c0.001-0.505-0.71-0.883-1.067-0.442
			c-0.16,0.198-0.258,0.388-0.34,0.63c-0.06,0.173-0.061,0.515-0.174,0.653c0.295,0,0.59,0,0.885,0
			c-0.475-0.525-0.847-0.652-1.525-0.354c0.253,0.327,0.505,0.655,0.758,0.982c0.346-0.317,0.822-0.547,0.928-1.046
			c0.101-0.478-0.288-0.874-0.769-0.769c-0.183,0.04-0.315,0.14-0.452,0.262c-0.067,0.061-0.122,0.143-0.177,0.214
			c-0.258,0.33,0.004-0.143,0.343,0.099c-0.05,0.381-0.1,0.762-0.149,1.143c0.274-0.041,0.496-0.217,0.768-0.258
			c-0.202-0.348-0.405-0.696-0.608-1.045c-0.31,0.374-0.432,0.729-0.437,1.214C341.67,351.205,342.92,351.204,342.928,350.398
			L342.928,350.398z"/>
	</g>
	<g>
		<path fill="#070707" d="M304.789,302.64c-1.044-0.188-2.089-0.024-2.863,0.749c-0.653,0.651-0.889,1.724-0.76,2.617
			c0.183,1.274,1.425,1.602,2.519,1.329c1.031-0.257,2.158-0.981,2.661-1.939c0.671-1.278-0.375-2.208-1.557-2.5
			c-0.782-0.194-1.114,1.012-0.332,1.205c0.212,0.053,0.416,0.11,0.609,0.214c0.124,0.066,0.202,0.149,0.227,0.188
			c0.037,0.059,0.03-0.02,0.016,0.167c0.012-0.158-0.025,0.054-0.038,0.09c0.042-0.125-0.046,0.083-0.061,0.109
			c-0.285,0.501-0.999,0.967-1.585,1.179c-0.176,0.062-0.356,0.107-0.539,0.14c0.065-0.012-0.398-0.007-0.286,0.009
			c-0.217-0.031-0.156-0.017-0.305-0.117c0.031,0.021-0.046-0.074-0.066-0.133c-0.146-0.423-0.005-1.05,0.229-1.47
			c0.351-0.627,1.154-0.746,1.799-0.631C305.245,303.986,305.582,302.781,304.789,302.64L304.789,302.64z"/>
	</g>
	<path fill="none" stroke="#070707" stroke-width="2" stroke-miterlimit="10" d="M205.75,189.063
		c6.513-14.287,13.027-28.574,19.54-42.861c6.126-13.438,12.253-26.877,18.379-40.315c7.585,12.823,15.17,25.646,22.756,38.469
		c9.256,15.647,18.512,31.294,27.768,46.942c0.032,0.055,0.064,0.11,0.098,0.165"/>
	<g>
		<path fill="#070707" d="M173.775,475.458c8.658-4.27,13.253,6.615,19.223,10.775c0.05-0.381,0.1-0.762,0.149-1.143
			c-9.501,1.536-16.93,15.144-26.917,12.821c-3.406-0.792-6.264-4.458-6.299-7.857c-0.032-3.121,2.75-5.899,4.827-7.889
			c3.402-3.259,7.675-5.721,11.855-7.843c0.719-0.365,0.086-1.443-0.631-1.08c-7.249,3.681-22.91,12.769-15.066,22.517
			c9.538,11.854,23.005-7.918,32.564-9.464c0.587-0.095,0.542-0.869,0.149-1.143c-6.606-4.604-10.949-15.477-20.485-10.775
			C172.421,474.734,173.055,475.812,173.775,475.458L173.775,475.458z"/>
	</g>
	<g>
		<path fill="#070707" d="M163.852,496.217c-1.442-5.068,2.337-9.007,6.519-11.204c0.714-0.375,0.082-1.454-0.631-1.08
			c-4.701,2.471-8.688,7.016-7.093,12.616C162.867,497.323,164.073,496.993,163.852,496.217L163.852,496.217z"/>
	</g>
	<g>
		<path fill="#070707" d="M310.7,481.606c3.791-6.332,10.36-11.244,18.043-9.203c7.869,2.09,13.709,13.979,10.185,21.309
			c-3.71,7.716-13.83,0.891-17.461-2.854c-3.207-3.308-5.903-6.961-9.728-9.616c-0.664-0.461-1.288,0.624-0.631,1.08
			c6.43,4.462,9.974,12.163,17.488,15.136c6.554,2.592,12.159-1.332,12.668-8.011c0.586-7.678-5.338-15.517-12.189-18.249
			c-7.768-3.098-15.764,3.613-19.455,9.778C309.205,481.669,310.286,482.297,310.7,481.606L310.7,481.606z"/>
	</g>
	<g>
		<path fill="#070707" d="M329.702,483.923c3.288,3.408,5.894,7.767,6.058,12.604c0.027,0.804,1.277,0.807,1.25,0
			c-0.176-5.174-2.899-9.835-6.423-13.489C330.026,482.457,329.144,483.343,329.702,483.923L329.702,483.923z"/>
	</g>
	<g>
		<path fill="#070707" d="M244.793,105.706c-0.996-6.248-6.731-8.198-12.083-9.955c-4.882-1.603-11.439-4.124-8.757-10.419
			c1.568-3.68,4.79-6.963,7.494-9.841c3.706-3.944,10.823-8.729,9.524-15.137c-0.597-2.942-1.908-5.353-3.838-7.624
			c-3.596-4.23-8.222-8.094-1.446-12.518c0.672-0.438,0.046-1.521-0.631-1.079c-5.53,3.609-5.159,7.372-1.039,12.04
			c3.732,4.228,7.636,8.718,4.598,14.663c-2.338,4.573-7.533,8.028-10.827,11.934c-3.215,3.812-8.119,9.257-4.505,14.261
			c5.104,7.065,18.652,3.639,20.306,14.007C243.714,106.833,244.919,106.494,244.793,105.706L244.793,105.706z"/>
	</g>
	<g>
		<path fill="#070707" d="M246.07,107.511c2.055-4.015,2.709-8.528,0-12.58c-1.746-2.612-4.822-4.209-3.69-8.146
			c0.886-3.082,3.209-5.864,4.884-8.553c0.428-0.687-0.654-1.313-1.079-0.631c-1.939,3.115-6.567,8.345-5.444,12.433
			c0.477,1.738,1.068,2.696,2.513,3.76c4.215,3.103,3.771,9.113,1.738,13.087C244.625,107.596,245.703,108.229,246.07,107.511
			L246.07,107.511z"/>
	</g>
	<polygon fill="none" stroke="#070707" stroke-miterlimit="10" points="239.221,148.469 243.669,157.48 253.641,158.932 
		246.44,165.963 248.13,175.879 239.221,171.194 230.315,175.879 232.007,165.963 224.811,158.932 234.778,157.48 	"/>
	<polygon fill="none" stroke="#070707" stroke-miterlimit="10" points="247.106,130.07 248.199,135.185 253.043,137.188 
		248.516,139.816 248.103,145.037 244.207,141.535 239.115,142.762 241.234,137.974 238.5,133.512 243.714,134.05 	"/>
	<polygon fill="none" stroke="#070707" stroke-miterlimit="10" points="273.506,161.263 271.639,168.129 276.248,173.572 
		269.135,173.926 265.385,179.98 262.854,173.317 255.934,171.628 261.48,167.162 260.951,160.058 266.926,163.962 	"/>
	<g>
		<path fill="#070707" d="M205.528,188.088c-0.117,0.352-0.237,0.702-0.365,1.05c-0.066,0.181-0.137,0.36-0.217,0.535
			c-0.028,0.06-0.058,0.119-0.089,0.177c-0.082,0.155-0.009,0.007,0.145-0.03c-0.783,0.191-0.451,1.397,0.332,1.205
			c0.428-0.104,0.626-0.563,0.785-0.929c0.237-0.546,0.427-1.111,0.615-1.676C206.989,187.653,205.782,187.327,205.528,188.088
			L205.528,188.088z"/>
	</g>
	<g>
		<path fill="#070707" d="M205.109,188.661c-0.241,0.481-0.492,0.927-0.866,1.319c0.355,0.147,0.711,0.294,1.067,0.442
			c0-0.08,0-0.161,0-0.241c-0.061,0.147-0.122,0.294-0.183,0.442c0.354-0.393,0.585-0.862,0.82-1.331
			c-0.388-0.105-0.776-0.21-1.165-0.315c0.007-0.1-0.055,0.161-0.075,0.208c-0.07,0.158-0.156,0.309-0.241,0.458
			c-0.082,0.142-0.171,0.279-0.263,0.414c-0.104,0.153-0.207,0.12,0.09,0.031c0.16,0.021,0.321,0.042,0.481,0.063
			c-0.004-0.002-0.007-0.005-0.011-0.007c0.096,0.125,0.191,0.249,0.287,0.374c-0.001-0.007-0.002-0.014-0.004-0.02
			c-0.153-0.791-1.357-0.455-1.205,0.332c0.068,0.355,0.47,0.557,0.802,0.458c0.293-0.087,0.472-0.365,0.639-0.6
			c0.349-0.49,0.709-1.098,0.75-1.71c0.042-0.614-0.89-0.864-1.165-0.315c-0.284,0.567-0.808,1.121-0.808,1.761
			c0,0.536,0.687,0.84,1.067,0.442c0.448-0.468,0.772-0.995,1.061-1.572C206.548,188.574,205.47,187.94,205.109,188.661
			L205.109,188.661z"/>
	</g>
	<g>
		<path fill="#070707" d="M205.288,190.106c0.073,0.46,0.458,0.845,0.918,0.918c0.788,0.125,1.126-1.079,0.332-1.205
			c-0.059,0.028-0.074,0.013-0.045-0.045C206.367,188.979,205.163,189.318,205.288,190.106L205.288,190.106z"/>
	</g>
	<g>
		<path fill="#070707" d="M206.911,189.866c-0.04,0.161-0.08,0.322-0.12,0.483c-0.147,0.061-0.294,0.122-0.442,0.183
			c-0.149-0.057-0.163-0.055-0.042,0.006c0.041,0.021,0.076,0.049,0.105,0.085c0.592,0.544,1.478-0.337,0.884-0.884
			c-0.291-0.268-0.693-0.55-1.112-0.435c-0.579,0.159-0.537,0.756-0.351,1.192c0.133,0.314,0.589,0.38,0.855,0.224
			C207.008,190.533,207.044,190.179,206.911,189.866L206.911,189.866z"/>
	</g>
</g>
</svg>
