<?xml version="1.0" encoding="utf-8"?>
<!-- Generator: Adobe Illustrator 16.0.0, SVG Export Plug-In . SVG Version: 6.00 Build 0)  -->
<!DOCTYPE svg PUBLIC "-//W3C//DTD SVG 1.1//EN" "http://www.w3.org/Graphics/SVG/1.1/DTD/svg11.dtd">
<svg version="1.1" id="Layer_1" xmlns="http://www.w3.org/2000/svg" xmlns:xlink="http://www.w3.org/1999/xlink" x="0px" y="0px"
	 width="500px" height="550px" viewBox="0 0 500 550" enable-background="new 0 0 500 550" xml:space="preserve">
<g>
	<g>
		<path fill="#070707" d="M368.606,112.354c-10.797-19.772-29.491-33.137-50.362-40.747c-10.644-3.881-21.908-5.994-33.195-6.721
			c-13.895-0.896-27.947,1.218-41.733,2.695c-14.633,1.567-29.722,1.966-44.006,5.706c-12.594,3.297-24.168,9.543-34.257,17.699
			c-16.506,13.344-27.333,32.017-33.404,52.144c-12.645,41.924-6.045,87.212-3.391,130.061c2.027,32.725-1.528,64.986-3.048,97.615
			c-1.239,26.601,3.425,52.14,17.973,74.789c4.038,6.285,8.821,12.061,13.919,17.506c1.104,1.18,2.868-0.593,1.768-1.768
			c-19.117-20.422-29.976-45.73-31.29-73.702c-0.749-15.943,1.138-31.966,2.31-47.845c1.215-16.455,1.772-32.988,1.536-49.487
			c-0.657-45.932-9.91-92.188,0.337-137.738c4.605-20.47,13.939-39.585,28.984-54.39c9.279-9.132,20.453-15.994,32.668-20.43
			c14.139-5.135,29.356-5.466,44.165-7.044c13.466-1.435,27.054-3.402,40.612-3.506c11.52-0.089,23.004,1.787,34.029,5.06
			c22.351,6.634,42.906,20.638,54.226,41.366C367.221,115.03,369.38,113.769,368.606,112.354L368.606,112.354z"/>
	</g>
	<g>
		<path fill="#070707" d="M182.97,479.593c21.883,13.539,49.742,13.578,74.553,11.61c12.869-1.021,25.658-2.946,38.38-5.101
			c13.969-2.366,29.774-3.434,41.988-11.165c1.358-0.859,0.104-3.023-1.262-2.158c-11.66,7.38-26.772,8.396-40.109,10.693
			c-12.441,2.144-24.935,3.981-37.513,5.104c-24.756,2.212-52.922,2.379-74.776-11.143
			C182.857,476.584,181.603,478.747,182.97,479.593L182.97,479.593z"/>
	</g>
	<g>
		<path fill="#070707" d="M213.088,73.104c1.612,0,1.612-2.5,0-2.5S211.476,73.104,213.088,73.104L213.088,73.104z"/>
	</g>
	<g>
		<path fill="#070707" d="M130.888,145.882c-9.72,0.137-17.898-5.983-22.45-14.271c-4.335-7.893-2.701-17.584,1.831-24.94
			c4.344-7.052,11.935-11.706,19.77-13.846c4.351-1.188,8.902-1.049,13.363-0.867c3.126,0.128,6.172,0.758,9.042,2.002
			c2.118,0.918,3.511,2.945,5.429,4.186c1.358,0.878,2.61-1.287,1.262-2.158c-4.308-2.786-6.586-5.429-12.028-6.141
			c-5.91-0.773-11.911-0.778-17.731,0.567c-9.112,2.107-17.099,8.234-21.96,16.125c-10.858,17.626,2.602,42.138,23.474,41.843
			C132.499,148.359,132.501,145.859,130.888,145.882L130.888,145.882z"/>
	</g>
	<g>
		<path fill="#070707" d="M350.432,91.555c14.332-7.389,36.507-10.825,46.727,4.631c10.177,15.391,3.848,40.22-15.872,43.533
			c-1.588,0.267-0.912,2.676,0.664,2.411c21.462-3.606,27.217-29.093,18.031-46.095c-9.864-18.258-35.306-14.632-50.812-6.638
			C347.736,90.136,349.001,92.293,350.432,91.555L350.432,91.555z"/>
	</g>
	<g>
		<path fill="#070707" d="M238.866,168.688c0.398-0.064,0.796-0.129,1.194-0.193c-0.147-0.356-0.294-0.711-0.442-1.067
			c-0.818,0.869-3.284,0.727-4.443,1.423c-2.676,1.606-5.136,3.575-7.428,5.683c-3.617,3.325-7.077,7.889-6.309,13.049
			c0.742,4.987,7.772,8.31,12.153,8.74c9.083,0.891,17.262-4.043,26.227-4.38c10.057-0.378,26.191,11.008,29.781-5.012
			c2.619-11.689-13.6-18.668-22.018-21.774c-0.758-0.28-1.082,0.929-0.332,1.205c8.792,3.245,23.518,9.647,20.893,21.36
			c-1.786,7.972-9.63,7.262-15.659,5.54c-4.751-1.357-9.073-2.704-14.067-2.516c-5.516,0.208-10.921,2.51-16.248,3.755
			c-6.651,1.555-19.465,0.292-19.652-8.864c-0.117-5.702,6.442-10.84,10.533-13.863c1.391-1.028,2.836-2.139,4.546-2.499
			c0.811-0.17,2.299-0.316,2.907-0.962c0.343-0.364,0.132-1.122-0.442-1.067c-0.54,0.051-0.964,0.134-1.526,0.238
			C237.742,167.629,238.078,168.833,238.866,168.688L238.866,168.688z"/>
	</g>
	<g>
		<path fill="#070707" d="M271.473,194.639c1.767,4.466,2.227,9.411,2.066,14.176c-0.103,3.066-0.727,6.415-2.843,8.753
			c-3.925,4.337-13.915,1.566-12.769-5.081c0.136-0.788-1.068-1.125-1.205-0.332c-1.434,8.305,9.544,10.727,14.857,6.297
			c5.799-4.835,3.446-18.21,1.098-24.146C272.385,193.566,271.176,193.889,271.473,194.639L271.473,194.639z"/>
	</g>
	<g>
		<path fill="#070707" d="M158.302,463.533c11.961-6.113,18.27,9.111,26.533,14.744c0.05-0.381,0.1-0.762,0.149-1.143
			c-6.554,0.974-11.933,5.368-17.061,9.252c-5.98,4.529-13.781,11.259-21.696,7.547c-10.074-4.725-7.205-14.39-0.918-20.614
			c4.792-4.745,10.887-8.313,16.871-11.341c0.719-0.364,0.086-1.442-0.631-1.08c-9.517,4.816-31.108,17.225-20.748,30.233
			c13.142,16.503,31.2-10.813,44.514-12.792c0.586-0.087,0.542-0.874,0.149-1.143c-8.875-6.049-14.962-21.302-27.795-14.744
			C156.954,462.82,157.586,463.898,158.302,463.533L158.302,463.533z"/>
	</g>
	<g>
		<path fill="#070707" d="M144.626,492.195c-2.008-7.041,3.208-12.535,9.024-15.595c0.713-0.376,0.082-1.455-0.631-1.08
			c-6.339,3.336-11.756,9.441-9.598,17.007C143.642,493.302,144.848,492.972,144.626,492.195L144.626,492.195z"/>
	</g>
	<g>
		<path fill="#070707" d="M336.311,475.574c4.627-11.437,17.955-20.877,29.764-13.898c6.784,4.009,11.167,12.183,12.021,19.857
			c0.971,8.73-4.76,13.639-13.245,12.129c-11.341-2.019-16.797-15.064-25.717-21.121c-0.669-0.454-1.294,0.63-0.631,1.08
			c10.658,7.235,16.598,22.771,31.553,21.597c7.499-0.589,10.134-8.084,9.182-14.622c-1.28-8.795-6.654-17.298-14.785-21.205
			c-11.979-5.756-24.995,5.097-29.346,15.852C334.803,475.99,336.013,476.312,336.311,475.574L336.311,475.574z"/>
	</g>
	<g>
		<path fill="#070707" d="M363.982,475.851c4.538,4.709,8.126,10.728,8.353,17.407c0.027,0.804,1.277,0.807,1.25,0
			c-0.238-7.016-3.943-13.336-8.718-18.292C364.307,474.385,363.424,475.27,363.982,475.851L363.982,475.851z"/>
	</g>
	<g>
		<path fill="#070707" d="M388.854,274.831c6.242,0.827,12.34,0.804,18.082,3.749c5.856,3.003,9.737,8.584,10.114,15.145
			c0.484,8.408-6.846,9.671-13.416,7.825c-5.707-1.604-10.387-5.852-14.113-10.274c-0.521-0.617-1.4,0.272-0.885,0.885
			c5.605,6.65,24.879,19.864,29.297,5.173c1.792-5.958-1.438-12.264-5.535-16.359c-6.398-6.396-15.215-6.29-23.544-7.393
			C388.057,273.476,388.066,274.727,388.854,274.831L388.854,274.831z"/>
	</g>
	<g>
		<path fill="#070707" d="M408.674,288.765c4.578,1.413,10.161,5.317,7.385,10.726c-0.367,0.716,0.712,1.349,1.08,0.631
			c3.172-6.18-2.679-10.878-8.133-12.562C408.233,287.321,407.906,288.527,408.674,288.765L408.674,288.765z"/>
	</g>
	<path fill="none" stroke="#070707" stroke-width="1.5" stroke-miterlimit="10" d="M346.126,126.87
		c0-22.285-18.069-40.354-40.354-40.354s-40.354,18.069-40.354,40.354c0,22.292,18.069,40.357,40.354,40.357
		S346.126,149.161,346.126,126.87z"/>
	<path fill="none" stroke="#070707" stroke-width="1.5" stroke-miterlimit="10" d="M244.49,131.155
		c0-22.289-18.07-40.354-40.355-40.354c-22.292,0-40.357,18.065-40.357,40.354c0,22.287,18.066,40.357,40.357,40.357
		C226.42,171.512,244.49,153.442,244.49,131.155z"/>
	<path fill="#070707" d="M383.051,110.896c0-4.714-3.822-8.538-8.537-8.538c-4.717,0-8.533,3.823-8.533,8.538
		c0,4.716,3.816,8.539,8.533,8.539C379.229,119.436,383.051,115.612,383.051,110.896z"/>
	<path fill="#070707" d="M143.871,118.115c0-4.715-3.826-8.538-8.541-8.538c-4.712,0-8.535,3.823-8.535,8.538
		s3.822,8.535,8.535,8.535C140.045,126.65,143.871,122.831,143.871,118.115z"/>
	<ellipse fill="#070707" cx="255.206" cy="164.115" rx="18.057" ry="10"/>
	<path fill="#070707" d="M321.084,116.087c-7.283,0-13.191,5.907-13.191,13.194s5.908,13.197,13.191,13.197
		c7.293,0,13.196-5.91,13.196-13.197S328.377,116.087,321.084,116.087z M326.396,137.674c-2.062,0-3.734-1.672-3.734-3.735
		c0-2.065,1.672-3.738,3.734-3.738s3.734,1.672,3.734,3.738C330.131,136.002,328.459,137.674,326.396,137.674z"/>
	<path fill="#070707" d="M218.699,119.234c-7.283,0-13.193,5.903-13.193,13.19c0,7.288,5.91,13.194,13.193,13.194
		c7.287,0,13.194-5.906,13.194-13.194C231.894,125.137,225.986,119.234,218.699,119.234z M224.009,140.818
		c-2.062,0-3.734-1.675-3.734-3.738c0-2.059,1.673-3.738,3.734-3.738c2.062,0,3.735,1.679,3.735,3.738
		C227.744,139.143,226.071,140.818,224.009,140.818z"/>
	<g>
		<path fill="#070707" d="M256.438,192.259c0.065,7.925,2.322,19.259-3.17,25.872c-1.87,2.252-4.818,2.201-7.409,1.608
			c-3.485-0.798-5.058-4.222-5.894-7.327c-1.443-5.365-0.667-11.752,0.893-17c0.23-0.774-0.976-1.103-1.205-0.332
			c-2.541,8.546-3.253,29.555,11.305,25.975c9.968-2.452,6.789-21.762,6.73-28.795C257.682,191.454,256.432,191.453,256.438,192.259
			L256.438,192.259z"/>
	</g>
	<g>
		<path fill="#070707" d="M129.628,278.268c-9.223-1.619-18.69,2.753-25.424,8.894c-4.76,4.34-7.193,10.885-0.612,14.536
			c0.706,0.391,1.336-0.688,0.631-1.08c-8.433-4.678,0.191-12.44,4.812-15.681c5.813-4.076,13.14-6.714,20.261-5.464
			C130.084,279.61,130.421,278.406,129.628,278.268L129.628,278.268z"/>
	</g>
	<g>
		<path fill="#070707" d="M110.574,295.063c-4.903,2.321-9.306,8.345-2.677,11.547c7.998,3.862,17.602-7.325,22.311-12.205
			c0.56-0.58-0.323-1.465-0.884-0.885c-4.038,4.185-7.901,7.976-13.012,10.857c-2.818,1.59-11.526,3.145-10.633-2.84
			c0.384-2.577,3.434-4.404,5.525-5.395C111.933,295.799,111.298,294.721,110.574,295.063L110.574,295.063z"/>
	</g>
	<g>
		<path fill="#070707" d="M364.361,109.038c15.089,21.999,19.407,48.741,20.73,74.864c1.373,27.114-0.166,54.303,0.844,81.439
			c1.209,32.485,3.997,64.903,4.001,97.429c0.002,16.052-0.648,32.044-4.002,47.787c-1.569,7.369-3.642,14.692-6.979,21.465
			c-3.036,6.16-7.161,11.748-10.916,17.475c-1.768,2.697-3.408,5.466-4.936,8.305c-0.764,1.419,1.395,2.682,2.158,1.262
			c6.186-11.497,14.796-21.408,19.276-33.816c4.929-13.649,6.772-28.653,7.489-43.069c1.609-32.396-0.996-64.913-2.691-97.252
			c-1.493-28.496-1.041-56.863-1.308-85.369c-0.235-25.158-2.125-51.034-11.991-74.472c-2.564-6.091-5.782-11.862-9.518-17.309
			C365.614,106.456,363.446,107.705,364.361,109.038L364.361,109.038z"/>
	</g>
	<g>
		<path fill="#070707" d="M252.561,304.493c-3.734-8.923-11.258-15.317-16.511-23.269c-1.204-1.823-3.362-4.235-0.562-5.303
			c2.127-0.812,4.33-1.426,6.524-2.023c5.356-1.458,10.859-2.389,16.346-3.2c5.07-0.75,10.179-1.262,15.288-1.651
			c1.713-0.13-2.77,15.549-3.243,17.087c-1.452,4.716-2.676,9.436-3.2,14.349c-0.318,2.979,0.322,4.248-3.007,3.883
			c-3.527-0.388-7.111-0.329-10.654-0.332c-0.807-0.001-0.807,1.249,0,1.25c4.711,0.004,9.369,0.082,14.042,0.764
			c0.384,0.056,0.806-0.157,0.791-0.603c-0.425-12.934,6.76-24.322,7.104-37.107c0.009-0.323-0.291-0.648-0.625-0.625
			c-14.024,0.981-28.913,2.524-42.01,7.919c-0.305,0.125-0.549,0.415-0.437,0.768c3.493,11.002,14.506,17.812,18.948,28.425
			C251.662,305.558,252.872,305.236,252.561,304.493L252.561,304.493z"/>
	</g>
	<g>
		<path fill="#070707" d="M274.801,272.137c8.102-0.196,17.626-0.296,25.312-3.166c0.748-0.279,0.425-1.488-0.332-1.205
			c-7.534,2.812-16.996,2.927-24.979,3.121C273.996,270.906,273.994,272.156,274.801,272.137L274.801,272.137z"/>
	</g>
	<g>
		<path fill="#070707" d="M321.441,282.441c10.908-3.942,21.893-7.659,32.962-11.123c5.531-1.73,11.091-3.371,16.663-4.962
			c5.155-1.472,10.467-2.159,15.483-4.121c0.742-0.29,0.42-1.499-0.332-1.205c-4.518,1.767-9.273,2.585-13.972,3.717
			c-5.5,1.324-10.924,3.134-16.33,4.794c-11.702,3.591-23.295,7.534-34.807,11.695C320.357,281.508,320.682,282.716,321.441,282.441
			L321.441,282.441z"/>
	</g>
	<g>
		<path fill="#070707" d="M269.279,304.606c5.986-2.652,12.424-3.887,18.311-6.807c5.81-2.881,11.452-6.059,17.387-8.686
			c0.735-0.326,0.1-1.403-0.631-1.08c-5.931,2.626-11.606,5.752-17.387,8.687c-5.857,2.975-12.329,4.156-18.311,6.806
			C267.913,303.853,268.549,304.93,269.279,304.606L269.279,304.606z"/>
	</g>
	<g>
		<path fill="#070707" d="M191.731,287.501c-4.753-0.486-9.687-2.584-14.274-3.893c-6.026-1.719-12.073-3.365-18.154-4.878
			c-4.539-1.129-9.201-2.396-13.85-2.96c-3.166-0.385-6.317-0.647-9.397-1.519c-2.079-0.588-3.833-0.24-5.899-0.647
			c-0.787-0.155-1.123,1.049-0.332,1.205c1.974,0.389,3.915,0.102,5.899,0.648c2.124,0.583,4.226,0.932,6.408,1.186
			c6.285,0.729,12.416,2.193,18.549,3.719c6.043,1.503,12.042,3.196,18.029,4.904c4.23,1.207,8.637,3.036,13.021,3.485
			C192.533,288.833,192.525,287.582,191.731,287.501L191.731,287.501z"/>
	</g>
	<g>
		<path fill="#070707" d="M248.965,305.635c-7.792-3.229-15.748-5.975-23.797-8.485c-4.109-1.282-8.245-2.479-12.381-3.669
			c-3.632-1.046-7.47-1.162-10.861-2.977c-0.71-0.38-1.342,0.699-0.631,1.08c2.357,1.261,4.902,1.78,7.509,2.295
			c4.242,0.838,8.363,2.162,12.502,3.399c9.253,2.765,18.401,5.864,27.326,9.562C249.377,307.148,249.699,305.938,248.965,305.635
			L248.965,305.635z"/>
	</g>
	<g>
		<path fill="#070707" d="M234.929,279.728c-4.042-1.842-7.979-3.894-12.116-5.521c-4.396-1.729-9.331-1.69-13.628-3.297
			c-0.756-0.283-1.08,0.925-0.332,1.205c3.245,1.214,7.016,1.326,10.4,2.24c5.279,1.426,10.097,4.198,15.045,6.454
			C235.025,281.139,235.661,280.062,234.929,279.728L234.929,279.728z"/>
	</g>
	<g>
		<path fill="#070707" d="M254.37,303.89c-4.601,0.458-6.101,1.845-8.305,6.051c-3.173,6.054-6.43,12.062-9.646,18.095
			c-3.343,6.271-6.413,12.655-9.283,19.155c-2.39,5.411-4.92,11.139-5.565,17.075c-1.214,11.176,5.364,19.772,11.883,28.175
			c9.398,12.112,16.568,25.635,24.281,38.857c0.222,0.38,0.873,0.434,1.08,0c6.076-12.712,13.769-24.671,23.015-35.312
			c4.343-4.998,14.593-10.738,13.574-18.491c-0.581-4.426-3.064-8.826-4.769-12.885c-2.408-5.738-4.976-11.41-7.467-17.112
			c-6.104-13.971-12.072-28.396-14.005-43.631c-0.1-0.788-1.352-0.798-1.25,0c2.993,23.603,14.934,45.161,23.938,66.853
			c1.403,3.383,3.459,7.478,1.713,11.076c-1.856,3.824-6.334,6.688-9.238,9.642c-8.453,8.597-15.381,18.778-21.37,29.195
			c-1.361,2.368-2.625,4.789-3.857,7.226c-1.075,2.124-1.087,1.432-2.234-0.535c-0.975-1.672-1.95-3.344-2.926-5.016
			c-3.576-6.13-7.152-12.261-10.728-18.391c-5.743-9.844-14.704-17.68-19.097-28.337c-4.992-12.111,3.208-26.344,8.369-37.086
			c2.92-6.078,6.159-12.003,9.387-17.922c2.829-5.186,5.689-14.755,12.5-15.433C255.164,305.061,255.172,303.81,254.37,303.89
			L254.37,303.89z"/>
	</g>
	<g>
		<path fill="#070707" d="M234.157,275.111c-5.235-4.28-5.759-12.129-11.275-15.845c-3.979-2.681-8.942,3.073-10.882,5.727
			c-8.539,11.678-11.471,26.785-15.912,40.287c0.402,0,0.803,0,1.205,0c-2.642-11.304-3.806-23.717-14.114-30.84
			c-6.876-4.751-16.272-6.274-24.24-8.08c-4.823-1.093-9.652-2.133-14.373-3.62c-4.576-1.441-11.375-3.097-15.032-6.263
			c-0.606-0.525-1.494,0.355-0.884,0.884c2.17,1.879,4.635,2.672,7.333,3.552c4.59,1.495,8.965,3.366,13.659,4.574
			c9.163,2.357,18.508,3.922,27.41,7.226c14.442,5.36,15.974,19.802,19.036,32.9c0.148,0.633,1.021,0.56,1.205,0
			c3.547-10.782,6.325-21.841,11.151-32.158c2.339-4.999,10.198-19.468,16.522-10.257c3.04,4.428,3.973,9.255,8.307,12.798
			C233.892,276.501,234.782,275.622,234.157,275.111L234.157,275.111z"/>
	</g>
	<g>
		<path fill="#070707" d="M275.394,269.446c2.779-4.568,6.64-10.692,12.567-11.188c4.654-0.39,8.055,4.487,10.089,7.953
			c5.05,8.604,7.267,19.872,6.975,29.763c-0.016,0.515,0.532,0.724,0.94,0.54c5.796-2.609,9.493-7.523,13.433-12.316
			c4.924-5.992,11.183-10.161,17.878-13.946c7.246-4.096,14.633-8.165,22.574-10.717c8.59-2.761,17.652-3.958,26.498-5.592
			c0.792-0.146,0.456-1.351-0.332-1.205c-9.465,1.748-18.992,3.179-28.18,6.132c-8.435,2.711-16.416,7.505-24.043,11.938
			c-6.778,3.939-12.16,8.663-17.095,14.726c-2.647,3.253-5.328,6.34-8.871,8.656c-1.899,1.241-1.508,0.832-1.534-0.956
			c-0.023-1.666-0.181-3.33-0.356-4.986c-1.022-9.638-3.92-21.385-11.142-28.359c-8.078-7.799-16.376,2.18-20.481,8.928
			C273.894,269.505,274.975,270.133,275.394,269.446L275.394,269.446z"/>
	</g>
	<g>
		<path fill="#070707" d="M223.062,258.54c-2.797-2.841-8.251-2.773-11.918-2.994c-6.894-0.415-13.841-0.043-20.733,0.24
			c-20.642,0.849-41.372-3.846-61.377-8.451c-0.785-0.181-1.118,1.024-0.332,1.205c18.719,4.309,38.7,9.236,58.046,8.638
			c6.205-0.192,12.399-0.532,18.609-0.532c4.599,0,13.268-0.831,16.821,2.777C222.745,259.999,223.628,259.115,223.062,258.54
			L223.062,258.54z"/>
	</g>
	<g>
		<path fill="#070707" d="M290.188,258.141c16.552,0.671,32.915-1.556,49.118-4.756c8.87-1.752,17.885-2.519,26.709-4.571
			c7.414-1.724,14.392-4.964,21.133-8.418c0.718-0.368,0.085-1.446-0.631-1.079c-6.706,3.436-13.526,6.397-20.835,8.292
			c-8.098,2.1-16.538,2.962-24.787,4.258c-16.966,2.664-33.429,5.725-50.707,5.025C289.382,256.858,289.386,258.108,290.188,258.141
			L290.188,258.141z"/>
	</g>
	<g>
		<path fill="#070707" d="M258.877,303.701c-0.812-3.756-2.35-7.296-3.156-11.053c-0.169-0.788-1.374-0.454-1.205,0.332
			c0.807,3.757,2.344,7.298,3.156,11.053C257.842,304.821,259.047,304.487,258.877,303.701L258.877,303.701z"/>
	</g>
	<g>
		<path fill="#070707" d="M128.553,403.616c8.723,5.397,17.296,9.497,27.173,12.35c10.332,2.984,21.061,4.499,31.755,5.402
			c10.619,0.896,21.304,0.92,31.95,0.657c5.854-0.145,11.698-0.509,17.543-0.836c4.999-0.28,10.093-1.327,14.985,0.226
			c0.771,0.245,1.098-0.962,0.332-1.205c-3.704-1.176-7.512-0.91-11.339-0.594c-5.27,0.435-10.549,0.711-15.83,0.96
			c-10.746,0.505-21.534,0.481-32.276-0.091c-22.681-1.208-44.229-5.924-63.663-17.949
			C128.497,402.111,127.869,403.192,128.553,403.616L128.553,403.616z"/>
	</g>
	<g>
		<path fill="#070707" d="M264.428,421.164c8.021,2.038,16.379,0.822,24.44-0.38c11.361-1.695,22.701-2.611,34.147-3.572
			c12.518-1.051,25.023-2.234,37.502-3.686c5.005-0.582,10.124-1.547,15.037-2.668c4.596-1.049,8.354-4.033,12.043-6.793
			c0.637-0.478,0.016-1.563-0.631-1.08c-3.728,2.79-7.205,5.331-11.744,6.668c-5.892,1.734-12.582,2.387-18.652,3.077
			c-11.165,1.271-22.358,2.281-33.555,3.231c-9.437,0.801-18.931,1.259-28.302,2.659c-9.779,1.462-20.151,3.829-29.954,1.338
			C263.979,419.76,263.646,420.966,264.428,421.164L264.428,421.164z"/>
	</g>
	<g>
		<path fill="#070707" d="M309.093,311.404c4.505-1.329,9.59-0.442,14.256-0.734c4.943-0.31,9.863-1.047,14.739-1.894
			c3.979-0.69,7.966-1.495,11.753-2.913c1.624-0.608,7.609-3.624,9.159-2.253c0.602,0.531,1.489-0.35,0.885-0.885
			c-2.991-2.644-11.479,2.48-14.821,3.315c-6.518,1.628-13.221,2.605-19.901,3.235c-5.398,0.51-11.177-0.619-16.401,0.923
			C307.989,310.427,308.318,311.633,309.093,311.404L309.093,311.404z"/>
	</g>
	<g>
		<path fill="#070707" d="M307.23,326.766c0.403,7.342,1.421,14.923,6.42,20.656c5.485,6.29,15.502,7.954,23.374,7.826
			c7.142-0.117,13.697-3.204,17.598-9.253c4.522-7.015,3.75-16.401,1.996-24.13c-0.178-0.786-1.384-0.453-1.205,0.332
			c1.683,7.417,2.151,15.34-1.38,22.309c-3.504,6.918-11.042,9.395-18.317,9.513c-7.396,0.121-15.906-2.048-21.182-7.481
			c-4.933-5.08-5.688-13.092-6.054-19.771C308.437,325.964,307.187,325.96,307.23,326.766L307.23,326.766z"/>
	</g>
	<g>
		<path fill="#070707" d="M308.202,310.809c-1.405,5.113-0.838,10.167,0,15.33c0.046,0.281,0.347,0.444,0.603,0.459
			c8.362,0.487,16.703-0.41,25.011-1.285c6.455-0.68,13.396-0.508,19.67-2.281c8.659-2.447,6.507-13.12,6.475-19.949
			c-0.004-0.806-1.254-0.807-1.25,0c0.021,4.445,0.595,9.146-0.327,13.531c-1.223,5.82-8.546,6.096-13.26,6.371
			c-7.788,0.456-15.531,1.618-23.312,2.202c-3.822,0.286-7.65,0.379-11.48,0.25c-3.314-0.111-1.341-12.778-0.924-14.296
			C309.621,310.362,308.415,310.032,308.202,310.809L308.202,310.809z"/>
	</g>
	<g>
		<path fill="#070707" d="M337.83,473.502c0.258-0.106,0.56-0.014,0.827-0.188c0.442-0.288,0.384-0.808,0.283-1.254
			c-0.156-0.696-1.235-0.532-1.228,0.166c0.006,0.511,0.121,1.118,0.684,1.275c0.439,0.123,0.923-0.311,0.769-0.769
			c-0.137-0.406-0.299-1.243-0.893-1.2c-0.312,0.023-0.516,0.182-0.621,0.471c-0.139,0.376,0.106-0.12,0.296-0.155
			c-0.792,0.149-0.455,1.354,0.332,1.205c0.194-0.036,0.367-0.187,0.458-0.357c0.042-0.077,0.073-0.164,0.093-0.251
			c0.038-0.171,0.065-0.09-0.126,0.156c-0.147,0.061-0.295,0.122-0.442,0.183c0.004,0,0.008,0,0.011-0.001
			c-0.147-0.061-0.295-0.121-0.441-0.183c-0.162-0.137-0.053-0.058-0.057-0.065c0.069,0.174,0.126,0.354,0.186,0.53
			c0.256-0.256,0.513-0.513,0.769-0.769c0.378,0.105,0.275,0.39,0.245,0.132c-0.008-0.066-0.01-0.135-0.011-0.202
			c-0.409,0.056-0.818,0.11-1.228,0.166c0.024,0.068,0.037,0.139,0.037,0.21c-0.026-0.449,0.698-0.403,0.292-0.403
			c-0.192,0.001-0.388,0.023-0.566,0.098c-0.314,0.13-0.535,0.409-0.437,0.769C337.144,473.363,337.515,473.633,337.83,473.502
			L337.83,473.502z"/>
	</g>
</g>
</svg>
