<?xml version="1.0" encoding="utf-8"?>
<!-- Generator: Adobe Illustrator 16.0.0, SVG Export Plug-In . SVG Version: 6.00 Build 0)  -->
<!DOCTYPE svg PUBLIC "-//W3C//DTD SVG 1.1//EN" "http://www.w3.org/Graphics/SVG/1.1/DTD/svg11.dtd">
<svg version="1.1" id="Layer_1" xmlns="http://www.w3.org/2000/svg" xmlns:xlink="http://www.w3.org/1999/xlink" x="0px" y="0px"
	 width="500px" height="550px" viewBox="0 0 500 550" enable-background="new 0 0 500 550" xml:space="preserve">
<g>
	<g>
		<path fill="#070707" d="M157.56,344.73c-1.441,45.582-10.416,96.299,20.981,134.492c1.024,1.246,2.783-0.533,1.768-1.768
			c-30.842-37.52-21.663-88.006-20.249-132.725C160.11,343.117,157.61,343.121,157.56,344.73L157.56,344.73z"/>
	</g>
	<g>
		<path fill="#070707" d="M175.187,221.272c-22.093,27.019-20.176,63.13-18.464,95.952c0.083,1.604,2.584,1.613,2.5,0
			c-1.67-32.02-3.861-67.776,17.732-94.185C177.966,221.803,176.208,220.023,175.187,221.272L175.187,221.272z"/>
	</g>
	<g>
		<path fill="#070707" d="M266.16,194.274c-7.742-0.193-15.936-0.212-23.587,1.095c-1.586,0.271-0.912,2.68,0.665,2.411
			c7.428-1.27,15.418-1.194,22.922-1.006C267.773,196.815,267.77,194.314,266.16,194.274L266.16,194.274z"/>
	</g>
	<g>
		<path fill="#070707" d="M330.432,227.823c-2.84-5.207-6.401-9.897-10.61-14.073c-1.146-1.136-2.913,0.631-1.768,1.768
			c4.064,4.032,7.478,8.54,10.22,13.567C329.045,230.5,331.204,229.239,330.432,227.823L330.432,227.823z"/>
	</g>
	<g>
		<path fill="#070707" d="M197.118,491.078c16.125,9.875,36.462,9.785,54.688,8.258c9.138-0.766,18.218-2.17,27.252-3.711
			c9.817-1.676,20.649-2.514,29.271-7.877c1.365-0.85,0.111-3.014-1.262-2.158c-8.069,5.02-18.206,5.801-27.393,7.402
			c-9.243,1.611-18.521,2.996-27.868,3.844c-17.733,1.609-37.75,1.684-53.427-7.916
			C197.001,488.074,195.746,490.238,197.118,491.078L197.118,491.078z"/>
	</g>
	<g>
		<path fill="#070707" d="M158.658,251.771c-11.494-2.811-19.014-12.305-14.84-24.153c1.878-5.331,6.283-9.357,11.258-11.766
			c6.315-3.057,17.655-3.855,22.911,1.357c1.146,1.136,2.914-0.631,1.768-1.768c-5.625-5.58-15.659-5.057-22.764-2.98
			c-6.449,1.884-11.8,6.609-14.771,12.573c-6.638,13.328,2.547,25.913,15.773,29.147
			C159.559,254.565,160.224,252.154,158.658,251.771L158.658,251.771z"/>
	</g>
	<g>
		<path fill="#070707" d="M317.299,213.431c9.999-5.089,25.313-7.671,32.718,2.825c7.667,10.868,2.964,28.463-10.912,30.984
			c-1.585,0.288-0.911,2.697,0.664,2.411c15.15-2.752,19.448-19.923,13.684-32.431c-6.625-14.375-25.774-11.872-37.415-5.949
			C314.6,212.003,315.865,214.16,317.299,213.431L317.299,213.431z"/>
	</g>
	<g>
		<path fill="#070707" d="M237.34,268.483c0.272-0.036,0.544-0.073,0.815-0.109c-0.055-0.409-0.11-0.818-0.166-1.228
			c-4.938,1.979-14.882,7.329-13.414,14.266c0.851,4.021,4.824,5.938,8.524,6.789c6.174,1.424,12.718-2.615,18.812-3.066
			c7.509-0.553,19.857,8.221,21.936-4.337c1.354-8.178-10.043-12.984-15.959-15.185c-0.757-0.282-1.081,0.927-0.332,1.205
			c6.184,2.301,16.253,6.597,14.903,14.75c-1.563,9.45-14.75,2.446-20.548,2.317c-3.425-0.074-6.936,1.307-10.184,2.205
			c-5.168,1.428-13.207,1.982-15.763-4.135c-2.595-6.211,8.184-11.931,12.355-13.604c0.649-0.26,0.566-1.177-0.166-1.228
			c-0.389-0.027-0.762,0.086-1.147,0.154C236.215,267.418,236.552,268.623,237.34,268.483L237.34,268.483z"/>
	</g>
	<g>
		<path fill="#070707" d="M260.452,286.928c1.513,3.97,2.081,8.205,1.285,12.402c-0.588,3.099-2.829,4.851-5.888,5.152
			c-3.381,0.334-4.423-2.942-4.907-5.562c-0.146-0.792-1.351-0.456-1.205,0.332c0.447,2.422,0.297,4.996,3.174,5.967
			c2.661,0.897,5.197,0.486,7.501-1.104c4.943-3.412,2.973-12.987,1.245-17.52C261.373,285.851,260.164,286.173,260.452,286.928
			L260.452,286.928z"/>
	</g>
	<g>
		<path fill="#070707" d="M179.74,479.438c8.458-4.148,12.974,6.465,18.805,10.547c0.05-0.381,0.1-0.762,0.149-1.143
			c-9.306,1.52-16.467,14.701-26.25,12.58c-3.712-0.807-6.693-4.973-6.119-8.646c0.398-2.545,2.487-4.703,4.228-6.436
			c3.379-3.363,7.737-5.867,11.962-8.016c0.719-0.365,0.086-1.443-0.631-1.08c-7.095,3.607-22.349,12.449-14.797,22.01
			c9.274,11.74,22.609-7.684,31.939-9.207c0.587-0.096,0.542-0.869,0.149-1.143c-6.485-4.539-10.71-15.137-20.067-10.547
			C178.386,478.713,179.02,479.791,179.74,479.438L179.74,479.438z"/>
	</g>
	<g>
		<path fill="#070707" d="M170.033,499.74c-1.414-4.955,2.288-8.805,6.375-10.951c0.714-0.375,0.082-1.453-0.631-1.08
			c-4.606,2.42-8.516,6.877-6.95,12.363C169.049,500.846,170.255,500.518,170.033,499.74L170.033,499.74z"/>
	</g>
	<g>
		<path fill="#070707" d="M307.189,487.947c3.376-8.086,12.616-14.732,21.044-9.834c4.812,2.797,7.854,8.629,8.5,14.016
			c0.793,6.615-3.83,9.688-9.986,8.373c-7.524-1.605-11.611-10.756-17.622-14.93c-0.664-0.461-1.288,0.623-0.631,1.08
			c7.215,5.01,12.318,16.973,22.771,15.461c5.468-0.791,7.445-5.865,6.604-10.912c-1.082-6.492-5.095-12.65-11.255-15.301
			c-8.581-3.693-17.511,4.24-20.631,11.715C305.674,488.357,306.884,488.68,307.189,487.947L307.189,487.947z"/>
	</g>
	<g>
		<path fill="#070707" d="M326.689,488.223c3.214,3.334,5.766,7.598,5.927,12.328c0.027,0.803,1.277,0.807,1.25,0
			c-0.173-5.068-2.843-9.633-6.292-13.213C327.014,486.758,326.131,487.643,326.689,488.223L326.689,488.223z"/>
	</g>
	<g>
		<path fill="#070707" d="M345.457,344.58c4.873-0.27,9.619,0.867,13.707,3.566c4.073,2.688,7.279,9.064,4.72,13.758
			c-1.75,3.207-6.702,1.938-9.362,0.996c-3.311-1.172-6.418-3.332-8.622-6.057c-0.508-0.627-1.387,0.264-0.885,0.885
			c3.654,4.514,16.016,12.016,20.208,4.33c2.289-4.195-0.272-9.967-3.167-13.102c-4.048-4.383-10.86-5.943-16.599-5.627
			C344.655,343.375,344.651,344.625,345.457,344.58L345.457,344.58z"/>
	</g>
	<g>
		<path fill="#070707" d="M355.843,356.775c3.152,0.975,7.104,3.66,5.177,7.41c-0.367,0.717,0.711,1.348,1.08,0.631
			c2.328-4.533-1.906-8.004-5.925-9.246C355.402,355.33,355.075,356.537,355.843,356.775L355.843,356.775z"/>
	</g>
	<path fill="none" stroke="#070707" stroke-width="1.5" stroke-miterlimit="10" d="M314.043,238.392
		c0-15.948-12.932-28.874-28.876-28.874c-15.946,0-28.877,12.926-28.877,28.874c0,15.95,12.931,28.877,28.877,28.877
		C301.111,267.269,314.043,254.341,314.043,238.392z"/>
	<path fill="none" stroke="#070707" stroke-width="1.5" stroke-miterlimit="10" d="M241.318,241.455
		c0-15.945-12.932-28.873-28.874-28.873c-15.95,0-28.877,12.927-28.877,28.873c0,15.95,12.927,28.877,28.877,28.877
		C228.387,270.332,241.318,257.405,241.318,241.455z"/>
	<path fill="#070707" d="M340.459,226.961c0-3.372-2.732-6.107-6.106-6.107c-3.372,0-6.107,2.735-6.107,6.107
		c0,3.376,2.735,6.109,6.107,6.109C337.727,233.07,340.459,230.337,340.459,226.961z"/>
	<path fill="#070707" d="M170.286,232.769c0-3.375-2.738-6.109-6.111-6.109c-3.37,0-6.107,2.735-6.107,6.109
		c0,3.374,2.737,6.109,6.107,6.109C167.548,238.877,170.286,236.142,170.286,232.769z"/>
	<path fill="#070707" d="M261.906,265.042c0-3.954-5.785-7.157-12.92-7.157c-7.137,0-12.922,3.203-12.922,7.157
		c0,3.95,5.785,7.153,12.922,7.153C256.121,272.194,261.906,268.991,261.906,265.042z"/>
	<path fill="#070707" d="M284.213,237.744c0-5.214-4.226-9.44-9.442-9.44c-5.211,0-9.44,4.227-9.44,9.44
		c0,5.214,4.229,9.443,9.44,9.443C279.987,247.187,284.213,242.958,284.213,237.744z M268.765,241.543
		c0-1.476,1.197-2.67,2.674-2.67c1.475,0,2.673,1.194,2.673,2.67c0,1.475-1.198,2.674-2.673,2.674
		C269.962,244.217,268.765,243.018,268.765,241.543z"/>
	<path fill="#070707" d="M210.948,239.993c0-5.212-4.223-9.438-9.438-9.438c-5.211,0-9.439,4.227-9.439,9.438
		c0,5.214,4.229,9.44,9.439,9.44C206.725,249.434,210.948,245.207,210.948,239.993z M195.505,243.794
		c0-1.476,1.199-2.672,2.674-2.672s2.672,1.197,2.672,2.672c0,1.476-1.196,2.672-2.672,2.672S195.505,245.271,195.505,243.794z"/>
	<g>
		<path fill="#070707" d="M249.472,285.03c-0.236,4.995,2.867,19.447-5.411,19.899c-8.103,0.442-6.557-12.754-5.17-17.449
			c0.229-0.774-0.978-1.104-1.205-0.332c-1.608,5.443-2.887,18.253,5.473,18.955c10.441,0.877,7.287-15.243,7.563-21.073
			C250.76,284.225,249.51,284.228,249.472,285.03L249.472,285.03z"/>
	</g>
	<g>
		<path fill="#070707" d="M159.18,346.549c-6.661-1.174-13.502,1.963-18.367,6.406c-3.488,3.184-5.215,8.01-0.399,10.68
			c0.706,0.391,1.336-0.688,0.631-1.08c-5.856-3.246,0.235-8.668,3.442-10.912c4.12-2.885,9.313-4.777,14.361-3.889
			C159.636,347.893,159.973,346.688,159.18,346.549L159.18,346.549z"/>
	</g>
	<g>
		<path fill="#070707" d="M145.41,358.584c-1.869,0.877-4.532,2.711-4.536,5.08c-0.003,2.174,2.019,3.721,4.095,3.947
			c2.556,0.281,5.155-1.27,7.252-2.533c2.186-1.316,4.554-2.951,6.165-4.959c0.499-0.623-0.379-1.514-0.884-0.885
			c-2.173,2.709-5.54,4.762-8.634,6.24c-2.106,1.008-4.166,1.369-6.125-0.232c-2.438-1.992,1.798-4.877,3.297-5.578
			C146.77,359.322,146.135,358.244,145.41,358.584L145.41,358.584z"/>
	</g>
	<g>
		<path fill="#070707" d="M342.091,335.285c0.908,24.711,3.081,49.375,2.934,74.119c-0.07,11.992-0.68,24.021-3.715,35.674
			c-2.867,11.01-10.072,20.082-15.426,29.926c-0.771,1.416,1.388,2.678,2.158,1.262c5.204-9.568,11.83-18.314,15.184-28.791
			c3.512-10.969,4.01-22.902,4.248-34.324c0.544-25.984-1.93-51.918-2.883-77.865C344.532,333.678,342.031,333.672,342.091,335.285
			L342.091,335.285z"/>
	</g>
	<g>
		<path fill="#070707" d="M326.779,225.81c17.249,25.358,15.298,56.963,14.997,86.221c-0.017,1.613,2.483,1.611,2.5,0
			c0.305-29.689,2.161-61.757-15.339-87.483C328.037,223.224,325.869,224.473,326.779,225.81L326.779,225.81z"/>
	</g>
	<g>
		<path fill="#070707" d="M224.597,280.999c-2.245,4.142-3.925,8.127-6.753,11.996c-3.458,4.73-7.122,9.188-9.705,14.486
			c-0.183,0.376-0.028,0.782,0.374,0.918c4.392,1.486,7.436-2.588,10.638-4.975c-0.285-0.285-0.57-0.57-0.855-0.855
			c-7.119,12.231-13.164,28.155-8.43,42.255c0.14,0.417,0.715,0.649,1.044,0.276c1.673-1.894,4.003-4.84,6.865-4.447
			c2.277,0.312,3.376,3.912,3.979,5.67c1.445,4.207,2.024,8.68,3.18,12.968c3.604,13.375,14.394,23.245,19.582,35.902
			c0.273,0.668,1.14,0.549,1.228-0.166c0.545-4.466,0.713-8.958,1.774-13.346c-0.381,0.05-0.761,0.1-1.142,0.149
			c5.13,7.801,3.048,17.312,3.495,26.097c0.032,0.632,0.817,0.839,1.165,0.315c1.74-2.623,2.88-5.445,4.021-8.361
			c0.79-2.018,2.785-9.678,5.056-5.148c0.23,0.458,0.825,0.349,1.08,0c1.345-1.843,2.479-3.721,3.511-5.755
			c0.513-1.011,1.232-4.941,3.272-3.337c0.343,0.269,0.719,0.219,0.982-0.127c6.202-8.151,7.738-18.608,9.621-28.407
			c-0.381,0.05-0.762,0.1-1.143,0.149c1.178,1.715,2.788,2.995,4.281,4.428c0.265,0.253,0.814,0.254,0.982-0.127
			c1.128-2.568,1.259-4.773,1.075-7.589c-0.119-1.828-0.884-5.478,1.937-4.86c0.816,0.179,1.5-0.005,2.282-0.175
			c4.195-0.91,2.91-7.384,1.936-9.977c-0.348,0.202-0.696,0.405-1.045,0.608c8.669,9.981,7.211-10.226,6.759-14.39
			c-0.541-4.98-1.1-10.32-2.725-15.086c-1.897-5.567-5.822-10.724-8.976-15.631c-3.608-5.614-7.059-11.336-10.284-17.176
			c-0.391-0.706-1.47-0.075-1.08,0.631c7.115,12.88,18.136,24.958,20.733,39.706c0.896,5.087,1.51,10.25,1.643,15.415
			c0.056,2.168-0.002,4.394-0.56,6.5c-0.856,3.234-3.37,0.593-4.626-0.854c-0.401-0.461-1.264,0.025-1.045,0.608
			c1.448,3.856,1.421,10.419-5.206,7.833c-0.296-0.115-0.715,0.124-0.769,0.437c-0.372,2.176-0.381,4.2-0.225,6.41
			c0.034,0.491,0.004,6.762-0.759,6.03c-1.151-1.104-2.33-2.033-3.25-3.373c-0.279-0.405-1.032-0.427-1.143,0.149
			c-1.054,5.48-2.063,10.954-3.652,16.311c-0.988,3.331-2.39,6.488-4.173,9.464c-1.312,2.19-1.454,1.278-3.354,0.816
			c-0.348-0.085-0.654,0.107-0.769,0.437c-0.916,2.636-2.028,5.111-3.41,7.529c-1.119,1.956-1.241,3.034-2.615,0.313
			c-0.175-0.345-0.727-0.421-0.982-0.127c-4.082,4.706-5.064,10.972-8.462,16.094c0.388,0.105,0.776,0.21,1.165,0.315
			c-0.459-9.038,1.605-18.712-3.666-26.728c-0.284-0.432-1.008-0.404-1.142,0.149c-1.09,4.503-1.26,9.094-1.819,13.678
			c0.409-0.056,0.818-0.11,1.228-0.166c-4.431-10.812-12.491-19.514-17.435-30.054c-3.387-7.222-3.08-15.803-7.033-22.733
			c-0.969-1.697-2.513-2.786-4.487-2.7c-1.136,0.049-2.209,0.75-3.119,1.35c-1.588,1.046-2.632,3.885-3.406,1.032
			c-3.46-12.746,2.829-27.724,9.133-38.556c0.295-0.507-0.331-1.246-0.855-0.855c-0.983,0.733-1.497,1.136-2.441,1.92
			c-0.372,0.317-0.744,0.635-1.116,0.952c-1.294,1.697-2.951,2.133-4.97,1.306c1.543-3.165,3.75-6.021,5.853-8.825
			c1.967-2.623,3.962-5.21,5.786-7.936c1.746-2.608,2.575-5.422,4.043-8.132C226.06,280.921,224.98,280.29,224.597,280.999
			L224.597,280.999z"/>
	</g>
	<g>
		<path fill="#070707" d="M225.277,285.932c4.147,12.757,12.43,24.221,27.183,22.373c13.151-1.647,20.57-14.699,21.346-26.839
			c0.04-0.623-0.878-0.851-1.165-0.315c-2.512,4.687-3.814,9.729-4.978,14.891c0.409,0.056,0.818,0.11,1.228,0.166
			c-0.091-2.653-0.389-5.156-0.022-7.818c0.106-0.773-0.98-1.132-1.205-0.332c-0.754,2.683-1.702,5.302-2.456,7.984
			c0.409,0.056,0.818,0.11,1.228,0.166c-0.129-2.467-0.488-4.902-0.617-7.369c-0.036-0.689-1.041-0.87-1.228-0.166
			c-0.676,2.547-0.978,4.493-0.613,7.09c0.1,0.712,1.231,0.521,1.228-0.166c-0.012-2.179-0.099-4.203-0.637-6.311
			c-0.172-0.676-1.271-0.546-1.228,0.166c0.145,2.394,0.649,4.597,1.25,6.922c0.127,0.494,0.694,0.558,1.045,0.276
			c0.742-0.598,1.055-1.234,1.392-2.118c-0.401-0.11-0.804-0.222-1.205-0.332c-0.312,1.568-1.045,2.781-1.782,4.151
			c-0.387,0.72,0.622,1.283,1.08,0.631c0.4-0.674,0.94-1.213,1.62-1.617c-0.285-0.285-0.57-0.57-0.855-0.855
			c-1.928,2.631-3.093,4.907-5.905,7.013c-1.424,1.065-9.689,5.105-8.925,0.838c0.09-0.5-0.417-1.029-0.918-0.706
			c-0.738,0.478-1.446,0.91-2.307,1.168c0.111,0.401,0.221,0.804,0.332,1.205c1.066-0.325,1.623-0.802,2.605-1.293
			c-0.252-0.327-0.505-0.655-0.757-0.982c-6.888,5.643-16.748-4.146-15.544-11.679c-0.381,0.05-0.761,0.1-1.142,0.149
			c0.613,0.646,1.003,1.416,1.169,2.31c0.141,0.598,1.065,0.6,1.205,0c0.456-1.95,0.609-3.674,0.634-5.693c-0.417,0-0.833,0-1.25,0
			c0,1.843,0,3.685,0,5.527c0.417,0,0.833,0,1.25,0c-0.189-1.977-0.33-2.08-0.611-4.299c-0.069-0.544-0.862-0.942-1.165-0.315
			c-0.627,1.297-1.081,2.389-1.295,3.835c0.409,0.056,0.818,0.11,1.228,0.166c-0.199-1.845-0.627-3.309-1.248-5.08
			c-0.219-0.625-1.312-0.574-1.228,0.166c0.164,1.438,0.448,2.865,0.611,4.299c0.388-0.105,0.776-0.21,1.165-0.315
			c-1.227-1.843-2.454-3.686-3.682-5.527c-0.443-0.665-1.51-0.058-1.079,0.631c1.206,1.927,2.208,3.855,3.007,5.993
			c0.381-0.16,0.761-0.321,1.142-0.481c-0.926-2.154-2.209-3.937-3.785-5.656c-0.417-0.455-1.241,0.017-1.044,0.608
			c0.983,2.958,2.675,5.052,5.073,7.034c0.511,0.422,1.41-0.131,0.981-0.758c-1.41-2.063-2.884-4.081-4.296-6.143
			c-0.375-0.547-1.431-0.209-1.142,0.481c1.452,3.472,3.152,6.686,5.689,9.491c0.542,0.599,1.423-0.288,0.884-0.885
			c-2.416-2.671-3.986-5.636-5.368-8.938c-0.381,0.16-0.761,0.321-1.142,0.481c1.412,2.062,2.886,4.079,4.296,6.143
			c0.327-0.253,0.654-0.505,0.981-0.758c-2.188-1.808-3.834-3.722-4.752-6.481c-0.348,0.202-0.696,0.405-1.044,0.608
			c1.505,1.642,2.713,3.363,3.589,5.402c0.279,0.649,1.389,0.18,1.142-0.481c-0.829-2.22-1.875-4.281-3.133-6.292
			c-0.36,0.21-0.719,0.421-1.079,0.631c1.228,1.842,2.455,3.685,3.682,5.527c0.311,0.467,1.241,0.353,1.165-0.315
			c-0.165-1.439-0.447-2.861-0.611-4.299c-0.409,0.056-0.818,0.11-1.228,0.166c0.621,1.522,1.022,3.105,1.203,4.748
			c0.069,0.641,1.116,0.919,1.228,0.166c0.082-1.266,0.472-2.444,1.169-3.536c-0.388-0.105-0.776-0.21-1.165-0.315
			c0.159,1.256,0.512,3.26,0.611,4.299c0.075,0.788,1.25,0.82,1.25,0c0-1.843,0-3.685,0-5.527c0-0.807-1.24-0.806-1.25,0
			c0.068,1.81-0.128,3.597-0.589,5.361c0.402,0,0.803,0,1.205,0c-0.244-1.032-0.639-1.75-1.295-2.608
			c-0.283-0.37-1.046-0.455-1.142,0.149c-0.835,5.228,1.603,9.31,5.705,12.41c2.1,1.588,4.701,2.322,7.27,2.623
			c2.795,0.328,2.705-0.537,4.659-2.138c0.579-0.474-0.157-1.282-0.757-0.982c-0.771,0.385-1.541,0.773-2.307,1.168
			c-0.769,0.234-0.442,1.438,0.332,1.205c0.955-0.285,1.767-0.752,2.605-1.293c-0.306-0.235-0.612-0.471-0.918-0.706
			c-0.092,0.51-0.428,1.285-0.614,1.844c-0.113,0.337,0.127,0.664,0.437,0.769c3.501,1.189,6.498,0.438,9.714-1.258
			c3.805-2.006,5.242-5.054,7.579-8.242c0.396-0.541-0.348-1.122-0.855-0.855c-0.911,0.479-1.483,1.231-2.069,2.066
			c0.36,0.21,0.72,0.421,1.08,0.631c0.788-1.466,1.582-2.812,1.907-4.45c0.158-0.799-0.92-1.081-1.205-0.332
			c-0.763,1.999-1.386-7.306-1.231-4.748c-0.409,0.056-0.818,0.11-1.228,0.166c0.527,2.069,0.58,3.883,0.592,5.979
			c0.409-0.056,0.818-0.11,1.228-0.166c-0.374-2.67-0.004-4.098,0.613-6.426c-0.409-0.056-0.818-0.11-1.228-0.166
			c0.129,2.467,0.488,4.902,0.617,7.369c0.036,0.694,1.031,0.864,1.228,0.166c0.755-2.683,1.702-5.302,2.456-7.984
			c-0.401-0.11-0.804-0.222-1.205-0.332c-0.379,2.755-0.118,5.379-0.022,8.15c0.023,0.686,1.067,0.876,1.228,0.166
			c1.141-5.06,2.385-9.989,4.853-14.592c-0.389-0.105-0.776-0.21-1.165-0.315c-0.797,12.477-8.35,24.117-21.464,25.76
			c-13.416,1.681-21.003-10.535-24.609-21.626C226.234,284.836,225.027,285.163,225.277,285.932L225.277,285.932z"/>
	</g>
	<g>
		<path fill="#070707" d="M228.579,217.567c2.594,0.415,5.196,0.197,7.794,0.612c0.408,0.065,0.969-0.277,0.769-0.769
			c-1.041-2.556-1.63-5.139-3.062-7.518c-0.235,0.306-0.471,0.612-0.706,0.918c0.997,0.323,2.006,0.291,2.999,0.612
			c0.516,0.167,0.998-0.463,0.706-0.918c-0.896-1.396-1.39-3.045-1.993-4.585c-0.038-0.098,1.852-0.656,1.805-0.639
			c2.665-0.951,4.81-3.73,6.684-5.688c0.353-0.369,0.151-0.87-0.276-1.044c-4.246-1.737-8.789-2.308-13.261-3.203
			c-4.512-0.903-8.557-3.2-13.082-3.987c-6.293-1.095-11.109,4.595-15.027,8.579c0.327,0.252,0.654,0.505,0.981,0.757
			c1.946-2.769,2.749-7.518-2.048-7.777c-6.74-0.364-7.906,5.189-9.435,10.474c-1.132,3.916-7.176,7.097-9.764,10.173
			c-2.543,3.021-4.705,6.344-6.625,9.788c-3.815,6.846-6.133,15.076-3.242,22.65c0.215,0.563,1.014,0.625,1.205,0
			c2.171-7.107,7.194-13.285,14.098-16.213c0.74-0.313,0.102-1.39-0.631-1.079c-7.189,3.048-12.415,9.571-14.672,16.96
			c0.402,0,0.803,0,1.205,0c-4.352-11.403,3.236-23.726,10.393-32.23c2.365-2.811,7.406-5.151,8.788-8.596
			c0.813-2.027,1.205-4.163,1.829-6.252c0.882-2.951,3.257-4.236,5.959-4.474c3.241-0.287,3.307,3.886,1.86,5.944
			c-0.416,0.591,0.494,1.253,0.981,0.757c2.865-2.913,5.792-6.23,9.639-7.836c3.654-1.524,7.966,0.471,11.334,1.853
			c3.853,1.581,8.064,2.122,12.13,2.891c1.963,0.371,3.871,0.87,5.765,1.5c0.246,0.656-0.054,1.148-0.901,1.477
			c-1.869,1.951-3.79,3.61-6.64,3.962c-0.499,0.062-0.741,0.477-0.54,0.94c0.792,1.824,1.319,3.845,2.4,5.529
			c0.235-0.306,0.471-0.612,0.706-0.918c-0.987-0.319-2.023-0.296-2.999-0.612c-0.527-0.171-0.981,0.46-0.706,0.918
			c-0.304-0.505,2.991,6.336,2.203,6.211c-2.077-0.332-4.189-0.037-6.292-0.372C228.123,216.236,227.784,217.441,228.579,217.567
			L228.579,217.567z"/>
	</g>
	<g>
		<path fill="#070707" d="M263.867,219.111c-0.686-2.759,0.43-6.871,0.234-9.808c-0.161-2.429-0.996-4.632-2.053-6.784
			c-0.285,0.285-0.57,0.57-0.855,0.855c4.547,2.024,6.656,0.034,6.632-4.708c-0.009-1.873-1.742-7.401,0.302-7.864
			c6.81-1.542,14.72-3.809,21.438-0.831c4.024,1.784,6.834,6.106,9.776,9.205c2.965,3.121,6.743,5.45,10.242,7.914
			c4.63,3.261,6.873,7.678,8.612,12.964c0.954,2.9,1.674,5.812,1.94,8.862c0.44,5.033-1.91,4.822-5.482,2.25
			c-0.655-0.472-1.278,0.613-0.631,1.079c1.74,1.252,3.708,1.729,5.678,2.519c0.341,0.137,0.654-0.149,0.769-0.437
			c2.254-5.659,0.048-13.66-2.52-18.908c-3.181-6.5-8.092-9.348-13.613-13.643c-5.313-4.132-8.996-10.606-15.266-13.384
			c-6.812-3.019-16.02,0.013-22.813,1.552c-0.263,0.06-0.468,0.335-0.459,0.603c0.11,3.417,3.171,14.928-3.975,11.747
			c-0.573-0.255-1.145,0.265-0.855,0.855c1.885,3.837,2.297,7.759,1.715,11.96c-0.231,1.667-0.435,2.669-0.021,4.332
			C262.856,220.225,264.062,219.893,263.867,219.111L263.867,219.111z"/>
	</g>
	<g>
		<path fill="#070707" d="M242.486,198.142c4.809-19.136-13.066-36.938-26.259-48.061c-0.612-0.516-1.501,0.364-0.884,0.884
			c12.842,10.828,30.619,28.22,25.938,46.845C241.085,198.591,242.29,198.923,242.486,198.142L242.486,198.142z"/>
	</g>
	<g>
		<path fill="#070707" d="M251.998,195.603c0.006-9.118,0.677-17.423,4.661-25.783c0.345-0.724-0.733-1.358-1.08-0.631
			c-4.088,8.578-4.825,17.028-4.831,26.414C250.747,196.409,251.997,196.409,251.998,195.603L251.998,195.603z"/>
	</g>
	<g>
		<path fill="#070707" d="M144.669,221.16c-5.25-3.768-9.777-10.355-13.443-15.523c-4.689-6.61-8.14-14.016-9.802-21.956
			c-3.485-16.653,5.594-31.618,17.528-42.356c22.967-20.666,56.369-29.577,86.121-34.5c31.713-5.249,65.462-5.526,96.664,2.807
			c14.988,4.003,29.799,10.704,40.614,22.085c12.256,12.897,12.995,29.336,5.765,44.993c-5.671,12.279-15.087,21.424-24.03,31.219
			c-0.542,0.594,0.34,1.48,0.885,0.884c9.521-10.428,18.913-19.97,24.936-33.012c5.085-11.011,5.973-23.033,0.958-34.197
			c-5.271-11.738-17.177-20.021-28.284-25.587c-13.144-6.587-27.853-9.917-42.32-11.967c-29.827-4.225-60.739-1.984-90.102,4.344
			c-27.338,5.892-57.008,16.161-76.919,36.692c-10.7,11.033-15.835,25.474-12.657,40.658c1.668,7.971,5.881,15.331,10.541,21.899
			c3.552,5.007,7.902,10.999,12.917,14.598C144.695,222.71,145.318,221.625,144.669,221.16L144.669,221.16z"/>
	</g>
	<g>
		<path fill="#070707" d="M177.833,118.019c-2.854-2.714-3.297-8.093-2.63-11.642c0.822-4.378,4.598-7.802,7.984-10.322
			c5.707-4.246,12.845-6.736,19.545-8.865c6.933-2.202,14.065-3.487,21.156-5.033c6.274-1.368,13.314-0.715,19.724-0.892
			c13.167-0.363,26.509-0.868,39.571,1.183c6.912,1.085,12.988,3.77,19.044,7.21c2.919,1.659,5.714,3.502,8.431,5.473
			c3.166,2.297,10.456,7.619,4.39,10.833c-0.713,0.377-0.081,1.457,0.631,1.079c0.92-0.487,4.021-1.638,4.067-3.048
			c0.08-2.434-1.758-4.19-3.389-5.806c-5.799-5.746-13.868-10.543-21.341-13.689c-15.295-6.438-33.584-4.962-49.786-4.53
			c-7.691,0.205-15.656-0.331-23.198,1.313c-9.548,2.082-19.143,3.926-28.192,7.764c-7.304,3.097-14.641,6.848-18.704,13.971
			c-2.537,4.447-2.031,12.229,1.813,15.884C177.533,119.458,178.418,118.575,177.833,118.019L177.833,118.019z"/>
	</g>
	<g>
		<path fill="#070707" d="M219.309,81.57c-3.384-2.077-1.689-7.503-0.377-10.15c2.043-4.12,7.191-6.005,11.223-7.33
			c7.692-2.528,16.091-2.723,24.113-2.96c7.878-0.232,15.716-0.124,23.376,1.942c8.131,2.193,18.012,10.354,11.621,19.27
			c-0.471,0.657,0.614,1.28,1.08,0.631c5.151-7.188,0.329-14.671-6.345-18.705c-9.436-5.703-22.68-4.643-33.177-4.278
			c-10.084,0.35-22.098,1.019-30.31,7.591c-3.738,2.991-6.959,11.922-1.835,15.067C219.367,83.072,219.994,81.991,219.309,81.57
			L219.309,81.57z"/>
	</g>
	<g>
		<path fill="#070707" d="M249.741,59.217c-5.265,1.528-4.661-4.799-3.517-7.971c1.639-4.543,6.638-6.6,11.187-6.299
			c3.924,0.259,7.798,2.689,9.741,6.086c2.437,4.259-0.961,7.489-4.862,8.78c-0.762,0.252-0.436,1.459,0.332,1.205
			c4.387-1.452,7.901-4.782,6.058-9.656c-1.772-4.687-7.102-7.391-11.839-7.703c-5.827-0.385-10.818,3.309-12.316,8.823
			c-1.146,4.218,0.256,9.476,5.549,7.939C250.846,60.198,250.517,58.992,249.741,59.217L249.741,59.217z"/>
	</g>
	<g>
		<path fill="#070707" d="M179.177,117.807c-5.72,7.59-13.126,13.857-16.933,22.746c-3.662,8.553-4.315,18.681-3.693,27.84
			c0.592,8.714,3.048,17.446,7.711,24.862c4.876,7.754,13.758,12.36,22.193,15.153c0.767,0.254,1.094-0.953,0.332-1.205
			c-9.472-3.137-17.973-8.305-22.983-17.147c-4.491-7.926-6.021-17.443-6.216-26.425c-0.194-8.911,1.381-18.593,5.694-26.473
			c3.824-6.985,10.208-12.396,14.974-18.721C180.742,117.793,179.656,117.171,179.177,117.807L179.177,117.807z"/>
	</g>
	<g>
		<path fill="#070707" d="M223.679,105.859c-17.307,8.949-26.327,27.547-23.744,46.773c1.289,9.593,4.885,19.02,10.877,26.688
			c3.88,4.966,8.415,9.092,13.77,12.411c5.324,3.299,10.923,3.948,16.703,5.851c0.768,0.253,1.094-0.955,0.332-1.205
			c-5.169-1.702-10.112-2.357-15.065-4.959c-4.974-2.612-9.234-6.421-12.936-10.601c-6.434-7.264-10.403-16.61-12.12-26.084
			c-3.514-19.389,5.214-38.694,22.814-47.794C225.026,106.568,224.394,105.49,223.679,105.859L223.679,105.859z"/>
	</g>
	<g>
		<path fill="#070707" d="M284.633,103.515c15.352,6.792,21.238,22.071,20.495,38.056c-0.376,8.069-2.574,16.075-5.898,23.408
			c-4.051,8.937-10.73,15.765-17.965,22.213c-0.603,0.538,0.285,1.418,0.885,0.884c7.718-6.88,14.326-14.01,18.63-23.503
			c3.277-7.231,5.074-15.098,5.599-23.002c1.081-16.316-5.619-32.279-21.114-39.135
			C284.533,102.112,283.896,103.189,284.633,103.515L284.633,103.515z"/>
	</g>
	<g>
		<path fill="#070707" d="M324.174,110.665c17.558,9.484,24.18,29.081,23.661,48.087c-0.259,9.47-2.496,18.932-6.377,27.561
			c-4.974,11.055-13.699,17.494-22.789,24.958c-0.623,0.512,0.267,1.391,0.885,0.884c9.302-7.639,17.729-14.079,22.983-25.21
			c4.145-8.783,6.126-18.53,6.548-28.192c0.846-19.349-6.562-39.596-24.28-49.166C324.096,109.202,323.465,110.282,324.174,110.665
			L324.174,110.665z"/>
	</g>
	<g>
		<path fill="#070707" d="M250.643,59.541c-5.91,3.971-15.587,18.505-4.034,21.459c0.781,0.2,1.112-1.006,0.332-1.205
			c-10.134-2.591-0.695-15.796,4.333-19.175C251.939,60.173,251.314,59.089,250.643,59.541L250.643,59.541z"/>
	</g>
	<g>
		<path fill="#070707" d="M263.061,60.698c5.942,2.695,12.738,12.253,9.337,18.864c-0.368,0.715,0.711,1.348,1.08,0.631
			c3.725-7.24-3.146-17.563-9.786-20.574C262.963,59.289,262.327,60.366,263.061,60.698L263.061,60.698z"/>
	</g>
	<g>
		<path fill="#070707" d="M160.918,211.646c-17.044-3.077-25.954-25.985-29.443-40.795c-0.185-0.785-1.39-0.452-1.205,0.332
			c3.586,15.224,12.777,38.502,30.316,41.668C161.374,212.994,161.71,211.789,160.918,211.646L160.918,211.646z"/>
	</g>
	<g>
		<path fill="#070707" d="M168.886,212.569c0.174,0.267,0.348,0.535,0.522,0.802c0.285-0.285,0.57-0.57,0.855-0.855
			c-7.401-4.584-11.651-12.169-15.91-19.496c-0.405-0.696-1.485-0.067-1.079,0.631c4.374,7.524,8.766,15.241,16.358,19.944
			c0.575,0.356,1.102-0.323,0.855-0.855c-0.264-0.569-0.292-0.588-0.718-1.055C169.225,211.088,168.344,211.975,168.886,212.569
			L168.886,212.569z"/>
	</g>
	<g>
		<path fill="#070707" d="M300.188,198.671c8.978-7.989,15.066-18.794,20.416-29.407c0.361-0.718-0.717-1.351-1.08-0.631
			c-5.304,10.524-11.321,21.235-20.221,29.154C298.7,198.324,299.587,199.205,300.188,198.671L300.188,198.671z"/>
	</g>
	<g>
		<path fill="#070707" d="M305.716,203.485c6.32-4.573,11.286-10.625,15.761-16.957c0.466-0.66-0.618-1.283-1.08-0.631
			c-4.344,6.146-9.174,12.067-15.312,16.508C304.438,202.874,305.062,203.958,305.716,203.485L305.716,203.485z"/>
	</g>
	<g>
		<path fill="#070707" d="M161.317,343.375c-4.864-0.537-9.073-1.877-11.861-6.141c-2.717-4.155-2.712-9.712-0.403-13.987
			c4.022-7.447,14.193-4.962,20.489-2.783c13.106,4.535,24.497,13.54,38.858,14.005c0.807,0.026,0.804-1.224,0-1.25
			c-10.887-0.353-20.521-5.819-30.114-10.398c-6.853-3.271-14.562-6.668-22.317-5.584c-6.977,0.975-10.28,7.833-9.745,14.252
			c0.718,8.598,7.4,12.287,15.093,13.137C162.118,344.714,162.109,343.463,161.317,343.375L161.317,343.375z"/>
	</g>
	<g>
		<path fill="#070707" d="M296.222,332.186c7.979,0.071,15.997-3.738,23.212-6.809c8.68-3.693,17.103-8.044,25.568-12.196
			c5.424-2.659,12.692-6.801,18.925-5.158c6.485,1.71,1.155,12.036-0.87,15.311c-2.898,4.686-7.599,8.096-12.513,10.386
			c-0.73,0.341-0.095,1.418,0.631,1.08c8.416-3.922,15.055-11.122,16.845-20.4c1.288-6.679-4.385-8.529-9.754-7.643
			c-8.022,1.323-15.975,6.326-23.152,9.854c-6.43,3.16-12.87,6.294-19.499,9.021c-6.044,2.487-12.775,5.363-19.393,5.305
			C295.415,330.929,295.416,332.179,296.222,332.186L296.222,332.186z"/>
	</g>
	<g>
		<path fill="#070707" d="M161.028,344.604c25.638,3.529,50.604,11.997,70.553,28.949c0.61,0.519,1.499-0.361,0.884-0.885
			c-20.125-17.101-45.227-25.708-71.105-29.27C160.572,343.291,160.232,344.495,161.028,344.604L161.028,344.604z"/>
	</g>
	<g>
		<path fill="#070707" d="M276.193,368.627c7.86-10.381,20.002-15.398,31.372-20.914c13.241-6.423,27.01-16.438,42.494-12.956
			c0.785,0.177,1.118-1.028,0.332-1.205c-14.817-3.332-28.226,5.298-40.857,11.789c-12.355,6.35-25.747,11.201-34.421,22.655
			C274.627,368.639,275.713,369.261,276.193,368.627L276.193,368.627z"/>
	</g>
	<g>
		<path fill="#070707" d="M252.017,405.121c3.575,15.454,0.692,31.496,1.241,47.173c0.292,8.343,0.042,16.697,0.22,25.043
			c0.134,6.284,0.116,13.303,1.751,19.418c0.208,0.778,1.414,0.447,1.205-0.332c-1.935-7.235-1.668-15.517-1.774-22.937
			c-0.117-8.265-0.006-16.52-0.272-24.782c-0.475-14.696,2.195-29.389-1.165-43.915C253.04,404.004,251.835,404.337,252.017,405.121
			L252.017,405.121z"/>
	</g>
	<path fill="none" stroke="#070707" stroke-width="1.5" stroke-miterlimit="10" d="M242.176,421.115
		c0-4.215-1.705-7.627-3.813-7.627c-2.102,0-3.812,3.412-3.812,7.627c0,4.213,1.71,7.623,3.812,7.623
		C240.471,428.738,242.176,425.328,242.176,421.115z"/>
	<path fill="none" stroke="#070707" stroke-width="1.5" stroke-miterlimit="10" d="M240.842,452.697
		c0-4.213-1.709-7.629-3.815-7.629c-2.104,0-3.812,3.416-3.812,7.629s1.708,7.623,3.812,7.623
		C239.133,460.32,240.842,456.91,240.842,452.697z"/>
	<path fill="none" stroke="#070707" stroke-width="1.5" stroke-miterlimit="10" d="M274.869,419.98c0-4.213-1.704-7.627-3.812-7.627
		c-2.104,0-3.812,3.414-3.812,7.627s1.709,7.625,3.812,7.625C273.165,427.605,274.869,424.193,274.869,419.98z"/>
	<path fill="none" stroke="#070707" stroke-width="1.5" stroke-miterlimit="10" d="M273.536,451.566c0-4.215-1.71-7.629-3.815-7.629
		s-3.812,3.414-3.812,7.629c0,4.213,1.707,7.623,3.812,7.623S273.536,455.779,273.536,451.566z"/>
	<g>
		<path fill="#070707" d="M231,79.97c-1.619-1.648-2.822-3.453-3.424-5.701c-0.208-0.778-1.414-0.448-1.205,0.332
			c0.656,2.449,1.981,4.456,3.746,6.252C230.682,81.43,231.565,80.545,231,79.97L231,79.97z"/>
	</g>
	<g>
		<path fill="#070707" d="M235.894,80.044c0.658-2.104,0.506-4.187,0-6.307c-0.187-0.784-1.392-0.452-1.205,0.332
			c0.456,1.915,0.594,3.746,0,5.643C234.447,80.483,235.653,80.811,235.894,80.044L235.894,80.044z"/>
	</g>
	<g>
		<path fill="#070707" d="M280.065,80.788c1.049-2.709,1.673-5.588,2.924-8.217c0.344-0.724-0.733-1.358-1.08-0.631
			c-1.299,2.73-1.96,5.702-3.049,8.516C278.568,81.208,279.777,81.531,280.065,80.788L280.065,80.788z"/>
	</g>
	<g>
		<path fill="#070707" d="M282.766,81.322c0.834-0.885,1.349-2.04,1.888-3.114c0.359-0.718-0.719-1.352-1.08-0.631
			c-0.485,0.969-0.939,2.063-1.692,2.861C281.329,81.024,282.211,81.91,282.766,81.322L282.766,81.322z"/>
	</g>
	<g>
		<path fill="#070707" d="M159.688,317.996c-6.86,7.412-7.776,23.439,3.646,26.873c0.774,0.232,1.102-0.975,0.332-1.205
			c-10.488-3.152-9.284-18.096-3.094-24.783C161.118,318.289,160.236,317.402,159.688,317.996L159.688,317.996z"/>
	</g>
	<g>
		<path fill="#070707" d="M178.491,323.452c-10.119,1.635-15.034,17.198-5.292,22.784c0.701,0.401,1.33-0.679,0.631-1.08
			c-8.901-5.104-3.986-19.049,4.993-20.499C179.618,324.529,179.279,323.324,178.491,323.452L178.491,323.452z"/>
	</g>
	<g>
		<path fill="#070707" d="M199.518,331.847c-12.101-0.127-8.875,16.395-2.001,21.379c0.654,0.473,1.277-0.611,0.631-1.08
			c-5.856-4.246-9.383-19.162,1.37-19.049C200.325,333.106,200.324,331.856,199.518,331.847L199.518,331.847z"/>
	</g>
	<g>
		<path fill="#070707" d="M312.543,328.521c5.57,2.748,6.65,8.307,2.68,13.059c-0.513,0.613,0.367,1.504,0.885,0.885
			c4.457-5.338,3.434-11.881-2.934-15.023C312.454,327.088,311.82,328.164,312.543,328.521L312.543,328.521z"/>
	</g>
	<g>
		<path fill="#070707" d="M335.32,318.5c7.7,0.803,9.092,9.781,4.048,14.656c-0.58,0.561,0.305,1.443,0.885,0.885
			c5.915-5.719,3.769-15.883-4.933-16.791C334.519,317.166,334.527,318.418,335.32,318.5L335.32,318.5z"/>
	</g>
	<g>
		<path fill="#070707" d="M346.551,313.445c5.774-0.66,10.348,1.164,9.834,7.605c-0.342,4.295-2.584,8.766-5.226,12.105
			c-0.494,0.625,0.385,1.516,0.885,0.885c3.267-4.133,5.781-9.604,5.648-14.957c-0.154-6.209-6.021-7.475-11.142-6.889
			C345.76,312.287,345.751,313.537,346.551,313.445L346.551,313.445z"/>
	</g>
	<g>
		<path fill="#070707" d="M251.122,48.344c0-0.135,0-0.269,0-0.404c0-0.544-0.682-0.829-1.067-0.442
			c-1.146,1.152-1.92,2.203-2.602,3.681c-0.334,0.724,0.635,1.317,1.079,0.631c0.946-1.463,1.844-2.953,2.747-4.443
			c0.309-0.51-0.333-1.232-0.855-0.855c-1.878,1.356-3.273,3.081-4.165,5.22c-0.248,0.594,0.639,1.036,1.044,0.608
			c1.322-1.397,2.336-2.905,2.988-4.719c0.224-0.621-0.616-1.007-1.044-0.608c-1.219,1.136-2.074,2.333-2.925,3.762
			c0.36,0.21,0.719,0.42,1.079,0.631c0.717-1.272,1.441-2.539,2.181-3.797c0.42-0.714-0.608-1.257-1.079-0.631
			c-1.093,1.451-2.179,2.81-2.989,4.443c-0.317,0.641,0.442,1.237,0.981,0.757c1.393-1.24,2.382-2.676,3.49-4.166
			c0.424-0.569-0.526-1.297-0.981-0.757c-2.018,2.393-4.104,5.02-4.141,8.278c-0.004,0.376,0.409,0.751,0.791,0.603
			c2.044-0.793,3.37-4.873,2.618-6.827c-0.137-0.355-0.553-0.613-0.918-0.374c-2.124,1.395-2.392,5.051-1.983,7.33
			c0.091,0.51,0.929,0.636,1.142,0.149c0.864-1.967,1.134-4.211,1.678-6.289c0.208-0.792-0.93-1.077-1.205-0.332
			c-0.833,2.251-1.96,5.098-1.638,7.517c0.064,0.484,0.66,0.899,1.067,0.442c1.633-1.833,2.373-4.645,2.364-7.065
			c-0.002-0.662-0.818-0.8-1.165-0.315c-1.346,1.881-2.561,4.985-1.373,7.174c0.236,0.436,0.829,0.372,1.079,0
			c1.146-1.701,1.241-3.75,1.598-5.723c0.124-0.681-0.754-1.111-1.142-0.481c-1.089,1.767-2.911,5.566-1.454,7.497
			c0.218,0.29,0.702,0.47,0.981,0.126c1.797-2.204,2.994-5.962,2.93-8.762c-0.012-0.541-0.674-0.833-1.067-0.442
			c-1.842,1.837-2.836,5.254-2.341,7.797c0.107,0.553,0.88,0.583,1.142,0.149c1.793-2.965,2.276-6.783,3.213-10.085
			c0.161-0.566-0.639-1.114-1.044-0.608c-2.09,2.608-3.798,8.65-2.36,11.824c0.195,0.431,0.87,0.384,1.079,0
			c1.229-2.258,1.815-4.777,1.782-7.343c-0.006-0.499-0.708-0.889-1.067-0.442c-1.352,1.683-3.569,5.505-1.858,7.508
			c0.34,0.398,0.882,0.115,1.044-0.276c0.601-1.444,0.719-2.596,0.162-4.048c-0.196-0.513-0.823-0.619-1.142-0.149
			c-0.861,1.266-2.472,4.958,0.011,5.279c0.204,0.026,0.447-0.136,0.54-0.31c0.503-0.943,0.58-1.898,0.452-2.958
			c-0.074-0.61-0.796-0.862-1.165-0.315c-0.76,1.126-0.823,2.259-0.467,3.551c0.154,0.561,0.837,0.57,1.142,0.149
			c0.827-1.139,1.195-2.251,1.378-3.627c0.083-0.622-0.898-0.846-1.165-0.315c-0.569,1.134-1.233,2.306-1.174,3.604
			c0.01,0.212,0.11,0.438,0.31,0.54c2.583,1.317,3.731-4.029,3.644-5.687c-0.034-0.658-0.798-0.805-1.164-0.315
			c-0.718,0.958-2.745,5.82-0.596,6.411c2.09,0.575,2.323-3.918,2.406-5.126c0.036-0.521-0.726-0.861-1.067-0.442
			c-1.289,1.583-1.938,3.698-1.372,5.697c0.11,0.39,0.566,0.576,0.918,0.374c1.75-1.007,2.13-3.083,2.167-4.982
			c0.012-0.611-0.872-0.868-1.165-0.315c-0.521,0.982-2.436,4.729-0.434,5.28c2.065,0.568,2.54-3.436,2.487-4.642
			c-0.021-0.484-0.706-0.907-1.067-0.442c-0.785,1.012-2.585,4.173-0.451,4.76c2.045,0.562,2.618-3.674,2.649-4.803
			c0.019-0.665-0.829-0.795-1.165-0.315c-0.561,0.802-3.345,5.407-1.161,6.007c2.307,0.635,3.797-4.528,4.081-6.01
			c0.116-0.604-0.569-1.056-1.045-0.608c-1.13,1.064-3.439,4.314-2.02,5.811c0.143,0.149,0.409,0.236,0.608,0.161
			c2.331-0.877,3.587-4.477,3.69-6.742c0.026-0.575-0.686-0.787-1.067-0.442c-1.132,1.024-4.042,5.669-1.65,6.717
			c2.599,1.139,3.809-4.663,3.503-6.198c-0.1-0.5-0.715-0.553-1.045-0.276c-0.956,0.805-4.269,5.714-1.992,6.617
			c2.789,1.107,4.608-4.243,4.514-6.175c-0.027-0.555-0.655-0.814-1.067-0.442c-1.052,0.951-4.036,5.347-1.974,6.555
			c2.175,1.274,4.24-4.624,4.252-5.952c0.004-0.49-0.529-0.757-0.94-0.54c-1.521,0.806-4.167,4.472-2.523,6.116
			c2.08,2.08,4.368-4.237,4.515-5.333c0.064-0.482-0.574-0.762-0.94-0.54c-1.411,0.857-3.717,4.269-2.146,5.748
			c1.66,1.562,3.688-3.755,3.953-4.638c0.186-0.617-0.603-1.026-1.045-0.608c-1.208,1.143-2.922,3.292-2.577,5.059
			c0.04,0.202,0.239,0.391,0.437,0.437c2.34,0.537,3.458-3.079,3.611-4.812c0.052-0.579-0.699-0.779-1.067-0.442
			c-0.781,0.715-3.393,4.343-1.738,5.338c2.205,1.328,3.547-2.516,3.995-4.084c0.149-0.521-0.449-0.994-0.918-0.706
			c-0.931,0.571-4.247,3.658-2.673,4.865c2.025,1.553,4.183-2.593,4.641-3.998c0.175-0.536-0.46-0.967-0.918-0.706
			c-1.262,0.72-3.713,3.079-2.065,4.455c1.629,1.361,3.762-2.674,4.115-3.668c0.201-0.565-0.469-0.918-0.918-0.706
			c-1.641,0.776-2.697,2.154-3.276,3.847c-0.135,0.394,0.217,0.784,0.603,0.791c2.753,0.05,4.141-3.611,4.884-5.791
			c0.209-0.611-0.616-1.028-1.045-0.608c-1.064,1.044-1.834,2.101-2.099,3.588c-0.073,0.41,0.282,0.968,0.769,0.769
			c2.085-0.854,3.343-2.969,3.021-5.211c-0.06-0.415-0.601-0.55-0.918-0.374c-1.613,0.895-2.011,2.648-2.006,4.417
			c0.002,0.55,0.678,0.821,1.067,0.442c0.94-0.915,3.275-4.815,1.407-5.909c-2.001-1.172-2.903,3.245-2.879,4.417
			c0.011,0.537,0.678,0.839,1.067,0.442c1.328-1.354,2.068-3.353,1.533-5.212c-0.109-0.381-0.569-0.588-0.918-0.374
			c-1.822,1.123-2.995,3.765-2.732,5.871c0.057,0.455,0.491,0.798,0.94,0.54c1.426-0.82,4.458-6.013,2.262-7.299
			c-2.476-1.45-3.848,5.84-3.849,7.083c-0.001,0.568,0.67,0.797,1.067,0.442c1.8-1.611,2.156-4.716,1.775-6.99
			c-0.055-0.325-0.47-0.535-0.769-0.437c-2.248,0.736-3.037,3.895-3.044,6.015c-0.002,0.551,0.68,0.82,1.067,0.442
			c1.06-1.034,3.712-6.332,1.906-7.448c-2.633-1.627-3.43,5.592-3.597,6.759c-0.084,0.583,0.56,1.088,1.045,0.608
			c1.628-1.61,2.925-5.197,1.955-7.381c-0.175-0.393-0.707-0.364-0.982-0.126c-1.885,1.632-2.79,5.494-3.01,7.874
			c-0.057,0.612,0.691,0.733,1.067,0.442c1.958-1.515,2.541-5.565,1.775-7.797c-0.118-0.346-0.573-0.628-0.918-0.374
			c-2.022,1.494-3.308,5.117-3.218,7.567c0.019,0.493,0.512,0.752,0.94,0.54c2.337-1.158,3.157-5.392,2.128-7.64
			c-0.089-0.195-0.336-0.309-0.539-0.31c-1.983-0.008-4.493,5.771-3.591,7.407c0.156,0.284,0.577,0.412,0.854,0.224
			c2.001-1.353,2.983-5.52,2.081-7.658c-0.188-0.445-0.657-0.605-1.045-0.276c-1.914,1.629-2.572,4.153-3.472,6.416
			c-0.238,0.6,0.634,1.033,1.045,0.608c1.692-1.753,2.471-4.009,3.311-6.254c0.225-0.6-0.63-1.039-1.045-0.608
			c-1.7,1.767-2.668,3.997-4.137,5.943c0.36,0.21,0.72,0.42,1.08,0.631c1.051-1.858,2.225-3.607,3.069-5.574
			c0.278-0.648-0.418-1.236-0.982-0.757c-2.027,1.72-3.124,4.027-4.621,6.185c0.36,0.21,0.72,0.42,1.08,0.631
			c1.371-2.102,3.091-3.873,4.2-6.139c0.253-0.519-0.295-1.234-0.855-0.855c-2.568,1.735-4.188,4.256-6.104,6.641
			c-0.493,0.614,0.332,1.491,0.885,0.884c1.917-2.11,4.353-3.648,5.752-6.185c0.247-0.448-0.164-1.113-0.706-0.918
			c-2.964,1.068-4.781,3.719-6.738,6.058c-0.51,0.61,0.294,1.451,0.885,0.884c2.336-2.247,4.586-4.48,6.317-7.235
			c0.343-0.545-0.324-1.153-0.855-0.855c-2.915,1.632-5.134,4.701-7.478,7.045c0.295,0.294,0.59,0.589,0.885,0.884
			c1.971-2.376,4.1-4.545,6.382-6.624c0.441-0.402-0.02-1.284-0.608-1.044c-3.124,1.269-5.147,3.873-7.627,6.058
			c-0.619,0.545,0.265,1.362,0.884,0.884c2.249-1.738,4.467-3.461,6.463-5.493c0.463-0.472-0.014-1.155-0.608-1.044
			c-3.146,0.586-5.748,4.214-7.87,6.3c0.294,0.294,0.589,0.589,0.884,0.884c2.465-2.704,5.138-5.2,7.674-7.835
			c0.406-0.423,0.006-1.273-0.608-1.044c-3.173,1.181-5.209,3.693-7.904,5.637c0.252,0.327,0.505,0.654,0.757,0.981
			c1.74-1.925,3.685-3.633,5.493-5.493c0.529-0.545-0.136-1.248-0.758-0.981c-2.425,1.036-4.22,2.814-6.104,4.622
			c-0.583,0.56,0.297,1.435,0.884,0.884c1.809-1.697,3.513-3.431,5.69-4.668c-0.253-0.327-0.505-0.654-0.758-0.981
			c-1.825,2.224-4.122,3.941-5.833,6.266c-0.381,0.518,0.348,1.169,0.855,0.855c2.205-1.367,3.81-3.364,5.781-5.025
			c0.62-0.522-0.268-1.386-0.885-0.884c-1.979,1.612-3.735,3.403-5.492,5.25c-0.475,0.5,0.151,1.391,0.757,0.981
			c2.016-1.362,3.603-3.206,5.655-4.524c-0.252-0.327-0.505-0.654-0.758-0.981c-1.722,1.551-3.4,3.1-4.927,4.847
			c-0.448,0.512,0.13,1.384,0.757,0.981c2.135-1.37,3.875-3.13,5.458-5.106c0.339-0.424,0.041-1.308-0.608-1.044
			c-2.188,0.888-3.876,2.405-5.885,3.617c0.285,0.285,0.57,0.57,0.855,0.855c1.611-2.21,3.603-3.84,5.719-5.528
			c0.57-0.456-0.159-1.317-0.758-0.981c-2.254,1.263-4.318,2.808-6.543,4.12c0.252,0.327,0.505,0.654,0.757,0.981
			c0.135-0.135,0.27-0.27,0.404-0.404c0.57-0.57-0.313-1.454-0.884-0.884c-0.135,0.135-0.27,0.27-0.404,0.404
			c-0.503,0.503,0.142,1.344,0.757,0.981c2.225-1.312,4.29-2.856,6.543-4.12c-0.252-0.327-0.505-0.654-0.758-0.981
			c-2.2,1.756-4.25,3.498-5.914,5.781c-0.38,0.522,0.346,1.162,0.855,0.855c1.896-1.145,3.505-2.646,5.586-3.491
			c-0.202-0.348-0.405-0.696-0.608-1.044c-1.517,1.894-3.146,3.59-5.204,4.911c0.252,0.327,0.505,0.654,0.757,0.981
			c1.527-1.747,3.206-3.295,4.928-4.847c0.527-0.476-0.161-1.364-0.758-0.981c-2.052,1.318-3.634,3.158-5.655,4.524
			c0.252,0.327,0.505,0.654,0.757,0.981c1.758-1.847,3.514-3.638,5.493-5.25c-0.295-0.294-0.59-0.589-0.885-0.884
			c-1.886,1.588-3.41,3.517-5.527,4.83c0.285,0.285,0.57,0.57,0.855,0.855c1.648-2.239,3.881-3.874,5.638-6.013
			c0.435-0.53-0.107-1.352-0.758-0.981c-2.276,1.294-4.043,3.081-5.943,4.864c0.294,0.294,0.589,0.589,0.884,0.884
			c1.796-1.724,3.524-3.431,5.851-4.426c-0.252-0.327-0.505-0.654-0.758-0.981c-1.808,1.859-3.752,3.568-5.492,5.493
			c-0.454,0.501,0.155,1.416,0.757,0.981c2.55-1.838,4.593-4.39,7.605-5.511c-0.202-0.348-0.405-0.696-0.608-1.044
			c-2.535,2.636-5.208,5.132-7.673,7.835c-0.541,0.593,0.306,1.452,0.884,0.884c1.932-1.898,4.502-5.453,7.318-5.979
			c-0.202-0.348-0.405-0.696-0.608-1.044c-1.995,2.032-4.213,3.754-6.462,5.493c0.294,0.294,0.589,0.589,0.884,0.884
			c2.274-2.003,4.178-4.559,7.075-5.736c-0.202-0.348-0.405-0.696-0.608-1.044c-2.281,2.079-4.41,4.248-6.382,6.624
			c-0.505,0.61,0.305,1.464,0.885,0.884c2.231-2.232,4.447-5.294,7.224-6.85c-0.285-0.285-0.57-0.57-0.855-0.855
			c-1.675,2.667-3.868,4.815-6.122,6.982c0.295,0.294,0.59,0.589,0.885,0.884c1.753-2.096,3.489-4.765,6.186-5.736
			c-0.235-0.306-0.471-0.612-0.706-0.918c-1.348,2.444-3.717,3.907-5.557,5.932c0.295,0.294,0.59,0.589,0.885,0.884
			c1.83-2.279,3.385-4.779,5.851-6.445c-0.285-0.285-0.57-0.57-0.855-0.855c-1.103,2.254-2.836,4.049-4.2,6.139
			c-0.444,0.681,0.626,1.285,1.08,0.631c1.421-2.048,2.495-4.295,4.426-5.932c-0.328-0.252-0.655-0.505-0.982-0.757
			c-0.844,1.967-2.019,3.716-3.069,5.574c-0.407,0.721,0.607,1.257,1.08,0.631c1.4-1.857,2.313-3.998,3.941-5.69
			c-0.349-0.203-0.697-0.405-1.045-0.608c-0.768,2.051-1.435,4.092-2.99,5.702c0.349,0.203,0.697,0.405,1.045,0.608
			c0.824-2.073,1.385-4.361,3.151-5.864c-0.349-0.092-0.697-0.184-1.045-0.276c0.609,1.445,0.061,2.913-0.368,4.315
			c-0.8,2.608-0.102,1.185,0.259,0.063c0.32-0.994,0.817-1.903,1.345-2.798c-0.718,1.219,1.161,3.619-1.595,4.985
			c0.313,0.18,0.627,0.36,0.94,0.54c-0.06-1.623,2.093-4.276,1.909-5.846c0.192,1.646-0.292,4.489-1.684,5.565
			c0.356,0.147,0.712,0.294,1.067,0.442c0.161-1.745,0.926-3.295,1.453-4.937c0.473-1.884,0.5-1.788,0.083,0.288
			c-0.267,1.197-0.745,2.521-1.634,3.399c0.349,0.203,0.697,0.405,1.045,0.608c0.222-1.548,0.51-3.064,0.954-4.565
			c0.5-1.692,0.146,1.03,0.09,1.218c-0.294,0.99-0.688,2.084-1.443,2.821c0.356,0.147,0.712,0.294,1.067,0.442
			c0.004-1.339,0.409-2.492,0.965-3.704c0.872-0.655,0.955-0.146,0.251,1.528c-0.16,1.019-0.598,1.92-1.313,2.703
			c0.356,0.147,0.712,0.294,1.067,0.442c0.001-1.154,0.369-2.272,0.704-3.365c1.095-3.568,0.814,1.459-0.998,2.502
			c0.313,0.18,0.627,0.36,0.94,0.54c-0.379-3.046,2.804-4.043-0.018-1.169c0.356,0.147,0.712,0.294,1.067,0.442
			c0-0.948,0.225-1.844,0.675-2.689c-0.46,1.075-0.273,2.263-1.338,3.297c0.356,0.147,0.712,0.294,1.067,0.442
			c-0.009-3.037,0.651-0.991-1.68-0.037c0.256,0.256,0.513,0.512,0.769,0.769c0.196-1.242,0.789-2.254,1.778-3.036
			c-0.349-0.203-0.697-0.405-1.045-0.608c-0.337,0.987-0.782,1.91-1.277,2.825c-1.521,2.811-0.676,0.486,0.903-0.262
			c-0.306-0.235-0.612-0.47-0.918-0.706c-0.309,1.076-0.974,1.881-1.996,2.414c0.441-0.756,1.035-1.352,1.782-1.789
			c-0.306-0.235-0.612-0.47-0.918-0.706c-0.222,0.679-0.542,1.308-0.958,1.885c-0.323,0.151-0.646,0.303-0.969,0.454
			c0.474-0.729,1.072-1.327,1.795-1.795c-0.306-0.235-0.612-0.47-0.918-0.706c-0.265,0.925-0.667,1.768-1.13,2.607
			c-1.096,0.569-1.148,0.181-0.159-1.166c0.281-0.562,0.655-1.055,1.122-1.479c-0.356-0.147-0.712-0.294-1.067-0.442
			c-0.03,0.346-1.965,4.225-0.899,2.272c0.414-0.758,0.937-1.48,1.563-2.072c-0.349-0.203-0.697-0.405-1.045-0.608
			c-0.304,1.011-0.766,1.933-1.277,2.852c-0.702,1.263,0.585-2.111,1.307-2.55c-0.313-0.18-0.627-0.36-0.94-0.54
			c-0.105,0.444-0.211,0.889-0.316,1.333c-0.183,1.247-0.863,1.991-2.042,2.231c0.221-1.137,1.214-2.72,2.248-3.268
			c-0.313-0.18-0.627-0.36-0.94-0.54c-0.04,0.885-0.287,1.714-0.743,2.487c-0.278,0.761-0.795,1.315-1.55,1.665
			c0.233-1.283,1.166-2.982,2.149-3.871c-0.356-0.147-0.712-0.294-1.067-0.442c0.042,0.676-0.063,1.325-0.315,1.949
			c-0.162,1.328-0.898,2.023-2.209,2.085c0.271-1.239,1.17-2.778,2.138-3.592c-0.349-0.092-0.697-0.184-1.045-0.276
			c-0.041,0.658-0.082,1.316-0.122,1.974c0.013,1.377-0.531,1.928-1.633,1.652c0.259-1.218,1.052-2.742,1.992-3.592
			c-0.356-0.147-0.712-0.294-1.067-0.442c-0.083,1.812-0.765,2.895-1.576,4.265c-0.984,1.663,0.984-2.19,1.432-2.611
			c-0.349-0.203-0.697-0.405-1.045-0.608c-0.269,1.398-0.883,2.702-1.549,3.951c-1.037,0.705-1.069,0.306-0.098-1.197
			c0.271-0.631,0.619-1.227,1.012-1.788c-0.389-0.105-0.776-0.21-1.165-0.315c-0.055,1.946-2.221,3.706-0.063,0.927
			c-0.356-0.147-0.712-0.294-1.067-0.442c0.046,1.051-0.589,1.735-0.719,2.556c0.141-0.894,0.575-1.774,0.995-2.564
			c-0.389-0.105-0.776-0.21-1.165-0.315c0.026,1.084-0.194,2.118-0.663,3.102c-0.126-1.222,0.235-2.324,1.083-3.306
			c-0.356-0.147-0.712-0.294-1.067-0.442c-0.061,0.885-0.231,1.746-0.422,2.611c0.259-1.176,0.067-2.1,0.94-3.265
			c-0.388-0.105-0.776-0.21-1.165-0.315c0.104,2.008-2.323,5.903-0.451,2.173c-0.388-0.105-0.776-0.21-1.165-0.315
			c-0.088,1.157-0.49,2.156-1.207,2.997c0.381,0.05,0.761,0.1,1.142,0.149c0.114-0.863,0.228-1.726,0.341-2.588
			c-0.388-0.105-0.776-0.21-1.165-0.315c0.206,1.705,0.926-0.792,1.326-1.381c-0.381-0.05-0.761-0.1-1.142-0.149
			c0.477,1.213,0.423,2.341-0.162,3.384c0.348-0.092,0.696-0.184,1.044-0.276c-1.068-1.25,1.074-4.764,1.858-5.74
			c-0.355-0.147-0.711-0.294-1.067-0.442c0.03,2.353-0.485,4.642-1.611,6.712c0.36,0,0.719,0,1.079,0
			c-1.031-2.276,0.678-8.455,2.165-10.31c-0.349-0.203-0.697-0.405-1.045-0.608c-0.898,3.161-1.369,6.944-3.087,9.787
			c0.381,0.05,0.761,0.1,1.142,0.149c-0.394-2.026,0.583-5.147,2.02-6.582c-0.355-0.147-0.711-0.294-1.067-0.442
			c0.054,2.351-1.404,3.958-1.74,6c0.241-1.462,0.838-2.975,1.612-4.23c-0.381-0.161-0.761-0.321-1.142-0.481
			c-0.333,1.844-0.389,3.818-1.472,5.424c0.36,0,0.719,0,1.079,0c-0.937-1.727,0.357-4.492,1.373-5.912
			c-0.388-0.105-0.776-0.21-1.165-0.315c0.007,2.044-0.609,4.623-1.998,6.182c0.355,0.147,0.711,0.294,1.067,0.442
			c-0.295-2.208,0.836-5.138,1.593-7.185c-0.402-0.111-0.803-0.221-1.205-0.332c-0.501,1.915-0.754,4.172-1.552,5.99
			c0.381,0.05,0.761,0.1,1.142,0.149c-0.228-1.271-0.023-2.503,0.225-3.755c0.028-0.145,0.955-3.884,0.162-0.352
			c-0.062,0.276-0.992,3.458-0.616,1.854c0.474-2.021,2.253-4.012,3.542-5.541c-0.327-0.252-0.654-0.505-0.981-0.757
			c-1.031,1.385-2,2.761-3.295,3.913c0.327,0.252,0.654,0.505,0.981,0.757c0.81-1.633,1.896-2.992,2.989-4.443
			c-0.36-0.21-0.719-0.42-1.079-0.631c-0.741,1.258-1.464,2.525-2.181,3.797c-0.396,0.703,0.667,1.323,1.079,0.631
			c0.776-1.301,1.619-2.473,2.73-3.509c-0.348-0.203-0.696-0.405-1.044-0.608c-0.58,1.612-1.5,2.933-2.667,4.167
			c0.348,0.203,0.696,0.405,1.044,0.608c0.759-1.821,1.995-3.321,3.59-4.473c-0.285-0.285-0.57-0.57-0.855-0.855
			c-0.902,1.49-1.8,2.98-2.746,4.443c0.36,0.21,0.719,0.42,1.079,0.631c0.609-1.321,1.382-2.396,2.406-3.428
			c-0.355-0.147-0.711-0.294-1.067-0.442c0,0.135,0,0.269,0,0.404C249.872,49.15,251.122,49.15,251.122,48.344L251.122,48.344z"/>
	</g>
	<g>
		<path fill="#070707" d="M250.57,47.591c0.725-0.441,1.233-0.931,1.823-1.552c0.477-0.502-0.146-1.379-0.758-0.981
			c-0.692,0.43-1.365,0.888-2.02,1.373c-0.646,0.458-0.064,1.512,0.631,1.079c1.127-0.702,1.131-0.709,2.146-1.551
			c0.543-0.451-0.191-1.409-0.758-0.981c-0.947,0.714-1.872,1.448-2.792,2.198c-0.588,0.479,0.16,1.261,0.757,0.981
			c1.223-0.573,2.352-1.292,3.647-1.714c-0.202-0.348-0.405-0.696-0.608-1.044c-1.169,1.32-2.569,2.319-3.958,3.393
			c-0.567,0.438,0.165,1.352,0.757,0.981c2.111-1.319,4.156-2.647,6.023-4.298c0.457-0.404-0.022-1.263-0.608-1.044
			c-2.282,0.848-4.023,2.479-5.85,4.038c-0.483,0.412,0.03,1.222,0.608,1.044c2.34-0.716,4.099-2.42,6.289-3.456
			c-0.21-0.36-0.421-0.719-0.631-1.079c-1.502,1.123-3.104,2.056-4.488,3.329c-0.537,0.494,0.148,1.313,0.757,0.981
			c1.864-1.016,3.56-2.229,5.586-2.926c-0.202-0.348-0.405-0.696-0.608-1.044c-1.968,1.569-4.188,2.642-6.417,3.78
			c0.252,0.327,0.505,0.654,0.757,0.981c2.006-1.824,4.166-3.402,6.752-4.282c-0.202-0.348-0.405-0.696-0.608-1.044
			c-1.098,1.016-2.171,1.935-3.406,2.797c-0.442,0.309-3.346,2.283-0.714,0.318c0.918-0.685,2.044-1.077,3.121-1.426
			c1.438-1.073,2.875-1.104,4.308-0.092c0.937,0.454,1.8,1.023,2.588,1.71c0.147-0.355,0.295-0.711,0.442-1.067
			c-1.531-0.077-3.007-0.52-4-1.756c-0.147,0.355-0.295,0.711-0.442,1.067c2.15-0.188,5.398,1.339,6.407,3.326
			c0.285-0.285,0.57-0.57,0.855-0.855c-0.652-0.518-1.305-1.035-1.957-1.553c-0.36,0.21-0.72,0.42-1.08,0.631
			c0.61,0.797,1.249,1.509,1.956,2.227c0.253-0.327,0.506-0.654,0.758-0.981c-1.451-1.079-2.684-2.382-4.512-2.729
			c-0.567-0.108-0.934,0.407-0.706,0.918c0.748,1.678,2.426,2.546,3.94,3.456c0.524,0.315,1.202-0.322,0.855-0.855
			c-1.093-1.677-2.544-2.915-4.345-3.778c-0.549-0.264-1.18,0.28-0.855,0.855c0.9,1.595,2.258,2.365,3.698,3.455
			c0.21-0.36,0.421-0.719,0.631-1.079c-1.658-0.944-3.137-2.034-4.639-3.214c-0.639-0.501-1.382,0.246-0.885,0.884
			c1.089,1.396,2.468,2.229,3.797,3.393c0.602,0.526,1.46-0.309,0.885-0.884c-1.689-1.689-3.357-3.405-5.689-4.119
			c-0.564-0.173-0.927,0.452-0.706,0.918c0.902,1.9,2.805,2.545,4.587,3.456c0.731,0.374,1.271-0.607,0.631-1.079
			c-1.773-1.309-3.393-2.688-5.48-3.456c-0.558-0.206-0.927,0.473-0.706,0.918c1.001,2.013,3.325,2.52,5.232,3.375
			c0.722,0.323,1.36-0.71,0.631-1.079c-2.116-1.07-5.128-3.034-7.59-2.244c-0.509,0.163-0.629,0.858-0.149,1.142
			c2.025,1.2,4.32,1.423,6.616,1.701c0.734,0.089,0.798-1.016,0.166-1.228c-2.261-0.76-4.535-1.006-6.875-0.484
			c-0.641,0.143-0.551,1.019,0,1.205c2.196,0.744,4.447,0.099,6.709,0.345c-0.056-0.409-0.11-0.818-0.166-1.228
			c-1.906,0.327-3.794,0.633-5.73,0.705c0.056,0.409,0.11,0.818,0.166,1.228c1.907-0.431,3.779-0.822,5.727-0.323
			c-0.125-0.306-0.249-0.612-0.374-0.918c-0.688,1.142-3.017,1.05-4.146,1.145c0.105,0.388,0.21,0.776,0.315,1.165
			c1.563-0.691,3.182-0.811,4.854-0.642c-0.105-0.388-0.21-0.776-0.315-1.165c-4.289,2.805-9.618,4.293-13.529,7.638
			c-1.314,1.124-2.614,3.564,0.112,3.382c0.8-0.054,0.805-1.304,0-1.25c-1.142,0.076,1.94-2.09,1.908-2.068
			c1.264-0.864,2.651-1.554,4.011-2.25c2.752-1.409,5.535-2.676,8.129-4.373c0.547-0.357,0.296-1.103-0.315-1.165
			c-1.923-0.195-3.719,0.031-5.485,0.812c-0.565,0.25-0.287,1.215,0.315,1.165c1.708-0.143,4.235-0.12,5.226-1.764
			c0.206-0.342,0.015-0.818-0.374-0.918c-2.164-0.555-4.243-0.163-6.391,0.323c-0.689,0.155-0.537,1.253,0.166,1.228
			c2.056-0.076,4.037-0.402,6.062-0.75c0.751-0.129,0.478-1.158-0.166-1.228c-2.14-0.232-4.292,0.406-6.377-0.3
			c0,0.402,0,0.803,0,1.205c2.125-0.473,4.169-0.201,6.211,0.484c0.056-0.409,0.11-0.818,0.166-1.228
			c-2.09-0.253-4.139-0.436-5.985-1.53c-0.05,0.381-0.1,0.761-0.149,1.142c2.104-0.675,4.824,1.207,6.627,2.118
			c0.21-0.36,0.421-0.719,0.631-1.079c-1.65-0.739-3.899-1.147-4.783-2.926c-0.235,0.306-0.471,0.612-0.706,0.918
			c1.981,0.729,3.511,2.097,5.182,3.33c0.21-0.36,0.421-0.719,0.631-1.079c-1.527-0.781-3.333-1.31-4.138-3.007
			c-0.235,0.306-0.471,0.612-0.706,0.918c2.114,0.647,3.621,2.283,5.137,3.798c0.295-0.294,0.59-0.589,0.885-0.884
			c-1.287-1.127-2.737-2.034-3.797-3.393c-0.295,0.294-0.59,0.589-0.885,0.884c1.574,1.236,3.149,2.417,4.893,3.41
			c0.72,0.41,1.256-0.606,0.631-1.079c-1.208-0.915-2.452-1.594-3.249-3.007c-0.285,0.285-0.57,0.57-0.855,0.855
			c1.625,0.779,2.908,1.814,3.896,3.33c0.285-0.285,0.57-0.57,0.855-0.855c-1.331-0.799-2.823-1.507-3.491-3.007
			c-0.235,0.306-0.471,0.612-0.706,0.918c1.699,0.323,2.879,1.612,4.213,2.603c0.584,0.434,1.241-0.491,0.758-0.981
			c-0.638-0.612-1.225-1.27-1.761-1.974c-0.48-0.627-1.562-0.022-1.08,0.631c0.72,0.973,1.292,1.514,2.406,2.001
			c0.566,0.248,1.156-0.263,0.855-0.855c-1.209-2.38-4.855-4.175-7.487-3.945c-0.569,0.05-0.792,0.631-0.442,1.067
			c1.184,1.472,3.052,2.03,4.885,2.122c0.517,0.026,0.866-0.721,0.442-1.067c-1.897-1.545-6.541-4.58-8.912-2.369
			c-1.283,1.197,1.339,3.122,2.494,2.804c1.437-0.395,1.498-2.761-0.226-2.609c-1.792,0.158-7.003,1.672-6.717,4.198
			c0.042,0.367,0.255,0.587,0.625,0.625c2.481,0.257,5.229-2.7,6.839-4.189c0.45-0.417-0.015-1.247-0.608-1.044
			c-2.785,0.947-5.143,2.638-7.304,4.604c-0.548,0.499,0.148,1.292,0.757,0.981c2.33-1.189,4.618-2.339,6.67-3.975
			c0.491-0.392-0.037-1.241-0.608-1.044c-2.125,0.73-3.923,1.982-5.885,3.052c0.253,0.327,0.505,0.654,0.758,0.981
			c1.308-1.203,2.819-2.076,4.234-3.133c0.642-0.479,0.108-1.428-0.631-1.079c-2.083,0.984-3.76,2.647-5.99,3.33
			c0.203,0.348,0.405,0.696,0.608,1.044c1.651-1.409,3.226-2.946,5.298-3.717c-0.202-0.348-0.405-0.696-0.608-1.044
			c-1.785,1.579-3.755,2.845-5.77,4.103c0.252,0.327,0.505,0.654,0.757,0.981c1.403-1.085,2.777-2.06,3.958-3.393
			c0.39-0.44,0.023-1.25-0.608-1.044c-1.404,0.458-2.611,1.215-3.946,1.84c0.252,0.327,0.505,0.654,0.757,0.981
			c0.83-0.688,1.676-1.356,2.539-2.002c-0.253-0.327-0.505-0.654-0.758-0.981c-0.63,0.452-1.262,0.904-1.893,1.356
			c0.21,0.36,0.42,0.719,0.631,1.079c0.654-0.485,1.328-0.943,2.02-1.373c-0.253-0.327-0.505-0.654-0.758-0.981
			c-0.451,0.531-0.975,0.983-1.569,1.356C249.252,46.93,249.88,48.011,250.57,47.591L250.57,47.591z"/>
	</g>
	<g>
		<path fill="#070707" d="M317.653,213.13c0.402,0.746,1.039,1.315,1.633,1.904c0.491,0.487,1.406-0.167,0.982-0.757
			c-0.443-0.616-0.896-1.241-1.471-1.742c-0.504-0.439-1.425,0.152-0.982,0.757c0.42,0.575,0.905,1.098,1.292,1.696
			c0.327-0.252,0.654-0.505,0.982-0.757c-0.604-0.527-1.208-1.052-1.777-1.615c-0.506-0.5-1.343,0.14-0.982,0.757
			c0.36,0.616,0.776,1.19,1.229,1.742c0.295-0.294,0.59-0.589,0.885-0.884c-0.472-0.55-0.944-1.1-1.454-1.615
			c-0.53-0.536-1.262,0.14-0.982,0.757c0.271,0.595,0.642,1.133,0.97,1.696c0.36-0.21,0.72-0.42,1.08-0.631
			c-0.396-0.545-0.817-1.07-1.212-1.616c-0.384-0.53-1.419-0.227-1.143,0.481c0.257,0.659,0.586,1.281,0.87,1.927
			c0.36-0.21,0.72-0.42,1.08-0.631c-0.155-0.321-0.289-0.65-0.422-0.981c-0.294-0.735-1.387-0.471-1.205,0.332
			c0.104,0.459,0.277,0.894,0.547,1.28c0.458,0.656,1.542,0.032,1.08-0.631c-0.215-0.307-0.34-0.617-0.422-0.981
			c-0.401,0.111-0.804,0.221-1.205,0.332c0.172,0.431,0.346,0.862,0.547,1.28c0.354,0.734,1.398,0.093,1.08-0.631
			c-0.241-0.546-0.528-1.071-0.745-1.628c-0.381,0.161-0.762,0.321-1.143,0.481c0.396,0.545,0.817,1.07,1.212,1.616
			c0.463,0.64,1.494,0.08,1.08-0.631c-0.329-0.563-0.7-1.101-0.97-1.696c-0.327,0.252-0.655,0.505-0.982,0.757
			c0.511,0.516,0.982,1.065,1.454,1.615c0.529,0.617,1.389-0.27,0.885-0.884c-0.385-0.469-0.728-0.965-1.033-1.489
			c-0.327,0.252-0.654,0.505-0.982,0.757c0.57,0.563,1.175,1.088,1.777,1.615c0.512,0.447,1.387-0.131,0.982-0.757
			c-0.388-0.6-0.872-1.122-1.292-1.696c-0.327,0.252-0.655,0.505-0.982,0.757c0.497,0.433,0.893,0.956,1.275,1.489
			c0.327-0.252,0.655-0.505,0.982-0.757c-0.52-0.514-1.087-1-1.438-1.651C318.351,211.79,317.271,212.421,317.653,213.13
			L317.653,213.13z"/>
	</g>
	<g>
		<path fill="#070707" d="M225.136,283.555c0.806,0,0.806-1.25,0-1.25S224.33,283.555,225.136,283.555L225.136,283.555z"/>
	</g>
	<g>
		<path fill="#070707" d="M224.534,283.096c0.51,2.049,1.533,3.855,2.486,5.724c0.32,0.627,1.385,0.187,1.142-0.481
			c-0.644-1.771-1.551-3.403-2.405-5.077c-0.329-0.644-1.322-0.19-1.142,0.481c0.412,1.543,1.122,2.932,1.84,4.351
			c0.36-0.21,0.719-0.421,1.079-0.631c-0.736-1.442-1.334-2.93-1.875-4.455c-0.271-0.762-1.355-0.46-1.205,0.332
			c0.328,1.726,0.888,3.398,1.921,4.834c0.325,0.452,1.223,0.365,1.165-0.315c-0.137-1.591-0.881-2.929-1.701-4.273
			c-0.377-0.619-1.292-0.205-1.142,0.481c0.584,2.667,2.029,5.362,4.038,7.224c0.437,0.404,1.248,0.015,1.044-0.608
			c-0.721-2.213-1.938-4.195-3.213-6.127c-0.327,0.253-0.654,0.505-0.981,0.758c1.592,1.946,2.63,4.278,4.524,5.978
			c0.446,0.399,1.235,0.021,1.044-0.608c-0.791-2.606-2.779-4.57-4.523-6.577c-0.473-0.544-1.339,0.157-0.981,0.758
			c1.318,2.214,3.174,4.385,5.556,5.475c0.541,0.247,1.197-0.275,0.855-0.855c-1.08-1.836-2.743-3.299-4.586-4.344
			c-0.637-0.36-1.221,0.458-0.757,0.982c1.666,1.88,3.841,3.057,5.943,4.379c0.691,0.435,1.281-0.624,0.631-1.08
			c-1.386-0.972-2.503-2.237-4.039-2.989c-0.604-0.295-1.323,0.489-0.757,0.982c1.743,1.519,3.808,2.24,5.93,3.068
			c0.665,0.26,1.102-0.818,0.481-1.143c-0.459-0.239-0.914-0.486-1.373-0.727c-0.713-0.372-1.346,0.706-0.631,1.08
			c0.459,0.239,0.914,0.486,1.373,0.727c0.161-0.381,0.321-0.762,0.481-1.143c-1.911-0.746-3.807-1.378-5.378-2.748
			c-0.252,0.327-0.505,0.655-0.757,0.982c1.525,0.746,2.661,2.022,4.039,2.989c0.21-0.36,0.42-0.72,0.631-1.08
			c-2.01-1.264-4.095-2.383-5.69-4.184c-0.252,0.328-0.505,0.655-0.757,0.982c1.659,0.94,3.164,2.239,4.138,3.895
			c0.285-0.285,0.57-0.57,0.855-0.855c-2.196-1.004-3.891-2.983-5.107-5.025c-0.327,0.252-0.654,0.505-0.981,0.758
			c1.596,1.836,3.477,3.638,4.202,6.024c0.348-0.202,0.696-0.405,1.044-0.608c-1.883-1.688-2.938-4.038-4.524-5.978
			c-0.451-0.551-1.37,0.17-0.981,0.758c1.213,1.838,2.4,3.722,3.087,5.828c0.348-0.202,0.696-0.405,1.044-0.608
			c-1.856-1.718-3.178-4.211-3.717-6.671c-0.381,0.16-0.761,0.321-1.142,0.481c0.688,1.13,1.414,2.292,1.53,3.643
			c0.388-0.105,0.776-0.21,1.165-0.315c-0.975-1.354-1.486-2.908-1.795-4.535c-0.402,0.11-0.803,0.222-1.205,0.332
			c0.578,1.628,1.216,3.214,2.001,4.754c0.367,0.719,1.442,0.086,1.079-0.631c-0.667-1.319-1.331-2.616-1.714-4.052
			c-0.381,0.16-0.761,0.321-1.142,0.481c0.804,1.576,1.673,3.111,2.279,4.778c0.381-0.16,0.761-0.321,1.142-0.481
			c-0.903-1.77-1.876-3.481-2.36-5.425C225.544,281.981,224.339,282.313,224.534,283.096L224.534,283.096z"/>
	</g>
	<g>
		<path fill="#070707" d="M230.715,287.013c-0.215-0.054-0.431-0.107-0.646-0.161c-0.571-0.143-1.108,0.619-0.608,1.045
			c1.762,1.499,3.662,1.993,5.935,2.282c0.618,0.078,0.854-0.903,0.315-1.165c-1.694-0.82-3.011-1.439-4.844-0.87
			c-0.65,0.202-0.562,1.28,0.166,1.228c1.282-0.094,2.523-0.409,3.724,0.319c0.161-0.381,0.321-0.762,0.481-1.143
			c-1.082-0.23-3.345-1.091-4.604-1.535c-0.674-0.238-1.097,0.808-0.481,1.143c1.81,0.983,3.569,1.116,5.562,1.598
			c0.8,0.193,1.066-0.915,0.332-1.205c-1.49-0.59-3.518-1.889-5.085-0.988c-0.183,0.105-0.32,0.324-0.31,0.54
			c0.102,2.054,2.573,3.664,3.72,5.163c0.474,0.619,1.51,0.079,1.079-0.631c-0.913-1.506-1.837-2.987-2.827-4.443
			c-0.374-0.551-1.42-0.213-1.142,0.481c0.62,1.553,1.346,3.009,2.083,4.512c0.357,0.73,1.408,0.092,1.079-0.631
			c-1.474-3.243-0.524-0.737-0.276,1.123c0.104,0.78,1.204,0.827,1.25,0c0.081-1.454,0.162-2.908,0.242-4.362
			c0.039-0.696-1.129-0.867-1.228-0.166c-0.229,1.626-0.232,1.577-0.265,3.235c-0.014,0.717,1.032,0.837,1.228,0.166
			c0.359-1.231,0.661-2.471,0.969-3.716c-0.409-0.056-0.818-0.11-1.228-0.166c-0.027,1.023-0.054,2.047-0.081,3.07
			c-0.019,0.71,1.048,0.846,1.228,0.166c0.292-1.108,0.36-2.268,1.132-3.197c-0.348-0.203-0.696-0.406-1.044-0.608
			c-0.886,2.304-0.738,4.512-0.749,6.951c-0.003,0.816,1.185,0.792,1.25,0c0.122-1.485,0.227-2.669-0.022-4.124
			c-0.104-0.608-1.086-0.589-1.205,0c-0.453,2.232-0.328,4.44-0.346,6.709c0.417,0,0.833,0,1.25,0
			c-0.128-1.963-0.049-3.784-0.669-5.659c-0.178-0.538-1.091-0.652-1.205,0c-0.474,2.708-0.181,5.331,0.727,7.926
			c0.227,0.65,1.227,0.566,1.228-0.166c0.003-2.324-0.705-4.374-1.862-6.374c-0.37-0.639-1.277-0.194-1.142,0.481
			c0.453,2.276,0.996,4.492,1.696,6.705c0.21,0.666,1.225,0.554,1.228-0.166c0.007-2.215-0.933-4.104-1.477-6.225
			c-0.204-0.796-1.333-0.446-1.205,0.332c0.362,2.213,0.958,4.268,1.921,6.288c0.303,0.636,1.414,0.173,1.142-0.481
			c-0.461-0.845-0.65-1.757-0.565-2.737c-0.402,0-0.803,0-1.205,0c0.339,1.178,0.6,2.364,0.889,3.555
			c0.175,0.721,1.176,0.508,1.228-0.166c0.135-1.77,0.059-3.438-0.812-5.001c-0.318-0.571-1.128-0.279-1.165,0.315
			c-0.103,1.666,0.317,3.047,0.911,4.609c0.281,0.74,1.414,0.462,1.205-0.332c-0.961-3.651-3.295-9.283-6.992-10.957
			c-0.442-0.2-0.907,0.038-0.94,0.54c-0.149,2.228,1.417,3.938,2.67,5.647c0.465,0.635,1.513,0.068,1.079-0.631
			c-1.297-2.089-2.618-4.159-3.958-6.221c-0.45-0.692-1.39-0.095-1.079,0.631c1.078,2.521,1.708,5.259,3.894,7.074
			c0.434,0.359,1.279,0.036,1.044-0.608c-0.967-2.657-2.573-4.849-4.263-7.097c-0.397-0.528-1.37-0.247-1.142,0.481
			c0.854,2.733,2.184,5.121,4.038,7.305c0.478,0.562,1.301-0.155,0.981-0.758c-1.299-2.453-2.44-4.924-4.218-7.074
			c-0.394-0.477-1.258,0.032-1.044,0.608c1.09,2.946,2.625,6.312,5.088,8.354c0.425,0.353,1.299,0.034,1.044-0.608
			c-1.119-2.824-3.268-5.506-5.169-7.87c-0.388-0.481-1.261,0.036-1.044,0.608c1.529,4.038,4.039,7.231,7.477,9.826
			c0.619,0.467,1.15-0.477,0.757-0.982c-1.679-2.161-3.5-4.198-5.251-6.301c-0.473-0.567-1.299,0.156-0.981,0.758
			c1.709,3.241,3.654,6.024,6.606,8.222c0.62,0.461,1.156-0.476,0.757-0.982c-1.88-2.391-3.977-4.589-5.897-6.947
			c-0.385-0.473-1.28,0.036-1.044,0.608c1.354,3.291,3.539,5.915,6.507,7.887c0.622,0.412,1.204-0.473,0.757-0.982
			c-1.855-2.114-3.666-4.257-5.413-6.463c-0.458-0.577-1.301,0.158-0.981,0.758c1.619,3.032,3.766,5.275,6.399,7.479
			c0.61,0.51,1.452-0.294,0.884-0.885c-1.602-1.664-2.977-3.837-4.974-5.025c-0.432-0.257-1.136,0.177-0.918,0.706
			c1.205,2.924,3.84,5.466,6.346,7.321c0.605,0.447,1.19-0.478,0.757-0.982c-1.697-1.979-3.707-3.601-5.574-5.413
			c-0.595-0.577-1.365,0.266-0.884,0.885c1.732,2.226,3.743,3.808,6.023,5.43c0.584,0.415,1.271-0.504,0.757-0.982
			c-1.257-1.171-2.521-2.186-3.923-3.167c-0.506-0.354-1.211,0.349-0.855,0.855c2.951,4.195,8.511,6.354,13.464,5.802
			c0.515-0.058,0.862-0.649,0.442-1.067c0.789,0.785-0.663-0.396-0.663-1.496c0,0.436,0.546,0.829,0.94,0.54
			c0.931-0.686,0.845-0.575,1.436-1.598c0.35-0.604-0.5-1.297-0.981-0.758c-0.595,0.666-0.719,0.832-1.229,1.581
			c0.36,0.21,0.719,0.421,1.079,0.631c0.546-1.235,0.525-1.104,0.651-2.416c0.07-0.725-1.032-0.817-1.228-0.166
			c-0.081,0.27-0.162,0.538-0.242,0.808c-0.234,0.779,0.941,1.084,1.205,0.332c0.274-0.649,0.463-1.322,0.565-2.02
			c0.173-0.808-0.902-1.061-1.205-0.332c-0.428,0.812-0.697,1.674-0.808,2.585c-0.148,0.691,0.757,1.093,1.142,0.481
			c0.838-1.328,0.697-0.983,0.812-2.577c0.054-0.747-1-0.789-1.228-0.166c-0.461,1.259-0.748,2.355-0.099,3.552
			c0.177,0.326,0.55,0.354,0.855,0.225c1.024-0.438,1.157-1.127,1.118-2.236c-0.023-0.657-0.807-0.806-1.165-0.315
			c-0.829,1.135-1.098,1.981-0.974,3.385c0.039,0.437,0.513,0.824,0.94,0.54c1.154-0.77,1.744-2.146,0.191-2.923
			c-0.188-0.095-0.446-0.134-0.631,0c-1.033,0.746-1.452,2.201-0.816,3.361c0.099,0.181,0.33,0.326,0.54,0.31
			c1.252-0.098,2.9-2.171,2.032-3.351c-0.123-0.167-0.312-0.336-0.54-0.31c-1.452,0.166-2.856,2.489-1.06,3.423
			c3.097,1.611,1.34-4.416,1.459-5.166c0.124-0.786-1.074-1.128-1.205-0.332c-0.276,1.668-0.127,2.907,0.323,4.532
			c0.153,0.553,1.114,0.641,1.205,0c0.234-1.639,0.235-1.238,0.104-2.912c-0.058-0.727-0.968-0.821-1.228-0.166
			c-0.485,1.222-1.038,3.146,0.161,4.082c0.224,0.174,0.494,0.255,0.758,0.098c1.212-0.725,1.269-1.927,0.771-3.211
			c-0.193-0.501-0.832-0.632-1.142-0.149c-2.918,4.531,4.566,3.417,1.79,0.035c-0.128-0.155-0.421-0.232-0.608-0.16
			c-4.124,1.586,2.913,5.768,1.495,1.082c-0.145-0.479-0.899-0.665-1.143-0.149c-1.161,2.47,2.333,3.056,2.216,0.315
			c-0.027-0.637-0.817-0.833-1.165-0.315c-1.381,2.061,1.365,2.616,2.534,0.954c0.385-0.548-0.342-1.122-0.855-0.855
			c-0.638,0.332-0.661,0.354-1.032,0.952c-0.278,0.449,0.184,1.1,0.706,0.918c1.099-0.382,0.979-0.326,2.007-0.951
			c0.605-0.369,0.21-1.327-0.481-1.143c-1.175,0.312-0.911,0.189-1.927,0.87c-0.613,0.411-0.21,1.253,0.481,1.143
			c2.932-0.467,5.078-1.917,7.382-3.699c3.312-2.562,3.522-7.198,6.224-10.112c0.374-0.404,0.11-1.049-0.442-1.067
			c-2.876-0.095-1.886,2.032-2.622,4.175c0.401,0,0.804,0,1.205,0c-0.109-1.048-0.21-2.097-0.301-3.146
			c-0.062-0.697-0.998-0.858-1.228-0.166c-0.702,2.117-1.182,4.282-1.938,6.382c-0.278,0.772,0.903,1.054,1.205,0.332
			c0.685-1.636,1.086-3.345,1.696-5.009c-0.401-0.11-0.804-0.222-1.205-0.332c-0.592,2.056-1.251,4.089-1.858,6.14
			c-0.23,0.777,0.957,1.094,1.205,0.332c0.563-1.732,0.836-3.296,0.992-5.094c0.063-0.728-1.027-0.815-1.228-0.166
			c-0.553,1.794-0.843,3.554-0.992,5.417c-0.057,0.71,1.064,0.843,1.228,0.166c0.466-1.928,0.584-3.884,1.051-5.816
			c-0.401-0.11-0.804-0.222-1.205-0.332c-0.27,1.266-0.539,2.531-0.809,3.797c-0.167,0.784,1.023,1.12,1.205,0.332
			c0.391-1.693,0.527-3.176,0.508-4.932c-0.009-0.806-1.259-0.807-1.25,0c0.108,1.553-0.046,3.086-0.463,4.6
			c0.401,0.11,0.804,0.222,1.205,0.332c0.271-1.266,0.54-2.531,0.809-3.797c0.167-0.783-1.015-1.119-1.205-0.332
			c-0.466,1.928-0.584,3.884-1.051,5.816c0.409,0.056,0.818,0.11,1.228,0.166c0.146-1.82,0.418-3.366,0.947-5.085
			c-0.409-0.056-0.818-0.11-1.228-0.166c-0.03,1.652-0.347,3.239-0.947,4.762c0.401,0.11,0.804,0.222,1.205,0.332
			c0.608-2.051,1.267-4.084,1.858-6.14c0.227-0.786-0.932-1.077-1.205-0.332c-0.611,1.663-1.012,3.372-1.696,5.009
			c0.401,0.11,0.804,0.222,1.205,0.332c0.757-2.1,1.237-4.265,1.938-6.382c-0.409-0.056-0.818-0.11-1.228-0.166
			c0.107,1.194,0.104,2.306,0.346,3.479c0.133,0.648,1.019,0.543,1.205,0c0.248-0.722,0.385-3.291,1.417-3.257
			c-0.147-0.355-0.295-0.711-0.442-1.067c-1.604,1.731-1.974,3.639-3.087,5.7c-2.153,3.99-5.322,7.052-9.966,7.791
			c0.16,0.381,0.321,0.762,0.481,1.143c0.543-0.249,1.085-0.497,1.628-0.745c-0.16-0.381-0.321-0.762-0.481-1.143
			c-0.569,0.275-1.139,0.551-1.708,0.826c0.235,0.306,0.471,0.612,0.706,0.918c0.194-0.168,0.389-0.336,0.583-0.503
			c-0.285-0.285-0.57-0.57-0.855-0.855c-0.125,0.103-0.249,0.205-0.374,0.308c-0.389-0.105-0.776-0.21-1.165-0.315
			c0.038,0.105,0.076,0.21,0.114,0.315c-0.381-0.05-0.762-0.1-1.143-0.149c-0.131-0.22-0.262-0.438-0.392-0.658
			c-0.381-0.05-0.762-0.1-1.143-0.149c0.405-0.203,0.646-0.526,0.721-0.969c-0.41-0.056-0.819-0.11-1.228-0.166
			c-0.02,0.86-0.039,1.72-0.058,2.58c0.402,0,0.803,0,1.205,0c-0.107-1.289-0.216-2.579-0.323-3.868
			c-0.402-0.11-0.803-0.222-1.205-0.332c-0.116,0.732-0.191,1.29-0.265,2.023c-0.249,2.45,0.492,0.923,1.407-0.33
			c-0.388-0.105-0.776-0.21-1.165-0.315c0.272-0.365,0.466-0.768,0.581-1.208c-0.409-0.056-0.818-0.11-1.228-0.166
			c-0.214,0.648-0.428,1.298-0.642,1.946c0.381,0.16,0.761,0.321,1.142,0.481c0.111-0.911,0.38-1.772,0.808-2.585
			c-0.402-0.11-0.803-0.222-1.205-0.332c-0.103,0.697-0.292,1.37-0.565,2.02c0.402,0.11,0.803,0.222,1.205,0.332
			c0.081-0.27,0.162-0.538,0.242-0.808c-0.409-0.056-0.818-0.11-1.228-0.166c-0.16,0.595-0.32,1.19-0.48,1.785
			c-0.323,0.729,0.619,1.309,1.079,0.631c0.345-0.442,0.689-0.885,1.033-1.327c-0.327-0.253-0.654-0.506-0.981-0.758
			c-0.016,0.536-0.032,1.071-0.047,1.607c0-0.367-0.408-0.763-0.791-0.603c-0.323,0.135-0.646,0.27-0.969,0.404
			c-0.283,0.118-0.578,0.426-0.437,0.769c0.183,0.352,0.365,0.702,0.548,1.054c-0.126,0.253-0.111,0.55,0.098,0.758
			c0.027,0.026,0.054,0.053,0.081,0.08c0.147-0.356,0.294-0.712,0.442-1.067c-4.373,0.487-9.758-1.448-12.385-5.183
			c-0.285,0.285-0.57,0.57-0.855,0.855c1.33,0.862,2.554,1.854,3.67,2.972c0.252-0.328,0.505-0.655,0.757-0.982
			c-2.186-1.554-4.125-3.119-5.771-5.234c-0.294,0.295-0.589,0.59-0.884,0.885c1.867,1.812,3.876,3.434,5.574,5.413
			c0.252-0.327,0.505-0.655,0.757-0.982c-1.953-1.445-4.834-4.301-5.771-6.573c-0.306,0.235-0.612,0.471-0.918,0.706
			c1.814,1.079,3.276,3.328,4.721,4.83c0.294-0.295,0.589-0.59,0.884-0.885c-2.524-2.111-4.632-4.281-6.204-7.225
			c-0.327,0.253-0.654,0.505-0.981,0.758c1.747,2.205,3.558,4.348,5.413,6.463c0.252-0.327,0.505-0.655,0.757-0.982
			c-2.678-1.778-4.702-4.146-5.933-7.139c-0.348,0.202-0.696,0.405-1.044,0.608c1.92,2.357,4.017,4.556,5.897,6.947
			c0.252-0.328,0.505-0.655,0.757-0.982c-2.78-2.068-4.571-4.764-6.158-7.772c-0.327,0.253-0.654,0.505-0.981,0.758
			c1.75,2.103,3.571,4.14,5.251,6.301c0.252-0.327,0.505-0.655,0.757-0.982c-3.16-2.385-5.497-5.366-6.902-9.078
			c-0.348,0.202-0.696,0.405-1.044,0.608c1.638,2.035,3.872,4.853,4.848,7.317c0.348-0.202,0.696-0.405,1.044-0.608
			c-2.182-1.808-3.805-5.203-4.767-7.802c-0.348,0.202-0.696,0.405-1.044,0.608c1.71,2.069,2.777,4.469,4.022,6.82
			c0.327-0.252,0.654-0.505,0.981-0.758c-1.721-2.026-2.923-4.212-3.717-6.752c-0.381,0.16-0.761,0.321-1.142,0.481
			c1.62,2.153,3.204,4.233,4.137,6.798c0.348-0.202,0.696-0.405,1.044-0.608c-2.102-1.745-2.668-4.413-3.699-6.82
			c-0.36,0.21-0.719,0.421-1.079,0.631c1.34,2.062,2.661,4.133,3.958,6.221c0.36-0.21,0.719-0.421,1.079-0.631
			c-0.72-0.981-3.51-5.847-0.699-1.823c1.632,2.335,2.948,4.786,3.677,7.556c0.402-0.11,0.803-0.222,1.205-0.332
			c-0.557-1.467-0.967-2.638-0.866-4.277c-0.388,0.105-0.776,0.21-1.165,0.315c0.787,1.413,0.757,2.866,0.642,4.37
			c0.409-0.056,0.818-0.11,1.228-0.166c-0.289-1.19-0.549-2.377-0.889-3.555c-0.157-0.547-1.115-0.646-1.205,0
			c-0.192,1.378,0.004,2.052,0.565,3.401c0.381-0.16,0.761-0.321,1.142-0.481c-0.929-1.949-1.449-3.876-1.795-5.989
			c-0.402,0.11-0.803,0.222-1.205,0.332c0.509,1.986,1.439,3.791,1.432,5.893c0.409-0.056,0.818-0.11,1.228-0.166
			c-0.7-2.213-1.243-4.429-1.696-6.705c-0.381,0.16-0.761,0.321-1.142,0.481c1.047,1.809,1.694,3.624,1.691,5.743
			c0.409-0.056,0.818-0.11,1.228-0.166c-0.825-2.358-1.164-4.768-0.727-7.262c-0.402,0-0.803,0-1.205,0
			c0.592,1.791,0.504,3.496,0.624,5.327c0.052,0.797,1.244,0.812,1.25,0c0.017-2.149-0.13-4.248,0.301-6.377
			c-0.402,0-0.803,0-1.205,0c0.139,1.268,0.132,2.531-0.022,3.792c0.417,0,0.833,0,1.25,0c0.01-2.269-0.125-4.462,0.704-6.619
			c0.222-0.576-0.652-1.08-1.044-0.608c-0.952,1.147-1.072,2.306-1.453,3.75c0.409,0.056,0.818,0.11,1.228,0.166
			c0.027-1.023,0.054-2.047,0.081-3.07c0.019-0.706-1.058-0.852-1.228-0.166c-0.309,1.245-0.611,2.484-0.969,3.716
			c0.409,0.056,0.818,0.11,1.228,0.166c0.073-0.968,0.146-1.936,0.22-2.903c-0.409-0.056-0.818-0.11-1.228-0.166
			c-0.081,1.454-0.162,2.908-0.242,4.362c0.417,0,0.833,0,1.25,0c-0.229-1.723-0.39-4.09-2.087-4.983
			c-0.262-0.138-0.538-0.097-0.757,0.098c-1.196,1.061,0.274,3.258,0.791,4.394c0.36-0.21,0.719-0.421,1.079-0.631
			c-0.696-1.384-1.348-2.788-1.957-4.213c-0.381,0.16-0.761,0.321-1.142,0.481c0.989,1.456,1.914,2.938,2.827,4.443
			c0.36-0.21,0.719-0.421,1.079-0.631c-0.69-0.901-1.484-1.711-2.248-2.551c-2.534-2.782,1.336-0.793,2.512-0.328
			c0.111-0.401,0.221-0.804,0.332-1.205c-1.834-0.443-3.54-0.535-5.263-1.473c-0.161,0.381-0.321,0.762-0.481,1.143
			c3.506,1.237,1.957,0.973,4.604,1.535c0.685,0.146,1.104-0.765,0.481-1.143c-1.42-0.861-2.705-0.609-4.354-0.489
			c0.055,0.409,0.111,0.818,0.166,1.228c1.406-0.403,2.7-0.155,3.881,0.745c0.105-0.389,0.21-0.776,0.315-1.165
			c-1.875-0.09-3.558-0.729-5.051-1.917c-0.203,0.349-0.405,0.697-0.608,1.045c0.215,0.054,0.431,0.107,0.646,0.161
			C231.165,288.413,231.497,287.207,230.715,287.013L230.715,287.013z"/>
	</g>
	<g>
		<path fill="#070707" d="M264.307,300.919c2.636-1.313,4.454-5.54,4.349-8.376c-0.023-0.62-0.834-0.854-1.165-0.315
			c-1.494,2.437-2.055,5.228-2.971,7.904c-0.266,0.774,0.915,1.064,1.205,0.332c0.764-1.931,1.763-3.73,2.685-5.586
			c0.358-0.722-0.634-1.306-1.08-0.631c-0.85,1.288-1.445,2.619-1.84,4.107c-0.157,0.591,0.606,1.073,1.045,0.608
			c1.448-1.539,3.494-3.979,2.359-6.17c-0.147-0.283-0.588-0.414-0.855-0.225c-1.002,0.712-1.278,1.756-1.278,2.964
			c0,0.667,0.815,0.792,1.165,0.315c0.772-1.056,0.966-2.232,1.354-3.462c0.743-2.348,2.212-4.491,3.25-6.717
			c-0.381-0.16-0.762-0.321-1.143-0.481c-0.474,3.166-1.816,5.986-3.089,8.897c0.381,0.16,0.762,0.321,1.143,0.481
			c0.928-2.224,1.925-4.408,2.666-6.704c0.222-0.686-0.789-1.085-1.143-0.481c-1.089,1.862-1.875,3.847-2.746,5.816
			c0.381,0.16,0.762,0.321,1.143,0.481c0.81-2.186,1.65-4.294,1.88-6.629c0.054-0.549-0.717-0.82-1.067-0.442
			c-0.778,0.84-1.274,1.821-1.875,2.793c0.381,0.16,0.762,0.321,1.143,0.481c0.466-1.146,1.067-2.125,1.715-3.163
			c0.37-0.593-0.534-1.318-0.982-0.758c-0.655,0.823-1.538,2.126-2.788,1.999c0.18,0.313,0.359,0.627,0.54,0.94
			c0.598-0.745,1.335-1.161,2.211-1.248c-0.16-0.381-0.321-0.762-0.481-1.143c-0.964,0.41-2.003,0.539-3.001,0.826
			c-0.789,0.228-0.448,1.335,0.332,1.205c0.51-0.046,1.021-0.093,1.53-0.139c0.805-0.02,0.808-1.255,0-1.25
			c-2.264,0.013-4.264-0.564-6.458-0.866c-0.402-0.056-0.977,0.271-0.769,0.769c0.938,2.243,1.786,4.315,1.916,6.78
			c0.042,0.8,1.272,0.81,1.25,0c-0.058-2.037-0.327-4.006-0.83-5.981c-0.18-0.705-1.196-0.522-1.228,0.166
			c-0.12,2.621,0.099,5.177,0.911,7.679c0.215,0.661,1.228,0.558,1.228-0.166c0-1.319,0-2.64,0-3.959c0-0.807-1.233-0.805-1.25,0
			c-0.037,1.779-0.148,3.513,0.265,5.256c0.121,0.512,0.898,0.631,1.143,0.149c1.229-2.429,1.179-5.387,3.295-7.306
			c-0.349-0.203-0.697-0.406-1.045-0.608c-0.321,1.402-0.877,2.722-1.212,4.12c-0.194,0.808,0.902,1.054,1.205,0.332
			c0.781-1.859,1.013-3.655,0.83-5.659c-0.044-0.479-0.687-0.911-1.067-0.442c-1.321,1.631-1.987,4.629-1.452,6.667
			c0.142,0.541,0.859,0.595,1.143,0.149c1.171-1.842,1.491-4.011,1.032-6.136c-0.108-0.502-0.707-0.55-1.045-0.276
			c-1.281,1.041-1.578,3.081-1.476,4.643c0.032,0.493,0.687,0.893,1.067,0.442c1.149-1.365,1.482-3.322,0.744-4.958
			c-0.129-0.284-0.604-0.417-0.855-0.225c-1.085,0.83-1.515,1.905-1.44,3.286c0.028,0.535,0.663,0.839,1.067,0.442
			c0.925-0.91,1.384-2.729,0.242-3.631c-1.289-1.018-2.011,1.286-1.956,2.139c0.041,0.646,0.8,0.818,1.165,0.315
			c1.891-2.608-1.616-3.789-1.783-1.266c-0.153,2.307,2.214,2.592,2.307,0.159c0.088-2.307-2.946-1.92-2.526,0.277
			c0.725,3.8,4.076,4.952,6.671,1.764c0.444-0.547-0.1-1.312-0.758-0.982c-0.107,0.055-0.216,0.108-0.323,0.162
			c0.313,0.181,0.627,0.36,0.94,0.54c-0.08-0.378-0.08-0.755,0-1.132c0.065-0.587-0.705-0.766-1.067-0.442
			c-0.417,0.338-0.794,0.715-1.131,1.132c-0.452,0.501,0.158,1.42,0.758,0.982c0.305-0.244,0.628-0.46,0.97-0.646
			c-0.306-0.235-0.612-0.471-0.918-0.706c-0.164,0.804-0.41,1.505-0.727,2.262c-0.312,0.743,0.898,1.064,1.205,0.332
			c0.317-0.756,0.562-1.458,0.727-2.262c0.105-0.517-0.421-1.006-0.918-0.706c-0.342,0.188-0.665,0.403-0.97,0.646
			c0.253,0.327,0.505,0.655,0.758,0.982c0.337-0.418,0.714-0.795,1.131-1.132c-0.356-0.147-0.712-0.295-1.067-0.442
			c-0.08,0.377-0.08,0.754,0,1.132c0.049,0.481,0.49,0.766,0.94,0.54c0.107-0.055,0.216-0.108,0.323-0.162
			c-0.252-0.327-0.505-0.655-0.758-0.982c-1.151,1.417-2.97,2.215-4.089,0.305c-0.297-0.451-0.438-0.938-0.421-1.461
			c0.127,1.148,0.188-0.27-0.354,0.476c0.389,0.105,0.776,0.21,1.165,0.315c-0.141,0.202-0.28,0.405-0.421,0.607
			c0.356,0.147,0.712,0.295,1.067,0.442c-0.134-0.868,0.14-1.604,0.821-2.206c-0.285-0.075-0.57-0.149-0.855-0.225
			c0.406,1.263,0.223,2.41-0.549,3.442c0.356,0.147,0.712,0.295,1.067,0.442c-0.081-1.233,0.077-2.92,1.11-3.758
			c-0.349-0.093-0.697-0.185-1.045-0.276c0.389,1.803,0.085,3.613-0.907,5.173c0.381,0.05,0.762,0.1,1.143,0.149
			c-0.4-1.525,0.117-4.199,1.132-5.45c-0.356-0.147-0.712-0.295-1.067-0.442c0.171,1.873-0.056,3.59-0.785,5.327
			c0.401,0.11,0.804,0.222,1.205,0.332c0.336-1.397,0.891-2.718,1.212-4.12c0.142-0.619-0.577-1.032-1.045-0.608
			c-2.277,2.066-2.172,4.958-3.49,7.56c0.381,0.05,0.762,0.1,1.143,0.149c-0.389-1.64-0.255-3.261-0.22-4.924
			c-0.417,0-0.833,0-1.25,0c0,1.319,0,2.64,0,3.959c0.409-0.056,0.818-0.11,1.228-0.166c-0.779-2.401-0.981-4.838-0.866-7.347
			c-0.409,0.056-0.818,0.11-1.228,0.166c0.474,1.861,0.731,3.729,0.785,5.649c0.417,0,0.833,0,1.25,0
			c-0.135-2.558-0.98-4.767-1.961-7.112c-0.256,0.256-0.513,0.513-0.769,0.769c2.36,0.324,4.352,0.925,6.79,0.911
			c0-0.417,0-0.833,0-1.25c-0.823,0.02-1.048,0.048-1.862,0.184c0.11,0.401,0.222,0.804,0.332,1.205
			c1.124-0.323,2.221-0.492,3.3-0.951c0.69-0.294,0.168-1.268-0.481-1.143c-1.241,0.239-2.296,0.716-2.959,1.822
			c-0.263,0.439,0.087,0.895,0.54,0.94c1.687,0.172,2.703-1.149,3.673-2.364c-0.327-0.253-0.655-0.506-0.982-0.758
			c-0.705,1.131-1.34,2.229-1.84,3.462c-0.275,0.678,0.784,1.061,1.143,0.481c0.534-0.865,0.979-1.784,1.68-2.539
			c-0.356-0.147-0.712-0.295-1.067-0.442c-0.219,2.218-1.068,4.229-1.835,6.297c-0.245,0.662,0.856,1.128,1.143,0.481
			c0.87-1.97,1.656-3.954,2.746-5.816c-0.381-0.16-0.762-0.321-1.143-0.481c-0.74,2.294-1.739,4.481-2.666,6.704
			c-0.272,0.652,0.86,1.128,1.143,0.481c1.31-3,2.726-5.928,3.214-9.196c0.096-0.64-0.816-1.18-1.143-0.481
			c-0.93,1.996-2.037,3.897-2.955,5.898c-0.643,1.401-0.729,3.024-1.649,4.28c0.389,0.105,0.776,0.21,1.165,0.315
			c-0.084-0.727,0.136-1.355,0.659-1.884c-0.285-0.075-0.57-0.149-0.855-0.225c0.794,1.532-1.22,3.651-2.164,4.654
			c0.349,0.203,0.697,0.406,1.045,0.608c0.367-1.384,0.929-2.619,1.715-3.809c-0.36-0.21-0.72-0.421-1.08-0.631
			c-0.969,1.953-2.007,3.854-2.81,5.885c0.401,0.11,0.804,0.222,1.205,0.332c0.881-2.572,1.408-5.262,2.846-7.605
			c-0.389-0.105-0.776-0.21-1.165-0.315c0.089,2.396-1.505,6.188-3.729,7.296C262.954,300.199,263.588,301.277,264.307,300.919
			L264.307,300.919z"/>
	</g>
	<g>
		<path fill="#070707" d="M342.472,334.068c0.062,0.292,0.058,0.588,0.059,0.885c0.409-0.056,0.818-0.11,1.228-0.166
			c-0.07-0.401-0.092-0.81-0.161-1.212c-0.122-0.71-1.228-0.521-1.228,0.166c0,0.431,0,0.861,0,1.292
			c0.409-0.056,0.818-0.11,1.228-0.166c-0.09-0.456-0.166-0.915-0.243-1.373c-0.103-0.617-1.074-0.58-1.205,0
			c-0.137,0.606-0.042,1.171-0.022,1.782c0.026,0.804,1.25,0.808,1.25,0c0-0.484,0-0.97,0-1.454c0-0.825-1.161-0.78-1.25,0
			c-0.075,0.661,0.02,1.326,0.266,1.943c0.216,0.542,1.031,0.646,1.205,0c0.15-0.559,0.241-1.125,0.322-1.697
			c-0.409-0.056-0.818-0.11-1.228-0.166c0.01,0.493,0.088,0.976,0.185,1.459c0.133,0.666,1.004,0.521,1.205,0
			c0.24-0.621,0.264-1.284,0.265-1.943c-0.417,0-0.833,0-1.25,0c0.007,0.62,0.073,1.238,0.081,1.858c0.011,0.806,1.248,0.807,1.25,0
			c0.001-0.416,0.021-0.806,0.139-1.208c-0.409-0.056-0.818-0.11-1.228-0.166c0,0.431,0,0.862,0,1.293
			c0,0.708,1.04,0.849,1.228,0.166c0.158-0.576,0.112-1.125,0-1.705c-0.113-0.586-1.115-0.612-1.205,0
			c-0.087,0.594-0.104,1.182-0.104,1.781c-0.001,0.806,1.249,0.806,1.25,0c0-0.481-0.012-0.972,0.059-1.449
			c-0.401,0-0.804,0-1.205,0c0.069,0.358,0.098,0.685,0,1.041c0.409,0.056,0.818,0.11,1.228,0.166c0-0.431,0-0.862,0-1.293
			c0-0.713-1.03-0.842-1.228-0.166c-0.147,0.505-0.183,1.017-0.184,1.54c0.417,0,0.833,0,1.25,0
			c-0.008-0.62-0.074-1.238-0.081-1.858c-0.01-0.806-1.249-0.807-1.25,0c-0.001,0.558-0.017,1.085-0.22,1.611
			c0.401,0,0.804,0,1.205,0c-0.075-0.377-0.132-0.742-0.14-1.127c-0.014-0.679-1.125-0.885-1.228-0.166
			c-0.082,0.572-0.172,1.139-0.322,1.697c0.401,0,0.804,0,1.205,0c-0.211-0.53-0.286-1.044-0.221-1.611c-0.417,0-0.833,0-1.25,0
			c0,0.484,0,0.97,0,1.454c0.417,0,0.833,0,1.25,0c-0.016-0.484-0.13-0.971-0.022-1.45c-0.401,0-0.804,0-1.205,0
			c0.076,0.459,0.153,0.917,0.243,1.373c0.139,0.706,1.228,0.524,1.228-0.166c0-0.431,0-0.861,0-1.292
			c-0.409,0.056-0.818,0.11-1.228,0.166c0.069,0.402,0.091,0.81,0.161,1.212c0.124,0.709,1.229,0.521,1.228-0.166
			c-0.001-0.41-0.019-0.814-0.104-1.217C343.512,332.947,342.307,333.282,342.472,334.068L342.472,334.068z"/>
	</g>
	<g>
		<path fill="#070707" d="M344.844,344.702c0.138-0.08,0.242-0.127,0.407-0.1c0.788,0.133,1.126-1.072,0.332-1.205
			c-0.498-0.084-0.929-0.031-1.37,0.225C343.516,344.026,344.145,345.106,344.844,344.702L344.844,344.702z"/>
	</g>
	<g>
		<path fill="#070707" d="M345.927,312.342c-0.09,0.108-0.044,0.087,0.137-0.066c0.147,0.061,0.295,0.122,0.442,0.183
			c-0.389-0.388-0.812-0.207-1.303-0.151c-0.632,0.071-1.267,0.107-1.891,0.233c-0.79,0.159-0.455,1.364,0.332,1.205
			c0.825-0.167,1.675-0.172,2.504-0.323c-0.202-0.054-0.405-0.107-0.608-0.16c0.504,0.503,1.107,0.196,1.467-0.289
			C347.486,312.323,346.4,311.701,345.927,312.342L345.927,312.342z"/>
	</g>
	<g>
		<path fill="#070707" d="M342.311,311.765c-0.162,0.484-0.323,0.969-0.484,1.454c0.409,0.056,0.818,0.11,1.228,0.166
			c0.011-0.37,0.091-0.7,0.22-1.046c-0.401-0.11-0.804-0.222-1.205-0.332c-0.081,0.403-0.162,0.808-0.242,1.212
			c0.401,0.11,0.804,0.222,1.205,0.332c0.155-0.805,0.249-1.619,0.403-2.424c0.151-0.787-1.053-1.123-1.205-0.332
			c-0.155,0.805-0.249,1.619-0.403,2.424c-0.151,0.786,1.048,1.124,1.205,0.332c0.08-0.404,0.161-0.808,0.242-1.212
			c0.16-0.797-0.925-1.085-1.205-0.332c-0.167,0.447-0.251,0.901-0.265,1.378c-0.021,0.731,1.012,0.815,1.228,0.166
			c0.161-0.484,0.322-0.97,0.484-1.454C343.772,311.33,342.564,311.004,342.311,311.765L342.311,311.765z"/>
	</g>
	<g>
		<path fill="#070707" d="M335.315,317.225c-0.126,0.047-0.213,0.09-0.317,0.176c0.52-0.024,0.629-0.083,0.326-0.176
			c-0.102-0.024-0.205-0.041-0.309-0.052c-0.406-0.049-0.779,0.005-1.143,0.195c-0.714,0.376-0.082,1.454,0.631,1.08
			c0.264-0.139,0.513,0.04,0.773,0.066c0.146,0.015,0.26-0.015,0.392-0.078c0.138-0.065,0.38-0.157-0.021-0.007
			C336.396,318.149,336.071,316.94,335.315,317.225L335.315,317.225z"/>
	</g>
	<g>
		<path fill="#070707" d="M315.15,342.069c-0.095,0.135-0.206,0.246-0.341,0.341c0.285,0.285,0.57,0.57,0.855,0.855
			c0.143-0.215,0.284-0.418,0.468-0.601c-0.295-0.295-0.59-0.59-0.885-0.885c-0.428,0.494-0.88,0.969-1.408,1.356
			c-0.643,0.472-0.021,1.558,0.631,1.08c0.619-0.455,1.158-0.973,1.662-1.552c0.523-0.603-0.309-1.46-0.885-0.885
			c-0.256,0.257-0.462,0.554-0.663,0.854c-0.339,0.508,0.344,1.218,0.855,0.855c0.319-0.227,0.563-0.471,0.79-0.79
			C316.697,342.041,315.613,341.418,315.15,342.069L315.15,342.069z"/>
	</g>
	<g>
		<path fill="#070707" d="M309.021,485.84c-0.022-0.109-0.059-0.213-0.081-0.322c-0.146-0.703-1.228-0.526-1.228,0.166
			c0,0.135,0,0.269,0,0.403c0,0.695,1.071,0.865,1.228,0.166c0.062-0.277,0.055-0.461-0.062-0.724
			c-0.264-0.591-1.165-0.267-1.165,0.315c0,0.107,0,0.216,0,0.323c0.409-0.056,0.818-0.11,1.228-0.166
			c-0.114-0.417-0.044-0.798,0.081-1.203c0.239-0.772-0.968-1.1-1.205-0.332c-0.19,0.615-0.253,1.24-0.081,1.867
			c0.187,0.683,1.228,0.542,1.228-0.166c0-0.107,0-0.216,0-0.323c-0.389,0.105-0.776,0.21-1.165,0.315
			c0.013,0.027,0.024,0.054,0.036,0.081c-0.021-0.161-0.042-0.321-0.062-0.481c-0.013,0.054-0.024,0.107-0.036,0.161
			c0.409,0.056,0.818,0.11,1.228,0.166c0-0.135,0-0.269,0-0.403c-0.409,0.056-0.818,0.11-1.228,0.166
			c0.022,0.109,0.059,0.213,0.081,0.322C307.979,486.961,309.185,486.626,309.021,485.84L309.021,485.84z"/>
	</g>
</g>
</svg>
