<?xml version="1.0" encoding="utf-8"?>
<!-- Generator: Adobe Illustrator 16.0.0, SVG Export Plug-In . SVG Version: 6.00 Build 0)  -->
<!DOCTYPE svg PUBLIC "-//W3C//DTD SVG 1.1//EN" "http://www.w3.org/Graphics/SVG/1.1/DTD/svg11.dtd">
<svg version="1.1" id="Layer_1" xmlns="http://www.w3.org/2000/svg" xmlns:xlink="http://www.w3.org/1999/xlink" x="0px" y="0px"
	 width="500px" height="550px" viewBox="0 0 500 550" enable-background="new 0 0 500 550" xml:space="preserve">
<g>
	<g>
		<path fill="#070707" d="M362.037,105.449c-10.679-19.567-28.92-33.026-49.436-40.985c-10.485-4.068-21.596-6.418-32.775-7.468
			c-13.515-1.27-27.072,0.477-40.507,1.881c-15.088,1.578-30.632,2.171-45.517,5.148c-13.392,2.678-26.11,8.521-37.055,16.639
			c-16.9,12.536-28.738,30.146-35.802,49.814c-14.841,41.322-9.294,87.461-6.261,130.256c2.165,30.537,1.145,60.853-1.257,91.345
			c-2.192,27.824-2.537,54.783,9.105,80.73c5.448,12.141,13.326,23.043,22.413,32.707c1.106,1.178,2.871-0.594,1.768-1.768
			c-19.273-20.5-30.41-46.02-32.064-74.129c-0.923-15.689,0.825-31.506,2.032-47.133c1.259-16.291,1.935-32.643,1.899-48.982
			c-0.102-46.653-9.554-93.363-1.149-139.83c3.953-21.853,12.583-42.789,27.729-59.275c9.173-9.985,20.513-17.82,33.018-23.017
			c14.536-6.042,29.994-6.717,45.441-8.332c15.031-1.572,30.19-3.86,45.321-4.015c11.866-0.122,23.703,1.782,35.064,5.137
			c23.021,6.797,44.223,21.189,55.874,42.538C360.651,108.126,362.81,106.865,362.037,105.449L362.037,105.449z"/>
	</g>
	<g>
		<path fill="#070707" d="M171.49,482.443c22.784,14.105,51.895,13.967,77.701,11.816c13.325-1.109,26.564-3.143,39.737-5.398
			c13.884-2.377,29.446-3.492,41.589-11.201c1.356-0.861,0.104-3.025-1.262-2.158c-11.908,7.559-27.363,8.598-40.992,10.949
			c-12.958,2.236-25.97,4.154-39.072,5.309c-25.317,2.232-54.1,2.355-76.439-11.475C171.377,479.434,170.123,481.598,171.49,482.443
			L171.49,482.443z"/>
	</g>
	<g>
		<path fill="#070707" d="M202.401,65.102c1.612,0,1.612-2.5,0-2.5S200.789,65.102,202.401,65.102L202.401,65.102z"/>
	</g>
	<g>
		<path fill="#070707" d="M118.262,140.627c-3.114-1.723-7.079-1.765-10.414-3.225c-4.989-2.183-9.097-5.814-12.028-10.371
			c-5.42-8.427-4.056-19.3,1-27.462c4.536-7.322,12.454-12.144,20.627-14.293c9.102-2.393,21.203-1.499,27.968,5.525
			c1.12,1.163,2.886-0.607,1.768-1.768c-7.128-7.4-18.084-8.081-27.765-6.702c-9.621,1.371-18.309,7.188-24.021,14.891
			c-5.997,8.088-7.086,18.963-3.233,28.166c1.89,4.514,5.213,8.079,9.039,11.024c2.176,1.674,4.789,3.029,7.349,4.003
			c2.564,0.976,6.112,1.077,8.449,2.37C118.412,143.567,119.673,141.408,118.262,140.627L118.262,140.627z"/>
	</g>
	<g>
		<path fill="#070707" d="M343.386,84.054c14.636-7.555,37.369-11.126,47.904,4.582c10.602,15.808,4.175,41.5-16.195,44.924
			c-1.588,0.267-0.912,2.676,0.664,2.411c22.107-3.716,27.974-30.062,18.362-47.493c-10.206-18.508-36.182-14.747-51.997-6.583
			C340.691,82.635,341.956,84.792,343.386,84.054L343.386,84.054z"/>
	</g>
	<g>
		<path fill="#070707" d="M228.858,163.257c0.41-0.066,0.82-0.132,1.23-0.198c-0.147-0.356-0.294-0.711-0.442-1.067
			c-0.828,0.881-4.178,1.221-5.441,2.019c-2.655,1.678-5.095,3.692-7.355,5.864c-3.507,3.37-6.758,7.959-5.804,13.036
			c1.058,5.624,8.794,8.308,13.618,8.844c8.739,0.971,17.095-4.338,25.776-4.626c10.292-0.342,26.745,11.243,30.479-5.061
			c2.754-12.025-13.93-19.209-22.578-22.406c-0.758-0.28-1.081,0.928-0.332,1.205c9.039,3.341,24.208,9.939,21.448,21.988
			c-1.922,8.393-10.24,7.362-16.498,5.537c-4.679-1.364-8.978-2.631-13.896-2.467c-5.909,0.196-11.677,2.725-17.398,3.991
			c-6.687,1.479-19.074-0.053-19.611-8.936c-0.343-5.674,6.031-10.883,10.013-13.953c1.631-1.258,3.439-2.732,5.482-3.163
			c0.829-0.175,2.357-0.325,2.979-0.986c0.342-0.364,0.133-1.122-0.442-1.067c-0.554,0.052-0.983,0.137-1.562,0.243
			C227.734,162.198,228.071,163.402,228.858,163.257L228.858,163.257z"/>
	</g>
	<g>
		<path fill="#070707" d="M262.353,189.909c1.816,4.586,2.288,9.667,2.125,14.562c-0.105,3.152-0.747,6.595-2.921,9.002
			c-4.034,4.469-14.324,1.599-13.136-5.235c0.137-0.788-1.067-1.125-1.205-0.332c-1.479,8.502,9.789,10.994,15.226,6.452
			c5.942-4.967,3.528-18.69,1.116-24.78C263.265,188.837,262.056,189.159,262.353,189.909L262.353,189.909z"/>
	</g>
	<g>
		<path fill="#070707" d="M146.145,465.967c12.288-6.295,18.761,9.359,27.258,15.137c0.05-0.381,0.1-0.762,0.149-1.143
			c-6.966,1.031-12.665,5.826-18.104,9.947c-6.022,4.562-13.836,11.041-21.751,7.277c-3.891-1.85-7.071-5.924-7.135-10.273
			c-0.061-4.072,3.153-7.758,5.806-10.471c4.975-5.088,11.446-8.875,17.757-12.068c0.719-0.363,0.086-1.441-0.631-1.08
			c-9.764,4.939-32.002,17.74-21.25,31.072c13.551,16.801,31.938-11.172,45.64-13.199c0.586-0.086,0.543-0.875,0.149-1.143
			c-9.094-6.182-15.363-21.877-28.52-15.137C144.796,465.256,145.429,466.334,146.145,465.967L146.145,465.967z"/>
	</g>
	<g>
		<path fill="#070707" d="M132.09,495.412c-2.064-7.234,3.299-12.881,9.272-16.025c0.713-0.375,0.082-1.455-0.631-1.08
			c-6.497,3.422-12.061,9.68-9.847,17.438C131.105,496.518,132.312,496.189,132.09,495.412L132.09,495.412z"/>
	</g>
	<g>
		<path fill="#070707" d="M355.241,496.13c-7.697-3.284-12.194-10.238-17.756-16.112c-0.96-1.014-2.005-2.064-3.165-2.851
			c-4.278-2.899-1.729-5.913,0.848-8.46c4.216-4.166,9.431-7.167,15.43-7.432c10.234-0.452,17.887,10.392,20.597,18.979
			c1.534,4.86,1.308,10.771-2.347,14.625c-3.42,3.605-9.626,2.634-13.756,1.188c-0.763-0.268-1.088,0.94-0.332,1.205
			c9.041,3.164,17.518,0.033,18.528-10.187c1.093-11.044-8.061-22.839-18.071-26.337c-5.392-1.883-11.036,0.033-15.67,2.864
			c-2.633,1.608-10.424,7-9.456,10.891c0.384,1.544,1.343,2.214,2.62,3.079c3.02,2.045,5.368,4.854,7.728,7.599
			c4.15,4.827,8.202,9.48,14.172,12.028C355.343,497.522,355.98,496.445,355.241,496.13z"/>
	</g>
	<g>
		<path fill="#070707" d="M357.327,478.619c4.665,4.838,8.353,11.018,8.586,17.883c0.027,0.803,1.277,0.807,1.25,0
			c-0.245-7.201-4.05-13.684-8.951-18.768C357.651,477.152,356.769,478.037,357.327,478.619L357.327,478.619z"/>
	</g>
	<g>
		<path fill="#070707" d="M381.725,271.78c8.934,1.934,17.425,1.382,24.673,7.929c4.548,4.107,8.453,14.221,3.21,19.33
			c-6.684,6.511-20.862-3.279-25.103-8.544c-0.506-0.628-1.385,0.263-0.885,0.885c5.147,6.39,19.733,15.497,27.337,8.089
			c4.427-4.313,1.842-12.885-0.842-17.261c-6.211-10.129-17.932-9.441-28.059-11.633C381.271,270.405,380.937,271.61,381.725,271.78
			L381.725,271.78z"/>
	</g>
	<g>
		<path fill="#070707" d="M399.033,289.945c4.71,1.453,10.454,5.465,7.6,11.029c-0.367,0.717,0.712,1.35,1.08,0.631
			c3.249-6.336-2.759-11.143-8.348-12.865C398.593,288.502,398.266,289.709,399.033,289.945L399.033,289.945z"/>
	</g>
	<path fill="none" stroke="#070707" stroke-width="1.5" stroke-miterlimit="10" d="M338.988,120.339
		c0-22.883-18.552-41.431-41.435-41.431c-22.887,0-41.432,18.548-41.432,41.431c0,22.883,18.545,41.435,41.432,41.435
		C320.437,161.773,338.988,143.222,338.988,120.339z"/>
	<path fill="none" stroke="#070707" stroke-width="1.5" stroke-miterlimit="10" d="M234.634,124.735
		c0-22.879-18.548-41.428-41.431-41.428c-22.887,0-41.434,18.548-41.434,41.428c0,22.886,18.547,41.434,41.434,41.434
		C216.086,166.169,234.634,147.621,234.634,124.735z"/>
	<path fill="#070707" d="M376.896,103.94c0-4.838-3.929-8.766-8.763-8.766c-4.845,0-8.77,3.928-8.77,8.766
		c0,4.841,3.925,8.766,8.77,8.766C372.967,112.706,376.896,108.781,376.896,103.94z"/>
	<path fill="#070707" d="M130.481,112.893c0-4.837-3.928-8.759-8.772-8.759c-4.834,0-8.763,3.922-8.763,8.759
		c0,4.845,3.928,8.766,8.763,8.766C126.553,121.659,130.481,117.738,130.481,112.893z"/>
	<path fill="#070707" d="M264.182,158.578c0-5.671-8.305-10.27-18.539-10.27c-10.247,0-18.544,4.599-18.544,10.27
		c0,5.674,8.298,10.264,18.544,10.264C255.877,168.842,264.182,164.252,264.182,158.578z"/>
	<path fill="#070707" d="M296.447,109.269c-7.484,0-13.546,6.064-13.546,13.549c0,7.478,6.062,13.542,13.546,13.542
		c7.478,0,13.542-6.064,13.542-13.542C309.989,115.333,303.925,109.269,296.447,109.269z M301.897,131.429
		c-2.117,0-3.834-1.717-3.834-3.834c0-2.117,1.717-3.834,3.834-3.834c2.121,0,3.838,1.717,3.838,3.834
		C305.735,129.712,304.019,131.429,301.897,131.429z"/>
	<path fill="#070707" d="M191.328,112.496c-7.484,0-13.545,6.065-13.545,13.549c0,7.478,6.062,13.543,13.545,13.543
		c7.482,0,13.542-6.065,13.542-13.543C204.87,118.561,198.81,112.496,191.328,112.496z M196.775,134.656
		c-2.114,0-3.827-1.717-3.827-3.834c0-2.118,1.713-3.835,3.827-3.835c2.124,0,3.838,1.717,3.838,3.835
		C200.614,132.939,198.899,134.656,196.775,134.656z"/>
	<g>
		<path fill="#070707" d="M246.708,186.791c0.568,7.849,2.55,16.813-1.213,24.152c-1.043,2.034-2.867,3.426-4.811,4.518
			c-4.877,2.739-9.215-2.649-10.765-6.459c-2.099-5.162-0.229-12.304,0.739-17.516c0.146-0.788-1.058-1.124-1.205-0.332
			c-1.077,5.795-3.186,13.957-0.198,19.504c1.839,3.414,6.375,8.495,10.892,6.419c11.723-5.386,8.564-19.891,7.812-30.286
			C247.9,185.991,246.65,185.986,246.708,186.791L246.708,186.791z"/>
	</g>
	<g>
		<path fill="#070707" d="M116.704,275.792c-9.169-1.634-18.283,2.581-25.232,8.344c-5.232,4.339-8.731,11.655-1.482,15.681
			c0.705,0.393,1.335-0.688,0.631-1.08c-8.473-4.705-0.056-12.611,4.782-16.026c5.997-4.232,13.602-7.026,20.97-5.714
			C117.16,277.137,117.497,275.933,116.704,275.792L116.704,275.792z"/>
	</g>
	<g>
		<path fill="#070707" d="M97.161,293.034c-4.6,2.162-10.098,9.271-2.551,11.91c4.47,1.563,8.271-0.661,12.027-3.039
			c3.987-2.524,7.251-5.463,9.916-9.373c0.456-0.668-0.628-1.293-1.079-0.631c-3.402,4.992-8.11,8.484-13.446,11.221
			c-3.05,1.563-11.16,1.769-9.827-3.805c0.598-2.5,3.456-4.2,5.591-5.203C98.521,293.771,97.886,292.693,97.161,293.034
			L97.161,293.034z"/>
	</g>
	<g>
		<path fill="#070707" d="M379.484,248.983c-0.82,8.464,0.126,16.971,0.82,25.41c0.778,9.446,1.356,18.913,2.057,28.365
			c1.392,18.753,2.619,37.522,2.584,56.335c-0.035,18.734-1.218,37.593-5.463,55.883c-3.893,16.772-14.052,30.793-23.035,45.146
			c-0.858,1.371,1.306,2.625,2.158,1.262c8.791-14.043,18.53-27.698,22.842-43.926c4.691-17.653,5.659-36.291,5.961-54.467
			c0.323-19.469-0.986-38.929-2.406-58.334c-0.693-9.47-1.385-18.939-2.053-28.411c-0.641-9.072-1.847-18.162-0.965-27.262
			C382.14,247.378,379.639,247.393,379.484,248.983L379.484,248.983z"/>
	</g>
	<g>
		<path fill="#070707" d="M357.731,102.012c5.611,8.209,9.827,17.079,13.021,26.487c3.449,10.158,4.796,20.868,6.927,31.343
			c0.321,1.579,2.73,0.909,2.41-0.665c-2.137-10.503-3.613-21.116-6.926-31.342c-3.112-9.606-7.578-18.752-13.274-27.084
			C358.986,99.428,356.818,100.677,357.731,102.012L357.731,102.012z"/>
	</g>
	<g>
		<path fill="#070707" d="M228.965,191.038c-25.039,5.59-49.79,19.382-69.002,36.244c-0.607,0.533,0.281,1.413,0.884,0.884
			c19.037-16.708,43.659-30.388,68.45-35.922C230.084,192.068,229.75,190.863,228.965,191.038L228.965,191.038z"/>
	</g>
	<path fill="none" stroke="#070707" stroke-width="1.5" stroke-miterlimit="10" d="M375.42,219.242
		c8.686-8.682,8.682-22.763,0-31.448c-8.683-8.685-22.767-8.685-31.451-0.003c-8.687,8.688-8.687,22.77,0,31.451
		C352.653,227.931,366.737,227.931,375.42,219.242z"/>
	<g>
		<path fill="#070707" d="M335.455,207.359c0.342,0.247,0.683,0.493,1.024,0.739c0.147-0.355,0.295-0.711,0.441-1.067
			c-0.734,0.019-2.163-1.228-2.774-1.625c-0.901-0.586-2.004-0.697-3.055-0.919c-2.89-0.612-5.849-0.897-8.798-0.957
			c-4.291-0.087-10.416,0.557-13.085,4.474c-3.289,4.829-0.896,11.454,2.202,15.767c4.546,6.329,12.937,9.055,19.165,13.294
			c6.542,4.453,8.749,11.731,13.086,17.929c3.299,4.715,7.934,5.98,13.281,4.109c13.474-4.715,6.049-24.683,2.079-33.293
			c-0.338-0.731-1.415-0.096-1.08,0.631c4.363,9.462,11.488,31.188-5.562,32.401c-6.156,0.438-9.355-7.027-11.738-11.486
			c-2.181-4.081-4.689-7.901-8.482-10.674c-5.245-3.834-11.348-6.292-16.463-10.32c-4.719-3.714-9.686-12.659-5.027-18.166
			c3.249-3.841,10.071-3.593,14.567-3.286c2.146,0.147,6.456,0.167,8.279,1.574c0.78,0.603,2.359,1.823,3.405,1.796
			c0.502-0.013,0.886-0.7,0.442-1.067c-0.432-0.358-0.785-0.595-1.277-0.935C335.42,205.821,334.796,206.905,335.455,207.359
			L335.455,207.359z"/>
	</g>
	<g>
		<path fill="#070707" d="M361.251,228.218c0.279-0.387,0.59-0.747,0.932-1.079c-0.355-0.147-0.711-0.294-1.066-0.442
			c-0.039,0.719-1.65,2.345-2.076,2.805c-0.569,0.617-0.731,2-0.967,2.783c-0.853,2.832-1.368,5.752-1.676,8.69
			c-0.495,4.739-0.116,10.535,3.857,13.761c4.246,3.447,11.36,1.148,15.449-1.296c6.978-4.169,10.361-12.832,15.518-18.767
			c7.317-8.422,27.28-8.818,23.45-23.673c-3.542-13.737-24.061-8.046-32.889-4.845c-0.752,0.272-0.428,1.48,0.332,1.205
			c9.88-3.582,30.579-8.856,31.936,7.257c0.542,6.444-6.74,9.244-11.528,11.311c-5.028,2.171-9.323,4.568-12.958,8.751
			c-4.04,4.649-6.781,10.248-11.003,14.769c-4.335,4.644-14.812,9.029-19.316,2.338c-2.847-4.229-1.801-10.851-0.883-15.491
			c0.434-2.193,0.871-4.967,2.272-6.761c0.569-0.729,1.679-1.853,1.731-2.838c0.029-0.552-0.699-0.817-1.067-0.442
			c-0.342,0.332-0.652,0.691-0.933,1.079C359.859,227.951,360.738,228.841,361.251,228.218L361.251,228.218z"/>
	</g>
	<g>
		<path fill="#070707" d="M382.587,199.499c-0.344-0.247-0.688-0.494-1.031-0.741c-0.147,0.355-0.294,0.711-0.441,1.067
			c0.73-0.023,2.428,1.362,2.98,1.791c0.686,0.532,2.016,0.58,2.843,0.755c2.89,0.612,5.85,0.896,8.8,0.957
			c4.29,0.087,10.417-0.556,13.085-4.475c3.288-4.83,0.895-11.457-2.204-15.77c-4.545-6.329-12.935-9.056-19.163-13.295
			c-6.54-4.452-8.748-11.729-13.085-17.925c-3.299-4.713-7.934-5.98-13.281-4.109c-13.477,4.714-6.049,24.681-2.081,33.292
			c0.337,0.731,1.415,0.096,1.08-0.631c-4.36-9.462-11.49-31.188,5.563-32.399c6.156-0.438,9.356,7.025,11.74,11.484
			c2.436,4.556,5.229,8.293,9.433,11.367c5.256,3.842,11.44,6.118,16.41,10.4c4.511,3.886,8.719,12.944,3.594,17.911
			c-3.635,3.521-10.408,3.096-15.012,2.679c-2.039-0.185-5.506-0.315-7.303-1.487c-0.866-0.565-2.302-1.831-3.399-1.796
			c-0.499,0.015-0.889,0.7-0.442,1.067c0.435,0.357,0.79,0.596,1.284,0.936C382.622,201.036,383.246,199.952,382.587,199.499
			L382.587,199.499z"/>
	</g>
	<g>
		<path fill="#070707" d="M356.138,180.368c-0.246,0.342-0.492,0.683-0.739,1.025c0.356,0.147,0.712,0.294,1.067,0.442
			c-0.021-0.735,1.358-2.426,1.791-2.982c0.531-0.685,0.58-2.015,0.756-2.842c0.612-2.89,0.898-5.85,0.958-8.8
			c0.088-4.291-0.555-10.418-4.473-13.086c-4.83-3.29-11.456-0.895-15.771,2.203c-6.329,4.545-9.056,12.936-13.294,19.166
			c-4.451,6.542-11.73,8.748-17.927,13.085c-4.715,3.3-5.979,7.937-4.109,13.286c4.711,13.476,24.686,6.037,33.29,2.071
			c0.731-0.337,0.096-1.414-0.631-1.079c-9.46,4.36-31.187,11.497-32.397-5.557c-0.437-6.158,7.024-9.358,11.485-11.742
			c4.557-2.436,8.295-5.229,11.368-9.433c3.842-5.256,6.116-11.441,10.399-16.412c3.886-4.51,12.945-8.72,17.911-3.594
			c3.521,3.635,3.096,10.41,2.678,15.014c-0.186,2.04-0.317,5.506-1.489,7.303c-0.567,0.869-1.827,2.299-1.796,3.4
			c0.015,0.5,0.699,0.886,1.067,0.442c0.357-0.432,0.595-0.785,0.935-1.278C357.676,180.333,356.592,179.709,356.138,180.368
			L356.138,180.368z"/>
	</g>
	<g>
		<path fill="#070707" d="M263.75,190.814c13.294,7.554,27.786,12.182,42.665,15.465c0.785,0.173,1.119-1.032,0.332-1.205
			c-14.771-3.26-29.162-7.836-42.366-15.339C263.679,189.336,263.05,190.417,263.75,190.814L263.75,190.814z"/>
	</g>
	<path fill="none" stroke="#070707" stroke-width="1.5" stroke-miterlimit="10" d="M377.588,213.249c5.42-5.416,5.42-14.201,0-19.62
		c-5.419-5.416-14.203-5.416-19.623,0c-5.415,5.419-5.415,14.208,0,19.623C363.385,218.667,372.169,218.667,377.588,213.249z"/>
	<path fill="#070707" d="M381.459,203.521c0-4.838-3.926-8.763-8.767-8.763s-8.765,3.924-8.765,8.763
		c0,4.845,3.924,8.766,8.765,8.766S381.459,208.366,381.459,203.521z"/>
	<g>
		<path fill="#070707" d="M343.445,219.959c-2.61,2.339-5.271,4.582-7.379,7.408c-0.482,0.647,0.604,1.269,1.08,0.631
			c2.037-2.731,4.66-4.894,7.184-7.155C344.931,220.304,344.044,219.423,343.445,219.959L343.445,219.959z"/>
	</g>
	<g>
		<path fill="#070707" d="M344.591,185.899c-2.682-2.746-6.581-3.262-10.159-4.062c-0.785-0.176-1.119,1.029-0.332,1.205
			c3.34,0.748,7.1,1.174,9.606,3.741C344.271,187.36,345.153,186.476,344.591,185.899L344.591,185.899z"/>
	</g>
	<g>
		<path fill="#070707" d="M375.69,185.726c0.313-2.108,1.238-3.992,2.276-5.832c0.396-0.703-0.684-1.333-1.08-0.631
			c-1.085,1.925-2.073,3.923-2.401,6.13C374.368,186.182,375.572,186.521,375.69,185.726L375.69,185.726z"/>
	</g>
	<g>
		<path fill="#070707" d="M376.968,187.919c1.793-1.248,3.768-2.151,5.717-3.121c0.722-0.359,0.089-1.437-0.631-1.079
			c-1.949,0.97-3.924,1.873-5.717,3.121C375.681,187.297,376.305,188.381,376.968,187.919L376.968,187.919z"/>
	</g>
	<g>
		<path fill="#070707" d="M377.004,219.703c2.522,0.829,4.267,2.841,5.965,4.777c0.533,0.607,1.414-0.281,0.885-0.884
			c-1.859-2.118-3.767-4.195-6.518-5.098C376.568,218.245,376.241,219.453,377.004,219.703L377.004,219.703z"/>
	</g>
	<g>
		<path fill="#070707" d="M373.707,222.128c0.432,1.831,0.508,3.696,0.756,5.554c0.104,0.787,1.356,0.797,1.25,0
			c-0.263-1.969-0.343-3.946-0.801-5.886C374.728,221.012,373.521,221.345,373.707,222.128L373.707,222.128z"/>
	</g>
	<g>
		<path fill="#070707" d="M345.949,222.683c-0.787,1.067-1.481,2.2-2.082,3.383c-0.363,0.717,0.715,1.35,1.08,0.631
			c0.6-1.183,1.294-2.316,2.082-3.383C347.509,222.665,346.423,222.042,345.949,222.683L345.949,222.683z"/>
	</g>
	<g>
		<path fill="#070707" d="M346.833,183.573c-0.279-1.299-0.84-2.461-1.621-3.531c-0.471-0.644-1.556-0.021-1.08,0.631
			c0.725,0.991,1.237,2.029,1.496,3.232C345.797,184.693,347.002,184.359,346.833,183.573L346.833,183.573z"/>
	</g>
	<g>
		<path fill="#070707" d="M183.223,211.066c0.034-8.464-2.488-16.134,1.041-24.41c1.482-3.476,7.42-8.051,10.368-0.347
			c1.066,2.787-0.919,6.438-2.09,8.817c-2.035,4.133-3.275,8.522-5.716,12.478c-0.425,0.688,0.657,1.315,1.079,0.631
			c1.858-3.012,3.191-6.191,4.486-9.472c1.289-3.268,3.031-6.236,3.635-9.723c0.553-3.192-1.791-8.114-5.563-8.075
			c-13.436,0.14-8.458,22.483-8.489,30.1C181.969,211.873,183.219,211.873,183.223,211.066L183.223,211.066z"/>
	</g>
	<g>
		<path fill="#070707" d="M180.139,212.145c-5.427-3.547-8.469-10.063-9.909-16.306c-0.518-2.245-0.719-4.705-0.145-6.955
			c1.025-4.017,5.667,0.248,6.762,1.322c1.943,1.905,3.079,4.711,3.934,7.222c0.258,0.759,1.466,0.433,1.205-0.332
			c-1.385-4.07-3.955-9.396-8.482-10.756c-2.596-0.78-4.147,0.341-4.795,2.879c-2.08,8.148,4.37,19.802,10.799,24.004
			C180.185,213.667,180.811,212.584,180.139,212.145L180.139,212.145z"/>
	</g>
	<g>
		<path fill="#070707" d="M179.612,214.413c5.474,8.032,12.926,16.456,22.568,19.24c3.581,1.034,14.825,0.598,15.008-5.145
			c0.172-5.429-6.679-9.536-10.639-11.954c-6.522-3.981-14.765-7.384-22.538-6.936c-0.801,0.046-0.806,1.296,0,1.25
			c10.274-0.592,25.622,5.867,31.183,14.867c4.478,7.246-10.488,7.345-13.893,6.361c-8.613-2.487-15.77-11.214-20.61-18.315
			C180.24,213.121,179.156,213.745,179.612,214.413L179.612,214.413z"/>
	</g>
</g>
</svg>
