<?xml version="1.0" encoding="utf-8"?>
<!-- Generator: Adobe Illustrator 16.0.0, SVG Export Plug-In . SVG Version: 6.00 Build 0)  -->
<!DOCTYPE svg PUBLIC "-//W3C//DTD SVG 1.1//EN" "http://www.w3.org/Graphics/SVG/1.1/DTD/svg11.dtd">
<svg version="1.1" id="Layer_1" xmlns="http://www.w3.org/2000/svg" xmlns:xlink="http://www.w3.org/1999/xlink" x="0px" y="0px"
	 width="500px" height="550px" viewBox="0 0 500 550" enable-background="new 0 0 500 550" xml:space="preserve">
<g>
	<g>
		<path fill="#070707" d="M335.343,193.563c-10.759-19.61-30.652-31.636-51.926-36.922c-11.182-2.778-22.568-3.174-34.003-2.218
			c-15.266,1.276-30.725,2.595-45.899,4.675c-23.718,3.25-44.165,18.183-56.282,38.514c-10.879,18.254-14.205,40.058-15.038,60.967
			c-0.66,16.559,0.472,33.145,1.67,49.653c1.463,20.161,2.311,40.14,1.428,60.361c-0.977,22.38-4.978,45.081-1.293,67.388
			c3.088,18.697,12.349,35.609,25.237,49.334c1.105,1.178,2.87-0.594,1.768-1.768c-9.448-10.062-16.708-21.609-21.192-34.686
			c-4.763-13.89-5.237-28.438-4.52-42.964c0.804-16.289,2.489-32.487,2.9-48.805c0.347-13.755-0.274-27.442-1.264-41.156
			c-3.086-42.748-8.993-94.333,21.327-129.375c10.701-12.367,25.135-20.614,41.034-24.173c9.373-2.098,19.303-2.304,28.844-3.325
			c9.682-1.037,19.402-2.291,29.138-2.67c29.217-1.138,61.406,11.988,75.915,38.431C333.96,196.238,336.119,194.977,335.343,193.563
			L335.343,193.563z"/>
	</g>
	<g>
		<path fill="#070707" d="M180.774,499.057c18.31,11.271,41.477,11.312,62.218,9.665c10.944-0.869,21.819-2.533,32.637-4.377
			c11.41-1.944,24.108-2.888,34.111-9.16c1.362-0.854,0.108-3.018-1.262-2.158c-9.447,5.924-21.465,6.817-32.245,8.689
			c-10.534,1.829-21.108,3.406-31.759,4.379c-20.684,1.89-44.158,2.057-62.438-9.196
			C180.659,496.051,179.404,498.214,180.774,499.057L180.774,499.057z"/>
	</g>
	<g>
		<path fill="#070707" d="M205.916,161.261c1.612,0,1.612-2.5,0-2.5S204.304,161.261,205.916,161.261L205.916,161.261z"/>
	</g>
	<g>
		<path fill="#070707" d="M137.422,221.83c-6.582-1.519-12.708-4.16-16.875-9.692c-5.258-6.981-3.957-16.576,0.393-23.562
			c3.5-5.621,9.603-9.2,15.838-10.92c3.332-0.92,6.773-0.842,10.191-0.769c5.454,0.117,8.566,1.708,12.504,5.15
			c1.208,1.056,2.983-0.705,1.768-1.768c-2.864-2.504-4.73-4.231-8.551-5.225c-4.272-1.11-9.52-1.103-13.849-0.345
			c-8.236,1.44-15.251,5.756-20.06,12.615c-4.511,6.434-5.745,16.114-2.056,23.198c4.109,7.892,11.616,11.786,20.032,13.729
			C138.327,224.603,138.993,222.193,137.422,221.83L137.422,221.83z"/>
	</g>
	<g>
		<path fill="#070707" d="M320.162,176.569c11.862-6.077,30.044-8.954,38.543,3.771c8.507,12.739,3.09,33.017-13.062,35.868
			c-1.586,0.28-0.912,2.689,0.664,2.411c17.899-3.16,22.735-24.068,15.214-38.43c-8.131-15.523-29.593-12.453-42.621-5.779
			C317.465,175.146,318.73,177.303,320.162,176.569L320.162,176.569z"/>
	</g>
	<g>
		<path fill="#070707" d="M227.364,240.589c0.327-0.049,0.655-0.099,0.982-0.148c-0.105-0.388-0.211-0.776-0.315-1.165
			c-1.28,0.677-2.699,0.584-3.957,1.343c-2.317,1.399-4.431,3.129-6.396,4.981c-2.516,2.369-5.872,6.482-4.99,10.265
			c1.128,4.838,6.384,7.144,10.893,7.761c7.035,0.963,13.959-3.29,20.912-3.705c8.555-0.511,22.418,9.361,25.16-4.583
			c1.892-9.618-11.49-15.319-18.426-17.888c-0.758-0.281-1.081,0.928-0.332,1.205c6.864,2.543,17.259,6.898,17.613,15.449
			c0.556,13.408-17.231,4.752-24.016,4.566c-4.536-0.125-9.161,1.841-13.482,2.946c-5.562,1.423-16.576,1.071-17.16-6.796
			c-0.338-4.55,4.959-8.81,8.13-11.256c2.181-1.683,4.395-2,6.683-3.21c0.543-0.287,0.302-1.194-0.315-1.165
			c-0.465,0.022-0.827,0.105-1.314,0.193C226.239,239.527,226.576,240.731,227.364,240.589L227.364,240.589z"/>
	</g>
	<g>
		<path fill="#070707" d="M254.33,262.083c1.728,4.527,2.335,9.291,1.547,14.087c-0.672,4.091-3.65,6.363-7.699,6.448
			c-3.858,0.081-4.771-3.419-4.932-6.441c-0.043-0.802-1.293-0.806-1.25,0c0.287,5.366,4.141,9.756,9.961,7.046
			c7.755-3.61,6.079-14.917,3.578-21.472C255.251,261.005,254.042,261.328,254.33,262.083L254.33,262.083z"/>
	</g>
	<g>
		<path fill="#070707" d="M160.436,485.616c9.884-4.953,15.121,7.543,21.944,12.253c0.05-0.381,0.1-0.762,0.149-1.143
			c-10.806,1.687-19.631,17.731-31.018,14.462c-3.648-1.048-6.753-4.941-6.867-8.684c-0.103-3.361,2.693-6.432,4.875-8.633
			c3.979-4.016,9.131-7.005,14.143-9.546c0.719-0.365,0.086-1.443-0.631-1.08c-6.999,3.549-26.453,14.69-17.606,24.884
			c12.169,14.021,25.137-8.278,37.436-10.198c0.587-0.092,0.542-0.871,0.149-1.143c-7.451-5.144-12.437-17.649-23.206-12.253
			C159.084,484.897,159.717,485.976,160.436,485.616L160.436,485.616z"/>
	</g>
	<g>
		<path fill="#070707" d="M149.115,509.317c-1.653-5.804,2.661-10.319,7.451-12.838c0.714-0.376,0.082-1.454-0.631-1.08
			c-5.312,2.793-9.83,7.917-8.025,14.25C148.13,510.424,149.336,510.094,149.115,509.317L149.115,509.317z"/>
	</g>
	<g>
		<path fill="#070707" d="M308.424,495.562c4.01-9.75,15.284-17.435,25.153-11.115c5.409,3.463,8.828,10.205,9.396,16.476
			c0.688,7.593-4.813,10.859-11.766,9.348c-8.808-1.916-13.44-12.505-20.49-17.351c-0.666-0.458-1.29,0.626-0.631,1.08
			c8.884,6.105,13.88,18.989,26.393,17.948c6.437-0.535,8.503-7.207,7.551-12.726c-1.272-7.365-5.843-14.386-12.807-17.461
			c-9.929-4.385-20.41,4.728-24.005,13.469C306.912,495.976,308.122,496.298,308.424,495.562L308.424,495.562z"/>
	</g>
	<g>
		<path fill="#070707" d="M331.242,495.839c3.753,3.893,6.726,8.869,6.913,14.392c0.027,0.804,1.277,0.807,1.25,0
			c-0.199-5.859-3.29-11.138-7.278-15.276C331.566,494.373,330.684,495.258,331.242,495.839L331.242,495.839z"/>
	</g>
	<g>
		<path fill="#070707" d="M352.057,328.892c5.326,0.522,9.89,0.488,14.813,2.967c4.592,2.312,7.801,6.621,8.405,11.725
			c0.828,6.995-4.805,8.845-10.688,7.326c-4.58-1.182-9.03-4.589-11.938-8.224c-0.504-0.629-1.383,0.262-0.885,0.885
			c4.928,6.156,22.87,16.139,24.742,2.44c0.688-5.029-1.972-9.627-5.562-12.884c-5.417-4.913-12.117-4.821-18.888-5.485
			C351.255,327.562,351.262,328.813,352.057,328.892L352.057,328.892z"/>
	</g>
	<g>
		<path fill="#070707" d="M368.358,339.534c3.731,1.154,8.346,4.334,6.077,8.759c-0.366,0.716,0.712,1.349,1.08,0.631
			c2.668-5.204-2.223-9.172-6.825-10.595C367.918,338.09,367.591,339.297,368.358,339.534L368.358,339.534z"/>
	</g>
	<circle fill="none" stroke="#070707" stroke-width="1.5" stroke-miterlimit="10" cx="282.939" cy="205.736" r="33.54"/>
	<path fill="none" stroke="#070707" stroke-width="1.5" stroke-miterlimit="10" d="M232.008,209.294
		c0-18.521-15.015-33.535-33.538-33.535c-18.522,0-33.54,15.014-33.54,33.535c0,18.526,15.017,33.54,33.54,33.54
		C216.993,242.834,232.008,227.82,232.008,209.294z"/>
	<path fill="#070707" d="M347.164,192.459c0-3.916-3.177-7.093-7.093-7.093c-3.922,0-7.096,3.177-7.096,7.093
		c0,3.921,3.174,7.096,7.096,7.096C343.987,199.555,347.164,196.38,347.164,192.459z"/>
	<circle fill="#070707" cx="141.293" cy="198.566" r="7.096"/>
	<path fill="#070707" d="M255.926,236.69c0-4.593-6.723-8.311-15.007-8.311c-8.292,0-15.012,3.718-15.012,8.311
		c0,4.587,6.72,8.308,15.012,8.308C249.203,244.998,255.926,241.277,255.926,236.69z"/>
	<path fill="#070707" d="M265.352,196.775c-6.056,0-10.962,4.907-10.962,10.965c0,6.053,4.906,10.965,10.962,10.965
		s10.965-4.912,10.965-10.965C276.316,201.682,271.407,196.775,265.352,196.775z M269.767,214.713c-1.714,0-3.104-1.39-3.104-3.104
		s1.39-3.104,3.104-3.104s3.104,1.39,3.104,3.104S271.48,214.713,269.767,214.713z"/>
	<path fill="#070707" d="M180.261,199.388c-6.057,0-10.963,4.906-10.963,10.962c0,6.056,4.906,10.968,10.963,10.968
		c6.056,0,10.965-4.912,10.965-10.968C191.226,204.294,186.316,199.388,180.261,199.388z M184.673,217.325
		c-1.711,0-3.101-1.39-3.101-3.104s1.39-3.104,3.101-3.104c1.717,0,3.106,1.39,3.106,3.104S186.39,217.325,184.673,217.325z"/>
	<g>
		<path fill="#070707" d="M241.696,259.814c-0.902,6.775,1.625,14.357-1.585,20.745c-1.18,2.348-3.578,2.815-5.973,2.475
			c-3.455-0.492-5.025-3.328-5.827-6.405c-1.147-4.403-0.488-9.599,0.779-13.901c0.229-0.775-0.978-1.104-1.205-0.332
			c-2.249,7.63-2.71,23.955,9.459,21.846c8.82-1.529,4.842-18.724,5.602-24.428C243.052,259.017,241.801,259.027,241.696,259.814
			L241.696,259.814z"/>
	</g>
	<g>
		<path fill="#070707" d="M136.577,331.456c-7.703-1.354-15.606,2.286-21.232,7.418c-4,3.649-6.029,9.169-0.486,12.248
			c0.705,0.392,1.335-0.688,0.631-1.08c-6.816-3.785,0.144-10.149,4-12.852c4.807-3.369,10.867-5.563,16.756-4.529
			C137.033,332.8,137.37,331.595,136.577,331.456L136.577,331.456z"/>
	</g>
	<g>
		<path fill="#070707" d="M120.666,345.426c-4.146,1.958-7.817,7.079-2.23,9.776c2.887,1.395,5.81,0.053,8.375-1.383
			c3.892-2.179,7.453-4.981,10.27-8.443c0.504-0.62-0.375-1.51-0.884-0.885c-2.979,3.661-6.737,6.413-10.836,8.707
			c-2.255,1.262-9.33,2.536-8.612-2.273c0.316-2.116,2.832-3.608,4.548-4.419C122.025,346.161,121.391,345.084,120.666,345.426
			L120.666,345.426z"/>
	</g>
	<g>
		<path fill="#070707" d="M331.446,191.021c12.704,18.589,16.207,41.112,17.251,63.157c1.111,23.494-0.165,47.038,0.811,70.55
			c1.154,27.837,3.51,55.626,3.111,83.509c-0.192,13.419-1.364,26.629-4.85,39.627c-3.344,12.466-11.357,21.676-17.362,32.794
			c-0.767,1.418,1.393,2.681,2.158,1.262c5.462-10.113,13.074-18.787,16.594-29.899c3.895-12.295,5.38-25.137,5.82-37.978
			c0.999-29.141-1.569-58.271-2.887-87.359c-1.119-24.688,0.198-49.396-0.97-74.068c-1.037-21.905-4.924-44.427-17.519-62.855
			C332.701,188.437,330.533,189.686,331.446,191.021L331.446,191.021z"/>
	</g>
	<g>
		<path fill="#070707" d="M211.711,157.836c1.926-10.762-6.37-22.416-11.885-30.856c-9.221-14.113-19.821-27.275-29.35-41.177
			c-7.281-10.624-17.149-24.09-16.839-37.62c0.462-20.188,33.879-17.88,47.097-17.305c26.259,1.143,52.673,2.402,77.848,10.652
			c8.914,2.921,18.46,6.551,25.684,12.691c9.082,7.721,4.529,17.929-4.688,22.826c-8.21,4.361-18.29,5.418-27.401,6.104
			c-9.903,0.746-19.974,0.688-29.886,0.335c-28.125-1-56.229-7.271-81.161-20.555c-0.711-0.379-1.342,0.7-0.631,1.079
			c25.232,13.444,53.375,19.508,81.792,20.726c18.641,0.799,41.869,1.916,58.858-7.109c6.079-3.229,11.001-9.647,9.221-16.796
			c-1.91-7.673-11.514-12.253-17.955-15.226c-24.173-11.155-51.272-14.138-77.576-15.293c-11.949-0.524-23.91-1.505-35.854-0.369
			c-7.751,0.737-16.837,2.421-22.541,8.193c-7.473,7.562-3.157,19.577,0.684,27.76c6.862,14.622,17.172,27.648,26.676,40.604
			c8.963,12.218,19.047,24.702,24.739,38.886c1.519,3.784,2.697,8.028,1.965,12.12C210.365,158.292,211.569,158.629,211.711,157.836
			L211.711,157.836z"/>
	</g>
	<g>
		<path fill="#070707" d="M300.849,76.735c-5.775,2.75-10.864,9.078-15.256,13.583c-5.348,5.486-10.219,11.443-14.623,17.708
			c-4.368,6.214-7.936,12.95-10.628,20.048c-3.207,8.454-3.08,16.604-3.636,25.459c-0.051,0.805,1.2,0.8,1.25,0
			c0.508-8.093,0.498-15.653,3.013-23.479c2.287-7.118,6.015-13.743,10.104-19.963c4.137-6.292,9.036-12.077,14.158-17.582
			c4.501-4.837,10.206-11.817,16.248-14.695C302.207,77.468,301.572,76.391,300.849,76.735L300.849,76.735z"/>
	</g>
	<g>
		<path fill="#070707" d="M137.221,329.753c15.276,16.424,34.062,30.118,54.869,38.659c18.89,7.754,38.599,10.164,58.904,8.772
			c18.875-1.293,37.934-5.985,54.531-15.217c19.244-10.704,32.131-29.479,45.031-46.711c0.483-0.646-0.603-1.268-1.08-0.631
			c-12.879,17.206-25.585,35.322-44.582,46.262c-16.651,9.59-36.337,13.844-55.338,15.146c-19.039,1.305-37.822-1.152-55.586-8.19
			c-21.22-8.408-40.374-22.317-55.866-38.975C137.555,328.277,136.672,329.163,137.221,329.753L137.221,329.753z"/>
	</g>
	<g>
		<path fill="#070707" d="M211.304,374.981c4.383,19.299-12.239,70.503-38.872,48.09c-0.431-0.362-1.018-0.118-1.067,0.442
			c-1.65,18.973,1.085,39.158,12.583,54.86c12.03,16.429,32.757,21.9,52.221,22.19c21.431,0.32,43.058-6.85,59.945-20.02
			c18.727-14.604,27.585-37.646,26.586-61.022c-0.024-0.579-0.647-0.781-1.067-0.442c-11.786,9.528-26.351,6.329-34.532-6.026
			c-7.623-11.511-9.878-26.643-10.077-40.157c-0.012-0.806-1.25-0.807-1.25,0c0,0.135,0,0.27,0,0.404c0,0.806,1.25,0.806,1.25,0
			c0-0.135,0-0.27,0-0.404c-0.417,0-0.833,0-1.25,0c0.229,15.53,3.159,33.505,13.862,45.49c8.952,10.023,22.906,9.642,32.882,1.578
			c-0.356-0.147-0.712-0.295-1.067-0.442c0.976,22.837-7.446,44.407-25.086,59.221c-16.191,13.599-37.785,20.233-58.708,20.57
			c-20.151,0.325-41.059-5.771-53.372-22.586c-11.011-15.038-13.24-35.151-11.669-53.214c-0.355,0.147-0.711,0.295-1.067,0.442
			c27.816,23.407,45.652-28.649,40.96-49.307C212.331,373.863,211.125,374.196,211.304,374.981L211.304,374.981z"/>
	</g>
	<g>
		<path fill="#070707" d="M322.587,419.913c11.969-6.568,21.743-16.06,32.063-24.847c0.614-0.523-0.274-1.403-0.885-0.885
			c-10.236,8.717-19.938,18.137-31.81,24.651C321.249,419.221,321.88,420.301,322.587,419.913L322.587,419.913z"/>
	</g>
	<g>
		<path fill="#070707" d="M173.104,423.771c-12.419-7.312-25.965-12.367-38.619-19.229c-0.708-0.384-1.339,0.695-0.631,1.08
			c12.653,6.861,26.2,11.918,38.619,19.229C173.169,425.26,173.797,424.18,173.104,423.771L173.104,423.771z"/>
	</g>
	<g>
		<path fill="#070707" d="M213.062,439.922c8.967,7.476,22.716,8.486,33.875,8.146c10.567-0.322,24.105-2.504,30.973-11.465
			c-0.381-0.16-0.762-0.321-1.143-0.481c-2.114,9.273-1.717,18.86-3.691,28.141c-2.429,11.419-11.599,18.114-22.645,20.487
			c-10.201,2.191-21.511-0.017-30.09-5.903c-13.704-9.404-11.189-25.301-7.032-39.2c0.231-0.774-0.975-1.103-1.205-0.332
			c-3.947,13.195-6.52,26.777,3.943,37.547c7.566,7.787,19.427,10.457,29.914,9.759c10.619-0.706,21.51-6.018,26.281-15.87
			c5.025-10.375,3.214-23.257,5.729-34.296c0.167-0.731-0.725-1.026-1.143-0.481c-6.833,8.917-20.72,10.565-31.099,10.883
			c-10.369,0.316-23.476-0.889-31.784-7.817C213.331,438.525,212.442,439.404,213.062,439.922L213.062,439.922z"/>
	</g>
	<g>
		<path fill="#070707" d="M209.069,437.44c-0.206,0.177-1.151-0.107-1.456-0.207c-0.8-0.261-1.525-0.783-1.911-1.539
			c-0.549-1.074,0.296-2.305,1.025-3.026c0.785-0.776,1.796-1.241,2.872-1.437c1.571-0.285,3.613,0.29,4.384,1.788
			c1.078,2.097-2.477,3.722-3.839,4.261c-0.74,0.293-0.418,1.502,0.332,1.205c2.212-0.875,5.87-2.842,4.703-5.828
			c-0.911-2.329-3.88-3-6.093-2.599c-2.712,0.492-5.728,3.354-4.465,6.267c0.664,1.529,3.818,3.291,5.332,2
			C210.567,437.801,209.679,436.921,209.069,437.44L209.069,437.44z"/>
	</g>
	<g>
		<path fill="#070707" d="M277.685,434.947c-2.18-1.135-3.398-3.6-2.566-5.985c0.351-1.002,0.902-2.074,1.839-2.642
			c1.531-0.929,3.344,0.405,4.407,1.452c1.507,1.484,5.474,7.998,0.853,7.998c-1.837,0-3.707-0.852-5.329-1.62
			c-0.725-0.343-1.359,0.735-0.631,1.08c2.219,1.05,5.368,2.55,7.832,1.409c1.641-0.76,1.697-2.797,1.34-4.312
			c-0.772-3.28-4.154-8.13-8.043-7.488c-1.599,0.264-2.635,1.776-3.222,3.155c-0.649,1.524-0.726,2.87-0.222,4.478
			c0.492,1.573,1.671,2.805,3.111,3.556C277.768,436.398,278.399,435.32,277.685,434.947L277.685,434.947z"/>
	</g>
	<g>
		<path fill="#070707" d="M214.738,434.93c16.795,10.916,43.089,6.707,59.271-3.747c0.675-0.437,0.049-1.519-0.631-1.08
			c-15.831,10.229-41.609,14.406-58.009,3.747C214.69,433.409,214.065,434.492,214.738,434.93L214.738,434.93z"/>
	</g>
	<g>
		<path fill="#070707" d="M221.73,445.101c-1.49,3.682-3.149,7.274-3.99,11.177c-0.17,0.786,1.035,1.12,1.205,0.332
			c0.842-3.902,2.5-7.494,3.99-11.177C223.238,444.686,222.028,444.363,221.73,445.101L221.73,445.101z"/>
	</g>
	<g>
		<path fill="#070707" d="M232.085,447.408c-0.052,1.889-0.746,3.696-0.798,5.588c-0.022,0.807,1.228,0.805,1.25,0
			c0.052-1.889,0.746-3.696,0.798-5.588C233.358,446.602,232.108,446.604,232.085,447.408L232.085,447.408z"/>
	</g>
	<g>
		<path fill="#070707" d="M247.727,447.52c2.263,5.85,1.61,12.097,0,18.028c-0.212,0.779,0.994,1.109,1.205,0.332
			c1.663-6.123,2.335-12.655,0-18.692C248.645,446.444,247.436,446.767,247.727,447.52L247.727,447.52z"/>
	</g>
	<g>
		<path fill="#070707" d="M265.945,444.982c0.72,3.113,0.72,6.132,0,9.245c-0.182,0.784,1.023,1.117,1.205,0.332
			c0.768-3.318,0.768-6.591,0-9.909C266.969,443.865,265.764,444.198,265.945,444.982L265.945,444.982z"/>
	</g>
	<g>
		<path fill="#070707" d="M165.746,420.646c-7.687,5.118-3.708,16.49-2.261,23.683c1.994,9.908,5.16,19.608,10.021,28.491
			c10.323,18.863,28.533,28.366,49.223,31.598c21.942,3.427,45.066,0.409,64.911-9.714c22.293-11.371,36.262-31.7,41.458-55.885
			c1.686-7.847,2.478-15.947,1.514-23.937c-0.096-0.79-1.347-0.799-1.25,0c3.13,25.934-8.629,53.381-28.597,69.788
			c-17.662,14.514-41.205,20.247-63.691,19.772c-22.079-0.465-44.228-6.965-57.966-25.212c-5.886-7.817-9.618-17.067-12.29-26.412
			c-1.317-4.604-2.279-9.307-3.104-14.021c-0.958-5.475-3.048-13.271,2.662-17.072C167.044,421.281,166.419,420.197,165.746,420.646
			L165.746,420.646z"/>
	</g>
	<g>
		<path fill="#070707" d="M213.504,382.626c4.88-0.481,8.868,1.857,13.571,2.396c6.102,0.698,12.25,0.177,18.361,0.797
			c4.785,0.485,10.249-1.142,14.869-2.115c3.193-0.672,6.38-1.327,9.617-1.752c2.324-0.305,4.379,0.396,6.625,0.38
			c0.806-0.006,0.807-1.256,0-1.25c-1.737,0.012-3.206-0.598-4.965-0.545c-2.199,0.066-4.466,0.552-6.623,0.946
			c-6.517,1.191-12.858,2.913-19.523,3.086c-5.421,0.141-11.234-0.235-16.662-0.603c-5.307-0.359-9.855-3.124-15.271-2.59
			C212.709,381.454,212.702,382.705,213.504,382.626L213.504,382.626z"/>
	</g>
	<g>
		<path fill="#070707" d="M371.398,429.103c1.757-16.207,1.287-32.474,0.794-48.735c-0.489-16.144,0.082-32.085,0.62-48.21
			c0.498-14.888-1.264-29.097-5.78-43.295c-4.042-12.705-7.814-25.384-5.332-38.809c1.027-5.555,3.559-10.855,8.496-13.881
			c7.406-4.54,14.987-0.014,18.991,6.496c7.113,11.566,1.998,25.722-2.997,37.011c-4.797,10.843-10.634,21.227-13.321,32.873
			c-1.389,6.021-1.217,12.236-1.245,18.374c-0.04,8.356,0.173,16.713,0.508,25.062c0.489,12.214,1.377,24.41,2.448,36.586
			c0.561,6.358,1.199,12.711,1.869,19.059c0.332,3.149,0.683,6.296,1.035,9.443c0.142,1.252,0.284,2.505,0.429,3.757
			c0.387,3.372-7.223,2.281-8.569,2.07c-0.788-0.123-1.127,1.081-0.332,1.205c3.48,0.545,6.509,0.029,9.909-0.799
			c0.246-0.06,0.49-0.337,0.459-0.603c-3.679-31.805-6.536-63.737-6.506-95.78c0.006-7.093,0.115-13.953,1.888-20.861
			c1.697-6.615,4.609-12.89,7.498-19.051c4.613-9.838,10.23-20.04,11.386-31.028c0.97-9.227-1.553-18.881-9.355-24.588
			c-6.977-5.103-16.197-1.137-20.472,5.368c-4.849,7.378-4.901,18.35-3.697,26.753c2.154,15.039,8.905,28.859,10.788,44.021
			c2.342,18.857-0.596,38.184-0.271,57.131c0.347,20.167,1.691,40.316-0.489,60.432
			C370.062,429.903,371.312,429.896,371.398,429.103L371.398,429.103z"/>
	</g>
	<g>
		<path fill="#070707" d="M372.973,280.446c-2.298-7.055-10.752-40.146,3.998-37.961c7.88,1.167,6.878,14.532,6.277,20.137
			c-0.521,4.865-3.468,20.415-11.362,16.653c-0.724-0.345-1.358,0.733-0.631,1.08c13.575,6.467,17.873-31.411,8.756-38.115
			c-2.275-1.673-6.577-1.62-8.74,0.231c-2.824,2.418-3.454,6.295-3.749,9.815c-0.78,9.314,1.367,19.655,4.246,28.492
			C372.016,281.541,373.224,281.215,372.973,280.446L372.973,280.446z"/>
	</g>
	<g>
		<path fill="#070707" d="M370.968,380.57c1.438,8.12-1.149,17.417-2.737,25.433c-1.029,5.197-2.867,11.055-2.022,16.405
			c1.018,6.446,12.78,12.738,12.375,2.702c-0.032-0.803-1.282-0.807-1.25,0c0.15,3.718-3.064,4.53-5.723,3.028
			c-2.73-1.543-4.028-4.001-4.263-7.028c-0.352-4.552,0.94-9.297,1.87-13.723c1.784-8.485,4.491-18.476,2.955-27.149
			C372.032,379.445,370.828,379.782,370.968,380.57L370.968,380.57z"/>
	</g>
	<g>
		<path fill="#070707" d="M371.398,425.11c-0.82-6.666-1.426-13.31,0.774-19.791c0.26-0.766-0.947-1.091-1.205-0.332
			c-2.233,6.578-1.654,13.342-0.819,20.123C370.245,425.899,371.497,425.909,371.398,425.11L371.398,425.11z"/>
	</g>
	<g>
		<path fill="#070707" d="M372.545,342.083c-0.059,4.008-0.741,7.969-0.8,11.977c-0.01,0.692,1.098,0.87,1.228,0.166
			c0.762-4.12,0.762-8.188,0-12.309c-0.146-0.792-1.351-0.456-1.205,0.332c0.723,3.906,0.723,7.738,0,11.645
			c0.409,0.056,0.818,0.11,1.228,0.166c0.059-4.008,0.741-7.969,0.8-11.977C373.807,341.276,372.557,341.277,372.545,342.083
			L372.545,342.083z"/>
	</g>
	<g>
		<path fill="#070707" d="M368.553,248.682c-0.092,10.097-3.76,24.231,3.83,32.665c5.564,6.184,10.109-7.951,10.967-10.945
			c0.223-0.776-0.983-1.105-1.205-0.332c-1.054,3.677-2.192,7.759-4.996,10.523c-3.172,3.127-5.684-2.704-6.492-4.904
			c-3.136-8.538-0.935-18.141-0.854-27.007C369.811,247.875,368.561,247.876,368.553,248.682L368.553,248.682z"/>
	</g>
	<g>
		<path fill="#070707" d="M138.943,453.592c8.317,5.577,19.811,10.072,29.97,9.95c0.806-0.01,0.807-1.26,0-1.25
			c-9.911,0.119-21.265-4.365-29.339-9.78C138.903,452.062,138.278,453.145,138.943,453.592L138.943,453.592z"/>
	</g>
	<g>
		<path fill="#070707" d="M321.112,460.839c9.517,1.411,18.854-4.414,26.827-8.844c0.705-0.392,0.074-1.472-0.631-1.08
			c-7.639,4.244-16.741,10.071-25.864,8.719C320.656,459.517,320.317,460.721,321.112,460.839L321.112,460.839z"/>
	</g>
	<g>
		<path fill="#070707" d="M217.669,375.401c0,2.201,0,4.403,0,6.604c0,0.806,1.25,0.806,1.25,0c0-2.201,0-4.403,0-6.604
			C218.919,374.596,217.669,374.596,217.669,375.401L217.669,375.401z"/>
	</g>
	<g>
		<path fill="#070707" d="M225.818,376.603c0,2.562,0,5.122,0,7.684c0,0.806,1.25,0.806,1.25,0c0-2.562,0-5.122,0-7.684
			C227.068,375.797,225.818,375.797,225.818,376.603L225.818,376.603z"/>
	</g>
	<g>
		<path fill="#070707" d="M233.657,377.425c0.717,2.315,0.717,4.538,0,6.853c-0.239,0.771,0.968,1.1,1.205,0.332
			c0.778-2.51,0.777-5.007,0-7.517C234.625,376.325,233.418,376.652,233.657,377.425L233.657,377.425z"/>
	</g>
	<g>
		<path fill="#070707" d="M242.867,377.503c0.034,2.489,0.463,5.001,0.82,7.461c0.115,0.795,1.32,0.456,1.205-0.332
			c-0.341-2.351-0.743-4.751-0.775-7.129C244.106,376.697,242.856,376.696,242.867,377.503L242.867,377.503z"/>
	</g>
	<g>
		<path fill="#070707" d="M252.02,376.578c0.776,2.531,0.774,5.194,0.775,7.818c0,0.806,1.25,0.806,1.25,0
			c-0.001-2.732-0.013-5.516-0.82-8.15C252.989,375.478,251.782,375.806,252.02,376.578L252.02,376.578z"/>
	</g>
	<g>
		<path fill="#070707" d="M260.002,376.578c0.635,2.037,0.773,4.102,0.775,6.222c0.001,0.806,1.251,0.806,1.25,0
			c-0.002-2.229-0.153-4.413-0.82-6.554C260.968,375.479,259.762,375.807,260.002,376.578L260.002,376.578z"/>
	</g>
	<g>
		<path fill="#070707" d="M268.049,374.877c1.328,1.991,1.509,4.099,1.511,6.428c0.001,0.806,1.251,0.806,1.25,0
			c-0.002-2.547-0.234-4.888-1.681-7.059C268.684,373.579,267.601,374.204,268.049,374.877L268.049,374.877z"/>
	</g>
	<g>
		<path fill="#070707" d="M162.458,436.112c3.052,0,6.105,0,9.157,0c0.806,0,0.806-1.25,0-1.25c-3.052,0-6.105,0-9.157,0
			C161.652,434.862,161.652,436.112,162.458,436.112L162.458,436.112z"/>
	</g>
	<g>
		<path fill="#070707" d="M165.193,449.014c2.514,0.858,5.125-0.157,7.571-0.797c0.779-0.203,0.449-1.409-0.332-1.205
			c-2.218,0.579-4.628,1.575-6.907,0.797C164.76,447.547,164.435,448.755,165.193,449.014L165.193,449.014z"/>
	</g>
	<g>
		<path fill="#070707" d="M169.935,463.73c2.364,0.797,4.012-0.901,5.446-2.553c0.526-0.606-0.354-1.494-0.884-0.885
			c-1.112,1.282-2.346,2.867-4.23,2.232C169.501,462.268,169.175,463.475,169.935,463.73L169.935,463.73z"/>
	</g>
	<g>
		<path fill="#070707" d="M178.945,479.637c1.42-0.711,2.95-1.391,4.118-2.493c0.587-0.555-0.299-1.438-0.885-0.885
			c-1.079,1.021-2.551,1.641-3.864,2.298C177.594,478.918,178.227,479.996,178.945,479.637L178.945,479.637z"/>
	</g>
	<g>
		<path fill="#070707" d="M187.957,489.6c1.846-0.035,2.934-1.133,3.734-2.703c0.365-0.717-0.714-1.35-1.08-0.631
			c-0.592,1.161-1.26,2.058-2.654,2.084C187.152,488.365,187.15,489.615,187.957,489.6L187.957,489.6z"/>
	</g>
	<g>
		<path fill="#070707" d="M208.422,499.867c0.366-1.188,0.504-2.456,1.027-3.593c0.334-0.727-0.743-1.362-1.079-0.631
			c-0.573,1.245-0.752,2.591-1.153,3.892C206.979,500.308,208.186,500.635,208.422,499.867L208.422,499.867z"/>
	</g>
	<g>
		<path fill="#070707" d="M225.221,504.458c0.655-1.312,1.599-2.803,1.681-4.307c0.044-0.806-1.206-0.802-1.25,0
			c-0.068,1.254-0.964,2.581-1.511,3.676C223.782,504.546,224.86,505.179,225.221,504.458L225.221,504.458z"/>
	</g>
	<g>
		<path fill="#070707" d="M240.473,504.942c0-1.597,0-3.194,0-4.791c0-0.806-1.25-0.806-1.25,0c0,1.597,0,3.194,0,4.791
			C239.223,505.748,240.473,505.748,240.473,504.942L240.473,504.942z"/>
	</g>
	<g>
		<path fill="#070707" d="M253.96,504.363c1.061-1.649,0.882-3.937,0.883-5.809c0-0.806-1.25-0.806-1.25,0
			c-0.001,1.644,0.218,3.732-0.713,5.178C252.442,504.412,253.525,505.039,253.96,504.363L253.96,504.363z"/>
	</g>
	<g>
		<path fill="#070707" d="M266.733,502.065c1.073-1.726-0.11-4.149-0.734-5.824c-0.278-0.749-1.487-0.425-1.205,0.332
			c0.473,1.271,1.675,3.552,0.859,4.861C265.227,502.121,266.309,502.748,266.733,502.065L266.733,502.065z"/>
	</g>
	<g>
		<path fill="#070707" d="M277.563,491.536c0.688,2.096,1.294,4.351,2.461,6.243c0.423,0.685,1.504,0.058,1.08-0.631
			c-1.111-1.802-1.681-3.948-2.336-5.944C278.519,490.441,277.312,490.769,277.563,491.536L277.563,491.536z"/>
	</g>
	<g>
		<path fill="#070707" d="M290.401,484.501c1.21,2.283,2.604,4.904,5.509,5.011c0.807,0.029,0.804-1.221,0-1.25
			c-2.359-0.086-3.47-2.581-4.429-4.392C291.104,483.157,290.024,483.789,290.401,484.501L290.401,484.501z"/>
	</g>
	<g>
		<path fill="#070707" d="M301.803,475.598c2.033,1.258,4.067,2.513,6.102,3.77c0.688,0.425,1.315-0.657,0.631-1.08
			c-2.034-1.256-4.068-2.512-6.102-3.77C301.746,474.093,301.119,475.174,301.803,475.598L301.803,475.598z"/>
	</g>
	<g>
		<path fill="#070707" d="M312.495,462.851c2.02,0.073,3.892,1.25,5.092,2.842c0.479,0.635,1.565,0.014,1.08-0.631
			c-1.479-1.961-3.675-3.37-6.172-3.461C311.688,461.571,311.691,462.821,312.495,462.851L312.495,462.851z"/>
	</g>
	<g>
		<path fill="#070707" d="M318.883,448.886c2.064,0.002,4.326-0.068,5.945,1.416c0.594,0.543,1.479-0.339,0.885-0.885
			c-1.896-1.736-4.392-1.779-6.83-1.781C318.077,447.635,318.077,448.885,318.883,448.886L318.883,448.886z"/>
	</g>
	<g>
		<path fill="#070707" d="M321.972,434.711c2.278,0.075,4.646,1.267,6.648,2.282c0.717,0.363,1.35-0.715,0.631-1.08
			c-2.208-1.12-4.769-2.369-7.279-2.452C321.165,433.435,321.168,434.685,321.972,434.711L321.972,434.711z"/>
	</g>
	<g>
		<path fill="#070707" d="M222.912,443.472c0.038-1.894,1.49-2.728,3.059-3.432c0.734-0.33,0.098-1.407-0.631-1.08
			c-2.011,0.902-3.631,2.148-3.678,4.512C221.646,444.278,222.896,444.276,222.912,443.472L222.912,443.472z"/>
	</g>
	<g>
		<path fill="#070707" d="M233.266,447.084c0.343-1.104,0.5-2.254,0.661-3.396c0.074-0.532,0.147-1.063,0.235-1.593
			c0.034-0.205,0.077-0.407,0.124-0.609c0.015-0.055,0.03-0.109,0.044-0.164c0.149-0.305-0.054-0.344-0.609-0.117
			c0.481,0.633,1.568,0.011,1.079-0.631c-0.792-1.04-1.545-0.175-1.762,0.765c-0.414,1.791-0.428,3.647-0.977,5.414
			C231.821,447.523,233.027,447.852,233.266,447.084L233.266,447.084z"/>
	</g>
	<g>
		<path fill="#070707" d="M244.465,447.464c0-2.255,0-4.509,0-6.764c0-0.806-1.25-0.806-1.25,0c0,2.255,0,4.509,0,6.764
			C243.215,448.27,244.465,448.27,244.465,447.464L244.465,447.464z"/>
	</g>
	<g>
		<path fill="#070707" d="M256.417,446.879c0.998-2.604,0.767-5.871,0.82-8.619c-0.417,0-0.833,0-1.25,0c0,0.026,0,0.054,0,0.08
			c0,0.806,1.25,0.806,1.25,0c0-0.026,0-0.054,0-0.08c-0.006-0.807-1.234-0.806-1.25,0c-0.052,2.644,0.183,5.787-0.775,8.287
			C254.923,447.301,256.132,447.624,256.417,446.879L256.417,446.879z"/>
	</g>
	<g>
		<path fill="#070707" d="M266.818,444.372c-0.001-3.267-0.082-6.556-0.819-9.752c-0.181-0.785-1.386-0.452-1.205,0.332
			c0.712,3.087,0.773,6.266,0.774,9.42C265.568,445.178,266.818,445.178,266.818,444.372L266.818,444.372z"/>
	</g>
	<g>
		<path fill="#070707" d="M161.874,63.375c-5.997-2.661-8.149-8.569-8.247-14.772c-0.013-0.805-1.263-0.807-1.25,0
			c0.104,6.611,2.487,13.021,8.866,15.852C161.973,64.778,162.609,63.702,161.874,63.375L161.874,63.375z"/>
	</g>
	<g>
		<path fill="#070707" d="M207.518,159.238c-0.317-6.64-5.45-12.158-9.179-17.279c-0.943-1.295-1.896-2.583-2.836-3.881
			c-2.44-3.371,0.632-2.042,2.773-1.388c4.13,1.262,8.387,2.075,12.649,2.731c10.445,1.609,21.015,1.25,31.515,0.56
			c7.745-0.509,16.4-0.57,23.819-3.101c0.998-0.34,2.394-1.008,2.032-2.278c-0.814-2.868-6.654-1.541-8.574-1.187
			c-0.792,0.146-0.456,1.351,0.332,1.205c1.146-0.211,9.648-0.231,5.384,1.224c-2.097,0.715-4.372,0.998-6.553,1.32
			c-5.739,0.846-11.554,1.247-17.339,1.626c-16.379,1.076-32.663,0.474-48.293-5.075c-0.456-0.162-0.893,0.334-0.769,0.769
			c2.588,9.063,13.314,14.821,13.788,24.753C206.306,160.04,207.557,160.044,207.518,159.238L207.518,159.238z"/>
	</g>
	<g>
		<path fill="#070707" d="M266.637,135.804c-1.68,6.301-6.485,11.802-5.104,18.646c0.159,0.79,1.364,0.455,1.205-0.332
			c-1.31-6.494,3.505-11.98,5.104-17.982C268.05,135.356,266.844,135.025,266.637,135.804L266.637,135.804z"/>
	</g>
	<g>
		<path fill="#070707" d="M193.248,134.408c3.118-1.396,7.292,0.42,10.493,0.836c0.798,0.104,0.788-1.147,0-1.25
			c-3.529-0.458-7.658-2.217-11.124-0.666C191.883,133.657,192.519,134.734,193.248,134.408L193.248,134.408z"/>
	</g>
	<g>
		<path fill="#070707" d="M221.002,140.489c1.344,5.671,0.965,11.493,1.629,17.247c0.091,0.791,1.342,0.8,1.25,0
			c-0.677-5.867-0.304-11.798-1.674-17.579C222.021,139.373,220.816,139.706,221.002,140.489L221.002,140.489z"/>
	</g>
	<g>
		<path fill="#070707" d="M241.718,139.707c-1.278,5.005-2.304,11.423,0.063,16.243c0.355,0.724,1.433,0.09,1.079-0.631
			c-2.189-4.458-1.113-10.671,0.063-15.28C243.123,139.258,241.917,138.926,241.718,139.707L241.718,139.707z"/>
	</g>
	<g>
		<path fill="#070707" d="M373.161,248.122c1.036-1.457,1.736-2.687,2.314-4.353c0.126-0.362-0.21-0.828-0.603-0.791
			c-2.364,0.22-3.488,2.62-4.205,4.662c-0.206,0.586,0.636,1.069,1.045,0.608c1.357-1.534,2.139-3.175,2.862-5.08
			c0.269-0.705-0.762-1.023-1.143-0.481c-0.752,1.016-1.453,2.067-2.102,3.152c0.36,0.21,0.72,0.42,1.08,0.631
			c0.617-0.889,1.118-1.84,1.501-2.852c0.297-0.664-0.417-1.205-0.982-0.757c-1.441,1.143-2.195,2.482-2.862,4.179
			c-0.283,0.72,0.752,0.989,1.143,0.481c0.97-1.262,1.379-2.236,1.714-3.752c0.154-0.695-0.755-1.086-1.143-0.481
			c-1.245,1.945-2.086,4.008-2.915,6.154c-0.259,0.669,0.808,1.092,1.143,0.481c0.848-1.544,1.334-3.076,1.714-4.803
			c0.158-0.715-0.734-1.053-1.143-0.481c-1.132,1.586-1.564,3.192-1.736,5.119c-0.068,0.763,0.984,0.762,1.228,0.166
			c0.573-1.406,0.801-2.709,1.051-4.203c0.108-0.645-0.823-1.173-1.143-0.481c-1.23,2.673-1.415,5.176-1.436,8.122
			c-0.005,0.713,1.033,0.841,1.228,0.166c0.475-1.649,0.782-3.122,0.923-4.82c0.05-0.603-0.913-0.879-1.165-0.315
			c-1.807,4.051-1.616,8.423-1.436,12.775c0.033,0.811,1.193,0.799,1.25,0c0.146-2.058-0.028-4.094,0-6.155
			c0.01-0.696-1.078-0.864-1.228-0.166c-0.512,2.394-0.675,4.614-0.473,7.071c0.054,0.652,1.126,0.909,1.228,0.166
			c0.409-2.995,0.57-6.011,0.979-9.006c0.345-2.526,1.684-4.669,1.895-7.222c0.058-0.695-0.831-0.748-1.165-0.315
			c-6.899,8.946-4.313,25.614,1.651,34.256c0.454,0.657,1.531,0.044,1.08-0.631c-2.209-3.302-2.872-6.893-3.841-10.659
			c-0.146-0.567-1.103-0.628-1.205,0c-0.845,5.165,1.549,10.907,5.842,13.917c0.21-0.36,0.421-0.72,0.631-1.08
			c-2.936-1.263-3.917-4.271-4.667-7.132c-0.205-0.784-1.373-0.451-1.205,0.332c0.474,2.211,1.683,8.026,4.956,7.965
			c3.641-0.067,4.681-3.56,5.856-6.464c-0.401-0.111-0.804-0.221-1.205-0.332c-0.064,0.516-0.176,1.021-0.333,1.518
			c-0.651,2.481-3.436,2.288-3.693-0.15c-0.308-2.906-1.346-5.867-1.974-8.723c-0.149-0.68-1.312-0.538-1.228,0.166
			c0.455,3.758,0.47,7.653,2.486,10.974c0.343,0.564,1.107,0.282,1.165-0.315c0.426-4.438-1.084-8.947-2.937-12.925
			c-0.25-0.536-0.978-0.307-1.143,0.149c-1.354,3.741-0.381,10.002,2.411,12.917c0.388,0.404,1.055,0.089,1.067-0.442
			c0.095-3.985-1.291-7.912-3.087-11.424c-0.315-0.616-1.095-0.238-1.165,0.315c-0.534,4.232,0.426,9.968,3.785,12.902
			c0.403,0.352,1.061,0.128,1.067-0.442c0.056-4.488-2.558-9.388-4.075-13.526c-0.245-0.67-1.172-0.549-1.228,0.166
			c-0.37,4.763,0.727,10.188,3.785,13.952c0.348,0.427,1.089,0.072,1.067-0.442c-0.271-6.448-4.815-11.908-4.053-18.464
			c-0.409,0.055-0.818,0.111-1.228,0.166c0.567,3.594,0.463,7.221,1.051,10.809c0.1,0.608,1.09,0.59,1.205,0
			c1.322-6.769-1.885-13.363-0.45-20.115c-0.409-0.055-0.818-0.111-1.228-0.166c-0.047,4.348-1.041,8.582-1.352,12.91
			c-0.052,0.727,1.027,0.818,1.228,0.166c1.67-5.443,1.156-11.062,1.374-16.679c0.027-0.697-1.097-0.864-1.228-0.166
			c-0.867,4.612-2.068,9.103-1.975,13.827c0.015,0.727,1,0.824,1.228,0.166c1.574-4.539,1.229-9.306,2.252-13.961
			c-0.409-0.055-0.818-0.111-1.228-0.166c0.055,3.662-0.492,7.177-1.248,10.748c-0.315,1.494-0.446,2.983,0.433,4.279
			c0.275,0.406,0.803,0.396,1.08,0c3.089-4.424,1.42-10.153,1.736-15.177c-0.417,0-0.833,0-1.25,0
			c0.776,6.679-2.131,14.333,0.172,20.731c0.195,0.544,0.809,0.583,1.143,0.149c1.246-1.622,1.198-3.609,1.19-5.581
			c-0.018-4.26-0.053-8.493,0.246-12.749c-0.417,0-0.833,0-1.25,0c0.063,6.683-2.381,15.156,0.385,21.481
			c0.232,0.531,0.996,0.315,1.143-0.149c0.843-2.675,0.638-5.366,0.503-8.138c-0.215-4.423-0.142-8.925,0.12-13.344
			c0.042-0.704-1.078-0.853-1.228-0.166c-0.834,3.821-1.081,7.681-1.373,11.575c-0.267,3.548-1.023,6.772,0.172,10.224
			c0.208,0.601,0.993,0.588,1.205,0c1.02-2.824,0.348-5.823-0.028-8.72c-0.617-4.756-0.896-9.806-0.121-14.547
			c-0.401,0-0.804,0-1.205,0c1.203,6.898-2.538,14.915,0.513,21.465c0.25,0.537,0.977,0.306,1.143-0.149
			c1.141-3.131,0.705-6.402,0.408-9.658c-0.418-4.568-0.326-9.349-0.086-13.926c0.042-0.807-1.205-0.801-1.25,0
			c-0.356,6.409-2.212,12.538-0.728,18.931c0.137,0.59,1.08,0.607,1.205,0c1.322-6.405,0.602-12.9,1.073-19.381
			c0.059-0.808-1.18-0.794-1.25,0c-0.488,5.527-2.205,10.982-1.028,16.528c0.139,0.653,1.011,0.537,1.205,0
			c2.211-6.109,1.233-12.595,2.251-18.914c-0.409-0.055-0.818-0.111-1.228-0.166c0.012,5.965-1.072,11.895-1.716,17.817
			c-0.284,2.618-0.896,6.694,1.448,8.594c0.374,0.303,0.882,0.197,1.045-0.276c2.181-6.302,0.662-14.321,0.623-20.882
			c-0.005-0.815-1.189-0.794-1.25,0c-0.523,6.917-2.501,15.35-0.277,22.083c0.188,0.568,1.043,0.624,1.205,0
			c1.828-7.045-0.472-14.221,0.9-21.316c-0.409-0.055-0.818-0.111-1.228-0.166c0.595,6.843-1.991,14.025-0.428,20.731
			c0.136,0.581,0.843,0.546,1.143,0.149c1.456-1.93,1.457-4.424,1.53-6.753c0.139-4.415-0.014-8.846,0.784-13.211
			c-0.409-0.055-0.818-0.111-1.228-0.166c-0.155,6.486-2.786,14.09-1.028,20.431c0.136,0.491,0.899,0.652,1.143,0.149
			c2.601-5.391,0.294-12.401,0.835-18.179c-0.417,0-0.833,0-1.25,0c0.201,4.02,0.069,8.13-0.242,12.142
			c-0.221,2.83-0.489,5.454,0.928,7.988c0.241,0.43,0.828,0.378,1.08,0c1.273-1.91,1.216-3.88,1.075-6.136
			c-0.264-4.23-0.655-8.432-1.141-12.644c-0.093-0.8-1.165-0.808-1.25,0c-0.489,4.666-0.581,9.362-0.944,14.038
			c-0.181,2.323-0.167,4.571,1.428,6.369c0.257,0.29,0.809,0.223,0.982-0.126c2.701-5.438-0.227-13.503,0.085-19.38
			c-0.417,0-0.833,0-1.25,0c0.146,3.846,0.098,7.677-0.084,11.521c-0.099,2.083-0.057,3.978,1.069,5.757
			c0.229,0.361,0.875,0.451,1.08,0c2.454-5.396,0.829-11.441,0.686-17.128c-0.021-0.825-1.159-0.782-1.25,0
			c-0.5,4.293-1.92,9.751-0.729,13.977c0.131,0.466,0.701,0.592,1.045,0.276c3.471-3.193,2.54-9.98,1.812-14.118
			c-0.106-0.605-1.088-0.592-1.205,0c-0.973,4.924-2.76,11.211-1.201,16.094c0.168,0.528,0.842,0.606,1.143,0.149
			c1.372-2.089,1.174-4.497,1.136-6.92c-0.062-3.941-0.253-7.744-1.223-11.575c-0.127-0.503-0.899-0.64-1.143-0.149
			c-1.031,2.082-1.235,4.232-1.454,6.521c-0.323,3.38-1.343,6.318-0.71,9.722c0.081,0.437,0.76,0.634,1.045,0.276
			c1.592-2.006,1.466-4.428,1.309-6.894c-0.305-4.788-0.8-9.526-1.449-14.28c-0.103-0.752-1.16-0.475-1.228,0.166
			c-0.598,5.719-2.138,11.652-0.277,17.279c0.189,0.573,1.037,0.619,1.205,0c1.443-5.3,0.952-11.989,0.623-17.429
			c-0.043-0.715-0.993-0.837-1.228-0.166c-1.636,4.668-2.8,11.932-1.352,16.694c0.163,0.538,0.841,0.595,1.143,0.149
			c1.172-1.734,1.198-3.647,1.19-5.688c-0.017-4.126-0.178-8.242-0.655-12.341c-0.078-0.667-1.026-0.892-1.228-0.166
			c-0.86,3.1-1.659,6.216-2.552,9.307c0.409,0.055,0.818,0.111,1.228,0.166c0.183-3.436,1-6.761,1.051-10.208
			c0.009-0.612-0.868-0.866-1.165-0.315c-1.26,2.343-2.021,4.725-2.464,7.355c-0.11,0.654,0.794,1.155,1.143,0.481
			c1.359-2.63,1.795-5.321,1.586-8.271c-0.042-0.598-0.837-0.882-1.165-0.315c-1.297,2.242-2.136,4.541-2.765,7.055
			c-0.17,0.677,0.795,1.117,1.143,0.481c1.324-2.425,2.189-4.794,2.765-7.505c0.144-0.674-0.782-1.123-1.143-0.481
			c-0.631,1.124-1.104,2.252-1.563,3.452c-0.258,0.673,0.801,1.086,1.143,0.481c1.002-1.776,1.937-3.581,2.852-5.404
			c-0.381-0.161-0.762-0.321-1.143-0.481c-0.639,1.521-1.109,2.87-1.351,4.503c-0.089,0.603,0.55,1.058,1.045,0.608
			c1.358-1.236,1.993-2.601,2.562-4.329c0.257-0.779-0.918-1.066-1.205-0.332c-0.814,2.079-1.802,3.922-1.974,6.17
			c-0.044,0.571,0.698,0.791,1.067,0.442c1.591-1.506,2.411-3.191,3.162-5.229c0.247-0.669-0.816-1.103-1.143-0.481
			c-1.273,2.433-2.484,4.873-2.486,7.671c0,0.495,0.525,0.751,0.94,0.54c2.531-1.289,3.766-4.614,4.062-7.294
			c0.059-0.528-0.734-0.849-1.067-0.442c-1.941,2.373-3.475,5.774-2.712,8.864c0.104,0.419,0.565,0.54,0.918,0.374
			c2.54-1.194,3.426-4.194,3.312-6.845c-0.022-0.519-0.679-0.861-1.067-0.442c-2.031,2.194-2.913,5.482-2.412,8.414
			c0.054,0.314,0.473,0.549,0.769,0.437c2.957-1.126,3.554-5.196,2.988-7.974c-0.092-0.452-0.741-0.614-1.045-0.276
			c-1.901,2.122-3.128,6.067-2.411,8.864c0.2,0.781,1.405,0.449,1.205-0.332c-0.642-2.504,1.286-4.372,1.203-6.489
			c-0.078,0.627-0.155,1.253-0.233,1.88c-0.036,0.91-0.497,1.533-1.382,1.872c0.019-1.93,0.898-4.103,2.203-5.511
			c-0.356-0.147-0.712-0.294-1.067-0.442c0.013,0.298,0.025,0.595,0.038,0.893c0.287,1.615-0.312,2.45-1.797,2.504
			c0.314-1.771,1.246-3.527,2.376-4.906c-0.356-0.147-0.712-0.294-1.067-0.442c-0.186,1.674-0.869,3.134-1.688,4.579
			c-0.911,0.089-0.959-0.375-0.143-1.392c0.48-1.19,1.028-2.348,1.645-3.472c-0.381-0.161-0.762-0.321-1.143-0.481
			c-0.476,1.848-1.423,3.407-2.842,4.678c0.356,0.147,0.712,0.294,1.067,0.442c0.162-2.11,1.175-3.914,1.929-5.838
			c-0.401-0.111-0.804-0.221-1.205-0.332c-0.307,1.521-1.054,2.78-2.241,3.777c0.349,0.203,0.697,0.405,1.045,0.608
			c0.241-1.633,0.712-2.983,1.351-4.503c0.275-0.655-0.828-1.108-1.143-0.481c-0.914,1.823-1.849,3.627-2.852,5.404
			c0.381,0.161,0.762,0.321,1.143,0.481c0.35-1.114,0.829-2.165,1.438-3.153c-0.381-0.161-0.762-0.321-1.143-0.481
			c-0.544,2.563-1.377,4.895-2.64,7.206c0.381,0.161,0.762,0.321,1.143,0.481c0.597-2.383,1.402-4.618,2.64-6.756
			c-0.389-0.105-0.776-0.21-1.165-0.315c0.19,2.697-0.152,5.196-1.416,7.641c0.381,0.161,0.762,0.321,1.143,0.481
			c0.429-2.55,1.1-4.754,2.339-7.056c-0.389-0.105-0.776-0.21-1.165-0.315c-0.051,3.437-0.869,6.78-1.051,10.208
			c-0.038,0.72,1.036,0.83,1.228,0.166c0.893-3.091,1.691-6.207,2.552-9.307c-0.409-0.055-0.818-0.111-1.228-0.166
			c0.515,4.417,2.312,13.438-0.365,17.398c0.381,0.05,0.762,0.1,1.143,0.149c-1.304-4.288-0.102-11.882,1.352-16.03
			c-0.409-0.055-0.818-0.111-1.228-0.166c0.318,5.27,0.819,11.966-0.578,17.097c0.401,0,0.804,0,1.205,0
			c-1.824-5.519-0.264-11.341,0.322-16.947c-0.409,0.055-0.818,0.111-1.228,0.166c0.737,5.394,1.395,10.821,1.498,16.27
			c-0.185,2.515-0.268,2.976-0.248,1.383c-0.038-1.769,0.523-3.744,0.856-5.494c0.469-2.464,0.282-4.873,1.438-7.206
			c-0.381-0.05-0.762-0.1-1.143-0.149c1.062,4.195,2.885,13.461,0.212,17.532c0.381,0.05,0.762,0.1,1.143,0.149
			c-1.333-4.178,0.377-11.255,1.201-15.43c-0.401,0-0.804,0-1.205,0c0.589,3.346,0.699,6.831,0.028,10.171
			c-1.01,5.03-0.424-2.745-0.462-2.438c0.337-2.724,0.442-5.471,0.761-8.2c-0.417,0-0.833,0-1.25,0
			c0.122,4.821,1.153,9.622,0.254,14.425c-0.667-0.417-0.875-1.027-0.623-1.83c-0.032-1.14,0.087-2.298,0.118-3.439
			c0.086-3.111,0.118-6.196,0-9.307c-0.03-0.808-1.207-0.803-1.25,0c-0.156,2.949,0.026,5.833,0.292,8.771
			c0.122,1.352,0.247,2.701,0.397,4.051c0.04,0.446,0.079,0.892,0.119,1.337c0.494,1.259,0.206,1.683-0.861,1.274
			c-0.458-5.221,0.459-11.155,1.002-16.333c-0.417,0-0.833,0-1.25,0c0.369,3.203,0.718,6.402,0.952,9.618
			c0.031,1.011,0.094,2.019,0.188,3.025c0.025,0.413,0.052,0.826,0.077,1.239c0.413,1.3,0.128,1.639-0.854,1.017
			c-0.55-5.295,0.703-10.894,0.436-16.25c-0.041-0.815-1.176-0.794-1.25,0c-0.503,5.371,1.753,12.536-0.665,17.548
			c0.381,0.05,0.762,0.1,1.143,0.149c-1.71-6.168,0.923-13.79,1.073-20.099c0.017-0.694-1.1-0.868-1.228-0.166
			c-0.638,3.491-0.66,6.984-0.773,10.524c-0.094,2.93,0.448,6.671-1.416,9.142c0.381,0.05,0.762,0.1,1.143,0.149
			c-1.529-6.561,1.056-13.699,0.473-20.399c-0.058-0.658-1.085-0.904-1.228-0.166c-1.371,7.089,0.922,14.29-0.9,21.316
			c0.401,0,0.804,0,1.205,0c-2.15-6.512-0.187-15.029,0.322-21.75c-0.417,0-0.833,0-1.25,0c0.025,4.35,0.098,8.702,0.178,13.05
			c0.04,2.108,0.075,4.019-0.283,6.133c0.103-0.607-0.721-3.272-0.686-4.413c0.205-6.711,1.904-13.289,1.891-20.024
			c-0.001-0.686-1.113-0.878-1.228-0.166c-1.014,6.298-0.049,12.83-2.251,18.914c0.401,0,0.804,0,1.205,0
			c-1.147-5.405,0.598-10.807,1.073-16.196c-0.417,0-0.833,0-1.25,0c-0.464,6.364,0.271,12.755-1.028,19.049
			c0.401,0,0.804,0,1.205,0c-1.451-6.254,0.424-12.338,0.772-18.599c-0.417,0-0.833,0-1.25,0c-0.223,4.255-0.036,8.502,0,12.76
			c0.03,3.588,1.003,6.978-0.277,10.492c0.381-0.05,0.762-0.1,1.143-0.149c-2.925-6.279,0.772-14.516-0.388-21.167
			c-0.104-0.596-1.106-0.603-1.205,0c-0.666,4.07-0.46,8.07-0.146,12.168c0.27,3.525,1.522,7.698,0.295,11.1
			c0.401,0,0.804,0,1.205,0c-1.133-3.272-0.516-6.549-0.127-9.892c0.439-3.779,0.511-7.499,1.328-11.243
			c-0.409-0.055-0.818-0.111-1.228-0.166c-0.205,3.475-0.188,6.942-0.158,10.422c0.031,3.525,0.652,7.323-0.42,10.728
			c0.381-0.05,0.762-0.1,1.143-0.149c-2.587-5.915-0.155-14.603-0.215-20.851c-0.008-0.814-1.194-0.796-1.25,0
			c-0.211,3.002-0.283,5.998-0.3,9.007c-0.014,2.68,0.76,6.445-0.967,8.691c0.381,0.05,0.762,0.1,1.143,0.149
			c-2.229-6.194,0.628-13.905-0.127-20.399c-0.092-0.789-1.198-0.819-1.25,0c-0.284,4.503,0.999,9.339-0.911,13.608
			c0.42-0.94,0.649-4.213,0.81-5.502c0.331-2.661,0.641-5.27,0.601-7.956c-0.011-0.69-1.073-0.871-1.228-0.166
			c-1.018,4.633-0.687,9.446-2.252,13.961c0.409,0.055,0.818,0.111,1.228,0.166c-0.092-4.601,1.086-9.006,1.93-13.495
			c-0.409-0.055-0.818-0.111-1.228-0.166c-0.213,5.491,0.305,11.021-1.329,16.347c0.409,0.055,0.818,0.111,1.228,0.166
			c0.312-4.338,1.305-8.551,1.352-12.91c0.008-0.696-1.079-0.865-1.228-0.166c-1.439,6.775,1.77,13.359,0.45,20.115
			c0.401,0,0.804,0,1.205,0c-0.588-3.589-0.483-7.219-1.051-10.809c-0.119-0.756-1.153-0.471-1.228,0.166
			c-0.767,6.591,3.781,12.001,4.053,18.464c0.355-0.147,0.711-0.295,1.067-0.442c-2.829-3.479-3.761-8.69-3.42-13.067
			c-0.409,0.055-0.818,0.111-1.228,0.166c1.426,3.89,4.082,9.021,4.03,13.194c0.355-0.147,0.711-0.295,1.067-0.442
			c-3.098-2.704-3.913-8.11-3.42-12.018c-0.389,0.105-0.776,0.21-1.165,0.315c1.685,3.294,3.006,7.051,2.917,10.793
			c0.355-0.147,0.711-0.295,1.067-0.442c-2.479-2.587-3.288-8.392-2.091-11.701c-0.381,0.05-0.762,0.1-1.143,0.149
			c1.757,3.772,3.17,8.096,2.767,12.294c0.389-0.105,0.776-0.21,1.165-0.315c-1.904-3.134-1.889-6.809-2.316-10.343
			c-0.409,0.055-0.818,0.111-1.228,0.166c0.755,3.437,1.379,6.931,2.155,10.351c0.239,1.054,0.506,2.357,1.733,2.695
			c2.839,0.781,4.205-3.783,4.521-5.69c0.134-0.803-0.903-1.078-1.205-0.332c-0.549,1.354-3.266,9.404-6.891,3.281
			c-0.828-1.398-1.174-3.204-1.512-4.783c-0.401,0.111-0.804,0.221-1.205,0.332c0.83,3.171,2.036,6.5,5.241,7.88
			c0.733,0.315,1.302-0.609,0.631-1.08c-3.785-2.652-6.013-7.944-5.268-12.504c-0.401,0-0.804,0-1.205,0
			c1.003,3.901,1.699,7.569,3.966,10.958c0.36-0.21,0.72-0.421,1.08-0.631c-5.738-8.313-8.29-24.387-1.651-32.995
			c-0.389-0.105-0.776-0.21-1.165-0.315c-0.197,2.387-1.37,4.559-1.85,6.889c-0.605,2.94-0.575,6.041-0.979,9.007
			c0.409,0.055,0.818,0.111,1.228,0.166c-0.198-2.407-0.092-4.309,0.428-6.739c-0.409-0.055-0.818-0.111-1.228-0.166
			c-0.028,2.061,0.146,4.097,0,6.155c0.417,0,0.833,0,1.25,0c-0.169-4.079-0.44-8.32,1.266-12.144
			c-0.389-0.105-0.776-0.21-1.165-0.315c-0.096,1.539-0.389,3.035-0.878,4.488c0.409,0.055,0.818,0.111,1.228,0.166
			c0.019-2.686,0.056-4.863,1.266-7.491c-0.381-0.161-0.762-0.321-1.143-0.481c-0.251,1.494-0.478,2.797-1.051,4.203
			c0.409,0.055,0.818,0.111,1.228,0.166c0.012-1.675,0.533-3.171,1.566-4.488c-0.381-0.161-0.762-0.321-1.143-0.481
			c-0.362,1.646-0.754,2.984-1.589,4.504c0.381,0.161,0.762,0.321,1.143,0.481c0.79-2.044,1.607-4.009,2.79-5.855
			c-0.381-0.161-0.762-0.321-1.143-0.481c-0.147,1.353-0.677,2.504-1.589,3.453c0.381,0.161,0.762,0.321,1.143,0.481
			c0.427-1.503,1.273-2.712,2.542-3.627c-0.328-0.252-0.655-0.505-0.982-0.757c-0.383,1.012-0.883,1.963-1.501,2.852
			c-0.419,0.693,0.651,1.31,1.08,0.631c0.648-1.085,1.349-2.136,2.102-3.152c-0.381-0.161-0.762-0.321-1.143-0.481
			c-0.49,1.71-1.337,3.219-2.542,4.528c0.349,0.203,0.697,0.405,1.045,0.608c0.412-1.174,2.036-3.05,0.208-0.481
			C371.613,248.149,372.697,248.773,373.161,248.122L373.161,248.122z"/>
	</g>
	<g>
		<path fill="#070707" d="M375.188,244.293c0.466,0.275,0.932,0.551,1.396,0.827c0.327-0.252,0.655-0.505,0.982-0.757
			c-0.519-0.809-1.036-1.617-1.554-2.425c-0.327,0.252-0.654,0.505-0.982,0.757c0.618,0.708,1.236,1.417,1.854,2.125
			c0.327-0.252,0.654-0.505,0.982-0.757c-0.468-0.708-0.936-1.417-1.403-2.125c-0.285,0.285-0.57,0.57-0.855,0.855
			c1.104,0.442,2.062,1.11,2.875,2.004c0.618,0.531,1.393-0.263,0.885-0.884c-0.45-0.55-0.9-1.101-1.351-1.651
			c-0.253,0.327-0.506,0.654-0.758,0.981c0.908,0.668,1.817,1.336,2.726,2.004c0.505,0.408,1.449-0.151,0.982-0.757
			c-0.501-0.65-1.002-1.301-1.502-1.952c-0.327,0.252-0.655,0.505-0.982,0.757c0.959,1.08,2.105,1.811,2.755,3.176
			c0.36-0.21,0.72-0.42,1.08-0.631c-0.457-0.668-0.857-1.369-1.201-2.102c-0.333-0.642-1.319-0.191-1.143,0.481
			c0.479,1.825,1.226,3.358,1.952,5.104c0.3,0.721,1.47,0.449,1.205-0.332c-0.545-1.61-1.158-3.021-2.015-4.503
			c-0.354-0.613-1.342-0.204-1.143,0.481c0.513,1.77,1.407,3.278,2.164,4.953c0.36-0.21,0.72-0.42,1.08-0.631
			c-1.093-1.567-2.041-3.01-2.789-4.804c-0.381,0.16-0.762,0.321-1.143,0.481c0.938,1.82,1.467,3.444,1.889,5.405
			c0.401-0.111,0.804-0.221,1.205-0.332c-0.584-2.12-1.331-4.038-2.314-6.004c-0.336-0.671-1.268-0.176-1.143,0.481
			c0.435,2.285,1.108,4.496,1.651,6.755c0.401-0.111,0.804-0.221,1.205-0.332c-0.571-2.349-1.354-4.544-2.314-6.754
			c-0.28-0.645-1.099-0.214-1.165,0.315c-0.424,3.354,1.081,6.316,1.502,9.607c0.409-0.055,0.818-0.111,1.228-0.166
			c-1.038-2.914-1.158-5.975-1.651-9.007c-0.116-0.718-1.213-0.514-1.228,0.166c-0.089,4.062,0.203,8.029,0.923,12.025
			c0.125,0.696,1.268,0.533,1.228-0.166c-0.201-3.482-1.067-6.859-0.751-10.358c-0.417,0-0.833,0-1.25,0
			c0.466,4-0.092,8.007,1.224,11.875c0.179,0.527,1.104,0.662,1.205,0c0.564-3.71,0.021-7.394,0.173-11.125
			c-0.409,0.055-0.818,0.111-1.228,0.166c0.886,4.036,0.123,8.101,0.75,12.159c0.114,0.74,1.176,0.49,1.228-0.166
			c0.297-3.754,0.036-7.501,0.578-11.242c-0.409-0.055-0.818-0.111-1.228-0.166c0.039,4.232-0.412,8.416,0.173,12.625
			c0.084,0.609,1.102,0.589,1.205,0c0.72-4.074,0.258-8.073,0.022-12.175c-0.046-0.799-1.276-0.81-1.25,0
			c0.117,3.604,0.732,7.109,1.224,10.674c0.098,0.712,1.229,0.52,1.228-0.166c-0.007-3.277-0.619-6.487-0.751-9.757
			c-0.409,0.055-0.818,0.111-1.228,0.166c0.84,2.469,1.335,4.861,1.329,7.49c0.409-0.055,0.818-0.111,1.228-0.166
			c-0.355-2.548-0.545-5.109-0.901-7.656c-0.098-0.697-1.288-0.533-1.228,0.166c0.281,3.224,0.957,6.363,0.601,9.607
			c0.409-0.055,0.818-0.111,1.228-0.166c-0.471-1.729-0.521-3.47-0.149-5.222c-0.409-0.055-0.818-0.111-1.228-0.166
			c0.356,3.433,0.254,6.641-0.429,10.042c0.409,0.055,0.818,0.111,1.228,0.166c-0.131-1.835,0.114-3.581,0.429-5.388
			c-0.409-0.055-0.818-0.111-1.228-0.166c-0.058,2.834-0.316,5.581-0.729,8.391c0.409,0.055,0.818,0.111,1.228,0.166
			c-0.2-2.198-0.113-4.266,0.15-6.455c-0.417,0-0.833,0-1.25,0c-0.197,3.428-0.615,6.803-1.179,10.192
			c0.409,0.055,0.818,0.111,1.228,0.166c0.003-3.66,0.044-7.306,0.3-10.958c0.057-0.812-1.171-0.789-1.25,0
			c-0.441,4.398-1.532,8.681-2.102,13.06c-0.094,0.722,1.032,0.814,1.228,0.166c1.261-4.179,1.512-8.443,1.824-12.775
			c0.051-0.7-1.104-0.86-1.228-0.166c-0.853,4.758-1.974,9.44-2.274,14.277c-0.037,0.605,0.899,0.876,1.165,0.315
			c1.251-2.646,1.53-5.548,2.614-8.256c-0.409-0.055-0.818-0.111-1.228-0.166c-0.228,3.636-1.515,6.986-2.379,10.492
			c-0.194,0.786,0.959,1.097,1.205,0.332c0.715-2.218,1.563-4.31,2.789-6.305c0.425-0.693-0.637-1.296-1.08-0.631
			c-1.544,2.319-2.451,4.832-3.603,7.356c0.381,0.16,0.762,0.321,1.143,0.481c0.641-1.805,1.312-3.599,1.952-5.404
			c0.24-0.676-0.804-1.093-1.143-0.481c-1.373,2.478-2.385,5.107-3.903,7.506c0.381,0.16,0.762,0.321,1.143,0.481
			c0.456-2.72,2.378-4.613,2.574-7.372c0.04-0.564-0.699-0.8-1.067-0.442c-2.071,2.014-2.862,4.758-3.612,7.481
			c-0.218,0.788,0.934,1.078,1.205,0.332c1.153-3.165,1.673-6.838,0.601-10.09c-0.187-0.565-1.049-0.627-1.205,0
			c-0.829,3.316-0.926,6.671-1.073,10.074c-0.035,0.817,1.171,0.786,1.25,0c0.396-3.909,0.359-7.705-0.323-11.575
			c-0.113-0.643-1.037-0.55-1.205,0c-1.185,3.862-1.009,8.307,0,12.191c0.167,0.645,0.996,0.544,1.205,0
			c1.438-3.742,0.231-8.508-0.9-12.191c-0.181-0.587-1.033-0.605-1.205,0c-0.94,3.309-1.661,7.689,0.062,10.84
			c0.274,0.501,0.978,0.341,1.143-0.149c1.087-3.212,0.557-6.427-0.301-9.64c-0.196-0.736-1.142-0.49-1.228,0.166
			c-0.439,3.348-0.396,6.654,0.474,9.924c0.207,0.778,1.413,0.448,1.205-0.332c-0.844-3.173-0.853-6.361-0.429-9.592
			c-0.409,0.055-0.818,0.111-1.228,0.166c0.794,2.979,1.313,5.982,0.301,8.976c0.381-0.05,0.762-0.1,1.143-0.149
			c-1.527-2.791-0.763-6.973,0.062-9.877c-0.401,0-0.804,0-1.205,0c1.08,3.516,2.27,7.965,0.9,11.527c0.401,0,0.804,0,1.205,0
			c-0.941-3.628-1.106-7.919,0-11.527c-0.401,0-0.804,0-1.205,0c0.667,3.781,0.663,7.439,0.278,11.243c0.417,0,0.833,0,1.25,0
			c0.143-3.286,0.226-6.532,1.028-9.742c-0.401,0-0.804,0-1.205,0c1.007,3.055,0.481,6.458-0.601,9.426
			c0.401,0.11,0.804,0.222,1.205,0.332c0.688-2.495,1.372-5.063,3.292-6.93c-0.356-0.147-0.712-0.294-1.067-0.442
			c-0.181,2.539-2.112,4.548-2.529,7.04c-0.114,0.683,0.745,1.108,1.143,0.481c1.519-2.397,2.529-5.028,3.903-7.506
			c-0.381-0.161-0.762-0.321-1.143-0.481c-0.642,1.805-1.312,3.599-1.952,5.404c-0.236,0.664,0.849,1.126,1.143,0.481
			c1.142-2.504,2.07-5.054,3.603-7.356c-0.36-0.21-0.72-0.42-1.08-0.631c-1.291,2.103-2.157,4.256-2.914,6.604
			c0.401,0.11,0.804,0.222,1.205,0.332c0.893-3.617,2.189-7.081,2.424-10.824c0.048-0.76-0.985-0.772-1.228-0.166
			c-1.043,2.603-1.283,5.408-2.489,7.957c0.389,0.105,0.776,0.21,1.165,0.315c0.293-4.726,1.396-9.299,2.229-13.945
			c-0.409-0.055-0.818-0.111-1.228-0.166c-0.304,4.209-0.554,8.378-1.779,12.443c0.409,0.055,0.818,0.111,1.228,0.166
			c0.569-4.382,1.66-8.661,2.102-13.06c-0.417,0-0.833,0-1.25,0c-0.256,3.652-0.297,7.298-0.3,10.958
			c-0.001,0.687,1.109,0.877,1.228,0.166c0.582-3.497,1.02-6.982,1.224-10.524c0.047-0.82-1.156-0.779-1.25,0
			c-0.264,2.189-0.351,4.257-0.15,6.455c0.06,0.649,1.118,0.912,1.228,0.166c0.426-2.903,0.714-5.786,0.773-8.723
			c0.014-0.692-1.104-0.871-1.228-0.166c-0.342,1.959-0.616,3.729-0.474,5.72c0.048,0.666,1.081,0.896,1.228,0.166
			c0.696-3.469,0.84-6.849,0.474-10.374c-0.066-0.642-1.122-0.918-1.228-0.166c-0.288,2.038-0.332,3.876,0.149,5.886
			c0.176,0.736,1.155,0.492,1.228-0.166c0.361-3.284-0.315-6.34-0.601-9.607c-0.409,0.055-0.818,0.111-1.228,0.166
			c0.356,2.548,0.546,5.109,0.901,7.656c0.1,0.714,1.226,0.519,1.228-0.166c0.006-2.767-0.481-5.198-1.374-7.822
			c-0.219-0.643-1.257-0.569-1.228,0.166c0.132,3.27,0.744,6.48,0.751,9.757c0.409-0.055,0.818-0.111,1.228-0.166
			c-0.476-3.448-1.065-6.857-1.179-10.342c-0.417,0-0.833,0-1.25,0c0.229,3.984,0.724,7.871,0.022,11.843c0.401,0,0.804,0,1.205,0
			c-0.568-4.099-0.09-8.181-0.128-12.293c-0.006-0.683-1.124-0.881-1.228-0.166c-0.558,3.849-0.317,7.706-0.623,11.574
			c0.409-0.055,0.818-0.111,1.228-0.166c-0.629-4.074,0.137-8.118-0.75-12.159c-0.156-0.714-1.2-0.516-1.228,0.166
			c-0.147,3.612,0.419,7.195-0.128,10.792c0.401,0,0.804,0,1.205,0c-1.276-3.754-0.728-7.667-1.179-11.543
			c-0.093-0.796-1.177-0.812-1.25,0c-0.319,3.524,0.549,6.849,0.751,10.358c0.409-0.055,0.818-0.111,1.228-0.166
			c-0.701-3.896-0.964-7.744-0.878-11.693c-0.409,0.055-0.818,0.111-1.228,0.166c0.498,3.065,0.603,6.064,1.651,9.007
			c0.221,0.62,1.322,0.574,1.228-0.166c-0.413-3.229-1.917-6.322-1.502-9.607c-0.389,0.105-0.776,0.21-1.165,0.315
			c0.94,2.163,1.638,4.187,2.189,6.456c0.19,0.783,1.394,0.451,1.205-0.332c-0.543-2.26-1.216-4.471-1.651-6.755
			c-0.381,0.161-0.762,0.321-1.143,0.481c0.922,1.841,1.643,3.72,2.189,5.705c0.215,0.781,1.374,0.452,1.205-0.332
			c-0.438-2.033-1.066-3.863-2.014-5.704c-0.321-0.623-1.417-0.176-1.143,0.481c0.772,1.854,1.763,3.451,2.914,5.103
			c0.466,0.668,1.41,0.101,1.08-0.631c-0.708-1.565-1.554-2.981-2.039-4.654c-0.381,0.161-0.762,0.321-1.143,0.481
			c0.847,1.298,1.477,2.699,1.89,4.204c0.401-0.111,0.804-0.221,1.205-0.332c-0.703-1.691-1.486-3.327-1.952-5.104
			c-0.381,0.16-0.762,0.321-1.143,0.481c0.345,0.733,0.745,1.433,1.201,2.102c0.433,0.692,1.423,0.09,1.08-0.631
			c-0.702-1.474-1.879-2.221-2.95-3.429c-0.467-0.526-1.417,0.193-0.982,0.757c0.501,0.65,1.002,1.301,1.502,1.952
			c0.327-0.252,0.655-0.505,0.982-0.757c-1.411-1.14-1.468-1.185-2.979-2.199c-0.632-0.424-1.177,0.469-0.758,0.981
			c0.45,0.55,0.9,1.101,1.351,1.651c0.295-0.294,0.59-0.589,0.885-0.884c-1.009-0.866-1.923-1.609-3.129-2.199
			c-0.598-0.292-1.099,0.282-0.855,0.855c0.684,1.61,0.363,1.094,1.599,2.378c0.483,0.501,1.412-0.179,0.982-0.757
			c-1.033-1.391-0.842-1.192-2.049-2.378c-0.521-0.511-1.302,0.134-0.982,0.757c0.856,1.668,0.593,1.244,1.749,2.678
			c0.445,0.551,1.395-0.182,0.982-0.757c-0.782-1.09-0.628-0.974-1.726-1.67c-0.193-0.123-0.437-0.102-0.631,0
			c-0.251,0.132-0.501,0.263-0.751,0.395C373.844,243.589,374.476,244.668,375.188,244.293L375.188,244.293z"/>
	</g>
	<g>
		<path fill="#070707" d="M371.847,316.559c0.105,13.626,1.213,26.987,0.354,40.628c-0.881,13.979,0.275,27.825-0.804,41.785
			c-0.062,0.805,1.188,0.798,1.25,0c1.029-13.32-0.108-26.506,0.683-39.837c0.849-14.309-0.121-28.283-0.232-42.576
			C373.091,315.753,371.841,315.752,371.847,316.559L371.847,316.559z"/>
	</g>
	<g>
		<path fill="#070707" d="M371.869,383.225c1.736,5.297-0.828,12.285-1.775,17.625c-1.027,5.785-2.486,12.035-2,17.937
			c0.056,0.673,1.05,0.888,1.228,0.166c1.532-6.206,2.237-13.137,2.425-19.53c0.021-0.692-1.13-0.872-1.228-0.166
			c-0.419,3.021-0.51,6.026-0.568,9.075c-0.07,3.716-0.834,7.343-0.354,11.056c0.082,0.633,1.095,0.926,1.228,0.166
			c0.916-5.234,1.103-11.219,1.073-16.528c-0.004-0.694-1.068-0.866-1.228-0.166c-1.482,6.502-1.438,14.411-1.073,21.031
			c0.045,0.82,1.159,0.787,1.25,0c0.323-2.811,0.195-5.584,0.149-8.406c-0.059-3.601,0.58-7.041,0.15-10.658
			c-0.085-0.719-0.952-0.829-1.228-0.166c-1.014,2.432-0.901,5.006-0.983,7.603c-0.117,3.718-0.668,7.491-1.141,11.178
			c0.417,0,0.833,0,1.25,0c0.108-5.527,0.96-10.993,1.201-16.513c0.026-0.612-0.882-0.866-1.165-0.315
			c-1.977,3.844-2.188,10.506-1.563,14.742c0.077,0.526,0.925,0.617,1.143,0.149c1.101-2.362,1.184-4.675,1.238-7.271
			c0.058-2.739,0.86-5.365,0.175-8.07c-0.165-0.651-0.993-0.537-1.205,0c-1.109,2.807-1.066,5.484-1.551,8.42
			c-0.403,2.445-0.855,4.626-0.251,7.073c0.127,0.516,0.889,0.626,1.143,0.149c1.829-3.441,1.343-7.668,1.136-11.424
			c-0.031-0.572-0.878-0.916-1.165-0.315c-1.534,3.216-2.694,8.577-0.9,11.89c0.212,0.39,0.879,0.425,1.08,0
			c1.365-2.886,1.185-6.005,0.363-9.038c-0.131-0.485-0.91-0.66-1.143-0.149c-1.971,4.333-2.924,12.006,0.586,15.908
			c3.499,3.889,10.122,2.965,11.215-2.518c-0.409-0.056-0.818-0.11-1.228-0.166c-0.396,2.909-1.922,4.332-4.579,4.269
			c-3.181,0.206-4.915-2.845-5.698-5.392c-0.732-2.381-0.351-5.166-0.032-7.583c0.098-0.742-1.004-0.782-1.228-0.166
			c-1.511,4.152-0.915,10.778,3.439,13.016c0.16-0.381,0.321-0.762,0.481-1.143c-5.101-1.863-2.808-8.117-2.115-11.842
			c-0.409-0.056-0.818-0.11-1.228-0.166c-0.336,3.716-0.569,7.672,1.437,10.974c0.267,0.438,1.026,0.399,1.143-0.149
			c0.669-3.167-0.184-6.683-1.714-9.488c-0.268-0.49-0.989-0.351-1.143,0.149c-0.959,3.137-0.478,8.127,2.389,10.163
			c0.432,0.307,0.888-0.122,0.94-0.54c0.424-3.381-0.356-6.559-1.374-9.772c-0.214-0.676-1.205-0.547-1.228,0.166
			c-0.115,3.646-0.081,8.639,2.435,11.551c0.253,0.292,0.812,0.221,0.982-0.127c1.995-4.06-0.202-8.863-1.139-12.941
			c-0.17-0.739-1.154-0.488-1.228,0.166c-0.358,3.224-0.152,6.388,0.15,9.607c0.076,0.812,1.157,0.797,1.25,0
			c0.525-4.505,1.529-10.138,0.578-14.577c-0.127-0.595-1.084-0.604-1.205,0c-0.743,3.702-0.605,7.428,0,11.141
			c0.098,0.599,1.109,0.601,1.205,0c0.681-4.272,1.428-8.322,0.751-12.642c-0.094-0.602-1.106-0.598-1.205,0
			c-0.558,3.384-0.449,6.719,0.149,10.09c0.106,0.603,1.092,0.596,1.205,0c0.543-2.855,1.027-5.574,0.301-8.438
			c-0.137-0.54-0.863-0.597-1.143-0.149c-2.024,3.246-1.364,8.001-0.813,11.59c0.116,0.76,1.149,0.467,1.228-0.166
			c0.315-2.551-0.077-4.658-1.286-6.921c-0.213-0.397-0.872-0.417-1.08,0c-2.188,4.397-0.856,12.828,5.194,12.649
			c0.709-0.021,0.846-1.021,0.166-1.228c-1.283-0.391-2.443-0.56-3.77-0.623c-0.605-0.029-0.876,0.893-0.315,1.165
			c1.597,0.774,1.21,0.65,3.018,0.836c0.581,0.06,0.774-0.703,0.442-1.067c-3.171-3.468-4.85-7.216-2.454-11.852
			c-0.389-0.105-0.776-0.21-1.165-0.315c0.019,4.417,0.265,8.678,4.138,11.384c2.778,1.94,4.621-2.479,4.896-4.312
			c-0.409-0.056-0.818-0.11-1.228-0.166c-0.009,1.345-0.32,2.617-0.933,3.816c-4.23,0.396-6.303-1.047-6.215-4.326
			c-0.196-1.516-0.034-3.087,0.142-4.595c-0.409,0.056-0.818,0.11-1.228,0.166c0.532,2.861,1.253,5.671,1.651,8.557
			c0.098,0.709,1.237,0.522,1.228-0.166c-0.034-2.407-0.153-4.803-0.301-7.205c-0.049-0.798-1.275-0.811-1.25,0
			c0.075,2.41,0.332,4.702,0.773,7.071c0.129,0.692,1.28,0.535,1.228-0.166c-0.25-3.334-1.426-6.438-1.802-9.758
			c-0.089-0.781-1.248-0.825-1.25,0c-0.008,3.934-0.01,7.73,1.887,11.274c0.287,0.536,1.204,0.308,1.165-0.315
			c-0.098-1.538-0.438-2.483-1.286-3.769c-0.354-0.536-1.115-0.305-1.165,0.315c-0.182,2.271,0.708,4.085,2.712,5.193
			c0.376,0.207,0.996-0.045,0.94-0.54c-0.434-3.86-6.229-4.157-4.636-0.815c2.487,5.216,6.041-0.019,1.774-1.738
			c-0.296-0.119-0.714,0.128-0.769,0.437c-1.178,6.595,6.592,3.241,2.396-0.276c-0.325-0.271-0.955-0.229-1.045,0.276
			c-0.411,2.297,0.659,3.864,3.111,3.494c0.219-0.033,0.37-0.246,0.437-0.437c0.405-1.158-0.427-1.604-1.429-1.993
			c-0.11,0.401-0.222,0.804-0.332,1.205c1.232,0.452,3.003,0.85,3.193-0.914c0.031-0.297-0.221-0.503-0.459-0.603
			c-0.657-0.273-0.843-0.067-1.532,0.224c-0.544,0.23-0.301,0.989,0.149,1.143c1.08,0.369,0.902,0.369,1.982,0
			c0.31-0.105,0.549-0.431,0.437-0.769c-0.05-0.15-0.1-0.3-0.149-0.45c-0.158-0.479-0.674-0.572-1.045-0.276
			c-0.25,0.2-0.5,0.4-0.751,0.601c-0.346,0.277-0.171,0.981,0.276,1.045c0.351,0.05,0.7,0.101,1.051,0.15c0-0.401,0-0.804,0-1.205
			c-0.466-0.055-0.931-0.108-1.396-0.163c-0.445-0.667-1.528-0.042-1.08,0.631c0.795,1.191,1.395,1.022,2.808,0.737
			c0.582-0.117,0.615-1.117,0-1.205c-0.601-0.101-1.2-0.2-1.801-0.301c0.05,0.381,0.1,0.762,0.149,1.143
			c-0.5-0.331-1.001-0.662-1.501-0.992c-0.763-0.28-1.072,0.918-0.332,1.205c-3.104-1.203-2.168-1.601-1.911-4.806
			c-0.389,0.105-0.776,0.21-1.165,0.315c0.372,1.046,0.744,2.092,1.116,3.138c0.389-0.105,0.776-0.21,1.165-0.315
			c-1.787-3.339-1.724-6.963-1.717-10.644c-0.417,0-0.833,0-1.25,0c0.375,3.31,1.552,6.426,1.802,9.758
			c0.409-0.056,0.818-0.11,1.228-0.166c-0.417-2.236-0.657-4.466-0.729-6.739c-0.417,0-0.833,0-1.25,0
			c0.147,2.402,0.267,4.798,0.301,7.205c0.409-0.056,0.818-0.11,1.228-0.166c-0.398-2.886-1.119-5.695-1.651-8.557
			c-0.14-0.752-1.152-0.476-1.228,0.166c-0.367,3.145-0.666,9.846,3.312,11.261c4.264,1.518,5.967-2.452,6.194-6.156
			c0.043-0.697-1.123-0.865-1.228-0.166c-0.54,3.604-5.589,1.232-6.263-1.539c-0.397-1.636-0.309-3.515-0.315-5.2
			c-0.003-0.601-0.872-0.882-1.165-0.315c-2.601,5.033-1.032,9.338,2.649,13.367c0.147-0.356,0.295-0.712,0.442-1.067
			c-0.796-0.222-1.591-0.443-2.387-0.666c-0.105,0.389-0.21,0.776-0.315,1.165c1.19-0.033,2.337,0.159,3.438,0.578
			c0.056-0.409,0.11-0.818,0.166-1.228c-4.464,0.132-4.678-4.553-4.79-7.315c-0.134-3.279,0.885,1.442,0.712,2.837
			c0.409-0.056,0.818-0.11,1.228-0.166c-0.49-3.195-1.103-7.756,0.688-10.627c-0.381-0.05-0.762-0.1-1.143-0.149
			c0.683,2.689,0.207,5.102-0.301,7.774c0.401,0,0.804,0,1.205,0c-0.562-3.161-0.672-6.251-0.149-9.426c-0.401,0-0.804,0-1.205,0
			c0.641,4.09-0.109,7.946-0.751,11.978c0.401,0,0.804,0,1.205,0c-0.569-3.489-0.698-6.996,0-10.477c-0.401,0-0.804,0-1.205,0
			c0.862,4.027-0.147,10.17-0.623,14.245c0.417,0,0.833,0,1.25,0c-0.303-3.22-0.509-6.384-0.15-9.607
			c-0.409,0.056-0.818,0.11-1.228,0.166c0.712,3.1,1.719,6.07,1.901,9.271c-0.747,0.866-1.104,0.677-1.071-0.567
			c-0.26-1.144-0.438-2.3-0.535-3.47c-0.146-1.343-0.161-2.7-0.118-4.049c-0.409,0.056-0.818,0.11-1.228,0.166
			c0.849,2.682,1.472,5.316,1.49,8.152c-0.006-0.962-1.228-3.548-1.348-4.664c-0.121-1.125-0.017-2.261,0.312-3.339
			c-0.381,0.05-0.762,0.1-1.143,0.149c1.356,2.486,2.182,5.719,1.589,8.525c0.381-0.05,0.762-0.1,1.143-0.149
			c-1.891-3.111-1.581-6.862-1.267-10.343c0.063-0.701-1.1-0.856-1.228-0.166c-0.888,4.772-2.874,11.238,2.988,13.379
			c0.668,0.244,1.106-0.821,0.481-1.143c-3.845-1.975-4.182-7.984-2.865-11.604c-0.409-0.056-0.818-0.11-1.228-0.166
			c-0.566,4.308-0.776,12.314,4.794,13.83c4.026,1.095,7.806-0.73,8.016-5.124c0.033-0.7-1.09-0.86-1.228-0.166
			c-0.811,4.068-5.271,5.184-8.45,2.717c-1.346-1.045-1.819-2.969-2.202-4.523c-0.836-3.39-0.296-7.472,1.137-10.621
			c-0.381-0.05-0.762-0.1-1.143-0.149c0.358,1.131,0.559,2.292,0.6,3.485c0.023,0.272-0.262,4.535-0.373,1.586
			c-0.094-2.468,0.442-5.374,1.516-7.624c-0.389-0.105-0.776-0.21-1.165-0.315c0.191,3.482,0.73,7.604-0.966,10.793
			c0.381,0.05,0.762,0.1,1.143,0.149c-0.92-3.725,0.405-11.295,1.802-14.829c-0.401,0-0.804,0-1.205,0
			c0.876,3.456,0.172,11.249-1.288,14.379c0.381,0.05,0.762,0.1,1.143,0.149c-0.488-3.318-0.19-10.612,1.438-13.779
			c-0.389-0.105-0.776-0.21-1.165-0.315c-0.241,5.52-1.093,10.985-1.201,16.513c-0.017,0.829,1.15,0.773,1.25,0
			c0.43-3.346,0.746-6.699,1.051-10.058c0.257-2.828-0.088-5.71,1.028-8.391c-0.409-0.056-0.818-0.11-1.228-0.166
			c0.356,3.001,0.181,5.905-0.045,8.91c-0.256,3.393,0.135,6.764-0.255,10.154c0.417,0,0.833,0,1.25,0
			c-0.354-6.439-0.406-14.403,1.028-20.699c-0.409-0.056-0.818-0.11-1.228-0.166c0.028,5.155-0.141,11.122-1.028,16.196
			c0.409,0.056,0.818,0.11,1.228,0.166c-0.341-2.639-0.09-5.149,0.184-7.784c0.416-4.004,0.139-8.01,0.694-12.015
			c-0.409-0.056-0.818-0.11-1.228-0.166c-0.178,6.068-0.924,13.301-2.38,19.198c0.409,0.056,0.818,0.11,1.228,0.166
			c-0.602-7.304,1.568-15.308,2.83-22.501c0.752-4.287,2.309-9.097,0.9-13.393C372.824,382.13,371.617,382.457,371.869,383.225
			L371.869,383.225z"/>
	</g>
	<g>
		<path fill="#070707" d="M371.27,355.872c-0.299,2.153,0.086,4.453,0.127,6.621c0.409-0.056,0.818-0.11,1.228-0.166
			c-0.421-1.589-0.421-3.18,0-4.771c0.155-0.783-1.023-1.123-1.205-0.332c-1.861,8.103-1.059,17.25-1.077,25.521
			c-0.023,10.432,0.485,21.506-1.174,31.823c0.409,0.056,0.818,0.11,1.228,0.166c-0.313-7.362,0.558-14.643,1.438-21.939
			c0.921-7.632,0.844-15.29,1.413-22.945c0.061-0.812-1.165-0.786-1.25,0c-1.497,13.771-2.648,27.57-2.702,41.432
			c0.417,0,0.833,0,1.25,0c-0.135-7.197,1.245-14.205,2.387-21.28c0.998-6.189,0.488-12.18,0.916-18.35
			c0.056-0.81-1.179-0.793-1.25,0c-0.765,8.51,0.495,17.001-0.467,25.517c-0.918,8.125-2.239,16.187-3.136,24.321
			c0.417,0,0.833,0,1.25,0c0.659-6.65,1.177-13.308,2.21-19.915c0.914-5.845,0.825-11.778,1.82-17.598
			c-0.409-0.056-0.818-0.11-1.228-0.166c-1.321,12.608-1.396,25.402-3.13,37.963c0.409,0.056,0.818,0.11,1.228,0.166
			c0.05-0.551,0.101-1.101,0.15-1.651c0.073-0.803-1.178-0.796-1.25,0c-0.05,0.551-0.101,1.101-0.15,1.651
			c-0.063,0.698,1.132,0.862,1.228,0.166c1.749-12.673,1.842-25.573,3.175-38.295c0.073-0.699-1.109-0.858-1.228-0.166
			c-1.099,6.423-1.097,12.97-2.107,19.429c-0.953,6.098-1.359,12.278-1.968,18.416c-0.08,0.805,1.163,0.79,1.25,0
			c0.897-8.145,2.055-16.2,3.136-24.321c1.131-8.496-0.298-17.011,0.467-25.517c-0.417,0-0.833,0-1.25,0
			c-0.213,3.068,0.2,6.11,0.106,9.19c-0.128,4.162-0.879,8.302-1.565,12.4c-1.006,6-1.958,11.934-1.844,18.039
			c0.015,0.805,1.247,0.807,1.25,0c0.054-13.861,1.205-27.66,2.702-41.432c-0.417,0-0.833,0-1.25,0
			c-0.569,7.656-0.503,15.312-1.413,22.945c-0.871,7.3-1.752,14.574-1.438,21.939c0.028,0.672,1.111,0.892,1.228,0.166
			c1.385-8.606,1.02-17.646,1.16-26.347c0.084-5.174,0.022-10.349,0.14-15.522c0.115-5.104-0.195-10.484,0.951-15.475
			c-0.401-0.11-0.804-0.222-1.205-0.332c-0.371,1.88-0.396,3.559,0,5.436c0.147,0.697,1.241,0.531,1.228-0.166
			c-0.039-2.037-0.452-4.268-0.172-6.289C372.584,355.416,371.38,355.076,371.27,355.872L371.27,355.872z"/>
	</g>
	<g>
		<path fill="#070707" d="M374.125,383.225c0.146-0.644,0.155-1.308,0.301-1.951c-0.409-0.056-0.818-0.11-1.228-0.166
			c0,0.598,0.004,1.199-0.128,1.785c-0.178,0.784,1.023,1.118,1.205,0.332c0.14-0.602,0.172-1.201,0.173-1.816
			c-0.417,0-0.833,0-1.25,0c0,0.813,0.025,1.615,0.173,2.417c0.146,0.792,1.351,0.456,1.205-0.332
			c-0.127-0.688-0.128-1.387-0.128-2.085c0-0.806-1.249-0.806-1.25,0c0,0.505-0.014,0.99-0.128,1.484
			c0.401,0.11,0.804,0.222,1.205,0.332c0.157-0.696,0.173-1.406,0.173-2.117c0-0.696-1.069-0.864-1.228-0.166
			c-0.146,0.644-0.155,1.308-0.301,1.951C372.742,383.678,373.947,384.011,374.125,383.225L374.125,383.225z"/>
	</g>
	<g>
		<path fill="#070707" d="M213.887,439.034c-0.409-0.584-0.948-1.218-1.575-1.576c-0.701-0.399-1.331,0.681-0.631,1.08
			c0.437,0.249,0.841,0.719,1.127,1.127C213.266,440.32,214.35,439.696,213.887,439.034L213.887,439.034z"/>
	</g>
	<g>
		<path fill="#070707" d="M309.862,494.283c0.015-0.013,0.332-0.226,0.436-0.371c0.234-0.33,0.246-0.734,0.198-1.122
			c-0.409,0.056-0.818,0.11-1.228,0.166c-0.026,0.123-0.005,0.163,0.062,0.119c0.389,0.105,0.776,0.21,1.165,0.315
			c-0.005-0.412-0.051-0.928-0.46-1.141c-0.431-0.224-1.147,0.156-0.918,0.706c0.125,0.299,0.176,0.631,0.362,0.9
			c0.386,0.558,1.364,0.23,1.143-0.481c-0.181-0.581-0.304-1.154,0.141-1.644c-0.349-0.203-0.697-0.406-1.045-0.608
			c-0.371,1.204-0.262,2.503,0.61,3.461c0.203-0.349,0.406-0.697,0.608-1.045c-0.59-0.13-0.896,0.073-1.382,0.362
			c-0.691,0.412-0.063,1.493,0.631,1.08c0.1-0.06,0.297-0.264,0.419-0.237c0.617,0.136,1.036-0.574,0.608-1.045
			c-0.567-0.622-0.523-1.487-0.29-2.244c0.182-0.589-0.623-1.072-1.045-0.608c-0.759,0.837-0.784,1.819-0.461,2.86
			c0.381-0.16,0.762-0.321,1.143-0.481c-0.121-0.175-0.155-0.405-0.237-0.602c-0.306,0.235-0.612,0.471-0.918,0.706
			c-0.266-0.139-0.163-0.247-0.159,0.061c0.007,0.583,0.892,0.904,1.165,0.315c0.182-0.393,0.127-0.668,0.062-1.082
			c-0.106-0.693-1.313-0.531-1.228,0.166c0.013,0.102-0.04,0.458,0.075,0.372c-0.111,0.084-0.232,0.147-0.344,0.236
			C308.352,493.906,309.241,494.785,309.862,494.283L309.862,494.283z"/>
	</g>
</g>
</svg>
