<?xml version="1.0" encoding="utf-8"?>
<!-- Generator: Adobe Illustrator 16.0.0, SVG Export Plug-In . SVG Version: 6.00 Build 0)  -->
<!DOCTYPE svg PUBLIC "-//W3C//DTD SVG 1.1//EN" "http://www.w3.org/Graphics/SVG/1.1/DTD/svg11.dtd">
<svg version="1.1" id="Layer_1" xmlns="http://www.w3.org/2000/svg" xmlns:xlink="http://www.w3.org/1999/xlink" x="0px" y="0px"
	 width="500px" height="550px" viewBox="0 0 500 550" enable-background="new 0 0 500 550" xml:space="preserve">
<g>
	<g>
		<path fill="#070707" d="M341.308,163.197c-10.778-19.68-30.279-32.171-51.461-38.255c-26.578-7.634-54.133-1.592-81.032,0.828
			c-24.948,2.245-46.737,13.557-61.955,33.602c-12.777,16.831-18.195,37.956-20.387,58.64c-4.292,40.496,3.757,81.165,2.677,121.725
			c-0.676,25.39-5.903,51.629-2.367,76.938c3.006,21.514,12.588,40.772,27.443,56.563c1.106,1.177,2.871-0.595,1.768-1.768
			c-19.773-21.019-28.237-47.01-27.637-75.587c0.338-16.126,2.301-32.196,3.012-48.311c0.678-15.354,0.593-30.691-0.413-46.027
			c-2.824-43.071-9.993-91.64,11.782-131.222c8.337-15.156,21.435-27.38,37.036-34.789c10.478-4.976,21.564-6.56,32.983-7.626
			c11.835-1.105,23.635-2.549,35.473-3.626c34.437-3.132,73.275,7.963,90.919,40.177
			C339.924,165.873,342.083,164.612,341.308,163.197L341.308,163.197z"/>
	</g>
	<g>
		<path fill="#070707" d="M177.106,487.839c19.675,12.129,44.678,12.034,66.949,10.188c11.481-0.952,22.89-2.708,34.239-4.648
			c11.989-2.05,25.325-3.051,35.83-9.658c1.36-0.855,0.107-3.02-1.262-2.158c-10.272,6.461-23.499,7.381-35.232,9.405
			c-11.136,1.921-22.316,3.562-33.575,4.56c-21.779,1.929-46.458,2.007-65.687-9.847
			C176.991,484.832,175.737,486.995,177.106,487.839L177.106,487.839z"/>
	</g>
	<g>
		<path fill="#070707" d="M203.791,128.737c1.612,0,1.612-2.5,0-2.5S202.179,128.737,203.791,128.737L203.791,128.737z"/>
	</g>
	<g>
		<path fill="#070707" d="M130.738,193.576c-2.924,0.03-5.969-1.954-8.579-3.121c-4.188-1.873-7.544-4.988-10.013-8.806
			c-4.816-7.45-3.316-16.786,1.328-23.811c4.614-6.979,12.878-11.358,21.029-12.395c6.418-0.815,16.356-0.541,20.474,5.15
			c0.935,1.293,3.105,0.047,2.158-1.262c-4.756-6.574-13.858-6.686-21.245-6.495c-9.027,0.233-18.453,5.396-23.768,12.639
			c-5.791,7.892-6.973,17.176-2.863,26.114c2.05,4.459,5.998,7.788,10.12,10.241c2.987,1.778,7.802,4.283,11.358,4.246
			C132.35,196.06,132.351,193.56,130.738,193.576L130.738,193.576z"/>
	</g>
	<g>
		<path fill="#070707" d="M325.199,145.021c12.459-6.402,31.724-9.535,40.848,3.676c9.329,13.507,3.727,35.623-13.699,38.603
			c-1.587,0.271-0.912,2.681,0.664,2.411c18.694-3.197,23.909-24.909,16.491-40.053c-8.369-17.088-31.461-14.043-45.565-6.795
			C322.503,143.6,323.769,145.757,325.199,145.021L325.199,145.021z"/>
	</g>
	<g>
		<path fill="#070707" d="M226.582,213.107c0.352-0.053,0.703-0.106,1.056-0.16c-0.105-0.388-0.211-0.776-0.315-1.165
			c-1.349,0.713-2.854,0.611-4.175,1.408c-2.372,1.43-4.541,3.188-6.57,5.063c-2.791,2.577-6.668,7.204-5.504,11.384
			c1.282,4.605,6.634,7.617,11.209,7.935c7.849,0.545,14.918-3.55,22.668-3.916c9.022-0.426,23.583,9.852,26.547-4.761
			c2.076-10.236-12.165-16.316-19.547-19.052c-0.757-0.281-1.081,0.928-0.332,1.205c7.724,2.863,20.525,8.384,18.444,18.643
			c-2.34,11.534-17.877,2.952-25.112,2.715c-10.185-0.333-24.467,10.268-32.099-1.507c-3.079-4.751,3.255-10.646,6.396-13.359
			c1.264-1.091,3.904-3.562,5.703-3.805c0.975-0.131,2.126-0.41,3.002-0.874c0.542-0.287,0.303-1.195-0.315-1.165
			c-0.494,0.025-0.866,0.11-1.388,0.205C225.458,212.046,225.794,213.25,226.582,213.107L226.582,213.107z"/>
	</g>
	<g>
		<path fill="#070707" d="M255.295,235.982c1.56,3.94,1.965,8.302,1.825,12.507c-0.09,2.687-0.633,5.631-2.487,7.684
			c-3.412,3.777-12.161,1.377-11.159-4.421c0.137-0.788-1.068-1.125-1.205-0.332c-1.28,7.409,8.497,9.604,13.248,5.637
			c5.141-4.292,3.069-16.138,0.983-21.406C256.207,234.91,254.998,235.232,255.295,235.982L255.295,235.982z"/>
	</g>
	<g>
		<path fill="#070707" d="M155.426,473.583c10.531-5.322,16.101,8.037,23.364,13.028c0.05-0.381,0.1-0.762,0.149-1.143
			c-5.813,0.893-10.555,4.747-15.112,8.197c-5.208,3.944-11.917,9.755-18.846,6.766c-8.946-3.86-6.643-12.525-1.235-18.004
			c4.245-4.299,9.75-7.501,15.107-10.214c0.719-0.364,0.086-1.443-0.631-1.08c-7.48,3.789-28.214,15.709-18.595,26.527
			c12.987,14.605,26.59-8.983,39.645-10.987c0.586-0.09,0.542-0.872,0.149-1.143c-7.888-5.419-13.228-18.788-24.626-13.028
			C154.075,472.867,154.708,473.945,155.426,473.583L155.426,473.583z"/>
	</g>
	<g>
		<path fill="#070707" d="M143.372,498.825c-1.763-6.188,2.831-11.007,7.94-13.691c0.714-0.375,0.082-1.454-0.631-1.08
			c-5.632,2.96-10.428,8.388-8.515,15.104C142.387,499.932,143.594,499.602,143.372,498.825L143.372,498.825z"/>
	</g>
	<g>
		<path fill="#070707" d="M312.723,484.176c4.146-10.14,15.892-18.414,26.331-12.143c5.977,3.59,9.792,10.888,10.461,17.682
			c0.802,8.149-5.037,11.795-12.544,10.151c-9.405-2.06-14.244-13.294-21.791-18.448c-0.668-0.456-1.292,0.628-0.631,1.08
			c9.425,6.436,14.559,19.89,27.731,19.106c6.668-0.396,9.188-6.979,8.387-12.818c-1.086-7.913-5.9-15.546-13.217-19.033
			c-10.621-5.062-22.06,4.619-25.933,14.091C311.212,484.59,312.422,484.911,312.723,484.176L312.723,484.176z"/>
	</g>
	<g>
		<path fill="#070707" d="M337.045,484.452c3.997,4.146,7.161,9.447,7.361,15.33c0.027,0.804,1.277,0.807,1.25,0
			c-0.211-6.219-3.493-11.822-7.727-16.215C337.369,482.986,336.486,483.871,337.045,484.452L337.045,484.452z"/>
	</g>
	<g>
		<path fill="#070707" d="M358.611,307.169c8.205,0.513,15.586,0.838,21.639,7.147c3.495,3.645,6.228,12.795,0.867,16.11
			c-6.297,3.895-16.78-3.312-20.563-7.978c-0.509-0.626-1.388,0.265-0.885,0.885c4.432,5.463,18.104,14.027,24.137,6.349
			c3.296-4.196,0.903-11.212-1.675-15.017c-5.341-7.882-15.018-8.216-23.52-8.747C357.806,305.868,357.811,307.119,358.611,307.169
			L358.611,307.169z"/>
	</g>
	<g>
		<path fill="#070707" d="M372.976,322.121c3.994,1.234,8.906,4.637,6.48,9.366c-0.367,0.716,0.712,1.349,1.08,0.631
			c2.823-5.506-2.362-9.699-7.229-11.202C372.535,320.678,372.208,321.884,372.976,322.121L372.976,322.121z"/>
	</g>
	<path fill="none" stroke="#070707" stroke-width="1.5" stroke-miterlimit="10" d="M321.324,176.095
		c0-19.69-15.964-35.651-35.654-35.651s-35.652,15.961-35.652,35.651c0,19.693,15.962,35.651,35.652,35.651
		S321.324,195.788,321.324,176.095z"/>
	<path fill="none" stroke="#070707" stroke-width="1.5" stroke-miterlimit="10" d="M231.528,179.877
		c0-19.688-15.96-35.652-35.652-35.652c-19.691,0-35.653,15.964-35.653,35.652c0,19.693,15.962,35.657,35.653,35.657
		C215.568,215.534,231.528,199.571,231.528,179.877z"/>
	<circle fill="#070707" cx="346.401" cy="161.983" r="7.542"/>
	<path fill="#070707" d="M141.612,168.397c0-4.168-3.377-7.542-7.543-7.542c-4.165,0-7.542,3.374-7.542,7.542
		c0,4.166,3.377,7.541,7.542,7.541C138.235,175.938,141.612,172.563,141.612,168.397z"/>
	<path fill="#070707" d="M256.953,208.997c0-4.877-7.146-8.832-15.952-8.832c-8.812,0-15.955,3.954-15.955,8.832
		c0,4.882,7.143,8.837,15.955,8.837C249.808,217.834,256.953,213.879,256.953,208.997z"/>
	<path fill="#070707" d="M266.975,166.566c-6.438,0-11.655,5.221-11.655,11.659c0,6.438,5.218,11.657,11.655,11.657
		s11.655-5.219,11.655-11.657C278.63,171.787,273.412,166.566,266.975,166.566z M271.666,185.638c-1.821,0-3.298-1.478-3.298-3.302
		c0-1.822,1.477-3.297,3.298-3.297c1.823,0,3.302,1.475,3.302,3.297C274.968,184.16,273.489,185.638,271.666,185.638z"/>
	<path fill="#070707" d="M176.519,169.346c-6.438,0-11.655,5.216-11.655,11.657c0,6.437,5.217,11.653,11.655,11.653
		s11.658-5.216,11.658-11.653C188.176,174.562,182.957,169.346,176.519,169.346z M181.211,188.417c-1.822,0-3.298-1.482-3.298-3.305
		c0-1.819,1.476-3.299,3.298-3.299c1.823,0,3.301,1.48,3.301,3.299C184.512,186.935,183.034,188.417,181.211,188.417z"/>
	<g>
		<path fill="#070707" d="M241.607,233.917c0.248,7.018,2.122,15.898-1.834,22.195c-1.557,2.478-4.471,2.528-7.013,1.956
			c-3.122-0.703-4.476-3.833-5.198-6.602c-1.222-4.687-0.521-10.217,0.828-14.797c0.229-0.775-0.978-1.104-1.205-0.332
			c-2.321,7.88-2.921,25.586,9.932,23.117c9.144-1.757,5.955-19.482,5.741-25.537C242.829,233.113,241.579,233.11,241.607,233.917
			L241.607,233.917z"/>
	</g>
	<g>
		<path fill="#070707" d="M130.073,309.777c-8.172-1.436-16.565,2.432-22.533,7.875c-4.234,3.862-6.394,9.701-0.524,12.959
			c0.706,0.392,1.335-0.688,0.631-1.08c-7.284-4.042,0.129-10.841,4.251-13.729c5.12-3.587,11.572-5.921,17.844-4.819
			C130.529,311.121,130.866,309.917,130.073,309.777L130.073,309.777z"/>
	</g>
	<g>
		<path fill="#070707" d="M113.186,324.623c-4.38,2.07-8.279,7.472-2.369,10.325c7.322,3.534,14.713-6.732,19.792-10.097
			c0.668-0.443,0.043-1.526-0.631-1.08c-4.201,2.784-7.361,6.634-11.825,9.126c-2.432,1.357-9.954,2.67-9.187-2.473
			c0.337-2.26,3.018-3.855,4.851-4.722C114.545,325.358,113.911,324.281,113.186,324.623L113.186,324.623z"/>
	</g>
	<g>
		<path fill="#070707" d="M337.304,160.415c13.717,20.048,17.352,44.434,18.392,68.203c1.083,24.768-0.205,49.571,0.834,74.356
			c1.217,29.033,3.646,58.019,3.311,87.099c-0.171,14.797-1.37,29.37-5.25,43.698c-3.559,13.144-12.061,22.88-18.393,34.617
			c-0.766,1.419,1.393,2.681,2.158,1.262c5.781-10.715,13.875-19.907,17.606-31.678c4.326-13.646,5.834-27.866,6.259-42.113
			c0.906-30.338-1.729-60.654-3.106-90.937c-1.181-25.963,0.146-51.934-0.988-77.882c-1.034-23.626-5.06-48.004-18.664-67.888
			C338.558,157.832,336.391,159.081,337.304,160.415L337.304,160.415z"/>
	</g>
	<path fill="none" stroke="#070707" stroke-width="1.5" stroke-miterlimit="10" d="M331.483,345.09
		c0-21.894-19.641-39.645-43.866-39.645c-24.225,0-43.864,17.751-43.864,39.645c0,21.904,19.64,39.65,43.864,39.65
		C311.843,384.74,331.483,366.994,331.483,345.09z"/>
	<path fill="none" stroke="#070707" stroke-width="1.5" stroke-miterlimit="10" d="M239.192,349.298
		c0-21.893-19.637-39.643-43.864-39.643c-24.225,0-43.865,17.75-43.865,39.643c0,21.9,19.64,39.653,43.865,39.653
		C219.556,388.951,239.192,371.198,239.192,349.298z"/>
	<g>
		<path fill="#070707" d="M232.658,329.475c5.45,3.472,11.379,3.307,16.116-1.26c0.581-0.561-0.305-1.443-0.885-0.885
			c-4.352,4.196-9.629,4.232-14.601,1.064C232.607,327.96,231.98,329.043,232.658,329.475L232.658,329.475z"/>
	</g>
	<g>
		<path fill="#070707" d="M232.231,373.077c3.336-2.039,6.692-3.902,10.643-4.324c4.018-0.43,7.85,1.729,11.123,3.749
			c0.688,0.424,1.315-0.657,0.631-1.08c-3.676-2.269-7.359-3.998-11.754-3.919c-4.055,0.072-7.938,2.456-11.273,4.494
			C230.914,372.417,231.542,373.498,232.231,373.077L232.231,373.077z"/>
	</g>
	<g>
		<path fill="#070707" d="M233.077,328.536c-3.789-3.905-10.244-4.086-15.325-4.554c-9.318-0.857-18.022-3.848-27.183-5.585
			c-11.443-2.171-32.064,0.613-34.781,14.894c-0.89,4.678,2.383,9.227,6.032,11.751c7.237,5.007,15.507,6.636,24.17,5.655
			c8.691-0.983,17.248-4.274,25.695-6.464c8.441-2.189,16.826-4.631,24.464-8.932c0.702-0.396,0.072-1.476-0.631-1.08
			c-12.17,6.854-26.439,9.262-39.742,13.082c-8.108,2.328-16.184,3.418-24.418,1.08c-6.827-1.938-15.76-7.428-14.187-15.699
			c1.18-6.2,8.263-9.858,13.561-11.779c8.899-3.226,17.704-1.937,26.667,0.277c5.976,1.476,11.786,3.277,17.935,3.839
			c5.343,0.488,12.838,0.254,16.858,4.399C232.754,330,233.637,329.115,233.077,328.536L233.077,328.536z"/>
	</g>
	<g>
		<path fill="#070707" d="M168.445,347.927c-8.453-4.031-14.733,1.922-15.513,10.453c-0.976,10.667,8.855,15.682,17.999,16.725
			c12.654,1.443,26.254-3.275,37.34-8.983c12.854-6.618,21.769-16.925,27.276-30.214c0.309-0.744-0.901-1.065-1.205-0.332
			c-4.83,11.653-12.131,20.561-22.84,27.277c-8.457,5.305-18.312,8.712-28.109,10.433c-8.924,1.567-22.179,1.618-27.595-7.147
			c-5.182-8.388,1.434-22.179,12.016-17.131C168.538,349.352,169.173,348.274,168.445,347.927L168.445,347.927z"/>
	</g>
	<g>
		<path fill="#070707" d="M181.838,374.249c-2.404,0.9-6.023,2.201-6.441,5.161c-0.316,2.24,1.994,3.936,3.612,4.995
			c6.019,3.943,15.249,5.968,22.356,4.924c0.795-0.116,0.456-1.321-0.332-1.205c-5.689,0.836-11.865-0.731-17.161-2.727
			c-2.399-0.904-5.199-2.168-6.762-4.291c-2.169-2.947,3.187-4.951,5.059-5.652C182.918,375.174,182.594,373.966,181.838,374.249
			L181.838,374.249z"/>
	</g>
	<g>
		<path fill="#070707" d="M251.111,325.732c13.42-1.719,25.955-5.519,38.573-10.245c7.313-2.739,15.052-4.602,22.54-1.407
			c6.33,2.699,10.014,8.549,8.143,15.379c-3.692,13.48-23.581,14.064-34.587,14.124c-14.175,0.077-26.977-1.312-38.832-9.759
			c-0.21,0.36-0.421,0.72-0.631,1.08c0.642,0.383,1.282,0.768,1.921,1.155c0.691,0.417,1.319-0.664,0.631-1.08
			c-0.639-0.387-1.279-0.772-1.921-1.155c-0.703-0.421-1.275,0.62-0.631,1.08c12.949,9.225,27.093,10.104,42.511,9.9
			c11.787-0.155,28.121-2.147,32.744-15.014c4.084-11.365-8.587-18.647-18.152-18.74c-7.934-0.077-15.647,3.922-22.914,6.602
			c-9.391,3.464-19.488,5.562-29.395,6.83C250.323,324.583,250.313,325.835,251.111,325.732L251.111,325.732z"/>
	</g>
	<g>
		<path fill="#070707" d="M311.188,341.083c5.314-0.122,10.605,0.648,15.17,3.526c7.299,4.601,2.859,13.029-1.803,17.688
			c-7.041,7.038-18.778,8.436-28.19,8.769c-16.839,0.594-54.481-4.441-51.695-28.36c0.093-0.8-1.158-0.791-1.25,0
			c-1.559,13.384,10.539,21.077,21.645,25.122c11.796,4.298,25.35,5.313,37.758,4.05c10.372-1.056,23.359-5.021,27.665-15.704
			c4.976-12.344-9.823-16.558-19.299-16.341C310.383,339.852,310.381,341.102,311.188,341.083L311.188,341.083z"/>
	</g>
	<g>
		<path fill="#070707" d="M135.236,441.961c4.606,1.685,8.69,4.922,13.056,7.167c3.734,1.92,7.591,3.584,11.486,5.146
			c9.808,3.935,20.138,6.513,30.527,8.346c19.668,3.471,40.293,3.402,60.208,3.032c19.707-0.365,39.357-2.563,58.444-7.575
			c8.814-2.314,17.399-5.148,25.252-9.837c8.655-5.168,14.946-13.019,22.94-19.002c0.637-0.478,0.015-1.563-0.631-1.08
			c-7.066,5.291-12.804,12.032-20.05,17.124c-8.365,5.878-18.083,8.925-27.845,11.589c-19.514,5.327-39.79,7.191-59.956,7.565
			c-19.877,0.369-40.303,0.106-59.914-3.354c-9.781-1.726-19.382-4.441-28.645-8.014c-4.896-1.889-9.627-4.168-14.258-6.626
			c-3.485-1.85-6.556-4.324-10.284-5.688C134.809,440.479,134.485,441.687,135.236,441.961L135.236,441.961z"/>
	</g>
	<g>
		<path fill="#070707" d="M130.456,333.733c11.327,6.783,23.942-1.567,32.14-9.573c0.578-0.564-0.307-1.447-0.884-0.885
			c-7.757,7.576-19.812,15.854-30.625,9.378C130.393,332.238,129.765,333.319,130.456,333.733L130.456,333.733z"/>
	</g>
	<g>
		<path fill="#070707" d="M130.623,360.463c11.928,1.586,22.187,8.976,31.66,15.901c0.652,0.477,1.274-0.609,0.631-1.08
			c-9.695-7.087-20.095-14.449-32.291-16.071C129.825,359.106,129.835,360.358,130.623,360.463L130.623,360.463z"/>
	</g>
	<g>
		<path fill="#070707" d="M316.568,375.844c13.022-10.008,26.882-19.209,43.075-23.03c0.784-0.185,0.452-1.391-0.332-1.205
			c-16.292,3.844-30.265,13.082-43.374,23.155C315.308,375.248,315.929,376.335,316.568,375.844L316.568,375.844z"/>
	</g>
	<g>
		<path fill="#070707" d="M313.053,314.264c13.604,8.555,29.062,9.536,44.726,9.561c0.806,0.001,0.806-1.249,0-1.25
			c-15.45-0.023-30.667-0.946-44.095-9.391C312.999,312.754,312.372,313.836,313.053,314.264L313.053,314.264z"/>
	</g>
	<g>
		<path fill="#070707" d="M191.158,462.258c-2.085,8.644,0.124,16.729,6.24,23.17c3.084,3.248,7.209,5.4,11.305,7.063
			c2.452,0.995,5.082,1.355,7.64,1.968c2.739,0.656,5.266,2.35,7.955,3.248c0.767,0.256,1.093-0.951,0.332-1.205
			c-3.82-1.276-7.025-3.12-11.003-3.919c-4.25-0.854-8.102-2.664-11.71-5.032c-8.404-5.515-11.868-15.365-9.554-24.961
			C192.552,461.807,191.347,461.475,191.158,462.258L191.158,462.258z"/>
	</g>
	<g>
		<path fill="#070707" d="M309.582,458.519c3.351,11.302-6.055,23.425-14.438,30.007c-0.633,0.498,0.258,1.376,0.885,0.885
			c8.73-6.856,18.243-19.474,14.759-31.224C310.559,457.415,309.353,457.744,309.582,458.519L309.582,458.519z"/>
	</g>
	<g>
		<path fill="#070707" d="M236.728,466.211c-1.006,8.224-4.008,29.344,8.581,30.822c18.463,2.168,18.162-20.753,12.717-32.337
			c-0.343-0.729-1.421-0.094-1.08,0.631c2.853,6.068,3.989,13.196,2.877,19.821c-1.247,7.432-8.418,12.495-15.87,10.277
			c-9.932-2.956-6.886-21.764-5.975-29.215C238.075,465.412,236.824,465.422,236.728,466.211L236.728,466.211z"/>
	</g>
	<g>
		<path fill="#070707" d="M133.015,435.52c1.248,0.344,3.064,2.108,4.2,2.958c2.036,1.524,4.218,2.843,6.417,4.112
			c3.606,2.082,7.452,3.728,11.331,5.224c9.328,3.597,19.252,5.554,29.097,7.093c19.35,3.025,39.075,5.361,58.677,4.958
			c20.513-0.423,41.191-3.67,60.565-10.5c10.29-3.628,20.682-7.439,30.729-11.692c5.072-2.146,9.918-4.739,14.441-7.881
			c3.942-2.738,6.968-6.631,10.358-9.979c0.573-0.567-0.311-1.451-0.885-0.885c-3.348,3.307-6.352,6.908-10.104,9.783
			c-4.341,3.325-9.469,5.685-14.441,7.881c-10.334,4.564-21.272,8.339-31.928,12.095c-19.304,6.806-40.024,9.542-60.413,9.962
			c-19.417,0.4-39.076-2.197-58.232-5.192c-9.364-1.464-18.625-3.58-27.532-6.849c-4.771-1.75-9.321-4.017-13.66-6.653
			c-2.714-1.649-5.228-4.797-8.289-5.64C132.568,434.1,132.238,435.306,133.015,435.52L133.015,435.52z"/>
	</g>
	<g>
		<path fill="#070707" d="M230.441,458.471c-1.031-0.309-2.025-0.714-2.98-1.219c-0.597-0.416-1.194-0.831-1.792-1.247
			c-1.393-4.445-0.134-6.604,3.776-6.477c5.22-0.516,8.251,4.722,8.318,9.194c0.01,0.636,0.832,0.835,1.165,0.315
			c2.893-4.518,11.991-14.127,16.519-6.799c3.174,5.137-9.823,6.146-12.322,6.45c-0.79,0.096-0.799,1.347,0,1.25
			c4.347-0.528,16.489-1.19,13.402-8.331c-4.085-9.445-15.867,2.407-18.678,6.799c0.388,0.105,0.776,0.21,1.165,0.315
			c-0.091-6.072-5.641-12.852-12.372-9.943c-7.398,3.197-1.497,9.239,3.467,10.896C230.876,459.932,231.202,458.725,230.441,458.471
			L230.441,458.471z"/>
	</g>
	<g>
		<path fill="#070707" d="M236.89,458.701c-6.073,3.966-7.362,10.947-8.006,17.709c-0.076,0.803,1.175,0.795,1.25,0
			c0.597-6.266,1.712-12.924,7.387-16.629C238.193,459.342,237.567,458.26,236.89,458.701L236.89,458.701z"/>
	</g>
	<g>
		<path fill="#070707" d="M238.371,460.137c7.024,2.725,8.381,11.77,9.016,18.348c0.077,0.795,1.327,0.803,1.25,0
			c-0.699-7.243-2.269-16.58-9.934-19.553C237.95,458.64,237.628,459.849,238.371,460.137L238.371,460.137z"/>
	</g>
	<g>
		<path fill="#070707" d="M207.165,126.005c-2.985-7.493-1.429-14.899-6.924-21.407c-4.342-5.143-11.902-5.547-17.752-3.258
			c-5.755,2.251-9.043,7.487-10.201,13.32c-0.919,4.629,0.937,9.053,5.971,9.554c3.994,0.397,3.593-5.334,3.006-7.655
			c-1.176-4.649-5.482-6.783-9.917-7.194c-9.856-0.912-23.778,7.731-22.232,18.747c0.111,0.795,1.316,0.456,1.205-0.332
			c-1.211-8.637,7.949-14.502,15.13-16.531c4.08-1.153,8.764-1.006,12.19,1.708c3.208,2.541,4.765,12.386-1.908,9.276
			c-4.928-2.296-1.591-10.748,0.228-13.947c2.744-4.824,8.709-7.124,13.993-7.091c6.621,0.04,11.646,5.416,13.33,11.415
			c1.284,4.571,0.891,9.248,2.676,13.728C206.254,127.077,207.464,126.754,207.165,126.005L207.165,126.005z"/>
	</g>
	<g>
		<path fill="#070707" d="M214.8,125.855c-7.554-10.709-2.483-24.164,4.972-33.439c7.572-9.421,20.741-14.335,32.608-14.081
			c6.312,0.136,12.187,2.631,16.403,7.317c5.153,5.726,6.281,14.436-0.574,19.223c-7.489,5.229-7.228-3.876-4.167-8.306
			c6.617-9.579,16.551,3.608,16.768,10.771c0.323,10.66-11.071,20.429-20.531,22.962c-7.535,2.018-16.184,6.53-20.69,13.116
			c-1.947,2.846-3.06,5.762-2.775,9.244c0.45,5.53,8.457,9.435,5.329,15.231c-0.383,0.709,0.697,1.34,1.08,0.631
			c0.784-1.454,1.762-3.238,1.479-4.977c-0.389-2.396-2.15-3.145-3.772-4.932c-5.476-6.033-2.243-13.086,2.814-17.95
			c7.797-7.499,18.769-8.113,27.171-14.39c6.223-4.648,12.565-13.155,10.961-21.427c-1.071-5.524-6.402-13.909-13.162-12.722
			c-4.558,0.801-7.339,5.223-8.129,9.499c-0.522,2.831,0.521,6.866,4.212,6.12c7.633-1.543,10.848-9.208,8.799-16.155
			c-2.762-9.366-12.168-13.904-21.214-14.507c-12.785-0.851-26.439,5.671-34.356,15.521c-7.516,9.351-11.743,23.332-4.304,33.879
			C214.181,127.14,215.266,126.516,214.8,125.855L214.8,125.855z"/>
	</g>
	<g>
		<path fill="#070707" d="M285.917,124.822c-5.741-16.868,28.469-27.856,28.773-10.303c0.028,1.581-0.34,3.119-0.825,4.608
			c-0.36,1.026-0.92,1.928-1.68,2.704c-2.986,3.296-6.898-1.926-5.013-4.818c1.975-3.03,5.751-4.099,9.057-4.994
			c6.401-1.733,13.073-1.91,19.583-3.008c0.794-0.134,0.456-1.338-0.332-1.205c-5.378,0.907-10.827,1.259-16.197,2.254
			c-3.988,0.739-10.382,1.923-12.799,5.71c-2.296,3.596-2.777,7.064,2.144,8.29c4.002,0.997,6.205-3.332,6.971-6.455
			c2.462-10.035-6.749-14.668-15.425-12.92c-8.896,1.792-18.793,10.684-15.462,20.47
			C284.97,125.913,286.178,125.587,285.917,124.822L285.917,124.822z"/>
	</g>
	<g>
		<path fill="#070707" d="M126.425,219.606c-3.837,1.668-7.188,3.462-11.517,3.451c-4.623-0.012-8.896-2.464-12.4-5.243
			c-6.005-4.764-9.513-12.007-11.915-19.103c-4.262-12.59-3.378-26.272,0.019-38.932c6.659-24.817,23.642-46.54,43.414-62.417
			c40.19-32.273,94.463-44.139,145.061-39.033c45.57,4.599,96.151,24.644,119.861,66.236c11.609,20.363,12.26,44.313,2.749,65.609
			c-4.13,9.25-9.763,17.995-16.451,25.59c-6.493,7.375-15.498,14.621-25.915,13.403c-0.8-0.094-0.791,1.158,0,1.25
			c18.738,2.191,32.904-19.64,40.529-33.721c10.107-18.665,12.777-40.064,5.843-60.276c-15.15-44.162-64.64-67.856-107.239-76.43
			c-47.576-9.576-99.096-2.711-141.727,20.733c-20.848,11.465-39.073,27.207-52.405,46.974
			c-13.092,19.412-21.502,43.633-16.154,67.059c2.184,9.567,6.901,18.75,14.666,24.908c2.891,2.293,6.75,4.156,10.466,4.496
			c5.346,0.489,8.979-1.402,13.747-3.476C127.793,220.365,127.156,219.288,126.425,219.606L126.425,219.606z"/>
	</g>
	<g>
		<path fill="#070707" d="M174.535,72.605c4.73-10.028,13.589-17.477,24.324-20.307c6.144-1.62,13.179-1.232,19.501-1.699
			c6.415-0.473,12.816-1.091,19.2-1.881c18.242-2.258,42.75-8.766,54.423,10.521c0.417,0.688,1.498,0.061,1.08-0.631
			c-11.904-19.668-36.729-13.599-55.503-11.14c-7.013,0.918-14.068,1.502-21.12,2.022c-6.435,0.475-13.066,0.324-19.337,1.977
			c-10.366,2.733-19.146,10.965-23.647,20.506C173.114,72.699,174.191,73.333,174.535,72.605L174.535,72.605z"/>
	</g>
	<g>
		<path fill="#070707" d="M314.189,482.667c0.204-0.141,0.174-0.183-0.092-0.125c0.105-0.389,0.21-0.776,0.315-1.165
			c0.276,0.03,0.311,0.262,0.13-0.115c-0.099-0.205-0.295-0.348-0.48-0.466c-0.504-0.318-1.241,0.344-0.855,0.855
			c0.269,0.355,0.789,1.212,1.347,0.989c0.373-0.149,0.649-0.575,0.392-0.966c-0.066-0.1-0.128-0.202-0.189-0.305
			c-0.021-0.037-0.173-0.34-0.162-0.257c-0.099-0.776-1.308-0.819-1.25,0c0.019,0.262,0.074,0.495,0.169,0.739
			c0.05,0.13,0.108,0.257,0.164,0.384c0.008,0.017,0.124,0.306,0.111,0.21c0.043,0.338,0.252,0.625,0.625,0.625
			c0.308,0,0.668-0.286,0.625-0.625c-0.06-0.47-0.411-0.867-0.444-1.333c-0.417,0-0.833,0-1.25,0
			c0.057,0.446,0.284,0.833,0.529,1.204c-0.021-0.16-0.042-0.321-0.062-0.481c-0.002,0.009-0.005,0.019-0.007,0.028
			c0.146-0.146,0.291-0.291,0.437-0.437c0.351-0.141,0.623,0.252,0.369-0.019c-0.062-0.064-0.117-0.135-0.175-0.203
			c-0.083-0.1-0.147-0.186-0.147-0.186c-0.285,0.285-0.57,0.57-0.855,0.855c0.134,0.084,0.154,0.347,0.283,0.466
			c0.211,0.194,0.416,0.254,0.698,0.285c0.655,0.072,0.8-0.861,0.315-1.165c-0.542-0.339-1.009-0.084-1.424,0.32
			C312.728,482.347,313.612,483.229,314.189,482.667L314.189,482.667z"/>
	</g>
</g>
</svg>
