<?xml version="1.0" encoding="utf-8"?>
<!-- Generator: Adobe Illustrator 16.0.0, SVG Export Plug-In . SVG Version: 6.00 Build 0)  -->
<!DOCTYPE svg PUBLIC "-//W3C//DTD SVG 1.1//EN" "http://www.w3.org/Graphics/SVG/1.1/DTD/svg11.dtd">
<svg version="1.1" id="Layer_1" xmlns="http://www.w3.org/2000/svg" xmlns:xlink="http://www.w3.org/1999/xlink" x="0px" y="0px"
	 width="500px" height="550px" viewBox="0 0 500 550" enable-background="new 0 0 500 550" xml:space="preserve">
<g>
	<g>
		<path fill="#070707" d="M256.923,266.058c0.414-0.073,0.828-0.092,1.243-0.057c-0.056-0.409-0.111-0.818-0.166-1.228
			c-1.099,0.446-2.497,0.112-3.525,0.599c-2.664,1.262-5.277,2.708-7.603,4.532c-3.61,2.832-7.434,6.497-7.022,11.462
			c0.393,4.739,6.343,7.693,10.278,8.757c7.018,1.897,14.87-1.581,21.916-1.674c8.082-0.105,24,12.496,28.099-0.99
			c3.288-10.82-9.173-18.08-17.264-22.045c-0.721-0.354-1.354,0.725-0.631,1.079c7.261,3.559,18.781,9.81,17.038,19.486
			c-2.339,12.979-18.629,2.266-25.866,1.294c-10.538-1.415-24.22,7.533-31.734-4.275c-3.391-5.329,4.459-11.166,8.074-13.603
			c1.34-0.904,3.786-2.817,5.463-2.873c0.987-0.033,2.201-0.174,3.109-0.544c0.64-0.26,0.573-1.188-0.166-1.228
			c-0.415-0.035-0.829-0.017-1.243,0.057C256.125,264.87,256.118,266.12,256.923,266.058L256.923,266.058z"/>
	</g>
	<path fill="none" stroke="#070707" stroke-width="1.5" stroke-miterlimit="10" d="M245.324,257.786
		c0-27.832-22.565-50.401-50.405-50.401c-27.836,0-50.404,22.569-50.404,50.401c0,27.84,22.568,50.406,50.404,50.406
		C222.758,308.191,245.324,285.626,245.324,257.786z"/>
	<path fill="#070707" d="M287.897,265.027c0.498-4.896-6.266-9.584-15.094-10.479c-8.84-0.898-16.401,2.337-16.898,7.231
		c-0.499,4.894,6.263,9.585,15.103,10.48C279.835,273.156,287.4,269.919,287.897,265.027z"/>
	<path fill="#070707" d="M161.954,252.384c3.787,3.789,9.922,3.787,13.708,0c3.787-3.786,3.791-9.926,0.004-13.713
		c-3.787-3.786-9.926-3.786-13.717,0C158.164,242.458,158.164,248.598,161.954,252.384z M170.411,238.407
		c1.07,1.07,1.07,2.807-0.003,3.881c-1.07,1.072-2.812,1.074-3.881,0.004c-1.075-1.074-1.075-2.815,0-3.885
		C167.596,237.333,169.337,237.333,170.411,238.407z"/>
	<path fill="none" stroke="#070707" stroke-width="1.5" stroke-miterlimit="10" d="M341.809,218.898
		c0-27.832-22.564-50.401-50.4-50.401s-50.404,22.569-50.404,50.401c0,27.839,22.568,50.406,50.404,50.406
		S341.809,246.738,341.809,218.898z"/>
	<path fill="#070707" d="M320.014,232.686c3.786,3.787,9.927,3.787,13.714,0c3.786-3.786,3.786-9.926,0-13.713
		c-3.787-3.788-9.928-3.787-13.714,0C316.227,222.76,316.227,228.9,320.014,232.686z M328.471,218.708
		c1.071,1.07,1.071,2.808,0,3.881c-1.072,1.071-2.811,1.072-3.881,0.002c-1.074-1.074-1.074-2.813-0.004-3.885
		C325.66,217.635,327.398,217.635,328.471,218.708z"/>
	<g>
		<path fill="#070707" d="M260.873,289.343c-2.085,5.233-16.519,26.043-6.612,29.566c5.338,1.898,9.851-6.137,11.792-9.655
			c3.657-6.627,5.69-13.925,8.669-20.842c0.314-0.732-0.762-1.369-1.08-0.631c-2.077,4.825-3.68,9.846-5.732,14.685
			c-2.192,5.17-5.264,12.937-10.924,15.13c-8.513,3.299-2.498-12.151-1.408-14.591c2.013-4.509,4.674-8.743,6.501-13.33
			C262.377,288.926,261.168,288.604,260.873,289.343L260.873,289.343z"/>
	</g>
	<g>
		<path fill="#070707" d="M261.16,317.578c1.963,1.047,2.603,4.3,5.265,4.324c3.363,0.031,6.471-2.419,8.528-4.895
			c5.674-6.83,5.43-16.793,9.65-24.361c0.393-0.705-0.688-1.335-1.08-0.631c-3.165,5.679-4.105,12.377-6.402,18.416
			c-1.725,4.538-4.443,8.145-9.032,10.041c-3.339,1.38-4.167-2.838-6.298-3.975C261.08,316.119,260.448,317.198,261.16,317.578
			L261.16,317.578z"/>
	</g>
	<g>
		<path fill="#070707" d="M300.466,338.818c6.98-1.771,14.436-2.543,21.172,0.534c5.718,2.611,9.807,9.729,9.512,15.978
			c-0.172,3.669-3.701,7.153-7.402,5.378c-4.631-2.222-2.256-9.719-0.963-13.148c0.285-0.756-0.924-1.079-1.205-0.332
			c-1.678,4.451-3.458,11.483,1.537,14.56c3.282,2.021,7.124-0.476,8.562-3.497c2.853-5.989-1.812-14.026-6.156-17.897
			c-6.742-6.007-17.378-4.812-25.389-2.779C299.353,337.812,299.685,339.017,300.466,338.818L300.466,338.818z"/>
	</g>
	<g>
		<path fill="#070707" d="M323.28,362.381c-7.78,3.599-9-8.574-11.198-13.4c-3.221-7.075-9.401-3.169-13.638,0.794
			c-0.589,0.552,0.297,1.435,0.885,0.885c2.625-2.457,7.468-6.982,10.637-2.852c1.953,2.546,2.617,6.146,3.638,9.128
			c1.727,5.047,4.593,9.168,10.308,6.525C324.643,363.122,324.007,362.045,323.28,362.381L323.28,362.381z"/>
	</g>
	<g>
		<path fill="#070707" d="M360.842,270.763c3.078-7.205,8.978-14.819,17.294-15.777c5.282-0.608,16.886,7.492,10.035,12.528
			c-6.031,4.434-14.745,5.513-16.471,14.064c-0.159,0.787,1.046,1.122,1.205,0.332c1.358-6.727,8-9.115,13.456-11.888
			c3.257-1.655,6.336-3.989,4.802-7.963c-2.032-5.266-8.819-9.371-14.401-8.161c-8.107,1.757-13.875,8.924-17,16.234
			C359.449,270.865,360.525,271.502,360.842,270.763L360.842,270.763z"/>
	</g>
	<g>
		<path fill="#070707" d="M391.096,262.949c-3.566-4.033-9.85-3.448-13.59,0c-0.594,0.547,0.293,1.429,0.885,0.884
			c3.267-3.013,8.712-3.516,11.82,0C390.746,264.438,391.627,263.55,391.096,262.949L391.096,262.949z"/>
	</g>
	<g>
		<path fill="#070707" d="M158.152,462.188c2.681-2.313,4.49-5.123,6.432-8.054c2.401-3.623,5.93-5.532,9.086-8.326
			c3.043-2.695,2.976-7.905,0.985-11.126c-1.701-2.751-6.649-3.166-8.637-0.554c-1.09,1.432-1.9,3.033-3.004,4.458
			c-1.601,2.066-4.994,2.478-7.368,3.113c-2.886,0.772-5.829,1.278-8.756,1.868c-8.43,1.7-18.919,7.178-13.823,17.737
			c4.487,9.297,18.356,5.817,24.959,0.98c0.643-0.472,0.021-1.557-0.631-1.08c-6.186,4.532-20.124,8.308-23.533-1.366
			c-3.959-11.236,8.414-14.121,16.405-15.666c3.891-0.752,7.84-1.574,11.492-3.139c1.173-0.502,2.228-1.496,2.906-2.556
			c2.101-3.283,6.283-7.416,9.366-2.429c3.715,6.009-3.099,9.893-6.763,13.081c-4.021,3.5-5.941,8.669-10,12.172
			C156.657,461.832,157.545,462.712,158.152,462.188z"/>
	</g>
	<g>
		<path fill="#070707" d="M134.954,463.473c3.43-5.792,9.155-8.738,15.696-9.572c0.788-0.101,0.798-1.352,0-1.25
			c-7.002,0.893-13.103,3.99-16.775,10.191C133.463,463.537,134.543,464.165,134.954,463.473L134.954,463.473z"/>
	</g>
	<g>
		<path fill="#070707" d="M310.078,478.856c2.075-5.262-3.51-9.518-8.404-9.295c-3.65,0.166-6.169,4.013-7.531,6.927
			c-4.431,9.48-3.616,22.513,0.653,31.867c4.625,10.134,14.56,10.472,23.847,6.497c4.424-1.894,6.858-5.543,4.677-10.106
			c-2.814-5.89-12.29-4.189-17.373-4.095c-0.805,0.015-0.807,1.265,0,1.25c5.143-0.096,13.054-1.733,16.294,3.476
			c3.625,5.827-4.688,8.856-8.786,9.915c-8.605,2.222-14.759-0.766-18.195-8.973c-2.986-7.13-3.247-15.62-1.866-23.14
			c0.594-3.231,1.691-6.409,3.565-9.123c3.683-5.333,14.816-2.887,11.915,4.468C308.577,479.275,309.786,479.598,310.078,478.856
			L310.078,478.856z"/>
	</g>
	<g>
		<path fill="#070707" d="M324.198,504.972c0.795-5.637-2.253-6.856-6.884-8.854c-3.575-1.542-7.458-5.179-7.96-9.188
			c-0.439-3.513,1.239-7.562,2.137-10.898c0.21-0.779-0.996-1.109-1.205-0.332c-1.261,4.688-3.415,9.951-1.192,14.652
			c1.073,2.271,3.626,4.57,5.713,5.82c3.848,2.304,9.023,2.533,8.187,8.469C322.882,505.428,324.086,505.768,324.198,504.972
			L324.198,504.972z"/>
	</g>
	<g>
		<path fill="#070707" d="M122.955,241.898c-4.219-8.335-12.802-13.89-21.823-15.704c-7.361-1.481-16.063,0.689-18.967,8.353
			c-8.713,23.005,21.679,44.667,41.975,34.324c0.718-0.366,0.085-1.444-0.631-1.079c-19.317,9.844-47.329-10.375-40.453-32.082
			c2.666-8.417,12.022-9.675,19.472-7.935c8.034,1.876,15.604,7.36,19.347,14.754C122.239,243.248,123.318,242.615,122.955,241.898
			L122.955,241.898z"/>
	</g>
	<g>
		<path fill="#070707" d="M282.573,159.622c-0.472-8.475,10.084-24.042,18.184-13.001c4.363,5.947,1.236,17.23-3.016,22.442
			c-0.505,0.619,0.374,1.509,0.885,0.884c5.242-6.426,8.334-19.81,1.329-26.046c-9.648-8.588-19.092,7.459-18.632,15.721
			C281.368,160.423,282.618,160.427,282.573,159.622L282.573,159.622z"/>
	</g>
	<path fill="#070707" d="M124.01,253.861c0-5.37-4.351-9.717-9.716-9.717c-5.362,0-9.717,4.347-9.717,9.717
		c0,5.366,4.354,9.717,9.717,9.717C119.659,263.578,124.01,259.227,124.01,253.861z"/>
	<g>
		<path fill="#070707" d="M121.629,240.721c-6.582-13.916-3.47-27.791,2.247-41.391c0.624-1.486-1.796-2.127-2.411-0.665
			c-6.03,14.346-8.888,28.744-1.994,43.317C120.16,243.439,122.314,242.17,121.629,240.721L121.629,240.721z"/>
	</g>
	<g>
		<path fill="#070707" d="M121.207,198.822c-0.94,6.555-3.287,13.852,2.441,18.864c0.385,0.337,1.056,0.548,1.515,0.196
			c6.29-4.828,4.096-11.678,6.221-18.395c-0.804,0-1.607,0-2.411,0c1.007,2.444,2.523,4.615,3.53,7.057
			c0.272,0.66,1.125,1.286,1.836,0.747c12.238-9.265,1.583-26.69,10.136-37.605c0.982-1.253-0.774-3.036-1.768-1.768
			c-3.672,4.687-4.174,10.312-4.253,16.086c-0.1,7.189,1.111,16.218-5.376,21.129c0.612,0.249,1.224,0.498,1.836,0.747
			c-1.008-2.443-2.524-4.615-3.53-7.057c-0.457-1.107-2.011-1.265-2.411,0c-1.321,4.179-0.744,8.616-1.947,12.815
			c-0.854,2.98-2.557,4.825-4.201,0.798c-0.582-1.424-0.498-3.061-0.457-4.565c0.076-2.806,0.852-5.609,1.25-8.383
			C123.844,197.911,121.435,197.232,121.207,198.822L121.207,198.822z"/>
	</g>
	<g>
		<path fill="#070707" d="M141.678,172.665c1.276,5.531-0.261,11.298,4.559,15.373c0.491,0.416,1.293,0.544,1.768,0
			c4.737-5.438,1.566-14.69,7.509-18.864c-0.627-0.359-1.254-0.719-1.881-1.079c-0.401,4.605,0.561,14.188,7.281,13.28
			c2.843-0.384,4.257-4.228,5.039-6.466c0.685-1.962,1.14-4.292,0.658-6.355c-0.28-1.197-0.629-2.353-0.991-3.527
			c-0.989-3.207,4.55-11.815,7.951-5.477c0.762,1.421,2.92,0.159,2.158-1.262c-3.417-6.371-11.989-2.95-12.793,3.735
			c-0.21,1.75,0.106,3.123,0.621,4.794c1.127,3.653,0.535,7.007-1.277,10.332c-1.877,3.444-4.419,1.029-5.448-1.463
			c-0.984-2.384-0.917-5.077-0.698-7.592c0.08-0.912-1.134-1.604-1.881-1.079c-6.895,4.842-2.969,13.461-8.015,19.254
			c0.589,0,1.178,0,1.768,0c-4.274-3.614-2.785-9.372-3.915-14.271C143.727,170.429,141.316,171.095,141.678,172.665
			L141.678,172.665z"/>
	</g>
	<g>
		<path fill="#070707" d="M175.195,173.741c-0.268-5.316,0.19-9.029,2.914-13.669c1.716-2.925,3.122-5.609,3.771-8.975
			c0.739-3.83-0.215-7.878,0.8-11.644c0.875-3.246,6.53-6.397,9.039-7.903c6.064-3.64,7.539-8.58,6.583-15.462
			c-0.365-2.627-1.34-5.163-1.305-7.837c0.058-4.297,6.672-5.809,9.752-6.719c1.542-0.456,0.885-2.869-0.665-2.411
			c-5.323,1.574-11.952,3.788-11.556,10.42c0.175,2.93,1.239,5.763,1.536,8.688c0.672,6.644-2.722,9.297-7.778,12.502
			c-2.672,1.694-5.512,4.031-7.357,6.626c-1.669,2.347-1.174,6.206-1.176,8.855c-0.005,5.28-1.736,9.079-4.327,13.493
			c-2.781,4.74-3,8.65-2.729,14.035C172.776,175.345,175.276,175.353,175.195,173.741L175.195,173.741z"/>
	</g>
	<g>
		<path fill="#070707" d="M185.415,173.216c4.715-3.793,5.93-8.446,3.714-14.048c-2.238-5.661-9.011-12.622-3.714-18.423
			c1.084-1.188-0.678-2.96-1.768-1.768c-9.956,10.903,12.381,22.51,0,32.472C182.391,172.459,184.171,174.216,185.415,173.216
			L185.415,173.216z"/>
	</g>
	<g>
		<path fill="#070707" d="M192.84,165.979c-0.47-3.707-0.111-6.787,2.457-9.706c-0.696-0.184-1.393-0.368-2.089-0.551
			c1.372,3.521,3.704,8.803,8.367,7.634c4.562-1.144,4.788-8.719,4.678-12.203c-0.818,0.111-1.637,0.222-2.456,0.333
			c0.708,2.189,1.802,3.966,2.949,5.946c0.514,0.888,2.07,0.791,2.285-0.298c1.664-8.423,3.762-16.787,8.465-24.079
			c5.24-8.126,13.812-13.531,22.023-18.235c1.398-0.801,0.14-2.961-1.262-2.158c-8.149,4.668-15.963,9.889-21.723,17.428
			c-5.782,7.568-8.104,17.221-9.915,26.379c0.762-0.099,1.523-0.199,2.285-0.298c-1.048-1.81-2.034-3.301-2.697-5.35
			c-0.423-1.306-2.501-1.125-2.456,0.333c0.089,2.831-0.061,5.565-1.319,8.154c-2.482,5.106-6.116-2.455-6.815-4.25
			c-0.314-0.805-1.41-1.324-2.089-0.551c-3.004,3.414-3.757,7.001-3.189,11.473C190.54,167.555,193.042,167.575,192.84,165.979
			L192.84,165.979z"/>
	</g>
	<g>
		<path fill="#070707" d="M214.722,151.153c-0.302-3.917,1.691-6.334,5.436-7.264c-0.513-0.291-1.025-0.582-1.538-0.873
			c0.922,3.641,2.538,11.007,7.767,10.098c2.093-0.364,3.319-1.371,4.402-3.182c2.061-3.445,3.025-5.88,6.792-8.021
			c3.823-2.173,5.528,3.442,7.485,5.729c2.683,3.135,6.766,2.981,10.391,1.896c1.541-0.461,0.884-2.875-0.664-2.411
			c-4.75,1.422-7.373,0.052-9.844-3.959c-1.149-1.866-2.379-3.831-4.681-4.28c-3.23-0.63-6.433,2.424-8.616,4.326
			c-1.553,1.352-2.163,3.671-3.021,5.459c-3.307,6.886-6.978-3.864-7.599-6.319c-0.17-0.672-0.888-1.034-1.538-0.873
			c-4.801,1.192-7.657,4.662-7.271,9.675C212.345,152.75,214.846,152.762,214.722,151.153L214.722,151.153z"/>
	</g>
	<g>
		<path fill="#070707" d="M256.742,148.663c0.972,4.376,3.212,8.477,8.101,8.986c4.745,0.494,10.643-2.58,15.061-0.473
			c1.447,0.69,2.717-1.465,1.262-2.159c-8.104-3.864-19.138,5.922-22.013-7.019C258.803,146.424,256.393,147.092,256.742,148.663
			L256.742,148.663z"/>
	</g>
	<g>
		<path fill="#070707" d="M121.912,267.294c-2.418,6.141-1.879,11.561,0.408,17.64c2.392,6.357,6.024,13.004,2.342,19.555
			c-1.832,3.261-4.964,5.737-6.358,9.261c-1.683,4.256-0.166,8.097,2.326,11.686c0.912,1.314,3.08,0.066,2.158-1.262
			c-3.243-4.673-3.427-8.346-0.079-12.876c2.179-2.947,4.503-5.543,5.685-9.086c1.527-4.579-0.472-9.732-2.085-13.973
			c-2.687-7.063-4.935-12.791-1.986-20.28C124.915,266.458,122.496,265.812,121.912,267.294L121.912,267.294z"/>
	</g>
	<g>
		<path fill="#070707" d="M126.275,302.141c1.42,1.929,3.03,3.055,5.091,4.274c3.954,2.339,4.303,7.127,4.727,11.216
			c0.215,2.075,0.661,4.045,2.092,5.627c2.689,2.971,7.257,6.121,3.047,10.411c-1.681,1.712-3.63,2.619-5.074,4.621
			c-1.265,1.753-1.72,4.5-2.138,6.553c-0.859,4.22-0.405,8.767,3.293,11.396c-0.084-0.654-0.169-1.309-0.253-1.963
			c-3.173,4.059-8.448,5.244-12.457,8.274c-1.269,0.959-0.025,3.132,1.262,2.158c4.195-3.172,9.636-4.409,12.962-8.665
			c0.524-0.67,0.458-1.457-0.253-1.963c-3.142-2.234-2.568-6.49-1.904-9.753c0.735-3.608,2.265-5.873,5.255-8.03
			c2.496-1.801,4.746-5.459,3.267-8.598c-0.87-1.848-2.193-3.152-3.656-4.556c-2.939-2.816-2.713-5.774-3.338-9.496
			c-0.385-2.294-1.202-5.207-2.766-7.018c-2.032-2.351-5.125-3.204-7-5.751C127.489,299.596,125.318,300.841,126.275,302.141
			L126.275,302.141z"/>
	</g>
	<g>
		<path fill="#070707" d="M145.53,329.218c4.037,4.627,9.824,8.554,12.064,14.463c1.867,4.923-7.111,11.051-8.15,16.086
			c-0.324,1.573,2.085,2.243,2.411,0.664c1.321-6.405,9.896-10.229,8.149-17.415c-1.53-6.294-8.678-10.947-12.708-15.565
			C146.235,326.233,144.475,328.009,145.53,329.218L145.53,329.218z"/>
	</g>
	<g>
		<path fill="#070707" d="M157.914,348.433c1.451,5.579,5.862,9.992,8.902,14.746c2.157,3.373,3.37,6.853,1.675,10.716
			c-1.646,3.751-6.728,3.031-9.747,1.941c-4.196-1.515-3.02-5.944-8.472-4.718c-5.51,1.24-7.111,7.936-9.175,12.354
			c-0.678,1.451,1.477,2.722,2.158,1.262c1.313-2.811,2.365-5.703,3.976-8.369c1.107-1.832,4.979-4.641,6.639-1.843
			c0.43,0.727,0.854,1.377,1.378,2.036c2.299,2.896,8.901,3.468,11.979,1.816c13.467-7.228-4.834-22.65-6.902-30.605
			C159.919,346.209,157.508,346.871,157.914,348.433L157.914,348.433z"/>
	</g>
	<g>
		<path fill="#070707" d="M162.896,378.299c-0.949,3.785,0.124,8.396,0.643,12.199c0.019,0.137,0.037,0.273,0.057,0.41
			c-0.188-1.349-0.735-0.188-1.52,0.248c-1.551,0.861-3.471,1.184-5.187,1.533c-2.877,0.587-5.83,0.822-8.648,1.679
			c-1.538,0.467-0.882,2.881,0.665,2.41c5.322-1.617,12.722-0.848,16.786-5.264c0.84-0.912,0.048-3.329-0.07-4.365
			c-0.29-2.532-0.945-5.673-0.314-8.187C165.699,377.398,163.288,376.735,162.896,378.299L162.896,378.299z"/>
	</g>
	<g>
		<path fill="#070707" d="M160.03,398.55c0.19,0.73,0.518,1.388,0.707,2.118c0.513-0.513,1.025-1.024,1.538-1.537
			c-3.667-0.611-6.878-0.122-9.686,2.438c-0.519,0.474-0.444,1.284,0,1.768c2.533,2.759,2.55,5.449,0,8.115
			c-1.114,1.164,0.651,2.935,1.768,1.768c3.561-3.723,3.476-7.865,0-11.65c0,0.589,0,1.179,0,1.768
			c2.099-1.913,4.514-2.252,7.253-1.796c0.921,0.154,1.795-0.545,1.538-1.537c-0.19-0.73-0.518-1.388-0.707-2.118
			C162.036,396.326,159.625,396.988,160.03,398.55L160.03,398.55z"/>
	</g>
	<g>
		<path fill="#070707" d="M161.399,400.336c0,4.729,0,9.456,0,14.185c0,2.72-0.124,4.992,1.109,7.439
			c2.112,4.194-8.313,4.019-10.758,2.81c0.084,0.654,0.169,1.309,0.253,1.963c-0.699,0.279-0.681,0.367,0.056,0.265
			c1.61-0.035,1.613-2.535,0-2.5c-0.714,0.016-1.249,0.021-1.824,0.468c-0.619,0.48-0.413,1.634,0.253,1.963
			c3.609,1.786,11.198,1.76,14.259-1.176c1.744-1.673,0.983-3.201-0.08-5.054c-1.533-2.67-0.768-6.782-0.768-9.741
			c0-3.54,0-7.081,0-10.621C163.899,398.724,161.399,398.724,161.399,400.336L161.399,400.336z"/>
	</g>
	<g>
		<path fill="#070707" d="M173.314,446.593c7.611,4.635,11.596,12.809,20.142,16.283c4.967,2.02,10.278,2.938,15.253,5.03
			c5.632,2.367,11.424,4.34,17.264,6.121c22.049,6.725,44.043,9.018,66.893,5.868c1.592-0.219,0.911-2.628-0.664-2.41
			c-11.104,1.53-22.446,2.325-33.604,0.936c-11.428-1.424-22.715-3.984-33.723-7.342c-9.912-3.023-19.416-7.053-29.316-10.111
			c-9.14-2.824-13.187-11.785-20.983-16.533C173.195,443.594,171.94,445.756,173.314,446.593L173.314,446.593z"/>
	</g>
	<g>
		<path fill="#070707" d="M310.258,476.944c12.475,6.663,18.888-14.358,25.513-20.663c-0.654-0.084-1.309-0.169-1.963-0.253
			c1.969,4.321,2.574,8.768,2.652,13.485c0.026,1.61,2.526,1.613,2.5,0c-0.085-5.164-0.84-10.02-2.994-14.747
			c-0.345-0.758-1.427-0.764-1.963-0.253c-5.572,5.303-12.502,25.604-22.483,20.272
			C310.099,474.026,308.835,476.185,310.258,476.944L310.258,476.944z"/>
	</g>
	<g>
		<path fill="#070707" d="M339.497,457.438c0.862-1.673,1.28-3.375,1.692-5.212c0.7-3.125,2.489-5.224,4.705-7.418
			c3.284-3.253,6.056-5.862,7.971-10.099c1.613-3.567,3.11-10.862,7.237-12.439c6.157-2.354,6.015,8.613,5.713,11.947
			c-0.146,1.606,2.355,1.592,2.5,0c0.348-3.836,0.506-9.944-2.63-12.876c-2.641-2.469-7.007-2.432-9.319,0.563
			c-3.915,5.07-4.642,11.944-8.822,16.817c-2.359,2.75-5.555,4.806-7.602,7.831c-2.032,3.003-1.979,6.468-3.604,9.623
			C336.602,457.606,338.759,458.871,339.497,457.438L339.497,457.438z"/>
	</g>
	<g>
		<path fill="#070707" d="M369.977,421.14c2.332-7.558,6.576-14.412,9.177-21.885c-0.513,0.291-1.024,0.582-1.537,0.873
			c7.886,2.314,10.776,9.873,9.716,17.521c-0.219,1.575,2.189,2.256,2.41,0.664c1.252-9.021-2.176-17.871-11.462-20.596
			c-0.687-0.202-1.316,0.238-1.537,0.873c-2.601,7.472-6.844,14.322-9.177,21.885C367.09,422.021,369.503,422.676,369.977,421.14
			L369.977,421.14z"/>
	</g>
	<g>
		<path fill="#070707" d="M382.363,399.102c5.212-5.485,7.925-11.569,8.594-19.083c0.835-9.382-0.559-18.184,3.599-27.054
			c-0.762-0.1-1.522-0.199-2.284-0.299c1.544,7.122,4.133,13.819,7.893,20.064c0.74,1.23,2.617,0.413,2.284-0.963
			c-3.062-12.65-3.911-24.895-13.734-34.435c-0.405,0.696-0.811,1.393-1.216,2.089c5.029,0.941,8.952,3.554,12.861,6.739
			c0.58,0.474,1.575,0.529,1.963-0.253c4.574-9.221-9.576-17.447-14.314-23.401c-0.405,0.696-0.811,1.393-1.216,2.089
			c2.347,0.484,4.712,0.223,7.06,0.706c1.244,0.257,2.059-1.133,1.216-2.089c-2.327-2.641-5.203-4.575-8.106-6.525
			c-1.56-1.049-3.081-2.117-4.427-3.435c-3.201-3.138,1.452-6.223,3.811-7.841c0.93-0.638,0.735-1.896-0.299-2.284
			c-1.833-0.688-6.2-5.815-1.67-3.362c0.527,0.285,1.071,0.183,1.515-0.195c10.319-8.796-26.47-21.962-25.751-30.532
			c0.062-0.734-0.62-1.178-1.25-1.25c-3.884-0.441-7.432-1.307-7.631-5.801c-0.205-4.635,1.977-8.079,5.838-10.335
			c2.654-1.552,4.902-3.116,7.168-5.204c3.12-2.875,4.081-9.445,9.921-7.896c11.169,2.962,13.589-14.708,16.259-22.125
			c0.548-1.521-1.868-2.17-2.41-0.665c-1.728,4.797-4.694,22.163-11.974,20.75c-3.542-0.688-5.089-1.124-8.242,1.179
			c-3.027,2.211-4.497,6.233-7.279,8.792c-2.483,2.285-5.84,3.353-8.365,5.619c-2.44,2.189-3.011,5.728-3.367,8.8
			c-0.765,6.586,4.515,8.754,10.083,9.387c-0.417-0.417-0.833-0.833-1.25-1.25c-0.367,4.376,4.312,7.813,7.331,10.165
			c5.157,4.018,10.859,7.289,15.939,11.41c1.562,1.269,4.029,3.157,4.315,5.31c0.347,2.605-2.591-0.242-4.292,0.547
			c-4.69,2.176,2.099,8.188,4.448,9.068c-0.1-0.762-0.199-1.522-0.299-2.284c-3.482,2.389-7.769,5.654-5.474,10.269
			c2.494,5.016,10.042,7.318,13.69,11.458c0.405-0.696,0.811-1.393,1.216-2.089c-2.347-0.483-4.712-0.223-7.06-0.706
			c-1.291-0.267-1.99,1.116-1.216,2.089c3.783,4.754,17.455,13.253,13.924,20.372c0.654-0.084,1.309-0.169,1.963-0.253
			c-4.213-3.435-8.539-6.367-13.965-7.382c-1.168-0.219-2.174,1.159-1.216,2.089c9.47,9.197,10.152,21.188,13.092,33.331
			c0.762-0.32,1.522-0.642,2.284-0.963c-3.651-6.066-6.142-12.556-7.641-19.467c-0.22-1.015-1.827-1.275-2.284-0.299
			c-3.076,6.562-3.778,13.2-3.784,20.369c-0.008,9.763-0.982,17.857-8.018,25.262C379.486,398.502,381.251,400.272,382.363,399.102
			L382.363,399.102z"/>
	</g>
	<g>
		<path fill="#070707" d="M350.045,261.48c-5.608-0.83-5.044-10.742-3.459-14.191c1.689-3.679,5.27-6.52,8.243-9.131
			c1.214-1.066-0.562-2.827-1.768-1.768c-4.143,3.638-9.515,8.157-10.093,14.085c-0.452,4.648,0.789,12.584,6.412,13.417
			C350.957,264.125,351.636,261.716,350.045,261.48L350.045,261.48z"/>
	</g>
	<g>
		<path fill="#070707" d="M342.022,242.331c-1.433,2.482-5.469,1.297-7.723,2.248c-1.462,0.617-0.82,3.037,0.664,2.411
			c1.38-0.582,3.146-0.441,4.613-0.678c1.832-0.296,3.643-1.054,4.604-2.719C344.988,242.193,342.827,240.935,342.022,242.331
			L342.022,242.331z"/>
	</g>
	<g>
		<path fill="#070707" d="M119.412,243.097c2.599,3.155,1.918,6.688-0.195,9.781c-0.455,0.665,0.002,1.647,0.747,1.836
			c6.488,1.642,2.781,10.285,2.612,15.03c-0.058,1.613,2.442,1.607,2.5,0c0.221-6.188,4.022-15.297-4.447-17.441
			c0.249,0.612,0.498,1.225,0.747,1.836c2.843-4.161,3.065-8.852-0.195-12.811C120.153,240.084,118.395,241.863,119.412,243.097
			L119.412,243.097z"/>
	</g>
	<path fill="#070707" d="M297.527,159.626c0-3.152-2.55-5.702-5.7-5.702c-3.144,0-5.697,2.549-5.697,5.702
		c0,3.145,2.554,5.697,5.697,5.697C294.978,165.323,297.527,162.771,297.527,159.626z"/>
	<g>
		<path fill="#070707" d="M299.984,337.677c-3.084,2.03-5.469,5.878-5.545,9.62c-0.087,4.277,4.316,3.375,6.884,2.049
			c0.717-0.37,0.084-1.449-0.631-1.08c-1.168,0.604-2.922,1.557-4.249,0.87c-1.057-0.547-0.774-2.349-0.594-3.258
			c0.557-2.784,2.398-5.563,4.766-7.121C301.285,338.315,300.66,337.232,299.984,337.677L299.984,337.677z"/>
	</g>
	<g>
		<path fill="#070707" d="M164.266,426.827c-0.715,3.123,0.017,5.879,2.692,7.765c1.321,0.932,2.568-1.237,1.262-2.158
			c-1.714-1.209-1.989-2.992-1.542-4.942C167.037,425.922,164.626,425.256,164.266,426.827L164.266,426.827z"/>
	</g>
	<g>
		<path fill="#070707" d="M280.161,157.432c2.222,3.681,4.825,7.832,8.919,9.626c1.462,0.641,2.735-1.513,1.262-2.158
			c-3.723-1.632-6.002-5.382-8.022-8.729C281.488,154.792,279.325,156.048,280.161,157.432L280.161,157.432z"/>
	</g>
	<polygon fill="none" stroke="#070707" stroke-width="1.5" stroke-miterlimit="10" points="175.142,113.156 162.594,87.737 
		134.537,83.662 154.839,63.873 150.046,35.93 175.142,49.125 200.237,35.93 195.44,63.873 215.747,83.662 187.69,87.737 	"/>
	<polygon fill="none" stroke="#070707" stroke-width="1.5" stroke-miterlimit="10" points="273.618,97.295 257.614,88.339 
		241.548,97.189 244.676,78.34 231.749,64.937 249.69,62.248 257.769,45.116 265.724,62.303 283.643,65.116 270.621,78.428 	"/>
	<polygon fill="none" stroke="#070707" stroke-width="1.5" stroke-miterlimit="10" points="104.621,141.247 105.327,122.92 
		90.142,112.631 108.355,106.851 114.42,89.247 124.967,104.003 143.898,103.412 132.203,118.311 137.841,135.553 120.066,130.004 	
		"/>
	<polygon fill="none" stroke="#070707" stroke-width="1.5" stroke-miterlimit="10" points="98.488,188.525 93.66,178.16 
		82.309,176.774 90.766,168.383 89.119,156.892 99.167,162.074 109.504,156.357 107.257,167.949 115.292,175.909 103.854,177.891 	
		"/>
	<polygon fill="none" stroke="#070707" stroke-width="1.5" stroke-miterlimit="10" points="310.195,117.67 305.369,107.305 
		294.02,105.919 302.473,97.528 300.825,86.037 310.878,91.219 321.212,85.501 318.965,97.094 327,105.054 315.561,107.036 	"/>
</g>
</svg>
