<?xml version="1.0" encoding="utf-8"?>
<!-- Generator: Adobe Illustrator 16.0.0, SVG Export Plug-In . SVG Version: 6.00 Build 0)  -->
<!DOCTYPE svg PUBLIC "-//W3C//DTD SVG 1.1//EN" "http://www.w3.org/Graphics/SVG/1.1/DTD/svg11.dtd">
<svg version="1.1" id="Layer_1" xmlns="http://www.w3.org/2000/svg" xmlns:xlink="http://www.w3.org/1999/xlink" x="0px" y="0px"
	 width="500px" height="550px" viewBox="0 0 500 550" enable-background="new 0 0 500 550" xml:space="preserve">
<g>
	<g>
		<path fill="#070707" d="M161.37,151.285c-35.68,36.87-28.793,92.24-26.066,138.981c0.945,16.195,1.408,32.418,1.092,48.641
			c-0.298,15.298-1.939,30.512-2.476,45.797c-0.481,13.705,0.322,27.456,3.896,40.741c3.601,13.386,10.736,25.404,19.653,35.914
			c1.155,1.361,2.376,2.666,3.595,3.97c1.103,1.181,2.867-0.592,1.768-1.768c-10.058-10.764-17.762-23.025-22.131-37.143
			c-4.164-13.45-4.68-27.744-4.28-41.715c0.419-14.637,2.019-29.207,2.43-43.849c0.437-15.564-0.023-31.146-0.831-46.691
			c-2.448-47.124-11.04-103.747,25.119-141.111C164.258,151.895,162.492,150.125,161.37,151.285L161.37,151.285z"/>
	</g>
	<g>
		<path fill="#070707" d="M343.077,163.729c-7.741-14.065-20.025-25.522-34.969-31.54c-1.497-0.603-2.138,1.814-0.664,2.411
			c0.183,0.074,0.365,0.148,0.549,0.222c1.495,0.605,2.139-1.814,0.664-2.411c-0.183-0.074-0.365-0.148-0.549-0.222
			c-0.222,0.804-0.442,1.607-0.664,2.411c14.324,5.769,26.068,16.936,33.475,30.391
			C341.696,166.403,343.855,165.142,343.077,163.729L343.077,163.729z"/>
	</g>
	<g>
		<path fill="#070707" d="M184.321,478.53c19.246,11.857,43.703,11.72,65.478,9.887c10.987-0.925,21.906-2.605,32.77-4.461
			c11.72-2.002,24.785-2.966,35.053-9.43c1.36-0.856,0.106-3.021-1.262-2.158c-9.714,6.114-22.09,7.029-33.18,8.957
			c-11.071,1.925-22.186,3.585-33.381,4.592c-21.282,1.915-45.417,2.036-64.216-9.545
			C184.207,475.523,182.952,477.687,184.321,478.53L184.321,478.53z"/>
	</g>
	<g>
		<path fill="#070707" d="M138.461,194.124c-14.261-3.44-23.694-15.925-17.55-30.41c2.737-6.453,8.322-11.273,14.749-13.831
			c7.458-2.97,20.274-3.824,26.26,2.319c1.126,1.156,2.893-0.612,1.768-1.768c-6.443-6.614-18.472-5.955-26.712-3.634
			c-7.738,2.181-14.234,7.724-17.849,14.848c-3.148,6.203-3.708,14.058-0.787,20.451c3.652,7.99,11.16,12.434,19.456,14.435
			C139.363,196.912,140.028,194.502,138.461,194.124L138.461,194.124z"/>
	</g>
	<g>
		<path fill="#070707" d="M327.393,146.101c12.191-6.252,30.957-9.266,39.794,3.735c8.928,13.134,3.416,34.443-13.415,37.326
			c-1.587,0.271-0.912,2.681,0.664,2.41c18.099-3.099,23.21-24.004,16.192-38.753c-8.035-16.888-30.662-13.972-44.497-6.877
			C324.696,144.678,325.961,146.835,327.393,146.101L327.393,146.101z"/>
	</g>
	<g>
		<path fill="#070707" d="M231.462,212.312c0.341-0.052,0.681-0.104,1.022-0.156c-0.105-0.388-0.21-0.776-0.315-1.164
			c-1.308,0.695-2.771,0.598-4.056,1.371c-2.309,1.39-4.419,3.102-6.395,4.925c-2.72,2.511-6.493,7.017-5.359,11.09
			c1.322,4.747,6.453,7.048,10.966,7.73c7.372,1.115,14.64-3.422,21.932-3.81c8.794-0.467,23.008,9.629,25.904-4.644
			c2.023-9.968-11.831-15.884-19.02-18.55c-0.758-0.281-1.082,0.928-0.332,1.205c7.115,2.64,17.98,7.192,18.219,16.111
			c0.366,13.742-17.715,4.841-24.771,4.627c-4.442-0.134-8.976,1.713-13.194,2.841c-5.86,1.567-17.575,1.791-18.581-6.55
			c-0.512-4.244,4.014-8.264,6.859-10.721c2.769-2.39,5.447-2.946,8.458-4.548c0.542-0.288,0.304-1.196-0.315-1.165
			c-0.48,0.024-0.848,0.108-1.354,0.201C230.338,211.251,230.675,212.455,231.462,212.312L231.462,212.312z"/>
	</g>
	<g>
		<path fill="#070707" d="M258.314,233.845c0.905,4.281,2.111,8.46,2.31,12.859c0.129,2.849-0.51,5.58-2.493,7.699
			c-3.359,3.59-12.048,1.891-11.055-4.104c0.131-0.788-1.074-1.126-1.205-0.332c-1.249,7.528,8.465,9.151,13.144,5.319
			c5.891-4.823,1.759-15.849,0.505-21.774C259.353,232.724,258.148,233.059,258.314,233.845L258.314,233.845z"/>
	</g>
	<g>
		<path fill="#070707" d="M162.261,465.655c10.231-5.152,15.646,7.806,22.708,12.668c0.05-0.381,0.1-0.762,0.149-1.143
			c-5.417,0.838-9.851,4.312-14.113,7.529c-5.185,3.913-11.91,9.986-18.852,7.051c-9.099-3.847-6.263-12.608-0.82-17.922
			c4.069-3.972,9.216-6.966,14.262-9.521c0.719-0.364,0.086-1.443-0.631-1.08c-7.267,3.682-27.396,15.235-18.144,25.765
			c12.613,14.354,25.919-8.65,38.63-10.616c0.586-0.091,0.542-0.872,0.149-1.143c-7.686-5.291-12.862-18.261-23.969-12.668
			C160.91,464.938,161.543,466.017,162.261,465.655L162.261,465.655z"/>
	</g>
	<g>
		<path fill="#070707" d="M150.544,490.18c-1.711-6.011,2.758-10.688,7.719-13.296c0.714-0.376,0.082-1.454-0.631-1.08
			c-5.482,2.883-10.156,8.169-8.293,14.708C149.559,491.286,150.765,490.956,150.544,490.18L150.544,490.18z"/>
	</g>
	<g>
		<path fill="#070707" d="M333.328,461.736c11.033,0.723,20.517,14.394,17.08,25.078c-2.746,8.538-14.293,4.124-18.813,0.254
			c-3.569-3.055-6.559-6.838-10.004-10.051c-0.774-0.715-1.548-1.431-2.321-2.147c-3.335-3.086,1.079-6.69,2.885-8.341
			C325.258,463.692,329.147,461.995,333.328,461.736c0.801-0.05,0.806-1.3,0-1.25c-5.969,0.369-11.977,3.762-15.476,8.682
			c-3.542,4.981,1.762,7.673,5.289,11.025c6.304,5.991,15.175,17.395,25.219,11.275c5.717-3.482,4.152-12.21,2.126-17.275
			c-2.88-7.202-9.199-13.186-17.158-13.707C332.522,460.434,332.528,461.684,333.328,461.736z"/>
	</g>
	<g>
		<path fill="#070707" d="M338.886,476.228c3.886,4.026,6.959,9.177,7.153,14.892c0.027,0.804,1.277,0.807,1.25,0
			c-0.206-6.051-3.397-11.504-7.519-15.776C339.21,474.762,338.326,475.647,338.886,476.228L338.886,476.228z"/>
	</g>
	<g>
		<path fill="#070707" d="M360.018,303.641c5.982,0.092,11.919,0.892,17.193,3.886c5.374,3.05,9.414,10.99,6.478,16.961
			c-4.017,8.167-18.595-1.77-21.914-5.859c-0.509-0.626-1.388,0.265-0.885,0.885c4.347,5.353,19.475,14.559,24.192,4.967
			c2.552-5.188-0.628-12.132-4.31-15.827c-5.211-5.23-13.779-6.154-20.755-6.262C359.211,302.378,359.212,303.628,360.018,303.641
			L360.018,303.641z"/>
	</g>
	<g>
		<path fill="#070707" d="M373.84,318.339c3.875,1.196,8.647,4.498,6.294,9.088c-0.366,0.716,0.712,1.349,1.08,0.631
			c2.752-5.367-2.295-9.459-7.042-10.924C373.399,316.896,373.072,318.102,373.84,318.339L373.84,318.339z"/>
	</g>
	<circle fill="none" stroke="#070707" stroke-width="1.5" stroke-miterlimit="10" cx="288.931" cy="176.297" r="34.676"/>
	<path fill="none" stroke="#070707" stroke-width="1.5" stroke-miterlimit="10" d="M236.272,179.975
		c0-19.148-15.526-34.675-34.675-34.675c-19.154,0-34.675,15.526-34.675,34.675c0,19.152,15.521,34.679,34.675,34.679
		C220.746,214.653,236.272,199.127,236.272,179.975z"/>
	<path fill="#070707" d="M355.129,162.153c0-4.055-3.285-7.336-7.336-7.336c-4.053,0-7.338,3.281-7.338,7.336
		c0,4.049,3.285,7.334,7.338,7.334C351.844,169.487,355.129,166.202,355.129,162.153z"/>
	<path fill="#070707" d="M148.791,169.737c0-4.05-3.288-7.334-7.339-7.334c-4.046,0-7.333,3.284-7.333,7.334
		c0,4.051,3.287,7.336,7.333,7.336C145.503,177.073,148.791,173.788,148.791,169.737z"/>
	<ellipse fill="#070707" cx="245.483" cy="208.297" rx="15.516" ry="8.592"/>
	<path fill="#070707" d="M270.747,167.028c-6.262,0-11.336,5.075-11.336,11.335c0,6.264,5.074,11.342,11.336,11.342
		c6.266,0,11.338-5.078,11.338-11.342C282.085,172.104,277.013,167.028,270.747,167.028z M275.31,185.574
		c-1.771,0-3.209-1.437-3.209-3.209c0-1.771,1.438-3.209,3.209-3.209s3.213,1.438,3.213,3.209
		C278.522,184.138,277.081,185.574,275.31,185.574z"/>
	<path fill="#070707" d="M182.772,169.729c-6.262,0-11.34,5.075-11.34,11.337s5.078,11.337,11.34,11.337
		c6.259,0,11.334-5.075,11.334-11.337S189.031,169.729,182.772,169.729z M187.332,188.279c-1.772,0-3.209-1.443-3.209-3.213
		c0-1.771,1.437-3.209,3.209-3.209s3.209,1.438,3.209,3.209C190.541,186.836,189.104,188.279,187.332,188.279z"/>
	<g>
		<path fill="#070707" d="M246.274,232.599c1.53,6.528,1.405,28.751-10.328,22.764c-6.092-3.109-4.224-15.013-2.71-20.15
			c0.229-0.775-0.978-1.104-1.205-0.332c-1.985,6.738-3.331,19.441,5.112,22.333c12.289,4.209,11.784-18.771,10.336-24.947
			C247.295,231.482,246.09,231.815,246.274,232.599L246.274,232.599z"/>
	</g>
	<g>
		<path fill="#070707" d="M137.598,306.3c-7.957-1.396-16.121,2.365-21.932,7.665c-4.127,3.764-6.226,9.454-0.507,12.63
			c0.705,0.392,1.335-0.688,0.631-1.08c-7.067-3.925,0.136-10.521,4.135-13.323c4.975-3.486,11.247-5.756,17.341-4.687
			C138.054,307.644,138.391,306.438,137.598,306.3L137.598,306.3z"/>
	</g>
	<g>
		<path fill="#070707" d="M121.161,320.741c-2.2,1.031-5.38,3.193-5.386,5.991c-0.005,2.537,2.364,4.351,4.789,4.616
			c3.048,0.334,6.145-1.521,8.646-3.026c2.616-1.574,5.447-3.528,7.378-5.929c0.5-0.622-0.378-1.513-0.884-0.885
			c-2.62,3.258-6.67,5.727-10.394,7.507c-2.584,1.236-5.104,1.667-7.507-0.3c-3.016-2.468,2.108-6.015,3.987-6.895
			C122.521,321.479,121.886,320.402,121.161,320.741L121.161,320.741z"/>
	</g>
	<g>
		<path fill="#070707" d="M339.118,161.061c13.395,19.585,16.905,43.403,17.899,66.619c1.039,24.256-0.202,48.543,0.834,72.816
			c1.216,28.496,3.591,56.948,3.159,85.493c-0.217,14.407-1.57,28.564-5.523,42.463c-3.438,12.09-11.583,21.254-17.443,32.112
			c-0.766,1.419,1.393,2.681,2.158,1.262c5.644-10.457,13.511-19.415,17.153-30.904c4.218-13.304,5.661-27.173,6.07-41.06
			c0.878-29.813-1.749-59.605-3.074-89.366c-1.127-25.319,0.243-50.662-0.978-75.964c-1.088-22.563-5.118-45.757-18.098-64.733
			C340.373,158.478,338.205,159.726,339.118,161.061L339.118,161.061z"/>
	</g>
	<g>
		<path fill="#070707" d="M177.929,138.514c-1.826-4.897-10.85,5.4-11.87,6.874c-5.131,7.412-0.408,15.937,8.823,15.009
			c4.282-0.43,9.517-3.443,10.977-7.715c0.969-2.834,0.858-8.115-2.638-9.238c-4.295-1.379-7.959,8.706-0.346,8.624
			c0.806-0.009,0.807-1.259,0-1.25c-7.838,0.085,2.009-12.593,2.315-0.877c0.201,7.714-11.388,11.168-16.886,7.852
			c-4.938-2.979-3.495-8.409-0.771-12.343c0.549-0.794,8.392-8.744,9.191-6.604C177.002,139.594,178.211,139.271,177.929,138.514
			L177.929,138.514z"/>
	</g>
	<g>
		<path fill="#070707" d="M212.285,125.848c-8.812-0.274-13.508,9.525-11.67,17.25c0.357,1.499,3.015,5.752,5.131,4.923
			c1.072-0.419,1.697-1.141,2.446-2.024c2.04-2.406,4.448-3.936,7.357-5.104c7.773-3.125,16.075,1.08,18.489,8.955
			c1.054,3.439,0.274,7.115-2.345,9.601c-1.751,1.662-4.339,2.216-6.647,2.469c-1.414,0.155-2.773-0.034-4.142-0.38
			c0.206-2.214,0.411-4.428,0.616-6.641c2.629-0.756,3.25,0.104,1.862,2.577c-0.8,0.053-0.805,1.304,0,1.25
			c2.636-0.175,5.342-1.675,2.587-4.138c-3.357-3.002-7.968,0.211-9.143,3.663c-1.559,4.582,6.884,5.064,9.234,4.807
			c3.909-0.428,7.379-2.539,8.951-6.199c3.079-7.17-2.867-15.183-9.42-17.572c-4.999-1.821-10.406-0.006-14.749,2.573
			c-3.458,2.054-5.965,8.498-9.022,0.909c-2.731-6.778,3.313-15.891,10.465-15.668C213.092,127.123,213.089,125.873,212.285,125.848
			L212.285,125.848z"/>
	</g>
	<g>
		<path fill="#070707" d="M249.775,122.599c-0.987-0.655-1.741-0.535-0.623-1.27c2.54-1.67,5.565-0.511,7.866,0.804
			c3.087,1.763,5.432,4.954,7.217,7.929c3.201,5.333,2.566,11.842,0.582,17.476c-2.277,6.469-7.609,11.82-14.741,11.862
			c-7.407,0.044-10.172-7.766-10.306-13.936c-0.131-6.025,2.696-11.764,8.829-13.272c6.193-1.523,7.356,6.266,6.105,10.439
			c-0.732,2.445-2.52,3.847-5.058,3.688c-2.917-0.184-3.487-1.698-1.448-3.583c1.04-0.961,2.365-1.703,3.673-2.223
			c3.051-1.209,0.013,2.493-0.634,3.271c-0.511,0.616,0.368,1.505,0.884,0.885c8.102-9.764-7.439-4.357-6.686,0.512
			c0.608,3.933,7.319,2.494,9.116,0.377c2.955-3.479,2.557-9.761-0.403-13.046c-4.062-4.509-11.159,0.155-13.514,4.066
			c-3.569,5.93-2.658,14.857,1.438,20.247c4.027,5.3,12.362,4.692,17.138,0.787c6.201-5.071,9.104-13.479,8.383-21.348
			c-0.619-6.745-5.958-13.528-12.02-16.273c-2.968-1.344-11.877,0.069-6.429,3.686C249.818,124.125,250.442,123.042,249.775,122.599
			L249.775,122.599z"/>
	</g>
	<g>
		<path fill="#070707" d="M280.487,122.973c-5.348,14.211,10.684,24.713,22.813,17.056c3.609-2.278,5.921-6.744,4.813-10.959
			c-1.308-4.975-7.375-4.452-11.099-3.199c-0.413,0.139-0.541,0.538-0.374,0.918c1.913,4.339,10.389,7.364,11.151,0.794
			c-0.389,0.105-0.776,0.21-1.165,0.315c1.283,2.277,1.955,1.548,4.259,2.506c0.744,0.31,1.065-0.9,0.332-1.205
			c-1.39-0.578-2.594-0.303-3.511-1.932c-0.333-0.591-1.099-0.26-1.165,0.315c-0.605,5.213-6.979,1.626-8.404-0.479
			c-0.468-0.689,5.23-0.792,5.846-0.629c5.594,1.48,2.696,8.638,0.146,11.283c-4.229,4.39-11.406,4.523-16.615,2.117
			c-6.513-3.009-8.175-10.32-5.823-16.57C281.978,122.549,280.769,122.226,280.487,122.973L280.487,122.973z"/>
	</g>
	<g>
		<path fill="#070707" d="M310.276,129.78c0.159,0.248,0.302,0.582,0.617,0.667c2.492,0.671,4.243,2.299,6.586,3.216
			c4.847,1.896,9.445,3.459,14.69,3.403c7.971-0.085,14.95-5.594,19.677-11.527c3.924-4.927,6.227-11.234,4.63-17.469
			c-1.259-4.914-7.313-8.142-11.505-10.045c-3.913-1.778-9.181-3.119-12.974-0.408c-1.816,1.298-4.163,6.112-1.697,7.832
			c2.028,1.415,5.325,0.538,6.836-1.28c2.301-2.768-3.352-4.09-4.832-4.377c-0.488-0.095-0.859,0.283-0.769,0.769
			c0.275,1.479,0.836,1.718,1.727,2.923c0.474,0.641,1.56,0.019,1.08-0.631c-0.529-0.716-2.227-1.893-0.237-1.379
			c2.605,0.672,2.065,2.43,0.079,3.144c-4.87,1.75-3.655-4.42-0.922-6.373c5.679-4.058,16.211,2.955,20.076,6.905
			c7.877,8.051-2.495,21.056-9.002,26.056c-5.056,3.886-11.213,5.205-17.476,4.238c-3.43-0.53-7.106-2.045-10.197-3.554
			c-0.846-0.413-4.806-1.955-5.308-2.738C310.923,128.473,309.841,129.099,310.276,129.78L310.276,129.78z"/>
	</g>
	<g>
		<path fill="#070707" d="M332.723,96.955c-8.642-6.4-19.257-10.864-24.681-20.683c-2.072-3.751-1.975-9.011,2.68-10.529
			c4.349-1.418,7.663,2.734,8.861,6.31c0.134,0.4,0.73,0.67,1.045,0.276c11.234-14.083-11.104-20.518-21.708-20.737
			c-17.943-0.37-33.599,22.692-23.109,38.365c0.285-0.285,0.57-0.57,0.855-0.855c-6.286-3.4-13.74-4.128-19.335-8.813
			c-7.413-6.208-3.666-16.987-2.021-24.884c0.117-0.561-0.415-0.941-0.918-0.706c-5.656,2.649-7.315,7.59-5.833,13.469
			c0.381-0.161,0.761-0.321,1.142-0.481c-5.654-11.033-19.028,2.49-10.29,9.178c0.161-0.381,0.321-0.761,0.481-1.142
			c-3.545-1.427-5.692,0.087-8.409,2.378c-7.77,6.552-15.799-2.704-17.268-10.218c-1.757-8.988,3.149-27.736,15.083-18.306
			c0.203-0.348,0.405-0.696,0.608-1.044c-13.798-5.25-26.539,1.21-33.52,13.518c-4.479,7.895-7.371,20.397,3.776,23.757
			c0.657,0.198,0.965-0.59,0.608-1.044c-4.248-5.407-10.445-8.46-17.341-8.268c-8.024,0.225-11.345,6.451-16.832,11.042
			c-0.33,0.275-0.179,0.772,0.126,0.981c1.861,1.277,3.684,2.608,5.545,3.884c0.05-0.381,0.1-0.761,0.149-1.142
			c-3.019,0.529-15.394,1.292-15.287,6.51c0.062,3.064,2.683,5.329,4.768,7.248c1.919,1.766,3.999,3.23,5.528,5.384
			c2.126,2.994-3.954,2.921-5.09,2.963c-7.263,0.268-12.835-0.038-19.48,3.433c-4.638,2.423-11.093,7.678-8.545,13.665
			c1.875,4.405,7.108,6.457,11.481,4.092c1.39-0.752,3.192-2.086,3.137-3.897c-0.025-0.836-0.204-1.435-0.559-2.191
			c-0.23-0.492-0.821-1.057-1.178-1.431c0.348,0.365,2.848,0.197,3.195,0.245c10.784,1.478,0.585,22.41,13.321,24.026
			c0.798,0.102,0.789-1.15,0-1.25c-12.962-1.646,0.107-26.708-17.924-23.837c-0.447,0.071-0.622,0.762-0.276,1.044
			c5.549,4.543-1.874,7.754-6.18,6.6c-8.166-2.189-2.883-11.096,1.179-14.133c7.171-5.36,14.377-4.84,22.749-5.149
			c3.718-0.137,7.655-1.423,4.75-5.515c-1.886-2.655-12.12-8.518-9.024-12.5c2.478-3.187,10.162-3.469,13.768-4.101
			c0.58-0.102,0.55-0.868,0.149-1.142c-2.112-1.449-5.713-2.486-3.205-4.875c2.466-2.35,4.207-5.061,7.188-6.868
			c7.802-4.728,17.891-0.439,23.003,6.067c0.203-0.348,0.405-0.696,0.608-1.044c-11.329-3.415-6.281-16.558-1.968-23.739
			c6.612-11.01,18.895-15.748,31.047-11.125c0.57,0.217,1.094-0.66,0.608-1.044c-10.937-8.643-16.963,3.766-17.523,13.778
			c-0.333,5.973,1.604,13.024,6.706,16.684c2.944,2.111,5.783,2.728,9.342,2.007c4.317-0.874,5.61-6.344,10.853-4.233
			c0.717,0.289,0.99-0.753,0.481-1.142c-6.984-5.345,3.732-16.928,8.58-7.468c0.332,0.647,1.312,0.189,1.142-0.481
			c-1.352-5.364,0.115-9.648,5.259-12.058c-0.306-0.235-0.612-0.47-0.918-0.706c-1.637,7.854-4.479,16.357,0.19,23.695
			c4.562,7.169,14.899,7.714,21.739,11.414c0.521,0.282,1.221-0.309,0.855-0.855c-9.704-14.5,4.125-35.354,20.433-36.452
			c8.448-0.568,31.293,4.224,23.671,16.897c-0.981,1.633-0.828,0.18-1.484-1.041c-0.442-0.824-1.107-1.535-1.753-2.197
			c-1.123-1.153-2.865-2.011-4.47-2.167c-2.957-0.288-6.229,1.019-7.302,4.022c-1.762,4.935,1.311,9.669,4.324,13.373
			c5.759,7.077,14.581,10.94,21.782,16.273C332.74,98.514,333.362,97.429,332.723,96.955L332.723,96.955z"/>
	</g>
	<g>
		<path fill="#070707" d="M127.42,192.216c4.876,11.186-10.427,22.677-20.227,16.347c-0.633-0.408-1.189,0.467-0.757,0.982
			c5.291,6.309,15.821,25.327,24.84,13.192c-0.36-0.21-0.719-0.421-1.079-0.631c-4.35,6.863-6.061,15.11-14.607,18.02
			c-0.609,0.207-0.579,0.986,0,1.205c7.817,2.955,14.106-0.014,19.014-6.387c0.492-0.639-0.595-1.26-1.079-0.631
			c-4.569,5.933-10.324,8.563-17.603,5.812c0,0.401,0,0.804,0,1.205c8.951-3.047,10.753-11.332,15.354-18.594
			c0.441-0.696-0.611-1.262-1.079-0.631c-8.068,10.856-18.226-7.899-22.877-13.446c-0.252,0.328-0.505,0.655-0.757,0.982
			c10.964,7.082,27.272-5.819,21.937-18.058C128.178,190.848,127.101,191.484,127.42,192.216L127.42,192.216z"/>
	</g>
	<g>
		<path fill="#070707" d="M358.456,189.156c7.755,4.42,13.559,6.708,21.965,2.673c5.345-2.566,9.221-7.463,3.086-11.521
			c-0.21,0.36-0.421,0.719-0.631,1.079c6.393,3.896,9.654,11.25,5.728,18.134c-2.872,5.035-10.089,4.415-15.014,5.14
			c-0.277,0.041-0.449,0.35-0.459,0.603c-0.117,3.144-0.749,6.011-1.734,8.974c-0.733,2.206-2.071,4.766-2.15,7.118
			c-0.1,2.974,0.467,7.802,3.525,9.398c1.127,0.588,1.888,0.766,3.158,0.672c0.399-0.029,3.216-1.546,3.27-1.409
			c3.014,7.797-15.719,8.041-19.431,7.418c-0.788-0.132-1.126,1.072-0.332,1.205c6.404,1.074,24.58,0.39,20.473-10.236
			c-0.168-0.436-0.679-0.622-1.045-0.276c-7.883,7.464-8.641-6.014-7.646-9.496c0.944-3.312,2.27-6.411,2.893-9.82
			c0.669-3.66,3.126-3.257,6.202-3.686c2.418-0.336,4.541-0.855,6.636-2.123c9.267-5.609,3.633-18.386-3.441-22.696
			c-0.693-0.423-1.298,0.638-0.631,1.079c7.181,4.749-2.517,9.392-6.714,10.869c-6.408,2.257-11.698-1.116-17.075-4.18
			C358.386,187.677,357.756,188.757,358.456,189.156L358.456,189.156z"/>
	</g>
	<g>
		<path fill="#070707" d="M137.614,326.21c30.678,22.391,68.82,29.688,106.188,28.036c39.691-1.753,80.58-13.118,115.286-32.472
			c0.704-0.393,0.074-1.473-0.631-1.08c-34.204,19.075-74.072,29.981-113.107,32.224c-37.553,2.156-76.294-5.3-107.104-27.788
			C137.592,324.654,136.97,325.739,137.614,326.21L137.614,326.21z"/>
	</g>
	<g>
		<path fill="#070707" d="M143.259,438.396c6.079,4.93,13.333,7.302,20.584,9.953c8.721,3.189,17.244,6.889,25.993,10.006
			c17.832,6.354,36.958,8.558,55.804,8.975c19.008,0.421,38.069-1.802,56.502-6.424c8.575-2.15,17.097-4.894,25.208-8.421
			c9.256-4.023,17.63-9.983,25.924-15.652c0.661-0.452,0.036-1.536-0.631-1.08c-7.379,5.044-14.767,10.054-22.733,14.137
			c-8.263,4.236-17.449,6.951-26.386,9.365c-17.684,4.775-36.044,6.828-54.334,6.861c-18.092,0.033-36.68-1.902-53.996-7.281
			c-8.362-2.598-16.456-6.018-24.593-9.228c-8.966-3.537-18.85-5.924-26.458-12.096
			C143.522,437.008,142.632,437.887,143.259,438.396L143.259,438.396z"/>
	</g>
	<g>
		<path fill="#070707" d="M138.735,341.229c24.327,14.93,51.737,23.614,75.163,40.124c5.809,4.094,17.422,12.407,24.546,6.211
			c5.944-5.17,9.984-24.668,20.495-15.987c6.269,5.177,9.465,13.305,16.299,17.928c6.1,4.125,14.079-0.406,19.322-3.814
			c7.719-5.018,14.24-11.65,21.188-17.629c11.228-9.66,24.853-16.354,36.586-25.383c2.712-2.087,5.079-4.491,7.999-6.322
			c0.681-0.428,0.054-1.51-0.631-1.08c-5.989,3.757-11.218,8.757-17.074,12.775c-6.279,4.309-12.724,8.37-19.023,12.649
			c-7.945,5.397-14.677,12.014-22.027,18.148c-6.468,5.398-17.738,14.967-26.424,9.092c-6.924-4.684-10.06-13.42-16.795-18.393
			c-5.959-4.399-10.942,1.425-13.863,6.337c-3.172,5.333-4.91,12.02-12.224,12.454c-6.301,0.374-12.848-4.674-17.743-8.065
			c-11.103-7.694-22.522-14-34.771-19.743c-13.669-6.41-27.499-12.469-40.392-20.382
			C138.677,339.727,138.049,340.809,138.735,341.229L138.735,341.229z"/>
	</g>
	<g>
		<path fill="#070707" d="M254.306,354.498c-0.957-5.884-8.747-16.229-14.651-9.347c-2.709,3.158,0.951,8.147,3.232,10.222
			c3.041,2.765,7.151,2.418,10.153-0.072c4.347-3.607,5.848-9.433,10.651-12.824c2.292-1.619,4.823-1.315,5.181,1.739
			c0.29,2.483-1.08,4.959-2.703,6.705c-2.205,2.373-5.836,3.446-8.715,1.781c-0.816-0.472-1.828-0.812-2.743-0.373
			c-5.499,2.632-4.316,8.112-6.65,12.787c-0.359,0.719,0.719,1.353,1.079,0.631c1.515-3.033,2.271-15.095,8.199-11.667
			c2.77,1.602,5.959,0.479,8.424-1.182c3.289-2.213,6.538-8.833,2.814-12.063c-4.85-4.208-11.721,7.152-13.577,10.031
			c-1.725,2.674-3.74,5.139-7.168,5.244c-4.338,0.134-10.114-6.786-6.641-10.835c4.715-5.496,11.304,5.833,11.91,9.555
			C253.229,355.624,254.434,355.286,254.306,354.498L254.306,354.498z"/>
	</g>
	<g>
		<path fill="#070707" d="M254.351,354.776c3.193,1.142,5.633,3.414,8.228,5.51c0.62,0.501,1.511-0.378,0.884-0.885
			c-2.773-2.24-5.367-4.61-8.779-5.83C253.921,353.299,253.597,354.508,254.351,354.776L254.351,354.776z"/>
	</g>
	<g>
		<path fill="#070707" d="M155.826,337.17c-0.042,3.977-0.525,7.93-0.567,11.906c-0.008,0.807,1.242,0.806,1.25,0
			c0.042-3.977,0.525-7.93,0.567-11.906C157.084,336.363,155.834,336.364,155.826,337.17L155.826,337.17z"/>
	</g>
	<g>
		<path fill="#070707" d="M253.349,354.91c1.113,4.38,0.579,8.971,0.543,13.436c-0.008,0.807,1.242,0.806,1.25,0
			c0.037-4.583,0.557-9.271-0.588-13.768C254.356,353.797,253.15,354.129,253.349,354.91L253.349,354.91z"/>
	</g>
	<g>
		<path fill="#070707" d="M261.616,125.732c5.538,0.129,11.58-1.052,16.807,1.282c1.459,0.652,2.731-1.502,1.262-2.158
			c-5.745-2.566-11.976-1.482-18.068-1.624C260.003,123.194,260.007,125.694,261.616,125.732L261.616,125.732z"/>
	</g>
	<g>
		<path fill="#070707" d="M226.947,135.694c1.381,1.695,0.393,2.617-2.965,2.766c-0.902-0.645-1.468-1.5-1.698-2.566
			c-0.544-1.677-0.352-3.683-0.068-5.384c0.589-3.535,3.279-5.792,6.604-6.696c3.185-0.866,6.692,0.032,9.385,1.794
			c1.657,1.083,2.705,2.799,3.294,4.644c0.14,0.583,0.268,1.168,0.385,1.757c-1.085,1.012-2.17,2.023-3.255,3.035
			c-0.274-0.968-0.3-1.942-0.077-2.923c0.137-0.788-1.068-1.125-1.205-0.332c-0.335,1.936-0.282,5.707,2.509,5.707
			c3.603,0,3.536-4.37,3.042-6.73c-1.483-7.088-9.532-9.928-15.901-7.694c-5.229,1.834-9.064,10.885-4.811,15.456
			c4.517,4.853,8.917-3.66,4.761-4.083C226.146,134.363,226.153,135.613,226.947,135.694L226.947,135.694z"/>
	</g>
	<g>
		<path fill="#070707" d="M146.004,331.831c0.814,3.795-0.974,7.641-0.853,11.459c0.025,0.804,1.275,0.807,1.25,0
			c-0.125-3.944,1.654-7.851,0.808-11.791C147.041,330.711,145.835,331.045,146.004,331.831L146.004,331.831z"/>
	</g>
	<g>
		<path fill="#070707" d="M167.179,342.626c1.222,3.645-1.135,7.954-1.268,11.667c-0.029,0.807,1.221,0.804,1.25,0
			c0.137-3.838,2.502-8.186,1.223-11.999C168.129,341.533,166.922,341.859,167.179,342.626L167.179,342.626z"/>
	</g>
	<g>
		<path fill="#070707" d="M326.592,336.231c-0.107,6.971,1.174,13.846,1.869,20.76c0.08,0.794,1.331,0.802,1.25,0
			c-0.695-6.914-1.977-13.789-1.869-20.76C327.854,335.425,326.604,335.426,326.592,336.231L326.592,336.231z"/>
	</g>
	<g>
		<path fill="#070707" d="M337.265,331.98c1.32,2.253,0.815,5.745,1.063,8.293c0.32,3.293,0.071,6.562,0.742,9.826
			c0.162,0.789,1.367,0.454,1.205-0.332c-0.765-3.724-0.585-7.611-0.864-11.392c-0.17-2.311,0.15-4.948-1.066-7.026
			C337.938,330.654,336.856,331.283,337.265,331.98L337.265,331.98z"/>
	</g>
	<g>
		<path fill="#070707" d="M347.975,327.098c0.029,5.34,0.393,10.664,0.831,15.984c0.065,0.798,1.316,0.804,1.25,0
			c-0.438-5.32-0.802-10.645-0.831-15.984C349.22,326.292,347.97,326.291,347.975,327.098L347.975,327.098z"/>
	</g>
	<g>
		<path fill="#070707" d="M166.038,463.173c-1.688-3.998-6.272-11.181-3.945-15.562c0.378-0.711-0.701-1.343-1.079-0.631
			c-2.657,5.002,2.014,12.25,3.945,16.824C165.271,464.544,166.348,463.906,166.038,463.173L166.038,463.173z"/>
	</g>
	<g>
		<path fill="#070707" d="M186.03,477.646c-0.611-3.388-3.634-5.895-4.922-9.023c-1.478-3.589-4.688-11.043-1.259-14.242
			c0.59-0.552-0.295-1.434-0.884-0.885c-2.877,2.686-1.618,7.351-0.728,10.66c0.58,2.153,1.413,4.243,2.291,6.29
			c1.138,2.652,3.764,4.583,4.296,7.532C184.968,478.771,186.172,478.435,186.03,477.646L186.03,477.646z"/>
	</g>
	<g>
		<path fill="#070707" d="M316.962,473.561c2.393-5.451,4.041-11.913,1.931-17.712c-0.273-0.751-1.481-0.427-1.205,0.332
			c1.993,5.479,0.46,11.589-1.806,16.749C315.562,473.66,316.638,474.297,316.962,473.561L316.962,473.561z"/>
	</g>
	<g>
		<path fill="#070707" d="M338.407,461.785c1.524-4.693,2.035-10.292,0.623-15.071c-0.228-0.771-1.435-0.442-1.205,0.332
			c1.351,4.57,0.832,9.927-0.623,14.407C336.952,462.222,338.159,462.549,338.407,461.785L338.407,461.785z"/>
	</g>
	<g>
		<path fill="#070707" d="M212.108,485.368c-4.442-2.702-6.498-7.253-7.942-12.056c-0.506-1.682-3.204-9.76-1.192-10.738
			c0.725-0.353,0.091-1.431-0.631-1.08c-2.791,1.358-0.361,8.395,0.146,10.429c1.421,5.707,3.786,11.359,8.988,14.525
			C212.167,486.868,212.795,485.787,212.108,485.368L212.108,485.368z"/>
	</g>
	<g>
		<path fill="#070707" d="M291.261,481.736c3.224-0.969,4.654-4.75,5.906-7.549c1.729-3.863,1.711-8.623,0.136-12.526
			c-0.298-0.737-1.507-0.416-1.205,0.332c1.318,3.268,1.343,6.743,0.517,10.142c-0.654,2.688-2.879,7.553-5.686,8.396
			C290.158,480.763,290.487,481.969,291.261,481.736L291.261,481.736z"/>
	</g>
</g>
</svg>
