<?xml version="1.0" encoding="utf-8"?>
<!-- Generator: Adobe Illustrator 16.0.0, SVG Export Plug-In . SVG Version: 6.00 Build 0)  -->
<!DOCTYPE svg PUBLIC "-//W3C//DTD SVG 1.1//EN" "http://www.w3.org/Graphics/SVG/1.1/DTD/svg11.dtd">
<svg version="1.1" id="Layer_1" xmlns="http://www.w3.org/2000/svg" xmlns:xlink="http://www.w3.org/1999/xlink" x="0px" y="0px"
	 width="500px" height="550px" viewBox="0 0 500 550" enable-background="new 0 0 500 550" xml:space="preserve">
<g>
	<g>
		<path fill="#070707" d="M169.163,152.586c-14.181,13.019-24.273,29.105-30.012,47.464c-5.713,18.28-6.684,37.794-6.279,56.814
			c0.527,24.797,2.222,49.574,2.812,74.377c0.625,26.277,0.582,52.573-0.505,78.838c-0.067,1.612,2.434,1.606,2.5,0
			c2.029-49.037-0.008-97.985-2.104-146.979c-0.834-19.49-0.153-39.209,4.782-58.17c5.101-19.598,15.679-36.902,30.574-50.577
			C172.12,153.262,170.348,151.499,169.163,152.586L169.163,152.586z"/>
	</g>
	<g>
		<path fill="#070707" d="M278.624,129.672c-22.941-1.779-45.774,1.817-68.441,4.935c-1.591,0.219-0.911,2.628,0.665,2.411
			c22.448-3.088,45.056-6.607,67.776-4.846C280.232,132.296,280.221,129.795,278.624,129.672L278.624,129.672z"/>
	</g>
	<g>
		<path fill="#070707" d="M348.968,171.228c-5.595-10.151-13.498-18.426-22.951-25.074c-1.322-0.93-2.569,1.239-1.262,2.159
			c9.106,6.404,16.667,14.401,22.055,24.177C347.588,173.901,349.747,172.64,348.968,171.228L348.968,171.228z"/>
	</g>
	<g>
		<path fill="#070707" d="M185.228,494.94c19.617,12.097,44.548,12.005,66.755,10.163c11.448-0.949,22.824-2.702,34.141-4.639
			c11.957-2.046,25.254-3.037,35.73-9.628c1.36-0.855,0.107-3.02-1.262-2.158c-10.244,6.445-23.432,7.354-35.133,9.376
			c-11.103,1.917-22.251,3.555-33.477,4.549c-21.716,1.924-46.322,2-65.494-9.821C185.113,491.934,183.859,494.097,185.228,494.94
			L185.228,494.94z"/>
	</g>
	<g>
		<path fill="#070707" d="M211.839,136.875c1.612,0,1.612-2.5,0-2.5S210.227,136.875,211.839,136.875L211.839,136.875z"/>
	</g>
	<g>
		<path fill="#070707" d="M138.92,201.54c-14.487-3.488-23.892-15.78-18.282-30.573c2.46-6.486,7.892-11.402,14.057-14.288
			c7.797-3.65,21.903-4.741,28.304,1.831c1.126,1.157,2.893-0.613,1.768-1.768c-6.759-6.94-19.588-6.133-28.153-3.465
			c-7.642,2.381-13.998,7.986-17.551,15.106c-3.109,6.23-3.68,14.033-0.865,20.472c3.655,8.36,11.453,13.023,20.057,15.095
			C139.822,204.328,140.487,201.917,138.92,201.54L138.92,201.54z"/>
	</g>
	<g>
		<path fill="#070707" d="M332.897,153.112c12.422-6.378,31.636-9.507,40.731,3.666c9.303,13.473,3.703,35.509-13.664,38.488
			c-1.587,0.272-0.912,2.681,0.664,2.411c18.638-3.198,23.85-24.836,16.452-39.945c-8.346-17.043-31.38-14.001-45.445-6.778
			C330.201,151.69,331.466,153.848,332.897,153.112L332.897,153.112z"/>
	</g>
	<g>
		<path fill="#070707" d="M234.566,221.002c0.35-0.053,0.7-0.106,1.05-0.16c-0.105-0.388-0.21-0.776-0.315-1.165
			c-1.345,0.71-2.844,0.609-4.162,1.404c-2.365,1.426-4.527,3.179-6.552,5.048c-2.783,2.57-6.649,7.183-5.488,11.352
			c1.279,4.592,6.617,7.596,11.178,7.914c7.827,0.547,14.876-3.538,22.604-3.904c9.002-0.426,23.508,9.824,26.469-4.748
			c2.073-10.208-12.129-16.271-19.49-18.997c-0.758-0.281-1.081,0.928-0.332,1.205c7.7,2.851,20.466,8.357,18.388,18.584
			c-2.336,11.5-17.817,2.941-25.034,2.706c-10.155-0.331-24.395,10.237-32.005-1.503c-3.069-4.735,3.248-10.613,6.378-13.316
			c1.259-1.087,3.892-3.551,5.685-3.793c0.972-0.132,2.119-0.41,2.994-0.871c0.543-0.287,0.303-1.196-0.315-1.165
			c-0.491,0.025-0.863,0.11-1.382,0.205C233.441,219.941,233.778,221.146,234.566,221.002L234.566,221.002z"/>
	</g>
	<g>
		<path fill="#070707" d="M263.192,243.806c1.553,3.931,1.959,8.279,1.818,12.474c-0.089,2.679-0.631,5.615-2.481,7.66
			c-3.403,3.763-12.12,1.372-11.122-4.408c0.136-0.788-1.068-1.125-1.205-0.332c-1.276,7.39,8.471,9.578,13.211,5.624
			c5.131-4.28,3.061-16.094,0.984-21.35C264.104,242.733,262.896,243.056,263.192,243.806L263.192,243.806z"/>
	</g>
	<g>
		<path fill="#070707" d="M162.93,480.954c10.498-5.31,16.056,8.016,23.297,12.991c0.05-0.381,0.1-0.762,0.149-1.143
			c-5.796,0.892-10.525,4.736-15.07,8.177c-5.193,3.933-11.884,9.727-18.792,6.745c-8.92-3.849-6.624-12.488-1.231-17.95
			c4.232-4.287,9.721-7.479,15.062-10.183c0.719-0.364,0.086-1.442-0.631-1.08c-7.463,3.777-28.134,15.664-18.542,26.453
			c12.95,14.565,26.519-8.954,39.535-10.957c0.586-0.09,0.542-0.872,0.149-1.143c-7.865-5.403-13.192-18.738-24.559-12.991
			C161.58,480.238,162.213,481.316,162.93,480.954L162.93,480.954z"/>
	</g>
	<g>
		<path fill="#070707" d="M150.911,506.124c-1.755-6.17,2.826-10.975,7.918-13.655c0.713-0.376,0.082-1.455-0.631-1.08
			c-5.614,2.956-10.398,8.369-8.492,15.067C149.926,507.23,151.132,506.9,150.911,506.124L150.911,506.124z"/>
	</g>
	<g>
		<path fill="#070707" d="M338.998,477.713c7.27,0.468,12.624,5.635,15.792,11.859c2.519,4.947,4.119,12.691-0.352,17.023
			c-2.544,2.465-6.687,2.02-9.808,1.337c-5.706-1.249-9.703-5.902-13.406-10.063c-1.105-1.242-9.742-8.453-8.778-10.106
			C325.53,482.471,333.141,477.933,338.998,477.713c0.804-0.03,0.807-1.28,0-1.25c-6.646,0.249-11.668,4.365-16.158,8.899
			c-4.275,4.317-0.566,5.479,2.899,8.546c6.992,6.185,15.728,20.358,27.3,15.011c6.716-3.103,5.988-11.649,3.897-17.5
			c-2.772-7.762-9.454-14.409-17.938-14.956C338.192,476.411,338.198,477.661,338.998,477.713z"/>
	</g>
	<g>
		<path fill="#070707" d="M344.708,492.57c3.985,4.133,7.139,9.416,7.338,15.281c0.027,0.804,1.277,0.807,1.25,0
			c-0.211-6.201-3.481-11.786-7.703-16.166C345.032,491.104,344.149,491.989,344.708,492.57L344.708,492.57z"/>
	</g>
	<g>
		<path fill="#070707" d="M367.711,314.686c6.022-0.334,11.895,1.073,16.947,4.408c5.083,3.355,9.058,11.284,5.864,17.137
			c-4.366,8.001-18.957-1.981-22.369-6.205c-0.507-0.627-1.386,0.264-0.885,0.885c4.432,5.482,19.543,14.729,24.653,5.363
			c2.787-5.106-0.359-12.143-3.879-15.953c-4.96-5.37-13.302-7.274-20.332-6.885C366.909,313.48,366.905,314.73,367.711,314.686
			L367.711,314.686z"/>
	</g>
	<g>
		<path fill="#070707" d="M380.532,329.703c3.983,1.229,8.879,4.622,6.467,9.339c-0.366,0.716,0.713,1.349,1.08,0.631
			c2.809-5.493-2.357-9.677-7.215-11.175C380.092,328.26,379.765,329.467,380.532,329.703L380.532,329.703z"/>
	</g>
	<circle fill="none" stroke="#070707" stroke-width="1.5" stroke-miterlimit="10" cx="293.482" cy="184.093" r="35.55"/>
	<path fill="none" stroke="#070707" stroke-width="1.5" stroke-miterlimit="10" d="M239.497,187.867
		c0-19.635-15.916-35.551-35.55-35.551c-19.637,0-35.55,15.917-35.55,35.551c0,19.636,15.913,35.551,35.55,35.551
		C223.582,223.418,239.497,207.503,239.497,187.867z"/>
	<circle fill="#070707" cx="354.038" cy="170.022" r="7.52"/>
	<circle fill="#070707" cx="143.561" cy="176.757" r="7.521"/>
	<path fill="#070707" d="M264.843,216.901c0-4.865-7.118-8.811-15.902-8.811c-8.786,0-15.909,3.946-15.909,8.811
		c0,4.863,7.123,8.81,15.909,8.81C257.725,225.711,264.843,221.765,264.843,216.901z"/>
	<path fill="#070707" d="M310.146,174.596c-6.416,0-11.62,5.201-11.62,11.62s5.204,11.623,11.62,11.623
		c6.423,0,11.627-5.204,11.627-11.623S316.568,174.596,310.146,174.596z M314.823,193.608c-1.813,0-3.285-1.474-3.285-3.292
		c0-1.817,1.472-3.29,3.285-3.29c1.82,0,3.296,1.473,3.296,3.29C318.119,192.135,316.644,193.608,314.823,193.608z"/>
	<path fill="#070707" d="M219.951,177.363c-6.417,0-11.62,5.205-11.62,11.622c0,6.419,5.202,11.623,11.62,11.623
		c6.422,0,11.626-5.204,11.626-11.623C231.577,182.567,226.373,177.363,219.951,177.363z M224.635,196.376
		c-1.82,0-3.292-1.472-3.292-3.29c0-1.817,1.471-3.289,3.292-3.289c1.815,0,3.29,1.472,3.29,3.289
		C227.924,194.904,226.45,196.376,224.635,196.376z"/>
	<g>
		<path fill="#070707" d="M249.717,241.645c0.077,7.061,1.958,15.887-2.01,22.216c-1.551,2.473-4.441,2.54-6.983,1.969
			c-3.113-0.7-4.465-3.822-5.185-6.583c-1.218-4.672-0.518-10.188,0.829-14.754c0.229-0.775-0.978-1.104-1.205-0.332
			c-2.312,7.836-2.917,25.542,9.897,23.048c9.111-1.773,5.973-19.49,5.907-25.565C250.958,240.839,249.708,240.838,249.717,241.645
			L249.717,241.645z"/>
	</g>
	<g>
		<path fill="#070707" d="M138.332,317.39c-8.149-1.431-16.517,2.425-22.469,7.853c-4.222,3.851-6.377,9.675-0.523,12.924
			c0.706,0.391,1.335-0.688,0.631-1.08c-7.262-4.029,0.132-10.808,4.24-13.686c5.104-3.576,11.537-5.903,17.79-4.806
			C138.788,318.733,139.125,317.528,138.332,317.39L138.332,317.39z"/>
	</g>
	<g>
		<path fill="#070707" d="M121.495,332.193c-2.25,1.054-5.512,3.265-5.518,6.128c-0.005,2.593,2.417,4.442,4.894,4.715
			c3.122,0.344,6.296-1.556,8.858-3.098c2.68-1.613,5.586-3.617,7.56-6.081c0.499-0.623-0.38-1.514-0.884-0.885
			c-2.68,3.346-6.84,5.878-10.659,7.703c-2.656,1.27-5.247,1.709-7.715-0.311c-3.105-2.54,2.159-6.187,4.094-7.092
			C122.855,332.932,122.22,331.854,121.495,332.193L121.495,332.193z"/>
	</g>
	<g>
		<path fill="#070707" d="M344.966,168.458c21.736,31.799,18.63,71.621,18.494,108.269c-0.169,45.411,6.555,90.644,3.446,136.074
			c-0.11,1.61,2.391,1.6,2.5,0c3.152-46.067-3.61-91.989-3.439-138.047c0.136-36.508,2.788-75.914-18.843-107.558
			C346.221,165.875,344.053,167.124,344.966,168.458L344.966,168.458z"/>
	</g>
	<g>
		<path fill="none" stroke="#070707" stroke-width="1.5" stroke-miterlimit="10" d="M254.788,97.986
			c7.455-7.451,7.449-19.53,0-26.982c-7.449-7.453-19.53-7.453-26.981-0.003c-7.455,7.455-7.455,19.537,0,26.988
			C235.257,105.441,247.339,105.441,254.788,97.986z"/>
		<g>
			<path fill="#070707" d="M220.454,87.866c0.29,0.213,0.58,0.427,0.871,0.64c0.203-0.348,0.405-0.696,0.608-1.044
				c-1.728-0.533-2.838-1.708-4.657-2.121c-2.579-0.583-5.23-0.849-7.869-0.924c-3.752-0.106-9.346,0.446-11.592,4.001
				c-2.502,3.959-0.952,9.729,1.776,13.223c4.369,5.594,11.269,7.977,16.957,11.913c8.024,5.553,9.824,23.048,22.419,18.718
				c11.665-4.009,5.232-21.3,1.834-28.693c-0.336-0.732-1.413-0.096-1.079,0.631c3.708,8.068,9.899,27.361-5.169,27.659
				c-4.914,0.098-7.547-6.101-9.465-9.692c-1.811-3.39-3.857-6.641-6.973-8.995c-3.932-2.97-8.439-5.008-12.552-7.701
				c-4.78-3.13-10.888-11.282-6.293-16.883c2.657-3.238,8.38-3.059,12.118-2.847c2.167,0.123,4.313,0.514,6.428,0.992
				c1.396,0.316,2.425,1.503,3.785,1.923c0.588,0.181,1.073-0.624,0.608-1.045c-0.368-0.333-0.681-0.529-1.124-0.835
				C220.42,86.326,219.796,87.41,220.454,87.866L220.454,87.866z"/>
		</g>
		<g>
			<path fill="#070707" d="M242.697,105.752c0.234-0.347,0.507-0.658,0.819-0.933c-0.348-0.203-0.696-0.405-1.044-0.608
				c-0.672,1.658-1.929,2.647-2.489,4.411c-0.778,2.451-1.246,4.986-1.554,7.535c-0.503,4.167-0.248,9.187,3.07,12.182
				c3.495,3.155,9.597,1.261,13.156-0.668c6.051-3.279,9.112-10.784,13.311-15.875c6.262-7.596,23.86-7.94,20.593-20.901
				c-2.993-11.873-20.753-6.961-28.328-4.222c-0.752,0.272-0.428,1.48,0.332,1.205c8.501-3.073,26.583-7.621,27.295,6.523
				c0.276,5.495-6.519,7.811-10.559,9.55c-3.968,1.708-7.311,3.72-10.218,6.961c-3.562,3.972-5.924,8.857-9.537,12.807
				c-3.679,4.022-12.559,7.849-16.504,2.228c-2.533-3.609-1.567-9.436-0.772-13.419c0.644-3.227,2.253-5.126,3.41-7.982
				c0.25-0.618-0.626-0.999-1.044-0.608c-0.312,0.274-0.585,0.585-0.819,0.933C241.305,105.485,242.184,106.375,242.697,105.752
				L242.697,105.752z"/>
		</g>
		<g>
			<path fill="#070707" d="M260.982,80.971c-0.29-0.214-0.581-0.427-0.872-0.641c-0.203,0.348-0.405,0.696-0.607,1.044
				c1.729,0.535,2.837,1.709,4.656,2.122c2.579,0.583,5.23,0.849,7.869,0.923c3.751,0.106,9.345-0.447,11.589-4.001
				c2.501-3.96,0.95-9.73-1.777-13.223c-4.367-5.595-11.267-7.977-16.954-11.913c-8.018-5.55-9.826-23.048-22.414-18.717
				c-11.667,4.014-5.237,21.296-1.837,28.695c0.336,0.732,1.413,0.096,1.079-0.631c-3.708-8.068-9.9-27.362,5.17-27.661
				c4.912-0.098,7.545,6.104,9.461,9.692c1.811,3.39,3.859,6.639,6.975,8.993c3.931,2.971,8.438,5.009,12.551,7.703
				c4.779,3.13,10.884,11.282,6.292,16.882c-2.655,3.239-8.378,3.06-12.114,2.848c-2.168-0.123-4.314-0.514-6.428-0.992
				c-1.396-0.316-2.426-1.503-3.785-1.924c-0.588-0.182-1.074,0.625-0.608,1.045c0.368,0.333,0.682,0.529,1.125,0.836
				C261.017,82.51,261.64,81.426,260.982,80.971L260.982,80.971z"/>
		</g>
		<g>
			<path fill="#070707" d="M238.173,64.584c-0.213,0.291-0.426,0.581-0.64,0.872c0.348,0.203,0.697,0.405,1.045,0.608
				c0.534-1.727,1.708-2.835,2.12-4.654c0.584-2.579,0.85-5.231,0.924-7.87c0.106-3.752-0.446-9.346-4.001-11.592
				c-3.96-2.502-9.729-0.951-13.222,1.777c-5.594,4.369-7.977,11.268-11.913,16.955c-5.552,8.022-23.048,9.823-18.721,22.416
				c4.009,11.668,21.303,5.234,28.695,1.832c0.731-0.336,0.096-1.414-0.631-1.079c-8.066,3.711-27.365,9.905-27.66-5.167
				c-0.097-4.913,6.104-7.544,9.694-9.461c3.39-1.811,6.64-3.857,8.994-6.973c2.97-3.931,5.008-8.438,7.701-12.55
				c3.13-4.78,11.28-10.889,16.881-6.294c3.239,2.657,3.06,8.381,2.848,12.119c-0.123,2.168-0.514,4.314-0.993,6.429
				c-0.316,1.396-1.502,2.423-1.923,3.782c-0.182,0.588,0.625,1.074,1.045,0.608c0.333-0.369,0.528-0.682,0.834-1.125
				C239.712,64.55,238.628,63.926,238.173,64.584L238.173,64.584z"/>
		</g>
		<path fill="none" stroke="#070707" stroke-width="1.5" stroke-miterlimit="10" d="M256.653,92.845
			c4.652-4.647,4.646-12.185,0-16.833c-4.648-4.647-12.188-4.647-16.834-0.002c-4.651,4.651-4.651,12.191,0,16.837
			C244.465,97.496,252.005,97.496,256.653,92.845z"/>
		<path fill="#070707" d="M259.972,84.498c0-4.152-3.366-7.52-7.518-7.52c-4.156,0-7.523,3.368-7.523,7.52
			c0,4.155,3.367,7.52,7.523,7.52C256.605,92.018,259.972,88.653,259.972,84.498z"/>
		<g>
			<path fill="#070707" d="M227.297,98.541c-2.247,2.011-4.531,3.94-6.342,6.373c-0.482,0.647,0.604,1.27,1.079,0.631
				c1.741-2.338,3.989-4.188,6.147-6.12C228.783,98.886,227.896,98.005,227.297,98.541L227.297,98.541z"/>
		</g>
		<g>
			<path fill="#070707" d="M228.402,69.314c-2.311-2.368-5.668-2.814-8.752-3.507c-0.785-0.176-1.119,1.029-0.332,1.205
				c2.847,0.639,6.063,0.997,8.201,3.186C228.083,70.775,228.965,69.891,228.402,69.314L228.402,69.314z"/>
		</g>
		<g>
			<path fill="#070707" d="M255.114,69.251c0.27-1.802,1.057-3.409,1.944-4.981c0.397-0.703-0.683-1.333-1.079-0.631
				c-0.936,1.657-1.787,3.379-2.07,5.28C253.792,69.708,254.997,70.047,255.114,69.251L255.114,69.251z"/>
		</g>
		<g>
			<path fill="#070707" d="M256.165,71.188c1.537-1.075,3.235-1.846,4.91-2.677c0.723-0.358,0.089-1.436-0.631-1.079
				c-1.675,0.831-3.373,1.602-4.91,2.677C254.879,70.566,255.503,71.651,256.165,71.188L256.165,71.188z"/>
		</g>
		<g>
			<path fill="#070707" d="M256.128,98.466c2.148,0.708,3.632,2.431,5.078,4.079c0.533,0.607,1.413-0.281,0.884-0.884
				c-1.606-1.83-3.255-3.619-5.63-4.4C255.692,97.008,255.366,98.215,256.128,98.466L256.128,98.466z"/>
		</g>
		<g>
			<path fill="#070707" d="M253.238,100.488c0.382,1.615,0.45,3.267,0.671,4.907c0.107,0.796,1.312,0.456,1.205-0.332
				c-0.221-1.643-0.288-3.288-0.671-4.907C254.259,99.371,253.053,99.704,253.238,100.488L253.238,100.488z"/>
		</g>
		<g>
			<path fill="#070707" d="M229.431,100.896c-0.678,0.914-1.271,1.887-1.786,2.901c-0.364,0.717,0.714,1.35,1.079,0.631
				c0.515-1.014,1.108-1.987,1.786-2.901C230.991,100.879,229.905,100.257,229.431,100.896L229.431,100.896z"/>
		</g>
		<g>
			<path fill="#070707" d="M230.349,67.358c-0.239-1.122-0.724-2.129-1.402-3.05c-0.473-0.642-1.558-0.019-1.079,0.631
				c0.621,0.843,1.057,1.724,1.276,2.751C229.312,68.478,230.517,68.144,230.349,67.358L230.349,67.358z"/>
		</g>
	</g>
	<g>
		<path fill="none" stroke="#070707" stroke-width="1.5" stroke-miterlimit="10" d="M182.036,131.747
			c7.792-3.003,11.325-11.617,7.899-19.231c-3.431-7.617-12.527-11.353-20.322-8.348c-7.793,3.007-11.331,11.62-7.898,19.234
			C165.141,131.017,174.238,134.755,182.036,131.747z"/>
		<g>
			<path fill="#070707" d="M158.998,113.944c0.151,0.227,0.302,0.454,0.454,0.681c0.348-0.203,0.696-0.405,1.044-0.608
				c-4.347-4.263-11.993-9.979-18.527-6.882c-3.412,1.617-3.312,6.796-2.784,9.834c1.014,5.838,7.05,10.34,10.003,15.133
				c4.095,6.644,0.426,20.091,12.037,19.253c8.972-0.647,9.155-13.467,8.762-19.891c-0.049-0.801-1.299-0.806-1.25,0
				c0.413,6.75,0.356,18.074-8.607,18.72c-8.795,0.634-6.598-12.478-9.298-17.635c-1.644-3.141-3.972-5.751-6.21-8.474
				c-3.118-3.793-7.644-12.016-2.022-15.861c5.219-3.57,13.59,3.33,17.013,6.687c0.421,0.413,1.271,0.003,1.044-0.608
				c-0.149-0.404-0.285-0.546-0.58-0.979C159.627,112.651,158.543,113.276,158.998,113.944L158.998,113.944z"/>
		</g>
		<g>
			<path fill="#070707" d="M170.765,133.63c-0.071-0.377-0.143-0.754-0.214-1.132c-0.443,0.288-0.896,0.558-1.359,0.812
				c-0.757,0.433-1.186,0.985-1.764,1.668c-1.309,1.548-2.403,3.264-3.371,5.04c-1.616,2.967-2.589,6.59-0.814,9.673
				c1.705,2.963,6.901,3.819,9.92,3.312c6.813-1.143,11.573-6.649,18.147-8.4c5.619-1.496,19.956,1.822,18.295-8.761
				c-1.389-8.852-13.006-10.181-20.214-10.622c-0.806-0.049-0.801,1.201,0,1.25c6.402,0.392,16.701,1.362,18.854,8.712
				c2.886,9.858-12.211,6.983-17.267,8.215c-8.694,2.119-15.211,11.824-24.96,7.139c-7.504-3.606,1.954-14.703,5.591-17.261
				c0.363-0.256,0.444-0.842,0-1.08c-0.532-0.285-0.98,0.11-1.475,0.353C169.41,132.906,170.044,133.983,170.765,133.63
				L170.765,133.63z"/>
		</g>
		<g>
			<path fill="#070707" d="M191.823,121.507c-0.152-0.228-0.304-0.455-0.456-0.683c-0.348,0.203-0.696,0.406-1.044,0.608
				c4.34,4.267,11.996,9.978,18.525,6.882c3.412-1.618,3.311-6.797,2.785-9.835c-1.012-5.839-7.05-10.342-10.003-15.135
				c-4.095-6.646-0.429-20.084-12.037-19.25c-8.978,0.645-9.159,13.471-8.765,19.892c0.049,0.801,1.299,0.806,1.25,0
				c-0.415-6.758-0.349-18.077,8.611-18.72c8.788-0.631,6.598,12.474,9.297,17.632c1.644,3.141,3.972,5.751,6.21,8.475
				c3.118,3.794,7.641,12.018,2.021,15.863c-5.215,3.568-13.593-3.326-17.011-6.687c-0.42-0.413-1.274-0.002-1.044,0.608
				c0.152,0.404,0.286,0.546,0.582,0.981C191.195,122.8,192.278,122.175,191.823,121.507L191.823,121.507z"/>
		</g>
		<g>
			<path fill="#070707" d="M179.299,102.654c0.285,0.23,0.569,0.461,0.854,0.691c0.342-0.262,0.702-0.494,1.081-0.698
				c0.519-0.299,0.911-1.152,1.24-1.618c1.111-1.574,2.094-3.323,2.81-5.113c1.298-3.245,2.221-7.005-0.064-10.018
				c-1.99-2.623-6.909-3.136-9.841-2.438c-5.991,1.425-10.095,6.181-15.358,9.051c-6.284,3.427-20.915-0.485-19.577,10.874
				c1.049,8.909,14.411,9.329,20.99,9.199c0.805-0.016,0.807-1.266,0-1.25c-6.815,0.135-18.823-0.159-19.864-9.006
				c-0.99-8.406,13.074-5.999,17.982-8.235c3.502-1.597,6.399-4.09,9.506-6.316c4.055-2.905,11.811-5.561,15.543-0.642
				c3.683,4.854-2.74,13.098-6.236,16.037c-0.287,0.241-0.229,0.828,0.126,0.982c0.591,0.256,0.884-0.087,1.438-0.421
				C180.62,103.319,179.992,102.238,179.299,102.654L179.299,102.654z"/>
		</g>
		<path fill="none" stroke="#070707" stroke-width="1.5" stroke-miterlimit="10" d="M184.939,128.658
			c4.864-1.872,7.069-7.246,4.93-11.996c-2.139-4.752-7.815-7.085-12.675-5.207c-4.863,1.875-7.068,7.25-4.931,11.999
			C174.402,128.205,180.08,130.534,184.939,128.658z"/>
		
			<ellipse transform="matrix(0.925 0.3801 -0.3801 0.925 59.969 -60.9058)" fill="#070707" cx="184.221" cy="121.411" rx="6.124" ry="5.793"/>
		<g>
			<path fill="#070707" d="M161.209,123.486c-2.285,0.736-4.579,1.408-6.686,2.584c-0.704,0.393-0.074,1.473,0.631,1.079
				c2.013-1.124,4.205-1.754,6.387-2.458C162.305,124.445,161.978,123.238,161.209,123.486L161.209,123.486z"/>
		</g>
		<g>
			<path fill="#070707" d="M170.636,103.012c-1.039-2.443-3.538-3.801-5.629-5.229c-0.667-0.456-1.292,0.627-0.631,1.079
				c1.926,1.316,4.224,2.532,5.181,4.781C169.872,104.383,170.948,103.745,170.636,103.012L170.636,103.012z"/>
		</g>
		<g>
			<path fill="#070707" d="M190.822,111.377c0.689-1.147,1.731-2.018,2.792-2.811c0.638-0.476,0.016-1.562-0.631-1.079
				c-1.237,0.924-2.435,1.919-3.24,3.259C189.327,111.439,190.408,112.067,190.822,111.377L190.822,111.377z"/>
		</g>
		<g>
			<path fill="#070707" d="M191.002,113.192c1.424-0.276,2.869-0.296,4.313-0.367c0.802-0.039,0.806-1.289,0-1.25
				c-1.558,0.076-3.11,0.113-4.646,0.412C189.879,112.14,190.215,113.345,191.002,113.192L191.002,113.192z"/>
		</g>
		<g>
			<path fill="#070707" d="M182.76,132.569c1.384,1.148,2.018,2.758,2.629,4.4c0.278,0.749,1.487,0.425,1.205-0.332
				c-0.682-1.833-1.405-3.67-2.951-4.952C183.028,131.175,182.139,132.054,182.76,132.569L182.76,132.569z"/>
		</g>
		<g>
			<path fill="#070707" d="M180.031,132.95c-0.185,1.27-0.62,2.467-0.932,3.707c-0.197,0.782,1.008,1.113,1.205,0.332
				c0.313-1.24,0.748-2.437,0.932-3.707C181.351,132.494,180.146,132.155,180.031,132.95L180.031,132.95z"/>
		</g>
		<g>
			<path fill="#070707" d="M162.085,125.83c-0.821,0.467-1.592,1.012-2.322,1.61c-0.624,0.511,0.266,1.39,0.884,0.884
				c0.647-0.53,1.342-1.001,2.069-1.415C163.417,126.511,162.787,125.431,162.085,125.83L162.085,125.83z"/>
		</g>
		<g>
			<path fill="#070707" d="M172.694,102.454c0.16-0.96,0.1-1.874-0.155-2.812c-0.21-0.777-1.417-0.447-1.205,0.332
				c0.192,0.71,0.277,1.417,0.155,2.148C171.358,102.91,172.562,103.248,172.694,102.454L172.694,102.454z"/>
		</g>
	</g>
	<g>
		<path fill="none" stroke="#070707" stroke-width="1.5" stroke-miterlimit="10" d="M326.116,121.376
			c4.183-7.229,1.534-16.153-5.913-19.933c-7.448-3.777-16.877-0.981-21.062,6.247c-4.188,7.231-1.536,16.157,5.913,19.936
			C312.503,131.405,321.929,128.608,326.116,121.376z"/>
		<g>
			<path fill="#070707" d="M297.064,121.982c0.258,0.086,0.517,0.173,0.774,0.259c0.105-0.388,0.21-0.776,0.315-1.165
				c-5.409-0.533-15.92-0.422-18.505,5.89c-4.029,9.842,11.528,12.896,17.506,14.219c6.027,1.334,9.243,5.171,13.753,8.902
				c2.899,2.399,5.934,2.815,9.277,1.173c9.97-4.896,0.921-17.538-3.674-22.598c-0.543-0.598-1.425,0.289-0.885,0.884
				c2.398,2.641,4.522,5.431,6.185,8.595c2.802,5.333,0.972,14.268-6.822,12.79c-3.173-0.602-5.796-4.099-8.047-6.192
				c-2.027-1.884-4.373-3.163-6.971-4.083c-3.301-1.169-6.897-1.516-10.283-2.389c-4.541-1.171-12.469-6.683-8.036-12.029
				c3.7-4.462,11.432-4.411,16.502-3.912c0.645,0.063,0.817-0.867,0.315-1.165c-0.346-0.205-0.654-0.257-1.073-0.385
				C296.623,120.542,296.295,121.749,297.064,121.982L297.064,121.982z"/>
		</g>
		<g>
			<path fill="#070707" d="M318.479,130.002c-0.285-0.261-0.569-0.521-0.854-0.782c-0.195,0.613-0.431,1.209-0.707,1.791
				c-0.282,0.583-0.141,1.49-0.155,2.111c-0.049,2.03,0.193,4.052,0.555,6.045c0.498,2.746,1.87,6.59,4.747,7.708
				c9.778,3.802,14.252-9.982,16.654-16.391c2.18-5.814,6.919-8.519,11.133-12.637c2.26-2.208,3.54-5.558,1.8-8.502
				c-5.467-9.255-17.54-2.164-23.826,2.282c-0.652,0.461-0.029,1.546,0.631,1.079c5.221-3.691,21.869-12.976,22.766-0.124
				c0.252,3.611-4.764,6.621-7.161,8.564c-2.328,1.888-4.128,4.013-5.531,6.667c-3.297,6.23-5.104,20.325-15.405,18.141
				c-6.179-1.31-5.376-12.647-4.149-16.902c0.143-0.492-0.317-0.849-0.769-0.769c-0.505,0.09-0.628,0.705-0.808,1.089
				C317.061,130.097,318.138,130.732,318.479,130.002L318.479,130.002z"/>
		</g>
		<g>
			<path fill="#070707" d="M327.257,107.243c-0.26-0.087-0.52-0.174-0.779-0.261c-0.104,0.388-0.21,0.776-0.315,1.165
				c5.408,0.533,15.922,0.424,18.504-5.89c4.024-9.842-11.529-12.896-17.507-14.22c-6.026-1.335-9.244-5.17-13.754-8.901
				c-2.898-2.398-5.932-2.816-9.275-1.173c-9.97,4.898-0.921,17.54,3.675,22.6c0.544,0.598,1.425-0.289,0.885-0.884
				c-2.399-2.641-4.523-5.431-6.185-8.595c-2.802-5.331-0.974-14.271,6.819-12.792c3.173,0.603,5.797,4.1,8.048,6.192
				c2.027,1.883,4.374,3.162,6.971,4.082c3.301,1.169,6.896,1.516,10.282,2.39c4.539,1.172,12.469,6.683,8.039,12.029
				c-3.699,4.464-11.432,4.412-16.502,3.912c-0.644-0.063-0.818,0.868-0.315,1.165c0.349,0.206,0.656,0.258,1.078,0.387
				C327.698,108.684,328.026,107.477,327.257,107.243L327.257,107.243z"/>
		</g>
		<g>
			<path fill="#070707" d="M305.716,100.492c0.312,0.219,0.626,0.438,0.938,0.657c0.121-0.512,0.261-1.018,0.42-1.52
				c0.242-0.821,0.208-0.46,0.171-1.547c-0.07-2.078-0.446-4.144-0.936-6.158c-0.688-2.83-2.309-6.853-5.349-7.913
				c-10.53-3.672-13.744,11.799-15.737,18.363c-1.734,5.712-6.476,8.624-10.055,13.002c-2.446,2.994-2.204,6.154-0.049,9.18
				c5.711,8.017,18.045-1.099,22.979-5.224c0.619-0.518-0.271-1.397-0.885-0.884c-2.71,2.266-5.544,4.274-8.675,5.915
				c-4.834,2.534-13.043,3.194-13.983-4.165c-0.439-3.436,3.987-6.649,6.179-8.731c1.94-1.843,3.771-3.946,4.81-6.448
				c3.08-7.416,2.769-17.295,12.014-20.072c7.791-2.34,8.646,12.024,7.792,16.378c-0.09,0.458,0.282,0.902,0.769,0.769
				c0.562-0.154,0.627-0.793,0.803-1.271C307.2,100.066,305.992,99.742,305.716,100.492L305.716,100.492z"/>
		</g>
		<path fill="none" stroke="#070707" stroke-width="1.5" stroke-miterlimit="10" d="M326.443,117.147
			c2.605-4.51,0.959-10.076-3.693-12.435c-4.642-2.358-10.526-0.611-13.136,3.895c-2.612,4.514-0.963,10.083,3.689,12.438
			C317.944,123.404,323.833,121.659,326.443,117.147z"/>
		<path fill="#070707" d="M327.205,110.213c-0.914-3.069-4.276-4.774-7.519-3.813c-3.243,0.96-5.132,4.227-4.221,7.295
			c0.909,3.069,4.272,4.777,7.514,3.813C326.225,116.548,328.111,113.282,327.205,110.213z"/>
		<g>
			<path fill="#070707" d="M304.677,128.059c-1.313,2.012-2.665,3.969-3.566,6.21c-0.301,0.748,0.908,1.07,1.205,0.332
				c0.857-2.131,2.192-4,3.441-5.912C306.198,128.012,305.116,127.387,304.677,128.059L304.677,128.059z"/>
		</g>
		<g>
			<path fill="#070707" d="M299.302,106.194c-2.4-1.234-5.078-0.802-7.663-0.595c-0.798,0.064-0.804,1.314,0,1.25
				c2.311-0.185,4.878-0.683,7.032,0.424C299.387,107.641,300.019,106.562,299.302,106.194L299.302,106.194z"/>
		</g>
		<g>
			<path fill="#070707" d="M320.188,100.095c-0.179-1.395,0.076-2.743,0.42-4.092c0.199-0.781-1.006-1.113-1.205-0.332
				c-0.369,1.447-0.657,2.929-0.465,4.424C319.039,100.883,320.29,100.893,320.188,100.095L320.188,100.095z"/>
		</g>
		<g>
			<path fill="#070707" d="M321.394,101.378c0.965-1.158,2.12-2.115,3.243-3.113c0.604-0.537-0.284-1.417-0.885-0.884
				c-1.122,0.998-2.277,1.956-3.243,3.113C319.997,101.108,320.876,101.998,321.394,101.378L321.394,101.378z"/>
		</g>
		<g>
			<path fill="#070707" d="M327.266,121.566c1.789,0.035,3.29,0.917,4.788,1.805c0.695,0.412,1.323-0.669,0.631-1.079
				c-1.698-1.006-3.398-1.936-5.419-1.976C326.459,120.301,326.461,121.551,327.266,121.566L327.266,121.566z"/>
		</g>
		<g>
			<path fill="#070707" d="M325.341,123.637c0.655,1.104,1.07,2.308,1.602,3.47c0.335,0.732,1.412,0.097,1.08-0.631
				c-0.532-1.163-0.947-2.365-1.602-3.47C326.01,122.314,324.929,122.942,325.341,123.637L325.341,123.637z"/>
		</g>
		<g>
			<path fill="#070707" d="M306.85,129.339c-0.329,0.829-0.583,1.685-0.763,2.558c-0.162,0.787,1.043,1.122,1.205,0.332
				c0.18-0.873,0.435-1.729,0.763-2.558C308.353,128.921,307.143,128.599,306.85,129.339L306.85,129.339z"/>
		</g>
		<g>
			<path fill="#070707" d="M300.435,104.355c-0.475-0.843-1.125-1.494-1.906-2.055c-0.656-0.472-1.279,0.613-0.631,1.079
				c0.605,0.435,1.092,0.956,1.457,1.606C299.75,105.688,300.83,105.059,300.435,104.355L300.435,104.355z"/>
		</g>
	</g>
	<g>
		<path fill="#070707" d="M150.214,132.583c-6.888-3.078-14.933-2.572-22.106-0.781c-8.476,2.117-13.643,9.495-19.121,15.667
			c-0.342,0.385-0.135,1.089,0.442,1.067c7.877-0.3,15.769-0.024,23.576-1.297c7.641-1.246,13.42-4.994,19.283-9.78
			c0.625-0.51-0.265-1.389-0.884-0.884c-6.726,5.49-13.139,8.772-21.819,9.916c-6.658,0.877-13.459,0.54-20.155,0.795
			c0.147,0.355,0.294,0.711,0.442,1.067c5.23-5.892,9.766-12.161,17.43-15.015c6.649-2.476,15.799-2.573,22.283,0.324
			C150.313,133.989,150.949,132.912,150.214,132.583L150.214,132.583z"/>
	</g>
	<g>
		<path fill="#070707" d="M341.516,126.336c6.678-2.281,14.106-1.855,20.844-0.042c7.932,2.135,12.559,7.971,18.954,12.43
			c0.05-0.381,0.1-0.761,0.149-1.142c-14.294,4.519-30.98,5.252-42.779-5.482c-0.595-0.541-1.481,0.34-0.885,0.884
			c12.128,11.033,29.244,10.467,43.996,5.803c0.54-0.17,0.592-0.833,0.149-1.142c-3.469-2.419-6.248-5.664-9.762-8.073
			c-2.875-1.972-6.177-3.43-9.491-4.482c-6.733-2.14-14.821-2.242-21.508,0.042C340.425,125.39,340.751,126.598,341.516,126.336
			L341.516,126.336z"/>
	</g>
	<g>
		<path fill="#070707" d="M339.238,130.809c8.001,1.935,16.132,3.102,24.294,4.108c0.799,0.099,0.789-1.153,0-1.25
			c-8.054-0.994-16.068-2.154-23.962-4.063C338.787,129.414,338.455,130.619,339.238,130.809L339.238,130.809z"/>
	</g>
	<g>
		<path fill="#070707" d="M150.678,134.641c-6.671-0.475-13.122,0.844-19.432,2.941c-0.761,0.253-0.435,1.46,0.332,1.205
			c6.2-2.061,12.541-3.363,19.1-2.896C151.483,135.948,151.478,134.698,150.678,134.641L150.678,134.641z"/>
	</g>
	<g>
		<path fill="#070707" d="M173.412,83.881c-7.793-1.514-13.794-6.491-18.528-12.657c-2.018-2.628-3.628-5.551-5.057-8.53
			c-0.761-1.585-1.351-3.229-1.917-4.889c-0.856-2.507,1.556-1.714,3.36-1.677c16.015,0.331,33.26,7.406,41.285,22.055
			c0.387,0.707,1.467,0.076,1.079-0.631c-9.249-16.883-28.986-22.974-47.044-22.684c-0.406,0.006-0.71,0.394-0.603,0.791
			c3.547,13.05,13.071,26.703,27.093,29.427C173.867,85.24,174.203,84.035,173.412,83.881L173.412,83.881z"/>
	</g>
	<g>
		<path fill="#070707" d="M166.51,69.652c4.021,1.776,8.072,3.444,11.927,5.566c4.384,2.414,7.765,6.089,11.682,9.122
			c0.629,0.487,1.521-0.391,0.884-0.884c-3.119-2.416-5.912-5.202-9.102-7.532c-4.433-3.238-9.778-5.151-14.76-7.352
			C166.411,68.25,165.774,69.327,166.51,69.652L166.51,69.652z"/>
	</g>
	<g>
		<path fill="#070707" d="M285.554,74.754c-0.224-7.971,6.569-13.905,12.024-18.81c3.92-3.525,7.701-7.242,11.945-10.383
			c2.228-1.649,4.786-3.266,7.595-3.566c5.657-0.606,3.334,8.978,2.637,11.745c-2.209,8.768-4.988,16.19-11.413,22.784
			c-0.562,0.577,0.321,1.462,0.885,0.884c7.286-7.479,10.549-16.656,12.504-26.791c0.953-4.942-0.144-10.986-6.385-9.581
			c-6.132,1.381-11.423,7.47-15.86,11.537c-6.407,5.874-15.452,12.518-15.182,22.181C284.326,75.558,285.576,75.561,285.554,74.754
			L285.554,74.754z"/>
	</g>
	<g>
		<path fill="#070707" d="M287.086,87.372c3.962-11.618,12.743-20.158,22.279-27.45c0.631-0.482,0.01-1.569-0.631-1.079
			c-9.822,7.511-18.777,16.244-22.854,28.197C285.62,87.805,286.827,88.131,287.086,87.372L287.086,87.372z"/>
	</g>
	<g>
		<path fill="#070707" d="M160.847,91.238c-3.786-4.818-9.524-7.615-14.877-10.351c-5.45-2.785-11.319-4.729-17.327-5.857
			c-10.197-1.913-23.681-0.155-28.708,10.195c-3.402,7.005,2.156,18.654,10.928,15.863c2.835-0.902,6.082-4.228,5.2-7.432
			c-0.96-3.493-4.992-3.013-7.772-2.579c-0.795,0.124-0.456,1.328,0.332,1.205c0.601-0.081,1.202-0.163,1.803-0.244
			c2.651-0.458,3.671,1.473,3.061,5.792c-2.223,2.729-5.708,2.902-8.653,1.366c-4.366-2.278-5.268-7.991-4.204-12.263
			c2.107-8.456,12.827-11.105,20.261-11.324c7.487-0.22,15.027,2.159,21.816,5.112c6.098,2.653,13.1,6.109,17.257,11.4
			C160.461,92.756,161.339,91.864,160.847,91.238L160.847,91.238z"/>
	</g>
	<g>
		<path fill="#070707" d="M326.228,87.454c7.957-8.463,15.924-15.591,26.732-20.131c8.386-3.522,18.179-6.37,27.293-4.548
			c5.646,1.128,9.742,5.283,11.093,10.833c1.665,6.837-3.826,13.34-9.207,16.599c-5.855,3.546-15.807,4.775-21.404,0.272
			c-3.782-3.042-1.751-8.252,0.951-11.059c1.405-1.459,3.296-2.428,5.162-3.126c0.746-0.119,1.491-0.237,2.236-0.356
			c3.06,3.256,3.05,5.536-0.03,6.839c-0.666,0.446-0.041,1.53,0.631,1.079c4.337-2.91,6.267-8.372-0.601-9.168
			c-6.115-0.709-11.852,6.437-11.604,11.979c0.319,7.179,10.244,8.455,15.531,7.628c8.188-1.279,15.232-5.096,18.676-12.948
			c2.496-5.691,0.582-12.955-4.412-16.679c-5.37-4.003-12.079-4.091-18.467-3.231c-7.32,0.986-14.465,3.702-21.093,6.883
			c-8.965,4.302-15.646,11.099-22.372,18.251C324.792,87.157,325.674,88.042,326.228,87.454L326.228,87.454z"/>
	</g>
	<g>
		<path fill="#070707" d="M209.455,64.028c1.312-8.001-3.562-18.093-11.175-21.227c-7.543-3.105-13.414,2.792-13.706,10.059
			c-0.133,3.312,1.045,6.115,4.167,7.357c2.824,1.124,7.45-1.659,8.1-4.522c1.096-4.831-6.29-6.669-6.71-1.953
			c-0.072,0.803,1.179,0.796,1.25,0c0.507-1.4,1.427-1.864,2.76-1.393c2.002,2.583,1.654,4.542-1.044,5.874
			c-4.833,3.343-7.383-2.587-7.229-6.431c0.198-4.932,3.663-8.384,8.532-8.487c9.143-0.193,15.121,12.637,13.85,20.39
			C208.121,64.484,209.325,64.822,209.455,64.028L209.455,64.028z"/>
	</g>
	<g>
		<path fill="#070707" d="M268.214,56.885c-1.165-7.658,0.09-17.202,8.954-19.298c4.93-1.166,8.104,2.99,8.497,7.399
			c0.162,1.818-1.16,3.647-2.303,4.905c-1.614,1.775-7.133,0.747-4.59-2.289c0.888-1.059,1.902-0.358,1.464,0.722
			c-0.304,0.747,0.906,1.069,1.205,0.332c1.651-4.066-4.401-3.38-4.416,0.36c-0.008,1.969,2.547,3.958,4.453,3.391
			c2.913-0.866,4.874-3.734,5.396-6.639c1.19-6.641-6.119-11.293-11.846-8.853c-8.155,3.475-9.215,12.452-8.02,20.303
			C267.13,58.012,268.334,57.673,268.214,56.885L268.214,56.885z"/>
	</g>
	<g>
		<path fill="#070707" d="M137.933,318.52c2.785,0.484,4.665,2.913,7.037,4.267c2.836,1.617,6.555,2.122,9.719,2.682
			c7.431,1.315,15.148,1.432,22.674,1.669c13.693,0.431,27.578-0.682,40.827,3.533c14.452,4.599,24.313,14.918,27.95,29.502
			c2.997,12.02,2.292,24.648,3.238,36.909c0.062,0.798,1.312,0.805,1.25,0c-0.96-12.441-0.506-24.999-3.283-37.241
			c-2.882-12.705-10.451-21.497-21.883-27.486c-11.871-6.219-25.589-6.266-38.644-6.34c-8.746-0.051-17.498-0.3-26.215-1.042
			c-4.634-0.396-9.215-1.206-13.619-2.703c-3.242-1.103-5.312-4.362-8.719-4.954C137.477,317.178,137.14,318.382,137.933,318.52
			L137.933,318.52z"/>
	</g>
	<g>
		<path fill="#070707" d="M252.167,396.07c2.546-24.475,3.819-60.472,35.538-63.61c6.414-0.635,12.908,0.127,19.331,0.191
			c7.229,0.073,14.438-1.018,21.496-2.489c13.592-2.834,27.036-8.007,38.212-16.353c0.638-0.477,0.016-1.562-0.631-1.08
			c-12.621,9.426-27.806,14.49-43.179,17.25c-8.127,1.459-16.168,1.477-24.38,1.145c-6.7-0.271-13.354-0.174-19.803,1.835
			c-11.243,3.504-18.223,14.406-21.931,24.93c-4.291,12.175-4.582,25.47-5.904,38.182
			C250.833,396.872,252.084,396.863,252.167,396.07L252.167,396.07z"/>
	</g>
	<g>
		<path fill="#070707" d="M135.653,408.76c-0.837,6.649-3.448,12.731-5.411,19.084c-1.753,5.676-2.924,11.535-4.421,17.281
			c-1.499,5.75-3.182,11.45-4.897,17.139c-0.792,2.625-1.336,9.217-3.345,11.117c-0.442,0.419,0.01,1.253,0.608,1.045
			c5.091-1.769,9.542-4.858,14.613-6.672c6.816-2.438,14.719,0.792,20.741,3.879c8.476,4.345,16.521,10.648,26.625,8.888
			c11.644-2.028,21.901-8.498,34.028-8.106c10.94,0.353,19.312,9.899,28.999,13.925c10.332,4.294,21.759,1.035,31.968-1.86
			c12.529-3.555,25.149-6.847,38.106-8.39c6.154-0.733,12.356-0.869,18.542-0.561c6.048,0.302,11.87,1.676,17.948,1.399
			c11.911-0.541,23.119-5.502,35.187-3.513c0.465,0.077,0.892-0.271,0.769-0.769c-5.641-22.873-17.293-44.407-16.642-68.498
			c0.021-0.807-1.229-0.805-1.25,0c-0.381,14.093,3.367,27.486,7.829,40.727c2.217,6.579,4.554,13.113,6.584,19.754
			c0.259,0.847,2.575,7.434,1.168,7.277c-3.988-0.443-7.859-0.293-11.835,0.199c-6.761,0.838-13.344,2.688-20.123,3.438
			c-7.76,0.858-15.605-1.177-23.377-1.415c-14.949-0.458-29.806,2.848-44.164,6.642c-7.198,1.902-14.299,4.224-21.616,5.636
			c-9.113,1.76-17.408,0.06-25.331-4.607c-4.829-2.845-9.316-6.774-14.597-8.782c-5.979-2.271-11.918-2.177-18.125-0.958
			c-6.66,1.307-12.899,4.211-19.377,6.149c-9.39,2.809-16.763,0.138-24.958-4.462c-5.448-3.058-10.687-5.961-16.813-7.399
			c-6.093-1.431-11.375,0.15-16.77,2.944c-2.782,1.441-5.487,2.897-8.46,3.931c0.203,0.348,0.405,0.696,0.608,1.045
			c1.658-1.568,1.871-5.118,2.365-7.216c1.44-6.107,3.601-12.097,5.273-18.149c1.9-6.879,3.37-13.868,5.347-20.725
			c1.879-6.52,4.6-12.627,5.455-19.416C137.003,407.961,135.752,407.971,135.653,408.76L135.653,408.76z"/>
	</g>
	<g>
		<path fill="#070707" d="M136.161,410.016c9.539,13.291,25.957,18.642,41.207,22.283c20.956,5.003,43.054,5.345,64.487,4.871
			c43.221-0.956,85.772-9.14,126.438-23.685c0.753-0.27,0.429-1.478-0.332-1.205c-38.874,13.903-79.208,21.795-120.479,23.464
			c-20.71,0.837-41.802,0.452-62.258-3.107c-17.1-2.975-37.346-8.43-47.984-23.252C136.775,408.736,135.69,409.359,136.161,410.016
			L136.161,410.016z"/>
	</g>
	<g>
		<path fill="#070707" d="M166.127,428.593c-4.519,5.72-7.483,12.317-10.701,18.808c-0.357,0.72,0.721,1.354,1.079,0.631
			c3.165-6.383,6.06-12.927,10.505-18.554C167.505,428.852,166.627,427.961,166.127,428.593L166.127,428.593z"/>
	</g>
	<g>
		<path fill="#070707" d="M193.884,435.659c-1.05,3.185-1.978,6.408-3.029,9.593c-0.253,0.768,0.954,1.094,1.205,0.332
			c1.051-3.185,1.979-6.407,3.029-9.593C195.343,435.224,194.135,434.897,193.884,435.659L193.884,435.659z"/>
	</g>
	<g>
		<path fill="#070707" d="M239.928,437.279c2.93,7.216,3.948,14.802,4.019,22.555c0.007,0.806,1.257,0.807,1.25,0
			c-0.072-7.859-1.09-15.564-4.064-22.887C240.834,436.211,239.624,436.532,239.928,437.279L239.928,437.279z"/>
	</g>
	<g>
		<path fill="#070707" d="M248.22,436.899c1.912,3.481,2.959,7.309,4.481,10.959c0.305,0.732,1.515,0.412,1.205-0.332
			c-1.563-3.75-2.643-7.682-4.607-11.258C248.91,435.562,247.832,436.192,248.22,436.899L248.22,436.899z"/>
	</g>
	<g>
		<path fill="#070707" d="M310.497,429.816c9.173,3.227,12.349,15.783,15.72,23.798c0.308,0.731,1.518,0.41,1.205-0.332
			c-3.599-8.556-6.827-21.236-16.593-24.671C310.066,428.343,309.742,429.551,310.497,429.816L310.497,429.816z"/>
	</g>
	<g>
		<path fill="#070707" d="M321.908,427.262c3.102,3.207,5.229,7.187,8.082,10.601c0.518,0.619,1.397-0.271,0.885-0.885
			c-2.855-3.415-4.978-7.389-8.082-10.601C322.231,425.797,321.349,426.682,321.908,427.262L321.908,427.262z"/>
	</g>
	<g>
		<path fill="#070707" d="M161.486,427.611c-1.018,1.954-2.518,3.597-3.535,5.552c-0.372,0.714,0.707,1.346,1.079,0.631
			c1.017-1.955,2.517-3.598,3.535-5.552C162.937,427.528,161.858,426.896,161.486,427.611L161.486,427.611z"/>
	</g>
	<g>
		<path fill="#070707" d="M137.041,382.535c9.228,3.017,17.959,7.291,27.223,10.237c9.357,2.975,19.262,4.052,29.023,4.594
			c21.444,1.191,43.004,0.228,64.445-0.496c20.288-0.686,39.17-4.599,58.649-10.199c18.324-5.269,37.276-9.3,52.885-20.861
			c0.64-0.475,0.018-1.561-0.631-1.08c-15.524,11.499-34.373,15.476-52.587,20.736c-9.491,2.741-19.019,5.337-28.712,7.266
			c-10.455,2.081-20.892,2.595-31.51,2.953c-20.232,0.683-40.458,1.288-60.699,0.518c-10.334-0.394-20.597-1.71-30.532-4.636
			c-9.328-2.746-17.996-7.221-27.223-10.236C136.605,381.079,136.278,382.286,137.041,382.535L137.041,382.535z"/>
	</g>
	<g>
		<path fill="#070707" d="M370.523,365.585c1.718-3.002,7.01-8.875,10.38-4.277c1.267,1.728,1.017,4.515,0.946,6.528
			c-0.2,5.729-0.924,11.261-0.399,17.021c0.596,6.554,4.43,12.168,4.9,18.751c0.738,10.329-10.853,10.682-16.431,5.144
			c-0.573-0.567-1.457,0.315-0.885,0.885c4.354,4.321,10.991,6.067,15.877,1.581c7.217-6.626-1.283-19.025-2.212-26.36
			c-0.638-5.031-0.187-10.104,0.269-15.126c0.233-2.58,0.598-5.967-0.642-8.383c-3.366-6.564-10.538-0.489-12.884,3.606
			C369.043,365.654,370.123,366.284,370.523,365.585L370.523,365.585z"/>
	</g>
	<g>
		<path fill="#070707" d="M383.735,361.735c1.479-12.284,23.145-9.947,21.214,2.882c-0.723,4.797-4.89,4.937-8.018,7.181
			c-0.837,0.602-2.873,1.742-3.146,2.938c-0.358,1.575-0.9,3.593-0.881,5.17c0.012,0.895,0.118,1.684,0.301,2.564
			c0.959,4.628-8.729,1.68-10.288,0.939c-0.16,0.381-0.321,0.762-0.481,1.143c2.388,0.622,4.788,0.594,7.243,0.619
			c1.574,0.017,3.045,0.146,4.594,0.493c5.857,1.309,2.141,5.591,2.141,8.133c0,1.441,0.769,3.17,1.975,4.009
			c2.909,2.021,5.947,3.442,8.109,6.386c5.836,7.946-14.396,10.912-18.809,4.687c-0.462-0.651-1.547-0.028-1.08,0.631
			c4.071,5.745,20.23,6.604,22.109-1.706c0.4-1.77-0.651-3.79-1.76-5.078c-3.643-4.232-10.347-5.723-8.287-12.55
			c2.351-7.791-12.643-5.979-15.903-6.828c-0.667-0.174-1.138,0.83-0.481,1.143c3.879,1.841,7.105,2.554,11.062,0.59
			c0.528-0.263,1.087-0.952,1.133-1.562c0.169-2.225-0.102-4.302,0.324-6.577c0.865-4.622,5.68-4.939,8.992-7.46
			c2.29-1.742,2.985-5.755,2.464-8.433c-2.299-11.811-22.318-11.429-23.777,0.688C382.389,362.534,383.641,362.525,383.735,361.735
			L383.735,361.735z"/>
	</g>
	<g>
		<path fill="#070707" d="M403.213,370.205c5.863-3.499,3.543,9.944,3.98,12.616c0.324,1.985,2.18,3.099,3.639,4.258
			c7.26,5.769-5.244,9.557-9.108,10.763c-0.767,0.239-0.439,1.446,0.332,1.205c4.764-1.486,10.388-2.367,11.953-7.793
			c1.294-4.483-5.347-5.368-5.623-9.064c-0.274-3.668,2.004-17.723-5.804-13.064C401.891,369.538,402.519,370.619,403.213,370.205
			L403.213,370.205z"/>
	</g>
	<g>
		<path fill="#070707" d="M394.581,377.097c3.521-3.338,4.213,1.841,4.39,4.578c0.186,2.86,0.17,6.241-0.892,8.947
			c-0.295,0.751,0.914,1.074,1.205,0.332c1.446-3.687,1.788-21.731-5.588-14.742C393.11,376.768,393.996,377.65,394.581,377.097
			L394.581,377.097z"/>
	</g>
	<g>
		<path fill="#070707" d="M370.698,411.123c3.619,16.481,11.312,30.683,25.532,40.26c0.671,0.451,1.296-0.632,0.631-1.08
			c-13.944-9.392-21.413-23.37-24.958-39.512C371.73,410.004,370.525,410.338,370.698,411.123L370.698,411.123z"/>
	</g>
	<g>
		<path fill="#070707" d="M374.978,413.045c4.731,6.229,9.991,12,15.75,17.294c0.593,0.544,1.479-0.338,0.885-0.885
			c-5.678-5.219-10.89-10.897-15.555-17.04C375.576,411.781,374.49,412.402,374.978,413.045L374.978,413.045z"/>
	</g>
	<g>
		<path fill="#070707" d="M395.652,457.406c-0.335-3.188,1.719-7.146,4.564-8.614c1.519-0.784,3.41-0.188,4.196,1.288
			c0.569,1.069,0.268,2.455-0.081,3.535c-0.768,2.375-2.641,4.633-4.857,5.774c-3.074,1.582-4.428-1.661-4.852-4.166
			c-0.134-0.794-1.339-0.456-1.205,0.332c0.536,3.168,2.378,6.512,6.074,5.18c3.025-1.091,5.352-4.339,6.21-7.328
			c0.886-3.086-0.897-6.681-4.558-6.154c-4.182,0.601-7.155,6.229-6.742,10.153C394.485,458.199,395.736,458.208,395.652,457.406
			L395.652,457.406z"/>
	</g>
	<g>
		<path fill="#070707" d="M390.279,433.934c-0.162-2.489,1.257-7.688,4.321-8.07c1.773-0.222,2.546,2.969,2.82,4.222
			c0.25,1.145-0.124,2.312-0.866,3.188c-1.358,1.603-3.827,2.086-5.803,1.688c-2.921-0.588-3.609-3.317-3.021-5.908
			c0.179-0.785-1.026-1.118-1.205-0.332c-0.736,3.24,0.216,6.349,3.615,7.376c2.808,0.849,6.273-0.269,7.891-2.729
			c1.561-2.374,0.241-8.665-3.137-8.746c-4.02-0.098-6.073,6.132-5.866,9.312C389.081,434.733,390.332,434.739,390.279,433.934
			L390.279,433.934z"/>
	</g>
	<g>
		<path fill="#070707" d="M370.608,387.585c-0.402-4.162,0.982-8.137,3.855-11.172c0.553-0.585-0.329-1.471-0.885-0.885
			c-3.084,3.26-4.653,7.575-4.221,12.057C369.436,388.38,370.686,388.388,370.608,387.585L370.608,387.585z"/>
	</g>
	<g>
		<path fill="#070707" d="M369.914,391.946c1.231,1.189,2.732,2.131,4.483,2.198c0.807,0.031,0.804-1.219,0-1.25
			c-1.41-0.054-2.615-0.882-3.599-1.833C370.219,390.502,369.334,391.385,369.914,391.946L369.914,391.946z"/>
	</g>
	<g>
		<path fill="#070707" d="M383.813,372.405c0.525-2.811,2.537-4.233,5.115-5.118c0.758-0.26,0.433-1.468-0.332-1.205
			c-2.968,1.019-5.382,2.749-5.988,5.991C382.461,372.86,383.666,373.197,383.813,372.405L383.813,372.405z"/>
	</g>
	<g>
		<path fill="#070707" d="M387.084,398.681c0.718,1.345,2.123,1.803,3.57,1.824c0.807,0.012,0.806-1.238,0-1.25
			c-1.018-0.015-1.982-0.252-2.49-1.205C387.784,397.339,386.705,397.97,387.084,398.681L387.084,398.681z"/>
	</g>
	<g>
		<path fill="#070707" d="M137.598,398.958c0.972,1.638,2.995,2.771,4.484,3.916c3.191,2.455,6.444,4.743,9.932,6.759
			c6.917,3.997,14.636,6.483,22.402,8.194c16.36,3.605,33.423,2.952,50.057,2.646c0.805-0.015,0.807-1.265,0-1.25
			c-15.562,0.286-31.201,0.669-46.601-1.99c-7.771-1.341-15.317-3.728-22.405-7.181c-3.394-1.653-6.575-3.701-9.636-5.9
			c-2.229-1.602-5.74-3.442-7.153-5.825C138.266,397.635,137.186,398.263,137.598,398.958L137.598,398.958z"/>
	</g>
	<g>
		<path fill="#070707" d="M138.021,391.391c12.864,4.702,25.294,10.525,38.372,14.647c0.771,0.243,1.098-0.964,0.332-1.205
			c-13.077-4.122-25.507-9.945-38.372-14.647C137.594,389.908,137.27,391.116,138.021,391.391L138.021,391.391z"/>
	</g>
	<g>
		<path fill="#070707" d="M367.838,379.402c-2.399,2.452-4.371,4.496-7.665,5.833c-2.849,1.155-5.941,1.768-8.846,2.785
			c-6.063,2.123-12.153,4.172-18.246,6.208c-12.331,4.122-24.694,8.147-37,12.347c-0.759,0.259-0.433,1.466,0.332,1.205
			c13.526-4.615,27.119-9.031,40.669-13.574c6.628-2.222,13.191-4.741,19.911-6.666c5.199-1.49,8.015-3.46,11.729-7.253
			C369.286,379.711,368.403,378.826,367.838,379.402L367.838,379.402z"/>
	</g>
	<g>
		<path fill="#070707" d="M368.162,394.844c-5.644,3.504-11.729,6.148-17.671,9.089c-0.723,0.358-0.089,1.436,0.631,1.08
			c5.942-2.941,12.027-5.586,17.671-9.089C369.477,395.499,368.849,394.418,368.162,394.844L368.162,394.844z"/>
	</g>
	<g>
		<path fill="#070707" d="M145.348,330.37c2.525,3.16,4.002,6.972,5.962,10.477c0.394,0.703,1.473,0.073,1.079-0.631
			c-2.019-3.609-3.557-7.476-6.158-10.73C145.729,328.856,144.85,329.747,145.348,330.37L145.348,330.37z"/>
	</g>
	<g>
		<path fill="#070707" d="M145.095,338.04c2.711-1.673,4.956-3.916,7.197-6.155c0.571-0.57-0.313-1.455-0.884-0.885
			c-2.166,2.165-4.323,4.344-6.944,5.96C143.78,337.383,144.407,338.464,145.095,338.04L145.095,338.04z"/>
	</g>
	<g>
		<path fill="#070707" d="M159.106,333.497c3.416,2.067,5.24,5.686,7.952,8.484c0.562,0.579,1.445-0.306,0.884-0.885
			c-2.797-2.887-4.678-6.545-8.205-8.68C159.045,331.999,158.417,333.08,159.106,333.497L159.106,333.497z"/>
	</g>
	<g>
		<path fill="#070707" d="M159.863,341.981c2.616-3.021,6.038-5.009,9.467-6.971c0.699-0.4,0.07-1.48-0.631-1.08
			c-3.519,2.014-7.037,4.067-9.72,7.166C158.455,341.703,159.335,342.592,159.863,341.981L159.863,341.981z"/>
	</g>
	<g>
		<path fill="#070707" d="M176.273,332.486c3.843,2.962,6.838,6.814,10.476,10.002c0.604,0.528,1.491-0.353,0.884-0.885
			c-3.721-3.26-6.797-7.165-10.729-10.197C176.266,330.914,175.645,332.001,176.273,332.486L176.273,332.486z"/>
	</g>
	<g>
		<path fill="#070707" d="M177.536,342.488c3.159-4.062,7.402-6.955,11.486-10.002c0.638-0.477,0.016-1.562-0.631-1.08
			c-4.165,3.107-8.517,6.055-11.739,10.197C176.164,342.232,177.042,343.124,177.536,342.488L177.536,342.488z"/>
	</g>
	<g>
		<path fill="#070707" d="M193.817,332.389c3.809,2.987,6.007,7.403,9.592,10.604c0.599,0.534,1.486-0.347,0.884-0.885
			c-3.585-3.201-5.782-7.615-9.592-10.604C194.075,331.013,193.184,331.891,193.817,332.389L193.817,332.389z"/>
	</g>
	<g>
		<path fill="#070707" d="M195.207,341.981c2.823-2.761,6.048-5.062,9.086-7.572c0.622-0.515-0.268-1.394-0.884-0.885
			c-3.039,2.511-6.264,4.812-9.086,7.572C193.746,341.661,194.631,342.545,195.207,341.981L195.207,341.981z"/>
	</g>
	<g>
		<path fill="#070707" d="M213.131,337.031c2.828,1.921,5.257,4.291,6.843,7.348c0.371,0.716,1.45,0.084,1.079-0.631
			c-1.683-3.244-4.292-5.759-7.291-7.797C213.093,335.497,212.469,336.581,213.131,337.031L213.131,337.031z"/>
	</g>
	<g>
		<path fill="#070707" d="M213.889,345.516c2.105-2.078,4.416-3.913,6.94-5.455c0.687-0.42,0.059-1.501-0.631-1.08
			c-2.612,1.597-5.016,3.501-7.193,5.65C212.431,345.198,213.315,346.082,213.889,345.516L213.889,345.516z"/>
	</g>
	<g>
		<path fill="#070707" d="M272.077,345.516c2.16,2.696,4.387,5.377,7.068,7.575c0.618,0.506,1.508-0.373,0.885-0.885
			c-2.683-2.197-4.909-4.878-7.068-7.575C272.458,344.002,271.579,344.893,272.077,345.516L272.077,345.516z"/>
	</g>
	<g>
		<path fill="#070707" d="M272.962,353.091c2.018-2.021,4.037-4.041,6.058-6.061c0.57-0.571-0.313-1.455-0.885-0.885
			c-2.02,2.021-4.039,4.039-6.058,6.061C271.508,352.777,272.392,353.661,272.962,353.091L272.962,353.091z"/>
	</g>
	<g>
		<path fill="#070707" d="M289.369,340.566c3.527,2.607,6.186,6.144,8.961,9.493c0.516,0.621,1.395-0.269,0.885-0.885
			c-2.855-3.443-5.589-7.007-9.215-9.688C289.351,339.007,288.729,340.093,289.369,340.566L289.369,340.566z"/>
	</g>
	<g>
		<path fill="#070707" d="M290.225,348.923c2.473-3.354,5.81-5.823,8.99-8.454c0.621-0.515-0.269-1.395-0.885-0.885
			c-3.274,2.711-6.64,5.256-9.186,8.708C288.666,348.941,289.751,349.564,290.225,348.923L290.225,348.923z"/>
	</g>
	<g>
		<path fill="#070707" d="M307.039,340.566c3.805,2.287,6.572,5.926,10.751,7.635c0.746,0.306,1.067-0.904,0.332-1.205
			c-4.041-1.653-6.762-5.291-10.452-7.51C306.978,339.07,306.35,340.151,307.039,340.566L307.039,340.566z"/>
	</g>
	<g>
		<path fill="#070707" d="M308.368,349.232c2.656-0.177,4.731-2.32,6.467-4.132c2.332-2.436,4.244-5.242,6.592-7.661
			c0.561-0.579-0.322-1.464-0.885-0.885c-1.888,1.946-3.507,4.146-5.273,6.2c-1.692,1.966-4.097,5.041-6.9,5.228
			C307.568,348.036,307.563,349.286,308.368,349.232L308.368,349.232z"/>
	</g>
	<g>
		<path fill="#070707" d="M325.365,338.103c4.034,1.654,6.861,5.331,11.108,6.563c0.775,0.226,1.104-0.981,0.332-1.205
			c-4.206-1.221-7.086-4.914-11.108-6.563C324.951,336.592,324.63,337.801,325.365,338.103L325.365,338.103z"/>
	</g>
	<g>
		<path fill="#070707" d="M336.704,334.028c-3.234,3.833-6.02,8.004-8.686,12.244c-0.43,0.685,0.652,1.312,1.08,0.631
			c2.608-4.149,5.324-8.24,8.49-11.99C338.104,334.301,337.226,333.412,336.704,334.028L336.704,334.028z"/>
	</g>
	<g>
		<path fill="#070707" d="M342.764,331.885c3.741,4.063,8.72,6.146,13.906,7.733c0.772,0.236,1.101-0.97,0.332-1.205
			c-4.995-1.529-9.749-3.497-13.354-7.413C343.101,330.406,342.22,331.292,342.764,331.885L342.764,331.885z"/>
	</g>
	<g>
		<path fill="#070707" d="M352.763,330.117c-2.613,4.14-5.482,8.118-7.132,12.77c-0.271,0.762,0.938,1.086,1.205,0.332
			c1.611-4.543,4.455-8.43,7.007-12.471C354.274,330.064,353.192,329.438,352.763,330.117L352.763,330.117z"/>
	</g>
	<g>
		<path fill="#070707" d="M139.14,317.223c-0.298-3.172,2.479-13.316,5.731-7.151c0.973,1.844,1.724,3.877,3.79,4.59
			c2.917,1.007,5.597,0.828,8.418,2.409c2.635,1.476,5.309,2.664,8.335,2.972c2.872,0.292,2.507-0.548,4.979,1.449
			c1.787,1.444,4.288,1.571,6.471,1.486c6.683-0.263,12.467-4.078,19.279-3.938c3.679,0.075,6.884-0.045,10.474-0.917
			c2.044-0.496,4.186-0.62,6.267-0.931c1.079-0.161,5.209-2.263,6.254-1.407c0.863,0.707,2.181,0.745,3.13,0.2
			c4.388-2.521,8.388,2.102,11.436,4.866c6.181,5.607,9.537,13.027,13.188,20.369c2.437,4.9,2.751,9.436,2.196,14.77
			c-0.371,3.565-0.479,6.815,1.051,10.108c0.286,0.615,1.12,0.243,1.165-0.315c0.567-7.068,0.326-14.209,2.185-21.114
			c1.374-5.105,4.445-7.365,9.105-9.266c2.076-0.848,3.103-2.049,4.404-3.804c0.933-1.258,0.969-2.928,0.862-4.407
			c-0.368-5.079,4.743-6.466,8.718-7.484c2.98-0.765,5.57-1.132,8.114,1.036c0.482,0.41,1.383,1.398,2.018,1.617
			c1.735,0.596,3.813,1.291,5.687,0.937c3.535-0.67,6.867-1.715,10.484-2.066c3.844-0.373,7.734-0.036,11.589-0.277
			c2.01-0.127,7.229-2.297,8.018-0.686c0.562,1.148,1.835,1.722,2.989,2.035c6.994,1.899,18.496-6.394,21.495-12.286
			c-0.381-0.05-0.762-0.1-1.143-0.149c0.339,1.817,4.32,2.609,5.755,2.681c1.051,0.053,2.194-0.383,2.991-1.072
			c1.022-0.885,1.853-1.794,2.721-2.835c2.008-2.408,4.097-2.533,6.886-2.848c0.792-0.089,0.801-1.34,0-1.25
			c-3.062,0.345-4.356-0.216-6.756,1.98c-1.756,1.606-3.157,5.249-6.329,4.68c-0.766-0.138-3.903-0.813-4.062-1.668
			c-0.099-0.528-0.905-0.614-1.143-0.149c-2.282,4.485-20.056,17.977-22.794,9.039c-0.096-0.313-0.438-0.545-0.769-0.437
			c-5.963,1.948-11.751,1.725-17.916,1.901c-5.06,0.146-10.419,2.994-15.35,1.868c-2.229-0.509-3.707-2.27-5.584-3.453
			c-1.174-0.74-3.259-0.461-4.521-0.326c-3.868,0.413-7.728,1.56-10.657,4.123c-2.07,1.811-1.641,4.174-1.635,6.607
			c0.012,5.488-8.704,6.303-11.641,9.957c-5.682,7.074-4.295,18.681-4.972,27.116c0.388-0.105,0.776-0.21,1.165-0.315
			c-2.893-6.229,0.437-13.551-1.325-20.155c-1.618-6.063-5.452-12.237-8.704-17.557c-2.966-4.853-7.404-7.846-11.27-11.829
			c-1.257-1.295-3.031-1.885-4.742-2.289c-2.482-0.587-3.196,2.867-6.201,0.407c-0.222-0.182-0.494-0.247-0.757-0.098
			c-4.199,2.392-8.948,2.245-13.529,3.358c-4.352,1.057-8.634,0.025-12.994,0.684c-6.843,1.033-17.382,7.914-22.549,0.287
			c-0.2-0.295-0.535-0.386-0.855-0.225c-5.474,2.773-9.911-2.931-14.912-3.934c-2.542-0.509-4.757-0.093-6.297-2.579
			c-1.166-1.883-1.942-3.963-3.339-5.7c-0.223-0.276-0.65-0.206-0.884,0c-3.44,3.039-5.408,6.734-4.971,11.385
			C137.964,318.018,139.215,318.025,139.14,317.223L139.14,317.223z"/>
	</g>
	<g>
		<path fill="#070707" d="M179.188,480.603c4.853,0.336,7.957,4.502,13.037,4.96c4.684,0.423,9.562-2.388,13.79-3.982
			c3.42-1.289,5.906-0.784,8.231,2.081c1.278,1.574,2.913,2.742,4.626,3.785c3.223,1.959,7.03,1.387,10.544,0.792
			c4.312-0.73,7.17-1.204,11.396,0.62c2.575,1.112,5.106,2.324,7.667,3.467c4.058,1.811,8.371,3.54,12.811,4.085
			c2.087,0.256,4.806,0.762,6.875,0.192c1.65-0.454,4.13-2.881,5.971-3.574c4.519-1.7,9.554-1.81,14.171-3.24
			c5.912-1.831,11.702-4.192,17.628-6.054c3.102-0.975,6.178-2.015,9.23-3.132c0.106-0.029,0.198-0.083,0.276-0.16
			c2.334-2.248,4.628-2.114,7.594-2.44c12.092-1.331,24.207-0.104,34.648,6.538c3.196,2.033,7.345,2.361,10.981,1.854
			c2.231-0.312,4.288-1.534,6.149-2.707c3.324-2.096,5.539-2.349,9.351-3.084c5.049-0.975,4.062-6.395,0.05-8.047
			c-0.745-0.308-1.066,0.902-0.332,1.205c8.378,3.452-5.959,6.688-8.199,7.699c-2.578,1.164-4.416,2.979-7.351,3.728
			c-3.899,0.996-8.232-0.592-11.468-2.649c-7.557-4.806-16.696-6.237-25.492-6.272c-4.532-0.018-9.058,0.518-13.54,1.132
			c-0.899,0.123-1.629,0.575-2.276,1.197c-2.327,2.242-6.957,2.979-9.954,3.935c-9.761,3.108-19.104,6.424-29.111,8.548
			c-2.698,0.573-5.755,1.625-7.845,3.502c-3.674,3.302-12.741-0.615-16.625-2.107c-4.705-1.809-9.195-4.155-13.856-6.074
			c-2.894-1.191-7.7,0.401-10.577,0.889c-3.431,0.581-6.307,0.162-9.352-1.689c-2.141-1.301-2.981-3.898-4.922-5.137
			c-2.568-1.638-4.889-1.013-7.633-0.085c-5.503,1.86-10.323,4.845-16.365,3.472c-4.017-0.913-5.796-4.194-10.13-4.494
			C178.382,479.297,178.388,480.547,179.188,480.603L179.188,480.603z"/>
	</g>
	<g>
		<path fill="#070707" d="M118.077,473.661c-2.415,1.958-2.463,4.848-4.04,7.39c-0.333,0.536,0.323,1.174,0.855,0.855
			c4.469-2.678,10.275-6.788,14.974-2.147c0.221,0.218,0.671,0.269,0.884,0c4.203-5.303,9.816-1.583,15.161-1.143
			c6.241,0.515,12.365-0.794,18.596-0.884c0.805-0.012,0.807-1.262,0-1.25c-6.81,0.098-13.489,1.701-20.292,0.606
			c-3.867-0.622-7.266-2.208-11.17-0.922c-0.682,0.225-2.709,2.298-3.351,1.664c-0.931-0.919-2.737-1.565-4.008-1.524
			c-4.297,0.137-7.83,2.367-11.424,4.52c0.285,0.285,0.57,0.57,0.855,0.855c1.464-2.36,1.581-5.301,3.845-7.136
			C119.587,474.037,118.697,473.159,118.077,473.661L118.077,473.661z"/>
	</g>
</g>
</svg>
