<?xml version="1.0" encoding="utf-8"?>
<!-- Generator: Adobe Illustrator 16.0.0, SVG Export Plug-In . SVG Version: 6.00 Build 0)  -->
<!DOCTYPE svg PUBLIC "-//W3C//DTD SVG 1.1//EN" "http://www.w3.org/Graphics/SVG/1.1/DTD/svg11.dtd">
<svg version="1.1" id="Layer_1" xmlns="http://www.w3.org/2000/svg" xmlns:xlink="http://www.w3.org/1999/xlink" x="0px" y="0px"
	 width="500px" height="550px" viewBox="0 0 500 550" enable-background="new 0 0 500 550" xml:space="preserve">
<g>
	<g>
		<path fill="#070707" d="M362.211,133.076c-10.708-19.591-29.416-32.668-50.191-39.906c-24.955-8.693-49.963-5.604-75.664-2.846
			c-14.559,1.562-29.223,2.046-43.227,6.678c-11.908,3.938-22.616,10.702-31.85,19.117c-15.589,14.209-25.002,33.57-29.944,53.825
			c-10.859,44.512-1.525,90.587-0.719,135.594c0.295,16.496-0.438,33.033-1.658,49.48c-1.168,15.744-2.849,31.539-1.88,47.342
			c1.551,25.295,11.959,48.764,28.853,67.521c0.628,0.689,1.264,1.373,1.907,2.049c1.106,1.178,2.871-0.594,1.768-1.768
			c-19.269-20.484-29.678-46.193-30.297-74.295c-0.357-16.232,1.656-32.439,2.688-48.615c1.055-16.527,1.473-33.117,0.915-49.67
			c-1.507-44.726-10.068-90.568,2.846-134.46c5.6-19.034,16.12-36.058,31.389-48.812c10.122-8.455,22.145-14.117,34.9-17.282
			c13.522-3.355,28.138-3.548,41.969-5.026c12.087-1.292,24.264-2.879,36.44-2.351c10.52,0.456,20.929,2.596,30.9,5.929
			c20.156,6.738,38.396,19.912,48.697,38.757C360.826,135.753,362.984,134.491,362.211,133.076L362.211,133.076z"/>
	</g>
	<g>
		<path fill="#070707" d="M183.723,487.427c21.497,13.289,48.917,13.152,73.258,11.117c12.34-1.031,24.602-2.906,36.803-4.988
			c13.218-2.256,28.066-3.307,39.63-10.627c1.357-0.859,0.104-3.023-1.262-2.158c-11.014,6.973-25.171,7.973-37.762,10.156
			c-12.406,2.15-24.863,4.004-37.409,5.117c-23.85,2.115-50.945,2.238-71.996-10.775
			C183.609,484.417,182.354,486.581,183.723,487.427L183.723,487.427z"/>
	</g>
	<g>
		<path fill="#070707" d="M211.951,95.227c1.612,0,1.612-2.5,0-2.5S210.338,95.227,211.951,95.227L211.951,95.227z"/>
	</g>
	<g>
		<path fill="#070707" d="M131.461,166.722c-15.947-3.818-26.332-17.43-20.125-33.694c2.725-7.138,8.689-12.569,15.496-15.734
			c8.58-3.99,24.119-5.237,31.148,2.041c1.122,1.162,2.888-0.608,1.768-1.768c-7.374-7.635-21.631-6.688-30.977-3.692
			c-8.293,2.659-15.184,8.777-19.007,16.554c-3.354,6.821-3.943,15.317-0.838,22.336c4.011,9.064,12.519,14.129,21.87,16.369
			C132.364,169.508,133.029,167.097,131.461,166.722L131.461,166.722z"/>
	</g>
	<g>
		<path fill="#070707" d="M344.632,113.046c13.92-7.171,35.372-10.449,45.19,4.639c9.666,14.853,3.518,38.633-15.413,41.804
			c-1.588,0.266-0.912,2.675,0.664,2.411c20.67-3.462,26.247-27.921,17.56-44.367c-9.446-17.881-34.186-14.413-49.263-6.645
			C341.937,111.626,343.201,113.783,344.632,113.046L344.632,113.046z"/>
	</g>
	<g>
		<path fill="#070707" d="M236.852,187.536c0.383-0.062,0.766-0.124,1.149-0.186c-0.147-0.356-0.295-0.711-0.442-1.067
			c-0.781,0.833-3.202,0.719-4.318,1.39c-2.67,1.604-5.119,3.579-7.389,5.702c-2.987,2.793-7.024,7.66-5.906,12.148
			c1.252,5.03,7.094,8.318,12.004,8.732c8.686,0.733,16.5-3.894,25.074-4.257c9.76-0.413,25.44,10.652,28.859-4.925
			c2.475-11.273-13.183-17.994-21.294-20.994c-0.758-0.28-1.081,0.928-0.332,1.205c8.481,3.137,22.652,9.289,20.175,20.575
			c-1.798,8.192-9.893,6.905-15.823,5.157c-4.385-1.293-8.395-2.403-13.005-2.208c-5.587,0.236-11.029,2.635-16.454,3.802
			c-6.443,1.386-19.215-0.724-17.95-9.774c0.713-5.1,6.077-9.377,9.921-12.239c1.372-1.021,2.812-2.138,4.502-2.495
			c0.786-0.166,2.23-0.308,2.82-0.937c0.341-0.364,0.133-1.122-0.442-1.067c-0.523,0.05-0.939,0.131-1.481,0.231
			C235.728,186.477,236.064,187.681,236.852,187.536L236.852,187.536z"/>
	</g>
	<g>
		<path fill="#070707" d="M268.137,211.778c0.16,4.899,1.681,9.638,1.999,14.53c0.21,3.219-0.46,6.237-2.713,8.633
			c-3.821,4.064-13.768,2.155-12.59-4.667c0.137-0.788-1.068-1.125-1.205-0.332c-1.263,7.308,8.635,10.818,13.792,6.607
			c7.515-6.136,2.226-16.84,1.967-24.771C269.36,210.975,268.11,210.972,268.137,211.778L268.137,211.778z"/>
	</g>
	<g>
		<path fill="#070707" d="M159.037,472.342c11.556-5.885,17.629,8.791,25.611,14.242c0.05-0.381,0.1-0.762,0.149-1.143
			c-6.496,0.971-11.806,5.393-16.884,9.24c-5.671,4.297-13.018,10.471-20.498,7.014c-4.167-1.926-7.34-6.414-6.623-11.045
			c0.547-3.531,3.342-6.533,5.773-8.93c4.612-4.547,10.473-7.973,16.221-10.879c0.719-0.365,0.086-1.443-0.631-1.08
			c-9.506,4.809-30.892,17.41-19.353,29.99c13.113,14.297,29.428-11.176,42.326-13.105c0.586-0.088,0.542-0.875,0.149-1.143
			c-8.584-5.861-14.462-20.562-26.873-14.242C157.688,471.627,158.32,472.705,159.037,472.342L159.037,472.342z"/>
	</g>
	<g>
		<path fill="#070707" d="M145.833,500.004c-1.936-6.793,3.1-12.088,8.71-15.035c0.714-0.375,0.082-1.455-0.631-1.08
			c-6.134,3.223-11.37,9.129-9.284,16.447C144.848,501.109,146.054,500.779,145.833,500.004L145.833,500.004z"/>
	</g>
	<g>
		<path fill="#070707" d="M351.384,467.928c12.321,0.765,25.368,18.331,18.354,30.156c-1.769,2.982-5.29,3.755-8.5,3.67
			c-6.571-0.175-11.411-4.481-15.641-9.042c-1.965-2.118-3.834-4.322-5.8-6.44c-1.608-1.734-7.507-4.548-6.121-7.551
			c0.962-2.084,3.728-4.139,5.427-5.629C342.544,470.075,346.78,468.055,351.384,467.928c0.805-0.022,0.807-1.272,0-1.25
			c-7.042,0.194-12.342,4.462-17.089,9.27c-5.591,5.66,0.839,7.354,4.619,11.208c6.918,7.05,17.907,21.826,29.572,14.033
			c6.169-4.121,4.344-13.73,2.009-19.396c-3.272-7.937-10.281-14.566-19.111-15.114
			C350.578,466.628,350.583,467.878,351.384,467.928z"/>
	</g>
	<g>
		<path fill="#070707" d="M357.688,484.236c4.381,4.545,7.846,10.354,8.064,16.801c0.027,0.805,1.277,0.807,1.25,0
			c-0.23-6.783-3.812-12.895-8.43-17.686C358.013,482.77,357.13,483.654,357.688,484.236L357.688,484.236z"/>
	</g>
	<g>
		<path fill="#070707" d="M382.867,290.26c6.359-0.357,12.559,1.068,17.994,4.422c5.892,3.635,10.552,12.256,7.229,19.029
			c-2.271,4.629-9.037,3.094-12.801,1.799c-4.595-1.58-8.933-4.549-11.98-8.326c-0.507-0.627-1.386,0.264-0.885,0.885
			c4.846,6.004,20.753,15.818,26.745,6.273c3.39-5.4-0.103-13.406-3.823-17.566c-5.405-6.047-14.693-8.203-22.479-7.766
			C382.065,289.055,382.062,290.305,382.867,290.26L382.867,290.26z"/>
	</g>
	<g>
		<path fill="#070707" d="M396.945,306.729c4.409,1.361,9.791,5.119,7.12,10.33c-0.366,0.715,0.712,1.348,1.08,0.631
			c3.066-5.984-2.583-10.535-7.868-12.166C396.505,305.285,396.178,306.49,396.945,306.729L396.945,306.729z"/>
	</g>
	<circle fill="none" stroke="#070707" stroke-width="1.5" stroke-miterlimit="10" cx="301.473" cy="147.122" r="38.982"/>
	<path fill="none" stroke="#070707" stroke-width="1.5" stroke-miterlimit="10" d="M242.276,151.261
		c0-21.528-17.455-38.981-38.981-38.981c-21.532,0-38.983,17.453-38.983,38.981c0,21.527,17.452,38.982,38.983,38.982
		C224.821,190.243,242.276,172.788,242.276,151.261z"/>
	<path fill="#070707" d="M376.122,131.692c0-4.555-3.691-8.246-8.244-8.246c-4.558,0-8.25,3.691-8.25,8.246
		c0,4.554,3.692,8.246,8.25,8.246C372.431,139.938,376.122,136.246,376.122,131.692z"/>
	<circle fill="#070707" cx="136.573" cy="139.531" r="8.247"/>
	<ellipse fill="#070707" cx="252.632" cy="183.097" rx="17.444" ry="9.66"/>
	<path fill="#070707" d="M281.031,136.704c-7.037,0-12.744,5.708-12.744,12.745c0,7.041,5.707,12.746,12.744,12.746
		c7.042,0,12.748-5.706,12.748-12.746C293.779,142.412,288.073,136.704,281.031,136.704z M286.16,157.555
		c-1.989,0-3.604-1.616-3.604-3.607c0-1.994,1.614-3.607,3.604-3.607c1.992,0,3.611,1.614,3.611,3.607
		C289.771,155.939,288.152,157.555,286.16,157.555z"/>
	<path fill="#070707" d="M182.131,139.743c-7.04,0-12.742,5.706-12.742,12.745c0,7.039,5.703,12.744,12.742,12.744
		c7.036,0,12.747-5.706,12.747-12.744C194.878,145.448,189.167,139.743,182.131,139.743z M187.262,160.593
		c-1.992,0-3.607-1.617-3.607-3.609c0-1.992,1.615-3.608,3.607-3.608c1.992,0,3.604,1.616,3.604,3.608
		C190.866,158.976,189.254,160.593,187.262,160.593z"/>
	<g>
		<path fill="#070707" d="M253.617,210.215c0.076,7.741,2.062,17.361-2.242,24.315c-1.728,2.792-4.889,2.933-7.767,2.278
			c-3.515-0.8-5.004-4.35-5.771-7.469c-1.252-5.088-0.518-11.042,0.951-16.003c0.229-0.775-0.977-1.103-1.205-0.332
			c-2.541,8.577-3.281,27.397,10.474,25.264c10.243-1.589,6.875-21.408,6.81-28.053
			C254.859,209.409,253.609,209.408,253.617,210.215L253.617,210.215z"/>
	</g>
	<g>
		<path fill="#070707" d="M131.331,293.344c-8.915-1.566-18.073,2.658-24.581,8.598c-4.605,4.201-6.953,10.537-0.585,14.07
			c0.706,0.391,1.336-0.688,0.631-1.08c-8.12-4.504,0.195-11.986,4.646-15.105c5.613-3.934,12.682-6.484,19.557-5.277
			C131.787,294.688,132.124,293.482,131.331,293.344L131.331,293.344z"/>
	</g>
	<g>
		<path fill="#070707" d="M112.915,309.569c-2.432,1.149-6.136,3.609-6.026,6.761c0.101,2.894,2.788,4.722,5.518,5.076
			c7.281,0.946,15.23-6.378,19.288-11.691c0.49-0.641-0.597-1.263-1.079-0.631c-3.176,4.157-7.567,7.63-12.245,9.929
			c-3.124,1.535-7.459,2.04-9.86-1.141c-2.225-2.946,3.085-6.302,5.036-7.223C114.274,310.305,113.64,309.228,112.915,309.569
			L112.915,309.569z"/>
	</g>
	<g>
		<path fill="#070707" d="M358.03,129.917c14.79,21.576,18.867,47.837,20.074,73.443c1.288,27.329-0.193,54.714,0.944,82.064
			c1.342,32.248,4.07,64.443,3.621,96.744c-0.223,16-1.608,31.756-5.869,47.229c-3.899,14.16-13.16,24.695-19.979,37.371
			c-0.764,1.42,1.395,2.682,2.158,1.262c6.271-11.654,15.121-21.645,19.186-34.438c4.496-14.148,6.294-28.926,6.817-43.711
			c1.141-32.244-1.501-64.488-3.078-96.672c-1.367-27.884-0.363-55.705-1.075-83.585c-0.63-24.615-3.575-49.935-15.166-72.032
			c-1.625-3.097-3.499-6.055-5.475-8.937C359.283,127.334,357.116,128.583,358.03,129.917L358.03,129.917z"/>
	</g>
	<g>
		<path fill="#070707" d="M249.129,89.455c-8.481-4.415-16.255-11.396-20.676-19.943c-5.973-11.546,2.94-21.706,13.78-25.107
			c12.283-3.855,19.892,7.242,27.698,14.477c6.685,6.196,14.361,8.457,23.02,5.212c-0.235-0.306-0.471-0.612-0.706-0.918
			c-7.814,14.487-22.182,6.232-34.82,9.276c-3.889,0.937-7.221,3.691-8.562,7.451c-1.502,4.206,1.92,7.864,5.057,10.028
			c0.665,0.459,1.29-0.625,0.631-1.079c-7.541-5.201-4.554-12.642,3.207-15.194c4.892-1.609,10.854-0.405,15.881-0.098
			c8.687,0.53,15.413-1.83,19.688-9.753c0.239-0.443-0.161-1.123-0.706-0.918c-15.383,5.765-22.962-7.584-33.334-15.992
			c-7.994-6.48-17.741-5.12-25.846,0.354c-19.808,13.377,0.884,35.905,15.06,43.284C249.212,90.905,249.844,89.827,249.129,89.455
			L249.129,89.455z"/>
	</g>
	<g>
		<path fill="#070707" d="M256.581,88.475c-0.94-1.319-1.794-2.888-0.493-4.257c0.998-1.051,2.664-1.482,4.008-1.87
			c2.531-0.731,5.299-0.932,7.703-2.054c-0.313-0.18-0.627-0.36-0.94-0.54c0.188,3.975-3.923,4.686-6.88,5.774
			c-2.021,0.744-3.279,2.073-2.066,4.179c0.402,0.698,1.482,0.069,1.08-0.631c-1.391-2.413,3.57-3.025,5.088-3.683
			c2.472-1.072,4.162-2.809,4.028-5.639c-0.023-0.5-0.506-0.742-0.94-0.54c-4.151,1.938-17.169,2.172-11.667,9.892
			C255.965,89.756,257.05,89.132,256.581,88.475L256.581,88.475z"/>
	</g>
	<g>
		<path fill="#070707" d="M228.721,308.418c0.806,0,0.806-1.25,0-1.25S227.915,308.418,228.721,308.418L228.721,308.418z"/>
	</g>
	<g>
		<path fill="#070707" d="M228.181,308.107c11.593,23.844,10.367,51.684,22.577,75.256c0.222,0.428,0.848,0.385,1.08,0
			c15.289-25.277,7.05-58.834,25.485-82.652c0.486-0.631-0.392-1.521-0.885-0.885c-15.832,20.457-12.478,48.223-20.401,71.693
			c-1.029,3.047-2.364,5.969-3.87,8.807c-0.984,1.855-0.971,1.182-1.796-0.508c-1.169-2.395-2.123-4.889-3.039-7.389
			c-2.667-7.273-4.301-14.908-5.877-22.475c-3.018-14.49-5.671-29.062-12.195-42.479
			C228.908,306.752,227.83,307.387,228.181,308.107L228.181,308.107z"/>
	</g>
	<g>
		<path fill="#070707" d="M277.048,300.63c14.765,9.296,35.019,7.882,51.56,5.865c9.323-1.137,18.571-3.083,27.605-5.635
			c4.504-1.272,8.926-2.832,13.257-4.601c4.583-1.872,8.93-5.524,13.891-6.117c0.79-0.095,0.8-1.346,0-1.25
			c-2.759,0.33-4.925,1.322-7.315,2.707c-4.178,2.422-8.604,4.208-13.146,5.826c-9.317,3.318-19.068,5.418-28.81,7.027
			c-17.61,2.911-40.565,5.074-56.411-4.903C276.994,299.119,276.368,300.201,277.048,300.63L277.048,300.63z"/>
	</g>
	<g>
		<path fill="#070707" d="M226.873,305.987c-15.464,6.252-31.949,5.784-48.083,2.697c-7.924-1.516-15.703-3.761-23.401-6.147
			c-7.623-2.364-15.742-4.48-23.026-7.751c-0.729-0.327-1.365,0.75-0.631,1.08c6.897,3.097,14.5,5.066,21.699,7.364
			c8.231,2.627,16.557,4.939,25.027,6.659c16.23,3.297,33.197,3.59,48.747-2.697C227.942,306.895,227.621,305.685,226.873,305.987
			L226.873,305.987z"/>
	</g>
	<g>
		<path fill="#070707" d="M129.236,403.32c2.202-1.463,7.268,1.068,9.611,1.676c5.668,1.469,11.497,2.495,17.227,3.703
			c12.445,2.624,24.928,5.062,37.468,7.188c24.774,4.202,49.853,6.909,75.005,6.628c22.544-0.251,45.137-3.348,66.662-10.144
			c16.119-5.089,31.816-11.602,47.346-18.25c0.739-0.316,0.102-1.394-0.631-1.08c-15.863,6.792-31.902,13.344-48.368,18.542
			c-23.429,7.396-48.146,9.882-72.629,9.695c-25.77-0.197-51.431-3.719-76.749-8.296c-12.236-2.212-24.411-4.75-36.567-7.362
			c-4.224-0.908-8.393-1.841-12.545-3.022c-1.827-0.52-4.694-1.531-6.461-0.358C127.938,402.685,128.562,403.768,129.236,403.32
			L129.236,403.32z"/>
	</g>
	<g>
		<path fill="#070707" d="M227.149,307.296c5.943,3.564-4.488,20.73-6.323,25.135c-2.413,5.789-1.32,12.15-0.646,18.168
			c0.487,4.357-1.143,7.195-3.272,10.768c-0.66,1.107-1.538,3.057-1.025,4.369c2.252,5.768,9.391,3.318,10.132-1.93
			c0.673-4.768-2.885-7.498-6.203-3.385c-0.501,0.623,0.378,1.512,0.884,0.885c2.825-3.502,4.49-0.496,4.028,2.775
			c-0.914,6.469-9.861,3.158-6.184-3.012c2.284-3.83,3.304-5.928,2.891-10.471c-0.511-5.619-1.605-11.133,0.163-16.68
			c1.74-5.459,13.823-23.123,6.187-27.703C227.087,305.8,226.459,306.882,227.149,307.296L227.149,307.296z"/>
	</g>
	<g>
		<path fill="#070707" d="M216.283,366.954c-1.551,4.297-7.421,6.445-8.119,11.086c-0.64,4.252,7.066,5.168,9.842,5.75
			c3.519,0.738,8.696,1.875,11.707-0.744c4.358-3.791-3.726-12.143-5.315-15.281c-0.364-0.721-1.442-0.086-1.079,0.631
			c1.493,2.947,9.972,12.158,4.331,14.482c-3.247,1.34-7.712,0.086-10.963-0.654c-2.067-0.471-4.163-0.943-6.018-2.006
			c-2.554-1.463-0.54-3.891,0.765-5.367c2.118-2.395,4.935-4.463,6.055-7.564C217.762,366.526,216.554,366.202,216.283,366.954
			L216.283,366.954z"/>
	</g>
	<g>
		<path fill="#070707" d="M276.699,301.026c3.165,13.543-1.955,26.615-3.571,39.975c-0.701,5.801-0.625,11.143,1.004,16.773
			c0.691,2.391,5.366,9.645,1.056,11.072c-0.891,0.295-2.585,0.674-3.067,1.613c-2.907,5.654,7,5.445,9.846,3.346
			c0.986-0.727,1.969-2.381,1.413-3.625c-1.004-2.242-3.689-1.518-5.522-0.898c-0.76,0.258-0.434,1.465,0.332,1.205
			c2.146-0.725,5.902,0.207,2.487,2.725c-1.113,0.646-2.317,0.934-3.613,0.857c-1.903,0.227-2.417-1.113-1.542-4.018
			c0.921-0.305,2.458-0.648,2.863-1.686c1.017-2.604,0.166-3.848-1.264-6.254c-2.433-4.096-3.292-9.891-3.276-14.535
			c0.053-15.887,7.801-30.881,4.061-46.883C277.721,299.909,276.516,300.243,276.699,301.026L276.699,301.026z"/>
	</g>
	<g>
		<path fill="#070707" d="M274.352,374.187c-2.486,2.919-6.574,9.657-4.385,13.573c1.739,3.109,9.109,1.803,11.853,1.476
			c3.481-0.416,7.988-1.44,9.231-5.187c1.593-4.8-5.104-9.571-8.57-11.301c-0.719-0.358-1.353,0.72-0.631,1.08
			c3.425,1.708,8.736,5.46,7.996,9.889c-0.565,3.379-6.179,4.048-8.823,4.363c-2.265,0.271-4.571,0.277-6.848,0.177
			c-7.022-0.311-1.268-10.453,1.062-13.186C275.756,374.461,274.876,373.572,274.352,374.187L274.352,374.187z"/>
	</g>
	<g>
		<path fill="#070707" d="M128.958,392.561c20.958,6.471,41.816,13.764,63.549,17.092c22.443,3.439,45.302,5.615,68.012,5.732
			c21.509,0.109,42.758-2.883,63.565-8.24c20.843-5.365,40.248-13.266,59.799-22.104c0.733-0.332,0.098-1.41-0.631-1.08
			c-19.486,8.811-38.784,16.506-59.501,21.979c-21.329,5.635-43.152,8.299-65.201,8.186c-22.559-0.117-45.295-2.549-67.576-5.963
			c-21.053-3.225-41.383-10.539-61.685-16.807C128.518,391.117,128.19,392.322,128.958,392.561L128.958,392.561z"/>
	</g>
	<g>
		<path fill="#070707" d="M142.848,309.842c1.703,3.406,3.444,6.779,5.539,9.967c0.44,0.67,1.523,0.045,1.079-0.631
			c-2.094-3.188-3.835-6.561-5.539-9.967C143.566,308.49,142.488,309.123,142.848,309.842L142.848,309.842z"/>
	</g>
	<g>
		<path fill="#070707" d="M140.79,318.436c4.527-1.859,7.663-5.898,12.176-7.754c0.735-0.301,0.414-1.512-0.332-1.205
			c-4.526,1.861-7.662,5.9-12.176,7.754C139.722,317.531,140.044,318.742,140.79,318.436L140.79,318.436z"/>
	</g>
	<g>
		<path fill="#070707" d="M156.233,312.738c2.846,3.385,5.946,6.562,8.207,10.393c0.409,0.693,1.49,0.064,1.079-0.631
			c-2.315-3.922-5.488-7.18-8.402-10.646C156.598,311.236,155.718,312.125,156.233,312.738L156.233,312.738z"/>
	</g>
	<g>
		<path fill="#070707" d="M154.903,323.258c2.808-2.777,5.864-5.293,9.69-6.484c0.767-0.238,0.439-1.445-0.332-1.205
			c-4.032,1.254-7.28,3.877-10.242,6.805C153.446,322.939,154.33,323.824,154.903,323.258L154.903,323.258z"/>
	</g>
	<g>
		<path fill="#070707" d="M171.737,316.061c3.326,2.852,5.879,6.395,7.652,10.393c0.326,0.734,1.403,0.098,1.079-0.631
			c-1.812-4.088-4.45-7.732-7.848-10.646C172.013,314.654,171.125,315.535,171.737,316.061L171.737,316.061z"/>
	</g>
	<g>
		<path fill="#070707" d="M172.804,325.584c0.246-4.812,6.565-7.896,10.206-9.979c0.699-0.4,0.07-1.48-0.631-1.08
			c-4.094,2.342-10.549,5.658-10.825,11.059C171.513,326.391,172.763,326.387,172.804,325.584L172.804,325.584z"/>
	</g>
	<g>
		<path fill="#070707" d="M188.472,317.816c3.808,2.881,5.793,7.354,8.078,11.406c0.396,0.701,1.476,0.072,1.079-0.631
			c-2.412-4.279-4.513-8.818-8.526-11.855C188.459,316.25,187.837,317.336,188.472,317.816L188.472,317.816z"/>
	</g>
	<g>
		<path fill="#070707" d="M189.327,327.559c2.815-3.74,6.97-5.828,11.25-7.463c0.745-0.285,0.422-1.494-0.332-1.205
			c-4.622,1.766-8.964,4.008-11.997,8.037C187.762,327.572,188.849,328.193,189.327,327.559L189.327,327.559z"/>
	</g>
	<g>
		<path fill="#070707" d="M208.274,319.936c2.828,3.305,6.349,5.693,10.095,7.848c0.7,0.402,1.33-0.68,0.631-1.08
			c-3.655-2.102-7.082-4.426-9.842-7.652C208.633,318.438,207.753,319.326,208.274,319.936L208.274,319.936z"/>
	</g>
	<g>
		<path fill="#070707" d="M209.319,329.625c1.792-5.391,6.788-8.426,10.914-11.906c0.617-0.52-0.272-1.4-0.884-0.885
			c-4.334,3.656-9.357,6.812-11.235,12.459C207.858,330.059,209.066,330.385,209.319,329.625L209.319,329.625z"/>
	</g>
	<g>
		<path fill="#070707" d="M285.782,314.4c4.629,3.646,6.965,9.42,12.308,12.277c0.711,0.379,1.342-0.699,0.631-1.08
			c-5.235-2.801-7.513-8.504-12.054-12.082C286.041,313.023,285.149,313.9,285.782,314.4L285.782,314.4z"/>
	</g>
	<g>
		<path fill="#070707" d="M297.409,314.068c-5.091,4.064-9.205,9.143-12.832,14.523c-0.451,0.67,0.632,1.295,1.08,0.631
			c3.569-5.297,7.625-10.271,12.637-14.27C298.924,314.449,298.033,313.57,297.409,314.068L297.409,314.068z"/>
	</g>
	<g>
		<path fill="#070707" d="M305.616,318.148c3.59,4.705,7.805,8.885,12.961,11.85c0.7,0.402,1.329-0.678,0.631-1.08
			c-4.963-2.854-9.056-6.871-12.512-11.4C306.214,316.885,305.127,317.506,305.616,318.148L305.616,318.148z"/>
	</g>
	<g>
		<path fill="#070707" d="M316.232,317.391c-3.843,4.5-6.812,9.6-10.062,14.523c-0.445,0.674,0.638,1.301,1.08,0.631
			c3.189-4.834,6.094-9.854,9.867-14.27C317.637,317.666,316.757,316.777,316.232,317.391L316.232,317.391z"/>
	</g>
	<g>
		<path fill="#070707" d="M326.326,317.816c3.51,2.318,7.179,4.375,11.221,5.602c0.773,0.234,1.102-0.973,0.332-1.205
			c-3.942-1.197-7.501-3.217-10.922-5.477C326.282,316.291,325.657,317.375,326.326,317.816L326.326,317.816z"/>
	</g>
	<g>
		<path fill="#070707" d="M335.61,312.963c-3.668,4.381-6.595,9.322-8.953,14.52c-0.33,0.729,0.747,1.363,1.08,0.631
			c2.312-5.094,5.16-9.971,8.758-14.266C337.009,313.232,336.129,312.344,335.61,312.963L335.61,312.963z"/>
	</g>
	<g>
		<path fill="#070707" d="M345.02,312.738c3.771,3.15,7.633,6.551,12.46,7.91c0.777,0.219,1.106-0.988,0.332-1.205
			c-4.614-1.299-8.305-4.58-11.907-7.59C345.29,311.342,344.4,312.221,345.02,312.738L345.02,312.738z"/>
	</g>
	<g>
		<path fill="#070707" d="M353.782,309.211c-2.799,4.48-5.511,8.98-7.258,13.99c-0.267,0.764,0.941,1.088,1.205,0.332
			c1.712-4.908,4.392-9.303,7.133-13.691C355.29,309.156,354.209,308.529,353.782,309.211L353.782,309.211z"/>
	</g>
	<g>
		<path fill="#070707" d="M364.301,305.969c2.786,4.447,8.262,6.213,12.402,9.082c0.664,0.459,1.288-0.625,0.631-1.08
			c-3.928-2.721-9.317-4.426-11.953-8.633C364.954,304.656,363.872,305.283,364.301,305.969L364.301,305.969z"/>
	</g>
	<g>
		<path fill="#070707" d="M372.052,303.123c-2.402,5.658-6.452,10.398-8.858,16.055c-0.312,0.732,0.765,1.369,1.08,0.631
			c2.406-5.656,6.456-10.396,8.858-16.055C373.442,303.021,372.366,302.383,372.052,303.123L372.052,303.123z"/>
	</g>
	<g>
		<path fill="#070707" d="M219.412,369.491c-0.61,2.285-1.65,4.391-2.707,6.496c-0.361,0.717,0.717,1.352,1.079,0.631
			c1.104-2.199,2.196-4.408,2.833-6.795C220.825,369.044,219.619,368.714,219.412,369.491L219.412,369.491z"/>
	</g>
	<g>
		<path fill="#070707" d="M277.403,374.737c0.037,2.805,0.537,5.529,1.748,8.07c0.347,0.729,1.425,0.094,1.08-0.631
			c-1.114-2.338-1.544-4.863-1.578-7.439C278.643,373.933,277.393,373.931,277.403,374.737L277.403,374.737z"/>
	</g>
</g>
</svg>
