<?xml version="1.0" encoding="utf-8"?>
<!-- Generator: Adobe Illustrator 16.0.0, SVG Export Plug-In . SVG Version: 6.00 Build 0)  -->
<!DOCTYPE svg PUBLIC "-//W3C//DTD SVG 1.1//EN" "http://www.w3.org/Graphics/SVG/1.1/DTD/svg11.dtd">
<svg version="1.1" id="Layer_1" xmlns="http://www.w3.org/2000/svg" xmlns:xlink="http://www.w3.org/1999/xlink" x="0px" y="0px"
	 width="500px" height="550px" viewBox="0 0 500 550" enable-background="new 0 0 500 550" xml:space="preserve">
<g>
	<g>
		<path fill="#070707" d="M282.375,386.701c-6.482-11.329-19.311-16.359-31.932-16.25c-12.242,0.106-26.799,0.869-36.792,8.853
			c-23.246,18.57-11.779,53.531-12.786,78.647c-0.064,1.612,2.436,1.606,2.5,0c0.947-23.628-8.936-52.974,7.955-73.076
			c8.386-9.979,22.904-11.294,35.007-11.796c13.152-0.545,26.871,2.618,33.891,14.884
			C281.017,389.361,283.178,388.103,282.375,386.701L282.375,386.701z"/>
	</g>
	<g>
		<path fill="#070707" d="M229.919,374.898c1.612,0,1.612-2.5,0-2.5S228.307,374.898,229.919,374.898L229.919,374.898z"/>
	</g>
	<g>
		<path fill="#070707" d="M202.115,397.526c-5.055-1.299-8.204-5.188-6.43-10.415c1.738-5.123,10.486-8.413,14.763-4.536
			c1.191,1.08,2.964-0.683,1.768-1.768c-5.595-5.073-15.491-1.471-18.562,4.732c-3.259,6.584,1.356,12.742,7.797,14.396
			C203.013,400.338,203.675,397.927,202.115,397.526L202.115,397.526z"/>
	</g>
	<g>
		<path fill="#070707" d="M276.027,380.924c4.436-2.209,11.146-3.451,14.406,1.24c3.328,4.789,1.059,12.036-4.785,13.256
			c-1.578,0.329-0.908,2.738,0.664,2.41c7.544-1.573,9.627-9.843,6.707-16.178c-3.227-7-12.626-5.689-18.254-2.887
			C273.322,379.484,274.589,381.641,276.027,380.924L276.027,380.924z"/>
	</g>
	<g>
		<path fill="#070707" d="M238.605,406.263c0.153-0.022,0.308-0.044,0.461-0.066c-0.11-0.402-0.222-0.804-0.332-1.206
			c-2.911,1.1-6.645,3.467-6.47,7.061c0.264,5.428,9.208,2.703,11.761,2.116c4.109-0.944,10.129,4.031,11.766-2.232
			c1.059-4.057-4.808-6.585-7.632-7.648c-0.756-0.285-1.079,0.924-0.332,1.205c2.423,0.913,4.921,2.052,6.389,4.293
			c-0.559,3.418-1.877,4.746-3.954,3.984c-0.569-0.162-1.138-0.33-1.703-0.504c-0.881-0.265-1.721-0.408-2.631-0.481
			c-2.891-0.231-5.64,1.355-8.518,1.494c-3.743-1.577-4.639-3.312-2.686-5.204c0.401-0.445,0.832-0.858,1.293-1.241
			c0.99-0.886,1.878-1.193,3.049-1.636c0.766-0.289,0.46-1.32-0.332-1.206c-0.154,0.022-0.308,0.045-0.461,0.067
			C237.479,405.173,237.817,406.377,238.605,406.263L238.605,406.263z"/>
	</g>
	<g>
		<path fill="#070707" d="M248.937,414.605c0.578,1.453,0.728,3.054,0.677,4.605c-0.029,0.9-0.198,1.928-0.823,2.617
			c-1,1.104-3.863,0.515-3.551-1.285c0.137-0.788-1.067-1.125-1.205-0.332c-0.556,3.193,3.544,4.247,5.64,2.501
			c2.051-1.707,1.309-6.326,0.468-8.438C249.848,413.533,248.638,413.855,248.937,414.605L248.937,414.605z"/>
	</g>
	<g>
		<path fill="#070707" d="M288.783,441.654c2.211-0.122,4.348,0.388,6.203,1.611c1.736,1.146,3.172,3.927,2.074,5.94
			c-0.724,1.327-2.904,0.688-3.973,0.309c-1.487-0.526-2.874-1.51-3.862-2.733c-0.508-0.627-1.387,0.264-0.885,0.885
			c1.851,2.286,7.848,5.751,9.92,1.949c1.139-2.089-0.074-4.925-1.525-6.497c-1.938-2.099-5.202-2.865-7.952-2.714
			C287.981,440.448,287.978,441.698,288.783,441.654L288.783,441.654z"/>
	</g>
	<g>
		<path fill="#070707" d="M293.521,447.314c1.24,0.38,2.987,1.436,2.207,2.954c-0.367,0.716,0.711,1.348,1.08,0.631
			c1.19-2.318-0.859-4.148-2.955-4.79C293.081,445.873,292.753,447.079,293.521,447.314L293.521,447.314z"/>
	</g>
	<path fill="none" stroke="#070707" stroke-width="1.5" stroke-miterlimit="10" d="M274.179,391.953
		c0-7.415-6.014-13.426-13.426-13.426c-7.415,0-13.429,6.011-13.429,13.426c0,7.412,6.014,13.422,13.429,13.422
		C268.165,405.375,274.179,399.365,274.179,391.953z"/>
	<circle fill="none" stroke="#070707" stroke-width="1.5" stroke-miterlimit="10" cx="226.943" cy="393.375" r="13.424"/>
	<path fill="#070707" d="M286.459,386.637c0-1.568-1.272-2.839-2.839-2.839c-1.57,0-2.843,1.271-2.843,2.839
		c0,1.569,1.272,2.843,2.843,2.843C285.187,389.479,286.459,388.206,286.459,386.637z"/>
	<path fill="#070707" d="M206.568,390.176c0-1.573-1.271-2.843-2.837-2.843c-1.572,0-2.84,1.27-2.84,2.843
		c0,1.565,1.268,2.838,2.84,2.838C205.298,393.014,206.568,391.741,206.568,390.176z"/>
	<path fill="#070707" d="M249.936,404.339c0-1.837-2.689-3.324-6.005-3.324s-6.007,1.487-6.007,3.324
		c0,1.84,2.691,3.328,6.007,3.328S249.936,406.179,249.936,404.339z"/>
	<path fill="#070707" d="M253.712,388.365c-2.427,0-4.387,1.964-4.387,4.387c0,2.425,1.96,4.391,4.387,4.391
		c2.426,0,4.391-1.966,4.391-4.391C258.103,390.329,256.138,388.365,253.712,388.365z M255.481,395.544
		c-0.688,0-1.246-0.558-1.246-1.239c0-0.689,0.559-1.247,1.246-1.247c0.683,0,1.24,0.558,1.24,1.247
		C256.722,394.986,256.164,395.544,255.481,395.544z"/>
	<path fill="#070707" d="M219.651,389.409c-2.424,0-4.389,1.964-4.389,4.391c0,2.423,1.965,4.388,4.389,4.388
		s4.389-1.965,4.389-4.388C224.04,391.373,222.075,389.409,219.651,389.409z M221.419,396.588c-0.686,0-1.241-0.554-1.241-1.24
		c0-0.688,0.556-1.241,1.241-1.241c0.688,0,1.241,0.554,1.241,1.241C222.66,396.034,222.106,396.588,221.419,396.588z"/>
	<g>
		<path fill="#070707" d="M243.816,414.464c0.17,2.27,0.763,5.766-0.893,7.62c-1.481,1.66-3.348-0.522-3.693-1.928
			c-0.414-1.682-0.158-3.653,0.328-5.292c0.23-0.774-0.977-1.103-1.205-0.332c-0.886,2.98-1.11,10.049,3.84,9.238
			c3.83-0.627,3.076-6.589,2.873-9.307C245.007,413.665,243.756,413.659,243.816,414.464L243.816,414.464z"/>
	</g>
	<g>
		<path fill="#070707" d="M202.268,441.913c-3.224-0.566-6.506,0.913-8.866,3.065c-1.778,1.623-2.557,4.136-0.12,5.49
			c0.705,0.392,1.335-0.688,0.631-1.08c-2.364-1.313,0.285-3.571,1.603-4.494c1.834-1.285,4.166-2.172,6.42-1.776
			C202.724,443.257,203.061,442.053,202.268,441.913L202.268,441.913z"/>
	</g>
	<g>
		<path fill="#070707" d="M195.607,447.543c-0.991,0.467-2.176,1.36-2.264,2.559c-0.091,1.245,1.062,2.129,2.224,2.258
			c1.246,0.138,2.519-0.606,3.543-1.223c1.039-0.625,2.167-1.402,2.935-2.354c0.501-0.622-0.378-1.512-0.884-0.885
			c-0.946,1.173-2.373,2.049-3.696,2.727c-0.812,0.415-1.55,0.665-2.405,0.262c-1.39-0.654,0.541-1.963,1.178-2.263
			C196.967,448.279,196.333,447.202,195.607,447.543L195.607,447.543z"/>
	</g>
	<g>
		<path fill="#070707" d="M279.519,386.438c11.491,20.919,3.779,45.599,7.934,68.081c0.292,1.584,2.701,0.911,2.41-0.664
			c-4.217-22.823,3.514-47.382-8.186-68.679C280.9,383.764,278.742,385.024,279.519,386.438L279.519,386.438z"/>
	</g>
	<g>
		<path fill="#070707" d="M294.001,454.769c-5.119-2.184-11.227-1.282-16.596-0.762c-7.553,0.732-14.938,1.098-22.524,1.351
			c-10.069,0.336-20.115,1.064-30.194,1.069c-8.757,0.004-17.922-1.178-26.498,1.075c-1.558,0.409-0.896,2.82,0.665,2.41
			c7.688-2.02,16.092-1.164,23.962-1.003c9.434,0.192,18.877-0.477,28.297-0.9c7.446-0.335,14.846-0.267,22.262-1.072
			c5.87-0.639,13.717-2.418,19.364-0.01C294.205,457.552,295.479,455.399,294.001,454.769L294.001,454.769z"/>
	</g>
	<g>
		<path fill="#070707" d="M196.177,458.769c-2.368,1.547-1.897,3.917-0.766,6.178c1.643,3.284,5.215,4.342,8.55,4.79
			c5.323,0.715,10.992-0.375,16.268-1.035c6.84-0.854,13.495-0.585,20.377-0.372c14.971,0.462,30.519,1.865,45.457,0.542
			c7.64-0.678,13.344-4.742,8.954-12.51c-0.793-1.403-2.952-0.144-2.158,1.262c5.833,10.322-11.503,8.986-17.223,8.953
			c-10.37-0.061-20.738-0.327-31.104-0.629c-8.674-0.253-17.071-0.649-25.692,0.428c-3.712,0.464-7.418,0.892-11.161,1.003
			c-1.876,0.056-3.724-0.09-5.564-0.459c-0.888-0.179-7.626-4.065-4.677-5.992C198.783,460.049,197.531,457.884,196.177,458.769
			L196.177,458.769z"/>
	</g>
	<g>
		<path fill="#070707" d="M197.316,467.606c3.8,14.432-12.013,35.522,3.335,46.714c4.97,3.624,12.307,3.552,18.154,3.755
			c10.545,0.364,20.651-0.404,31.064-2.047c4.945-0.78,9.961-1.835,14.966-2.071c3.943-0.186,7.956,0.473,11.874,0.832
			c6.53,0.6,14.252,1.021,19.186-4.083c4.717-4.877,4.361-14.133,4.067-20.311c-0.434-9.101-2.541-18.03-3.056-27.12
			c-0.091-1.603-2.591-1.611-2.5,0c0.404,7.143,1.756,14.208,2.562,21.31c0.879,7.746,1.674,16.761-2.391,23.771
			c-3.755,6.476-15.664,4.16-21.643,3.572c-7.598-0.748-14.495,0.228-22.021,1.417c-9.495,1.502-18.843,2.701-28.475,2.345
			c-6.558-0.243-13.772,0.163-19.729-3.03c-8.162-4.376-6.578-15.727-4.999-23.13c1.575-7.383,4-15.052,2.016-22.588
			C199.316,465.385,196.905,466.046,197.316,467.606L197.316,467.606z"/>
	</g>
	<g>
		<path fill="#070707" d="M198.412,513.556c-1.241,15.427,30.117,10.5,38.663,10.35c6.922-0.121,13.989,1.1,20.929,1.351
			c8.879,0.32,17.772,0.185,26.65-0.101c8.463-0.271,19.184-4.606,12.65-14.513c-0.883-1.339-3.049-0.089-2.158,1.262
			c8.727,13.234-19.631,11.009-25.633,11.028c-7.022,0.022-14.042-0.202-21.05-0.652c-4.226-0.271-8.426-0.96-12.664-0.846
			c-7.091,0.19-35.871,4.337-34.888-7.879C201.042,511.947,198.541,511.96,198.412,513.556L198.412,513.556z"/>
	</g>
	<g>
		<path fill="#070707" d="M220.74,468.086c-2.922,8.159-3.701,17.399-4.066,25.993c-0.294,6.903-0.863,18.124,4.96,23.218
			c1.208,1.057,2.983-0.704,1.768-1.768c-5.523-4.832-4.455-16.104-4.178-22.635c0.341-7.996,1.211-16.559,3.927-24.145
			C223.695,467.229,221.279,466.579,220.74,468.086L220.74,468.086z"/>
	</g>
	<g>
		<path fill="#070707" d="M273.264,468.418c0.071,6.878,1.018,13.735,1.336,20.605c0.307,6.591,1.238,17.745-4.718,22.311
			c-1.261,0.966-0.019,3.14,1.262,2.158c5.456-4.182,5.884-11.974,6.049-18.305c0.232-8.958-1.336-17.829-1.429-26.77
			C275.747,466.807,273.247,466.805,273.264,468.418L273.264,468.418z"/>
	</g>
	<g>
		<path fill="#070707" d="M245.266,468.418c-0.028,8.25-0.407,16.491-0.272,24.743c0.111,6.796,0.066,14.841,3.304,21.025
			c0.748,1.429,2.905,0.165,2.158-1.262c-3.227-6.165-2.874-14.352-2.984-21.114c-0.127-7.8,0.269-15.595,0.295-23.393
			C247.771,466.806,245.271,466.806,245.266,468.418L245.266,468.418z"/>
	</g>
	<g>
		<path fill="#070707" d="M217.439,454.942c-3.213-15.837-7.42-31.441-11.107-47.169c-3.681-15.703-6.275-31.633-8.836-47.55
			c-5.257-32.671-7.513-65.251-9.598-98.231c-1.034-16.358-2.199-32.708-3.232-49.066c-1.001-15.832-2.329-31.733-1.522-47.599
			c1.557-30.625,11.828-59.09,25.45-86.269c9.167-18.289,21.387-39.12,39.695-49.515c1.401-0.795,0.143-2.956-1.262-2.158
			c-21.899,12.434-35.274,38.542-45.471,60.544c-12.247,26.426-20.22,53.633-21.138,82.897c-0.501,15.961,1.099,32.076,2.124,47.994
			c1.053,16.358,2.214,32.709,3.225,49.07c1.972,31.888,4.545,63.332,9.625,94.903c2.46,15.288,5.042,30.554,8.53,45.646
			c3.638,15.74,7.893,31.329,11.106,47.168C215.349,457.187,217.758,456.516,217.439,454.942L217.439,454.942z"/>
	</g>
	<g>
		<path fill="#070707" d="M248.745,29.542c21.224,16.12,33.412,41.939,41.128,66.786c9.488,30.559,14.743,61.548,16.104,93.504
			c1.386,32.568,0.017,65.589-4.532,97.877c-2.235,15.865-5.619,31.553-8.926,47.221c-3.263,15.464-5.893,31.064-9.314,46.49
			c-5.365,24.193-11.654,47.757-11.654,72.714c0,1.612,2.5,1.612,2.5,0c0-31.41,9.832-61.394,15.51-92.036
			c5.757-31.071,13.454-61.612,16.571-93.129c6.08-61.466,3.695-124.551-17.081-183.221c-7.78-21.968-20.22-44.068-39.043-58.364
			C248.723,26.408,247.479,28.581,248.745,29.542L248.745,29.542z"/>
	</g>
	<g>
		<path fill="#070707" d="M194.488,384.112c-16.214-25.391-36.179-47.93-55.301-71.109c-18.856-22.858-37.585-46.472-48.583-74.281
			c-11.408-28.849-12.671-62.542-7.774-92.889c4.075-25.252,15.844-48.133,33.794-66.326c16.125-16.342,36.725-27.497,58.108-35.363
			c11.614-4.272,23.639-7.371,35.765-9.784c6.346-1.263,12.745-2.25,19.158-3.099c5.904-0.781,12.061-1.99,18.001-2.171
			c0.804-0.024,0.807-1.274,0-1.25c-6.59,0.201-13.235,1.541-19.769,2.405c-7.109,0.941-14.178,2.168-21.202,3.614
			c-14.411,2.965-28.537,7.261-42.111,12.938c-23.057,9.642-43.875,23.975-59.33,43.764c-15.007,19.217-22.429,41.93-25.121,65.932
			c-3.175,28.315-0.546,59.457,10.614,85.886c10.795,25.563,27.908,47.561,45.383,68.859c19.716,24.028,40.513,47.24,57.287,73.507
			C193.841,385.42,194.924,384.794,194.488,384.112L194.488,384.112z"/>
	</g>
	<g>
		<path fill="#070707" d="M293.337,377.886c12.281-25.186,33.741-44.233,53.106-63.885c17.81-18.073,34.907-37.48,46.627-60.149
			c25.286-48.914,19.805-110.057-10.244-155.627c-14.128-21.427-34.312-36.394-56.269-49.075
			c-22.951-13.255-51.398-25.125-78.493-20.719c-0.794,0.129-0.456,1.333,0.332,1.205c30.373-4.939,61.568,10.543,86.567,25.999
			c22.877,14.143,41.561,31.96,54.28,55.857c13.974,26.254,20.565,56.741,18.298,86.381c-2.2,28.759-13.161,55.438-30.036,78.616
			c-13.068,17.95-28.963,33.654-44.604,49.323c-15.434,15.461-30.971,31.604-40.645,51.442
			C291.905,377.977,292.983,378.61,293.337,377.886L293.337,377.886z"/>
	</g>
	<g>
		<path fill="#070707" d="M107.706,274.467c9.329,12.927,15.332,27.709,21.051,42.488c5.947,15.369,12.381,30.354,19.587,45.183
			c7.818,16.088,16.036,31.979,23.758,48.115c3.729,7.792,7.065,15.754,11.357,23.263c4.622,8.085,9.867,15.851,12.747,24.785
			c0.246,0.764,1.453,0.438,1.205-0.332c-2.35-7.29-6.232-13.854-10.123-20.409c-4.711-7.939-8.546-16.128-12.465-24.474
			c-7.874-16.771-16.408-33.223-24.56-49.857c-7.732-15.777-14.564-31.778-20.902-48.157c-5.556-14.355-11.519-28.685-20.577-41.235
			C108.318,273.189,107.233,273.812,107.706,274.467L107.706,274.467z"/>
	</g>
	<g>
		<path fill="#070707" d="M382.447,269.01c-0.933,7.973-6.265,14.749-10.467,21.316c-4.391,6.861-8.314,14.02-12.007,21.276
			c-8.07,15.858-15.083,32.284-22.718,48.358c-7.917,16.668-15.851,33.329-23.488,50.128c-7.263,15.974-11.809,33.005-19.225,48.871
			c-0.339,0.726,0.738,1.36,1.08,0.631c7.416-15.868,11.983-32.888,19.225-48.871c7.887-17.41,16.138-34.653,24.338-51.918
			c7.872-16.574,15.104-33.497,23.524-49.802c3.877-7.508,8.201-14.769,12.81-21.848c3.636-5.584,7.388-11.39,8.178-18.143
			C383.791,268.21,382.54,268.219,382.447,269.01L382.447,269.01z"/>
	</g>
	<g>
		<path fill="#070707" d="M100.115,258.595c14.383-16.472,38.778-19.449,58.917-23.981c27.426-6.171,56.542-8.038,84.59-8.621
			c28.773-0.598,57.584,1.777,85.827,7.323c10.842,2.129,21.716,4.239,32.528,6.513c10.521,2.212,21.72,4.931,30.492,11.437
			c0.648,0.481,1.271-0.605,0.631-1.079c-8.101-6.007-18.208-8.69-27.888-10.925c-11.101-2.562-22.381-4.456-33.538-6.768
			c-28.926-5.997-58.544-8.238-88.053-7.75c-28.815,0.476-58.587,2.74-86.751,9.077c-19.828,4.461-43.485,7.679-57.64,23.891
			C98.704,258.315,99.584,259.203,100.115,258.595L100.115,258.595z"/>
	</g>
	<g>
		<path fill="#070707" d="M248.636,28.431c-22.526,3.361-44.18,10.509-63.195,23.236c-18.776,12.567-33.317,30.104-44.273,49.706
			c-11.33,20.271-18.948,43.271-19.892,66.567c-0.474,11.687,1.554,23.554,3.559,35.032c2.212,12.661,6.053,24.864,12.638,35.95
			c0.411,0.692,1.492,0.064,1.079-0.631c-6.271-10.559-9.897-22.025-12.213-34.026c-2.2-11.397-3.987-23.189-3.853-34.817
			c0.272-23.57,8.558-46.966,19.761-67.444c10.95-20.018,26.047-37.359,45.048-50.077c18.426-12.333,39.892-19.041,61.672-22.291
			C249.763,29.517,249.424,28.313,248.636,28.431L248.636,28.431z"/>
	</g>
	<g>
		<path fill="#070707" d="M250.09,28.697c10.538,2.192,19.51,8.307,28.305,14.21c8.91,5.981,17.887,11.759,26.312,18.429
			c16.798,13.297,30.276,30.084,40.375,48.935c20.466,38.204,25.296,85.319,12.499,126.728c-0.239,0.772,0.968,1.1,1.205,0.332
			c12.833-41.524,7.807-87.661-11.861-126.23c-10.021-19.65-24.19-36.824-41.334-50.648c-8.44-6.807-17.576-12.592-26.565-18.625
			c-8.889-5.965-17.959-12.123-28.604-14.336C249.636,27.328,249.301,28.533,250.09,28.697L250.09,28.697z"/>
	</g>
	<g>
		<path fill="#070707" d="M85.704,134.133c9.929-6.188,19.623-12.756,29.825-18.497c11.289-6.352,23.474-11.024,35.523-15.712
			c12.123-4.716,24.485-8.801,37.18-11.671c13.729-3.104,27.96-4.432,41.963-5.649c53.241-4.629,107.53,2.807,156.562,24.677
			c0.729,0.326,1.366-0.751,0.631-1.079c-49.385-22.027-103.589-29.274-157.193-24.848c-13.517,1.116-27.17,2.589-40.47,5.301
			c-13.352,2.723-26.309,7.184-39.005,12.064c-11.659,4.482-23.363,9.101-34.369,15.037c-10.784,5.816-20.89,12.823-31.278,19.298
			C84.391,133.479,85.018,134.561,85.704,134.133L85.704,134.133z"/>
	</g>
	<g>
		<path fill="#070707" d="M248.199,28.867c-4.69,16.999-5.136,34.579-5.295,52.103c-0.173,19.072-1.429,38.09-1.723,57.159
			c-0.291,18.829,0.267,37.643,0.808,56.46c0.208,7.241,0.935,14.421,1.615,21.622c0.141,1.491-0.257,7.464,1.36,8.368
			c0.294,0.165,0.684,0.076,0.855-0.225c0.032-0.056,0.063-0.111,0.095-0.167c0.399-0.702-0.681-1.331-1.079-0.631
			c0.745-1.31,0.971,1.287,0.592-1.547c-0.12-0.9-0.198-1.806-0.287-2.709c-0.221-2.253-0.4-4.51-0.668-6.758
			c-0.925-7.779-1.283-15.693-1.332-23.524c-0.114-18.276-0.97-36.501-0.645-54.792c0.305-17.142,1.5-34.235,1.643-51.381
			c0.15-18.031,0.437-36.143,5.266-53.645C249.619,28.421,248.413,28.091,248.199,28.867L248.199,28.867z"/>
	</g>
	<g>
		<path fill="#070707" d="M81.26,197.459c12.209-10.048,23.678-24.067,41.104-16.981c0.747,0.304,1.069-0.906,0.332-1.205
			c-17.859-7.262-29.731,6.941-42.32,17.302C79.753,197.088,80.643,197.967,81.26,197.459L81.26,197.459z"/>
	</g>
	<g>
		<path fill="#070707" d="M123.414,180.415c8.087-5.561,14.398-11.187,24.304-13.289c10.966-2.327,22.809,0.721,32.775,5.288
			c0.727,0.333,1.363-0.744,0.631-1.079c-10.034-4.598-20.846-7.076-31.891-5.716c-10.85,1.336-17.813,7.779-26.45,13.717
			C122.124,179.789,122.748,180.873,123.414,180.415L123.414,180.415z"/>
	</g>
	<g>
		<path fill="#070707" d="M182.491,172.189c11.031-16.853,43.208-20.657,58.441-7.871c0.613,0.515,1.503-0.365,0.885-0.884
			c-15.884-13.332-48.889-9.469-60.405,8.124C180.969,172.235,182.051,172.861,182.491,172.189L182.491,172.189z"/>
	</g>
	<g>
		<path fill="#070707" d="M243.255,165.624c21.815-8.758,45.447-8.914,62.239,9.552c0.544,0.598,1.425-0.289,0.885-0.884
			c-17.063-18.764-41.208-18.806-63.456-9.874C242.185,164.715,242.507,165.924,243.255,165.624L243.255,165.624z"/>
	</g>
	<g>
		<path fill="#070707" d="M306.379,173.462c16.078-13.794,46.174-13.938,58.442,5.014c0.437,0.674,1.52,0.048,1.08-0.631
			c-12.732-19.667-43.698-19.601-60.407-5.267C304.882,173.104,305.771,173.984,306.379,173.462L306.379,173.462z"/>
	</g>
	<g>
		<path fill="#070707" d="M365.677,178.129c11.99-7.534,34.082-5.63,41.998,7.206c0.423,0.685,1.504,0.057,1.08-0.631
			c-8.28-13.425-31.121-15.563-43.709-7.654C364.365,177.478,364.992,178.56,365.677,178.129L365.677,178.129z"/>
	</g>
	<g>
		<path fill="#070707" d="M200.401,478.733c6-1.014,11.96-1.105,17.953,0c0.788,0.146,1.124-1.059,0.332-1.205
			c-6.208-1.146-12.402-1.051-18.617,0C199.275,477.662,199.613,478.867,200.401,478.733L200.401,478.733z"/>
	</g>
	<g>
		<path fill="#070707" d="M198.115,491.875c6.188-2.302,13.261-2.866,19.665-1.141c0.779,0.21,1.11-0.996,0.332-1.205
			c-6.608-1.781-13.937-1.237-20.329,1.141C197.034,490.948,197.358,492.157,198.115,491.875L198.115,491.875z"/>
	</g>
	<g>
		<path fill="#070707" d="M197.783,499.874c6.443,1.889,13.102,3.273,19.762,1.712c0.785-0.184,0.452-1.389-0.332-1.205
			c-6.439,1.509-12.876,0.111-19.098-1.712C197.339,498.441,197.011,499.647,197.783,499.874L197.783,499.874z"/>
	</g>
	<g>
		<path fill="#070707" d="M220.972,506.095c-0.199-0.066-1.31-0.349-1.564-0.507c-0.105,0.389-0.211,0.776-0.316,1.165
			c9.032,0.592,18.067,1.026,27.019-0.595c0.793-0.144,0.456-1.348-0.332-1.205c-8.842,1.601-17.772,1.134-26.687,0.55
			c-0.648-0.042-0.816,0.854-0.315,1.165c0.734,0.455,0.91,0.316,1.864,0.632C221.407,507.554,221.733,506.347,220.972,506.095
			L220.972,506.095z"/>
	</g>
	<g>
		<path fill="#070707" d="M220.232,495.896c8.287,0.037,16.555,0.42,24.736-1.163c0.791-0.152,0.455-1.357-0.332-1.205
			c-8.075,1.562-16.23,1.154-24.404,1.118C219.426,494.642,219.427,495.892,220.232,495.896L220.232,495.896z"/>
	</g>
	<g>
		<path fill="#070707" d="M220.066,483.875c8.275,1.678,16.573,2.182,24.902,0.573c0.791-0.152,0.455-1.357-0.332-1.205
			c-8.128,1.569-16.161,1.063-24.238-0.573C219.611,482.511,219.276,483.715,220.066,483.875L220.066,483.875z"/>
	</g>
	<g>
		<path fill="#070707" d="M247.657,481.043c9.333,0,18.666,0,27.999,0c0.806,0,0.806-1.25,0-1.25c-9.333,0-18.666,0-27.999,0
			C246.852,479.793,246.852,481.043,247.657,481.043L247.657,481.043z"/>
	</g>
	<g>
		<path fill="#070707" d="M248.1,490.574c2.184-2.014,10.565-0.415,13.216-0.252c4.257,0.261,8.914,0.354,13.032,1.553
			c0.775,0.227,1.104-0.98,0.332-1.205c-4.904-1.429-10.473-1.446-15.53-1.724c-2.798-0.153-9.569-1.436-11.935,0.743
			C246.621,490.237,247.508,491.119,248.1,490.574L248.1,490.574z"/>
	</g>
	<g>
		<path fill="#070707" d="M246.35,501.018c9.448,2.726,19.138-0.374,28.736,0.022c0.807,0.033,0.803-1.217,0-1.25
			c-9.476-0.392-19.077,2.713-28.404,0.022C245.905,499.589,245.576,500.795,246.35,501.018L246.35,501.018z"/>
	</g>
	<g>
		<path fill="#070707" d="M275.086,507.322c7.126,0.056,16.044,1.753,22.6-1.798c0.709-0.385,0.078-1.464-0.631-1.08
			c-6.262,3.393-15.131,1.682-21.969,1.628C274.279,506.066,274.28,507.316,275.086,507.322L275.086,507.322z"/>
	</g>
	<g>
		<path fill="#070707" d="M277.205,497.588c7.536,1.959,14.618-0.362,22.044-1.715c0.792-0.145,0.456-1.349-0.332-1.205
			c-7.169,1.305-14.079,3.612-21.38,1.715C276.756,496.18,276.426,497.386,277.205,497.588L277.205,497.588z"/>
	</g>
	<g>
		<path fill="#070707" d="M274.92,479.304c7.074,1.536,14.175,0.066,21.306,0.593c0.805,0.06,0.799-1.191,0-1.25
			c-7.02-0.519-14.008,0.964-20.974-0.548C274.466,477.928,274.132,479.133,274.92,479.304L274.92,479.304z"/>
	</g>
	<g>
		<path fill="#070707" d="M277.773,489.018c6.783,1.78,14.121,0.735,20.904-0.569c0.791-0.152,0.455-1.356-0.332-1.205
			c-6.532,1.257-13.701,2.286-20.24,0.569C277.325,487.607,276.994,488.813,277.773,489.018L277.773,489.018z"/>
	</g>
	<g>
		<path fill="#070707" d="M291.781,377.841c-0.21,0.255-0.421,0.509-0.632,0.763c-0.335,0.403-0.142,1.067,0.441,1.067
			c0.663,0,0.827-0.551,1.173-1.072c0.446-0.674-0.637-1.3-1.08-0.631c-0.03,0.151-0.062,0.302-0.093,0.453
			c0.147,0.355,0.295,0.711,0.442,1.066c0.211-0.254,0.422-0.508,0.633-0.762C293.176,378.109,292.297,377.221,291.781,377.841
			L291.781,377.841z"/>
	</g>
	
		<ellipse fill="none" stroke="#070707" stroke-width="1.5" stroke-miterlimit="10" cx="242.354" cy="314.271" rx="102.28" ry="8.445"/>
</g>
</svg>
