<?xml version="1.0" encoding="utf-8"?>
<!-- Generator: Adobe Illustrator 16.0.0, SVG Export Plug-In . SVG Version: 6.00 Build 0)  -->
<!DOCTYPE svg PUBLIC "-//W3C//DTD SVG 1.1//EN" "http://www.w3.org/Graphics/SVG/1.1/DTD/svg11.dtd">
<svg version="1.1" id="Layer_1" xmlns="http://www.w3.org/2000/svg" xmlns:xlink="http://www.w3.org/1999/xlink" x="0px" y="0px"
	 width="500px" height="550px" viewBox="0 0 500 550" enable-background="new 0 0 500 550" xml:space="preserve">
<g>
	<g>
		<path fill="#070707" d="M380.542,176.064c-10.848-19.739-31.381-31.375-52.943-35.821c-12.13-2.501-24.112-1.761-36.343-0.555
			c-14.654,1.445-30.123,1.805-44.406,5.531c-22.595,5.895-40.271,23.213-49.427,44.282c-8.579,19.738-9.901,41.975-9.547,63.215
			c0.235,14.157,1.443,28.279,2.447,42.396c1.421,19.988,1.246,39.928-0.156,59.916c-1.313,18.719-3.59,37.445,0.603,55.965
			c3.556,15.711,11.891,29.848,22.853,41.518c1.105,1.178,2.87-0.594,1.768-1.768c-9.355-9.961-16.411-21.453-20.592-34.484
			c-4.538-14.141-4.412-28.92-3.471-43.576c1.053-16.408,2.463-32.723,2.577-49.18c0.089-12.916-0.885-25.77-1.825-38.639
			c-3.178-43.547-6.461-97.153,32.785-126.392c13.587-10.123,28.954-12.431,45.322-14.069c14.796-1.48,29.825-4.136,44.729-3.314
			c25.053,1.382,51.067,13.672,63.47,36.237C379.16,178.739,381.319,177.478,380.542,176.064L380.542,176.064z"/>
	</g>
	<g>
		<path fill="#070707" d="M234.036,465.537c17.55,10.783,39.752,10.738,59.611,9.109c10.017-0.822,19.972-2.342,29.875-4.023
			c10.946-1.857,23.144-2.756,32.744-8.754c1.363-0.852,0.109-3.016-1.262-2.158c-9.05,5.652-20.554,6.496-30.871,8.283
			c-10.11,1.752-20.262,3.248-30.486,4.152c-19.368,1.711-41.245,1.742-58.35-8.768C233.92,462.531,232.666,464.695,234.036,465.537
			L234.036,465.537z"/>
	</g>
	<g>
		<path fill="#070707" d="M257.886,145.565c1.612,0,1.612-2.5,0-2.5S256.273,145.565,257.886,145.565L257.886,145.565z"/>
	</g>
	<g>
		<path fill="#070707" d="M191.622,202.467c-13.037-3.165-21.622-14.53-15.988-27.768c2.29-5.381,6.751-9.418,11.933-11.938
			c7-3.404,19.633-4.369,25.442,1.474c1.138,1.145,2.905-0.624,1.768-1.768c-6.165-6.201-17.514-5.533-25.29-3.129
			c-7.061,2.183-12.886,7.458-16.012,14.099c-6.84,14.532,3.164,27.964,17.482,31.441
			C192.523,205.258,193.188,202.847,191.622,202.467L191.622,202.467z"/>
	</g>
	<g>
		<path fill="#070707" d="M366.14,160.057c11.296-5.778,28.535-8.468,36.53,3.728c7.899,12.048,2.718,31.021-12.444,33.701
			c-1.586,0.28-0.912,2.689,0.664,2.411c16.905-2.987,21.522-22.632,14.573-36.278c-7.62-14.965-28.127-12.093-40.585-5.72
			C363.442,158.633,364.707,160.79,366.14,160.057L366.14,160.057z"/>
	</g>
	<g>
		<path fill="#070707" d="M278.211,220.675c0.305-0.041,0.608-0.082,0.913-0.123c-0.056-0.409-0.111-0.818-0.166-1.228
			c-3.745,1.493-6.501,2.882-9.604,5.706c-2.955,2.689-5.583,6.299-5.019,10.455c0.594,4.364,6.674,6.52,10.274,7.013
			c6.67,0.912,13.227-3.116,19.818-3.509c8.156-0.487,21.43,8.919,23.885-4.529c1.651-9.049-10.969-14.399-17.497-16.822
			c-0.757-0.281-1.081,0.927-0.332,1.205c6.848,2.542,18.072,7.35,16.419,16.404c-1.889,10.347-16.047,2.668-22.475,2.491
			c-9.222-0.253-20.873,8.862-28.232-1.006c-2.982-4,2.256-9.192,4.928-11.623c2.632-2.395,5.023-3.326,8.167-4.58
			c0.649-0.259,0.565-1.178-0.166-1.228c-0.426-0.029-0.817,0.092-1.245,0.167C277.086,219.61,277.423,220.815,278.211,220.675
			L278.211,220.675z"/>
	</g>
	<g>
		<path fill="#070707" d="M303.714,241.012c1.388,3.506,1.748,7.385,1.623,11.126c-0.08,2.375-0.558,4.983-2.198,6.797
			c-2.991,3.307-10.709,1.231-9.826-3.871c0.137-0.788-1.068-1.125-1.205-0.332c-1.155,6.675,7.628,8.662,11.915,5.086
			c4.603-3.838,2.763-14.421,0.896-19.138C304.626,239.939,303.417,240.262,303.714,241.012L303.714,241.012z"/>
	</g>
	<g>
		<path fill="#070707" d="M214.821,452.775c9.358-4.666,14.296,7.137,20.753,11.607c0.05-0.381,0.1-0.762,0.149-1.143
			c-10.238,1.625-18.425,16.57-29.201,13.754c-3.925-1.025-7.095-5.383-6.517-9.365c0.406-2.793,2.648-5.193,4.544-7.1
			c3.755-3.773,8.608-6.58,13.327-8.975c0.719-0.365,0.086-1.443-0.631-1.08c-6.602,3.352-24.949,13.824-16.792,23.482
			c11.472,13.584,23.938-7.66,35.601-9.512c0.586-0.092,0.542-0.869,0.149-1.143c-7.072-4.896-11.793-16.703-22.015-11.607
			C213.468,452.057,214.102,453.135,214.821,452.775L214.821,452.775z"/>
	</g>
	<g>
		<path fill="#070707" d="M204.112,475.189c-1.561-5.482,2.52-9.744,7.043-12.123c0.714-0.375,0.082-1.453-0.631-1.08
			c-5.044,2.654-9.33,7.521-7.618,13.535C203.127,476.297,204.333,475.967,204.112,475.189L204.112,475.189z"/>
	</g>
	<g>
		<path fill="#070707" d="M355.019,462.178c3.739-9.027,14.11-16.352,23.418-10.746c5.26,3.168,8.592,9.602,9.226,15.568
			c0.771,7.266-4.39,10.518-11.083,9.07c-8.322-1.799-12.747-11.842-19.403-16.432c-0.666-0.459-1.29,0.625-0.631,1.08
			c8.428,5.811,13.293,18.217,25.243,16.977c5.791-0.6,7.775-6.576,7.021-11.625c-1.059-7.082-5.377-13.848-11.978-16.906
			c-9.482-4.393-19.551,4.311-23.018,12.682C353.505,462.59,354.715,462.91,355.019,462.178L355.019,462.178z"/>
	</g>
	<g>
		<path fill="#070707" d="M376.579,462.453c3.548,3.682,6.36,8.387,6.538,13.609c0.027,0.805,1.277,0.807,1.25,0
			c-0.189-5.559-3.119-10.566-6.903-14.494C376.903,460.988,376.021,461.873,376.579,462.453L376.579,462.453z"/>
	</g>
	<g>
		<path fill="#070707" d="M397.18,304.4c5.372-0.299,10.607,0.953,15.115,3.93c4.512,2.977,8.05,10.027,5.214,15.225
			c-3.873,7.098-16.866-1.826-19.887-5.559c-0.508-0.627-1.387,0.264-0.885,0.885c3.992,4.932,17.547,13.193,22.138,4.779
			c2.505-4.59-0.31-10.91-3.475-14.34c-4.443-4.812-11.922-6.52-18.221-6.17C396.378,303.193,396.374,304.445,397.18,304.4
			L397.18,304.4z"/>
	</g>
	<g>
		<path fill="#070707" d="M408.624,317.814c3.512,1.088,7.874,4.08,5.736,8.25c-0.366,0.715,0.712,1.348,1.08,0.631
			c2.537-4.951-2.104-8.73-6.484-10.086C408.184,316.371,407.856,317.578,408.624,317.814L408.624,317.814z"/>
	</g>
	<circle fill="none" stroke="#070707" stroke-width="1.5" stroke-miterlimit="10" cx="330.847" cy="187.628" r="31.771"/>
	<path fill="none" stroke="#070707" stroke-width="1.5" stroke-miterlimit="10" d="M282.6,190.999
		c0-17.543-14.222-31.766-31.768-31.766c-17.546,0-31.771,14.223-31.771,31.766c0,17.549,14.225,31.772,31.771,31.772
		C268.378,222.771,282.6,208.548,282.6,190.999z"/>
	<path fill="#070707" d="M391.684,175.052c0-3.71-3.009-6.719-6.719-6.719c-3.714,0-6.722,3.009-6.722,6.719
		c0,3.714,3.008,6.721,6.722,6.721C388.675,181.773,391.684,178.766,391.684,175.052z"/>
	<circle fill="#070707" cx="197.728" cy="181.441" r="6.722"/>
	<path fill="#070707" d="M305.257,216.95c0-4.351-6.366-7.873-14.215-7.873c-7.854,0-14.22,3.522-14.22,7.873
		c0,4.346,6.365,7.87,14.22,7.87C298.891,224.819,305.257,221.295,305.257,216.95z"/>
	<path fill="#070707" d="M319.255,189.277c-5.737,0-10.385,4.647-10.385,10.386c0,5.734,4.647,10.387,10.385,10.387
		c5.736,0,10.387-4.653,10.387-10.387C329.642,193.924,324.991,189.277,319.255,189.277z M323.437,206.268
		c-1.623,0-2.939-1.316-2.939-2.939c0-1.624,1.316-2.94,2.939-2.94c1.624,0,2.94,1.317,2.94,2.94
		C326.377,204.952,325.061,206.268,323.437,206.268z"/>
	<path fill="#070707" d="M238.651,191.751c-5.736,0-10.383,4.647-10.383,10.384c0,5.736,4.647,10.389,10.383,10.389
		c5.737,0,10.386-4.653,10.386-10.389C249.037,196.398,244.388,191.751,238.651,191.751z M242.831,208.744
		c-1.621,0-2.937-1.317-2.937-2.94c0-1.624,1.316-2.94,2.937-2.94c1.626,0,2.942,1.317,2.942,2.94
		C245.773,207.426,244.457,208.744,242.831,208.744z"/>
	<g>
		<path fill="#070707" d="M291.62,240.905c0.429,5.672,1.766,14.014-2.357,18.637c-1.429,1.602-3.648,1.497-5.548,1.068
			c-2.823-0.639-4.007-3.508-4.621-6.007c-1.015-4.127-0.416-8.957,0.775-12.98c0.229-0.775-0.977-1.103-1.205-0.332
			c-1.862,6.285-2.848,22.605,8.04,20.816c8.524-1.399,6.618-15.225,6.166-21.202C292.81,240.107,291.56,240.101,291.62,240.905
			L291.62,240.905z"/>
	</g>
	<g>
		<path fill="#070707" d="M175.626,310.949c-4.424,3.02-11.525,10.648-4.014,14.425c0.718,0.36,1.351-0.718,0.631-1.08
			c-6.454-3.244,0.387-9.79,4.014-12.265C176.919,311.577,176.294,310.494,175.626,310.949L175.626,310.949z"/>
	</g>
	<g>
		<path fill="#070707" d="M192.212,306.687c-1.279-0.27-2.568-0.376-3.874-0.326c-0.804,0.03-0.807,1.28,0,1.25
			c1.196-0.045,2.37,0.034,3.542,0.281C192.666,308.058,193,306.853,192.212,306.687L192.212,306.687z"/>
	</g>
	<g>
		<path fill="#070707" d="M177.114,319.923c-3.662,1.679-7.439,6.959-2.207,9.278c0.73,0.323,1.367-0.754,0.631-1.08
			c-4.293-1.902-0.551-5.854,2.207-7.118C178.477,320.667,177.841,319.59,177.114,319.923L177.114,319.923z"/>
	</g>
	<g>
		<path fill="#070707" d="M376.738,173.722c12.126,17.765,15.398,39.279,16.355,60.335c1.021,22.467-0.166,44.972,0.794,67.457
			c1.103,25.816,3.239,51.592,2.904,77.451c-0.165,12.779-1.242,25.357-4.526,37.742c-3.16,11.918-10.771,20.697-16.512,31.311
			c-0.768,1.418,1.392,2.68,2.158,1.262c5.2-9.611,12.412-17.857,15.753-28.426c3.694-11.688,5.079-23.895,5.493-36.098
			c0.941-27.768-1.531-55.525-2.771-83.242c-1.028-23.006,0.18-46.027-0.865-69.021c-0.95-20.917-4.608-42.428-16.626-60.033
			C377.994,171.138,375.826,172.387,376.738,173.722L376.738,173.722z"/>
	</g>
	<g>
		<path fill="#070707" d="M222.298,155.612c-16.985-8.531-25.747-29.704-30.11-47.073c-4.476-17.815-5.718-40.664,8.235-54.683
			c27.103-27.23,38.311,36.145,40.382,52.582c1.849,14.676,6.947,27.421,16.338,38.913c0.511,0.625,1.39-0.265,0.885-0.884
			c-8.798-10.765-14.241-23.179-15.851-37.02c-0.657-5.652-1.597-11.273-2.705-16.853c-2.626-13.23-6.095-28.513-15.073-39.041
			c-9.113-10.687-21.1-3.854-28.367,5.296c-10.396,13.092-8.984,33.146-5.861,48.458c3.825,18.748,13.333,42.261,31.496,51.383
			C222.386,157.052,223.019,155.974,222.298,155.612L222.298,155.612z"/>
	</g>
	<g>
		<path fill="#070707" d="M327.087,141.764c38.459-12.224,14.898-58.969,27.69-85.987c5.525-11.671,18.099-16.502,29.506-10.326
			c12.455,6.744,17.336,22.096,17.87,35.336c0.588,14.579-4.627,28.643-11.513,41.235c-6.235,11.403-14.74,21.944-26.392,28.084
			c-2.096,1.104-4.323,1.91-6.573,2.63c-0.765,0.245-0.438,1.452,0.332,1.205c21.919-7.015,35.829-30.173,42.29-51.055
			c6.332-20.463,3.888-50.511-18.633-60.083c-16.935-7.199-29.53,9.661-31.4,24.661c-2.146,17.224,1.761,35.016-2.772,51.972
			c-2.845,10.642-10.341,17.816-20.737,21.121C325.989,140.802,326.316,142.009,327.087,141.764L327.087,141.764z"/>
	</g>
	<g>
		<path fill="#070707" d="M240.387,93.54c2.028-8.492,12.301-12.6,19.657-15.122c11.565-3.964,24.002-5.511,36.164-6.064
			c11.543-0.524,23.375,0.021,34.634,2.761c6.683,1.626,17.725,5.107,17.941,13.576c0.021,0.805,1.271,0.807,1.25,0
			c-0.202-7.891-8.744-11.666-15.179-13.748c-11.964-3.871-25.195-4.296-37.651-3.879c-13.157,0.44-26.611,2.277-39.057,6.694
			c-7.362,2.613-16.96,7.054-18.965,15.449C238.994,93.991,240.2,94.324,240.387,93.54L240.387,93.54z"/>
	</g>
	<g>
		<path fill="#070707" d="M278.74,140.846c-3.321-5.42-7.402-10.377-10.372-16.009c-4.331-8.216,0.27-13.903,7.623-17.947
			c8.085-4.447,18.604-6,27.586-7.371c9.264-1.414,21.661-3.065,30.104,2.077c5.099,3.104,4.39,9.119,2.783,14.042
			c-1.623,4.972-5.438,9.448-8.696,13.402c-2.654,3.22-5.493,7.544-8.909,9.939c-0.436,0.305-0.398,0.98,0.149,1.142
			c0.049,0.015,0.098,0.029,0.146,0.043c0.196,0.058,0.474,0.005,0.608-0.161c0.062-0.077,0.125-0.154,0.188-0.231
			c0.504-0.619-0.375-1.509-0.885-0.884c0.092,0.009,0.183,0.018,0.273,0.027c0.05,0.381,0.1,0.761,0.149,1.142
			c3.644-2.554,6.308-6.771,9.162-10.135c3.221-3.794,6.193-7.826,8.352-12.322c1.978-4.117,3.256-10.507,0.147-14.484
			c-6.476-8.287-21.72-6.316-30.688-5.244c-11.65,1.394-25.162,3.638-35.067,10.344c-13.925,9.427,0.392,23.674,6.264,33.259
			C278.081,142.163,279.162,141.536,278.74,140.846L278.74,140.846z"/>
	</g>
	<g>
		<path fill="#070707" d="M369.4,84.544c19.217-8.508,31.339-29.674,39.575-48.007c0.327-0.729-0.75-1.365-1.08-0.631
			c-8.171,18.19-20.085,39.128-39.126,47.559C368.034,83.791,368.67,84.867,369.4,84.544L369.4,84.544z"/>
	</g>
	<g>
		<path fill="#070707" d="M383.455,94.854c10.981-5.284,19.318-14.564,27.296-23.524c0.533-0.6-0.348-1.487-0.885-0.884
			c-7.908,8.883-16.155,18.09-27.042,23.329C382.098,94.124,382.732,95.202,383.455,94.854L383.455,94.854z"/>
	</g>
	<g>
		<path fill="#070707" d="M206.825,82.466c-4.562,1.729-9.604-0.548-13.667-2.594c-5.939-2.993-11.345-7.114-16.512-11.258
			c-8.313-6.666-16.024-14.063-23.556-21.588c-0.571-0.57-1.455,0.313-0.884,0.884c8.405,8.398,17.039,16.657,26.478,23.896
			c6.826,5.235,18.965,15.472,28.474,11.866C207.903,83.389,207.58,82.18,206.825,82.466L206.825,82.466z"/>
	</g>
	<g>
		<path fill="#070707" d="M202.306,103.059c-12.201-1.21-22.853-7.259-33.416-13.033c-0.708-0.387-1.338,0.692-0.631,1.079
			c10.786,5.896,21.594,11.969,34.047,13.204C203.108,104.389,203.101,103.138,202.306,103.059L202.306,103.059z"/>
	</g>
	<g>
		<path fill="#070707" d="M138.043,323.612c0.115,2.371-0.068,5.783-2.776,6.658c-2.138,0.689-4.602-0.609-6.229-1.9
			c-1.878-1.49-3.457-3.697-3.598-6.152c-0.186-3.215,2.644-5.287,5.249-6.498c0.73-0.34,0.095-1.416-0.631-1.08
			c-3.035,1.41-5.83,3.773-5.873,7.365c-0.036,2.938,1.944,5.641,4.149,7.391c2.013,1.598,4.851,2.859,7.435,2.025
			c3.204-1.035,3.663-4.955,3.525-7.809C139.254,322.81,138.004,322.806,138.043,323.612L138.043,323.612z"/>
	</g>
	<g>
		<path fill="#070707" d="M128.66,315.83c-4.564-2.635-5.372-6.156-1.947-10.262c0.423-0.508-0.141-1.426-0.757-0.982
			c-1.778,1.275-3.661,2.467-5.915,2.514c-2.942,0.062-3.458-3.564-3.519-5.721c-0.022-0.805-1.273-0.807-1.25,0
			c0.071,2.529,0.556,5.193,2.93,6.529c2.715,1.529,6.263-0.721,8.385-2.242c-0.252-0.328-0.505-0.654-0.757-0.982
			c-3.977,4.768-3.155,9.133,2.2,12.227C128.729,317.314,129.358,316.234,128.66,315.83L128.66,315.83z"/>
	</g>
	<g>
		<path fill="#070707" d="M115.357,302.938c-1.257,2.447-3.381,4.223-6.184,4.486c-3.17,0.297-5.002-2.188-5.102-5.107
			c-0.027-0.803-1.277-0.807-1.25,0c0.104,3.057,1.742,5.922,5.029,6.301c3.706,0.424,6.938-1.84,8.586-5.049
			C116.804,302.852,115.725,302.221,115.357,302.938L115.357,302.938z"/>
	</g>
	<g>
		<path fill="#070707" d="M105.505,307.623c-5.613,2.888-10.559-0.292-12.926-5.622c-0.327-0.735-1.403-0.099-1.079,0.631
			c2.677,6.028,8.441,9.258,14.636,6.071C106.853,308.334,106.221,307.256,105.505,307.623L105.505,307.623z"/>
	</g>
	<g>
		<path fill="#070707" d="M95.745,307.494c-3.197,3.541-7.144,2.195-10.651-0.098c-0.677-0.441-1.303,0.641-0.631,1.08
			c4.01,2.621,8.599,3.852,12.166-0.098C97.167,307.783,96.287,306.896,95.745,307.494L95.745,307.494z"/>
	</g>
	<g>
		<path fill="#070707" d="M155.145,302.641c-0.931,1.662-3.296,1.25-4.853,0.946c-0.787-0.154-1.123,1.051-0.332,1.205
			c2.153,0.421,5.01,0.718,6.264-1.521C156.618,302.567,155.539,301.938,155.145,302.641L155.145,302.641z"/>
	</g>
	<g>
		<path fill="#070707" d="M107.228,278.225c4.036-3.685,17.025-14.21,20.226-3.986c0.752,2.404-0.323,5.781,3.358,5.98
			c2.235,0.12,4.444-0.343,6.673-0.475c4.041-0.238,7.874,1.506,11.206,3.588c2.548,1.593,4.288,4.033,6.714,5.699
			c0.924,0.635,1.872,1.204,2.839,1.771c3.477,2.04,2.864,6.419-0.633,7.585c-0.761,0.254-0.435,1.461,0.332,1.205
			c5.146-1.716,6.509-5.896,1.898-9.266c-6.578-4.806-12.279-10.788-20.772-11.786c-4.018-0.472-9.339,2.569-10.249-3.549
			c-0.348-2.341-1.428-4.507-3.839-5.329c-7.298-2.488-13.581,3.062-18.637,7.677C105.748,277.885,106.634,278.767,107.228,278.225
			L107.228,278.225z"/>
	</g>
	<g>
		<path fill="#070707" d="M91.08,311.082c1.989,3.135,0.331,5.972-0.923,8.96c-0.956,2.278-1.157,4.874-1.326,7.31
			c-0.209,3.014-0.099,6.044-0.293,9.062c-0.079,1.226-0.573,2.579-0.682,3.846c-0.091,0.772-0.183,1.544-0.274,2.315
			c-3.961,2.54-6.299,2.111-7.015-1.285c-2.99-8.354,10.24-17.519-0.252-23.829c-3.025-1.818-4.372-2.687-4.643-6.337
			c-0.187-2.522,0.513-5.127,1.017-7.58c0.379-1.848,0.72-3.688,0.9-5.564c0.251-2.629-1.246-5.513-1.379-8.209
			c-0.66-13.418,16.619-20.466,26.636-13.301c0.657,0.47,1.28-0.615,0.631-1.079c-8.589-6.144-22.701-2.923-26.93,7.235
			c-1.135,2.727-1.659,5.681-1.514,8.626c0.076,1.546,0.538,3.091,0.941,4.574c0.679,2.502,0.012,4.924-0.49,7.385
			c-0.927,4.544-2.272,9.796,1.175,13.589c0.46,0.506,1.431,1.102,2.038,1.347c4.397,1.771,4.987,5.657,3.746,9.731
			c-1.019,3.343-2.646,6.393-3.266,9.863c-0.648,3.63,1.588,9.741,5.989,9.112c5.304-0.758,4.739-11.509,4.809-15.059
			c0.097-4.975,0.277-9.577,2.655-14.078c1.689-3.196,1.553-4.076-0.471-7.265C91.729,309.772,90.646,310.399,91.08,311.082
			L91.08,311.082z"/>
	</g>
	<g>
		<path fill="#070707" d="M122.721,291.238c0.643-3.467,3.328-5.166,6.707-5.283c1.562-0.055,3.099,0.424,4.474,1.121
			c0.702,0.355,1.302,0.871,1.87,1.408c1.416,1.338,0.978,1.918-0.483,2.984c-0.493,0.361-0.34,1.137,0.315,1.166
			c1.071,0.135,1.27,0.404,0.595,0.807c-0.596,0.545,0.291,1.428,0.884,0.885c2.024-1.855,0.969-2.836-1.479-2.941
			c0.105,0.389,0.21,0.775,0.315,1.164c2.092-1.529,3.076-1.98,1.257-4.354c-1.388-1.811-3.554-2.83-5.732-3.301
			c-4.47-0.969-9.07,1.385-9.928,6.012C121.369,291.693,122.574,292.029,122.721,291.238L122.721,291.238z"/>
	</g>
	<g>
		<path fill="#070707" d="M138.217,296.072c2.533-3.637,6.131-2.455,7.597,1.359c1.65,4.297-0.978,7.922-5.189,8.967
			c-0.782,0.195-0.45,1.4,0.332,1.205c5.353-1.328,7.955-6.123,5.754-11.256c-0.775-1.811-2.345-3.463-4.326-3.852
			c-2.259-0.443-4.062,1.242-5.247,2.945C136.676,296.104,137.76,296.729,138.217,296.072L138.217,296.072z"/>
	</g>
	<g>
		<path fill="#070707" d="M145.662,302.857c4.708,2.803,5.217,8.631,4.415,13.555c-0.338,2.076-1.148,4.051-2.146,5.889
			c-2.284,4.201-4.41,0.561-6.698-1.688c-0.575-0.564-1.459,0.318-0.884,0.885c1.738,1.707,3.198,3.539,5.313,4.783
			c0.244,0.143,0.558,0.098,0.757-0.098c6.004-5.92,8.222-19.436-0.126-24.406C145.599,301.363,144.97,302.445,145.662,302.857
			L145.662,302.857z"/>
	</g>
	<g>
		<path fill="#070707" d="M113.323,287.947c-3.743-7.605-11.232-3.611-11.627,3.639c0.084-1.547-8.673-1.156-9.922-0.459
			c-3.877,2.168-4.792,6.039-4.512,10.252c0.053,0.801,1.304,0.805,1.25,0c-0.595-8.936,6.324-11.633,13.582-7.891
			c0.393,0.201,0.973-0.041,0.94-0.541c-0.389-5.947,5.481-11.941,9.209-4.369C112.6,289.301,113.678,288.668,113.323,287.947
			L113.323,287.947z"/>
	</g>
	<g>
		<path fill="#070707" d="M161.852,296.296c17.789-9.654,29.522,12.52,28.787,27.572c-0.828,16.946-19.126,27.772-34.745,20.936
			c-0.731-0.319-1.368,0.757-0.631,1.08c7.843,3.433,18.228,2.285,25.529-2.011c7.042-4.143,10.398-12.2,11.097-20.005
			c1.461-16.32-12.535-38.492-30.668-28.652C160.513,295.601,161.144,296.68,161.852,296.296L161.852,296.296z"/>
	</g>
	<g>
		<path fill="#070707" d="M151.965,310.045c2.787-3.485,7.792-4.546,12.02-4.987c7.685-0.801,12.333,5.034,13.134,12.154
			c1.491,13.254-10.204,22.696-22.677,20.105c-0.787-0.163-1.121,1.041-0.332,1.205c13.768,2.859,26.929-8.274,24.072-22.942
			c-1.121-5.754-4.791-11.322-11.198-11.768c-5.306-0.369-12.411,0.981-15.902,5.348
			C150.583,309.783,151.461,310.674,151.965,310.045L151.965,310.045z"/>
	</g>
	<g>
		<path fill="#070707" d="M150.54,314.496c0.078,15.342,2.272,30.193,8.384,44.354c0.318,0.738,1.395,0.1,1.079-0.631
			c-6.014-13.934-8.136-28.623-8.213-43.723C151.786,313.689,150.536,313.689,150.54,314.496L150.54,314.496z"/>
	</g>
	<g>
		<path fill="#070707" d="M144.82,325.132c0.254,8.76,4.194,17.047,3.913,25.888c-0.118,3.716-3.716,8.77-8.232,6.709
			c-3.63-1.657-4.083-8.913-4.432-12.115c-0.269-2.464-0.271-4.948-0.473-7.417c-0.139-1.71-0.864-4.895-0.01-6.479
			c0.383-0.709-0.697-1.341-1.079-0.631c-0.92,1.706-0.361,4.294-0.236,6.121c0.277,4.076,0.444,8.152,1.032,12.2
			c0.561,3.86,3.263,12.404,8.99,9.631c12.079-5.85,2.059-24.202,1.778-33.907C146.046,324.327,144.796,324.325,144.82,325.132
			L144.82,325.132z"/>
	</g>
	<g>
		<path fill="#070707" d="M127.663,328.552c-3.436,7.262-2.217,15.452-3.787,23.143c-0.391,1.916-0.924,3.761-1.75,5.541
			c-2.935,6.324-8.726-1.475-9.894-3.364c-1.479-2.394-1.412-5.807-1.471-8.512c-0.29-13.26,3.756-26.195,3.939-39.396
			c0.011-0.807-1.239-0.806-1.25,0c-0.106,7.666-1.708,15.333-2.679,22.922c-0.969,7.574-2.403,16.105-0.422,23.631
			c1.259,4.784,7.589,11.242,12.112,6.487c2.174-2.285,2.788-6.942,3.136-9.896c0.785-6.657,0.212-13.727,3.145-19.925
			C129.084,328.458,128.007,327.823,127.663,328.552L127.663,328.552z"/>
	</g>
	<g>
		<path fill="#070707" d="M104.114,308.523c0.079,14.814,2.102,30.462-1.679,44.98c-0.754,2.898-2.069,6.558-5.661,5.753
			c-5.439-1.219-5.009-10.446-4.867-14.551c0.201-5.827,1.077-11.693,2.021-17.43c1.003-6.1,3.527-12.461,2.96-18.688
			c-0.072-0.796-1.323-0.803-1.25,0c0.406,4.469-1.053,8.688-1.958,13.008c-0.876,4.186-1.486,8.44-2.049,12.679
			c-0.733,5.522-1.346,11.204-0.819,16.769c0.304,3.216,1.426,7.794,4.839,9.112c2.152,0.831,4.215,0.764,5.697-1.201
			c4.769-6.329,4.203-17.333,4.394-24.779c0.219-8.562-0.332-17.097-0.377-25.652C105.359,307.718,104.109,307.717,104.114,308.523
			L104.114,308.523z"/>
	</g>
	<g>
		<path fill="#070707" d="M161.221,359.867c-11.846,7.828-27.541,11.1-41.435,12.596c-12.532,1.348-33.722,1.729-38.558-13.16
			c-0.248-0.764-1.455-0.436-1.205,0.332c4.606,14.182,22.974,15.102,35.362,14.436c15.425-0.828,33.376-4.473,46.467-13.123
			C162.521,360.504,161.896,359.422,161.221,359.867L161.221,359.867z"/>
	</g>
	<g>
		<path fill="#070707" d="M162.037,360.723c12.374,19.936-25.774,23.654-37.114,24.125c-10.421,0.432-21.117-0.217-31.258-2.756
			c-3.747-0.938-7.537-2.227-10.72-4.463c-2.109-1.48-3.064-3.604-3.829-6.014c-0.31-0.977-2.451-11.297,1.194-9.732
			c0.732,0.314,1.37-0.762,0.631-1.08c-4.922-2.113-4.146,5.477-3.721,8.193c0.792,5.061,2.881,8.668,7.338,11.096
			c10.111,5.506,23.508,6.025,34.729,6.104c12.332,0.084,58.061-3.172,43.828-26.104
			C162.692,359.408,161.61,360.035,162.037,360.723L162.037,360.723z"/>
	</g>
	<g>
		<path fill="#070707" d="M122.338,465.967c-10.152,0.683-19,6.205-29.396,5.466c-3.969-0.282-7.357,0.574-10.802,2.543
			c-1.558,0.891-5,3.748-4.778,5.883c0.192,1.85,1.331,2.284,3.035,2.754c5.197,1.435,11.174,1.129,16.513,1.296
			c12.529,0.391,24.375,3.295,36.609,5.71c5.225,1.031,18.569,4.846,22.019-1.692c3.278-6.216-4.48-9.372-9.265-10.55
			c-4.739-1.167-9.736-1.116-14.523-2.033c-1.056-0.224-2.095-0.511-3.116-0.86c-3.152-0.975-1.806-0.809-0.139-2.064
			c0.574-0.432,1.555-1.317,1.816-2.031C131.995,465.783,125.188,465.892,122.338,465.967c-0.805,0.021-0.807,1.271,0,1.25
			c1.119-0.029,2.226-0.015,3.343,0.053c4.139,0.248,1.643,4.518-0.519,5.968c-0.359,0.241-0.45,0.86,0,1.08
			c4.099,1.994,8.379,2.694,12.872,3.183c3.192,0.346,6.35,0.698,9.473,1.467c1.519,0.41,2.975,0.988,4.368,1.735
			c4.46,2.194,2.274,7.935-1.786,9.156c-5.915,1.781-14.096-0.99-19.935-2.191c-6.779-1.394-13.501-2.996-20.343-4.064
			c-5.466-0.854-11.039-0.879-16.556-1.062c-3.041-0.102-6.067-0.301-9.093-0.62c-3.321-0.351-6.542-1.711-3.546-5.086
			c1.604-1.808,3.821-2.767,6.029-3.562c4.937-1.778,11.161-0.289,16.434-1.277c6.582-1.232,12.48-4.321,19.259-4.777
			C123.138,467.163,123.143,465.913,122.338,465.967z"/>
	</g>
	<g>
		<path fill="#070707" d="M143.112,469.695c5.051,1.854,9.846,0.697,13.727-2.969c0.291-0.275,0.219-0.789-0.126-0.982
			c-3.392-1.904-7.914-2.346-11.696-1.645c-3.175,0.59-4.15,2.896-2.18,5.436c0.494,0.635,1.372-0.256,0.884-0.885
			c-2.432-3.133,2.186-3.559,4.37-3.588c2.675-0.039,5.637,0.439,7.992,1.762c-0.042-0.328-0.084-0.654-0.126-0.982
			c-3.579,3.381-7.876,4.35-12.511,2.648C142.686,468.211,142.362,469.42,143.112,469.695L143.112,469.695z"/>
	</g>
	<g>
		<path fill="#070707" d="M223.458,500.636c-2.177-3.749-6.553-4.788-10.628-4.354c-1.347,0.143-7.458,1.47-5.398,4.013
			c1.563,1.93,5.32,2.534,7.689,2.391c1.75-0.106,3.505-0.314,5.242-0.555c0.748-0.104,2.654-0.047,3.096-0.864
			c0.383-0.709-0.696-1.341-1.079-0.631c-0.274,0.509-4.95,0.594-5.817,0.679c-1.767,0.173-3.235,0.065-4.978-0.33
			c-1.057-0.24-2.188-0.572-3.031-1.279c-0.861-0.721,3.487-2.024,3.732-2.079c3.658-0.817,8.131,0.263,10.093,3.641
			C222.783,501.963,223.864,501.334,223.458,500.636z"/>
	</g>
	<g>
		<path fill="#070707" d="M101.774,278.105c1.839-1.736,4.714-1.58,5.017,1.332c0.083,0.793,1.333,0.802,1.25,0
			c-0.176-1.69-0.942-3.101-2.625-3.646c-1.623-0.526-3.37,0.338-4.526,1.43C100.303,277.775,101.189,278.658,101.774,278.105
			L101.774,278.105z"/>
	</g>
	<g>
		<path fill="#070707" d="M157.44,298.607c-1.892,0.337-2.93,2.489-2.148,4.213c0.333,0.733,1.409,0.098,1.079-0.631
			c-0.475-1.047,0.381-2.195,1.401-2.377C158.565,299.671,158.229,298.467,157.44,298.607L157.44,298.607z"/>
	</g>
	<g>
		<path fill="#070707" d="M148.734,304.904c0.422,0,0.845,0,1.268,0c0.806,0,0.806-1.25,0-1.25c-0.422,0-0.845,0-1.268,0
			C147.928,303.654,147.928,304.904,148.734,304.904L148.734,304.904z"/>
	</g>
	<g>
		<path fill="#070707" d="M81.086,359.348c2.186-4.274,3.396-8.968,4.625-13.584c0.208-0.779-0.998-1.11-1.205-0.332
			c-1.201,4.508-2.366,9.111-4.5,13.285C79.641,359.433,80.72,360.065,81.086,359.348L81.086,359.348z"/>
	</g>
	<g>
		<path fill="#070707" d="M159.319,359.318c0.856,0.575,1.679,1.198,2.535,1.774c0.671,0.451,1.296-0.633,0.631-1.08
			c-0.856-0.575-1.679-1.198-2.535-1.774C159.279,357.787,158.654,358.871,159.319,359.318L159.319,359.318z"/>
	</g>
	<g>
		<path fill="#070707" d="M128.867,319.576c-0.526,1.488-0.314,3.247,1.237,4c1.579,0.767,3.327-0.156,4.37-1.364
			c0.523-0.607-0.356-1.496-0.884-0.885c-0.72,0.836-1.709,1.515-2.849,1.168c-1.127-0.343-0.969-1.737-0.669-2.587
			C130.342,319.146,129.134,318.821,128.867,319.576L128.867,319.576z"/>
	</g>
	<g>
		<path fill="#070707" d="M139.513,338.841c-0.778,3.326-0.646,7.505,0.377,10.764c0.269,0.857,0.943,2.211,2.077,1.899
			c1.562-0.43,2.274-2.666,2.808-3.966c0.306-0.746-0.904-1.067-1.205-0.332c-0.098,0.239-1.455,3.471-1.971,3.028
			c-0.706-0.604-0.816-2.119-0.95-2.961c-0.41-2.575-0.527-5.546,0.07-8.101C140.902,338.389,139.697,338.056,139.513,338.841
			L139.513,338.841z"/>
	</g>
	<g>
		<path fill="#070707" d="M82.542,334.889c-1.13,2.073-1.617,4.693,0.098,6.588c0.187,0.206,0.524,0.233,0.757,0.098
			c0.775-0.453,1.22-1.073,1.555-1.895c0.305-0.746-0.905-1.068-1.205-0.332c-0.215,0.527-0.494,0.862-0.98,1.146
			c0.252,0.033,0.505,0.065,0.757,0.098c-1.309-1.445-0.739-3.537,0.098-5.072C84.007,334.812,82.928,334.181,82.542,334.889
			L82.542,334.889z"/>
	</g>
	<g>
		<path fill="#070707" d="M81.91,291.946c-2.239-7.179,3.02-11.508,9.45-13.174c0.78-0.202,0.449-1.407-0.332-1.205
			c-7.119,1.845-12.764,6.889-10.323,14.711C80.944,293.045,82.15,292.718,81.91,291.946L81.91,291.946z"/>
	</g>
	<g>
		<path fill="#070707" d="M86.979,287.383c-0.4-1.145,0.274-2.229,1.234-2.843c0.676-0.434,0.05-1.516-0.631-1.08
			c-1.406,0.901-2.396,2.575-1.808,4.255C86.039,288.471,87.247,288.146,86.979,287.383L86.979,287.383z"/>
	</g>
	<g>
		<path fill="#070707" d="M255.04,494.901c2.72,0.67,6.212,0.52,8.886-0.273c2.146-0.637,2.212-2.919,0.222-3.841
			c-2.521-1.167-6.122-0.61-8.72,0.021c-3.144,0.766-3.353,4.159,0.234,4.229c0.807,0.016,0.805-1.234,0-1.25
			c-1.862-0.037-1.031-1.466,0.099-1.773c0.887-0.242,1.812-0.359,2.724-0.454c1.687-0.175,3.719-0.302,5.296,0.429
			c2.44,1.13-2.637,1.874-3.162,1.912c-1.686,0.124-3.591,0.202-5.246-0.205C254.59,493.503,254.258,494.709,255.04,494.901
			L255.04,494.901z"/>
	</g>
</g>
</svg>
