<?xml version="1.0" encoding="utf-8"?>
<!-- Generator: Adobe Illustrator 16.0.0, SVG Export Plug-In . SVG Version: 6.00 Build 0)  -->
<!DOCTYPE svg PUBLIC "-//W3C//DTD SVG 1.1//EN" "http://www.w3.org/Graphics/SVG/1.1/DTD/svg11.dtd">
<svg version="1.1" id="Layer_1" xmlns="http://www.w3.org/2000/svg" xmlns:xlink="http://www.w3.org/1999/xlink" x="0px" y="0px"
	 width="500px" height="550px" viewBox="0 0 500 550" enable-background="new 0 0 500 550" xml:space="preserve">
<g>
	<g>
		<path fill="#070707" d="M241.06,175.258c9.369-9.894,21.08-16.98,33.09-23.211c12.68-6.578,25.861-12.958,39.739-16.496
			c29.179-7.438,57.88,3.879,83.696,16.901c11.718,5.91,22.652,13.306,31.798,22.764c9.876,10.213,17.082,23.349,22.193,36.511
			c5.141,13.237,7.553,27.486,6.463,41.661c-1.12,14.586-7.363,27.981-15.628,39.847c-10.32,14.816-24.345,25.678-36.956,38.315
			c-1.14,1.142,0.628,2.91,1.768,1.768c9.253-9.272,19.406-17.469,28.162-27.277c8.39-9.398,15.392-19.911,20.207-31.573
			c10.181-24.661,4.468-52.775-7.126-75.83c-11.746-23.357-30.498-39.124-53.755-50.389c-23.985-11.618-49.398-20.988-76.347-16.22
			c-15.047,2.662-29.026,9.663-42.599,16.4c-13.221,6.563-26.25,14.264-36.474,25.062
			C238.185,174.66,239.949,176.431,241.06,175.258L241.06,175.258z"/>
	</g>
	<g>
		<path fill="#070707" d="M386.026,347.732c-5.454,13.118-8.033,25.542-5.849,39.725c2.08,13.503,7.373,27.076,4.258,40.842
			c-4.378,19.344-25.942,26.041-43.012,29.24c-24.746,4.64-50.984,6.244-75.898,2.519c-7.438-1.112-14.869-2.604-22.28-3.908
			c-7.489-1.317-14.997-2.816-21.683-6.576c-11.341-6.377-19.381-18.085-25.543-29.211c-9.106-16.442-11.847-36.491-13.542-54.922
			c-0.797-8.664-1.177-17.366-1.291-26.064c-0.125-9.498-1.031-19.522,2.296-28.611c0.555-1.518-1.861-2.165-2.411-0.664
			c-4.118,11.249-2.618,24.491-2.242,36.238c0.391,12.227,1.403,24.435,3.276,36.525c3.677,23.743,12.354,47.165,30.755,63.482
			c10.016,8.881,22.475,11.022,35.281,13.166c14.963,2.505,29.49,5.005,44.724,5.044c20.343,0.053,42.602-1.886,62.217-7.684
			c15.146-4.477,29.048-13.648,32.216-30.07c2.236-11.593-1.434-23.675-3.771-34.947c-1.499-7.228-2.31-14.436-1.413-21.789
			c0.938-7.685,3.363-14.552,6.322-21.67C389.056,346.908,386.636,346.266,386.026,347.732L386.026,347.732z"/>
	</g>
	<g>
		<path fill="#070707" d="M405.089,291.327c-0.666,19.425,23.052,29.913,39.46,30.779c0-0.833,0-1.667,0-2.5
			c-8.514-0.334-16.592-5.392-23.467-10.031c-8.163-5.508-9.645-12.856-12.961-21.477c-0.42-1.092-2.071-1.286-2.41,0
			c-6.385,24.201,20.519,28.948,37.349,35.119c1.517,0.557,2.165-1.86,0.664-2.41c-15.342-5.626-41.512-9.646-35.603-32.045
			c-0.804,0-1.606,0-2.41,0c3.399,8.837,5.013,16.477,13.1,22.27c7.357,5.27,16.459,10.711,25.738,11.074
			c1.616,0.063,1.602-2.415,0-2.5c-15.06-0.795-37.574-10.353-36.96-28.279C407.645,289.714,405.144,289.72,405.089,291.327
			L405.089,291.327z"/>
	</g>
	<path fill="none" stroke="#070707" stroke-width="1.5" stroke-miterlimit="10" d="M386.246,235.006
		c0-30.973-25.109-56.082-56.082-56.082c-30.977,0-56.088,25.109-56.088,56.082c0,30.978,25.111,56.087,56.088,56.087
		C361.137,291.094,386.246,265.984,386.246,235.006z"/>
	<path fill="#070707" d="M300.682,247.685c7.424,0,13.439-6.017,13.439-13.441c0-7.423-6.016-13.444-13.439-13.444
		c-7.423,0-13.442,6.021-13.442,13.444C287.239,241.668,293.259,247.685,300.682,247.685z M295.272,225.693
		c2.099,0,3.8,1.705,3.8,3.805c0,2.101-1.701,3.804-3.8,3.804c-2.104,0-3.809-1.704-3.809-3.804
		C291.464,227.398,293.169,225.693,295.272,225.693z"/>
	<g>
		<path fill="#070707" d="M379.747,304.002c0.304,0.224,0.608,0.448,0.912,0.673c0.203-0.349,0.405-0.696,0.608-1.045
			c-2.094-0.646-3.388-1.909-5.637-2.373c-2.571-0.529-5.201-0.763-7.821-0.805c-3.768-0.06-9.099,0.546-11.486,3.922
			c-2.963,4.19-1.05,9.826,1.482,13.759c3.773,5.859,11.462,8.452,17.051,12.102c6.059,3.955,8.145,10.352,11.991,16.072
			c2.987,4.441,7.185,5.752,12.19,4.022c12.144-4.195,5.447-22.184,1.898-29.9c-0.337-0.731-1.414-0.096-1.08,0.631
			c3.88,8.434,10.33,28.374-5.281,28.906c-5.312,0.181-8.102-6.525-10.169-10.39c-1.817-3.397-3.91-6.648-7.013-9.024
			c-4.243-3.248-9.163-5.408-13.586-8.384c-4.806-3.232-10.05-10.622-6.83-16.561c2.213-4.083,8.86-4.018,12.782-3.848
			c2.455,0.107,4.89,0.535,7.282,1.081c1.434,0.326,2.493,1.563,3.893,1.994c0.59,0.182,1.072-0.623,0.608-1.044
			c-0.383-0.348-0.701-0.547-1.165-0.869C379.714,302.461,379.09,303.545,379.747,304.002L379.747,304.002z"/>
	</g>
	<g>
		<path fill="#070707" d="M384.098,342.293c-2.231,5.159-6.337,9.938-11.03,13.003c-3.231,2.11-6.798,1.823-9.583-0.908
			c-2.441-2.394-2.954-7.153,0.118-9.205c0.667-0.445,0.042-1.529-0.631-1.08c-6.22,4.154-1.129,12.662,4.725,13.852
			c7.325,1.489,15.06-9.433,17.481-15.03C385.494,342.192,384.417,341.555,384.098,342.293L384.098,342.293z"/>
	</g>
	<path fill="#070707" d="M405.306,323.508c3.621-3.622,1.251-11.852-5.279-18.381c-6.534-6.534-14.763-8.902-18.385-5.28
		c-3.616,3.615-1.251,11.846,5.285,18.38C393.46,324.756,401.691,327.126,405.306,323.508z"/>
	<g>
		<path fill="#070707" d="M375.833,330.537c-5.85,4.846-10.061,12.736-17.643,15.161c-2.753,0.88-4.993-0.64-6.61-2.74
			c-2.349-3.051-1.445-6.493,0.286-9.562c2.53-4.485,7.292-8.154,11.733-10.585c0.707-0.388,0.076-1.467-0.631-1.08
			c-7.587,4.153-21.339,17.142-9.503,24.68c8.147,5.19,18.349-10.93,23.252-14.989C377.339,330.907,376.449,330.027,375.833,330.537
			L375.833,330.537z"/>
	</g>
	<g>
		<path fill="#070707" d="M295.553,138.85c-5.777-11.904-2.534-25.33,10.857-29.644c5.957-1.919,12.441-0.875,17.925,1.911
			c6.799,3.453,14.864,12.082,14.136,20.096c-0.146,1.606,2.355,1.592,2.5,0c0.777-8.551-6.81-16.63-13.423-21.104
			c-6.087-4.119-13.794-5.225-20.871-3.571c-15.849,3.704-19.715,20.321-13.282,33.574
			C294.098,141.562,296.254,140.293,295.553,138.85L295.553,138.85z"/>
	</g>
	<path fill="#070707" d="M320.187,133.208c2.845-2.356,3.238-6.57,0.882-9.419c-2.355-2.843-6.567-3.242-9.412-0.886
		c-2.848,2.356-3.241,6.573-0.886,9.416C313.125,135.166,317.342,135.561,320.187,133.208z"/>
	<g>
		<path fill="#070707" d="M444.703,192.398c7.95-3.411,19.568-4.626,24.871,3.649c5.667,8.846-0.021,25.411-12.38,23.06
			c-1.575-0.299-2.247,2.11-0.664,2.411c13.721,2.61,20.27-13.1,16.456-24.088c-4.276-12.318-19.721-11.406-29.545-7.191
			C441.964,190.874,443.238,193.026,444.703,192.398L444.703,192.398z"/>
	</g>
	<circle fill="#070707" cx="454.326" cy="205.54" r="4.577"/>
	<path fill="none" stroke="#070707" stroke-width="3" stroke-miterlimit="10" d="M162.187,195.7
		c0-26.815-21.737-48.552-48.557-48.552c-26.818,0-48.561,21.736-48.561,48.552c0,26.823,21.743,48.56,48.561,48.56
		C140.45,244.26,162.187,222.523,162.187,195.7z"/>
	<path fill="none" stroke="#070707" stroke-width="3" stroke-miterlimit="10" d="M194.827,192.101
		c0-43.604-35.345-78.949-78.953-78.949c-43.606,0-78.96,35.345-78.96,78.949c0,43.612,35.354,78.955,78.96,78.955
		C159.482,271.056,194.827,235.712,194.827,192.101z"/>
	<path fill="none" stroke="#070707" stroke-width="1.5" stroke-miterlimit="10" d="M207.749,291.527
		c0-6.187-7.258-11.207-16.21-11.207c-8.953,0-16.211,5.021-16.211,11.207c0,6.192,7.258,11.212,16.211,11.212
		C200.491,302.739,207.749,297.72,207.749,291.527z"/>
	<path fill="none" stroke="#070707" stroke-width="1.5" stroke-miterlimit="10" d="M243.752,213.568
		c-6.185,0.228-10.932,7.667-10.598,16.61c0.33,8.95,5.613,16.017,11.796,15.789c6.19-0.229,10.936-7.667,10.602-16.617
		C255.223,220.405,249.94,213.337,243.752,213.568z"/>
	<g>
		<path fill="#070707" d="M114.513,271.805c7.604,19.417,38.223,8.396,51.501,2.981c9.508-3.877,18.886-8.732,27.011-15.056
			c11.704-9.109,17.51-24.988,22.854-38.298c0.269-0.669-0.801-1.084-1.142-0.481c-3.907,6.898-11.291,11.404-18.013,15.192
			c-6.716,3.785-14.036,7.066-21.562,8.84c-0.785,0.185-0.452,1.39,0.332,1.205c7.655-1.804,14.987-5.213,21.861-8.965
			c6.897-3.765,14.489-8.627,18.461-15.641c-0.381-0.161-0.761-0.321-1.142-0.481c-5.09,12.68-10.688,27.688-21.381,36.81
			c-7.209,6.15-16.083,10.598-24.684,14.423c-12.692,5.644-45.347,18.402-52.89-0.86
			C115.427,270.73,114.218,271.054,114.513,271.805L114.513,271.805z"/>
	</g>
	<g>
		<path fill="#070707" d="M114.489,272.55c2.743,7.632,5.629,16.618,14.439,18.861c8.196,2.086,21.168-7.808,26.792,1.12
			c0.249-0.612,0.498-1.225,0.747-1.836c-6.745,1.56-14.113,0.427-20.757-1.156c-1.567-0.374-2.233,2.037-0.665,2.41
			c7.099,1.692,14.893,2.82,22.087,1.156c0.773-0.179,1.167-1.17,0.747-1.836c-4.154-6.594-11.217-5.021-17.747-3.436
			c-5.041,1.223-9.806,2.303-14.496-0.555c-5.058-3.082-6.872-10.199-8.738-15.394C116.359,270.38,113.942,271.029,114.489,272.55
			L114.489,272.55z"/>
	</g>
	<g>
		<path fill="#070707" d="M155.338,292.784c3.229,3.632,4.63,8.474,3.73,13.262c-0.118,0.631,0.166,1.396,0.873,1.537
			c15.024,3.017,30.894,5.062,45.275-1.53c7.529-3.45,13.614-9.434,18.649-15.875c3.386-4.331,6.354-8.783,10.302-12.66
			c4.088-4.015,8.812-7.354,13.399-10.764c7.292-5.422,14.872-10.915,18.727-19.403c3.599-7.923,2.77-17.129,1.759-25.504
			c-1.714-14.202-5.713-30.889-21.759-34.206c-1.573-0.325-2.243,2.084-0.665,2.411c16.454,3.401,19.03,22.255,20.425,36.341
			c0.852,8.604,0.281,17.079-4.556,24.488c-5.161,7.905-14.557,13.011-21.849,18.715c-6.685,5.228-11.892,11.007-16.837,17.855
			c-4.721,6.539-10.674,12.157-17.825,15.934c-13.564,7.162-30.035,4.667-44.381,1.787c0.291,0.513,0.582,1.024,0.873,1.537
			c1.072-5.711-0.515-11.354-4.374-15.693C156.033,289.81,154.271,291.584,155.338,292.784L155.338,292.784z"/>
	</g>
	<g>
		<path fill="#070707" d="M244.214,188.52c-2.486,8.037-11.271-0.323-13.91-3.854c-1.839-2.461-3.196-5.391-3.44-8.473
			c-0.172-2.174,0.264-6.31,2.294-7.683c3.181-2.151,8.773,6.787,9.968,8.566c2.439,3.635,4.796,7.626,6.245,11.775
			c0.264,0.756,1.472,0.431,1.205-0.332c-1.372-3.93-15.079-29.772-19.896-18.685c-3.087,7.105,0.85,14.481,5.994,19.366
			c3.879,3.683,10.655,6.412,12.746-0.35C245.658,188.08,244.452,187.752,244.214,188.52L244.214,188.52z"/>
	</g>
	<g>
		<path fill="#070707" d="M194.269,185.975c7.089,2.894,14.371,5.277,21.271,8.622c0.412,0.2,0.947-0.036,0.94-0.54
			c-0.083-6.228-0.952-12.529-5.032-17.47c-2.357-2.854-5.895-5.14-8.812-7.38c-4.604-3.536-9.228-7.03-13.551-10.91
			c-0.598-0.537-1.485,0.344-0.884,0.884c3.975,3.567,8.196,6.812,12.435,10.054c5.113,3.911,10.719,7.546,13.05,13.799
			c0.973,2.61,1.264,5.485,1.466,8.235c0.218,2.96-2.344,0.639-4.02-0.057c-5.464-2.268-11.055-4.208-16.532-6.443
			C193.854,184.465,193.533,185.675,194.269,185.975L194.269,185.975z"/>
	</g>
	<g>
		<path fill="#070707" d="M108.793,113.247c-1.889-5.145-3.286-15.651,2.798-18.177c7.548-3.134,16.988-1.203,24.946-1.662
			c-0.417-0.417-0.833-0.833-1.25-1.25c0,7.333,0,14.667,0,22c0,1.612,2.5,1.612,2.5,0c0-7.333,0-14.667,0-22
			c0-0.652-0.569-1.289-1.25-1.25c-8.867,0.512-20.3-1.969-28.228,3.068c-5.458,3.467-3.78,14.889-1.928,19.936
			C106.933,115.412,109.35,114.764,108.793,113.247L108.793,113.247z"/>
	</g>
	<g>
		<path fill="#070707" d="M135.458,93.948c3.451,4.724,6.385,9.792,9.758,14.569c1.322,1.873,2.789,3.634,4.309,5.346
			c0.996,1.121,2.304,1.117,1.546,2.46c-0.598,1.061-0.696,3.124-1.14,4.153c-0.631,1.464,1.522,2.739,2.159,1.262
			c2.113-4.904,2.698-5.998-0.797-9.643c-5.477-5.711-9.034-13.056-13.677-19.41C136.676,91.399,134.505,92.644,135.458,93.948
			L135.458,93.948z"/>
	</g>
	<g>
		<path fill="#070707" d="M170.941,136.787c4.52,0.799,0.547-6.267-0.323-7.625c-0.249,0.612-0.498,1.224-0.747,1.836
			c3.833-0.98,7.63-0.549,11.494,0c-0.306-0.402-0.612-0.804-0.917-1.206c-0.044,3.675-0.537,7.325-0.581,11
			c0.711-0.294,1.422-0.589,2.134-0.884c-1.954-1.536-4.009-2.928-6.114-4.248c-1.542-0.967-3.335-2.263-5.19-2.487
			c-1.598-0.193-1.58,2.309,0,2.5c1.269,0.153,2.871,1.496,3.928,2.146c1.929,1.185,3.828,2.457,5.608,3.856
			c0.822,0.646,2.12,0.3,2.134-0.884c0.044-3.675,0.537-7.325,0.581-11c0.006-0.501-0.381-1.129-0.917-1.206
			c-4.314-0.613-8.544-1.095-12.824,0c-0.761,0.195-1.18,1.161-0.747,1.836c0.463,0.722,0.875,1.466,1.265,2.229
			c0.204,0.404,0.391,0.816,0.562,1.235c0.057,0.158,0.114,0.315,0.171,0.473c0.052,0.698,0.436,0.704,1.149,0.016
			C170.03,134.097,169.356,136.506,170.941,136.787L170.941,136.787z"/>
	</g>
	<g>
		<path fill="#070707" d="M180.813,131.255c2.104,1.739,6.655,4.913,5.965,7.912c-0.319,1.388-0.016,3.197,0.966,4.281
			c2.987,3.299,8.164,3.143,12.147,4.34c0.843,0.253,1.501-0.426,1.583-1.206c0.423-4.066-0.454-8.095-0.582-12.159
			c-0.417,0.417-0.833,0.833-1.25,1.25c5.926,0.604,13.163-0.542,18.062,3.496c3.608,2.974,2.629,11.006,3.504,15.316
			c0.628,3.096,2.623,4.962,4.975,6.901c5.091,4.194,9.446,8.111,12.331,14.194c0.691,1.456,2.846,0.187,2.159-1.262
			c-2.973-6.268-7.415-10.39-12.722-14.7c-4.761-3.867-4.914-8.216-5.382-14.167c-1.002-12.724-13.229-11.289-22.927-12.278
			c-0.664-0.068-1.27,0.62-1.25,1.25c0.128,4.064,1.005,8.093,0.582,12.159c0.527-0.402,1.055-0.804,1.583-1.206
			c-4.355-1.308-13.175-1.014-10.708-7.728c0.152-0.414-0.03-0.915-0.322-1.216c-2.282-2.361-4.41-4.85-6.947-6.946
			C181.349,128.469,179.569,130.227,180.813,131.255L180.813,131.255z"/>
	</g>
	<g>
		<path fill="#070707" d="M243.508,268.301c-3.6-3.216-8.216-7.665-13.392-7.773c-4.961-0.104-8.941,2.707-11.442,6.858
			c-4.204,6.977-0.953,15.533,6.857,17.593c0.78,0.206,1.111-1,0.332-1.205c-7.409-1.954-9.433-9.333-6.11-15.757
			c2.147-4.15,6.723-6.747,11.369-6.097c4.444,0.622,8.319,4.421,11.502,7.266C243.224,269.721,244.11,268.84,243.508,268.301
			L243.508,268.301z"/>
	</g>
	<g>
		<path fill="#070707" d="M241.816,269.321c-1.449,13.497-3.929,26.821-6.953,40.047c-1.91,8.353-3.527,16.922-5.946,25.146
			c-2.073,7.049-5.846,14.437-14.114,14.615c-5.012,0.108-12.274-2.27-12.86-7.896c-0.479-4.6,2.47-9.505,4.569-13.386
			c0.767-1.418-1.392-2.68-2.159-1.262c-3.805,7.034-8.747,17.58,0.449,22.554c7.13,3.856,16.538,3.494,21.572-3.359
			c5.34-7.271,6.536-16.839,8.426-25.422c3.74-16.974,7.656-33.715,9.515-51.037C244.488,267.719,241.986,267.735,241.816,269.321
			L241.816,269.321z"/>
	</g>
	<g>
		<path fill="#070707" d="M221.644,350.468c21.845,0.119,23.209-21.317,28.995-37.391c0.548-1.521-1.869-2.169-2.411-0.664
			c-5.321,14.782-6.269,35.665-26.584,35.555C220.031,347.959,220.032,350.459,221.644,350.468L221.644,350.468z"/>
	</g>
	<g>
		<path fill="#070707" d="M255.895,297.114c0.137-14.785,2.916-30.191,7.483-44.251c0.499-1.538-1.915-2.191-2.411-0.665
			c-4.629,14.248-7.434,29.923-7.572,44.916C253.38,298.727,255.88,298.726,255.895,297.114L255.895,297.114z"/>
	</g>
	<g>
		<path fill="#070707" d="M254.014,296.612c-4.109,2.341-19.887,11.33-9.313,15.824c4.425,1.881,8.509,0.036,10.7-4.079
			c1.645-3.087,2.587-8.266,0.324-11.297c-0.953-1.275-3.125-0.031-2.159,1.262c1.683,2.255,0.909,5.935-0.103,8.31
			c-1.593,3.742-4.918,4.99-8.563,3.155c-5.052-2.543,8.324-9.847,10.376-11.017C256.676,297.973,255.417,295.812,254.014,296.612
			L254.014,296.612z"/>
	</g>
	<g>
		<path fill="#070707" d="M208.857,302.4c-6.668,4.587-11.704,16.515-5.736,23.667c4.059,4.864,10.583,2.363,14.7-1.021
			c5.78-4.751,8.016-12.667,5.131-19.571c-3.862-9.245-13.292-6.374-18.019,0.272c-0.937,1.317,1.233,2.563,2.159,1.262
			c2.082-2.928,5.208-5.778,9.08-5.017c3.669,0.722,5.315,5.534,5.627,8.785c0.465,4.837-2.256,9.399-5.747,12.501
			c-2.822,2.507-7.693,4.581-10.797,1.463c-5.555-5.581-0.361-16.589,4.862-20.183C211.438,303.651,210.189,301.483,208.857,302.4
			L208.857,302.4z"/>
	</g>
	<g>
		<path fill="#070707" d="M233.361,456.962c4.818,4.918,9.025,10.702,14.618,14.8c3.758,2.754,9.808,6.297,14.646,4.283
			c6.785-2.823-1.934-14.49-4.643-17.072c-0.583-0.556-1.469,0.327-0.884,0.885c3.687,3.512,11.859,17.063,0.706,15.224
			c-10.174-1.678-16.861-12.166-23.56-19.004C233.68,455.501,232.797,456.386,233.361,456.962L233.361,456.962z"/>
	</g>
	<g>
		<path fill="#070707" d="M375.369,446.541c4.035,4.892,6.275,10.794,13.012,12.32c0.301,0.068,0.527-0.052,0.706-0.287
			c2.957-3.901,2.54-8.449,1.387-12.965c-1.299-5.085-5.418-10.935-4.774-16.301c0.096-0.799-1.155-0.79-1.25,0
			c-0.696,5.806,3.703,12.268,5.111,17.777c0.619,2.425,0.77,4.846,0.283,7.298c-0.833,4.21-3.708,2.936-6.344,0.794
			c-3.043-2.472-4.766-6.514-7.246-9.521C375.74,445.034,374.861,445.924,375.369,446.541L375.369,446.541z"/>
	</g>
	<g>
		<path fill="#070707" d="M413.861,329.001c2.92,0.294,5.132,4.574,6.389,6.807c1.834,3.259,3.154,7.058,1.406,10.656
			c-1.936,3.985-6.941,0.259-8.752-1.72c-2.961-3.232-3.419-7.732-5.451-11.474c-0.386-0.708-1.465-0.077-1.08,0.631
			c2.578,4.743,3.054,10.417,7.832,13.743c2.333,1.625,6.29,2.951,8.22-0.063c2.405-3.759,1.085-8.053-0.731-11.717
			c-1.441-2.907-4.168-7.745-7.832-8.113C413.06,327.67,413.067,328.921,413.861,329.001L413.861,329.001z"/>
	</g>
	<g>
		<path fill="#070707" d="M414.575,336.346c2.853,3.009,4.353,7.012,4.449,11.136c0.019,0.805,1.269,0.807,1.25,0
			c-0.104-4.456-1.735-8.771-4.814-12.021C414.904,334.875,414.021,335.761,414.575,336.346L414.575,336.346z"/>
	</g>
	<g>
		<path fill="#070707" d="M384.534,448.731c1.598,2.128,3.218,6.051,1.737,8.633c-0.401,0.7,0.679,1.33,1.08,0.631
			c1.711-2.984,0.147-7.383-1.737-9.895C385.137,447.464,384.05,448.086,384.534,448.731L384.534,448.731z"/>
	</g>
	<g>
		<path fill="#070707" d="M254.783,467.384c2.71,2.22,4.947,4.889,5.629,8.408c0.154,0.791,1.358,0.455,1.205-0.332
			c-0.719-3.713-3.085-6.613-5.949-8.961C255.049,465.993,254.16,466.872,254.783,467.384L254.783,467.384z"/>
	</g>
	<g>
		<path fill="#070707" d="M408.602,293.926c-0.079-0.06-0.158-0.119-0.237-0.18c-0.218-0.165-0.58-0.086-0.758,0.098
			c-0.945,0.982,0.066,3.317,0.333,4.416c0.996,4.104,3.939,7.535,6.401,10.837c0.327-0.253,0.655-0.505,0.982-0.758
			c-2.763-3.407-4.354-7.36-5.792-11.466c-0.381,0.16-0.762,0.321-1.143,0.481c1.996,4.528,3.628,11.698,8.899,13.478
			c0.463,0.156,0.884-0.33,0.769-0.769c-0.582-2.213-1.959-3.861-3.452-5.546c-2.246-2.534-3.857-5.501-6.037-8.082
			c-0.407-0.48-1.232,0.03-1.045,0.608c1.808,5.584,5.754,10.329,10.294,13.949c0.624,0.496,1.515-0.382,0.885-0.885
			c-4.374-3.486-8.229-8.01-9.974-13.396c-0.348,0.202-0.696,0.405-1.045,0.608c1.624,1.922,2.764,4.168,4.343,6.113
			c1.789,2.201,4.078,4.122,4.826,6.962c0.256-0.256,0.513-0.513,0.769-0.769c-4.746-1.602-6.358-8.834-8.151-12.903
			c-0.286-0.648-1.375-0.183-1.143,0.481c1.511,4.313,3.21,8.437,6.112,12.019c0.445,0.549,1.405-0.189,0.982-0.758
			c-1.664-2.231-3.354-4.422-4.744-6.839c-0.856-1.489-1.386-3.097-1.788-4.754c-0.079-0.22-0.14-0.443-0.181-0.674
			c-0.034-0.179-0.068-0.357-0.103-0.536c0.194-0.91-0.018-1.129-0.635-0.657C408.614,295.492,409.235,294.406,408.602,293.926
			L408.602,293.926z"/>
	</g>
	<g>
		<path fill="#070707" d="M414.082,327.643c-0.576-0.186-1.168-0.325-1.775-0.344c-0.807-0.025-0.804,1.225,0,1.25
			c0.496,0.016,0.974,0.148,1.443,0.299C414.52,329.095,414.847,327.888,414.082,327.643L414.082,327.643z"/>
	</g>
	<g>
		<path fill="#070707" d="M419.104,348.634c0.054,0.054,0.107,0.107,0.161,0.161c0.571,0.57,1.455-0.313,0.885-0.885
			c-0.054-0.054-0.107-0.107-0.161-0.161C419.417,347.179,418.533,348.062,419.104,348.634L419.104,348.634z"/>
	</g>
	<g>
		<path fill="#070707" d="M387.268,348.348c0.192-0.365,0.422-0.699,0.707-0.999c-0.328-0.253-0.655-0.505-0.982-0.758
			c-0.297,0.454-0.528,0.923-0.706,1.436c-0.24,0.69,0.78,1.065,1.143,0.481c0.337-0.543,0.51-1.155,0.706-1.758
			c0.236-0.725-0.749-1.013-1.143-0.481c-0.444,0.6-0.749,1.229-1.027,1.919c0.401,0.11,0.804,0.222,1.205,0.332
			c0.153-0.459,0.321-0.888,0.581-1.298c0.432-0.684-0.65-1.31-1.08-0.631c-0.314,0.498-0.521,1.04-0.706,1.597
			c-0.256,0.767,0.951,1.093,1.205,0.332c0.153-0.459,0.321-0.888,0.581-1.298c-0.36-0.21-0.72-0.421-1.08-0.631
			c-0.337,0.543-0.511,1.154-0.706,1.758c-0.249,0.769,0.958,1.096,1.205,0.332c0.163-0.503,0.299-1.006,0.581-1.459
			c0.427-0.688-0.65-1.31-1.08-0.631c-0.314,0.498-0.521,1.04-0.706,1.597c-0.256,0.767,0.951,1.093,1.205,0.332
			c0.153-0.459,0.321-0.888,0.581-1.298c0.432-0.684-0.65-1.31-1.08-0.631c-0.314,0.498-0.521,1.04-0.706,1.597
			c-0.261,0.779,0.912,1.061,1.205,0.332c0.237-0.588,0.524-1.11,0.902-1.62c-0.381-0.16-0.762-0.321-1.143-0.481
			c-0.164,0.503-0.3,1.006-0.581,1.459c0.381,0.16,0.762,0.321,1.143,0.481c0.143-0.411,0.343-0.772,0.581-1.137
			c0.391-0.599-0.496-1.269-0.982-0.758c-0.354,0.374-0.662,0.797-0.902,1.253C385.812,348.43,386.892,349.062,387.268,348.348
			L387.268,348.348z"/>
	</g>
	<g>
		<path fill="#070707" d="M406.634,332.71c0.259-0.258,0.034,0.069-0.278,0.033c-0.18-0.313-0.359-0.627-0.54-0.94
			c-0.017,0.034-0.065,0.083,0.037-0.044c-0.035,0.044-0.072,0.086-0.109,0.129c-0.123,0.145-0.25,0.285-0.376,0.427
			c-0.191,0.214-0.381,0.432-0.583,0.637c-0.506,0.517,0.135,1.314,0.758,0.982c0.715-0.382,1.292-0.958,1.931-1.447
			c-0.252-0.327-0.505-0.654-0.758-0.982c-0.666,0.677-1.264,1.415-1.931,2.091c-0.566,0.575,0.307,1.446,0.885,0.885
			c0.478-0.466,0.992-0.866,1.385-1.413c0.421-0.587-0.496-1.255-0.982-0.758c-0.504,0.518-0.943,1.092-1.448,1.608
			c-0.562,0.577,0.314,1.456,0.885,0.885c0.419-0.421,0.751-0.844,0.965-1.402c-0.401-0.11-0.804-0.222-1.205-0.332
			c-0.03,0.214-0.102,0.112,0.114,0.046c-0.768,0.236-0.44,1.443,0.332,1.205c0.408-0.126,0.7-0.496,0.759-0.919
			c0.11-0.792-0.912-1.097-1.205-0.332c-0.132,0.344-0.39,0.595-0.645,0.85c0.295,0.295,0.59,0.59,0.885,0.885
			c0.504-0.518,0.943-1.092,1.448-1.608c-0.327-0.253-0.655-0.506-0.982-0.758c-0.32,0.447-0.797,0.778-1.189,1.159
			c0.295,0.295,0.59,0.59,0.885,0.885c0.666-0.677,1.264-1.415,1.931-2.091c0.482-0.49-0.181-1.425-0.758-0.982
			c-0.637,0.488-1.22,1.068-1.931,1.447c0.253,0.327,0.505,0.654,0.758,0.982c0.222-0.227,0.43-0.468,0.642-0.704
			c0.185-0.207,0.462-0.446,0.585-0.698c0.222-0.456-0.057-0.885-0.54-0.94c-0.25-0.029-0.446,0.174-0.606,0.332
			C405.176,332.394,406.061,333.277,406.634,332.71L406.634,332.71z"/>
	</g>
</g>
</svg>
