<?xml version="1.0" encoding="utf-8"?>
<!-- Generator: Adobe Illustrator 16.0.0, SVG Export Plug-In . SVG Version: 6.00 Build 0)  -->
<!DOCTYPE svg PUBLIC "-//W3C//DTD SVG 1.1//EN" "http://www.w3.org/Graphics/SVG/1.1/DTD/svg11.dtd">
<svg version="1.1" id="Layer_1" xmlns="http://www.w3.org/2000/svg" xmlns:xlink="http://www.w3.org/1999/xlink" x="0px" y="0px"
	 width="500px" height="550px" viewBox="0 0 500 550" enable-background="new 0 0 500 550" xml:space="preserve">
<g>
	<g>
		<path fill="#070707" d="M362.704,93.061c-11.668-21.349-31.982-35.736-54.67-43.563c-28.53-9.843-58.437-5.547-87.791-2.982
			c-25.905,2.264-50.86,7.165-71.479,23.984c-15.888,12.96-26.245,31.302-32.671,50.516c-15.76,47.113-8.539,98.376-6.656,146.886
			c0.63,16.229,0.835,32.475,0.224,48.708c-0.573,15.236-2.198,30.408-2.702,45.65c-0.939,28.397,2.541,57.394,18.282,81.729
			c4.053,6.266,9.029,11.905,14.561,16.896c1.193,1.077,2.967-0.686,1.768-1.768c-23.411-21.117-31.405-52.192-32.196-82.698
			c-0.384-14.789,0.8-29.588,1.887-44.324c1.194-16.192,1.448-32.404,1.139-48.634c-0.975-51.216-9.806-104.107,3.876-154.413
			c5.349-19.667,14.758-38.291,29.512-52.562c19.314-18.684,44.884-24.653,70.861-27.143c28.757-2.756,58.157-6.957,86.409,1.201
			c23.759,6.86,45.491,21.832,57.487,43.779C361.319,95.737,363.478,94.476,362.704,93.061L362.704,93.061z"/>
	</g>
	<g>
		<path fill="#070707" d="M167.388,479.541c26.362,11.591,55.059,14.942,83.627,13.144c29.38-1.851,59.529-8.653,86.668-20.071
			c1.463-0.615,0.821-3.035-0.664-2.41c-25.895,10.894-54.269,17.265-82.216,19.697c-29.198,2.541-59.167-0.653-86.153-12.518
			C167.188,476.74,165.915,478.894,167.388,479.541L167.388,479.541z"/>
	</g>
	<g>
		<path fill="#070707" d="M199.058,51.646c1.612,0,1.612-2.5,0-2.5S197.446,51.646,199.058,51.646L199.058,51.646z"/>
	</g>
	<g>
		<path fill="#070707" d="M113.58,129.455c-8.849-2.107-16.884-6.508-21.358-14.7c-3.867-7.081-3.39-15.811-0.27-23.047
			c3.211-7.449,9.444-13.065,16.73-16.396c9.366-4.282,26.29-5.633,33.911,2.318c1.117,1.166,2.883-0.604,1.768-1.768
			c-7.983-8.329-23.61-7.257-33.74-3.965c-9.173,2.98-16.776,9.836-20.828,18.548c-3.444,7.406-3.931,16.499-0.485,23.998
			c4.428,9.638,13.587,15.035,23.607,17.422C114.482,132.239,115.147,129.828,113.58,129.455L113.58,129.455z"/>
	</g>
	<g>
		<path fill="#070707" d="M343.596,71.078c14.933-7.714,38.2-11.414,49.047,4.536c10.995,16.167,4.488,42.832-16.515,46.28
			c-1.588,0.261-0.912,2.67,0.664,2.411c22.256-3.654,28.399-29.925,19.322-47.729c-10.11-19.831-37.196-16.224-53.78-7.656
			C340.901,69.659,342.166,71.816,343.596,71.078L343.596,71.078z"/>
	</g>
	<g>
		<path fill="#070707" d="M226.188,152.295c0.422-0.068,0.843-0.136,1.265-0.204c-0.147-0.355-0.295-0.711-0.442-1.067
			c-0.868,0.916-4.223,1.211-5.533,2.037c-2.641,1.666-5.074,3.657-7.341,5.798c-3.202,3.024-7.417,8.148-6.329,12.965
			c1.222,5.406,7.434,8.951,12.642,9.53c9.646,1.072,18.343-4.268,27.863-4.583c10.47-0.347,28.895,11.789,31.38-6.2
			c1.639-11.859-14.551-18.708-23.281-21.932c-0.758-0.28-1.081,0.928-0.332,1.205c8.965,3.312,23.89,9.671,22.258,21.484
			c-1.206,8.727-9.413,8.922-16.039,7.105c-5.208-1.428-9.928-3.047-15.396-2.866c-6.057,0.2-11.969,2.793-17.832,4.091
			c-6.965,1.542-20.281-0.237-20.105-9.772c0.104-5.665,6.312-10.712,10.391-13.831c1.641-1.255,3.439-2.708,5.488-3.14
			c0.85-0.179,2.412-0.333,3.051-1.007c0.345-0.363,0.132-1.122-0.441-1.067c-0.567,0.054-1.003,0.14-1.597,0.249
			C225.064,151.235,225.4,152.44,226.188,152.295L226.188,152.295z"/>
	</g>
	<g>
		<path fill="#070707" d="M260.004,178.914c1.863,4.703,2.347,9.914,2.179,14.933c-0.108,3.237-0.769,6.771-3.002,9.242
			c-4.152,4.596-14.707,1.638-13.491-5.386c0.137-0.788-1.068-1.125-1.205-0.332c-1.507,8.703,10.016,11.249,15.581,6.602
			c6.091-5.086,3.615-19.152,1.144-25.391C260.916,177.842,259.707,178.164,260.004,178.914L260.004,178.914z"/>
	</g>
	<path fill="none" stroke="#070707" stroke-width="1.5" stroke-miterlimit="10" d="M339.1,108.308
		c0-23.458-19.017-42.479-42.483-42.479c-23.458,0-42.476,19.02-42.476,42.479c0,23.463,19.018,42.483,42.476,42.483
		C320.083,150.791,339.1,131.771,339.1,108.308z"/>
	<circle fill="none" stroke="#070707" stroke-width="1.5" stroke-miterlimit="10" cx="189.628" cy="112.818" r="42.48"/>
	<path fill="#070707" d="M377.782,90.416c0-4.961-4.02-8.986-8.987-8.986c-4.96,0-8.984,4.024-8.984,8.986
		c0,4.964,4.024,8.987,8.984,8.987C373.763,99.403,377.782,95.38,377.782,90.416z"/>
	<circle fill="#070707" cx="117.726" cy="99.681" r="8.986"/>
	<path fill="#070707" d="M262.4,147.513c0-5.813-8.512-10.526-19.008-10.526c-10.499,0-19.007,4.712-19.007,10.526
		c0,5.816,8.508,10.526,19.007,10.526C253.889,158.039,262.4,153.329,262.4,147.513z"/>
	<path fill="#070707" d="M297.549,92.238c-7.667,0-13.885,6.22-13.885,13.889c0,7.67,6.218,13.888,13.885,13.888
		c7.674,0,13.888-6.218,13.888-13.888C311.437,98.458,305.223,92.238,297.549,92.238z M303.141,114.957
		c-2.167,0-3.928-1.758-3.928-3.929c0-2.17,1.761-3.929,3.928-3.929c2.171,0,3.936,1.759,3.936,3.929
		C307.076,113.198,305.312,114.957,303.141,114.957z"/>
	<path fill="#070707" d="M189.772,95.547c-7.669,0-13.888,6.218-13.888,13.887c0,7.672,6.219,13.888,13.888,13.888
		c7.671,0,13.889-6.216,13.889-13.888C203.661,101.765,197.443,95.547,189.772,95.547z M195.365,118.27
		c-2.171,0-3.931-1.764-3.931-3.933c0-2.17,1.76-3.931,3.931-3.931c2.174,0,3.931,1.761,3.931,3.931
		C199.296,116.506,197.539,118.27,195.365,118.27z"/>
	<g>
		<path fill="#070707" d="M244.198,176.562c1.824,8.089,2.069,19.075-2.049,26.479c-3.705,6.661-12.077,2.986-14.479-2.741
			c-2.417-5.763-1.188-13.245,0.352-19.071c0.207-0.78-1-1.111-1.205-0.332c-1.673,6.325-3.038,14.759,0.118,20.854
			c2.15,4.153,7.875,8.033,12.647,5.473c9.104-4.885,7.701-22.655,5.82-30.994C245.226,175.444,244.021,175.777,244.198,176.562
			L244.198,176.562z"/>
	</g>
	<g>
		<path fill="#070707" d="M111.196,267.708c-9.639-1.722-19.576,2.873-26.636,9.258c-5.008,4.529-7.739,11.498-0.747,15.345
			c0.707,0.389,1.337-0.691,0.631-1.08c-8.77-4.824-0.038-12.968,4.91-16.459c6.153-4.342,13.951-7.208,21.511-5.858
			C111.652,269.055,111.989,267.85,111.196,267.708L111.196,267.708z"/>
	</g>
	<g>
		<path fill="#070707" d="M91.165,285.381c-2.644,1.241-6.522,3.848-6.529,7.222c-0.006,3.028,2.833,5.193,5.728,5.512
			c3.71,0.408,7.478-1.854,10.522-3.687c3.196-1.924,6.654-4.312,9.013-7.247c0.5-0.622-0.379-1.513-0.884-0.884
			c-3.216,4.002-8.19,7.036-12.765,9.223c-3.227,1.543-6.368,2.062-9.367-0.389c-3.796-3.103,2.527-7.551,4.914-8.67
			C92.525,286.118,91.89,285.041,91.165,285.381L91.165,285.381z"/>
	</g>
	<g>
		<path fill="#070707" d="M382.4,279.859c0.089,29.991,4.402,59.826,3.663,89.83c-0.383,15.534-2.503,30.982-7.136,45.837
			c-4.283,13.729-13.762,25.905-20.443,38.513c-0.755,1.424,1.403,2.687,2.158,1.262c6.341-11.963,14.211-23.188,19.361-35.76
			c5.667-13.833,7.489-29.41,8.333-44.231c1.812-31.837-3.342-63.622-3.437-95.45C384.896,278.247,382.396,278.247,382.4,279.859
			L382.4,279.859z"/>
	</g>
	<g>
		<path fill="#070707" d="M358.346,89.506c16.918,24.947,21.533,54.672,22.292,84.223c0.422,16.451-0.291,32.912-0.467,49.361
			c-0.081,7.642-0.008,15.284,0.287,22.921c0.241,6.271-0.127,13.595,1.808,19.63c0.49,1.529,2.904,0.875,2.41-0.665
			c-2.032-6.339-1.536-14.249-1.791-20.854c-0.32-8.321-0.274-16.656-0.167-24.981c0.213-16.456,0.82-32.902,0.308-49.359
			c-0.892-28.586-6.212-57.491-22.521-81.539C359.605,86.918,357.438,88.167,358.346,89.506L358.346,89.506z"/>
	</g>
	<g>
		<path fill="#070707" d="M140.379,462.195c12.608-6.479,19.249,9.607,27.959,15.526c0.05-0.381,0.1-0.762,0.149-1.143
			c-6.97,1.022-12.695,5.751-18.141,9.876c-6.287,4.763-14.485,11.745-22.775,7.751c-4.437-2.137-7.862-6.9-7.13-11.896
			c0.562-3.837,3.548-7.118,6.179-9.732c5.061-5.028,11.512-8.81,17.845-12.009c0.72-0.364,0.086-1.442-0.631-1.08
			c-10.007,5.057-32.891,18.234-21.74,31.884c13.953,17.079,32.646-11.522,46.725-13.588c0.586-0.086,0.543-0.875,0.149-1.143
			c-9.311-6.325-15.748-22.45-29.221-15.526C139.031,461.484,139.664,462.562,140.379,462.195L140.379,462.195z"/>
	</g>
	<g>
		<path fill="#070707" d="M125.96,492.409c-2.116-7.428,3.381-13.225,9.515-16.455c0.713-0.376,0.082-1.455-0.631-1.08
			c-6.659,3.507-12.355,9.916-10.089,17.867C124.976,493.516,126.182,493.186,125.96,492.409L125.96,492.409z"/>
	</g>
	<g>
		<path fill="#070707" d="M337.483,471.157c5.789-9.919,17.206-17.703,28.723-12.367c9.443,4.375,15.98,17.641,13.416,27.708
			c-3.223,12.649-18.803,5.832-24.886,0.052c-5.366-5.099-9.458-11.334-15.655-15.547c-0.669-0.454-1.293,0.63-0.631,1.08
			c8.851,6.016,13.964,17.826,24.406,21.511c9.058,3.196,17.629-0.271,18.587-10.397c1.045-11.031-7.366-22.971-17.481-26.679
			c-11.077-4.062-22.336,5.061-27.559,14.009C335.996,471.224,337.077,471.853,337.483,471.157L337.483,471.157z"/>
	</g>
	<g>
		<path fill="#070707" d="M365.282,474.441c4.787,4.961,8.562,11.303,8.802,18.343c0.027,0.804,1.277,0.807,1.25,0
			c-0.25-7.376-4.144-14.021-9.167-19.228C365.606,472.977,364.723,473.861,365.282,474.441L365.282,474.441z"/>
	</g>
	<g>
		<path fill="#070707" d="M359.486,266.781c-9.467-17.472-26.393-30.3-46.505-34.145c-1.459,0.174-2.912,0.391-4.351,0.703
			c-3.463,0.751-6.693,2.053-9.938,3.317c0.549-0.019,1.099-0.036,1.651-0.036c23.353,0,43.647,13.011,54.244,32.11
			C356.023,267.701,357.728,267.047,359.486,266.781z"/>
		<path fill="#070707" d="M367.168,291.027c-1.104,0.533-2.184,0.985-3.302,1.313c-0.464,0.195-0.954,0.352-1.417,0.51
			c-0.115,0.04-0.212,0.032-0.327,0.053c0.186,1.908,0.305,3.839,0.305,5.797c0,34.236-27.85,62.086-62.083,62.086
			c-34.229,0-62.076-27.85-62.076-62.086c0-17.408,7.27-33.094,18.856-44.372c-1.397,0.095-2.81,0.171-4.161,0.572
			c-0.672,0.199-1.336,0.417-1.997,0.645c-1.193,0.561-2.382,1.127-3.557,1.713c-8.974,11.437-14.381,25.811-14.381,41.442
			c0,37.122,30.199,67.32,67.315,67.32c37.122,0,67.317-30.198,67.317-67.32C367.661,296.1,367.46,293.553,367.168,291.027z"/>
	</g>
	<path fill="none" stroke="#070707" stroke-width="1.5" stroke-miterlimit="10" d="M331.785,299.167
		c0-17.21-13.949-31.161-31.159-31.161c-17.214,0-31.164,13.951-31.164,31.161c0,17.211,13.95,31.162,31.164,31.162
		C317.836,330.329,331.785,316.378,331.785,299.167z"/>
	<g>
		<path fill="#070707" d="M382.551,266.55c2.621,0.405,6.519,1.163,5.961,4.65c-0.423,2.647-2.812,5.037-4.557,6.884
			c-3.99,4.23-8.784,7.776-13.577,11.037c-4.128,2.808-11.719,7.148-15.113,1.168c-4.057-7.148,5.015-13.5,10.853-14.513
			c0.793-0.138,0.456-1.342-0.332-1.205c-7.021,1.218-13.562,6.668-12.28,14.41c1.362,8.228,11.193,5.222,15.841,2.311
			c5.847-3.661,32.338-23.045,13.537-25.947C382.095,265.223,381.756,266.427,382.551,266.55L382.551,266.55z"/>
	</g>
	<g>
		<path fill="#070707" d="M354.814,282.829c-3.63-3.986-5.869-9.809-0.708-13.627c2.18-1.613,5.145-2.209,7.752-2.732
			c7.026-1.409,14.542-1.48,21.533,0.08c0.785,0.175,1.119-1.03,0.332-1.205c-8.46-1.889-20.084-2.246-28.167,1.661
			c-7.639,3.693-6.875,10.943-1.627,16.708C354.474,284.311,355.355,283.424,354.814,282.829L354.814,282.829z"/>
	</g>
	<g>
		<path fill="#070707" d="M240.778,276.177c2.788-6.979,9.351-10.729,16.715-9.209c3.692,0.762,6.349,1.034,10.031,0.135
			c4.314-1.053,8.411-3.469,12.513-5.086c2.419-0.954,5.107-1.397,7.604-2.129c3.719-1.09,9.002-1.362,7.679-6.323
			c-0.282-1.06-1.047-2.084-1.609-3.009c-1.936-3.179,0.808-6.109,2.783-8.369c4.255-4.87,10.95-7.913,17.302-5.82
			c0.768,0.253,1.094-0.954,0.332-1.205c-8.507-2.804-16.595,2.794-21.23,9.656c-1.985,2.938-1.464,4.402,0.3,7.299
			c1.696,2.786,1.422,4.147-1.213,5.085c-1.86,0.662-3.763,1.213-5.658,1.769c-3.246,0.951-6.347,1.688-9.482,3.007
			c-5.852,2.461-11.094,5.485-17.633,4.104c-8.611-1.82-16.193,1.14-19.638,9.765C239.273,276.594,240.483,276.916,240.778,276.177
			L240.778,276.177z"/>
	</g>
	<g>
		<path fill="#070707" d="M253.909,257.265c4.853-3.596,9.748-1.746,15.171-2.791c3.859-0.744,7.624-2.756,10.823-4.956
			c8.29-5.7,14.26-11.898,24.835-13.13c0.791-0.092,0.8-1.343,0-1.25c-8.943,1.042-15.347,5.218-22.16,10.764
			c-4.344,3.536-8.562,5.557-13.83,7.366c-2.896,0.995-6.491,0.085-9.501,0.285c-2.313,0.153-4.165,1.295-5.969,2.632
			C252.639,256.66,253.261,257.746,253.909,257.265L253.909,257.265z"/>
	</g>
	<g>
		<path fill="#070707" d="M292.844,249.046c2.816-2.594,7.545-1.708,10.892-0.94c2.553,0.585,4.319,3.806,6.397,5.277
			c4.293,3.039,7.617-2.355,11.381-2.74c7.057-0.721,9.975,4.917,13.724,9.622c4.562,5.727,11.037,9.564,14.822,15.958
			c0.41,0.692,1.491,0.064,1.08-0.631c-4.214-7.116-11.545-11.582-16.511-18.126c-3.396-4.475-5.727-7.511-11.661-8.034
			c-2.146-0.189-3.847,0.195-5.506,1.566c-5.433,4.492-7.419-0.541-11.406-3.102c-3.697-2.375-10.711-2.852-14.097,0.266
			C291.365,248.709,292.252,249.591,292.844,249.046L292.844,249.046z"/>
	</g>
	<g>
		<path fill="#070707" d="M266.094,266.305c-12.412,11.257-16.377,31.358-14.044,47.422c1.193,8.212,3.91,16.516,9.23,23.03
			c5.238,6.413,10.775,9.388,18.749,11.172c7.688,1.721,15.753,3.228,23.538,4.368c8.455,1.238,16.958-0.864,24.331-4.991
			c8.522-4.771,14.411-12.644,18.488-21.331c4.792-10.208,8.136-21.672,10.563-32.657c0.174-0.785-1.031-1.119-1.205-0.332
			c-4.067,18.403-9.913,40.235-26.009,51.678c-14.418,10.249-30.85,5.546-46.751,2.592c-7.624-1.417-13.599-3.546-19.043-9.285
			c-5.642-5.945-8.7-13.904-10.253-21.823c-3.193-16.287,0.613-37.464,13.289-48.958
			C267.576,266.646,266.689,265.765,266.094,266.305L266.094,266.305z"/>
	</g>
	<g>
		<path fill="#070707" d="M265.1,338.733c-1.023-5.275,0.763-9.125,6.527-7.413c3.738,1.11,5.981,3.894,8.306,6.81
			c3.813,4.783,19.652,4.249,17.436,12.151c-0.219,0.777,0.987,1.107,1.205,0.332c1.426-5.081-2.384-7.192-6.563-8.424
			c-2.724-0.803-6.492-1.351-8.755-2.996c-2.608-1.896-4.052-4.914-6.708-6.704c-2.587-1.743-6.766-4.025-9.994-2.623
			c-3.722,1.616-3.312,5.828-2.658,9.199C264.048,339.856,265.253,339.521,265.1,338.733L265.1,338.733z"/>
	</g>
	<g>
		<path fill="#070707" d="M324.696,340.335c3.431,1.16,8.073,0.083,9.336-3.742c1.452-4.399-1.254-8.025-5.886-7.057
			c-1.879,0.393-2.808,1.305-3.339,2.979c-0.25,0.787-0.118,1.405-0.886,0.415c-0.396-0.511-0.868-0.681-1.508-0.505
			c-1.237,0.34-1.423,2.437-1.523,3.442c-0.225,2.23,1.89,3.656,3.656,4.404c0.733,0.31,1.371-0.767,0.631-1.08
			c-1.817-0.769-3.296-1.9-2.937-4.066c0.316-1.909,0.623-0.928,1.58-0.367c1.632,0.956,1.988-0.893,2.191-1.911
			c0.346-1.735,2.129-2.144,3.734-2.31c2.991-0.309,3.765,2.896,3.26,5.18c-0.785,3.546-5.027,4.41-7.979,3.412
			C324.263,338.871,323.937,340.078,324.696,340.335z"/>
	</g>
	<g>
		<path fill="#070707" d="M338.82,297.285c0.945-1.358,2.576-2.849,3.868-1.022c1.128,1.595,1.068,3.899,0.833,5.74
			c0.153-0.201,0.306-0.401,0.459-0.603c-1.194,0.189-2.981,0.55-3.95-0.419c-0.776-0.777-0.897-2.327-1.147-3.336
			c-0.193-0.782-1.398-0.45-1.205,0.332c0.337,1.362,0.543,2.962,1.581,4c1.266,1.266,3.493,0.875,5.054,0.628
			c0.295-0.047,0.426-0.347,0.459-0.603c0.305-2.378,0.207-5.687-1.869-7.323c-1.979-1.56-4.04,0.364-5.162,1.975
			C337.278,297.317,338.363,297.941,338.82,297.285L338.82,297.285z"/>
	</g>
	<g>
		<path fill="#070707" d="M240.019,510.8c2.182,5.893-11.129,6.219-11.912-0.156c-0.284-2.31,5.019-2.597,6.296-2.599
			c2.271-0.003,4.586,0.804,5.678,2.904c0.372,0.716,1.451,0.083,1.079-0.631c-1.613-3.104-5.248-3.733-8.45-3.446
			c-2.148,0.192-6.685,1.296-5.775,4.402c1.009,3.445,4.345,5.16,7.703,5.408c3.642,0.269,8.108-2.101,6.585-6.215
			C240.947,509.719,239.738,510.042,240.019,510.8z"/>
	</g>
	<g>
		<path fill="#070707" d="M299.603,510.834c-1.196-6.379-10.432-7.784-15.549-6.954c-4.939,0.802-9.548,2.589-14.374,3.817
			c-2.405,0.611-4.968,1.392-5.909,3.871c-1.771,4.661,7.396,5.786,9.799,6.051c8.802,0.974,17.726-0.312,25.746-4.079
			c0.194-0.092,0.31-0.335,0.31-0.54c0-0.667,0-1.333,0-2c0-0.806-1.25-0.806-1.25,0c0,5.043-15.406,5.642-19.083,5.628
			c-3.811-0.014-7.676-0.207-11.325-1.383c-1.852-0.598-4.798-2.614-1.725-4.929c1.009-0.76,2.562-1.08,3.77-1.414
			c2.577-0.713,5.111-1.528,7.671-2.309c3.673-1.12,7.431-1.81,11.277-1.688c3.344,0.105,8.743,2.562,9.438,6.261
			C298.546,511.958,299.75,511.621,299.603,510.834z"/>
	</g>
	<g>
		<path fill="#070707" d="M312.894,496.36c1.745,0.696,4.031,0.505,5.788-0.045c1.663-0.52,2.636-1.94,1.194-3.347
			c-1.849-1.802-4.633-1.696-6.563-0.127c-1.621,1.318-1.528,3.541,0.659,4.058c0.784,0.186,1.116-1.02,0.332-1.205
			c-1.728-0.408-0.488-1.792,0.467-2.358c1.421-0.841,3.615-0.546,4.554,0.902c0.461,0.71-1.943,1.119-2.291,1.175
			c-1.221,0.197-2.645,0.206-3.808-0.258C312.477,494.856,312.154,496.065,312.894,496.36L312.894,496.36z"/>
	</g>
</g>
</svg>
